<?xml version="1.0" encoding="utf-8"?>
<svg xmlns="http://www.w3.org/2000/svg" xmlns:xlink="http://www.w3.org/1999/xlink" width="600" height="400" viewBox="0 0 2400 1600">
<defs>
  <clipPath id="clip700">
    <rect x="0" y="0" width="2400" height="1600"/>
  </clipPath>
</defs>
<path clip-path="url(#clip700)" d="
M0 1600 L2400 1600 L2400 0 L0 0  Z
  " fill="#ffffff" fill-rule="evenodd" fill-opacity="1"/>
<defs>
  <clipPath id="clip701">
    <rect x="480" y="0" width="1681" height="1600"/>
  </clipPath>
</defs>
<path clip-path="url(#clip700)" d="
M211.602 1423.18 L2352.76 1423.18 L2352.76 123.472 L211.602 123.472  Z
  " fill="#ffffff" fill-rule="evenodd" fill-opacity="1"/>
<defs>
  <clipPath id="clip702">
    <rect x="211" y="123" width="2142" height="1301"/>
  </clipPath>
</defs>
<polyline clip-path="url(#clip702)" style="stroke:#000000; stroke-width:2; stroke-opacity:0.1; fill:none" points="
  560.766,1423.18 560.766,123.472 
  "/>
<polyline clip-path="url(#clip702)" style="stroke:#000000; stroke-width:2; stroke-opacity:0.1; fill:none" points="
  1137.9,1423.18 1137.9,123.472 
  "/>
<polyline clip-path="url(#clip702)" style="stroke:#000000; stroke-width:2; stroke-opacity:0.1; fill:none" points="
  1715.03,1423.18 1715.03,123.472 
  "/>
<polyline clip-path="url(#clip702)" style="stroke:#000000; stroke-width:2; stroke-opacity:0.1; fill:none" points="
  2292.16,1423.18 2292.16,123.472 
  "/>
<polyline clip-path="url(#clip700)" style="stroke:#000000; stroke-width:4; stroke-opacity:1; fill:none" points="
  211.602,1423.18 2352.76,1423.18 
  "/>
<polyline clip-path="url(#clip700)" style="stroke:#000000; stroke-width:4; stroke-opacity:1; fill:none" points="
  560.766,1423.18 560.766,1407.58 
  "/>
<polyline clip-path="url(#clip700)" style="stroke:#000000; stroke-width:4; stroke-opacity:1; fill:none" points="
  1137.9,1423.18 1137.9,1407.58 
  "/>
<polyline clip-path="url(#clip700)" style="stroke:#000000; stroke-width:4; stroke-opacity:1; fill:none" points="
  1715.03,1423.18 1715.03,1407.58 
  "/>
<polyline clip-path="url(#clip700)" style="stroke:#000000; stroke-width:4; stroke-opacity:1; fill:none" points="
  2292.16,1423.18 2292.16,1407.58 
  "/>
<path clip-path="url(#clip700)" d="M 0 0 M529.331 1452.37 Q525.72 1452.37 523.891 1455.94 Q522.086 1459.48 522.086 1466.61 Q522.086 1473.71 523.891 1477.28 Q525.72 1480.82 529.331 1480.82 Q532.965 1480.82 534.771 1477.28 Q536.6 1473.71 536.6 1466.61 Q536.6 1459.48 534.771 1455.94 Q532.965 1452.37 529.331 1452.37 M529.331 1448.67 Q535.141 1448.67 538.197 1453.27 Q541.276 1457.86 541.276 1466.61 Q541.276 1475.33 538.197 1479.94 Q535.141 1484.52 529.331 1484.52 Q523.521 1484.52 520.442 1479.94 Q517.387 1475.33 517.387 1466.61 Q517.387 1457.86 520.442 1453.27 Q523.521 1448.67 529.331 1448.67 Z" fill="#000000" fill-rule="evenodd" fill-opacity="1" /><path clip-path="url(#clip700)" d="M 0 0 M546.345 1477.97 L551.229 1477.97 L551.229 1483.85 L546.345 1483.85 L546.345 1477.97 Z" fill="#000000" fill-rule="evenodd" fill-opacity="1" /><path clip-path="url(#clip700)" d="M 0 0 M569.146 1453.37 L557.34 1471.81 L569.146 1471.81 L569.146 1453.37 M567.919 1449.29 L573.799 1449.29 L573.799 1471.81 L578.729 1471.81 L578.729 1475.7 L573.799 1475.7 L573.799 1483.85 L569.146 1483.85 L569.146 1475.7 L553.544 1475.7 L553.544 1471.19 L567.919 1449.29 Z" fill="#000000" fill-rule="evenodd" fill-opacity="1" /><path clip-path="url(#clip700)" d="M 0 0 M587.826 1479.92 L604.146 1479.92 L604.146 1483.85 L582.201 1483.85 L582.201 1479.92 Q584.863 1477.16 589.447 1472.53 Q594.053 1467.88 595.234 1466.54 Q597.479 1464.01 598.359 1462.28 Q599.261 1460.52 599.261 1458.83 Q599.261 1456.07 597.317 1454.34 Q595.396 1452.6 592.294 1452.6 Q590.095 1452.6 587.641 1453.37 Q585.211 1454.13 582.433 1455.68 L582.433 1450.96 Q585.257 1449.82 587.711 1449.25 Q590.164 1448.67 592.201 1448.67 Q597.572 1448.67 600.766 1451.35 Q603.96 1454.04 603.96 1458.53 Q603.96 1460.66 603.15 1462.58 Q602.363 1464.48 600.257 1467.07 Q599.678 1467.74 596.576 1470.96 Q593.474 1474.15 587.826 1479.92 Z" fill="#000000" fill-rule="evenodd" fill-opacity="1" /><path clip-path="url(#clip700)" d="M 0 0 M1105.42 1452.37 Q1101.81 1452.37 1099.98 1455.94 Q1098.17 1459.48 1098.17 1466.61 Q1098.17 1473.71 1099.98 1477.28 Q1101.81 1480.82 1105.42 1480.82 Q1109.05 1480.82 1110.86 1477.28 Q1112.69 1473.71 1112.69 1466.61 Q1112.69 1459.48 1110.86 1455.94 Q1109.05 1452.37 1105.42 1452.37 M1105.42 1448.67 Q1111.23 1448.67 1114.29 1453.27 Q1117.36 1457.86 1117.36 1466.61 Q1117.36 1475.33 1114.29 1479.94 Q1111.23 1484.52 1105.42 1484.52 Q1099.61 1484.52 1096.53 1479.94 Q1093.48 1475.33 1093.48 1466.61 Q1093.48 1457.86 1096.53 1453.27 Q1099.61 1448.67 1105.42 1448.67 Z" fill="#000000" fill-rule="evenodd" fill-opacity="1" /><path clip-path="url(#clip700)" d="M 0 0 M1122.43 1477.97 L1127.32 1477.97 L1127.32 1483.85 L1122.43 1483.85 L1122.43 1477.97 Z" fill="#000000" fill-rule="evenodd" fill-opacity="1" /><path clip-path="url(#clip700)" d="M 0 0 M1145.23 1453.37 L1133.43 1471.81 L1145.23 1471.81 L1145.23 1453.37 M1144.01 1449.29 L1149.89 1449.29 L1149.89 1471.81 L1154.82 1471.81 L1154.82 1475.7 L1149.89 1475.7 L1149.89 1483.85 L1145.23 1483.85 L1145.23 1475.7 L1129.63 1475.7 L1129.63 1471.19 L1144.01 1449.29 Z" fill="#000000" fill-rule="evenodd" fill-opacity="1" /><path clip-path="url(#clip700)" d="M 0 0 M1172.73 1453.37 L1160.93 1471.81 L1172.73 1471.81 L1172.73 1453.37 M1171.51 1449.29 L1177.39 1449.29 L1177.39 1471.81 L1182.32 1471.81 L1182.32 1475.7 L1177.39 1475.7 L1177.39 1483.85 L1172.73 1483.85 L1172.73 1475.7 L1157.13 1475.7 L1157.13 1471.19 L1171.51 1449.29 Z" fill="#000000" fill-rule="evenodd" fill-opacity="1" /><path clip-path="url(#clip700)" d="M 0 0 M1682.71 1452.37 Q1679.1 1452.37 1677.27 1455.94 Q1675.47 1459.48 1675.47 1466.61 Q1675.47 1473.71 1677.27 1477.28 Q1679.1 1480.82 1682.71 1480.82 Q1686.35 1480.82 1688.15 1477.28 Q1689.98 1473.71 1689.98 1466.61 Q1689.98 1459.48 1688.15 1455.94 Q1686.35 1452.37 1682.71 1452.37 M1682.71 1448.67 Q1688.52 1448.67 1691.58 1453.27 Q1694.66 1457.86 1694.66 1466.61 Q1694.66 1475.33 1691.58 1479.94 Q1688.52 1484.52 1682.71 1484.52 Q1676.9 1484.52 1673.82 1479.94 Q1670.77 1475.33 1670.77 1466.61 Q1670.77 1457.86 1673.82 1453.27 Q1676.9 1448.67 1682.71 1448.67 Z" fill="#000000" fill-rule="evenodd" fill-opacity="1" /><path clip-path="url(#clip700)" d="M 0 0 M1699.73 1477.97 L1704.61 1477.97 L1704.61 1483.85 L1699.73 1483.85 L1699.73 1477.97 Z" fill="#000000" fill-rule="evenodd" fill-opacity="1" /><path clip-path="url(#clip700)" d="M 0 0 M1722.53 1453.37 L1710.72 1471.81 L1722.53 1471.81 L1722.53 1453.37 M1721.3 1449.29 L1727.18 1449.29 L1727.18 1471.81 L1732.11 1471.81 L1732.11 1475.7 L1727.18 1475.7 L1727.18 1483.85 L1722.53 1483.85 L1722.53 1475.7 L1706.93 1475.7 L1706.93 1471.19 L1721.3 1449.29 Z" fill="#000000" fill-rule="evenodd" fill-opacity="1" /><path clip-path="url(#clip700)" d="M 0 0 M1747.76 1464.71 Q1744.61 1464.71 1742.76 1466.86 Q1740.93 1469.01 1740.93 1472.76 Q1740.93 1476.49 1742.76 1478.67 Q1744.61 1480.82 1747.76 1480.82 Q1750.91 1480.82 1752.74 1478.67 Q1754.59 1476.49 1754.59 1472.76 Q1754.59 1469.01 1752.74 1466.86 Q1750.91 1464.71 1747.76 1464.71 M1757.04 1450.06 L1757.04 1454.31 Q1755.28 1453.48 1753.48 1453.04 Q1751.69 1452.6 1749.93 1452.6 Q1745.3 1452.6 1742.85 1455.73 Q1740.42 1458.85 1740.07 1465.17 Q1741.44 1463.16 1743.5 1462.09 Q1745.56 1461 1748.04 1461 Q1753.24 1461 1756.25 1464.18 Q1759.29 1467.32 1759.29 1472.76 Q1759.29 1478.09 1756.14 1481.31 Q1752.99 1484.52 1747.76 1484.52 Q1741.76 1484.52 1738.59 1479.94 Q1735.42 1475.33 1735.42 1466.61 Q1735.42 1458.41 1739.31 1453.55 Q1743.2 1448.67 1749.75 1448.67 Q1751.51 1448.67 1753.29 1449.01 Q1755.1 1449.36 1757.04 1450.06 Z" fill="#000000" fill-rule="evenodd" fill-opacity="1" /><path clip-path="url(#clip700)" d="M 0 0 M2259.97 1452.37 Q2256.36 1452.37 2254.53 1455.94 Q2252.72 1459.48 2252.72 1466.61 Q2252.72 1473.71 2254.53 1477.28 Q2256.36 1480.82 2259.97 1480.82 Q2263.6 1480.82 2265.41 1477.28 Q2267.24 1473.71 2267.24 1466.61 Q2267.24 1459.48 2265.41 1455.94 Q2263.6 1452.37 2259.97 1452.37 M2259.97 1448.67 Q2265.78 1448.67 2268.84 1453.27 Q2271.91 1457.86 2271.91 1466.61 Q2271.91 1475.33 2268.84 1479.94 Q2265.78 1484.52 2259.97 1484.52 Q2254.16 1484.52 2251.08 1479.94 Q2248.03 1475.33 2248.03 1466.61 Q2248.03 1457.86 2251.08 1453.27 Q2254.16 1448.67 2259.97 1448.67 Z" fill="#000000" fill-rule="evenodd" fill-opacity="1" /><path clip-path="url(#clip700)" d="M 0 0 M2276.98 1477.97 L2281.87 1477.97 L2281.87 1483.85 L2276.98 1483.85 L2276.98 1477.97 Z" fill="#000000" fill-rule="evenodd" fill-opacity="1" /><path clip-path="url(#clip700)" d="M 0 0 M2299.78 1453.37 L2287.98 1471.81 L2299.78 1471.81 L2299.78 1453.37 M2298.56 1449.29 L2304.44 1449.29 L2304.44 1471.81 L2309.37 1471.81 L2309.37 1475.7 L2304.44 1475.7 L2304.44 1483.85 L2299.78 1483.85 L2299.78 1475.7 L2284.18 1475.7 L2284.18 1471.19 L2298.56 1449.29 Z" fill="#000000" fill-rule="evenodd" fill-opacity="1" /><path clip-path="url(#clip700)" d="M 0 0 M2324.44 1467.44 Q2321.1 1467.44 2319.18 1469.22 Q2317.28 1471 2317.28 1474.13 Q2317.28 1477.25 2319.18 1479.04 Q2321.1 1480.82 2324.44 1480.82 Q2327.77 1480.82 2329.69 1479.04 Q2331.61 1477.23 2331.61 1474.13 Q2331.61 1471 2329.69 1469.22 Q2327.79 1467.44 2324.44 1467.44 M2319.76 1465.45 Q2316.75 1464.71 2315.06 1462.65 Q2313.4 1460.59 2313.4 1457.63 Q2313.4 1453.48 2316.34 1451.07 Q2319.3 1448.67 2324.44 1448.67 Q2329.6 1448.67 2332.54 1451.07 Q2335.48 1453.48 2335.48 1457.63 Q2335.48 1460.59 2333.79 1462.65 Q2332.12 1464.71 2329.14 1465.45 Q2332.52 1466.24 2334.39 1468.53 Q2336.29 1470.82 2336.29 1474.13 Q2336.29 1479.15 2333.21 1481.84 Q2330.15 1484.52 2324.44 1484.52 Q2318.72 1484.52 2315.64 1481.84 Q2312.59 1479.15 2312.59 1474.13 Q2312.59 1470.82 2314.48 1468.53 Q2316.38 1466.24 2319.76 1465.45 M2318.05 1458.06 Q2318.05 1460.75 2319.71 1462.25 Q2321.4 1463.76 2324.44 1463.76 Q2327.45 1463.76 2329.14 1462.25 Q2330.85 1460.75 2330.85 1458.06 Q2330.85 1455.38 2329.14 1453.88 Q2327.45 1452.37 2324.44 1452.37 Q2321.4 1452.37 2319.71 1453.88 Q2318.05 1455.38 2318.05 1458.06 Z" fill="#000000" fill-rule="evenodd" fill-opacity="1" /><path clip-path="url(#clip700)" d="M 0 0 M1272.66 1565.85 L1272.66 1581.6 L1266.77 1581.6 L1266.77 1532.62 Q1266.77 1518.1 1280.33 1518.1 Q1294.15 1518.1 1294.15 1530.36 Q1294.15 1539.08 1288.67 1542.26 Q1297.58 1545.13 1297.58 1553.63 Q1297.58 1568.71 1282.24 1568.71 Q1275.5 1568.71 1272.66 1565.85 M1272.66 1558.21 Q1276.2 1563.72 1282.47 1563.72 Q1291.63 1563.72 1291.63 1553.72 Q1291.63 1544.75 1276.86 1545.45 L1276.86 1540.03 Q1288.42 1540.03 1288.42 1529.85 Q1288.42 1522.88 1280.97 1522.88 Q1272.66 1522.88 1272.66 1532.81 L1272.66 1558.21 Z" fill="#000000" fill-rule="evenodd" fill-opacity="1" /><polyline clip-path="url(#clip702)" style="stroke:#000000; stroke-width:2; stroke-opacity:0.1; fill:none" points="
  211.602,1386.4 2352.76,1386.4 
  "/>
<polyline clip-path="url(#clip702)" style="stroke:#000000; stroke-width:2; stroke-opacity:0.1; fill:none" points="
  211.602,1107.19 2352.76,1107.19 
  "/>
<polyline clip-path="url(#clip702)" style="stroke:#000000; stroke-width:2; stroke-opacity:0.1; fill:none" points="
  211.602,827.988 2352.76,827.988 
  "/>
<polyline clip-path="url(#clip702)" style="stroke:#000000; stroke-width:2; stroke-opacity:0.1; fill:none" points="
  211.602,548.784 2352.76,548.784 
  "/>
<polyline clip-path="url(#clip702)" style="stroke:#000000; stroke-width:2; stroke-opacity:0.1; fill:none" points="
  211.602,269.58 2352.76,269.58 
  "/>
<polyline clip-path="url(#clip700)" style="stroke:#000000; stroke-width:4; stroke-opacity:1; fill:none" points="
  211.602,1423.18 211.602,123.472 
  "/>
<polyline clip-path="url(#clip700)" style="stroke:#000000; stroke-width:4; stroke-opacity:1; fill:none" points="
  211.602,1386.4 237.296,1386.4 
  "/>
<polyline clip-path="url(#clip700)" style="stroke:#000000; stroke-width:4; stroke-opacity:1; fill:none" points="
  211.602,1107.19 237.296,1107.19 
  "/>
<polyline clip-path="url(#clip700)" style="stroke:#000000; stroke-width:4; stroke-opacity:1; fill:none" points="
  211.602,827.988 237.296,827.988 
  "/>
<polyline clip-path="url(#clip700)" style="stroke:#000000; stroke-width:4; stroke-opacity:1; fill:none" points="
  211.602,548.784 237.296,548.784 
  "/>
<polyline clip-path="url(#clip700)" style="stroke:#000000; stroke-width:4; stroke-opacity:1; fill:none" points="
  211.602,269.58 237.296,269.58 
  "/>
<path clip-path="url(#clip700)" d="M 0 0 M126.691 1372.19 Q123.08 1372.19 121.251 1375.76 Q119.445 1379.3 119.445 1386.43 Q119.445 1393.54 121.251 1397.1 Q123.08 1400.64 126.691 1400.64 Q130.325 1400.64 132.13 1397.1 Q133.959 1393.54 133.959 1386.43 Q133.959 1379.3 132.13 1375.76 Q130.325 1372.19 126.691 1372.19 M126.691 1368.49 Q132.501 1368.49 135.556 1373.1 Q138.635 1377.68 138.635 1386.43 Q138.635 1395.16 135.556 1399.76 Q132.501 1404.35 126.691 1404.35 Q120.88 1404.35 117.802 1399.76 Q114.746 1395.16 114.746 1386.43 Q114.746 1377.68 117.802 1373.1 Q120.88 1368.49 126.691 1368.49 Z" fill="#000000" fill-rule="evenodd" fill-opacity="1" /><path clip-path="url(#clip700)" d="M 0 0 M143.704 1397.8 L148.589 1397.8 L148.589 1403.68 L143.704 1403.68 L143.704 1397.8 Z" fill="#000000" fill-rule="evenodd" fill-opacity="1" /><path clip-path="url(#clip700)" d="M 0 0 M163.658 1372.19 Q160.047 1372.19 158.218 1375.76 Q156.413 1379.3 156.413 1386.43 Q156.413 1393.54 158.218 1397.1 Q160.047 1400.64 163.658 1400.64 Q167.292 1400.64 169.098 1397.1 Q170.927 1393.54 170.927 1386.43 Q170.927 1379.3 169.098 1375.76 Q167.292 1372.19 163.658 1372.19 M163.658 1368.49 Q169.468 1368.49 172.524 1373.1 Q175.602 1377.68 175.602 1386.43 Q175.602 1395.16 172.524 1399.76 Q169.468 1404.35 163.658 1404.35 Q157.848 1404.35 154.769 1399.76 Q151.714 1395.16 151.714 1386.43 Q151.714 1377.68 154.769 1373.1 Q157.848 1368.49 163.658 1368.49 Z" fill="#000000" fill-rule="evenodd" fill-opacity="1" /><path clip-path="url(#clip700)" d="M 0 0 M128.288 1092.99 Q124.677 1092.99 122.848 1096.56 Q121.043 1100.1 121.043 1107.23 Q121.043 1114.33 122.848 1117.9 Q124.677 1121.44 128.288 1121.44 Q131.922 1121.44 133.728 1117.9 Q135.556 1114.33 135.556 1107.23 Q135.556 1100.1 133.728 1096.56 Q131.922 1092.99 128.288 1092.99 M128.288 1089.29 Q134.098 1089.29 137.154 1093.89 Q140.232 1098.48 140.232 1107.23 Q140.232 1115.95 137.154 1120.56 Q134.098 1125.14 128.288 1125.14 Q122.478 1125.14 119.399 1120.56 Q116.343 1115.95 116.343 1107.23 Q116.343 1098.48 119.399 1093.89 Q122.478 1089.29 128.288 1089.29 Z" fill="#000000" fill-rule="evenodd" fill-opacity="1" /><path clip-path="url(#clip700)" d="M 0 0 M145.302 1118.59 L150.186 1118.59 L150.186 1124.47 L145.302 1124.47 L145.302 1118.59 Z" fill="#000000" fill-rule="evenodd" fill-opacity="1" /><path clip-path="url(#clip700)" d="M 0 0 M159.283 1120.54 L175.602 1120.54 L175.602 1124.47 L153.658 1124.47 L153.658 1120.54 Q156.32 1117.78 160.903 1113.15 Q165.51 1108.5 166.69 1107.16 Q168.936 1104.63 169.815 1102.9 Q170.718 1101.14 170.718 1099.45 Q170.718 1096.69 168.774 1094.96 Q166.852 1093.22 163.751 1093.22 Q161.552 1093.22 159.098 1093.99 Q156.667 1094.75 153.89 1096.3 L153.89 1091.58 Q156.714 1090.44 159.167 1089.87 Q161.621 1089.29 163.658 1089.29 Q169.028 1089.29 172.223 1091.97 Q175.417 1094.66 175.417 1099.15 Q175.417 1101.28 174.607 1103.2 Q173.82 1105.1 171.714 1107.69 Q171.135 1108.36 168.033 1111.58 Q164.931 1114.77 159.283 1120.54 Z" fill="#000000" fill-rule="evenodd" fill-opacity="1" /><path clip-path="url(#clip700)" d="M 0 0 M126.205 813.786 Q122.593 813.786 120.765 817.351 Q118.959 820.893 118.959 828.022 Q118.959 835.129 120.765 838.694 Q122.593 842.235 126.205 842.235 Q129.839 842.235 131.644 838.694 Q133.473 835.129 133.473 828.022 Q133.473 820.893 131.644 817.351 Q129.839 813.786 126.205 813.786 M126.205 810.083 Q132.015 810.083 135.07 814.689 Q138.149 819.273 138.149 828.022 Q138.149 836.749 135.07 841.356 Q132.015 845.939 126.205 845.939 Q120.394 845.939 117.316 841.356 Q114.26 836.749 114.26 828.022 Q114.26 819.273 117.316 814.689 Q120.394 810.083 126.205 810.083 Z" fill="#000000" fill-rule="evenodd" fill-opacity="1" /><path clip-path="url(#clip700)" d="M 0 0 M143.218 839.388 L148.103 839.388 L148.103 845.268 L143.218 845.268 L143.218 839.388 Z" fill="#000000" fill-rule="evenodd" fill-opacity="1" /><path clip-path="url(#clip700)" d="M 0 0 M166.019 814.782 L154.214 833.231 L166.019 833.231 L166.019 814.782 M164.792 810.708 L170.672 810.708 L170.672 833.231 L175.602 833.231 L175.602 837.12 L170.672 837.12 L170.672 845.268 L166.019 845.268 L166.019 837.12 L150.417 837.12 L150.417 832.606 L164.792 810.708 Z" fill="#000000" fill-rule="evenodd" fill-opacity="1" /><path clip-path="url(#clip700)" d="M 0 0 M126.529 534.582 Q122.918 534.582 121.089 538.147 Q119.283 541.689 119.283 548.819 Q119.283 555.925 121.089 559.49 Q122.918 563.031 126.529 563.031 Q130.163 563.031 131.968 559.49 Q133.797 555.925 133.797 548.819 Q133.797 541.689 131.968 538.147 Q130.163 534.582 126.529 534.582 M126.529 530.879 Q132.339 530.879 135.394 535.485 Q138.473 540.069 138.473 548.819 Q138.473 557.545 135.394 562.152 Q132.339 566.735 126.529 566.735 Q120.718 566.735 117.64 562.152 Q114.584 557.545 114.584 548.819 Q114.584 540.069 117.64 535.485 Q120.718 530.879 126.529 530.879 Z" fill="#000000" fill-rule="evenodd" fill-opacity="1" /><path clip-path="url(#clip700)" d="M 0 0 M143.542 560.184 L148.427 560.184 L148.427 566.064 L143.542 566.064 L143.542 560.184 Z" fill="#000000" fill-rule="evenodd" fill-opacity="1" /><path clip-path="url(#clip700)" d="M 0 0 M164.075 546.92 Q160.927 546.92 159.075 549.073 Q157.246 551.226 157.246 554.976 Q157.246 558.703 159.075 560.879 Q160.927 563.031 164.075 563.031 Q167.223 563.031 169.052 560.879 Q170.903 558.703 170.903 554.976 Q170.903 551.226 169.052 549.073 Q167.223 546.92 164.075 546.92 M173.357 532.268 L173.357 536.527 Q171.598 535.694 169.792 535.254 Q168.01 534.814 166.251 534.814 Q161.621 534.814 159.167 537.939 Q156.737 541.064 156.39 547.383 Q157.755 545.369 159.815 544.305 Q161.876 543.217 164.352 543.217 Q169.561 543.217 172.57 546.388 Q175.602 549.536 175.602 554.976 Q175.602 560.3 172.454 563.517 Q169.306 566.735 164.075 566.735 Q158.079 566.735 154.908 562.152 Q151.737 557.545 151.737 548.819 Q151.737 540.624 155.626 535.763 Q159.515 530.879 166.065 530.879 Q167.825 530.879 169.607 531.226 Q171.413 531.573 173.357 532.268 Z" fill="#000000" fill-rule="evenodd" fill-opacity="1" /><path clip-path="url(#clip700)" d="M 0 0 M126.783 255.379 Q123.172 255.379 121.343 258.943 Q119.538 262.485 119.538 269.615 Q119.538 276.721 121.343 280.286 Q123.172 283.827 126.783 283.827 Q130.417 283.827 132.223 280.286 Q134.052 276.721 134.052 269.615 Q134.052 262.485 132.223 258.943 Q130.417 255.379 126.783 255.379 M126.783 251.675 Q132.593 251.675 135.649 256.281 Q138.728 260.865 138.728 269.615 Q138.728 278.341 135.649 282.948 Q132.593 287.531 126.783 287.531 Q120.973 287.531 117.894 282.948 Q114.839 278.341 114.839 269.615 Q114.839 260.865 117.894 256.281 Q120.973 251.675 126.783 251.675 Z" fill="#000000" fill-rule="evenodd" fill-opacity="1" /><path clip-path="url(#clip700)" d="M 0 0 M143.797 280.98 L148.681 280.98 L148.681 286.86 L143.797 286.86 L143.797 280.98 Z" fill="#000000" fill-rule="evenodd" fill-opacity="1" /><path clip-path="url(#clip700)" d="M 0 0 M163.751 270.448 Q160.417 270.448 158.496 272.23 Q156.598 274.013 156.598 277.138 Q156.598 280.263 158.496 282.045 Q160.417 283.827 163.751 283.827 Q167.084 283.827 169.005 282.045 Q170.927 280.239 170.927 277.138 Q170.927 274.013 169.005 272.23 Q167.107 270.448 163.751 270.448 M159.075 268.457 Q156.065 267.716 154.376 265.656 Q152.709 263.596 152.709 260.633 Q152.709 256.49 155.649 254.082 Q158.612 251.675 163.751 251.675 Q168.913 251.675 171.852 254.082 Q174.792 256.49 174.792 260.633 Q174.792 263.596 173.102 265.656 Q171.436 267.716 168.45 268.457 Q171.829 269.244 173.704 271.536 Q175.602 273.827 175.602 277.138 Q175.602 282.161 172.524 284.846 Q169.468 287.531 163.751 287.531 Q158.033 287.531 154.954 284.846 Q151.899 282.161 151.899 277.138 Q151.899 273.827 153.797 271.536 Q155.695 269.244 159.075 268.457 M157.362 261.073 Q157.362 263.758 159.028 265.263 Q160.718 266.767 163.751 266.767 Q166.76 266.767 168.45 265.263 Q170.163 263.758 170.163 261.073 Q170.163 258.388 168.45 256.883 Q166.76 255.379 163.751 255.379 Q160.718 255.379 159.028 256.883 Q157.362 258.388 157.362 261.073 Z" fill="#000000" fill-rule="evenodd" fill-opacity="1" /><path clip-path="url(#clip700)" d="M 0 0 M35.1993 806.109 Q31.2526 803.913 29.3747 800.858 Q27.4968 797.802 27.4968 793.664 Q27.4968 788.094 31.4117 785.071 Q35.2948 782.047 42.4881 782.047 L64.0042 782.047 L64.0042 787.935 L42.679 787.935 Q37.5546 787.935 35.072 789.75 Q32.5894 791.564 32.5894 795.288 Q32.5894 799.839 35.6131 802.481 Q38.6368 805.123 43.8567 805.123 L64.0042 805.123 L64.0042 811.011 L42.679 811.011 Q37.5228 811.011 35.072 812.825 Q32.5894 814.639 32.5894 818.427 Q32.5894 822.915 35.6449 825.557 Q38.6686 828.198 43.8567 828.198 L64.0042 828.198 L64.0042 834.087 L28.3562 834.087 L28.3562 828.198 L33.8944 828.198 Q30.616 826.193 29.0564 823.392 Q27.4968 820.591 27.4968 816.74 Q27.4968 812.857 29.4702 810.152 Q31.4436 807.414 35.1993 806.109 Z" fill="#000000" fill-rule="evenodd" fill-opacity="1" /><path clip-path="url(#clip700)" d="M 0 0 M46.0847 759.703 Q46.0847 766.801 47.7079 769.538 Q49.3312 772.276 53.2461 772.276 Q56.3653 772.276 58.2114 770.239 Q60.0256 768.17 60.0256 764.637 Q60.0256 759.767 56.5881 756.839 Q53.1188 753.879 47.3897 753.879 L46.0847 753.879 L46.0847 759.703 M43.6657 748.022 L64.0042 748.022 L64.0042 753.879 L58.5933 753.879 Q61.8398 755.884 63.3994 758.876 Q64.9272 761.868 64.9272 766.196 Q64.9272 771.671 61.8716 774.917 Q58.7843 778.132 53.6281 778.132 Q47.6125 778.132 44.5569 774.122 Q41.5014 770.079 41.5014 762.091 L41.5014 753.879 L40.9285 753.879 Q36.8862 753.879 34.6901 756.552 Q32.4621 759.194 32.4621 764 Q32.4621 767.056 33.1941 769.952 Q33.9262 772.849 35.3903 775.522 L29.9795 775.522 Q28.7381 772.307 28.1334 769.284 Q27.4968 766.26 27.4968 763.395 Q27.4968 755.661 31.5072 751.842 Q35.5176 748.022 43.6657 748.022 Z" fill="#000000" fill-rule="evenodd" fill-opacity="1" /><path clip-path="url(#clip700)" d="M 0 0 M45.7664 718.422 Q39.4007 718.422 35.8996 721.064 Q32.3984 723.673 32.3984 728.416 Q32.3984 733.127 35.8996 735.768 Q39.4007 738.378 45.7664 738.378 Q52.1003 738.378 55.6014 735.768 Q59.1026 733.127 59.1026 728.416 Q59.1026 723.673 55.6014 721.064 Q52.1003 718.422 45.7664 718.422 M59.58 712.565 Q68.683 712.565 73.1071 716.608 Q77.5631 720.65 77.5631 728.989 Q77.5631 732.076 77.0857 734.813 Q76.6401 737.551 75.6852 740.129 L69.9879 740.129 Q71.3884 737.551 72.0568 735.036 Q72.7252 732.522 72.7252 729.912 Q72.7252 724.151 69.7015 721.286 Q66.7096 718.422 60.6303 718.422 L57.7339 718.422 Q60.885 720.236 62.4446 723.069 Q64.0042 725.901 64.0042 729.848 Q64.0042 736.405 59.0071 740.415 Q54.01 744.426 45.7664 744.426 Q37.491 744.426 32.4939 740.415 Q27.4968 736.405 27.4968 729.848 Q27.4968 725.901 29.0564 723.069 Q30.616 720.236 33.7671 718.422 L28.3562 718.422 L28.3562 712.565 L59.58 712.565 Z" fill="#000000" fill-rule="evenodd" fill-opacity="1" /><path clip-path="url(#clip700)" d="M 0 0 M1061.45 35.9153 Q1064.24 30.8922 1068.13 28.5022 Q1072.02 26.1121 1077.28 26.1121 Q1084.37 26.1121 1088.22 31.0947 Q1092.07 36.0368 1092.07 45.1919 L1092.07 72.576 L1084.58 72.576 L1084.58 45.4349 Q1084.58 38.913 1082.27 35.7533 Q1079.96 32.5936 1075.22 32.5936 Q1069.43 32.5936 1066.06 36.4419 Q1062.7 40.2903 1062.7 46.9338 L1062.7 72.576 L1055.21 72.576 L1055.21 45.4349 Q1055.21 38.8725 1052.9 35.7533 Q1050.59 32.5936 1045.77 32.5936 Q1040.06 32.5936 1036.69 36.4824 Q1033.33 40.3308 1033.33 46.9338 L1033.33 72.576 L1025.84 72.576 L1025.84 27.2059 L1033.33 27.2059 L1033.33 34.2544 Q1035.88 30.082 1039.45 28.0971 Q1043.01 26.1121 1047.92 26.1121 Q1052.86 26.1121 1056.3 28.6237 Q1059.78 31.1352 1061.45 35.9153 Z" fill="#000000" fill-rule="evenodd" fill-opacity="1" /><path clip-path="url(#clip700)" d="M 0 0 M1120.51 49.7694 Q1111.47 49.7694 1107.99 51.8354 Q1104.51 53.9013 1104.51 58.8839 Q1104.51 62.8538 1107.1 65.2034 Q1109.73 67.5124 1114.23 67.5124 Q1120.43 67.5124 1124.15 63.1374 Q1127.92 58.7219 1127.92 51.4303 L1127.92 49.7694 L1120.51 49.7694 M1135.37 46.6907 L1135.37 72.576 L1127.92 72.576 L1127.92 65.6895 Q1125.37 69.8214 1121.56 71.8063 Q1117.75 73.7508 1112.24 73.7508 Q1105.28 73.7508 1101.14 69.8619 Q1097.05 65.9325 1097.05 59.3701 Q1097.05 51.7138 1102.16 47.825 Q1107.3 43.9361 1117.47 43.9361 L1127.92 43.9361 L1127.92 43.2069 Q1127.92 38.0623 1124.52 35.2672 Q1121.16 32.4315 1115.04 32.4315 Q1111.15 32.4315 1107.46 33.3632 Q1103.78 34.295 1100.37 36.1584 L1100.37 29.2718 Q1104.47 27.692 1108.31 26.9223 Q1112.16 26.1121 1115.81 26.1121 Q1125.65 26.1121 1130.51 31.2163 Q1135.37 36.3204 1135.37 46.6907 Z" fill="#000000" fill-rule="evenodd" fill-opacity="1" /><path clip-path="url(#clip700)" d="M 0 0 M1173.05 49.3643 Q1173.05 41.2625 1169.69 36.8065 Q1166.36 32.3505 1160.33 32.3505 Q1154.33 32.3505 1150.97 36.8065 Q1147.65 41.2625 1147.65 49.3643 Q1147.65 57.4256 1150.97 61.8816 Q1154.33 66.3376 1160.33 66.3376 Q1166.36 66.3376 1169.69 61.8816 Q1173.05 57.4256 1173.05 49.3643 M1180.5 66.9452 Q1180.5 78.5308 1175.36 84.1616 Q1170.21 89.8329 1159.6 89.8329 Q1155.67 89.8329 1152.19 89.2252 Q1148.7 88.6581 1145.42 87.4428 L1145.42 80.1917 Q1148.7 81.9741 1151.9 82.8248 Q1155.1 83.6755 1158.42 83.6755 Q1165.76 83.6755 1169.4 79.8271 Q1173.05 76.0193 1173.05 68.282 L1173.05 64.5957 Q1170.74 68.6061 1167.13 70.5911 Q1163.53 72.576 1158.51 72.576 Q1150.16 72.576 1145.06 66.2161 Q1139.95 59.8562 1139.95 49.3643 Q1139.95 38.832 1145.06 32.472 Q1150.16 26.1121 1158.51 26.1121 Q1163.53 26.1121 1167.13 28.0971 Q1170.74 30.082 1173.05 34.0924 L1173.05 27.2059 L1180.5 27.2059 L1180.5 66.9452 Z" fill="#000000" fill-rule="evenodd" fill-opacity="1" /><path clip-path="url(#clip700)" d="M 0 0 M1226.03 45.1919 L1226.03 72.576 L1218.58 72.576 L1218.58 45.4349 Q1218.58 38.994 1216.07 35.7938 Q1213.56 32.5936 1208.53 32.5936 Q1202.5 32.5936 1199.01 36.4419 Q1195.53 40.2903 1195.53 46.9338 L1195.53 72.576 L1188.04 72.576 L1188.04 27.2059 L1195.53 27.2059 L1195.53 34.2544 Q1198.2 30.163 1201.81 28.1376 Q1205.46 26.1121 1210.19 26.1121 Q1218.01 26.1121 1222.02 30.9732 Q1226.03 35.7938 1226.03 45.1919 Z" fill="#000000" fill-rule="evenodd" fill-opacity="1" /><path clip-path="url(#clip700)" d="M 0 0 M1272.66 48.0275 L1272.66 51.6733 L1238.39 51.6733 Q1238.87 59.3701 1243.01 63.421 Q1247.18 67.4314 1254.59 67.4314 Q1258.89 67.4314 1262.9 66.3781 Q1266.95 65.3249 1270.92 63.2184 L1270.92 70.267 Q1266.91 71.9684 1262.69 72.8596 Q1258.48 73.7508 1254.15 73.7508 Q1243.29 73.7508 1236.93 67.4314 Q1230.61 61.1119 1230.61 50.3365 Q1230.61 39.1965 1236.61 32.6746 Q1242.64 26.1121 1252.85 26.1121 Q1262.01 26.1121 1267.31 32.0264 Q1272.66 37.9003 1272.66 48.0275 M1265.21 45.84 Q1265.12 39.7232 1261.76 36.0774 Q1258.44 32.4315 1252.93 32.4315 Q1246.69 32.4315 1242.93 35.9558 Q1239.2 39.4801 1238.63 45.8805 L1265.21 45.84 Z" fill="#000000" fill-rule="evenodd" fill-opacity="1" /><path clip-path="url(#clip700)" d="M 0 0 M1287.85 14.324 L1287.85 27.2059 L1303.2 27.2059 L1303.2 32.9987 L1287.85 32.9987 L1287.85 57.6282 Q1287.85 63.1779 1289.35 64.7578 Q1290.89 66.3376 1295.55 66.3376 L1303.2 66.3376 L1303.2 72.576 L1295.55 72.576 Q1286.92 72.576 1283.64 69.3758 Q1280.36 66.1351 1280.36 57.6282 L1280.36 32.9987 L1274.89 32.9987 L1274.89 27.2059 L1280.36 27.2059 L1280.36 14.324 L1287.85 14.324 Z" fill="#000000" fill-rule="evenodd" fill-opacity="1" /><path clip-path="url(#clip700)" d="M 0 0 M1311.02 27.2059 L1318.48 27.2059 L1318.48 72.576 L1311.02 72.576 L1311.02 27.2059 M1311.02 9.54393 L1318.48 9.54393 L1318.48 18.9825 L1311.02 18.9825 L1311.02 9.54393 Z" fill="#000000" fill-rule="evenodd" fill-opacity="1" /><path clip-path="url(#clip700)" d="M 0 0 M1355.22 28.5427 L1355.22 35.5912 Q1352.06 33.9709 1348.65 33.1607 Q1345.25 32.3505 1341.61 32.3505 Q1336.06 32.3505 1333.26 34.0519 Q1330.51 35.7533 1330.51 39.156 Q1330.51 41.7486 1332.49 43.2475 Q1334.48 44.7058 1340.47 46.0426 L1343.02 46.6097 Q1350.96 48.3111 1354.29 51.4303 Q1357.65 54.509 1357.65 60.0587 Q1357.65 66.3781 1352.62 70.0644 Q1347.64 73.7508 1338.89 73.7508 Q1335.25 73.7508 1331.28 73.0216 Q1327.35 72.3329 1322.97 70.9151 L1322.97 63.2184 Q1327.1 65.3654 1331.11 66.4591 Q1335.12 67.5124 1339.05 67.5124 Q1344.32 67.5124 1347.16 65.73 Q1349.99 63.9071 1349.99 60.6258 Q1349.99 57.5877 1347.93 55.9673 Q1345.9 54.3469 1338.97 52.8481 L1336.38 52.2405 Q1329.45 50.7821 1326.37 47.7845 Q1323.3 44.7463 1323.3 39.4801 Q1323.3 33.0797 1327.83 29.5959 Q1332.37 26.1121 1340.71 26.1121 Q1344.85 26.1121 1348.49 26.7198 Q1352.14 27.3274 1355.22 28.5427 Z" fill="#000000" fill-rule="evenodd" fill-opacity="1" /><path clip-path="url(#clip700)" d="M 0 0 M1386.08 49.7694 Q1377.05 49.7694 1373.57 51.8354 Q1370.08 53.9013 1370.08 58.8839 Q1370.08 62.8538 1372.68 65.2034 Q1375.31 67.5124 1379.81 67.5124 Q1386 67.5124 1389.73 63.1374 Q1393.5 58.7219 1393.5 51.4303 L1393.5 49.7694 L1386.08 49.7694 M1400.95 46.6907 L1400.95 72.576 L1393.5 72.576 L1393.5 65.6895 Q1390.95 69.8214 1387.14 71.8063 Q1383.33 73.7508 1377.82 73.7508 Q1370.85 73.7508 1366.72 69.8619 Q1362.63 65.9325 1362.63 59.3701 Q1362.63 51.7138 1367.73 47.825 Q1372.88 43.9361 1383.05 43.9361 L1393.5 43.9361 L1393.5 43.2069 Q1393.5 38.0623 1390.1 35.2672 Q1386.73 32.4315 1380.62 32.4315 Q1376.73 32.4315 1373.04 33.3632 Q1369.35 34.295 1365.95 36.1584 L1365.95 29.2718 Q1370.04 27.692 1373.89 26.9223 Q1377.74 26.1121 1381.39 26.1121 Q1391.23 26.1121 1396.09 31.2163 Q1400.95 36.3204 1400.95 46.6907 Z" fill="#000000" fill-rule="evenodd" fill-opacity="1" /><path clip-path="url(#clip700)" d="M 0 0 M1416.14 14.324 L1416.14 27.2059 L1431.5 27.2059 L1431.5 32.9987 L1416.14 32.9987 L1416.14 57.6282 Q1416.14 63.1779 1417.64 64.7578 Q1419.18 66.3376 1423.84 66.3376 L1431.5 66.3376 L1431.5 72.576 L1423.84 72.576 Q1415.21 72.576 1411.93 69.3758 Q1408.65 66.1351 1408.65 57.6282 L1408.65 32.9987 L1403.18 32.9987 L1403.18 27.2059 L1408.65 27.2059 L1408.65 14.324 L1416.14 14.324 Z" fill="#000000" fill-rule="evenodd" fill-opacity="1" /><path clip-path="url(#clip700)" d="M 0 0 M1439.31 27.2059 L1446.77 27.2059 L1446.77 72.576 L1439.31 72.576 L1439.31 27.2059 M1439.31 9.54393 L1446.77 9.54393 L1446.77 18.9825 L1439.31 18.9825 L1439.31 9.54393 Z" fill="#000000" fill-rule="evenodd" fill-opacity="1" /><path clip-path="url(#clip700)" d="M 0 0 M1472.17 32.4315 Q1466.17 32.4315 1462.69 37.1306 Q1459.2 41.7891 1459.2 49.9314 Q1459.2 58.0738 1462.65 62.7728 Q1466.13 67.4314 1472.17 67.4314 Q1478.12 67.4314 1481.61 62.7323 Q1485.09 58.0333 1485.09 49.9314 Q1485.09 41.8701 1481.61 37.1711 Q1478.12 32.4315 1472.17 32.4315 M1472.17 26.1121 Q1481.89 26.1121 1487.44 32.4315 Q1492.99 38.7509 1492.99 49.9314 Q1492.99 61.0714 1487.44 67.4314 Q1481.89 73.7508 1472.17 73.7508 Q1462.4 73.7508 1456.85 67.4314 Q1451.34 61.0714 1451.34 49.9314 Q1451.34 38.7509 1456.85 32.4315 Q1462.4 26.1121 1472.17 26.1121 Z" fill="#000000" fill-rule="evenodd" fill-opacity="1" /><path clip-path="url(#clip700)" d="M 0 0 M1538.52 45.1919 L1538.52 72.576 L1531.07 72.576 L1531.07 45.4349 Q1531.07 38.994 1528.56 35.7938 Q1526.04 32.5936 1521.02 32.5936 Q1514.98 32.5936 1511.5 36.4419 Q1508.02 40.2903 1508.02 46.9338 L1508.02 72.576 L1500.52 72.576 L1500.52 27.2059 L1508.02 27.2059 L1508.02 34.2544 Q1510.69 30.163 1514.3 28.1376 Q1517.94 26.1121 1522.68 26.1121 Q1530.5 26.1121 1534.51 30.9732 Q1538.52 35.7938 1538.52 45.1919 Z" fill="#000000" fill-rule="evenodd" fill-opacity="1" /><circle clip-path="url(#clip702)" cx="272.201" cy="1386.4" r="14" fill="#009af9" fill-rule="evenodd" fill-opacity="1" stroke="#000000" stroke-opacity="1" stroke-width="3.2"/>
<circle clip-path="url(#clip702)" cx="344.342" cy="1386.4" r="14" fill="#009af9" fill-rule="evenodd" fill-opacity="1" stroke="#000000" stroke-opacity="1" stroke-width="3.2"/>
<circle clip-path="url(#clip702)" cx="416.484" cy="1386.4" r="14" fill="#009af9" fill-rule="evenodd" fill-opacity="1" stroke="#000000" stroke-opacity="1" stroke-width="3.2"/>
<circle clip-path="url(#clip702)" cx="488.625" cy="1386.4" r="14" fill="#009af9" fill-rule="evenodd" fill-opacity="1" stroke="#000000" stroke-opacity="1" stroke-width="3.2"/>
<circle clip-path="url(#clip702)" cx="560.766" cy="1386.4" r="14" fill="#009af9" fill-rule="evenodd" fill-opacity="1" stroke="#000000" stroke-opacity="1" stroke-width="3.2"/>
<circle clip-path="url(#clip702)" cx="632.908" cy="1386.4" r="14" fill="#009af9" fill-rule="evenodd" fill-opacity="1" stroke="#000000" stroke-opacity="1" stroke-width="3.2"/>
<circle clip-path="url(#clip702)" cx="705.049" cy="1386.4" r="14" fill="#009af9" fill-rule="evenodd" fill-opacity="1" stroke="#000000" stroke-opacity="1" stroke-width="3.2"/>
<circle clip-path="url(#clip702)" cx="777.19" cy="1386.4" r="14" fill="#009af9" fill-rule="evenodd" fill-opacity="1" stroke="#000000" stroke-opacity="1" stroke-width="3.2"/>
<circle clip-path="url(#clip702)" cx="849.331" cy="1380.91" r="14" fill="#009af9" fill-rule="evenodd" fill-opacity="1" stroke="#000000" stroke-opacity="1" stroke-width="3.2"/>
<circle clip-path="url(#clip702)" cx="921.473" cy="760.066" r="14" fill="#009af9" fill-rule="evenodd" fill-opacity="1" stroke="#000000" stroke-opacity="1" stroke-width="3.2"/>
<circle clip-path="url(#clip702)" cx="993.614" cy="610.527" r="14" fill="#009af9" fill-rule="evenodd" fill-opacity="1" stroke="#000000" stroke-opacity="1" stroke-width="3.2"/>
<circle clip-path="url(#clip702)" cx="1065.76" cy="520.92" r="14" fill="#009af9" fill-rule="evenodd" fill-opacity="1" stroke="#000000" stroke-opacity="1" stroke-width="3.2"/>
<circle clip-path="url(#clip702)" cx="1137.9" cy="458.397" r="14" fill="#009af9" fill-rule="evenodd" fill-opacity="1" stroke="#000000" stroke-opacity="1" stroke-width="3.2"/>
<circle clip-path="url(#clip702)" cx="1210.04" cy="411.156" r="14" fill="#009af9" fill-rule="evenodd" fill-opacity="1" stroke="#000000" stroke-opacity="1" stroke-width="3.2"/>
<circle clip-path="url(#clip702)" cx="1282.18" cy="373.639" r="14" fill="#009af9" fill-rule="evenodd" fill-opacity="1" stroke="#000000" stroke-opacity="1" stroke-width="3.2"/>
<circle clip-path="url(#clip702)" cx="1354.32" cy="342.807" r="14" fill="#009af9" fill-rule="evenodd" fill-opacity="1" stroke="#000000" stroke-opacity="1" stroke-width="3.2"/>
<circle clip-path="url(#clip702)" cx="1426.46" cy="316.826" r="14" fill="#009af9" fill-rule="evenodd" fill-opacity="1" stroke="#000000" stroke-opacity="1" stroke-width="3.2"/>
<circle clip-path="url(#clip702)" cx="1498.6" cy="294.509" r="14" fill="#009af9" fill-rule="evenodd" fill-opacity="1" stroke="#000000" stroke-opacity="1" stroke-width="3.2"/>
<circle clip-path="url(#clip702)" cx="1570.74" cy="275.048" r="14" fill="#009af9" fill-rule="evenodd" fill-opacity="1" stroke="#000000" stroke-opacity="1" stroke-width="3.2"/>
<circle clip-path="url(#clip702)" cx="1642.89" cy="257.871" r="14" fill="#009af9" fill-rule="evenodd" fill-opacity="1" stroke="#000000" stroke-opacity="1" stroke-width="3.2"/>
<circle clip-path="url(#clip702)" cx="1715.03" cy="242.555" r="14" fill="#009af9" fill-rule="evenodd" fill-opacity="1" stroke="#000000" stroke-opacity="1" stroke-width="3.2"/>
<circle clip-path="url(#clip702)" cx="1787.17" cy="228.784" r="14" fill="#009af9" fill-rule="evenodd" fill-opacity="1" stroke="#000000" stroke-opacity="1" stroke-width="3.2"/>
<circle clip-path="url(#clip702)" cx="1859.31" cy="216.313" r="14" fill="#009af9" fill-rule="evenodd" fill-opacity="1" stroke="#000000" stroke-opacity="1" stroke-width="3.2"/>
<circle clip-path="url(#clip702)" cx="1931.45" cy="204.95" r="14" fill="#009af9" fill-rule="evenodd" fill-opacity="1" stroke="#000000" stroke-opacity="1" stroke-width="3.2"/>
<circle clip-path="url(#clip702)" cx="2003.59" cy="194.541" r="14" fill="#009af9" fill-rule="evenodd" fill-opacity="1" stroke="#000000" stroke-opacity="1" stroke-width="3.2"/>
<circle clip-path="url(#clip702)" cx="2075.73" cy="184.961" r="14" fill="#009af9" fill-rule="evenodd" fill-opacity="1" stroke="#000000" stroke-opacity="1" stroke-width="3.2"/>
<circle clip-path="url(#clip702)" cx="2147.87" cy="176.109" r="14" fill="#009af9" fill-rule="evenodd" fill-opacity="1" stroke="#000000" stroke-opacity="1" stroke-width="3.2"/>
<circle clip-path="url(#clip702)" cx="2220.02" cy="167.897" r="14" fill="#009af9" fill-rule="evenodd" fill-opacity="1" stroke="#000000" stroke-opacity="1" stroke-width="3.2"/>
<circle clip-path="url(#clip702)" cx="2292.16" cy="160.256" r="14" fill="#009af9" fill-rule="evenodd" fill-opacity="1" stroke="#000000" stroke-opacity="1" stroke-width="3.2"/>
<circle clip-path="url(#clip702)" cx="272.201" cy="1386.4" r="14" fill="#e26f46" fill-rule="evenodd" fill-opacity="1" stroke="#000000" stroke-opacity="1" stroke-width="3.2"/>
<circle clip-path="url(#clip702)" cx="344.342" cy="1386.4" r="14" fill="#e26f46" fill-rule="evenodd" fill-opacity="1" stroke="#000000" stroke-opacity="1" stroke-width="3.2"/>
<circle clip-path="url(#clip702)" cx="416.484" cy="1386.4" r="14" fill="#e26f46" fill-rule="evenodd" fill-opacity="1" stroke="#000000" stroke-opacity="1" stroke-width="3.2"/>
<circle clip-path="url(#clip702)" cx="488.625" cy="1386.4" r="14" fill="#e26f46" fill-rule="evenodd" fill-opacity="1" stroke="#000000" stroke-opacity="1" stroke-width="3.2"/>
<circle clip-path="url(#clip702)" cx="560.766" cy="1386.4" r="14" fill="#e26f46" fill-rule="evenodd" fill-opacity="1" stroke="#000000" stroke-opacity="1" stroke-width="3.2"/>
<circle clip-path="url(#clip702)" cx="632.908" cy="1386.4" r="14" fill="#e26f46" fill-rule="evenodd" fill-opacity="1" stroke="#000000" stroke-opacity="1" stroke-width="3.2"/>
<circle clip-path="url(#clip702)" cx="705.049" cy="1386.4" r="14" fill="#e26f46" fill-rule="evenodd" fill-opacity="1" stroke="#000000" stroke-opacity="1" stroke-width="3.2"/>
<circle clip-path="url(#clip702)" cx="777.19" cy="1386.4" r="14" fill="#e26f46" fill-rule="evenodd" fill-opacity="1" stroke="#000000" stroke-opacity="1" stroke-width="3.2"/>
<circle clip-path="url(#clip702)" cx="849.331" cy="1386.4" r="14" fill="#e26f46" fill-rule="evenodd" fill-opacity="1" stroke="#000000" stroke-opacity="1" stroke-width="3.2"/>
<circle clip-path="url(#clip702)" cx="921.473" cy="1386.4" r="14" fill="#e26f46" fill-rule="evenodd" fill-opacity="1" stroke="#000000" stroke-opacity="1" stroke-width="3.2"/>
<circle clip-path="url(#clip702)" cx="993.614" cy="1386.4" r="14" fill="#e26f46" fill-rule="evenodd" fill-opacity="1" stroke="#000000" stroke-opacity="1" stroke-width="3.2"/>
<circle clip-path="url(#clip702)" cx="1065.76" cy="1386.4" r="14" fill="#e26f46" fill-rule="evenodd" fill-opacity="1" stroke="#000000" stroke-opacity="1" stroke-width="3.2"/>
<circle clip-path="url(#clip702)" cx="1137.9" cy="660.166" r="14" fill="#e26f46" fill-rule="evenodd" fill-opacity="1" stroke="#000000" stroke-opacity="1" stroke-width="3.2"/>
<circle clip-path="url(#clip702)" cx="1210.04" cy="500.782" r="14" fill="#e26f46" fill-rule="evenodd" fill-opacity="1" stroke="#000000" stroke-opacity="1" stroke-width="3.2"/>
<circle clip-path="url(#clip702)" cx="1282.18" cy="424.731" r="14" fill="#e26f46" fill-rule="evenodd" fill-opacity="1" stroke="#000000" stroke-opacity="1" stroke-width="3.2"/>
<circle clip-path="url(#clip702)" cx="1354.32" cy="375.226" r="14" fill="#e26f46" fill-rule="evenodd" fill-opacity="1" stroke="#000000" stroke-opacity="1" stroke-width="3.2"/>
<circle clip-path="url(#clip702)" cx="1426.46" cy="338.74" r="14" fill="#e26f46" fill-rule="evenodd" fill-opacity="1" stroke="#000000" stroke-opacity="1" stroke-width="3.2"/>
<circle clip-path="url(#clip702)" cx="1498.6" cy="309.972" r="14" fill="#e26f46" fill-rule="evenodd" fill-opacity="1" stroke="#000000" stroke-opacity="1" stroke-width="3.2"/>
<circle clip-path="url(#clip702)" cx="1570.74" cy="286.308" r="14" fill="#e26f46" fill-rule="evenodd" fill-opacity="1" stroke="#000000" stroke-opacity="1" stroke-width="3.2"/>
<circle clip-path="url(#clip702)" cx="1642.89" cy="266.272" r="14" fill="#e26f46" fill-rule="evenodd" fill-opacity="1" stroke="#000000" stroke-opacity="1" stroke-width="3.2"/>
<circle clip-path="url(#clip702)" cx="1715.03" cy="248.946" r="14" fill="#e26f46" fill-rule="evenodd" fill-opacity="1" stroke="#000000" stroke-opacity="1" stroke-width="3.2"/>
<circle clip-path="url(#clip702)" cx="1787.17" cy="233.724" r="14" fill="#e26f46" fill-rule="evenodd" fill-opacity="1" stroke="#000000" stroke-opacity="1" stroke-width="3.2"/>
<circle clip-path="url(#clip702)" cx="1859.31" cy="220.183" r="14" fill="#e26f46" fill-rule="evenodd" fill-opacity="1" stroke="#000000" stroke-opacity="1" stroke-width="3.2"/>
<circle clip-path="url(#clip702)" cx="1931.45" cy="208.017" r="14" fill="#e26f46" fill-rule="evenodd" fill-opacity="1" stroke="#000000" stroke-opacity="1" stroke-width="3.2"/>
<circle clip-path="url(#clip702)" cx="2003.59" cy="196.995" r="14" fill="#e26f46" fill-rule="evenodd" fill-opacity="1" stroke="#000000" stroke-opacity="1" stroke-width="3.2"/>
<circle clip-path="url(#clip702)" cx="2075.73" cy="186.943" r="14" fill="#e26f46" fill-rule="evenodd" fill-opacity="1" stroke="#000000" stroke-opacity="1" stroke-width="3.2"/>
<circle clip-path="url(#clip702)" cx="2147.87" cy="177.72" r="14" fill="#e26f46" fill-rule="evenodd" fill-opacity="1" stroke="#000000" stroke-opacity="1" stroke-width="3.2"/>
<circle clip-path="url(#clip702)" cx="2220.02" cy="169.217" r="14" fill="#e26f46" fill-rule="evenodd" fill-opacity="1" stroke="#000000" stroke-opacity="1" stroke-width="3.2"/>
<circle clip-path="url(#clip702)" cx="2292.16" cy="161.344" r="14" fill="#e26f46" fill-rule="evenodd" fill-opacity="1" stroke="#000000" stroke-opacity="1" stroke-width="3.2"/>
<circle clip-path="url(#clip702)" cx="272.201" cy="1386.4" r="14" fill="#3da44d" fill-rule="evenodd" fill-opacity="1" stroke="#000000" stroke-opacity="1" stroke-width="3.2"/>
<circle clip-path="url(#clip702)" cx="344.342" cy="1386.4" r="14" fill="#3da44d" fill-rule="evenodd" fill-opacity="1" stroke="#000000" stroke-opacity="1" stroke-width="3.2"/>
<circle clip-path="url(#clip702)" cx="416.484" cy="1386.4" r="14" fill="#3da44d" fill-rule="evenodd" fill-opacity="1" stroke="#000000" stroke-opacity="1" stroke-width="3.2"/>
<circle clip-path="url(#clip702)" cx="488.625" cy="1386.4" r="14" fill="#3da44d" fill-rule="evenodd" fill-opacity="1" stroke="#000000" stroke-opacity="1" stroke-width="3.2"/>
<circle clip-path="url(#clip702)" cx="560.766" cy="1386.4" r="14" fill="#3da44d" fill-rule="evenodd" fill-opacity="1" stroke="#000000" stroke-opacity="1" stroke-width="3.2"/>
<circle clip-path="url(#clip702)" cx="632.908" cy="1386.4" r="14" fill="#3da44d" fill-rule="evenodd" fill-opacity="1" stroke="#000000" stroke-opacity="1" stroke-width="3.2"/>
<circle clip-path="url(#clip702)" cx="705.049" cy="1386.4" r="14" fill="#3da44d" fill-rule="evenodd" fill-opacity="1" stroke="#000000" stroke-opacity="1" stroke-width="3.2"/>
<circle clip-path="url(#clip702)" cx="777.19" cy="1386.4" r="14" fill="#3da44d" fill-rule="evenodd" fill-opacity="1" stroke="#000000" stroke-opacity="1" stroke-width="3.2"/>
<circle clip-path="url(#clip702)" cx="849.331" cy="1386.4" r="14" fill="#3da44d" fill-rule="evenodd" fill-opacity="1" stroke="#000000" stroke-opacity="1" stroke-width="3.2"/>
<circle clip-path="url(#clip702)" cx="921.473" cy="1386.4" r="14" fill="#3da44d" fill-rule="evenodd" fill-opacity="1" stroke="#000000" stroke-opacity="1" stroke-width="3.2"/>
<circle clip-path="url(#clip702)" cx="993.614" cy="1386.4" r="14" fill="#3da44d" fill-rule="evenodd" fill-opacity="1" stroke="#000000" stroke-opacity="1" stroke-width="3.2"/>
<circle clip-path="url(#clip702)" cx="1065.76" cy="1386.4" r="14" fill="#3da44d" fill-rule="evenodd" fill-opacity="1" stroke="#000000" stroke-opacity="1" stroke-width="3.2"/>
<circle clip-path="url(#clip702)" cx="1137.9" cy="1038.6" r="14" fill="#3da44d" fill-rule="evenodd" fill-opacity="1" stroke="#000000" stroke-opacity="1" stroke-width="3.2"/>
<circle clip-path="url(#clip702)" cx="1210.04" cy="527.319" r="14" fill="#3da44d" fill-rule="evenodd" fill-opacity="1" stroke="#000000" stroke-opacity="1" stroke-width="3.2"/>
<circle clip-path="url(#clip702)" cx="1282.18" cy="432.455" r="14" fill="#3da44d" fill-rule="evenodd" fill-opacity="1" stroke="#000000" stroke-opacity="1" stroke-width="3.2"/>
<circle clip-path="url(#clip702)" cx="1354.32" cy="378.434" r="14" fill="#3da44d" fill-rule="evenodd" fill-opacity="1" stroke="#000000" stroke-opacity="1" stroke-width="3.2"/>
<circle clip-path="url(#clip702)" cx="1426.46" cy="340.319" r="14" fill="#3da44d" fill-rule="evenodd" fill-opacity="1" stroke="#000000" stroke-opacity="1" stroke-width="3.2"/>
<circle clip-path="url(#clip702)" cx="1498.6" cy="310.834" r="14" fill="#3da44d" fill-rule="evenodd" fill-opacity="1" stroke="#000000" stroke-opacity="1" stroke-width="3.2"/>
<circle clip-path="url(#clip702)" cx="1570.74" cy="286.813" r="14" fill="#3da44d" fill-rule="evenodd" fill-opacity="1" stroke="#000000" stroke-opacity="1" stroke-width="3.2"/>
<circle clip-path="url(#clip702)" cx="1642.89" cy="266.582" r="14" fill="#3da44d" fill-rule="evenodd" fill-opacity="1" stroke="#000000" stroke-opacity="1" stroke-width="3.2"/>
<circle clip-path="url(#clip702)" cx="1715.03" cy="249.145" r="14" fill="#3da44d" fill-rule="evenodd" fill-opacity="1" stroke="#000000" stroke-opacity="1" stroke-width="3.2"/>
<circle clip-path="url(#clip702)" cx="1787.17" cy="233.855" r="14" fill="#3da44d" fill-rule="evenodd" fill-opacity="1" stroke="#000000" stroke-opacity="1" stroke-width="3.2"/>
<circle clip-path="url(#clip702)" cx="1859.31" cy="220.272" r="14" fill="#3da44d" fill-rule="evenodd" fill-opacity="1" stroke="#000000" stroke-opacity="1" stroke-width="3.2"/>
<circle clip-path="url(#clip702)" cx="1931.45" cy="208.078" r="14" fill="#3da44d" fill-rule="evenodd" fill-opacity="1" stroke="#000000" stroke-opacity="1" stroke-width="3.2"/>
<circle clip-path="url(#clip702)" cx="2003.59" cy="197.039" r="14" fill="#3da44d" fill-rule="evenodd" fill-opacity="1" stroke="#000000" stroke-opacity="1" stroke-width="3.2"/>
<circle clip-path="url(#clip702)" cx="2075.73" cy="186.974" r="14" fill="#3da44d" fill-rule="evenodd" fill-opacity="1" stroke="#000000" stroke-opacity="1" stroke-width="3.2"/>
<circle clip-path="url(#clip702)" cx="2147.87" cy="177.743" r="14" fill="#3da44d" fill-rule="evenodd" fill-opacity="1" stroke="#000000" stroke-opacity="1" stroke-width="3.2"/>
<circle clip-path="url(#clip702)" cx="2220.02" cy="169.234" r="14" fill="#3da44d" fill-rule="evenodd" fill-opacity="1" stroke="#000000" stroke-opacity="1" stroke-width="3.2"/>
<circle clip-path="url(#clip702)" cx="2292.16" cy="161.356" r="14" fill="#3da44d" fill-rule="evenodd" fill-opacity="1" stroke="#000000" stroke-opacity="1" stroke-width="3.2"/>
<circle clip-path="url(#clip702)" cx="272.201" cy="1386.4" r="14" fill="#c271d2" fill-rule="evenodd" fill-opacity="1" stroke="#000000" stroke-opacity="1" stroke-width="3.2"/>
<circle clip-path="url(#clip702)" cx="344.342" cy="1386.4" r="14" fill="#c271d2" fill-rule="evenodd" fill-opacity="1" stroke="#000000" stroke-opacity="1" stroke-width="3.2"/>
<circle clip-path="url(#clip702)" cx="416.484" cy="1386.4" r="14" fill="#c271d2" fill-rule="evenodd" fill-opacity="1" stroke="#000000" stroke-opacity="1" stroke-width="3.2"/>
<circle clip-path="url(#clip702)" cx="488.625" cy="1386.4" r="14" fill="#c271d2" fill-rule="evenodd" fill-opacity="1" stroke="#000000" stroke-opacity="1" stroke-width="3.2"/>
<circle clip-path="url(#clip702)" cx="560.766" cy="1386.4" r="14" fill="#c271d2" fill-rule="evenodd" fill-opacity="1" stroke="#000000" stroke-opacity="1" stroke-width="3.2"/>
<circle clip-path="url(#clip702)" cx="632.908" cy="1386.4" r="14" fill="#c271d2" fill-rule="evenodd" fill-opacity="1" stroke="#000000" stroke-opacity="1" stroke-width="3.2"/>
<circle clip-path="url(#clip702)" cx="705.049" cy="1386.4" r="14" fill="#c271d2" fill-rule="evenodd" fill-opacity="1" stroke="#000000" stroke-opacity="1" stroke-width="3.2"/>
<circle clip-path="url(#clip702)" cx="777.19" cy="1386.4" r="14" fill="#c271d2" fill-rule="evenodd" fill-opacity="1" stroke="#000000" stroke-opacity="1" stroke-width="3.2"/>
<circle clip-path="url(#clip702)" cx="849.331" cy="1386.4" r="14" fill="#c271d2" fill-rule="evenodd" fill-opacity="1" stroke="#000000" stroke-opacity="1" stroke-width="3.2"/>
<circle clip-path="url(#clip702)" cx="921.473" cy="1386.4" r="14" fill="#c271d2" fill-rule="evenodd" fill-opacity="1" stroke="#000000" stroke-opacity="1" stroke-width="3.2"/>
<circle clip-path="url(#clip702)" cx="993.614" cy="1386.4" r="14" fill="#c271d2" fill-rule="evenodd" fill-opacity="1" stroke="#000000" stroke-opacity="1" stroke-width="3.2"/>
<circle clip-path="url(#clip702)" cx="1065.76" cy="1386.4" r="14" fill="#c271d2" fill-rule="evenodd" fill-opacity="1" stroke="#000000" stroke-opacity="1" stroke-width="3.2"/>
<circle clip-path="url(#clip702)" cx="1137.9" cy="1386.4" r="14" fill="#c271d2" fill-rule="evenodd" fill-opacity="1" stroke="#000000" stroke-opacity="1" stroke-width="3.2"/>
<circle clip-path="url(#clip702)" cx="1210.04" cy="528.795" r="14" fill="#c271d2" fill-rule="evenodd" fill-opacity="1" stroke="#000000" stroke-opacity="1" stroke-width="3.2"/>
<circle clip-path="url(#clip702)" cx="1282.18" cy="432.584" r="14" fill="#c271d2" fill-rule="evenodd" fill-opacity="1" stroke="#000000" stroke-opacity="1" stroke-width="3.2"/>
<circle clip-path="url(#clip702)" cx="1354.32" cy="378.459" r="14" fill="#c271d2" fill-rule="evenodd" fill-opacity="1" stroke="#000000" stroke-opacity="1" stroke-width="3.2"/>
<circle clip-path="url(#clip702)" cx="1426.46" cy="340.326" r="14" fill="#c271d2" fill-rule="evenodd" fill-opacity="1" stroke="#000000" stroke-opacity="1" stroke-width="3.2"/>
<circle clip-path="url(#clip702)" cx="1498.6" cy="310.836" r="14" fill="#c271d2" fill-rule="evenodd" fill-opacity="1" stroke="#000000" stroke-opacity="1" stroke-width="3.2"/>
<circle clip-path="url(#clip702)" cx="1570.74" cy="286.814" r="14" fill="#c271d2" fill-rule="evenodd" fill-opacity="1" stroke="#000000" stroke-opacity="1" stroke-width="3.2"/>
<circle clip-path="url(#clip702)" cx="1642.89" cy="266.582" r="14" fill="#c271d2" fill-rule="evenodd" fill-opacity="1" stroke="#000000" stroke-opacity="1" stroke-width="3.2"/>
<circle clip-path="url(#clip702)" cx="1715.03" cy="249.145" r="14" fill="#c271d2" fill-rule="evenodd" fill-opacity="1" stroke="#000000" stroke-opacity="1" stroke-width="3.2"/>
<circle clip-path="url(#clip702)" cx="1787.17" cy="233.855" r="14" fill="#c271d2" fill-rule="evenodd" fill-opacity="1" stroke="#000000" stroke-opacity="1" stroke-width="3.2"/>
<circle clip-path="url(#clip702)" cx="1859.31" cy="220.272" r="14" fill="#c271d2" fill-rule="evenodd" fill-opacity="1" stroke="#000000" stroke-opacity="1" stroke-width="3.2"/>
<circle clip-path="url(#clip702)" cx="1931.45" cy="208.078" r="14" fill="#c271d2" fill-rule="evenodd" fill-opacity="1" stroke="#000000" stroke-opacity="1" stroke-width="3.2"/>
<circle clip-path="url(#clip702)" cx="2003.59" cy="197.039" r="14" fill="#c271d2" fill-rule="evenodd" fill-opacity="1" stroke="#000000" stroke-opacity="1" stroke-width="3.2"/>
<circle clip-path="url(#clip702)" cx="2075.73" cy="186.974" r="14" fill="#c271d2" fill-rule="evenodd" fill-opacity="1" stroke="#000000" stroke-opacity="1" stroke-width="3.2"/>
<circle clip-path="url(#clip702)" cx="2147.87" cy="177.743" r="14" fill="#c271d2" fill-rule="evenodd" fill-opacity="1" stroke="#000000" stroke-opacity="1" stroke-width="3.2"/>
<circle clip-path="url(#clip702)" cx="2220.02" cy="169.234" r="14" fill="#c271d2" fill-rule="evenodd" fill-opacity="1" stroke="#000000" stroke-opacity="1" stroke-width="3.2"/>
<circle clip-path="url(#clip702)" cx="2292.16" cy="161.356" r="14" fill="#c271d2" fill-rule="evenodd" fill-opacity="1" stroke="#000000" stroke-opacity="1" stroke-width="3.2"/>
<circle clip-path="url(#clip702)" cx="272.201" cy="1386.4" r="14" fill="#ac8d18" fill-rule="evenodd" fill-opacity="1" stroke="#000000" stroke-opacity="1" stroke-width="3.2"/>
<circle clip-path="url(#clip702)" cx="344.342" cy="1386.4" r="14" fill="#ac8d18" fill-rule="evenodd" fill-opacity="1" stroke="#000000" stroke-opacity="1" stroke-width="3.2"/>
<circle clip-path="url(#clip702)" cx="416.484" cy="1386.4" r="14" fill="#ac8d18" fill-rule="evenodd" fill-opacity="1" stroke="#000000" stroke-opacity="1" stroke-width="3.2"/>
<circle clip-path="url(#clip702)" cx="488.625" cy="1386.4" r="14" fill="#ac8d18" fill-rule="evenodd" fill-opacity="1" stroke="#000000" stroke-opacity="1" stroke-width="3.2"/>
<circle clip-path="url(#clip702)" cx="560.766" cy="1386.4" r="14" fill="#ac8d18" fill-rule="evenodd" fill-opacity="1" stroke="#000000" stroke-opacity="1" stroke-width="3.2"/>
<circle clip-path="url(#clip702)" cx="632.908" cy="1386.4" r="14" fill="#ac8d18" fill-rule="evenodd" fill-opacity="1" stroke="#000000" stroke-opacity="1" stroke-width="3.2"/>
<circle clip-path="url(#clip702)" cx="705.049" cy="1386.4" r="14" fill="#ac8d18" fill-rule="evenodd" fill-opacity="1" stroke="#000000" stroke-opacity="1" stroke-width="3.2"/>
<circle clip-path="url(#clip702)" cx="777.19" cy="1386.4" r="14" fill="#ac8d18" fill-rule="evenodd" fill-opacity="1" stroke="#000000" stroke-opacity="1" stroke-width="3.2"/>
<circle clip-path="url(#clip702)" cx="849.331" cy="1386.4" r="14" fill="#ac8d18" fill-rule="evenodd" fill-opacity="1" stroke="#000000" stroke-opacity="1" stroke-width="3.2"/>
<circle clip-path="url(#clip702)" cx="921.473" cy="1386.4" r="14" fill="#ac8d18" fill-rule="evenodd" fill-opacity="1" stroke="#000000" stroke-opacity="1" stroke-width="3.2"/>
<circle clip-path="url(#clip702)" cx="993.614" cy="1386.4" r="14" fill="#ac8d18" fill-rule="evenodd" fill-opacity="1" stroke="#000000" stroke-opacity="1" stroke-width="3.2"/>
<circle clip-path="url(#clip702)" cx="1065.76" cy="1386.4" r="14" fill="#ac8d18" fill-rule="evenodd" fill-opacity="1" stroke="#000000" stroke-opacity="1" stroke-width="3.2"/>
<circle clip-path="url(#clip702)" cx="1137.9" cy="1386.4" r="14" fill="#ac8d18" fill-rule="evenodd" fill-opacity="1" stroke="#000000" stroke-opacity="1" stroke-width="3.2"/>
<circle clip-path="url(#clip702)" cx="1210.04" cy="528.818" r="14" fill="#ac8d18" fill-rule="evenodd" fill-opacity="1" stroke="#000000" stroke-opacity="1" stroke-width="3.2"/>
<circle clip-path="url(#clip702)" cx="1282.18" cy="432.584" r="14" fill="#ac8d18" fill-rule="evenodd" fill-opacity="1" stroke="#000000" stroke-opacity="1" stroke-width="3.2"/>
<circle clip-path="url(#clip702)" cx="1354.32" cy="378.459" r="14" fill="#ac8d18" fill-rule="evenodd" fill-opacity="1" stroke="#000000" stroke-opacity="1" stroke-width="3.2"/>
<circle clip-path="url(#clip702)" cx="1426.46" cy="340.326" r="14" fill="#ac8d18" fill-rule="evenodd" fill-opacity="1" stroke="#000000" stroke-opacity="1" stroke-width="3.2"/>
<circle clip-path="url(#clip702)" cx="1498.6" cy="310.836" r="14" fill="#ac8d18" fill-rule="evenodd" fill-opacity="1" stroke="#000000" stroke-opacity="1" stroke-width="3.2"/>
<circle clip-path="url(#clip702)" cx="1570.74" cy="286.814" r="14" fill="#ac8d18" fill-rule="evenodd" fill-opacity="1" stroke="#000000" stroke-opacity="1" stroke-width="3.2"/>
<circle clip-path="url(#clip702)" cx="1642.89" cy="266.582" r="14" fill="#ac8d18" fill-rule="evenodd" fill-opacity="1" stroke="#000000" stroke-opacity="1" stroke-width="3.2"/>
<circle clip-path="url(#clip702)" cx="1715.03" cy="249.145" r="14" fill="#ac8d18" fill-rule="evenodd" fill-opacity="1" stroke="#000000" stroke-opacity="1" stroke-width="3.2"/>
<circle clip-path="url(#clip702)" cx="1787.17" cy="233.855" r="14" fill="#ac8d18" fill-rule="evenodd" fill-opacity="1" stroke="#000000" stroke-opacity="1" stroke-width="3.2"/>
<circle clip-path="url(#clip702)" cx="1859.31" cy="220.272" r="14" fill="#ac8d18" fill-rule="evenodd" fill-opacity="1" stroke="#000000" stroke-opacity="1" stroke-width="3.2"/>
<circle clip-path="url(#clip702)" cx="1931.45" cy="208.078" r="14" fill="#ac8d18" fill-rule="evenodd" fill-opacity="1" stroke="#000000" stroke-opacity="1" stroke-width="3.2"/>
<circle clip-path="url(#clip702)" cx="2003.59" cy="197.039" r="14" fill="#ac8d18" fill-rule="evenodd" fill-opacity="1" stroke="#000000" stroke-opacity="1" stroke-width="3.2"/>
<circle clip-path="url(#clip702)" cx="2075.73" cy="186.974" r="14" fill="#ac8d18" fill-rule="evenodd" fill-opacity="1" stroke="#000000" stroke-opacity="1" stroke-width="3.2"/>
<circle clip-path="url(#clip702)" cx="2147.87" cy="177.743" r="14" fill="#ac8d18" fill-rule="evenodd" fill-opacity="1" stroke="#000000" stroke-opacity="1" stroke-width="3.2"/>
<circle clip-path="url(#clip702)" cx="2220.02" cy="169.234" r="14" fill="#ac8d18" fill-rule="evenodd" fill-opacity="1" stroke="#000000" stroke-opacity="1" stroke-width="3.2"/>
<circle clip-path="url(#clip702)" cx="2292.16" cy="161.356" r="14" fill="#ac8d18" fill-rule="evenodd" fill-opacity="1" stroke="#000000" stroke-opacity="1" stroke-width="3.2"/>
<polyline clip-path="url(#clip702)" style="stroke:#00a9ad; stroke-width:8; stroke-opacity:1; fill:none" points="
  272.201,1386.4 301.058,1386.4 329.914,1386.4 358.771,1386.4 387.627,1386.4 416.484,1386.4 445.34,1386.4 474.197,1386.4 503.053,1386.4 531.91,1386.4 
  560.766,1386.4 589.623,1386.4 618.479,1386.4 647.336,1386.4 676.192,1386.4 705.049,1386.4 733.905,1386.4 762.762,1386.4 791.618,1386.4 820.475,1386.4 
  849.331,1386.4 878.188,1386.4 907.044,1386.4 935.901,1386.4 964.757,1386.4 993.614,1386.4 1022.47,1386.4 1051.33,1386.4 1080.18,1386.4 1109.04,1386.4 
  1137.9,1386.4 1166.75,697.009 1195.61,562.388 1224.47,502.659 1253.32,462.794 1282.18,432.584 1311.04,408.163 1339.89,387.628 1368.75,369.892 1397.61,354.277 
  1426.46,340.326 1455.32,327.721 1484.17,316.225 1513.03,305.662 1541.89,295.894 1570.74,286.814 1599.6,278.332 1628.46,270.38 1657.31,262.896 1686.17,255.832 
  1715.03,249.145 1743.88,242.799 1772.74,236.765 1801.6,231.014 1830.45,225.523 1859.31,220.272 1888.17,215.243 1917.02,210.418 1945.88,205.784 1974.74,201.329 
  2003.59,197.039 2032.45,192.904 2061.31,188.916 2090.16,185.065 2119.02,181.343 2147.87,177.743 2176.73,174.258 2205.59,170.882 2234.44,167.61 2263.3,164.437 
  2292.16,161.356 
  "/>
<path clip-path="url(#clip700)" d="
M1723.97 590.156 L2281.38 590.156 L2281.38 166.796 L1723.97 166.796  Z
  " fill="#ffffff" fill-rule="evenodd" fill-opacity="1"/>
<polyline clip-path="url(#clip700)" style="stroke:#000000; stroke-width:4; stroke-opacity:1; fill:none" points="
  1723.97,590.156 2281.38,590.156 2281.38,166.796 1723.97,166.796 1723.97,590.156 
  "/>
<circle clip-path="url(#clip700)" cx="1819.13" cy="227.276" r="23" fill="#009af9" fill-rule="evenodd" fill-opacity="1" stroke="#000000" stroke-opacity="1" stroke-width="5.12"/>
<path clip-path="url(#clip700)" d="M 0 0 M1927.49 244.556 L1914.29 209.996 L1919.17 209.996 L1930.12 239.093 L1941.1 209.996 L1945.96 209.996 L1932.79 244.556 L1927.49 244.556 Z" fill="#000000" fill-rule="evenodd" fill-opacity="1" /><path clip-path="url(#clip700)" d="M 0 0 M1950.08 209.996 L1954.78 209.996 L1954.78 230.991 Q1954.78 236.547 1956.79 239 Q1958.8 241.431 1963.32 241.431 Q1967.81 241.431 1969.82 239 Q1971.84 236.547 1971.84 230.991 L1971.84 209.996 L1976.54 209.996 L1976.54 231.57 Q1976.54 238.329 1973.18 241.778 Q1969.85 245.227 1963.32 245.227 Q1956.77 245.227 1953.41 241.778 Q1950.08 238.329 1950.08 231.57 L1950.08 209.996 Z" fill="#000000" fill-rule="evenodd" fill-opacity="1" /><path clip-path="url(#clip700)" d="M 0 0 M1981.19 209.996 L1988.16 209.996 L1996.98 233.514 L2005.84 209.996 L2012.81 209.996 L2012.81 244.556 L2008.25 244.556 L2008.25 214.209 L1999.34 237.912 L1994.64 237.912 L1985.73 214.209 L1985.73 244.556 L1981.19 244.556 L1981.19 209.996 Z" fill="#000000" fill-rule="evenodd" fill-opacity="1" /><path clip-path="url(#clip700)" d="M 0 0 M2022.14 213.838 L2022.14 226.824 L2028.02 226.824 Q2031.28 226.824 2033.06 225.135 Q2034.85 223.445 2034.85 220.32 Q2034.85 217.218 2033.06 215.528 Q2031.28 213.838 2028.02 213.838 L2022.14 213.838 M2017.46 209.996 L2028.02 209.996 Q2033.83 209.996 2036.79 212.635 Q2039.78 215.25 2039.78 220.32 Q2039.78 225.435 2036.79 228.051 Q2033.83 230.667 2028.02 230.667 L2022.14 230.667 L2022.14 244.556 L2017.46 244.556 L2017.46 209.996 Z" fill="#000000" fill-rule="evenodd" fill-opacity="1" /><path clip-path="url(#clip700)" d="M 0 0 M2065.15 211.13 L2065.15 215.69 Q2062.48 214.417 2060.12 213.792 Q2057.76 213.167 2055.56 213.167 Q2051.74 213.167 2049.66 214.648 Q2047.6 216.13 2047.6 218.861 Q2047.6 221.153 2048.97 222.334 Q2050.35 223.491 2054.2 224.209 L2057.02 224.787 Q2062.25 225.783 2064.73 228.306 Q2067.23 230.806 2067.23 235.019 Q2067.23 240.042 2063.85 242.634 Q2060.49 245.227 2053.99 245.227 Q2051.54 245.227 2048.76 244.671 Q2046 244.116 2043.04 243.028 L2043.04 238.213 Q2045.89 239.81 2048.62 240.621 Q2051.35 241.431 2053.99 241.431 Q2057.99 241.431 2060.17 239.857 Q2062.35 238.283 2062.35 235.366 Q2062.35 232.82 2060.77 231.384 Q2059.22 229.949 2055.66 229.232 L2052.81 228.676 Q2047.58 227.635 2045.24 225.412 Q2042.9 223.19 2042.9 219.232 Q2042.9 214.648 2046.12 212.01 Q2049.36 209.371 2055.03 209.371 Q2057.46 209.371 2059.98 209.811 Q2062.51 210.25 2065.15 211.13 Z" fill="#000000" fill-rule="evenodd" fill-opacity="1" /><path clip-path="url(#clip700)" d="M 0 0 M2091.63 213.838 L2091.63 240.713 L2097.28 240.713 Q2104.43 240.713 2107.74 237.472 Q2111.07 234.232 2111.07 227.241 Q2111.07 220.297 2107.74 217.079 Q2104.43 213.838 2097.28 213.838 L2091.63 213.838 M2086.95 209.996 L2096.56 209.996 Q2106.6 209.996 2111.3 214.186 Q2116 218.352 2116 227.241 Q2116 236.176 2111.28 240.366 Q2106.56 244.556 2096.56 244.556 L2086.95 244.556 L2086.95 209.996 Z" fill="#000000" fill-rule="evenodd" fill-opacity="1" /><path clip-path="url(#clip700)" d="M 0 0 M2136.1 223.028 L2165.77 223.028 L2165.77 226.917 L2136.1 226.917 L2136.1 223.028 M2136.1 232.472 L2165.77 232.472 L2165.77 236.408 L2136.1 236.408 L2136.1 232.472 Z" fill="#000000" fill-rule="evenodd" fill-opacity="1" /><path clip-path="url(#clip700)" d="M 0 0 M2189.94 240.621 L2206.26 240.621 L2206.26 244.556 L2184.31 244.556 L2184.31 240.621 Q2186.97 237.866 2191.56 233.236 Q2196.16 228.584 2197.34 227.241 Q2199.59 224.718 2200.47 222.982 Q2201.37 221.223 2201.37 219.533 Q2201.37 216.778 2199.43 215.042 Q2197.51 213.306 2194.4 213.306 Q2192.21 213.306 2189.75 214.07 Q2187.32 214.834 2184.54 216.385 L2184.54 211.662 Q2187.37 210.528 2189.82 209.949 Q2192.28 209.371 2194.31 209.371 Q2199.68 209.371 2202.88 212.056 Q2206.07 214.741 2206.07 219.232 Q2206.07 221.361 2205.26 223.283 Q2204.47 225.181 2202.37 227.773 Q2201.79 228.445 2198.69 231.662 Q2195.59 234.857 2189.94 240.621 Z" fill="#000000" fill-rule="evenodd" fill-opacity="1" /><circle clip-path="url(#clip700)" cx="1819.13" cy="287.756" r="23" fill="#e26f46" fill-rule="evenodd" fill-opacity="1" stroke="#000000" stroke-opacity="1" stroke-width="5.12"/>
<path clip-path="url(#clip700)" d="M 0 0 M1927.49 305.036 L1914.29 270.476 L1919.17 270.476 L1930.12 299.573 L1941.1 270.476 L1945.96 270.476 L1932.79 305.036 L1927.49 305.036 Z" fill="#000000" fill-rule="evenodd" fill-opacity="1" /><path clip-path="url(#clip700)" d="M 0 0 M1950.08 270.476 L1954.78 270.476 L1954.78 291.471 Q1954.78 297.027 1956.79 299.48 Q1958.8 301.911 1963.32 301.911 Q1967.81 301.911 1969.82 299.48 Q1971.84 297.027 1971.84 291.471 L1971.84 270.476 L1976.54 270.476 L1976.54 292.05 Q1976.54 298.809 1973.18 302.258 Q1969.85 305.707 1963.32 305.707 Q1956.77 305.707 1953.41 302.258 Q1950.08 298.809 1950.08 292.05 L1950.08 270.476 Z" fill="#000000" fill-rule="evenodd" fill-opacity="1" /><path clip-path="url(#clip700)" d="M 0 0 M1981.19 270.476 L1988.16 270.476 L1996.98 293.994 L2005.84 270.476 L2012.81 270.476 L2012.81 305.036 L2008.25 305.036 L2008.25 274.689 L1999.34 298.392 L1994.64 298.392 L1985.73 274.689 L1985.73 305.036 L1981.19 305.036 L1981.19 270.476 Z" fill="#000000" fill-rule="evenodd" fill-opacity="1" /><path clip-path="url(#clip700)" d="M 0 0 M2022.14 274.318 L2022.14 287.304 L2028.02 287.304 Q2031.28 287.304 2033.06 285.615 Q2034.85 283.925 2034.85 280.8 Q2034.85 277.698 2033.06 276.008 Q2031.28 274.318 2028.02 274.318 L2022.14 274.318 M2017.46 270.476 L2028.02 270.476 Q2033.83 270.476 2036.79 273.115 Q2039.78 275.73 2039.78 280.8 Q2039.78 285.915 2036.79 288.531 Q2033.83 291.147 2028.02 291.147 L2022.14 291.147 L2022.14 305.036 L2017.46 305.036 L2017.46 270.476 Z" fill="#000000" fill-rule="evenodd" fill-opacity="1" /><path clip-path="url(#clip700)" d="M 0 0 M2065.15 271.61 L2065.15 276.17 Q2062.48 274.897 2060.12 274.272 Q2057.76 273.647 2055.56 273.647 Q2051.74 273.647 2049.66 275.128 Q2047.6 276.61 2047.6 279.341 Q2047.6 281.633 2048.97 282.814 Q2050.35 283.971 2054.2 284.689 L2057.02 285.267 Q2062.25 286.263 2064.73 288.786 Q2067.23 291.286 2067.23 295.499 Q2067.23 300.522 2063.85 303.114 Q2060.49 305.707 2053.99 305.707 Q2051.54 305.707 2048.76 305.151 Q2046 304.596 2043.04 303.508 L2043.04 298.693 Q2045.89 300.29 2048.62 301.101 Q2051.35 301.911 2053.99 301.911 Q2057.99 301.911 2060.17 300.337 Q2062.35 298.763 2062.35 295.846 Q2062.35 293.3 2060.77 291.864 Q2059.22 290.429 2055.66 289.712 L2052.81 289.156 Q2047.58 288.115 2045.24 285.892 Q2042.9 283.67 2042.9 279.712 Q2042.9 275.128 2046.12 272.49 Q2049.36 269.851 2055.03 269.851 Q2057.46 269.851 2059.98 270.291 Q2062.51 270.73 2065.15 271.61 Z" fill="#000000" fill-rule="evenodd" fill-opacity="1" /><path clip-path="url(#clip700)" d="M 0 0 M2091.63 274.318 L2091.63 301.193 L2097.28 301.193 Q2104.43 301.193 2107.74 297.952 Q2111.07 294.712 2111.07 287.721 Q2111.07 280.777 2107.74 277.559 Q2104.43 274.318 2097.28 274.318 L2091.63 274.318 M2086.95 270.476 L2096.56 270.476 Q2106.6 270.476 2111.3 274.666 Q2116 278.832 2116 287.721 Q2116 296.656 2111.28 300.846 Q2106.56 305.036 2096.56 305.036 L2086.95 305.036 L2086.95 270.476 Z" fill="#000000" fill-rule="evenodd" fill-opacity="1" /><path clip-path="url(#clip700)" d="M 0 0 M2136.1 283.508 L2165.77 283.508 L2165.77 287.397 L2136.1 287.397 L2136.1 283.508 M2136.1 292.952 L2165.77 292.952 L2165.77 296.888 L2136.1 296.888 L2136.1 292.952 Z" fill="#000000" fill-rule="evenodd" fill-opacity="1" /><path clip-path="url(#clip700)" d="M 0 0 M2198.76 274.55 L2186.95 292.999 L2198.76 292.999 L2198.76 274.55 M2197.53 270.476 L2203.41 270.476 L2203.41 292.999 L2208.34 292.999 L2208.34 296.888 L2203.41 296.888 L2203.41 305.036 L2198.76 305.036 L2198.76 296.888 L2183.16 296.888 L2183.16 292.374 L2197.53 270.476 Z" fill="#000000" fill-rule="evenodd" fill-opacity="1" /><circle clip-path="url(#clip700)" cx="1819.13" cy="348.236" r="23" fill="#3da44d" fill-rule="evenodd" fill-opacity="1" stroke="#000000" stroke-opacity="1" stroke-width="5.12"/>
<path clip-path="url(#clip700)" d="M 0 0 M1927.49 365.516 L1914.29 330.956 L1919.17 330.956 L1930.12 360.053 L1941.1 330.956 L1945.96 330.956 L1932.79 365.516 L1927.49 365.516 Z" fill="#000000" fill-rule="evenodd" fill-opacity="1" /><path clip-path="url(#clip700)" d="M 0 0 M1950.08 330.956 L1954.78 330.956 L1954.78 351.951 Q1954.78 357.507 1956.79 359.96 Q1958.8 362.391 1963.32 362.391 Q1967.81 362.391 1969.82 359.96 Q1971.84 357.507 1971.84 351.951 L1971.84 330.956 L1976.54 330.956 L1976.54 352.53 Q1976.54 359.289 1973.18 362.738 Q1969.85 366.187 1963.32 366.187 Q1956.77 366.187 1953.41 362.738 Q1950.08 359.289 1950.08 352.53 L1950.08 330.956 Z" fill="#000000" fill-rule="evenodd" fill-opacity="1" /><path clip-path="url(#clip700)" d="M 0 0 M1981.19 330.956 L1988.16 330.956 L1996.98 354.474 L2005.84 330.956 L2012.81 330.956 L2012.81 365.516 L2008.25 365.516 L2008.25 335.169 L1999.34 358.872 L1994.64 358.872 L1985.73 335.169 L1985.73 365.516 L1981.19 365.516 L1981.19 330.956 Z" fill="#000000" fill-rule="evenodd" fill-opacity="1" /><path clip-path="url(#clip700)" d="M 0 0 M2022.14 334.798 L2022.14 347.784 L2028.02 347.784 Q2031.28 347.784 2033.06 346.095 Q2034.85 344.405 2034.85 341.28 Q2034.85 338.178 2033.06 336.488 Q2031.28 334.798 2028.02 334.798 L2022.14 334.798 M2017.46 330.956 L2028.02 330.956 Q2033.83 330.956 2036.79 333.595 Q2039.78 336.21 2039.78 341.28 Q2039.78 346.395 2036.79 349.011 Q2033.83 351.627 2028.02 351.627 L2022.14 351.627 L2022.14 365.516 L2017.46 365.516 L2017.46 330.956 Z" fill="#000000" fill-rule="evenodd" fill-opacity="1" /><path clip-path="url(#clip700)" d="M 0 0 M2065.15 332.09 L2065.15 336.65 Q2062.48 335.377 2060.12 334.752 Q2057.76 334.127 2055.56 334.127 Q2051.74 334.127 2049.66 335.608 Q2047.6 337.09 2047.6 339.821 Q2047.6 342.113 2048.97 343.294 Q2050.35 344.451 2054.2 345.169 L2057.02 345.747 Q2062.25 346.743 2064.73 349.266 Q2067.23 351.766 2067.23 355.979 Q2067.23 361.002 2063.85 363.594 Q2060.49 366.187 2053.99 366.187 Q2051.54 366.187 2048.76 365.631 Q2046 365.076 2043.04 363.988 L2043.04 359.173 Q2045.89 360.77 2048.62 361.581 Q2051.35 362.391 2053.99 362.391 Q2057.99 362.391 2060.17 360.817 Q2062.35 359.243 2062.35 356.326 Q2062.35 353.78 2060.77 352.344 Q2059.22 350.909 2055.66 350.192 L2052.81 349.636 Q2047.58 348.595 2045.24 346.372 Q2042.9 344.15 2042.9 340.192 Q2042.9 335.608 2046.12 332.97 Q2049.36 330.331 2055.03 330.331 Q2057.46 330.331 2059.98 330.771 Q2062.51 331.21 2065.15 332.09 Z" fill="#000000" fill-rule="evenodd" fill-opacity="1" /><path clip-path="url(#clip700)" d="M 0 0 M2091.63 334.798 L2091.63 361.673 L2097.28 361.673 Q2104.43 361.673 2107.74 358.432 Q2111.07 355.192 2111.07 348.201 Q2111.07 341.257 2107.74 338.039 Q2104.43 334.798 2097.28 334.798 L2091.63 334.798 M2086.95 330.956 L2096.56 330.956 Q2106.6 330.956 2111.3 335.146 Q2116 339.312 2116 348.201 Q2116 357.136 2111.28 361.326 Q2106.56 365.516 2096.56 365.516 L2086.95 365.516 L2086.95 330.956 Z" fill="#000000" fill-rule="evenodd" fill-opacity="1" /><path clip-path="url(#clip700)" d="M 0 0 M2136.1 343.988 L2165.77 343.988 L2165.77 347.877 L2136.1 347.877 L2136.1 343.988 M2136.1 353.432 L2165.77 353.432 L2165.77 357.368 L2136.1 357.368 L2136.1 353.432 Z" fill="#000000" fill-rule="evenodd" fill-opacity="1" /><path clip-path="url(#clip700)" d="M 0 0 M2195.91 349.104 Q2192.58 349.104 2190.66 350.886 Q2188.76 352.669 2188.76 355.794 Q2188.76 358.919 2190.66 360.701 Q2192.58 362.483 2195.91 362.483 Q2199.24 362.483 2201.16 360.701 Q2203.09 358.895 2203.09 355.794 Q2203.09 352.669 2201.16 350.886 Q2199.27 349.104 2195.91 349.104 M2191.23 347.113 Q2188.22 346.372 2186.53 344.312 Q2184.87 342.252 2184.87 339.289 Q2184.87 335.146 2187.81 332.738 Q2190.77 330.331 2195.91 330.331 Q2201.07 330.331 2204.01 332.738 Q2206.95 335.146 2206.95 339.289 Q2206.95 342.252 2205.26 344.312 Q2203.59 346.372 2200.61 347.113 Q2203.99 347.9 2205.86 350.192 Q2207.76 352.483 2207.76 355.794 Q2207.76 360.817 2204.68 363.502 Q2201.63 366.187 2195.91 366.187 Q2190.19 366.187 2187.11 363.502 Q2184.06 360.817 2184.06 355.794 Q2184.06 352.483 2185.96 350.192 Q2187.85 347.9 2191.23 347.113 M2189.52 339.729 Q2189.52 342.414 2191.19 343.919 Q2192.88 345.423 2195.91 345.423 Q2198.92 345.423 2200.61 343.919 Q2202.32 342.414 2202.32 339.729 Q2202.32 337.044 2200.61 335.539 Q2198.92 334.034 2195.91 334.034 Q2192.88 334.034 2191.19 335.539 Q2189.52 337.044 2189.52 339.729 Z" fill="#000000" fill-rule="evenodd" fill-opacity="1" /><circle clip-path="url(#clip700)" cx="1819.13" cy="408.716" r="23" fill="#c271d2" fill-rule="evenodd" fill-opacity="1" stroke="#000000" stroke-opacity="1" stroke-width="5.12"/>
<path clip-path="url(#clip700)" d="M 0 0 M1927.49 425.996 L1914.29 391.436 L1919.17 391.436 L1930.12 420.533 L1941.1 391.436 L1945.96 391.436 L1932.79 425.996 L1927.49 425.996 Z" fill="#000000" fill-rule="evenodd" fill-opacity="1" /><path clip-path="url(#clip700)" d="M 0 0 M1950.08 391.436 L1954.78 391.436 L1954.78 412.431 Q1954.78 417.987 1956.79 420.44 Q1958.8 422.871 1963.32 422.871 Q1967.81 422.871 1969.82 420.44 Q1971.84 417.987 1971.84 412.431 L1971.84 391.436 L1976.54 391.436 L1976.54 413.01 Q1976.54 419.769 1973.18 423.218 Q1969.85 426.667 1963.32 426.667 Q1956.77 426.667 1953.41 423.218 Q1950.08 419.769 1950.08 413.01 L1950.08 391.436 Z" fill="#000000" fill-rule="evenodd" fill-opacity="1" /><path clip-path="url(#clip700)" d="M 0 0 M1981.19 391.436 L1988.16 391.436 L1996.98 414.954 L2005.84 391.436 L2012.81 391.436 L2012.81 425.996 L2008.25 425.996 L2008.25 395.649 L1999.34 419.352 L1994.64 419.352 L1985.73 395.649 L1985.73 425.996 L1981.19 425.996 L1981.19 391.436 Z" fill="#000000" fill-rule="evenodd" fill-opacity="1" /><path clip-path="url(#clip700)" d="M 0 0 M2022.14 395.278 L2022.14 408.264 L2028.02 408.264 Q2031.28 408.264 2033.06 406.575 Q2034.85 404.885 2034.85 401.76 Q2034.85 398.658 2033.06 396.968 Q2031.28 395.278 2028.02 395.278 L2022.14 395.278 M2017.46 391.436 L2028.02 391.436 Q2033.83 391.436 2036.79 394.075 Q2039.78 396.69 2039.78 401.76 Q2039.78 406.875 2036.79 409.491 Q2033.83 412.107 2028.02 412.107 L2022.14 412.107 L2022.14 425.996 L2017.46 425.996 L2017.46 391.436 Z" fill="#000000" fill-rule="evenodd" fill-opacity="1" /><path clip-path="url(#clip700)" d="M 0 0 M2065.15 392.57 L2065.15 397.13 Q2062.48 395.857 2060.12 395.232 Q2057.76 394.607 2055.56 394.607 Q2051.74 394.607 2049.66 396.088 Q2047.6 397.57 2047.6 400.301 Q2047.6 402.593 2048.97 403.774 Q2050.35 404.931 2054.2 405.649 L2057.02 406.227 Q2062.25 407.223 2064.73 409.746 Q2067.23 412.246 2067.23 416.459 Q2067.23 421.482 2063.85 424.074 Q2060.49 426.667 2053.99 426.667 Q2051.54 426.667 2048.76 426.111 Q2046 425.556 2043.04 424.468 L2043.04 419.653 Q2045.89 421.25 2048.62 422.061 Q2051.35 422.871 2053.99 422.871 Q2057.99 422.871 2060.17 421.297 Q2062.35 419.723 2062.35 416.806 Q2062.35 414.26 2060.77 412.824 Q2059.22 411.389 2055.66 410.672 L2052.81 410.116 Q2047.58 409.075 2045.24 406.852 Q2042.9 404.63 2042.9 400.672 Q2042.9 396.088 2046.12 393.45 Q2049.36 390.811 2055.03 390.811 Q2057.46 390.811 2059.98 391.251 Q2062.51 391.69 2065.15 392.57 Z" fill="#000000" fill-rule="evenodd" fill-opacity="1" /><path clip-path="url(#clip700)" d="M 0 0 M2091.63 395.278 L2091.63 422.153 L2097.28 422.153 Q2104.43 422.153 2107.74 418.912 Q2111.07 415.672 2111.07 408.681 Q2111.07 401.737 2107.74 398.519 Q2104.43 395.278 2097.28 395.278 L2091.63 395.278 M2086.95 391.436 L2096.56 391.436 Q2106.6 391.436 2111.3 395.626 Q2116 399.792 2116 408.681 Q2116 417.616 2111.28 421.806 Q2106.56 425.996 2096.56 425.996 L2086.95 425.996 L2086.95 391.436 Z" fill="#000000" fill-rule="evenodd" fill-opacity="1" /><path clip-path="url(#clip700)" d="M 0 0 M2136.1 404.468 L2165.77 404.468 L2165.77 408.357 L2136.1 408.357 L2136.1 404.468 M2136.1 413.912 L2165.77 413.912 L2165.77 417.848 L2136.1 417.848 L2136.1 413.912 Z" fill="#000000" fill-rule="evenodd" fill-opacity="1" /><path clip-path="url(#clip700)" d="M 0 0 M2186.72 422.061 L2194.36 422.061 L2194.36 395.695 L2186.05 397.362 L2186.05 393.102 L2194.31 391.436 L2198.99 391.436 L2198.99 422.061 L2206.63 422.061 L2206.63 425.996 L2186.72 425.996 L2186.72 422.061 Z" fill="#000000" fill-rule="evenodd" fill-opacity="1" /><path clip-path="url(#clip700)" d="M 0 0 M2222.28 406.852 Q2219.13 406.852 2217.28 409.005 Q2215.45 411.158 2215.45 414.908 Q2215.45 418.635 2217.28 420.811 Q2219.13 422.963 2222.28 422.963 Q2225.42 422.963 2227.25 420.811 Q2229.1 418.635 2229.1 414.908 Q2229.1 411.158 2227.25 409.005 Q2225.42 406.852 2222.28 406.852 M2231.56 392.2 L2231.56 396.459 Q2229.8 395.626 2227.99 395.186 Q2226.21 394.746 2224.45 394.746 Q2219.82 394.746 2217.37 397.871 Q2214.94 400.996 2214.59 407.315 Q2215.96 405.301 2218.02 404.237 Q2220.08 403.149 2222.55 403.149 Q2227.76 403.149 2230.77 406.32 Q2233.8 409.468 2233.8 414.908 Q2233.8 420.232 2230.65 423.449 Q2227.51 426.667 2222.28 426.667 Q2216.28 426.667 2213.11 422.084 Q2209.94 417.477 2209.94 408.75 Q2209.94 400.556 2213.83 395.695 Q2217.72 390.811 2224.27 390.811 Q2226.03 390.811 2227.81 391.158 Q2229.61 391.505 2231.56 392.2 Z" fill="#000000" fill-rule="evenodd" fill-opacity="1" /><circle clip-path="url(#clip700)" cx="1819.13" cy="469.196" r="23" fill="#ac8d18" fill-rule="evenodd" fill-opacity="1" stroke="#000000" stroke-opacity="1" stroke-width="5.12"/>
<path clip-path="url(#clip700)" d="M 0 0 M1927.49 486.476 L1914.29 451.916 L1919.17 451.916 L1930.12 481.013 L1941.1 451.916 L1945.96 451.916 L1932.79 486.476 L1927.49 486.476 Z" fill="#000000" fill-rule="evenodd" fill-opacity="1" /><path clip-path="url(#clip700)" d="M 0 0 M1950.08 451.916 L1954.78 451.916 L1954.78 472.911 Q1954.78 478.467 1956.79 480.92 Q1958.8 483.351 1963.32 483.351 Q1967.81 483.351 1969.82 480.92 Q1971.84 478.467 1971.84 472.911 L1971.84 451.916 L1976.54 451.916 L1976.54 473.49 Q1976.54 480.249 1973.18 483.698 Q1969.85 487.147 1963.32 487.147 Q1956.77 487.147 1953.41 483.698 Q1950.08 480.249 1950.08 473.49 L1950.08 451.916 Z" fill="#000000" fill-rule="evenodd" fill-opacity="1" /><path clip-path="url(#clip700)" d="M 0 0 M1981.19 451.916 L1988.16 451.916 L1996.98 475.434 L2005.84 451.916 L2012.81 451.916 L2012.81 486.476 L2008.25 486.476 L2008.25 456.129 L1999.34 479.832 L1994.64 479.832 L1985.73 456.129 L1985.73 486.476 L1981.19 486.476 L1981.19 451.916 Z" fill="#000000" fill-rule="evenodd" fill-opacity="1" /><path clip-path="url(#clip700)" d="M 0 0 M2022.14 455.758 L2022.14 468.744 L2028.02 468.744 Q2031.28 468.744 2033.06 467.055 Q2034.85 465.365 2034.85 462.24 Q2034.85 459.138 2033.06 457.448 Q2031.28 455.758 2028.02 455.758 L2022.14 455.758 M2017.46 451.916 L2028.02 451.916 Q2033.83 451.916 2036.79 454.555 Q2039.78 457.17 2039.78 462.24 Q2039.78 467.355 2036.79 469.971 Q2033.83 472.587 2028.02 472.587 L2022.14 472.587 L2022.14 486.476 L2017.46 486.476 L2017.46 451.916 Z" fill="#000000" fill-rule="evenodd" fill-opacity="1" /><path clip-path="url(#clip700)" d="M 0 0 M2065.15 453.05 L2065.15 457.61 Q2062.48 456.337 2060.12 455.712 Q2057.76 455.087 2055.56 455.087 Q2051.74 455.087 2049.66 456.568 Q2047.6 458.05 2047.6 460.781 Q2047.6 463.073 2048.97 464.254 Q2050.35 465.411 2054.2 466.129 L2057.02 466.707 Q2062.25 467.703 2064.73 470.226 Q2067.23 472.726 2067.23 476.939 Q2067.23 481.962 2063.85 484.554 Q2060.49 487.147 2053.99 487.147 Q2051.54 487.147 2048.76 486.591 Q2046 486.036 2043.04 484.948 L2043.04 480.133 Q2045.89 481.73 2048.62 482.541 Q2051.35 483.351 2053.99 483.351 Q2057.99 483.351 2060.17 481.777 Q2062.35 480.203 2062.35 477.286 Q2062.35 474.74 2060.77 473.304 Q2059.22 471.869 2055.66 471.152 L2052.81 470.596 Q2047.58 469.555 2045.24 467.332 Q2042.9 465.11 2042.9 461.152 Q2042.9 456.568 2046.12 453.93 Q2049.36 451.291 2055.03 451.291 Q2057.46 451.291 2059.98 451.731 Q2062.51 452.17 2065.15 453.05 Z" fill="#000000" fill-rule="evenodd" fill-opacity="1" /><path clip-path="url(#clip700)" d="M 0 0 M2091.63 455.758 L2091.63 482.633 L2097.28 482.633 Q2104.43 482.633 2107.74 479.392 Q2111.07 476.152 2111.07 469.161 Q2111.07 462.217 2107.74 458.999 Q2104.43 455.758 2097.28 455.758 L2091.63 455.758 M2086.95 451.916 L2096.56 451.916 Q2106.6 451.916 2111.3 456.106 Q2116 460.272 2116 469.161 Q2116 478.096 2111.28 482.286 Q2106.56 486.476 2096.56 486.476 L2086.95 486.476 L2086.95 451.916 Z" fill="#000000" fill-rule="evenodd" fill-opacity="1" /><path clip-path="url(#clip700)" d="M 0 0 M2136.1 464.948 L2165.77 464.948 L2165.77 468.837 L2136.1 468.837 L2136.1 464.948 M2136.1 474.392 L2165.77 474.392 L2165.77 478.328 L2136.1 478.328 L2136.1 474.392 Z" fill="#000000" fill-rule="evenodd" fill-opacity="1" /><path clip-path="url(#clip700)" d="M 0 0 M2200.08 467.842 Q2203.43 468.559 2205.31 470.828 Q2207.21 473.096 2207.21 476.429 Q2207.21 481.545 2203.69 484.346 Q2200.17 487.147 2193.69 487.147 Q2191.51 487.147 2189.2 486.707 Q2186.91 486.291 2184.45 485.434 L2184.45 480.92 Q2186.4 482.054 2188.71 482.633 Q2191.03 483.212 2193.55 483.212 Q2197.95 483.212 2200.24 481.476 Q2202.55 479.74 2202.55 476.429 Q2202.55 473.374 2200.4 471.661 Q2198.27 469.925 2194.45 469.925 L2190.42 469.925 L2190.42 466.082 L2194.64 466.082 Q2198.09 466.082 2199.91 464.717 Q2201.74 463.328 2201.74 460.735 Q2201.74 458.073 2199.84 456.661 Q2197.97 455.226 2194.45 455.226 Q2192.53 455.226 2190.33 455.643 Q2188.13 456.059 2185.49 456.939 L2185.49 452.772 Q2188.16 452.031 2190.47 451.661 Q2192.81 451.291 2194.87 451.291 Q2200.19 451.291 2203.29 453.721 Q2206.4 456.129 2206.4 460.249 Q2206.4 463.119 2204.75 465.11 Q2203.11 467.078 2200.08 467.842 Z" fill="#000000" fill-rule="evenodd" fill-opacity="1" /><path clip-path="url(#clip700)" d="M 0 0 M2216.3 482.541 L2232.62 482.541 L2232.62 486.476 L2210.68 486.476 L2210.68 482.541 Q2213.34 479.786 2217.92 475.156 Q2222.53 470.504 2223.71 469.161 Q2225.96 466.638 2226.84 464.902 Q2227.74 463.143 2227.74 461.453 Q2227.74 458.698 2225.79 456.962 Q2223.87 455.226 2220.77 455.226 Q2218.57 455.226 2216.12 455.99 Q2213.69 456.754 2210.91 458.305 L2210.91 453.582 Q2213.73 452.448 2216.19 451.869 Q2218.64 451.291 2220.68 451.291 Q2226.05 451.291 2229.24 453.976 Q2232.44 456.661 2232.44 461.152 Q2232.44 463.281 2231.63 465.203 Q2230.84 467.101 2228.73 469.693 Q2228.15 470.365 2225.05 473.582 Q2221.95 476.777 2216.3 482.541 Z" fill="#000000" fill-rule="evenodd" fill-opacity="1" /><polyline clip-path="url(#clip700)" style="stroke:#00a9ad; stroke-width:4; stroke-opacity:1; fill:none" points="
  1747.76,529.676 1890.5,529.676 
  "/>
<path clip-path="url(#clip700)" d="M 0 0 M1938.32 532.928 L1938.32 535.011 L1918.74 535.011 Q1919.01 539.409 1921.37 541.724 Q1923.76 544.016 1927.99 544.016 Q1930.45 544.016 1932.74 543.414 Q1935.05 542.812 1937.32 541.609 L1937.32 545.636 Q1935.03 546.608 1932.62 547.118 Q1930.22 547.627 1927.74 547.627 Q1921.54 547.627 1917.9 544.016 Q1914.29 540.405 1914.29 534.247 Q1914.29 527.882 1917.72 524.155 Q1921.17 520.405 1927 520.405 Q1932.23 520.405 1935.26 523.785 Q1938.32 527.141 1938.32 532.928 M1934.06 531.678 Q1934.01 528.183 1932.09 526.099 Q1930.19 524.016 1927.05 524.016 Q1923.48 524.016 1921.33 526.03 Q1919.2 528.044 1918.87 531.701 L1934.06 531.678 Z" fill="#000000" fill-rule="evenodd" fill-opacity="1" /><path clip-path="url(#clip700)" d="M 0 0 M1963.5 521.03 L1954.13 533.646 L1963.99 546.956 L1958.97 546.956 L1951.42 536.771 L1943.87 546.956 L1938.85 546.956 L1948.92 533.391 L1939.71 521.03 L1944.73 521.03 L1951.61 530.266 L1958.48 521.03 L1963.5 521.03 Z" fill="#000000" fill-rule="evenodd" fill-opacity="1" /><path clip-path="url(#clip700)" d="M 0 0 M1980.24 533.923 Q1975.08 533.923 1973.09 535.104 Q1971.1 536.284 1971.1 539.132 Q1971.1 541.4 1972.58 542.743 Q1974.08 544.062 1976.65 544.062 Q1980.19 544.062 1982.32 541.562 Q1984.48 539.039 1984.48 534.872 L1984.48 533.923 L1980.24 533.923 M1988.73 532.164 L1988.73 546.956 L1984.48 546.956 L1984.48 543.021 Q1983.02 545.382 1980.84 546.516 Q1978.67 547.627 1975.52 547.627 Q1971.54 547.627 1969.17 545.405 Q1966.84 543.159 1966.84 539.409 Q1966.84 535.034 1969.75 532.812 Q1972.69 530.59 1978.5 530.59 L1984.48 530.59 L1984.48 530.173 Q1984.48 527.234 1982.53 525.636 Q1980.61 524.016 1977.11 524.016 Q1974.89 524.016 1972.79 524.548 Q1970.68 525.081 1968.73 526.146 L1968.73 522.21 Q1971.07 521.308 1973.27 520.868 Q1975.47 520.405 1977.55 520.405 Q1983.18 520.405 1985.96 523.322 Q1988.73 526.238 1988.73 532.164 Z" fill="#000000" fill-rule="evenodd" fill-opacity="1" /><path clip-path="url(#clip700)" d="M 0 0 M2011.86 522.025 L2011.86 526.007 Q2010.05 525.011 2008.23 524.525 Q2006.42 524.016 2004.57 524.016 Q2000.42 524.016 1998.13 526.655 Q1995.84 529.271 1995.84 534.016 Q1995.84 538.761 1998.13 541.4 Q2000.42 544.016 2004.57 544.016 Q2006.42 544.016 2008.23 543.53 Q2010.05 543.021 2011.86 542.025 L2011.86 545.96 Q2010.08 546.794 2008.16 547.21 Q2006.26 547.627 2004.11 547.627 Q1998.25 547.627 1994.8 543.946 Q1991.35 540.266 1991.35 534.016 Q1991.35 527.673 1994.82 524.039 Q1998.32 520.405 2004.38 520.405 Q2006.35 520.405 2008.23 520.822 Q2010.1 521.215 2011.86 522.025 Z" fill="#000000" fill-rule="evenodd" fill-opacity="1" /><path clip-path="url(#clip700)" d="M 0 0 M2020.54 513.669 L2020.54 521.03 L2029.31 521.03 L2029.31 524.34 L2020.54 524.34 L2020.54 538.414 Q2020.54 541.585 2021.4 542.488 Q2022.28 543.391 2024.94 543.391 L2029.31 543.391 L2029.31 546.956 L2024.94 546.956 Q2020.01 546.956 2018.13 545.127 Q2016.26 543.275 2016.26 538.414 L2016.26 524.34 L2013.13 524.34 L2013.13 521.03 L2016.26 521.03 L2016.26 513.669 L2020.54 513.669 Z" fill="#000000" fill-rule="evenodd" fill-opacity="1" /></svg>
