<?xml version="1.0" encoding="utf-8"?>
<svg xmlns="http://www.w3.org/2000/svg" xmlns:xlink="http://www.w3.org/1999/xlink" width="600" height="400" viewBox="0 0 2400 1600">
<defs>
  <clipPath id="clip780">
    <rect x="0" y="0" width="2400" height="1600"/>
  </clipPath>
</defs>
<path clip-path="url(#clip780)" d="
M0 1600 L2400 1600 L2400 0 L0 0  Z
  " fill="#ffffff" fill-rule="evenodd" fill-opacity="1"/>
<defs>
  <clipPath id="clip781">
    <rect x="480" y="0" width="1681" height="1600"/>
  </clipPath>
</defs>
<path clip-path="url(#clip780)" d="
M242.922 1423.18 L2352.76 1423.18 L2352.76 123.472 L242.922 123.472  Z
  " fill="#ffffff" fill-rule="evenodd" fill-opacity="1"/>
<defs>
  <clipPath id="clip782">
    <rect x="242" y="123" width="2111" height="1301"/>
  </clipPath>
</defs>
<polyline clip-path="url(#clip782)" style="stroke:#000000; stroke-width:2; stroke-opacity:0.1; fill:none" points="
  523.791,1423.18 523.791,123.472 
  "/>
<polyline clip-path="url(#clip782)" style="stroke:#000000; stroke-width:2; stroke-opacity:0.1; fill:none" points="
  966.104,1423.18 966.104,123.472 
  "/>
<polyline clip-path="url(#clip782)" style="stroke:#000000; stroke-width:2; stroke-opacity:0.1; fill:none" points="
  1408.42,1423.18 1408.42,123.472 
  "/>
<polyline clip-path="url(#clip782)" style="stroke:#000000; stroke-width:2; stroke-opacity:0.1; fill:none" points="
  1850.73,1423.18 1850.73,123.472 
  "/>
<polyline clip-path="url(#clip782)" style="stroke:#000000; stroke-width:2; stroke-opacity:0.1; fill:none" points="
  2293.04,1423.18 2293.04,123.472 
  "/>
<polyline clip-path="url(#clip780)" style="stroke:#000000; stroke-width:4; stroke-opacity:1; fill:none" points="
  242.922,1423.18 2352.76,1423.18 
  "/>
<polyline clip-path="url(#clip780)" style="stroke:#000000; stroke-width:4; stroke-opacity:1; fill:none" points="
  523.791,1423.18 523.791,1407.58 
  "/>
<polyline clip-path="url(#clip780)" style="stroke:#000000; stroke-width:4; stroke-opacity:1; fill:none" points="
  966.104,1423.18 966.104,1407.58 
  "/>
<polyline clip-path="url(#clip780)" style="stroke:#000000; stroke-width:4; stroke-opacity:1; fill:none" points="
  1408.42,1423.18 1408.42,1407.58 
  "/>
<polyline clip-path="url(#clip780)" style="stroke:#000000; stroke-width:4; stroke-opacity:1; fill:none" points="
  1850.73,1423.18 1850.73,1407.58 
  "/>
<polyline clip-path="url(#clip780)" style="stroke:#000000; stroke-width:4; stroke-opacity:1; fill:none" points="
  2293.04,1423.18 2293.04,1407.58 
  "/>
<path clip-path="url(#clip780)" d="M 0 0 M506.106 1452.37 Q502.494 1452.37 500.666 1455.94 Q498.86 1459.48 498.86 1466.61 Q498.86 1473.71 500.666 1477.28 Q502.494 1480.82 506.106 1480.82 Q509.74 1480.82 511.545 1477.28 Q513.374 1473.71 513.374 1466.61 Q513.374 1459.48 511.545 1455.94 Q509.74 1452.37 506.106 1452.37 M506.106 1448.67 Q511.916 1448.67 514.971 1453.27 Q518.05 1457.86 518.05 1466.61 Q518.05 1475.33 514.971 1479.94 Q511.916 1484.52 506.106 1484.52 Q500.295 1484.52 497.217 1479.94 Q494.161 1475.33 494.161 1466.61 Q494.161 1457.86 497.217 1453.27 Q500.295 1448.67 506.106 1448.67 Z" fill="#000000" fill-rule="evenodd" fill-opacity="1" /><path clip-path="url(#clip780)" d="M 0 0 M523.119 1477.97 L528.004 1477.97 L528.004 1483.85 L523.119 1483.85 L523.119 1477.97 Z" fill="#000000" fill-rule="evenodd" fill-opacity="1" /><path clip-path="url(#clip780)" d="M 0 0 M537.101 1479.92 L553.42 1479.92 L553.42 1483.85 L531.476 1483.85 L531.476 1479.92 Q534.138 1477.16 538.721 1472.53 Q543.328 1467.88 544.508 1466.54 Q546.753 1464.01 547.633 1462.28 Q548.536 1460.52 548.536 1458.83 Q548.536 1456.07 546.591 1454.34 Q544.67 1452.6 541.568 1452.6 Q539.369 1452.6 536.916 1453.37 Q534.485 1454.13 531.707 1455.68 L531.707 1450.96 Q534.531 1449.82 536.985 1449.25 Q539.439 1448.67 541.476 1448.67 Q546.846 1448.67 550.04 1451.35 Q553.235 1454.04 553.235 1458.53 Q553.235 1460.66 552.425 1462.58 Q551.638 1464.48 549.531 1467.07 Q548.953 1467.74 545.851 1470.96 Q542.749 1474.15 537.101 1479.92 Z" fill="#000000" fill-rule="evenodd" fill-opacity="1" /><path clip-path="url(#clip780)" d="M 0 0 M947.377 1452.37 Q943.766 1452.37 941.937 1455.94 Q940.132 1459.48 940.132 1466.61 Q940.132 1473.71 941.937 1477.28 Q943.766 1480.82 947.377 1480.82 Q951.011 1480.82 952.817 1477.28 Q954.646 1473.71 954.646 1466.61 Q954.646 1459.48 952.817 1455.94 Q951.011 1452.37 947.377 1452.37 M947.377 1448.67 Q953.187 1448.67 956.243 1453.27 Q959.321 1457.86 959.321 1466.61 Q959.321 1475.33 956.243 1479.94 Q953.187 1484.52 947.377 1484.52 Q941.567 1484.52 938.488 1479.94 Q935.433 1475.33 935.433 1466.61 Q935.433 1457.86 938.488 1453.27 Q941.567 1448.67 947.377 1448.67 Z" fill="#000000" fill-rule="evenodd" fill-opacity="1" /><path clip-path="url(#clip780)" d="M 0 0 M964.391 1477.97 L969.275 1477.97 L969.275 1483.85 L964.391 1483.85 L964.391 1477.97 Z" fill="#000000" fill-rule="evenodd" fill-opacity="1" /><path clip-path="url(#clip780)" d="M 0 0 M987.192 1453.37 L975.386 1471.81 L987.192 1471.81 L987.192 1453.37 M985.965 1449.29 L991.844 1449.29 L991.844 1471.81 L996.775 1471.81 L996.775 1475.7 L991.844 1475.7 L991.844 1483.85 L987.192 1483.85 L987.192 1475.7 L971.59 1475.7 L971.59 1471.19 L985.965 1449.29 Z" fill="#000000" fill-rule="evenodd" fill-opacity="1" /><path clip-path="url(#clip780)" d="M 0 0 M1389.85 1452.37 Q1386.24 1452.37 1384.41 1455.94 Q1382.61 1459.48 1382.61 1466.61 Q1382.61 1473.71 1384.41 1477.28 Q1386.24 1480.82 1389.85 1480.82 Q1393.49 1480.82 1395.29 1477.28 Q1397.12 1473.71 1397.12 1466.61 Q1397.12 1459.48 1395.29 1455.94 Q1393.49 1452.37 1389.85 1452.37 M1389.85 1448.67 Q1395.66 1448.67 1398.72 1453.27 Q1401.8 1457.86 1401.8 1466.61 Q1401.8 1475.33 1398.72 1479.94 Q1395.66 1484.52 1389.85 1484.52 Q1384.04 1484.52 1380.96 1479.94 Q1377.91 1475.33 1377.91 1466.61 Q1377.91 1457.86 1380.96 1453.27 Q1384.04 1448.67 1389.85 1448.67 Z" fill="#000000" fill-rule="evenodd" fill-opacity="1" /><path clip-path="url(#clip780)" d="M 0 0 M1406.87 1477.97 L1411.75 1477.97 L1411.75 1483.85 L1406.87 1483.85 L1406.87 1477.97 Z" fill="#000000" fill-rule="evenodd" fill-opacity="1" /><path clip-path="url(#clip780)" d="M 0 0 M1427.4 1464.71 Q1424.25 1464.71 1422.4 1466.86 Q1420.57 1469.01 1420.57 1472.76 Q1420.57 1476.49 1422.4 1478.67 Q1424.25 1480.82 1427.4 1480.82 Q1430.55 1480.82 1432.38 1478.67 Q1434.23 1476.49 1434.23 1472.76 Q1434.23 1469.01 1432.38 1466.86 Q1430.55 1464.71 1427.4 1464.71 M1436.68 1450.06 L1436.68 1454.31 Q1434.92 1453.48 1433.12 1453.04 Q1431.33 1452.6 1429.57 1452.6 Q1424.94 1452.6 1422.49 1455.73 Q1420.06 1458.85 1419.71 1465.17 Q1421.08 1463.16 1423.14 1462.09 Q1425.2 1461 1427.68 1461 Q1432.88 1461 1435.89 1464.18 Q1438.93 1467.32 1438.93 1472.76 Q1438.93 1478.09 1435.78 1481.31 Q1432.63 1484.52 1427.4 1484.52 Q1421.4 1484.52 1418.23 1479.94 Q1415.06 1475.33 1415.06 1466.61 Q1415.06 1458.41 1418.95 1453.55 Q1422.84 1448.67 1429.39 1448.67 Q1431.15 1448.67 1432.93 1449.01 Q1434.74 1449.36 1436.68 1450.06 Z" fill="#000000" fill-rule="evenodd" fill-opacity="1" /><path clip-path="url(#clip780)" d="M 0 0 M1832.29 1452.37 Q1828.68 1452.37 1826.85 1455.94 Q1825.05 1459.48 1825.05 1466.61 Q1825.05 1473.71 1826.85 1477.28 Q1828.68 1480.82 1832.29 1480.82 Q1835.93 1480.82 1837.73 1477.28 Q1839.56 1473.71 1839.56 1466.61 Q1839.56 1459.48 1837.73 1455.94 Q1835.93 1452.37 1832.29 1452.37 M1832.29 1448.67 Q1838.1 1448.67 1841.16 1453.27 Q1844.24 1457.86 1844.24 1466.61 Q1844.24 1475.33 1841.16 1479.94 Q1838.1 1484.52 1832.29 1484.52 Q1826.48 1484.52 1823.4 1479.94 Q1820.35 1475.33 1820.35 1466.61 Q1820.35 1457.86 1823.4 1453.27 Q1826.48 1448.67 1832.29 1448.67 Z" fill="#000000" fill-rule="evenodd" fill-opacity="1" /><path clip-path="url(#clip780)" d="M 0 0 M1849.31 1477.97 L1854.19 1477.97 L1854.19 1483.85 L1849.31 1483.85 L1849.31 1477.97 Z" fill="#000000" fill-rule="evenodd" fill-opacity="1" /><path clip-path="url(#clip780)" d="M 0 0 M1869.26 1467.44 Q1865.93 1467.44 1864.01 1469.22 Q1862.11 1471 1862.11 1474.13 Q1862.11 1477.25 1864.01 1479.04 Q1865.93 1480.82 1869.26 1480.82 Q1872.59 1480.82 1874.51 1479.04 Q1876.44 1477.23 1876.44 1474.13 Q1876.44 1471 1874.51 1469.22 Q1872.62 1467.44 1869.26 1467.44 M1864.58 1465.45 Q1861.58 1464.71 1859.89 1462.65 Q1858.22 1460.59 1858.22 1457.63 Q1858.22 1453.48 1861.16 1451.07 Q1864.12 1448.67 1869.26 1448.67 Q1874.42 1448.67 1877.36 1451.07 Q1880.3 1453.48 1880.3 1457.63 Q1880.3 1460.59 1878.61 1462.65 Q1876.95 1464.71 1873.96 1465.45 Q1877.34 1466.24 1879.21 1468.53 Q1881.11 1470.82 1881.11 1474.13 Q1881.11 1479.15 1878.03 1481.84 Q1874.98 1484.52 1869.26 1484.52 Q1863.54 1484.52 1860.46 1481.84 Q1857.41 1479.15 1857.41 1474.13 Q1857.41 1470.82 1859.31 1468.53 Q1861.2 1466.24 1864.58 1465.45 M1862.87 1458.06 Q1862.87 1460.75 1864.54 1462.25 Q1866.23 1463.76 1869.26 1463.76 Q1872.27 1463.76 1873.96 1462.25 Q1875.67 1460.75 1875.67 1458.06 Q1875.67 1455.38 1873.96 1453.88 Q1872.27 1452.37 1869.26 1452.37 Q1866.23 1452.37 1864.54 1453.88 Q1862.87 1455.38 1862.87 1458.06 Z" fill="#000000" fill-rule="evenodd" fill-opacity="1" /><path clip-path="url(#clip780)" d="M 0 0 M2264.94 1479.92 L2272.58 1479.92 L2272.58 1453.55 L2264.27 1455.22 L2264.27 1450.96 L2272.53 1449.29 L2277.21 1449.29 L2277.21 1479.92 L2284.85 1479.92 L2284.85 1483.85 L2264.94 1483.85 L2264.94 1479.92 Z" fill="#000000" fill-rule="evenodd" fill-opacity="1" /><path clip-path="url(#clip780)" d="M 0 0 M2289.92 1477.97 L2294.8 1477.97 L2294.8 1483.85 L2289.92 1483.85 L2289.92 1477.97 Z" fill="#000000" fill-rule="evenodd" fill-opacity="1" /><path clip-path="url(#clip780)" d="M 0 0 M2309.87 1452.37 Q2306.26 1452.37 2304.43 1455.94 Q2302.63 1459.48 2302.63 1466.61 Q2302.63 1473.71 2304.43 1477.28 Q2306.26 1480.82 2309.87 1480.82 Q2313.51 1480.82 2315.31 1477.28 Q2317.14 1473.71 2317.14 1466.61 Q2317.14 1459.48 2315.31 1455.94 Q2313.51 1452.37 2309.87 1452.37 M2309.87 1448.67 Q2315.68 1448.67 2318.74 1453.27 Q2321.82 1457.86 2321.82 1466.61 Q2321.82 1475.33 2318.74 1479.94 Q2315.68 1484.52 2309.87 1484.52 Q2304.06 1484.52 2300.98 1479.94 Q2297.93 1475.33 2297.93 1466.61 Q2297.93 1457.86 2300.98 1453.27 Q2304.06 1448.67 2309.87 1448.67 Z" fill="#000000" fill-rule="evenodd" fill-opacity="1" /><path clip-path="url(#clip780)" d="M 0 0 M1288.32 1565.85 L1288.32 1581.6 L1282.43 1581.6 L1282.43 1532.62 Q1282.43 1518.1 1295.99 1518.1 Q1309.81 1518.1 1309.81 1530.36 Q1309.81 1539.08 1304.33 1542.26 Q1313.24 1545.13 1313.24 1553.63 Q1313.24 1568.71 1297.9 1568.71 Q1291.15 1568.71 1288.32 1565.85 M1288.32 1558.21 Q1291.86 1563.72 1298.13 1563.72 Q1307.29 1563.72 1307.29 1553.72 Q1307.29 1544.75 1292.52 1545.45 L1292.52 1540.03 Q1304.08 1540.03 1304.08 1529.85 Q1304.08 1522.88 1296.63 1522.88 Q1288.32 1522.88 1288.32 1532.81 L1288.32 1558.21 Z" fill="#000000" fill-rule="evenodd" fill-opacity="1" /><polyline clip-path="url(#clip782)" style="stroke:#000000; stroke-width:2; stroke-opacity:0.1; fill:none" points="
  242.922,1388.34 2352.76,1388.34 
  "/>
<polyline clip-path="url(#clip782)" style="stroke:#000000; stroke-width:2; stroke-opacity:0.1; fill:none" points="
  242.922,1046.56 2352.76,1046.56 
  "/>
<polyline clip-path="url(#clip782)" style="stroke:#000000; stroke-width:2; stroke-opacity:0.1; fill:none" points="
  242.922,704.787 2352.76,704.787 
  "/>
<polyline clip-path="url(#clip782)" style="stroke:#000000; stroke-width:2; stroke-opacity:0.1; fill:none" points="
  242.922,363.013 2352.76,363.013 
  "/>
<polyline clip-path="url(#clip780)" style="stroke:#000000; stroke-width:4; stroke-opacity:1; fill:none" points="
  242.922,1423.18 242.922,123.472 
  "/>
<polyline clip-path="url(#clip780)" style="stroke:#000000; stroke-width:4; stroke-opacity:1; fill:none" points="
  242.922,1388.34 268.24,1388.34 
  "/>
<polyline clip-path="url(#clip780)" style="stroke:#000000; stroke-width:4; stroke-opacity:1; fill:none" points="
  242.922,1046.56 268.24,1046.56 
  "/>
<polyline clip-path="url(#clip780)" style="stroke:#000000; stroke-width:4; stroke-opacity:1; fill:none" points="
  242.922,704.787 268.24,704.787 
  "/>
<polyline clip-path="url(#clip780)" style="stroke:#000000; stroke-width:4; stroke-opacity:1; fill:none" points="
  242.922,363.013 268.24,363.013 
  "/>
<path clip-path="url(#clip780)" d="M 0 0 M114.862 1388.79 L144.538 1388.79 L144.538 1392.72 L114.862 1392.72 L114.862 1388.79 Z" fill="#000000" fill-rule="evenodd" fill-opacity="1" /><path clip-path="url(#clip780)" d="M 0 0 M153.635 1401.68 L169.954 1401.68 L169.954 1405.62 L148.01 1405.62 L148.01 1401.68 Q150.672 1398.93 155.255 1394.3 Q159.862 1389.64 161.042 1388.3 Q163.288 1385.78 164.167 1384.04 Q165.07 1382.28 165.07 1380.59 Q165.07 1377.84 163.126 1376.1 Q161.204 1374.37 158.103 1374.37 Q155.903 1374.37 153.45 1375.13 Q151.019 1375.89 148.241 1377.45 L148.241 1372.72 Q151.066 1371.59 153.519 1371.01 Q155.973 1370.43 158.01 1370.43 Q163.38 1370.43 166.575 1373.12 Q169.769 1375.8 169.769 1380.29 Q169.769 1382.42 168.959 1384.34 Q168.172 1386.24 166.065 1388.83 Q165.487 1389.51 162.385 1392.72 Q159.283 1395.92 153.635 1401.68 Z" fill="#000000" fill-rule="evenodd" fill-opacity="1" /><path clip-path="url(#clip780)" d="M 0 0 M175.024 1399.74 L179.908 1399.74 L179.908 1405.62 L175.024 1405.62 L175.024 1399.74 Z" fill="#000000" fill-rule="evenodd" fill-opacity="1" /><path clip-path="url(#clip780)" d="M 0 0 M194.977 1374.14 Q191.366 1374.14 189.538 1377.7 Q187.732 1381.24 187.732 1388.37 Q187.732 1395.48 189.538 1399.04 Q191.366 1402.58 194.977 1402.58 Q198.612 1402.58 200.417 1399.04 Q202.246 1395.48 202.246 1388.37 Q202.246 1381.24 200.417 1377.7 Q198.612 1374.14 194.977 1374.14 M194.977 1370.43 Q200.787 1370.43 203.843 1375.04 Q206.922 1379.62 206.922 1388.37 Q206.922 1397.1 203.843 1401.7 Q200.787 1406.29 194.977 1406.29 Q189.167 1406.29 186.088 1401.7 Q183.033 1397.1 183.033 1388.37 Q183.033 1379.62 186.088 1375.04 Q189.167 1370.43 194.977 1370.43 Z" fill="#000000" fill-rule="evenodd" fill-opacity="1" /><path clip-path="url(#clip780)" d="M 0 0 M115.487 1047.01 L145.163 1047.01 L145.163 1050.95 L115.487 1050.95 L115.487 1047.01 Z" fill="#000000" fill-rule="evenodd" fill-opacity="1" /><path clip-path="url(#clip780)" d="M 0 0 M151.042 1059.91 L158.681 1059.91 L158.681 1033.54 L150.371 1035.21 L150.371 1030.95 L158.635 1029.28 L163.311 1029.28 L163.311 1059.91 L170.95 1059.91 L170.95 1063.84 L151.042 1063.84 L151.042 1059.91 Z" fill="#000000" fill-rule="evenodd" fill-opacity="1" /><path clip-path="url(#clip780)" d="M 0 0 M176.019 1057.96 L180.903 1057.96 L180.903 1063.84 L176.019 1063.84 L176.019 1057.96 Z" fill="#000000" fill-rule="evenodd" fill-opacity="1" /><path clip-path="url(#clip780)" d="M 0 0 M186.019 1029.28 L204.375 1029.28 L204.375 1033.22 L190.301 1033.22 L190.301 1041.69 Q191.32 1041.34 192.338 1041.18 Q193.357 1040.99 194.375 1040.99 Q200.162 1040.99 203.542 1044.17 Q206.922 1047.34 206.922 1052.75 Q206.922 1058.33 203.449 1061.43 Q199.977 1064.51 193.658 1064.51 Q191.482 1064.51 189.213 1064.14 Q186.968 1063.77 184.561 1063.03 L184.561 1058.33 Q186.644 1059.47 188.866 1060.02 Q191.088 1060.58 193.565 1060.58 Q197.57 1060.58 199.908 1058.47 Q202.246 1056.37 202.246 1052.75 Q202.246 1049.14 199.908 1047.04 Q197.57 1044.93 193.565 1044.93 Q191.69 1044.93 189.815 1045.35 Q187.963 1045.76 186.019 1046.64 L186.019 1029.28 Z" fill="#000000" fill-rule="evenodd" fill-opacity="1" /><path clip-path="url(#clip780)" d="M 0 0 M114.492 705.239 L144.167 705.239 L144.167 709.174 L114.492 709.174 L114.492 705.239 Z" fill="#000000" fill-rule="evenodd" fill-opacity="1" /><path clip-path="url(#clip780)" d="M 0 0 M150.047 718.132 L157.686 718.132 L157.686 691.767 L149.376 693.433 L149.376 689.174 L157.64 687.507 L162.315 687.507 L162.315 718.132 L169.954 718.132 L169.954 722.067 L150.047 722.067 L150.047 718.132 Z" fill="#000000" fill-rule="evenodd" fill-opacity="1" /><path clip-path="url(#clip780)" d="M 0 0 M175.024 716.188 L179.908 716.188 L179.908 722.067 L175.024 722.067 L175.024 716.188 Z" fill="#000000" fill-rule="evenodd" fill-opacity="1" /><path clip-path="url(#clip780)" d="M 0 0 M194.977 690.586 Q191.366 690.586 189.538 694.151 Q187.732 697.692 187.732 704.822 Q187.732 711.928 189.538 715.493 Q191.366 719.035 194.977 719.035 Q198.612 719.035 200.417 715.493 Q202.246 711.928 202.246 704.822 Q202.246 697.692 200.417 694.151 Q198.612 690.586 194.977 690.586 M194.977 686.882 Q200.787 686.882 203.843 691.489 Q206.922 696.072 206.922 704.822 Q206.922 713.549 203.843 718.155 Q200.787 722.739 194.977 722.739 Q189.167 722.739 186.088 718.155 Q183.033 713.549 183.033 704.822 Q183.033 696.072 186.088 691.489 Q189.167 686.882 194.977 686.882 Z" fill="#000000" fill-rule="evenodd" fill-opacity="1" /><path clip-path="url(#clip780)" d="M 0 0 M114.26 363.464 L143.936 363.464 L143.936 367.399 L114.26 367.399 L114.26 363.464 Z" fill="#000000" fill-rule="evenodd" fill-opacity="1" /><path clip-path="url(#clip780)" d="M 0 0 M159.005 348.811 Q155.394 348.811 153.566 352.376 Q151.76 355.918 151.76 363.047 Q151.76 370.154 153.566 373.719 Q155.394 377.26 159.005 377.26 Q162.64 377.26 164.445 373.719 Q166.274 370.154 166.274 363.047 Q166.274 355.918 164.445 352.376 Q162.64 348.811 159.005 348.811 M159.005 345.108 Q164.815 345.108 167.871 349.714 Q170.95 354.297 170.95 363.047 Q170.95 371.774 167.871 376.381 Q164.815 380.964 159.005 380.964 Q153.195 380.964 150.116 376.381 Q147.061 371.774 147.061 363.047 Q147.061 354.297 150.116 349.714 Q153.195 345.108 159.005 345.108 Z" fill="#000000" fill-rule="evenodd" fill-opacity="1" /><path clip-path="url(#clip780)" d="M 0 0 M176.019 374.413 L180.903 374.413 L180.903 380.293 L176.019 380.293 L176.019 374.413 Z" fill="#000000" fill-rule="evenodd" fill-opacity="1" /><path clip-path="url(#clip780)" d="M 0 0 M186.019 345.733 L204.375 345.733 L204.375 349.668 L190.301 349.668 L190.301 358.14 Q191.32 357.793 192.338 357.631 Q193.357 357.445 194.375 357.445 Q200.162 357.445 203.542 360.617 Q206.922 363.788 206.922 369.205 Q206.922 374.783 203.449 377.885 Q199.977 380.964 193.658 380.964 Q191.482 380.964 189.213 380.593 Q186.968 380.223 184.561 379.482 L184.561 374.783 Q186.644 375.918 188.866 376.473 Q191.088 377.029 193.565 377.029 Q197.57 377.029 199.908 374.922 Q202.246 372.816 202.246 369.205 Q202.246 365.594 199.908 363.487 Q197.57 361.381 193.565 361.381 Q191.69 361.381 189.815 361.797 Q187.963 362.214 186.019 363.094 L186.019 345.733 Z" fill="#000000" fill-rule="evenodd" fill-opacity="1" /><path clip-path="url(#clip780)" d="M 0 0 M44.7161 841.885 L47.5806 841.885 L47.5806 868.812 Q53.6281 868.43 56.8109 865.183 Q59.9619 861.905 59.9619 856.08 Q59.9619 852.706 59.1344 849.555 Q58.3069 846.372 56.6518 843.253 L62.1899 843.253 Q63.5267 846.404 64.227 849.714 Q64.9272 853.025 64.9272 856.43 Q64.9272 864.96 59.9619 869.957 Q54.9967 874.923 46.5303 874.923 Q37.7774 874.923 32.6531 870.212 Q27.4968 865.47 27.4968 857.449 Q27.4968 850.256 32.1438 846.086 Q36.7589 841.885 44.7161 841.885 M42.9973 847.741 Q38.1912 847.805 35.3266 850.447 Q32.4621 853.056 32.4621 857.385 Q32.4621 862.287 35.2312 865.247 Q38.0002 868.175 43.0292 868.621 L42.9973 847.741 Z" fill="#000000" fill-rule="evenodd" fill-opacity="1" /><path clip-path="url(#clip780)" d="M 0 0 M42.4881 806.109 L64.0042 806.109 L64.0042 811.966 L42.679 811.966 Q37.6183 811.966 35.1038 813.939 Q32.5894 815.913 32.5894 819.859 Q32.5894 824.602 35.6131 827.339 Q38.6368 830.076 43.8567 830.076 L64.0042 830.076 L64.0042 835.965 L28.3562 835.965 L28.3562 830.076 L33.8944 830.076 Q30.6797 827.976 29.0883 825.143 Q27.4968 822.278 27.4968 818.554 Q27.4968 812.411 31.3163 809.26 Q35.1038 806.109 42.4881 806.109 Z" fill="#000000" fill-rule="evenodd" fill-opacity="1" /><path clip-path="url(#clip780)" d="M 0 0 M44.7161 769.475 L47.5806 769.475 L47.5806 796.402 Q53.6281 796.02 56.8109 792.773 Q59.9619 789.495 59.9619 783.67 Q59.9619 780.296 59.1344 777.145 Q58.3069 773.963 56.6518 770.843 L62.1899 770.843 Q63.5267 773.994 64.227 777.305 Q64.9272 780.615 64.9272 784.02 Q64.9272 792.55 59.9619 797.547 Q54.9967 802.513 46.5303 802.513 Q37.7774 802.513 32.6531 797.802 Q27.4968 793.06 27.4968 785.039 Q27.4968 777.846 32.1438 773.676 Q36.7589 769.475 44.7161 769.475 M42.9973 775.331 Q38.1912 775.395 35.3266 778.037 Q32.4621 780.647 32.4621 784.975 Q32.4621 789.877 35.2312 792.837 Q38.0002 795.765 43.0292 796.211 L42.9973 775.331 Z" fill="#000000" fill-rule="evenodd" fill-opacity="1" /><path clip-path="url(#clip780)" d="M 0 0 M33.8307 742.675 Q33.2578 743.662 33.0032 744.839 Q32.7167 745.985 32.7167 747.386 Q32.7167 752.351 35.9632 755.025 Q39.1779 757.666 45.2253 757.666 L64.0042 757.666 L64.0042 763.555 L28.3562 763.555 L28.3562 757.666 L33.8944 757.666 Q30.6479 755.82 29.0883 752.86 Q27.4968 749.9 27.4968 745.667 Q27.4968 745.062 27.5923 744.33 Q27.656 743.598 27.8151 742.707 L33.8307 742.675 Z" fill="#000000" fill-rule="evenodd" fill-opacity="1" /><path clip-path="url(#clip780)" d="M 0 0 M45.7664 714.22 Q39.4007 714.22 35.8996 716.862 Q32.3984 719.472 32.3984 724.215 Q32.3984 728.925 35.8996 731.567 Q39.4007 734.177 45.7664 734.177 Q52.1003 734.177 55.6014 731.567 Q59.1026 728.925 59.1026 724.215 Q59.1026 719.472 55.6014 716.862 Q52.1003 714.22 45.7664 714.22 M59.58 708.364 Q68.683 708.364 73.1071 712.406 Q77.5631 716.448 77.5631 724.787 Q77.5631 727.875 77.0857 730.612 Q76.6401 733.349 75.6852 735.927 L69.9879 735.927 Q71.3884 733.349 72.0568 730.835 Q72.7252 728.32 72.7252 725.71 Q72.7252 719.95 69.7015 717.085 Q66.7096 714.22 60.6303 714.22 L57.7339 714.22 Q60.885 716.035 62.4446 718.867 Q64.0042 721.7 64.0042 725.647 Q64.0042 732.204 59.0071 736.214 Q54.01 740.224 45.7664 740.224 Q37.491 740.224 32.4939 736.214 Q27.4968 732.204 27.4968 725.647 Q27.4968 721.7 29.0564 718.867 Q30.616 716.035 33.7671 714.22 L28.3562 714.22 L28.3562 708.364 L59.58 708.364 Z" fill="#000000" fill-rule="evenodd" fill-opacity="1" /><path clip-path="url(#clip780)" d="M 0 0 M67.3143 687.389 Q73.68 689.872 75.6216 692.227 Q77.5631 694.582 77.5631 698.529 L77.5631 703.208 L72.6615 703.208 L72.6615 699.77 Q72.6615 697.351 71.5157 696.014 Q70.3699 694.678 66.1048 693.054 L63.4312 692.004 L28.3562 706.422 L28.3562 700.216 L56.238 689.076 L28.3562 677.936 L28.3562 671.729 L67.3143 687.389 Z" fill="#000000" fill-rule="evenodd" fill-opacity="1" /><path clip-path="url(#clip780)" d="M 0 0 M1098.98 46.5287 L1120.81 46.5287 L1120.81 53.1722 L1098.98 53.1722 L1098.98 46.5287 Z" fill="#000000" fill-rule="evenodd" fill-opacity="1" /><path clip-path="url(#clip780)" d="M 0 0 M1158.49 34.0924 L1158.49 9.54393 L1165.94 9.54393 L1165.94 72.576 L1158.49 72.576 L1158.49 65.7705 Q1156.14 69.8214 1152.53 71.8063 Q1148.97 73.7508 1143.94 73.7508 Q1135.72 73.7508 1130.54 67.1883 Q1125.39 60.6258 1125.39 49.9314 Q1125.39 39.2371 1130.54 32.6746 Q1135.72 26.1121 1143.94 26.1121 Q1148.97 26.1121 1152.53 28.0971 Q1156.14 30.0415 1158.49 34.0924 M1133.09 49.9314 Q1133.09 58.1548 1136.45 62.8538 Q1139.85 67.5124 1145.77 67.5124 Q1151.68 67.5124 1155.08 62.8538 Q1158.49 58.1548 1158.49 49.9314 Q1158.49 41.7081 1155.08 37.0496 Q1151.68 32.3505 1145.77 32.3505 Q1139.85 32.3505 1136.45 37.0496 Q1133.09 41.7081 1133.09 49.9314 Z" fill="#000000" fill-rule="evenodd" fill-opacity="1" /><path clip-path="url(#clip780)" d="M 0 0 M1173.76 9.54393 L1181.21 9.54393 L1181.21 72.576 L1173.76 72.576 L1173.76 9.54393 Z" fill="#000000" fill-rule="evenodd" fill-opacity="1" /><path clip-path="url(#clip780)" d="M 0 0 M1206.61 32.4315 Q1200.62 32.4315 1197.13 37.1306 Q1193.65 41.7891 1193.65 49.9314 Q1193.65 58.0738 1197.09 62.7728 Q1200.58 67.4314 1206.61 67.4314 Q1212.57 67.4314 1216.05 62.7323 Q1219.53 58.0333 1219.53 49.9314 Q1219.53 41.8701 1216.05 37.1711 Q1212.57 32.4315 1206.61 32.4315 M1206.61 26.1121 Q1216.33 26.1121 1221.88 32.4315 Q1227.43 38.7509 1227.43 49.9314 Q1227.43 61.0714 1221.88 67.4314 Q1216.33 73.7508 1206.61 73.7508 Q1196.85 73.7508 1191.3 67.4314 Q1185.79 61.0714 1185.79 49.9314 Q1185.79 38.7509 1191.3 32.4315 Q1196.85 26.1121 1206.61 26.1121 Z" fill="#000000" fill-rule="evenodd" fill-opacity="1" /><path clip-path="url(#clip780)" d="M 0 0 M1265.11 49.3643 Q1265.11 41.2625 1261.75 36.8065 Q1258.42 32.3505 1252.39 32.3505 Q1246.39 32.3505 1243.03 36.8065 Q1239.71 41.2625 1239.71 49.3643 Q1239.71 57.4256 1243.03 61.8816 Q1246.39 66.3376 1252.39 66.3376 Q1258.42 66.3376 1261.75 61.8816 Q1265.11 57.4256 1265.11 49.3643 M1272.56 66.9452 Q1272.56 78.5308 1267.42 84.1616 Q1262.27 89.8329 1251.66 89.8329 Q1247.73 89.8329 1244.25 89.2252 Q1240.76 88.6581 1237.48 87.4428 L1237.48 80.1917 Q1240.76 81.9741 1243.96 82.8248 Q1247.16 83.6755 1250.48 83.6755 Q1257.82 83.6755 1261.46 79.8271 Q1265.11 76.0193 1265.11 68.282 L1265.11 64.5957 Q1262.8 68.6061 1259.19 70.5911 Q1255.59 72.576 1250.56 72.576 Q1242.22 72.576 1237.12 66.2161 Q1232.01 59.8562 1232.01 49.3643 Q1232.01 38.832 1237.12 32.472 Q1242.22 26.1121 1250.56 26.1121 Q1255.59 26.1121 1259.19 28.0971 Q1262.8 30.082 1265.11 34.0924 L1265.11 27.2059 L1272.56 27.2059 L1272.56 66.9452 Z" fill="#000000" fill-rule="evenodd" fill-opacity="1" /><path clip-path="url(#clip780)" d="M 0 0 M1298.28 9.62495 Q1292.86 18.942 1290.22 28.0566 Q1287.59 37.1711 1287.59 46.5287 Q1287.59 55.8863 1290.22 65.0818 Q1292.9 74.2369 1298.28 83.5134 L1291.8 83.5134 Q1285.73 73.9938 1282.69 64.7983 Q1279.69 55.6027 1279.69 46.5287 Q1279.69 37.4952 1282.69 28.3401 Q1285.69 19.1851 1291.8 9.62495 L1298.28 9.62495 Z" fill="#000000" fill-rule="evenodd" fill-opacity="1" /><path clip-path="url(#clip780)" d="M 0 0 M1302.94 12.096 L1350.46 12.096 L1350.46 18.3344 L1312.22 65.6895 L1351.39 65.6895 L1351.39 72.576 L1302.01 72.576 L1302.01 66.3376 L1340.25 18.9825 L1302.94 18.9825 L1302.94 12.096 Z" fill="#000000" fill-rule="evenodd" fill-opacity="1" /><path clip-path="url(#clip780)" d="M 0 0 M1358.04 9.62495 L1364.52 9.62495 Q1370.59 19.1851 1373.59 28.3401 Q1376.63 37.4952 1376.63 46.5287 Q1376.63 55.6027 1373.59 64.7983 Q1370.59 73.9938 1364.52 83.5134 L1358.04 83.5134 Q1363.42 74.2369 1366.06 65.0818 Q1368.73 55.8863 1368.73 46.5287 Q1368.73 37.1711 1366.06 28.0566 Q1363.42 18.942 1358.04 9.62495 Z" fill="#000000" fill-rule="evenodd" fill-opacity="1" /><path clip-path="url(#clip780)" d="M 0 0 M1397.69 12.096 L1404.58 12.096 L1383.52 80.2727 L1376.63 80.2727 L1397.69 12.096 Z" fill="#000000" fill-rule="evenodd" fill-opacity="1" /><path clip-path="url(#clip780)" d="M 0 0 M1442.25 34.0924 L1442.25 9.54393 L1449.71 9.54393 L1449.71 72.576 L1442.25 72.576 L1442.25 65.7705 Q1439.9 69.8214 1436.3 71.8063 Q1432.73 73.7508 1427.71 73.7508 Q1419.49 73.7508 1414.3 67.1883 Q1409.16 60.6258 1409.16 49.9314 Q1409.16 39.2371 1414.3 32.6746 Q1419.49 26.1121 1427.71 26.1121 Q1432.73 26.1121 1436.3 28.0971 Q1439.9 30.0415 1442.25 34.0924 M1416.85 49.9314 Q1416.85 58.1548 1420.22 62.8538 Q1423.62 67.5124 1429.53 67.5124 Q1435.45 67.5124 1438.85 62.8538 Q1442.25 58.1548 1442.25 49.9314 Q1442.25 41.7081 1438.85 37.0496 Q1435.45 32.3505 1429.53 32.3505 Q1423.62 32.3505 1420.22 37.0496 Q1416.85 41.7081 1416.85 49.9314 Z" fill="#000000" fill-rule="evenodd" fill-opacity="1" /><path clip-path="url(#clip780)" d="M 0 0 M1464.98 69.7809 L1464.98 89.8329 L1457.48 89.8329 L1457.48 27.4894 Q1457.48 9.01731 1474.74 9.01731 Q1492.32 9.01731 1492.32 24.6133 Q1492.32 35.7128 1485.36 39.7637 Q1496.7 43.4095 1496.7 54.2254 Q1496.7 73.4267 1477.17 73.4267 Q1468.58 73.4267 1464.98 69.7809 M1464.98 60.0587 Q1469.48 67.0668 1477.46 67.0668 Q1489.12 67.0668 1489.12 54.3469 Q1489.12 42.9234 1470.33 43.8146 L1470.33 36.928 Q1485.03 36.928 1485.03 23.9651 Q1485.03 15.0937 1475.55 15.0937 Q1464.98 15.0937 1464.98 27.7325 L1464.98 60.0587 Z" fill="#000000" fill-rule="evenodd" fill-opacity="1" /><circle clip-path="url(#clip782)" cx="302.634" cy="160.256" r="14" fill="#009af9" fill-rule="evenodd" fill-opacity="1" stroke="#000000" stroke-opacity="1" stroke-width="3.2"/>
<circle clip-path="url(#clip782)" cx="413.212" cy="234.231" r="14" fill="#009af9" fill-rule="evenodd" fill-opacity="1" stroke="#000000" stroke-opacity="1" stroke-width="3.2"/>
<circle clip-path="url(#clip782)" cx="523.791" cy="313.953" r="14" fill="#009af9" fill-rule="evenodd" fill-opacity="1" stroke="#000000" stroke-opacity="1" stroke-width="3.2"/>
<circle clip-path="url(#clip782)" cx="634.369" cy="402.158" r="14" fill="#009af9" fill-rule="evenodd" fill-opacity="1" stroke="#000000" stroke-opacity="1" stroke-width="3.2"/>
<circle clip-path="url(#clip782)" cx="744.947" cy="502.765" r="14" fill="#009af9" fill-rule="evenodd" fill-opacity="1" stroke="#000000" stroke-opacity="1" stroke-width="3.2"/>
<circle clip-path="url(#clip782)" cx="855.526" cy="622.348" r="14" fill="#009af9" fill-rule="evenodd" fill-opacity="1" stroke="#000000" stroke-opacity="1" stroke-width="3.2"/>
<circle clip-path="url(#clip782)" cx="966.104" cy="774.724" r="14" fill="#009af9" fill-rule="evenodd" fill-opacity="1" stroke="#000000" stroke-opacity="1" stroke-width="3.2"/>
<circle clip-path="url(#clip782)" cx="1076.68" cy="1058.67" r="14" fill="#009af9" fill-rule="evenodd" fill-opacity="1" stroke="#000000" stroke-opacity="1" stroke-width="3.2"/>
<circle clip-path="url(#clip782)" cx="1187.26" cy="1214.49" r="14" fill="#009af9" fill-rule="evenodd" fill-opacity="1" stroke="#000000" stroke-opacity="1" stroke-width="3.2"/>
<circle clip-path="url(#clip782)" cx="1297.84" cy="1286.59" r="14" fill="#009af9" fill-rule="evenodd" fill-opacity="1" stroke="#000000" stroke-opacity="1" stroke-width="3.2"/>
<circle clip-path="url(#clip782)" cx="1408.42" cy="1326.19" r="14" fill="#009af9" fill-rule="evenodd" fill-opacity="1" stroke="#000000" stroke-opacity="1" stroke-width="3.2"/>
<circle clip-path="url(#clip782)" cx="1519" cy="1349.43" r="14" fill="#009af9" fill-rule="evenodd" fill-opacity="1" stroke="#000000" stroke-opacity="1" stroke-width="3.2"/>
<circle clip-path="url(#clip782)" cx="1629.57" cy="1363.58" r="14" fill="#009af9" fill-rule="evenodd" fill-opacity="1" stroke="#000000" stroke-opacity="1" stroke-width="3.2"/>
<circle clip-path="url(#clip782)" cx="1740.15" cy="1372.39" r="14" fill="#009af9" fill-rule="evenodd" fill-opacity="1" stroke="#000000" stroke-opacity="1" stroke-width="3.2"/>
<circle clip-path="url(#clip782)" cx="1850.73" cy="1377.98" r="14" fill="#009af9" fill-rule="evenodd" fill-opacity="1" stroke="#000000" stroke-opacity="1" stroke-width="3.2"/>
<circle clip-path="url(#clip782)" cx="1961.31" cy="1381.57" r="14" fill="#009af9" fill-rule="evenodd" fill-opacity="1" stroke="#000000" stroke-opacity="1" stroke-width="3.2"/>
<circle clip-path="url(#clip782)" cx="2071.89" cy="1383.89" r="14" fill="#009af9" fill-rule="evenodd" fill-opacity="1" stroke="#000000" stroke-opacity="1" stroke-width="3.2"/>
<circle clip-path="url(#clip782)" cx="2182.47" cy="1385.4" r="14" fill="#009af9" fill-rule="evenodd" fill-opacity="1" stroke="#000000" stroke-opacity="1" stroke-width="3.2"/>
<circle clip-path="url(#clip782)" cx="2293.04" cy="1386.4" r="14" fill="#009af9" fill-rule="evenodd" fill-opacity="1" stroke="#000000" stroke-opacity="1" stroke-width="3.2"/>
<circle clip-path="url(#clip782)" cx="302.634" cy="160.256" r="14" fill="#e26f46" fill-rule="evenodd" fill-opacity="1" stroke="#000000" stroke-opacity="1" stroke-width="3.2"/>
<circle clip-path="url(#clip782)" cx="413.212" cy="234.231" r="14" fill="#e26f46" fill-rule="evenodd" fill-opacity="1" stroke="#000000" stroke-opacity="1" stroke-width="3.2"/>
<circle clip-path="url(#clip782)" cx="523.791" cy="313.953" r="14" fill="#e26f46" fill-rule="evenodd" fill-opacity="1" stroke="#000000" stroke-opacity="1" stroke-width="3.2"/>
<circle clip-path="url(#clip782)" cx="634.369" cy="402.161" r="14" fill="#e26f46" fill-rule="evenodd" fill-opacity="1" stroke="#000000" stroke-opacity="1" stroke-width="3.2"/>
<circle clip-path="url(#clip782)" cx="744.947" cy="502.798" r="14" fill="#e26f46" fill-rule="evenodd" fill-opacity="1" stroke="#000000" stroke-opacity="1" stroke-width="3.2"/>
<circle clip-path="url(#clip782)" cx="855.526" cy="622.628" r="14" fill="#e26f46" fill-rule="evenodd" fill-opacity="1" stroke="#000000" stroke-opacity="1" stroke-width="3.2"/>
<circle clip-path="url(#clip782)" cx="966.104" cy="777.28" r="14" fill="#e26f46" fill-rule="evenodd" fill-opacity="1" stroke="#000000" stroke-opacity="1" stroke-width="3.2"/>
<circle clip-path="url(#clip782)" cx="1076.68" cy="1055.6" r="14" fill="#e26f46" fill-rule="evenodd" fill-opacity="1" stroke="#000000" stroke-opacity="1" stroke-width="3.2"/>
<circle clip-path="url(#clip782)" cx="1187.26" cy="1214.42" r="14" fill="#e26f46" fill-rule="evenodd" fill-opacity="1" stroke="#000000" stroke-opacity="1" stroke-width="3.2"/>
<circle clip-path="url(#clip782)" cx="1297.84" cy="1286.58" r="14" fill="#e26f46" fill-rule="evenodd" fill-opacity="1" stroke="#000000" stroke-opacity="1" stroke-width="3.2"/>
<circle clip-path="url(#clip782)" cx="1408.42" cy="1326.19" r="14" fill="#e26f46" fill-rule="evenodd" fill-opacity="1" stroke="#000000" stroke-opacity="1" stroke-width="3.2"/>
<circle clip-path="url(#clip782)" cx="1519" cy="1349.43" r="14" fill="#e26f46" fill-rule="evenodd" fill-opacity="1" stroke="#000000" stroke-opacity="1" stroke-width="3.2"/>
<circle clip-path="url(#clip782)" cx="1629.57" cy="1363.58" r="14" fill="#e26f46" fill-rule="evenodd" fill-opacity="1" stroke="#000000" stroke-opacity="1" stroke-width="3.2"/>
<circle clip-path="url(#clip782)" cx="1740.15" cy="1372.39" r="14" fill="#e26f46" fill-rule="evenodd" fill-opacity="1" stroke="#000000" stroke-opacity="1" stroke-width="3.2"/>
<circle clip-path="url(#clip782)" cx="1850.73" cy="1377.98" r="14" fill="#e26f46" fill-rule="evenodd" fill-opacity="1" stroke="#000000" stroke-opacity="1" stroke-width="3.2"/>
<circle clip-path="url(#clip782)" cx="1961.31" cy="1381.57" r="14" fill="#e26f46" fill-rule="evenodd" fill-opacity="1" stroke="#000000" stroke-opacity="1" stroke-width="3.2"/>
<circle clip-path="url(#clip782)" cx="2071.89" cy="1383.89" r="14" fill="#e26f46" fill-rule="evenodd" fill-opacity="1" stroke="#000000" stroke-opacity="1" stroke-width="3.2"/>
<circle clip-path="url(#clip782)" cx="2182.47" cy="1385.4" r="14" fill="#e26f46" fill-rule="evenodd" fill-opacity="1" stroke="#000000" stroke-opacity="1" stroke-width="3.2"/>
<circle clip-path="url(#clip782)" cx="2293.04" cy="1386.4" r="14" fill="#e26f46" fill-rule="evenodd" fill-opacity="1" stroke="#000000" stroke-opacity="1" stroke-width="3.2"/>
<circle clip-path="url(#clip782)" cx="302.634" cy="160.256" r="14" fill="#3da44d" fill-rule="evenodd" fill-opacity="1" stroke="#000000" stroke-opacity="1" stroke-width="3.2"/>
<circle clip-path="url(#clip782)" cx="413.212" cy="234.231" r="14" fill="#3da44d" fill-rule="evenodd" fill-opacity="1" stroke="#000000" stroke-opacity="1" stroke-width="3.2"/>
<circle clip-path="url(#clip782)" cx="523.791" cy="313.953" r="14" fill="#3da44d" fill-rule="evenodd" fill-opacity="1" stroke="#000000" stroke-opacity="1" stroke-width="3.2"/>
<circle clip-path="url(#clip782)" cx="634.369" cy="402.161" r="14" fill="#3da44d" fill-rule="evenodd" fill-opacity="1" stroke="#000000" stroke-opacity="1" stroke-width="3.2"/>
<circle clip-path="url(#clip782)" cx="744.947" cy="502.798" r="14" fill="#3da44d" fill-rule="evenodd" fill-opacity="1" stroke="#000000" stroke-opacity="1" stroke-width="3.2"/>
<circle clip-path="url(#clip782)" cx="855.526" cy="622.629" r="14" fill="#3da44d" fill-rule="evenodd" fill-opacity="1" stroke="#000000" stroke-opacity="1" stroke-width="3.2"/>
<circle clip-path="url(#clip782)" cx="966.104" cy="777.298" r="14" fill="#3da44d" fill-rule="evenodd" fill-opacity="1" stroke="#000000" stroke-opacity="1" stroke-width="3.2"/>
<circle clip-path="url(#clip782)" cx="1076.68" cy="1055.48" r="14" fill="#3da44d" fill-rule="evenodd" fill-opacity="1" stroke="#000000" stroke-opacity="1" stroke-width="3.2"/>
<circle clip-path="url(#clip782)" cx="1187.26" cy="1214.42" r="14" fill="#3da44d" fill-rule="evenodd" fill-opacity="1" stroke="#000000" stroke-opacity="1" stroke-width="3.2"/>
<circle clip-path="url(#clip782)" cx="1297.84" cy="1286.58" r="14" fill="#3da44d" fill-rule="evenodd" fill-opacity="1" stroke="#000000" stroke-opacity="1" stroke-width="3.2"/>
<circle clip-path="url(#clip782)" cx="1408.42" cy="1326.19" r="14" fill="#3da44d" fill-rule="evenodd" fill-opacity="1" stroke="#000000" stroke-opacity="1" stroke-width="3.2"/>
<circle clip-path="url(#clip782)" cx="1519" cy="1349.43" r="14" fill="#3da44d" fill-rule="evenodd" fill-opacity="1" stroke="#000000" stroke-opacity="1" stroke-width="3.2"/>
<circle clip-path="url(#clip782)" cx="1629.57" cy="1363.58" r="14" fill="#3da44d" fill-rule="evenodd" fill-opacity="1" stroke="#000000" stroke-opacity="1" stroke-width="3.2"/>
<circle clip-path="url(#clip782)" cx="1740.15" cy="1372.39" r="14" fill="#3da44d" fill-rule="evenodd" fill-opacity="1" stroke="#000000" stroke-opacity="1" stroke-width="3.2"/>
<circle clip-path="url(#clip782)" cx="1850.73" cy="1377.98" r="14" fill="#3da44d" fill-rule="evenodd" fill-opacity="1" stroke="#000000" stroke-opacity="1" stroke-width="3.2"/>
<circle clip-path="url(#clip782)" cx="1961.31" cy="1381.57" r="14" fill="#3da44d" fill-rule="evenodd" fill-opacity="1" stroke="#000000" stroke-opacity="1" stroke-width="3.2"/>
<circle clip-path="url(#clip782)" cx="2071.89" cy="1383.89" r="14" fill="#3da44d" fill-rule="evenodd" fill-opacity="1" stroke="#000000" stroke-opacity="1" stroke-width="3.2"/>
<circle clip-path="url(#clip782)" cx="2182.47" cy="1385.4" r="14" fill="#3da44d" fill-rule="evenodd" fill-opacity="1" stroke="#000000" stroke-opacity="1" stroke-width="3.2"/>
<circle clip-path="url(#clip782)" cx="2293.04" cy="1386.4" r="14" fill="#3da44d" fill-rule="evenodd" fill-opacity="1" stroke="#000000" stroke-opacity="1" stroke-width="3.2"/>
<polyline clip-path="url(#clip782)" style="stroke:#c271d2; stroke-width:8; stroke-opacity:1; fill:none" points="
  302.634,160.256 324.75,174.7 346.865,189.303 368.981,204.081 391.097,219.051 413.212,234.231 435.328,249.639 457.444,265.294 479.559,281.218 501.675,297.43 
  523.791,313.953 545.906,330.813 568.022,348.034 590.138,365.646 612.253,383.677 634.369,402.161 656.485,421.134 678.6,440.637 700.716,460.714 722.832,481.416 
  744.947,502.798 767.063,524.926 789.179,547.876 811.294,571.736 833.41,596.611 855.526,622.629 877.641,649.946 899.757,678.761 921.873,709.332 943.988,742.012 
  966.104,777.298 988.22,815.957 1010.34,859.306 1032.45,910.127 1054.57,979.928 1076.68,1055.48 1098.8,1102.05 1120.91,1138.32 1143.03,1168.04 1165.14,1193.05 
  1187.26,1214.42 1209.38,1232.89 1231.49,1248.99 1253.61,1263.11 1275.72,1275.56 1297.84,1286.58 1319.95,1296.38 1342.07,1305.11 1364.19,1312.92 1386.3,1319.91 
  1408.42,1326.19 1430.53,1331.84 1452.65,1336.93 1474.76,1341.52 1496.88,1345.68 1519,1349.43 1541.11,1352.83 1563.23,1355.92 1585.34,1358.72 1607.46,1361.26 
  1629.57,1363.58 1651.69,1365.68 1673.81,1367.6 1695.92,1369.35 1718.04,1370.94 1740.15,1372.39 1762.27,1373.72 1784.38,1374.93 1806.5,1376.04 1828.61,1377.05 
  1850.73,1377.98 1872.85,1378.83 1894.96,1379.61 1917.08,1380.32 1939.19,1380.97 1961.31,1381.57 1983.42,1382.12 2005.54,1382.62 2027.66,1383.08 2049.77,1383.5 
  2071.89,1383.89 2094,1384.25 2116.12,1384.57 2138.23,1384.87 2160.35,1385.15 2182.47,1385.4 2204.58,1385.64 2226.7,1385.85 2248.81,1386.05 2270.93,1386.23 
  2293.04,1386.4 
  "/>
<path clip-path="url(#clip780)" d="
M1689.05 469.196 L2282.43 469.196 L2282.43 166.796 L1689.05 166.796  Z
  " fill="#ffffff" fill-rule="evenodd" fill-opacity="1"/>
<polyline clip-path="url(#clip780)" style="stroke:#000000; stroke-width:4; stroke-opacity:1; fill:none" points="
  1689.05,469.196 2282.43,469.196 2282.43,166.796 1689.05,166.796 1689.05,469.196 
  "/>
<circle clip-path="url(#clip780)" cx="1782.82" cy="227.276" r="23" fill="#009af9" fill-rule="evenodd" fill-opacity="1" stroke="#000000" stroke-opacity="1" stroke-width="5.12"/>
<path clip-path="url(#clip780)" d="M 0 0 M1892.42 214.602 L1886.08 231.801 L1898.79 231.801 L1892.42 214.602 M1889.78 209.996 L1895.08 209.996 L1908.25 244.556 L1903.39 244.556 L1900.24 235.69 L1884.67 235.69 L1881.52 244.556 L1876.59 244.556 L1889.78 209.996 Z" fill="#000000" fill-rule="evenodd" fill-opacity="1" /><path clip-path="url(#clip780)" d="M 0 0 M1917.58 213.838 L1917.58 240.713 L1923.23 240.713 Q1930.38 240.713 1933.69 237.472 Q1937.03 234.232 1937.03 227.241 Q1937.03 220.297 1933.69 217.079 Q1930.38 213.838 1923.23 213.838 L1917.58 213.838 M1912.91 209.996 L1922.51 209.996 Q1932.56 209.996 1937.26 214.186 Q1941.96 218.352 1941.96 227.241 Q1941.96 236.176 1937.23 240.366 Q1932.51 244.556 1922.51 244.556 L1912.91 244.556 L1912.91 209.996 Z" fill="#000000" fill-rule="evenodd" fill-opacity="1" /><path clip-path="url(#clip780)" d="M 0 0 M1954.69 244.556 L1941.49 209.996 L1946.38 209.996 L1957.33 239.093 L1968.3 209.996 L1973.16 209.996 L1959.99 244.556 L1954.69 244.556 Z" fill="#000000" fill-rule="evenodd" fill-opacity="1" /><path clip-path="url(#clip780)" d="M 0 0 M1977.28 209.996 L1981.98 209.996 L1981.98 230.991 Q1981.98 236.547 1983.99 239 Q1986.01 241.431 1990.52 241.431 Q1995.01 241.431 1997.03 239 Q1999.04 236.547 1999.04 230.991 L1999.04 209.996 L2003.74 209.996 L2003.74 231.57 Q2003.74 238.329 2000.38 241.778 Q1997.05 245.227 1990.52 245.227 Q1983.97 245.227 1980.61 241.778 Q1977.28 238.329 1977.28 231.57 L1977.28 209.996 Z" fill="#000000" fill-rule="evenodd" fill-opacity="1" /><path clip-path="url(#clip780)" d="M 0 0 M2008.39 209.996 L2015.36 209.996 L2024.18 233.514 L2033.04 209.996 L2040.01 209.996 L2040.01 244.556 L2035.45 244.556 L2035.45 214.209 L2026.54 237.912 L2021.84 237.912 L2012.93 214.209 L2012.93 244.556 L2008.39 244.556 L2008.39 209.996 Z" fill="#000000" fill-rule="evenodd" fill-opacity="1" /><path clip-path="url(#clip780)" d="M 0 0 M2049.34 213.838 L2049.34 226.824 L2055.22 226.824 Q2058.48 226.824 2060.27 225.135 Q2062.05 223.445 2062.05 220.32 Q2062.05 217.218 2060.27 215.528 Q2058.48 213.838 2055.22 213.838 L2049.34 213.838 M2044.66 209.996 L2055.22 209.996 Q2061.03 209.996 2063.99 212.635 Q2066.98 215.25 2066.98 220.32 Q2066.98 225.435 2063.99 228.051 Q2061.03 230.667 2055.22 230.667 L2049.34 230.667 L2049.34 244.556 L2044.66 244.556 L2044.66 209.996 Z" fill="#000000" fill-rule="evenodd" fill-opacity="1" /><path clip-path="url(#clip780)" d="M 0 0 M2092.35 211.13 L2092.35 215.69 Q2089.69 214.417 2087.33 213.792 Q2084.96 213.167 2082.77 213.167 Q2078.95 213.167 2076.86 214.648 Q2074.8 216.13 2074.8 218.861 Q2074.8 221.153 2076.17 222.334 Q2077.56 223.491 2081.4 224.209 L2084.22 224.787 Q2089.46 225.783 2091.93 228.306 Q2094.43 230.806 2094.43 235.019 Q2094.43 240.042 2091.05 242.634 Q2087.7 245.227 2081.19 245.227 Q2078.74 245.227 2075.96 244.671 Q2073.21 244.116 2070.24 243.028 L2070.24 238.213 Q2073.09 239.81 2075.82 240.621 Q2078.55 241.431 2081.19 241.431 Q2085.2 241.431 2087.37 239.857 Q2089.55 238.283 2089.55 235.366 Q2089.55 232.82 2087.97 231.384 Q2086.42 229.949 2082.86 229.232 L2080.01 228.676 Q2074.78 227.635 2072.44 225.412 Q2070.1 223.19 2070.1 219.232 Q2070.1 214.648 2073.32 212.01 Q2076.56 209.371 2082.23 209.371 Q2084.66 209.371 2087.19 209.811 Q2089.71 210.25 2092.35 211.13 Z" fill="#000000" fill-rule="evenodd" fill-opacity="1" /><path clip-path="url(#clip780)" d="M 0 0 M2118.83 213.838 L2118.83 240.713 L2124.48 240.713 Q2131.63 240.713 2134.94 237.472 Q2138.27 234.232 2138.27 227.241 Q2138.27 220.297 2134.94 217.079 Q2131.63 213.838 2124.48 213.838 L2118.83 213.838 M2114.15 209.996 L2123.76 209.996 Q2133.81 209.996 2138.51 214.186 Q2143.21 218.352 2143.21 227.241 Q2143.21 236.176 2138.48 240.366 Q2133.76 244.556 2123.76 244.556 L2114.15 244.556 L2114.15 209.996 Z" fill="#000000" fill-rule="evenodd" fill-opacity="1" /><path clip-path="url(#clip780)" d="M 0 0 M2163.3 223.028 L2192.97 223.028 L2192.97 226.917 L2163.3 226.917 L2163.3 223.028 M2163.3 232.472 L2192.97 232.472 L2192.97 236.408 L2163.3 236.408 L2163.3 232.472 Z" fill="#000000" fill-rule="evenodd" fill-opacity="1" /><path clip-path="url(#clip780)" d="M 0 0 M2217.14 240.621 L2233.46 240.621 L2233.46 244.556 L2211.52 244.556 L2211.52 240.621 Q2214.18 237.866 2218.76 233.236 Q2223.37 228.584 2224.55 227.241 Q2226.79 224.718 2227.67 222.982 Q2228.58 221.223 2228.58 219.533 Q2228.58 216.778 2226.63 215.042 Q2224.71 213.306 2221.61 213.306 Q2219.41 213.306 2216.96 214.07 Q2214.52 214.834 2211.75 216.385 L2211.75 211.662 Q2214.57 210.528 2217.02 209.949 Q2219.48 209.371 2221.52 209.371 Q2226.89 209.371 2230.08 212.056 Q2233.27 214.741 2233.27 219.232 Q2233.27 221.361 2232.46 223.283 Q2231.68 225.181 2229.57 227.773 Q2228.99 228.445 2225.89 231.662 Q2222.79 234.857 2217.14 240.621 Z" fill="#000000" fill-rule="evenodd" fill-opacity="1" /><circle clip-path="url(#clip780)" cx="1782.82" cy="287.756" r="23" fill="#e26f46" fill-rule="evenodd" fill-opacity="1" stroke="#000000" stroke-opacity="1" stroke-width="5.12"/>
<path clip-path="url(#clip780)" d="M 0 0 M1892.42 275.082 L1886.08 292.281 L1898.79 292.281 L1892.42 275.082 M1889.78 270.476 L1895.08 270.476 L1908.25 305.036 L1903.39 305.036 L1900.24 296.17 L1884.67 296.17 L1881.52 305.036 L1876.59 305.036 L1889.78 270.476 Z" fill="#000000" fill-rule="evenodd" fill-opacity="1" /><path clip-path="url(#clip780)" d="M 0 0 M1917.58 274.318 L1917.58 301.193 L1923.23 301.193 Q1930.38 301.193 1933.69 297.952 Q1937.03 294.712 1937.03 287.721 Q1937.03 280.777 1933.69 277.559 Q1930.38 274.318 1923.23 274.318 L1917.58 274.318 M1912.91 270.476 L1922.51 270.476 Q1932.56 270.476 1937.26 274.666 Q1941.96 278.832 1941.96 287.721 Q1941.96 296.656 1937.23 300.846 Q1932.51 305.036 1922.51 305.036 L1912.91 305.036 L1912.91 270.476 Z" fill="#000000" fill-rule="evenodd" fill-opacity="1" /><path clip-path="url(#clip780)" d="M 0 0 M1954.69 305.036 L1941.49 270.476 L1946.38 270.476 L1957.33 299.573 L1968.3 270.476 L1973.16 270.476 L1959.99 305.036 L1954.69 305.036 Z" fill="#000000" fill-rule="evenodd" fill-opacity="1" /><path clip-path="url(#clip780)" d="M 0 0 M1977.28 270.476 L1981.98 270.476 L1981.98 291.471 Q1981.98 297.027 1983.99 299.48 Q1986.01 301.911 1990.52 301.911 Q1995.01 301.911 1997.03 299.48 Q1999.04 297.027 1999.04 291.471 L1999.04 270.476 L2003.74 270.476 L2003.74 292.05 Q2003.74 298.809 2000.38 302.258 Q1997.05 305.707 1990.52 305.707 Q1983.97 305.707 1980.61 302.258 Q1977.28 298.809 1977.28 292.05 L1977.28 270.476 Z" fill="#000000" fill-rule="evenodd" fill-opacity="1" /><path clip-path="url(#clip780)" d="M 0 0 M2008.39 270.476 L2015.36 270.476 L2024.18 293.994 L2033.04 270.476 L2040.01 270.476 L2040.01 305.036 L2035.45 305.036 L2035.45 274.689 L2026.54 298.392 L2021.84 298.392 L2012.93 274.689 L2012.93 305.036 L2008.39 305.036 L2008.39 270.476 Z" fill="#000000" fill-rule="evenodd" fill-opacity="1" /><path clip-path="url(#clip780)" d="M 0 0 M2049.34 274.318 L2049.34 287.304 L2055.22 287.304 Q2058.48 287.304 2060.27 285.615 Q2062.05 283.925 2062.05 280.8 Q2062.05 277.698 2060.27 276.008 Q2058.48 274.318 2055.22 274.318 L2049.34 274.318 M2044.66 270.476 L2055.22 270.476 Q2061.03 270.476 2063.99 273.115 Q2066.98 275.73 2066.98 280.8 Q2066.98 285.915 2063.99 288.531 Q2061.03 291.147 2055.22 291.147 L2049.34 291.147 L2049.34 305.036 L2044.66 305.036 L2044.66 270.476 Z" fill="#000000" fill-rule="evenodd" fill-opacity="1" /><path clip-path="url(#clip780)" d="M 0 0 M2092.35 271.61 L2092.35 276.17 Q2089.69 274.897 2087.33 274.272 Q2084.96 273.647 2082.77 273.647 Q2078.95 273.647 2076.86 275.128 Q2074.8 276.61 2074.8 279.341 Q2074.8 281.633 2076.17 282.814 Q2077.56 283.971 2081.4 284.689 L2084.22 285.267 Q2089.46 286.263 2091.93 288.786 Q2094.43 291.286 2094.43 295.499 Q2094.43 300.522 2091.05 303.114 Q2087.7 305.707 2081.19 305.707 Q2078.74 305.707 2075.96 305.151 Q2073.21 304.596 2070.24 303.508 L2070.24 298.693 Q2073.09 300.29 2075.82 301.101 Q2078.55 301.911 2081.19 301.911 Q2085.2 301.911 2087.37 300.337 Q2089.55 298.763 2089.55 295.846 Q2089.55 293.3 2087.97 291.864 Q2086.42 290.429 2082.86 289.712 L2080.01 289.156 Q2074.78 288.115 2072.44 285.892 Q2070.1 283.67 2070.1 279.712 Q2070.1 275.128 2073.32 272.49 Q2076.56 269.851 2082.23 269.851 Q2084.66 269.851 2087.19 270.291 Q2089.71 270.73 2092.35 271.61 Z" fill="#000000" fill-rule="evenodd" fill-opacity="1" /><path clip-path="url(#clip780)" d="M 0 0 M2118.83 274.318 L2118.83 301.193 L2124.48 301.193 Q2131.63 301.193 2134.94 297.952 Q2138.27 294.712 2138.27 287.721 Q2138.27 280.777 2134.94 277.559 Q2131.63 274.318 2124.48 274.318 L2118.83 274.318 M2114.15 270.476 L2123.76 270.476 Q2133.81 270.476 2138.51 274.666 Q2143.21 278.832 2143.21 287.721 Q2143.21 296.656 2138.48 300.846 Q2133.76 305.036 2123.76 305.036 L2114.15 305.036 L2114.15 270.476 Z" fill="#000000" fill-rule="evenodd" fill-opacity="1" /><path clip-path="url(#clip780)" d="M 0 0 M2163.3 283.508 L2192.97 283.508 L2192.97 287.397 L2163.3 287.397 L2163.3 283.508 M2163.3 292.952 L2192.97 292.952 L2192.97 296.888 L2163.3 296.888 L2163.3 292.952 Z" fill="#000000" fill-rule="evenodd" fill-opacity="1" /><path clip-path="url(#clip780)" d="M 0 0 M2225.96 274.55 L2214.15 292.999 L2225.96 292.999 L2225.96 274.55 M2224.73 270.476 L2230.61 270.476 L2230.61 292.999 L2235.54 292.999 L2235.54 296.888 L2230.61 296.888 L2230.61 305.036 L2225.96 305.036 L2225.96 296.888 L2210.36 296.888 L2210.36 292.374 L2224.73 270.476 Z" fill="#000000" fill-rule="evenodd" fill-opacity="1" /><circle clip-path="url(#clip780)" cx="1782.82" cy="348.236" r="23" fill="#3da44d" fill-rule="evenodd" fill-opacity="1" stroke="#000000" stroke-opacity="1" stroke-width="5.12"/>
<path clip-path="url(#clip780)" d="M 0 0 M1892.42 335.562 L1886.08 352.761 L1898.79 352.761 L1892.42 335.562 M1889.78 330.956 L1895.08 330.956 L1908.25 365.516 L1903.39 365.516 L1900.24 356.65 L1884.67 356.65 L1881.52 365.516 L1876.59 365.516 L1889.78 330.956 Z" fill="#000000" fill-rule="evenodd" fill-opacity="1" /><path clip-path="url(#clip780)" d="M 0 0 M1917.58 334.798 L1917.58 361.673 L1923.23 361.673 Q1930.38 361.673 1933.69 358.432 Q1937.03 355.192 1937.03 348.201 Q1937.03 341.257 1933.69 338.039 Q1930.38 334.798 1923.23 334.798 L1917.58 334.798 M1912.91 330.956 L1922.51 330.956 Q1932.56 330.956 1937.26 335.146 Q1941.96 339.312 1941.96 348.201 Q1941.96 357.136 1937.23 361.326 Q1932.51 365.516 1922.51 365.516 L1912.91 365.516 L1912.91 330.956 Z" fill="#000000" fill-rule="evenodd" fill-opacity="1" /><path clip-path="url(#clip780)" d="M 0 0 M1954.69 365.516 L1941.49 330.956 L1946.38 330.956 L1957.33 360.053 L1968.3 330.956 L1973.16 330.956 L1959.99 365.516 L1954.69 365.516 Z" fill="#000000" fill-rule="evenodd" fill-opacity="1" /><path clip-path="url(#clip780)" d="M 0 0 M1977.28 330.956 L1981.98 330.956 L1981.98 351.951 Q1981.98 357.507 1983.99 359.96 Q1986.01 362.391 1990.52 362.391 Q1995.01 362.391 1997.03 359.96 Q1999.04 357.507 1999.04 351.951 L1999.04 330.956 L2003.74 330.956 L2003.74 352.53 Q2003.74 359.289 2000.38 362.738 Q1997.05 366.187 1990.52 366.187 Q1983.97 366.187 1980.61 362.738 Q1977.28 359.289 1977.28 352.53 L1977.28 330.956 Z" fill="#000000" fill-rule="evenodd" fill-opacity="1" /><path clip-path="url(#clip780)" d="M 0 0 M2008.39 330.956 L2015.36 330.956 L2024.18 354.474 L2033.04 330.956 L2040.01 330.956 L2040.01 365.516 L2035.45 365.516 L2035.45 335.169 L2026.54 358.872 L2021.84 358.872 L2012.93 335.169 L2012.93 365.516 L2008.39 365.516 L2008.39 330.956 Z" fill="#000000" fill-rule="evenodd" fill-opacity="1" /><path clip-path="url(#clip780)" d="M 0 0 M2049.34 334.798 L2049.34 347.784 L2055.22 347.784 Q2058.48 347.784 2060.27 346.095 Q2062.05 344.405 2062.05 341.28 Q2062.05 338.178 2060.27 336.488 Q2058.48 334.798 2055.22 334.798 L2049.34 334.798 M2044.66 330.956 L2055.22 330.956 Q2061.03 330.956 2063.99 333.595 Q2066.98 336.21 2066.98 341.28 Q2066.98 346.395 2063.99 349.011 Q2061.03 351.627 2055.22 351.627 L2049.34 351.627 L2049.34 365.516 L2044.66 365.516 L2044.66 330.956 Z" fill="#000000" fill-rule="evenodd" fill-opacity="1" /><path clip-path="url(#clip780)" d="M 0 0 M2092.35 332.09 L2092.35 336.65 Q2089.69 335.377 2087.33 334.752 Q2084.96 334.127 2082.77 334.127 Q2078.95 334.127 2076.86 335.608 Q2074.8 337.09 2074.8 339.821 Q2074.8 342.113 2076.17 343.294 Q2077.56 344.451 2081.4 345.169 L2084.22 345.747 Q2089.46 346.743 2091.93 349.266 Q2094.43 351.766 2094.43 355.979 Q2094.43 361.002 2091.05 363.594 Q2087.7 366.187 2081.19 366.187 Q2078.74 366.187 2075.96 365.631 Q2073.21 365.076 2070.24 363.988 L2070.24 359.173 Q2073.09 360.77 2075.82 361.581 Q2078.55 362.391 2081.19 362.391 Q2085.2 362.391 2087.37 360.817 Q2089.55 359.243 2089.55 356.326 Q2089.55 353.78 2087.97 352.344 Q2086.42 350.909 2082.86 350.192 L2080.01 349.636 Q2074.78 348.595 2072.44 346.372 Q2070.1 344.15 2070.1 340.192 Q2070.1 335.608 2073.32 332.97 Q2076.56 330.331 2082.23 330.331 Q2084.66 330.331 2087.19 330.771 Q2089.71 331.21 2092.35 332.09 Z" fill="#000000" fill-rule="evenodd" fill-opacity="1" /><path clip-path="url(#clip780)" d="M 0 0 M2118.83 334.798 L2118.83 361.673 L2124.48 361.673 Q2131.63 361.673 2134.94 358.432 Q2138.27 355.192 2138.27 348.201 Q2138.27 341.257 2134.94 338.039 Q2131.63 334.798 2124.48 334.798 L2118.83 334.798 M2114.15 330.956 L2123.76 330.956 Q2133.81 330.956 2138.51 335.146 Q2143.21 339.312 2143.21 348.201 Q2143.21 357.136 2138.48 361.326 Q2133.76 365.516 2123.76 365.516 L2114.15 365.516 L2114.15 330.956 Z" fill="#000000" fill-rule="evenodd" fill-opacity="1" /><path clip-path="url(#clip780)" d="M 0 0 M2163.3 343.988 L2192.97 343.988 L2192.97 347.877 L2163.3 347.877 L2163.3 343.988 M2163.3 353.432 L2192.97 353.432 L2192.97 357.368 L2163.3 357.368 L2163.3 353.432 Z" fill="#000000" fill-rule="evenodd" fill-opacity="1" /><path clip-path="url(#clip780)" d="M 0 0 M2223.11 349.104 Q2219.78 349.104 2217.86 350.886 Q2215.96 352.669 2215.96 355.794 Q2215.96 358.919 2217.86 360.701 Q2219.78 362.483 2223.11 362.483 Q2226.45 362.483 2228.37 360.701 Q2230.29 358.895 2230.29 355.794 Q2230.29 352.669 2228.37 350.886 Q2226.47 349.104 2223.11 349.104 M2218.44 347.113 Q2215.43 346.372 2213.74 344.312 Q2212.07 342.252 2212.07 339.289 Q2212.07 335.146 2215.01 332.738 Q2217.97 330.331 2223.11 330.331 Q2228.27 330.331 2231.21 332.738 Q2234.15 335.146 2234.15 339.289 Q2234.15 342.252 2232.46 344.312 Q2230.8 346.372 2227.81 347.113 Q2231.19 347.9 2233.07 350.192 Q2234.96 352.483 2234.96 355.794 Q2234.96 360.817 2231.89 363.502 Q2228.83 366.187 2223.11 366.187 Q2217.39 366.187 2214.32 363.502 Q2211.26 360.817 2211.26 355.794 Q2211.26 352.483 2213.16 350.192 Q2215.06 347.9 2218.44 347.113 M2216.72 339.729 Q2216.72 342.414 2218.39 343.919 Q2220.08 345.423 2223.11 345.423 Q2226.12 345.423 2227.81 343.919 Q2229.52 342.414 2229.52 339.729 Q2229.52 337.044 2227.81 335.539 Q2226.12 334.034 2223.11 334.034 Q2220.08 334.034 2218.39 335.539 Q2216.72 337.044 2216.72 339.729 Z" fill="#000000" fill-rule="evenodd" fill-opacity="1" /><polyline clip-path="url(#clip780)" style="stroke:#c271d2; stroke-width:4; stroke-opacity:1; fill:none" points="
  1712.49,408.716 1853.14,408.716 
  "/>
<path clip-path="url(#clip780)" d="M 0 0 M1889.78 425.996 L1876.59 391.436 L1881.47 391.436 L1892.42 420.533 L1903.39 391.436 L1908.25 391.436 L1895.08 425.996 L1889.78 425.996 Z" fill="#000000" fill-rule="evenodd" fill-opacity="1" /><path clip-path="url(#clip780)" d="M 0 0 M1912.37 391.436 L1917.07 391.436 L1917.07 412.431 Q1917.07 417.987 1919.09 420.44 Q1921.1 422.871 1925.61 422.871 Q1930.1 422.871 1932.12 420.44 Q1934.13 417.987 1934.13 412.431 L1934.13 391.436 L1938.83 391.436 L1938.83 413.01 Q1938.83 419.769 1935.48 423.218 Q1932.14 426.667 1925.61 426.667 Q1919.06 426.667 1915.71 423.218 Q1912.37 419.769 1912.37 413.01 L1912.37 391.436 Z" fill="#000000" fill-rule="evenodd" fill-opacity="1" /><path clip-path="url(#clip780)" d="M 0 0 M1943.48 391.436 L1950.45 391.436 L1959.27 414.954 L1968.14 391.436 L1975.1 391.436 L1975.1 425.996 L1970.54 425.996 L1970.54 395.649 L1961.63 419.352 L1956.93 419.352 L1948.02 395.649 L1948.02 425.996 L1943.48 425.996 L1943.48 391.436 Z" fill="#000000" fill-rule="evenodd" fill-opacity="1" /><path clip-path="url(#clip780)" d="M 0 0 M1984.43 395.278 L1984.43 408.264 L1990.31 408.264 Q1993.58 408.264 1995.36 406.575 Q1997.14 404.885 1997.14 401.76 Q1997.14 398.658 1995.36 396.968 Q1993.58 395.278 1990.31 395.278 L1984.43 395.278 M1979.76 391.436 L1990.31 391.436 Q1996.12 391.436 1999.09 394.075 Q2002.07 396.69 2002.07 401.76 Q2002.07 406.875 1999.09 409.491 Q1996.12 412.107 1990.31 412.107 L1984.43 412.107 L1984.43 425.996 L1979.76 425.996 L1979.76 391.436 Z" fill="#000000" fill-rule="evenodd" fill-opacity="1" /><path clip-path="url(#clip780)" d="M 0 0 M2027.44 392.57 L2027.44 397.13 Q2024.78 395.857 2022.42 395.232 Q2020.06 394.607 2017.86 394.607 Q2014.04 394.607 2011.96 396.088 Q2009.9 397.57 2009.9 400.301 Q2009.9 402.593 2011.26 403.774 Q2012.65 404.931 2016.49 405.649 L2019.32 406.227 Q2024.55 407.223 2027.03 409.746 Q2029.53 412.246 2029.53 416.459 Q2029.53 421.482 2026.15 424.074 Q2022.79 426.667 2016.28 426.667 Q2013.83 426.667 2011.05 426.111 Q2008.3 425.556 2005.34 424.468 L2005.34 419.653 Q2008.18 421.25 2010.91 422.061 Q2013.65 422.871 2016.28 422.871 Q2020.29 422.871 2022.47 421.297 Q2024.64 419.723 2024.64 416.806 Q2024.64 414.26 2023.07 412.824 Q2021.52 411.389 2017.95 410.672 L2015.1 410.116 Q2009.87 409.075 2007.53 406.852 Q2005.2 404.63 2005.2 400.672 Q2005.2 396.088 2008.41 393.45 Q2011.66 390.811 2017.33 390.811 Q2019.76 390.811 2022.28 391.251 Q2024.8 391.69 2027.44 392.57 Z" fill="#000000" fill-rule="evenodd" fill-opacity="1" /><path clip-path="url(#clip780)" d="M 0 0 M2053.92 395.278 L2053.92 422.153 L2059.57 422.153 Q2066.72 422.153 2070.03 418.912 Q2073.37 415.672 2073.37 408.681 Q2073.37 401.737 2070.03 398.519 Q2066.72 395.278 2059.57 395.278 L2053.92 395.278 M2049.25 391.436 L2058.85 391.436 Q2068.9 391.436 2073.6 395.626 Q2078.3 399.792 2078.3 408.681 Q2078.3 417.616 2073.58 421.806 Q2068.85 425.996 2058.85 425.996 L2049.25 425.996 L2049.25 391.436 Z" fill="#000000" fill-rule="evenodd" fill-opacity="1" /><path clip-path="url(#clip780)" d="M 0 0 M2098.39 404.468 L2128.07 404.468 L2128.07 408.357 L2098.39 408.357 L2098.39 404.468 M2098.39 413.912 L2128.07 413.912 L2128.07 417.848 L2098.39 417.848 L2098.39 413.912 Z" fill="#000000" fill-rule="evenodd" fill-opacity="1" /><path clip-path="url(#clip780)" d="M 0 0 M2158.21 409.584 Q2154.87 409.584 2152.95 411.366 Q2151.05 413.149 2151.05 416.274 Q2151.05 419.399 2152.95 421.181 Q2154.87 422.963 2158.21 422.963 Q2161.54 422.963 2163.46 421.181 Q2165.38 419.375 2165.38 416.274 Q2165.38 413.149 2163.46 411.366 Q2161.56 409.584 2158.21 409.584 M2153.53 407.593 Q2150.52 406.852 2148.83 404.792 Q2147.16 402.732 2147.16 399.769 Q2147.16 395.626 2150.1 393.218 Q2153.07 390.811 2158.21 390.811 Q2163.37 390.811 2166.31 393.218 Q2169.25 395.626 2169.25 399.769 Q2169.25 402.732 2167.56 404.792 Q2165.89 406.852 2162.9 407.593 Q2166.28 408.38 2168.16 410.672 Q2170.06 412.963 2170.06 416.274 Q2170.06 421.297 2166.98 423.982 Q2163.92 426.667 2158.21 426.667 Q2152.49 426.667 2149.41 423.982 Q2146.35 421.297 2146.35 416.274 Q2146.35 412.963 2148.25 410.672 Q2150.15 408.38 2153.53 407.593 M2151.82 400.209 Q2151.82 402.894 2153.48 404.399 Q2155.17 405.903 2158.21 405.903 Q2161.21 405.903 2162.9 404.399 Q2164.62 402.894 2164.62 400.209 Q2164.62 397.524 2162.9 396.019 Q2161.21 394.514 2158.21 394.514 Q2155.17 394.514 2153.48 396.019 Q2151.82 397.524 2151.82 400.209 Z" fill="#000000" fill-rule="evenodd" fill-opacity="1" /></svg>
