<?xml version="1.0" encoding="utf-8"?>
<svg xmlns="http://www.w3.org/2000/svg" xmlns:xlink="http://www.w3.org/1999/xlink" width="600" height="400" viewBox="0 0 2400 1600">
<defs>
  <clipPath id="clip330">
    <rect x="0" y="0" width="2400" height="1600"/>
  </clipPath>
</defs>
<path clip-path="url(#clip330)" d="
M0 1600 L2400 1600 L2400 0 L0 0  Z
  " fill="#ffffff" fill-rule="evenodd" fill-opacity="1"/>
<defs>
  <clipPath id="clip331">
    <rect x="480" y="0" width="1681" height="1600"/>
  </clipPath>
</defs>
<path clip-path="url(#clip330)" d="
M211.602 1423.18 L2352.76 1423.18 L2352.76 123.472 L211.602 123.472  Z
  " fill="#ffffff" fill-rule="evenodd" fill-opacity="1"/>
<defs>
  <clipPath id="clip332">
    <rect x="211" y="123" width="2142" height="1301"/>
  </clipPath>
</defs>
<polyline clip-path="url(#clip332)" style="stroke:#000000; stroke-width:2; stroke-opacity:0.1; fill:none" points="
  272.201,1423.18 272.201,123.472 
  "/>
<polyline clip-path="url(#clip332)" style="stroke:#000000; stroke-width:2; stroke-opacity:0.1; fill:none" points="
  945.52,1423.18 945.52,123.472 
  "/>
<polyline clip-path="url(#clip332)" style="stroke:#000000; stroke-width:2; stroke-opacity:0.1; fill:none" points="
  1618.84,1423.18 1618.84,123.472 
  "/>
<polyline clip-path="url(#clip332)" style="stroke:#000000; stroke-width:2; stroke-opacity:0.1; fill:none" points="
  2292.16,1423.18 2292.16,123.472 
  "/>
<polyline clip-path="url(#clip330)" style="stroke:#000000; stroke-width:4; stroke-opacity:1; fill:none" points="
  211.602,1423.18 2352.76,1423.18 
  "/>
<polyline clip-path="url(#clip330)" style="stroke:#000000; stroke-width:4; stroke-opacity:1; fill:none" points="
  272.201,1423.18 272.201,1407.58 
  "/>
<polyline clip-path="url(#clip330)" style="stroke:#000000; stroke-width:4; stroke-opacity:1; fill:none" points="
  945.52,1423.18 945.52,1407.58 
  "/>
<polyline clip-path="url(#clip330)" style="stroke:#000000; stroke-width:4; stroke-opacity:1; fill:none" points="
  1618.84,1423.18 1618.84,1407.58 
  "/>
<polyline clip-path="url(#clip330)" style="stroke:#000000; stroke-width:4; stroke-opacity:1; fill:none" points="
  2292.16,1423.18 2292.16,1407.58 
  "/>
<path clip-path="url(#clip330)" d="M 0 0 M248.984 1479.92 L265.303 1479.92 L265.303 1483.85 L243.359 1483.85 L243.359 1479.92 Q246.021 1477.16 250.604 1472.53 Q255.21 1467.88 256.391 1466.54 Q258.636 1464.01 259.516 1462.28 Q260.419 1460.52 260.419 1458.83 Q260.419 1456.07 258.474 1454.34 Q256.553 1452.6 253.451 1452.6 Q251.252 1452.6 248.798 1453.37 Q246.368 1454.13 243.59 1455.68 L243.59 1450.96 Q246.414 1449.82 248.868 1449.25 Q251.322 1448.67 253.359 1448.67 Q258.729 1448.67 261.923 1451.35 Q265.118 1454.04 265.118 1458.53 Q265.118 1460.66 264.308 1462.58 Q263.521 1464.48 261.414 1467.07 Q260.835 1467.74 257.734 1470.96 Q254.632 1474.15 248.984 1479.92 Z" fill="#000000" fill-rule="evenodd" fill-opacity="1" /><path clip-path="url(#clip330)" d="M 0 0 M270.372 1477.97 L275.257 1477.97 L275.257 1483.85 L270.372 1483.85 L270.372 1477.97 Z" fill="#000000" fill-rule="evenodd" fill-opacity="1" /><path clip-path="url(#clip330)" d="M 0 0 M281.136 1479.92 L288.775 1479.92 L288.775 1453.55 L280.465 1455.22 L280.465 1450.96 L288.729 1449.29 L293.405 1449.29 L293.405 1479.92 L301.044 1479.92 L301.044 1483.85 L281.136 1483.85 L281.136 1479.92 Z" fill="#000000" fill-rule="evenodd" fill-opacity="1" /><path clip-path="url(#clip330)" d="M 0 0 M922.488 1479.92 L938.807 1479.92 L938.807 1483.85 L916.863 1483.85 L916.863 1479.92 Q919.525 1477.16 924.108 1472.53 Q928.714 1467.88 929.895 1466.54 Q932.14 1464.01 933.02 1462.28 Q933.923 1460.52 933.923 1458.83 Q933.923 1456.07 931.978 1454.34 Q930.057 1452.6 926.955 1452.6 Q924.756 1452.6 922.302 1453.37 Q919.872 1454.13 917.094 1455.68 L917.094 1450.96 Q919.918 1449.82 922.372 1449.25 Q924.825 1448.67 926.863 1448.67 Q932.233 1448.67 935.427 1451.35 Q938.622 1454.04 938.622 1458.53 Q938.622 1460.66 937.812 1462.58 Q937.024 1464.48 934.918 1467.07 Q934.339 1467.74 931.237 1470.96 Q928.136 1474.15 922.488 1479.92 Z" fill="#000000" fill-rule="evenodd" fill-opacity="1" /><path clip-path="url(#clip330)" d="M 0 0 M943.876 1477.97 L948.761 1477.97 L948.761 1483.85 L943.876 1483.85 L943.876 1477.97 Z" fill="#000000" fill-rule="evenodd" fill-opacity="1" /><path clip-path="url(#clip330)" d="M 0 0 M957.858 1479.92 L974.177 1479.92 L974.177 1483.85 L952.233 1483.85 L952.233 1479.92 Q954.895 1477.16 959.478 1472.53 Q964.085 1467.88 965.265 1466.54 Q967.51 1464.01 968.39 1462.28 Q969.293 1460.52 969.293 1458.83 Q969.293 1456.07 967.348 1454.34 Q965.427 1452.6 962.325 1452.6 Q960.126 1452.6 957.673 1453.37 Q955.242 1454.13 952.464 1455.68 L952.464 1450.96 Q955.288 1449.82 957.742 1449.25 Q960.196 1448.67 962.233 1448.67 Q967.603 1448.67 970.797 1451.35 Q973.992 1454.04 973.992 1458.53 Q973.992 1460.66 973.182 1462.58 Q972.395 1464.48 970.288 1467.07 Q969.709 1467.74 966.608 1470.96 Q963.506 1474.15 957.858 1479.92 Z" fill="#000000" fill-rule="evenodd" fill-opacity="1" /><path clip-path="url(#clip330)" d="M 0 0 M1595.33 1479.92 L1611.65 1479.92 L1611.65 1483.85 L1589.71 1483.85 L1589.71 1479.92 Q1592.37 1477.16 1596.95 1472.53 Q1601.56 1467.88 1602.74 1466.54 Q1604.98 1464.01 1605.86 1462.28 Q1606.77 1460.52 1606.77 1458.83 Q1606.77 1456.07 1604.82 1454.34 Q1602.9 1452.6 1599.8 1452.6 Q1597.6 1452.6 1595.15 1453.37 Q1592.72 1454.13 1589.94 1455.68 L1589.94 1450.96 Q1592.76 1449.82 1595.22 1449.25 Q1597.67 1448.67 1599.71 1448.67 Q1605.08 1448.67 1608.27 1451.35 Q1611.47 1454.04 1611.47 1458.53 Q1611.47 1460.66 1610.66 1462.58 Q1609.87 1464.48 1607.76 1467.07 Q1607.18 1467.74 1604.08 1470.96 Q1600.98 1474.15 1595.33 1479.92 Z" fill="#000000" fill-rule="evenodd" fill-opacity="1" /><path clip-path="url(#clip330)" d="M 0 0 M1616.72 1477.97 L1621.6 1477.97 L1621.6 1483.85 L1616.72 1483.85 L1616.72 1477.97 Z" fill="#000000" fill-rule="evenodd" fill-opacity="1" /><path clip-path="url(#clip330)" d="M 0 0 M1640.84 1465.22 Q1644.2 1465.94 1646.07 1468.2 Q1647.97 1470.47 1647.97 1473.81 Q1647.97 1478.92 1644.45 1481.72 Q1640.93 1484.52 1634.45 1484.52 Q1632.28 1484.52 1629.96 1484.08 Q1627.67 1483.67 1625.22 1482.81 L1625.22 1478.3 Q1627.16 1479.43 1629.48 1480.01 Q1631.79 1480.59 1634.31 1480.59 Q1638.71 1480.59 1641 1478.85 Q1643.32 1477.12 1643.32 1473.81 Q1643.32 1470.75 1641.16 1469.04 Q1639.04 1467.3 1635.22 1467.3 L1631.19 1467.3 L1631.19 1463.46 L1635.4 1463.46 Q1638.85 1463.46 1640.68 1462.09 Q1642.51 1460.7 1642.51 1458.11 Q1642.51 1455.45 1640.61 1454.04 Q1638.73 1452.6 1635.22 1452.6 Q1633.29 1452.6 1631.1 1453.02 Q1628.9 1453.44 1626.26 1454.31 L1626.26 1450.15 Q1628.92 1449.41 1631.23 1449.04 Q1633.57 1448.67 1635.63 1448.67 Q1640.96 1448.67 1644.06 1451.1 Q1647.16 1453.5 1647.16 1457.63 Q1647.16 1460.5 1645.52 1462.49 Q1643.87 1464.45 1640.84 1465.22 Z" fill="#000000" fill-rule="evenodd" fill-opacity="1" /><path clip-path="url(#clip330)" d="M 0 0 M2268.08 1479.92 L2284.4 1479.92 L2284.4 1483.85 L2262.46 1483.85 L2262.46 1479.92 Q2265.12 1477.16 2269.7 1472.53 Q2274.31 1467.88 2275.49 1466.54 Q2277.74 1464.01 2278.62 1462.28 Q2279.52 1460.52 2279.52 1458.83 Q2279.52 1456.07 2277.57 1454.34 Q2275.65 1452.6 2272.55 1452.6 Q2270.35 1452.6 2267.9 1453.37 Q2265.47 1454.13 2262.69 1455.68 L2262.69 1450.96 Q2265.51 1449.82 2267.97 1449.25 Q2270.42 1448.67 2272.46 1448.67 Q2277.83 1448.67 2281.02 1451.35 Q2284.22 1454.04 2284.22 1458.53 Q2284.22 1460.66 2283.41 1462.58 Q2282.62 1464.48 2280.51 1467.07 Q2279.94 1467.74 2276.83 1470.96 Q2273.73 1474.15 2268.08 1479.92 Z" fill="#000000" fill-rule="evenodd" fill-opacity="1" /><path clip-path="url(#clip330)" d="M 0 0 M2289.47 1477.97 L2294.36 1477.97 L2294.36 1483.85 L2289.47 1483.85 L2289.47 1477.97 Z" fill="#000000" fill-rule="evenodd" fill-opacity="1" /><path clip-path="url(#clip330)" d="M 0 0 M2312.27 1453.37 L2300.47 1471.81 L2312.27 1471.81 L2312.27 1453.37 M2311.05 1449.29 L2316.93 1449.29 L2316.93 1471.81 L2321.86 1471.81 L2321.86 1475.7 L2316.93 1475.7 L2316.93 1483.85 L2312.27 1483.85 L2312.27 1475.7 L2296.67 1475.7 L2296.67 1471.19 L2311.05 1449.29 Z" fill="#000000" fill-rule="evenodd" fill-opacity="1" /><path clip-path="url(#clip330)" d="M 0 0 M1262.08 1520.52 L1302.28 1520.52 L1302.28 1525.93 L1285.41 1525.93 L1285.41 1568.04 L1278.95 1568.04 L1278.95 1525.93 L1262.08 1525.93 L1262.08 1520.52 Z" fill="#000000" fill-rule="evenodd" fill-opacity="1" /><polyline clip-path="url(#clip332)" style="stroke:#000000; stroke-width:2; stroke-opacity:0.1; fill:none" points="
  211.602,1386.4 2352.76,1386.4 
  "/>
<polyline clip-path="url(#clip332)" style="stroke:#000000; stroke-width:2; stroke-opacity:0.1; fill:none" points="
  211.602,1104.46 2352.76,1104.46 
  "/>
<polyline clip-path="url(#clip332)" style="stroke:#000000; stroke-width:2; stroke-opacity:0.1; fill:none" points="
  211.602,822.531 2352.76,822.531 
  "/>
<polyline clip-path="url(#clip332)" style="stroke:#000000; stroke-width:2; stroke-opacity:0.1; fill:none" points="
  211.602,540.598 2352.76,540.598 
  "/>
<polyline clip-path="url(#clip332)" style="stroke:#000000; stroke-width:2; stroke-opacity:0.1; fill:none" points="
  211.602,258.665 2352.76,258.665 
  "/>
<polyline clip-path="url(#clip330)" style="stroke:#000000; stroke-width:4; stroke-opacity:1; fill:none" points="
  211.602,1423.18 211.602,123.472 
  "/>
<polyline clip-path="url(#clip330)" style="stroke:#000000; stroke-width:4; stroke-opacity:1; fill:none" points="
  211.602,1386.4 237.296,1386.4 
  "/>
<polyline clip-path="url(#clip330)" style="stroke:#000000; stroke-width:4; stroke-opacity:1; fill:none" points="
  211.602,1104.46 237.296,1104.46 
  "/>
<polyline clip-path="url(#clip330)" style="stroke:#000000; stroke-width:4; stroke-opacity:1; fill:none" points="
  211.602,822.531 237.296,822.531 
  "/>
<polyline clip-path="url(#clip330)" style="stroke:#000000; stroke-width:4; stroke-opacity:1; fill:none" points="
  211.602,540.598 237.296,540.598 
  "/>
<polyline clip-path="url(#clip330)" style="stroke:#000000; stroke-width:4; stroke-opacity:1; fill:none" points="
  211.602,258.665 237.296,258.665 
  "/>
<path clip-path="url(#clip330)" d="M 0 0 M126.691 1372.19 Q123.08 1372.19 121.251 1375.76 Q119.445 1379.3 119.445 1386.43 Q119.445 1393.54 121.251 1397.1 Q123.08 1400.64 126.691 1400.64 Q130.325 1400.64 132.13 1397.1 Q133.959 1393.54 133.959 1386.43 Q133.959 1379.3 132.13 1375.76 Q130.325 1372.19 126.691 1372.19 M126.691 1368.49 Q132.501 1368.49 135.556 1373.1 Q138.635 1377.68 138.635 1386.43 Q138.635 1395.16 135.556 1399.76 Q132.501 1404.35 126.691 1404.35 Q120.88 1404.35 117.802 1399.76 Q114.746 1395.16 114.746 1386.43 Q114.746 1377.68 117.802 1373.1 Q120.88 1368.49 126.691 1368.49 Z" fill="#000000" fill-rule="evenodd" fill-opacity="1" /><path clip-path="url(#clip330)" d="M 0 0 M143.704 1397.8 L148.589 1397.8 L148.589 1403.68 L143.704 1403.68 L143.704 1397.8 Z" fill="#000000" fill-rule="evenodd" fill-opacity="1" /><path clip-path="url(#clip330)" d="M 0 0 M163.658 1372.19 Q160.047 1372.19 158.218 1375.76 Q156.413 1379.3 156.413 1386.43 Q156.413 1393.54 158.218 1397.1 Q160.047 1400.64 163.658 1400.64 Q167.292 1400.64 169.098 1397.1 Q170.927 1393.54 170.927 1386.43 Q170.927 1379.3 169.098 1375.76 Q167.292 1372.19 163.658 1372.19 M163.658 1368.49 Q169.468 1368.49 172.524 1373.1 Q175.602 1377.68 175.602 1386.43 Q175.602 1395.16 172.524 1399.76 Q169.468 1404.35 163.658 1404.35 Q157.848 1404.35 154.769 1399.76 Q151.714 1395.16 151.714 1386.43 Q151.714 1377.68 154.769 1373.1 Q157.848 1368.49 163.658 1368.49 Z" fill="#000000" fill-rule="evenodd" fill-opacity="1" /><path clip-path="url(#clip330)" d="M 0 0 M128.288 1090.26 Q124.677 1090.26 122.848 1093.83 Q121.043 1097.37 121.043 1104.5 Q121.043 1111.6 122.848 1115.17 Q124.677 1118.71 128.288 1118.71 Q131.922 1118.71 133.728 1115.17 Q135.556 1111.6 135.556 1104.5 Q135.556 1097.37 133.728 1093.83 Q131.922 1090.26 128.288 1090.26 M128.288 1086.56 Q134.098 1086.56 137.154 1091.16 Q140.232 1095.75 140.232 1104.5 Q140.232 1113.22 137.154 1117.83 Q134.098 1122.41 128.288 1122.41 Q122.478 1122.41 119.399 1117.83 Q116.343 1113.22 116.343 1104.5 Q116.343 1095.75 119.399 1091.16 Q122.478 1086.56 128.288 1086.56 Z" fill="#000000" fill-rule="evenodd" fill-opacity="1" /><path clip-path="url(#clip330)" d="M 0 0 M145.302 1115.86 L150.186 1115.86 L150.186 1121.74 L145.302 1121.74 L145.302 1115.86 Z" fill="#000000" fill-rule="evenodd" fill-opacity="1" /><path clip-path="url(#clip330)" d="M 0 0 M159.283 1117.81 L175.602 1117.81 L175.602 1121.74 L153.658 1121.74 L153.658 1117.81 Q156.32 1115.05 160.903 1110.42 Q165.51 1105.77 166.69 1104.43 Q168.936 1101.91 169.815 1100.17 Q170.718 1098.41 170.718 1096.72 Q170.718 1093.97 168.774 1092.23 Q166.852 1090.49 163.751 1090.49 Q161.552 1090.49 159.098 1091.26 Q156.667 1092.02 153.89 1093.57 L153.89 1088.85 Q156.714 1087.72 159.167 1087.14 Q161.621 1086.56 163.658 1086.56 Q169.028 1086.56 172.223 1089.24 Q175.417 1091.93 175.417 1096.42 Q175.417 1098.55 174.607 1100.47 Q173.82 1102.37 171.714 1104.96 Q171.135 1105.63 168.033 1108.85 Q164.931 1112.04 159.283 1117.81 Z" fill="#000000" fill-rule="evenodd" fill-opacity="1" /><path clip-path="url(#clip330)" d="M 0 0 M126.205 808.329 Q122.593 808.329 120.765 811.894 Q118.959 815.436 118.959 822.565 Q118.959 829.672 120.765 833.237 Q122.593 836.778 126.205 836.778 Q129.839 836.778 131.644 833.237 Q133.473 829.672 133.473 822.565 Q133.473 815.436 131.644 811.894 Q129.839 808.329 126.205 808.329 M126.205 804.626 Q132.015 804.626 135.07 809.232 Q138.149 813.815 138.149 822.565 Q138.149 831.292 135.07 835.899 Q132.015 840.482 126.205 840.482 Q120.394 840.482 117.316 835.899 Q114.26 831.292 114.26 822.565 Q114.26 813.815 117.316 809.232 Q120.394 804.626 126.205 804.626 Z" fill="#000000" fill-rule="evenodd" fill-opacity="1" /><path clip-path="url(#clip330)" d="M 0 0 M143.218 833.931 L148.103 833.931 L148.103 839.811 L143.218 839.811 L143.218 833.931 Z" fill="#000000" fill-rule="evenodd" fill-opacity="1" /><path clip-path="url(#clip330)" d="M 0 0 M166.019 809.325 L154.214 827.774 L166.019 827.774 L166.019 809.325 M164.792 805.251 L170.672 805.251 L170.672 827.774 L175.602 827.774 L175.602 831.662 L170.672 831.662 L170.672 839.811 L166.019 839.811 L166.019 831.662 L150.417 831.662 L150.417 827.149 L164.792 805.251 Z" fill="#000000" fill-rule="evenodd" fill-opacity="1" /><path clip-path="url(#clip330)" d="M 0 0 M126.529 526.397 Q122.918 526.397 121.089 529.961 Q119.283 533.503 119.283 540.633 Q119.283 547.739 121.089 551.304 Q122.918 554.846 126.529 554.846 Q130.163 554.846 131.968 551.304 Q133.797 547.739 133.797 540.633 Q133.797 533.503 131.968 529.961 Q130.163 526.397 126.529 526.397 M126.529 522.693 Q132.339 522.693 135.394 527.299 Q138.473 531.883 138.473 540.633 Q138.473 549.36 135.394 553.966 Q132.339 558.549 126.529 558.549 Q120.718 558.549 117.64 553.966 Q114.584 549.36 114.584 540.633 Q114.584 531.883 117.64 527.299 Q120.718 522.693 126.529 522.693 Z" fill="#000000" fill-rule="evenodd" fill-opacity="1" /><path clip-path="url(#clip330)" d="M 0 0 M143.542 551.998 L148.427 551.998 L148.427 557.878 L143.542 557.878 L143.542 551.998 Z" fill="#000000" fill-rule="evenodd" fill-opacity="1" /><path clip-path="url(#clip330)" d="M 0 0 M164.075 538.735 Q160.927 538.735 159.075 540.887 Q157.246 543.04 157.246 546.79 Q157.246 550.517 159.075 552.693 Q160.927 554.846 164.075 554.846 Q167.223 554.846 169.052 552.693 Q170.903 550.517 170.903 546.79 Q170.903 543.04 169.052 540.887 Q167.223 538.735 164.075 538.735 M173.357 524.082 L173.357 528.341 Q171.598 527.508 169.792 527.068 Q168.01 526.628 166.251 526.628 Q161.621 526.628 159.167 529.753 Q156.737 532.878 156.39 539.198 Q157.755 537.184 159.815 536.119 Q161.876 535.031 164.352 535.031 Q169.561 535.031 172.57 538.202 Q175.602 541.35 175.602 546.79 Q175.602 552.114 172.454 555.332 Q169.306 558.549 164.075 558.549 Q158.079 558.549 154.908 553.966 Q151.737 549.36 151.737 540.633 Q151.737 532.438 155.626 527.577 Q159.515 522.693 166.065 522.693 Q167.825 522.693 169.607 523.04 Q171.413 523.387 173.357 524.082 Z" fill="#000000" fill-rule="evenodd" fill-opacity="1" /><path clip-path="url(#clip330)" d="M 0 0 M126.783 244.464 Q123.172 244.464 121.343 248.029 Q119.538 251.571 119.538 258.7 Q119.538 265.807 121.343 269.371 Q123.172 272.913 126.783 272.913 Q130.417 272.913 132.223 269.371 Q134.052 265.807 134.052 258.7 Q134.052 251.571 132.223 248.029 Q130.417 244.464 126.783 244.464 M126.783 240.76 Q132.593 240.76 135.649 245.367 Q138.728 249.95 138.728 258.7 Q138.728 267.427 135.649 272.033 Q132.593 276.617 126.783 276.617 Q120.973 276.617 117.894 272.033 Q114.839 267.427 114.839 258.7 Q114.839 249.95 117.894 245.367 Q120.973 240.76 126.783 240.76 Z" fill="#000000" fill-rule="evenodd" fill-opacity="1" /><path clip-path="url(#clip330)" d="M 0 0 M143.797 270.066 L148.681 270.066 L148.681 275.945 L143.797 275.945 L143.797 270.066 Z" fill="#000000" fill-rule="evenodd" fill-opacity="1" /><path clip-path="url(#clip330)" d="M 0 0 M163.751 259.533 Q160.417 259.533 158.496 261.316 Q156.598 263.098 156.598 266.223 Q156.598 269.348 158.496 271.131 Q160.417 272.913 163.751 272.913 Q167.084 272.913 169.005 271.131 Q170.927 269.325 170.927 266.223 Q170.927 263.098 169.005 261.316 Q167.107 259.533 163.751 259.533 M159.075 257.543 Q156.065 256.802 154.376 254.742 Q152.709 252.682 152.709 249.719 Q152.709 245.575 155.649 243.168 Q158.612 240.76 163.751 240.76 Q168.913 240.76 171.852 243.168 Q174.792 245.575 174.792 249.719 Q174.792 252.682 173.102 254.742 Q171.436 256.802 168.45 257.543 Q171.829 258.33 173.704 260.621 Q175.602 262.913 175.602 266.223 Q175.602 271.246 172.524 273.932 Q169.468 276.617 163.751 276.617 Q158.033 276.617 154.954 273.932 Q151.899 271.246 151.899 266.223 Q151.899 262.913 153.797 260.621 Q155.695 258.33 159.075 257.543 M157.362 250.159 Q157.362 252.844 159.028 254.348 Q160.718 255.853 163.751 255.853 Q166.76 255.853 168.45 254.348 Q170.163 252.844 170.163 250.159 Q170.163 247.473 168.45 245.969 Q166.76 244.464 163.751 244.464 Q160.718 244.464 159.028 245.969 Q157.362 247.473 157.362 250.159 Z" fill="#000000" fill-rule="evenodd" fill-opacity="1" /><path clip-path="url(#clip330)" d="M 0 0 M35.1993 806.109 Q31.2526 803.913 29.3747 800.858 Q27.4968 797.802 27.4968 793.664 Q27.4968 788.094 31.4117 785.071 Q35.2948 782.047 42.4881 782.047 L64.0042 782.047 L64.0042 787.935 L42.679 787.935 Q37.5546 787.935 35.072 789.75 Q32.5894 791.564 32.5894 795.288 Q32.5894 799.839 35.6131 802.481 Q38.6368 805.123 43.8567 805.123 L64.0042 805.123 L64.0042 811.011 L42.679 811.011 Q37.5228 811.011 35.072 812.825 Q32.5894 814.639 32.5894 818.427 Q32.5894 822.915 35.6449 825.557 Q38.6686 828.198 43.8567 828.198 L64.0042 828.198 L64.0042 834.087 L28.3562 834.087 L28.3562 828.198 L33.8944 828.198 Q30.616 826.193 29.0564 823.392 Q27.4968 820.591 27.4968 816.74 Q27.4968 812.857 29.4702 810.152 Q31.4436 807.414 35.1993 806.109 Z" fill="#000000" fill-rule="evenodd" fill-opacity="1" /><path clip-path="url(#clip330)" d="M 0 0 M46.0847 759.703 Q46.0847 766.801 47.7079 769.538 Q49.3312 772.276 53.2461 772.276 Q56.3653 772.276 58.2114 770.239 Q60.0256 768.17 60.0256 764.637 Q60.0256 759.767 56.5881 756.839 Q53.1188 753.879 47.3897 753.879 L46.0847 753.879 L46.0847 759.703 M43.6657 748.022 L64.0042 748.022 L64.0042 753.879 L58.5933 753.879 Q61.8398 755.884 63.3994 758.876 Q64.9272 761.868 64.9272 766.196 Q64.9272 771.671 61.8716 774.917 Q58.7843 778.132 53.6281 778.132 Q47.6125 778.132 44.5569 774.122 Q41.5014 770.079 41.5014 762.091 L41.5014 753.879 L40.9285 753.879 Q36.8862 753.879 34.6901 756.552 Q32.4621 759.194 32.4621 764 Q32.4621 767.056 33.1941 769.952 Q33.9262 772.849 35.3903 775.522 L29.9795 775.522 Q28.7381 772.307 28.1334 769.284 Q27.4968 766.26 27.4968 763.395 Q27.4968 755.661 31.5072 751.842 Q35.5176 748.022 43.6657 748.022 Z" fill="#000000" fill-rule="evenodd" fill-opacity="1" /><path clip-path="url(#clip330)" d="M 0 0 M45.7664 718.422 Q39.4007 718.422 35.8996 721.064 Q32.3984 723.673 32.3984 728.416 Q32.3984 733.127 35.8996 735.768 Q39.4007 738.378 45.7664 738.378 Q52.1003 738.378 55.6014 735.768 Q59.1026 733.127 59.1026 728.416 Q59.1026 723.673 55.6014 721.064 Q52.1003 718.422 45.7664 718.422 M59.58 712.565 Q68.683 712.565 73.1071 716.608 Q77.5631 720.65 77.5631 728.989 Q77.5631 732.076 77.0857 734.813 Q76.6401 737.551 75.6852 740.129 L69.9879 740.129 Q71.3884 737.551 72.0568 735.036 Q72.7252 732.522 72.7252 729.912 Q72.7252 724.151 69.7015 721.286 Q66.7096 718.422 60.6303 718.422 L57.7339 718.422 Q60.885 720.236 62.4446 723.069 Q64.0042 725.901 64.0042 729.848 Q64.0042 736.405 59.0071 740.415 Q54.01 744.426 45.7664 744.426 Q37.491 744.426 32.4939 740.415 Q27.4968 736.405 27.4968 729.848 Q27.4968 725.901 29.0564 723.069 Q30.616 720.236 33.7671 718.422 L28.3562 718.422 L28.3562 712.565 L59.58 712.565 Z" fill="#000000" fill-rule="evenodd" fill-opacity="1" /><path clip-path="url(#clip330)" d="M 0 0 M1061.45 35.9153 Q1064.24 30.8922 1068.13 28.5022 Q1072.02 26.1121 1077.28 26.1121 Q1084.37 26.1121 1088.22 31.0947 Q1092.07 36.0368 1092.07 45.1919 L1092.07 72.576 L1084.58 72.576 L1084.58 45.4349 Q1084.58 38.913 1082.27 35.7533 Q1079.96 32.5936 1075.22 32.5936 Q1069.43 32.5936 1066.06 36.4419 Q1062.7 40.2903 1062.7 46.9338 L1062.7 72.576 L1055.21 72.576 L1055.21 45.4349 Q1055.21 38.8725 1052.9 35.7533 Q1050.59 32.5936 1045.77 32.5936 Q1040.06 32.5936 1036.69 36.4824 Q1033.33 40.3308 1033.33 46.9338 L1033.33 72.576 L1025.84 72.576 L1025.84 27.2059 L1033.33 27.2059 L1033.33 34.2544 Q1035.88 30.082 1039.45 28.0971 Q1043.01 26.1121 1047.92 26.1121 Q1052.86 26.1121 1056.3 28.6237 Q1059.78 31.1352 1061.45 35.9153 Z" fill="#000000" fill-rule="evenodd" fill-opacity="1" /><path clip-path="url(#clip330)" d="M 0 0 M1120.51 49.7694 Q1111.47 49.7694 1107.99 51.8354 Q1104.51 53.9013 1104.51 58.8839 Q1104.51 62.8538 1107.1 65.2034 Q1109.73 67.5124 1114.23 67.5124 Q1120.43 67.5124 1124.15 63.1374 Q1127.92 58.7219 1127.92 51.4303 L1127.92 49.7694 L1120.51 49.7694 M1135.37 46.6907 L1135.37 72.576 L1127.92 72.576 L1127.92 65.6895 Q1125.37 69.8214 1121.56 71.8063 Q1117.75 73.7508 1112.24 73.7508 Q1105.28 73.7508 1101.14 69.8619 Q1097.05 65.9325 1097.05 59.3701 Q1097.05 51.7138 1102.16 47.825 Q1107.3 43.9361 1117.47 43.9361 L1127.92 43.9361 L1127.92 43.2069 Q1127.92 38.0623 1124.52 35.2672 Q1121.16 32.4315 1115.04 32.4315 Q1111.15 32.4315 1107.46 33.3632 Q1103.78 34.295 1100.37 36.1584 L1100.37 29.2718 Q1104.47 27.692 1108.31 26.9223 Q1112.16 26.1121 1115.81 26.1121 Q1125.65 26.1121 1130.51 31.2163 Q1135.37 36.3204 1135.37 46.6907 Z" fill="#000000" fill-rule="evenodd" fill-opacity="1" /><path clip-path="url(#clip330)" d="M 0 0 M1173.05 49.3643 Q1173.05 41.2625 1169.69 36.8065 Q1166.36 32.3505 1160.33 32.3505 Q1154.33 32.3505 1150.97 36.8065 Q1147.65 41.2625 1147.65 49.3643 Q1147.65 57.4256 1150.97 61.8816 Q1154.33 66.3376 1160.33 66.3376 Q1166.36 66.3376 1169.69 61.8816 Q1173.05 57.4256 1173.05 49.3643 M1180.5 66.9452 Q1180.5 78.5308 1175.36 84.1616 Q1170.21 89.8329 1159.6 89.8329 Q1155.67 89.8329 1152.19 89.2252 Q1148.7 88.6581 1145.42 87.4428 L1145.42 80.1917 Q1148.7 81.9741 1151.9 82.8248 Q1155.1 83.6755 1158.42 83.6755 Q1165.76 83.6755 1169.4 79.8271 Q1173.05 76.0193 1173.05 68.282 L1173.05 64.5957 Q1170.74 68.6061 1167.13 70.5911 Q1163.53 72.576 1158.51 72.576 Q1150.16 72.576 1145.06 66.2161 Q1139.95 59.8562 1139.95 49.3643 Q1139.95 38.832 1145.06 32.472 Q1150.16 26.1121 1158.51 26.1121 Q1163.53 26.1121 1167.13 28.0971 Q1170.74 30.082 1173.05 34.0924 L1173.05 27.2059 L1180.5 27.2059 L1180.5 66.9452 Z" fill="#000000" fill-rule="evenodd" fill-opacity="1" /><path clip-path="url(#clip330)" d="M 0 0 M1226.03 45.1919 L1226.03 72.576 L1218.58 72.576 L1218.58 45.4349 Q1218.58 38.994 1216.07 35.7938 Q1213.56 32.5936 1208.53 32.5936 Q1202.5 32.5936 1199.01 36.4419 Q1195.53 40.2903 1195.53 46.9338 L1195.53 72.576 L1188.04 72.576 L1188.04 27.2059 L1195.53 27.2059 L1195.53 34.2544 Q1198.2 30.163 1201.81 28.1376 Q1205.46 26.1121 1210.19 26.1121 Q1218.01 26.1121 1222.02 30.9732 Q1226.03 35.7938 1226.03 45.1919 Z" fill="#000000" fill-rule="evenodd" fill-opacity="1" /><path clip-path="url(#clip330)" d="M 0 0 M1272.66 48.0275 L1272.66 51.6733 L1238.39 51.6733 Q1238.87 59.3701 1243.01 63.421 Q1247.18 67.4314 1254.59 67.4314 Q1258.89 67.4314 1262.9 66.3781 Q1266.95 65.3249 1270.92 63.2184 L1270.92 70.267 Q1266.91 71.9684 1262.69 72.8596 Q1258.48 73.7508 1254.15 73.7508 Q1243.29 73.7508 1236.93 67.4314 Q1230.61 61.1119 1230.61 50.3365 Q1230.61 39.1965 1236.61 32.6746 Q1242.64 26.1121 1252.85 26.1121 Q1262.01 26.1121 1267.31 32.0264 Q1272.66 37.9003 1272.66 48.0275 M1265.21 45.84 Q1265.12 39.7232 1261.76 36.0774 Q1258.44 32.4315 1252.93 32.4315 Q1246.69 32.4315 1242.93 35.9558 Q1239.2 39.4801 1238.63 45.8805 L1265.21 45.84 Z" fill="#000000" fill-rule="evenodd" fill-opacity="1" /><path clip-path="url(#clip330)" d="M 0 0 M1287.85 14.324 L1287.85 27.2059 L1303.2 27.2059 L1303.2 32.9987 L1287.85 32.9987 L1287.85 57.6282 Q1287.85 63.1779 1289.35 64.7578 Q1290.89 66.3376 1295.55 66.3376 L1303.2 66.3376 L1303.2 72.576 L1295.55 72.576 Q1286.92 72.576 1283.64 69.3758 Q1280.36 66.1351 1280.36 57.6282 L1280.36 32.9987 L1274.89 32.9987 L1274.89 27.2059 L1280.36 27.2059 L1280.36 14.324 L1287.85 14.324 Z" fill="#000000" fill-rule="evenodd" fill-opacity="1" /><path clip-path="url(#clip330)" d="M 0 0 M1311.02 27.2059 L1318.48 27.2059 L1318.48 72.576 L1311.02 72.576 L1311.02 27.2059 M1311.02 9.54393 L1318.48 9.54393 L1318.48 18.9825 L1311.02 18.9825 L1311.02 9.54393 Z" fill="#000000" fill-rule="evenodd" fill-opacity="1" /><path clip-path="url(#clip330)" d="M 0 0 M1355.22 28.5427 L1355.22 35.5912 Q1352.06 33.9709 1348.65 33.1607 Q1345.25 32.3505 1341.61 32.3505 Q1336.06 32.3505 1333.26 34.0519 Q1330.51 35.7533 1330.51 39.156 Q1330.51 41.7486 1332.49 43.2475 Q1334.48 44.7058 1340.47 46.0426 L1343.02 46.6097 Q1350.96 48.3111 1354.29 51.4303 Q1357.65 54.509 1357.65 60.0587 Q1357.65 66.3781 1352.62 70.0644 Q1347.64 73.7508 1338.89 73.7508 Q1335.25 73.7508 1331.28 73.0216 Q1327.35 72.3329 1322.97 70.9151 L1322.97 63.2184 Q1327.1 65.3654 1331.11 66.4591 Q1335.12 67.5124 1339.05 67.5124 Q1344.32 67.5124 1347.16 65.73 Q1349.99 63.9071 1349.99 60.6258 Q1349.99 57.5877 1347.93 55.9673 Q1345.9 54.3469 1338.97 52.8481 L1336.38 52.2405 Q1329.45 50.7821 1326.37 47.7845 Q1323.3 44.7463 1323.3 39.4801 Q1323.3 33.0797 1327.83 29.5959 Q1332.37 26.1121 1340.71 26.1121 Q1344.85 26.1121 1348.49 26.7198 Q1352.14 27.3274 1355.22 28.5427 Z" fill="#000000" fill-rule="evenodd" fill-opacity="1" /><path clip-path="url(#clip330)" d="M 0 0 M1386.08 49.7694 Q1377.05 49.7694 1373.57 51.8354 Q1370.08 53.9013 1370.08 58.8839 Q1370.08 62.8538 1372.68 65.2034 Q1375.31 67.5124 1379.81 67.5124 Q1386 67.5124 1389.73 63.1374 Q1393.5 58.7219 1393.5 51.4303 L1393.5 49.7694 L1386.08 49.7694 M1400.95 46.6907 L1400.95 72.576 L1393.5 72.576 L1393.5 65.6895 Q1390.95 69.8214 1387.14 71.8063 Q1383.33 73.7508 1377.82 73.7508 Q1370.85 73.7508 1366.72 69.8619 Q1362.63 65.9325 1362.63 59.3701 Q1362.63 51.7138 1367.73 47.825 Q1372.88 43.9361 1383.05 43.9361 L1393.5 43.9361 L1393.5 43.2069 Q1393.5 38.0623 1390.1 35.2672 Q1386.73 32.4315 1380.62 32.4315 Q1376.73 32.4315 1373.04 33.3632 Q1369.35 34.295 1365.95 36.1584 L1365.95 29.2718 Q1370.04 27.692 1373.89 26.9223 Q1377.74 26.1121 1381.39 26.1121 Q1391.23 26.1121 1396.09 31.2163 Q1400.95 36.3204 1400.95 46.6907 Z" fill="#000000" fill-rule="evenodd" fill-opacity="1" /><path clip-path="url(#clip330)" d="M 0 0 M1416.14 14.324 L1416.14 27.2059 L1431.5 27.2059 L1431.5 32.9987 L1416.14 32.9987 L1416.14 57.6282 Q1416.14 63.1779 1417.64 64.7578 Q1419.18 66.3376 1423.84 66.3376 L1431.5 66.3376 L1431.5 72.576 L1423.84 72.576 Q1415.21 72.576 1411.93 69.3758 Q1408.65 66.1351 1408.65 57.6282 L1408.65 32.9987 L1403.18 32.9987 L1403.18 27.2059 L1408.65 27.2059 L1408.65 14.324 L1416.14 14.324 Z" fill="#000000" fill-rule="evenodd" fill-opacity="1" /><path clip-path="url(#clip330)" d="M 0 0 M1439.31 27.2059 L1446.77 27.2059 L1446.77 72.576 L1439.31 72.576 L1439.31 27.2059 M1439.31 9.54393 L1446.77 9.54393 L1446.77 18.9825 L1439.31 18.9825 L1439.31 9.54393 Z" fill="#000000" fill-rule="evenodd" fill-opacity="1" /><path clip-path="url(#clip330)" d="M 0 0 M1472.17 32.4315 Q1466.17 32.4315 1462.69 37.1306 Q1459.2 41.7891 1459.2 49.9314 Q1459.2 58.0738 1462.65 62.7728 Q1466.13 67.4314 1472.17 67.4314 Q1478.12 67.4314 1481.61 62.7323 Q1485.09 58.0333 1485.09 49.9314 Q1485.09 41.8701 1481.61 37.1711 Q1478.12 32.4315 1472.17 32.4315 M1472.17 26.1121 Q1481.89 26.1121 1487.44 32.4315 Q1492.99 38.7509 1492.99 49.9314 Q1492.99 61.0714 1487.44 67.4314 Q1481.89 73.7508 1472.17 73.7508 Q1462.4 73.7508 1456.85 67.4314 Q1451.34 61.0714 1451.34 49.9314 Q1451.34 38.7509 1456.85 32.4315 Q1462.4 26.1121 1472.17 26.1121 Z" fill="#000000" fill-rule="evenodd" fill-opacity="1" /><path clip-path="url(#clip330)" d="M 0 0 M1538.52 45.1919 L1538.52 72.576 L1531.07 72.576 L1531.07 45.4349 Q1531.07 38.994 1528.56 35.7938 Q1526.04 32.5936 1521.02 32.5936 Q1514.98 32.5936 1511.5 36.4419 Q1508.02 40.2903 1508.02 46.9338 L1508.02 72.576 L1500.52 72.576 L1500.52 27.2059 L1508.02 27.2059 L1508.02 34.2544 Q1510.69 30.163 1514.3 28.1376 Q1517.94 26.1121 1522.68 26.1121 Q1530.5 26.1121 1534.51 30.9732 Q1538.52 35.7938 1538.52 45.1919 Z" fill="#000000" fill-rule="evenodd" fill-opacity="1" /><circle clip-path="url(#clip332)" cx="272.201" cy="160.256" r="14" fill="#009af9" fill-rule="evenodd" fill-opacity="1" stroke="#000000" stroke-opacity="1" stroke-width="3.2"/>
<circle clip-path="url(#clip332)" cx="406.865" cy="176.238" r="14" fill="#009af9" fill-rule="evenodd" fill-opacity="1" stroke="#000000" stroke-opacity="1" stroke-width="3.2"/>
<circle clip-path="url(#clip332)" cx="541.529" cy="194.33" r="14" fill="#009af9" fill-rule="evenodd" fill-opacity="1" stroke="#000000" stroke-opacity="1" stroke-width="3.2"/>
<circle clip-path="url(#clip332)" cx="676.192" cy="215.046" r="14" fill="#009af9" fill-rule="evenodd" fill-opacity="1" stroke="#000000" stroke-opacity="1" stroke-width="3.2"/>
<circle clip-path="url(#clip332)" cx="810.856" cy="239.109" r="14" fill="#009af9" fill-rule="evenodd" fill-opacity="1" stroke="#000000" stroke-opacity="1" stroke-width="3.2"/>
<circle clip-path="url(#clip332)" cx="945.52" cy="267.574" r="14" fill="#009af9" fill-rule="evenodd" fill-opacity="1" stroke="#000000" stroke-opacity="1" stroke-width="3.2"/>
<circle clip-path="url(#clip332)" cx="1080.18" cy="302.067" r="14" fill="#009af9" fill-rule="evenodd" fill-opacity="1" stroke="#000000" stroke-opacity="1" stroke-width="3.2"/>
<circle clip-path="url(#clip332)" cx="1214.85" cy="345.263" r="14" fill="#009af9" fill-rule="evenodd" fill-opacity="1" stroke="#000000" stroke-opacity="1" stroke-width="3.2"/>
<circle clip-path="url(#clip332)" cx="1349.51" cy="401.998" r="14" fill="#009af9" fill-rule="evenodd" fill-opacity="1" stroke="#000000" stroke-opacity="1" stroke-width="3.2"/>
<circle clip-path="url(#clip332)" cx="1484.17" cy="482.332" r="14" fill="#009af9" fill-rule="evenodd" fill-opacity="1" stroke="#000000" stroke-opacity="1" stroke-width="3.2"/>
<circle clip-path="url(#clip332)" cx="1618.84" cy="612.867" r="14" fill="#009af9" fill-rule="evenodd" fill-opacity="1" stroke="#000000" stroke-opacity="1" stroke-width="3.2"/>
<circle clip-path="url(#clip332)" cx="1753.5" cy="919.776" r="14" fill="#009af9" fill-rule="evenodd" fill-opacity="1" stroke="#000000" stroke-opacity="1" stroke-width="3.2"/>
<circle clip-path="url(#clip332)" cx="1888.17" cy="1386.38" r="14" fill="#009af9" fill-rule="evenodd" fill-opacity="1" stroke="#000000" stroke-opacity="1" stroke-width="3.2"/>
<circle clip-path="url(#clip332)" cx="2022.83" cy="1386.4" r="14" fill="#009af9" fill-rule="evenodd" fill-opacity="1" stroke="#000000" stroke-opacity="1" stroke-width="3.2"/>
<circle clip-path="url(#clip332)" cx="2157.49" cy="1386.4" r="14" fill="#009af9" fill-rule="evenodd" fill-opacity="1" stroke="#000000" stroke-opacity="1" stroke-width="3.2"/>
<circle clip-path="url(#clip332)" cx="2292.16" cy="1386.4" r="14" fill="#009af9" fill-rule="evenodd" fill-opacity="1" stroke="#000000" stroke-opacity="1" stroke-width="3.2"/>
<circle clip-path="url(#clip332)" cx="272.201" cy="161.735" r="14" fill="#e26f46" fill-rule="evenodd" fill-opacity="1" stroke="#000000" stroke-opacity="1" stroke-width="3.2"/>
<circle clip-path="url(#clip332)" cx="406.865" cy="178.379" r="14" fill="#e26f46" fill-rule="evenodd" fill-opacity="1" stroke="#000000" stroke-opacity="1" stroke-width="3.2"/>
<circle clip-path="url(#clip332)" cx="541.529" cy="197.487" r="14" fill="#e26f46" fill-rule="evenodd" fill-opacity="1" stroke="#000000" stroke-opacity="1" stroke-width="3.2"/>
<circle clip-path="url(#clip332)" cx="676.192" cy="219.809" r="14" fill="#e26f46" fill-rule="evenodd" fill-opacity="1" stroke="#000000" stroke-opacity="1" stroke-width="3.2"/>
<circle clip-path="url(#clip332)" cx="810.856" cy="246.519" r="14" fill="#e26f46" fill-rule="evenodd" fill-opacity="1" stroke="#000000" stroke-opacity="1" stroke-width="3.2"/>
<circle clip-path="url(#clip332)" cx="945.52" cy="279.596" r="14" fill="#e26f46" fill-rule="evenodd" fill-opacity="1" stroke="#000000" stroke-opacity="1" stroke-width="3.2"/>
<circle clip-path="url(#clip332)" cx="1080.18" cy="322.791" r="14" fill="#e26f46" fill-rule="evenodd" fill-opacity="1" stroke="#000000" stroke-opacity="1" stroke-width="3.2"/>
<circle clip-path="url(#clip332)" cx="1214.85" cy="384.669" r="14" fill="#e26f46" fill-rule="evenodd" fill-opacity="1" stroke="#000000" stroke-opacity="1" stroke-width="3.2"/>
<circle clip-path="url(#clip332)" cx="1349.51" cy="493.019" r="14" fill="#e26f46" fill-rule="evenodd" fill-opacity="1" stroke="#000000" stroke-opacity="1" stroke-width="3.2"/>
<circle clip-path="url(#clip332)" cx="1484.17" cy="1003.69" r="14" fill="#e26f46" fill-rule="evenodd" fill-opacity="1" stroke="#000000" stroke-opacity="1" stroke-width="3.2"/>
<circle clip-path="url(#clip332)" cx="1618.84" cy="1386.4" r="14" fill="#e26f46" fill-rule="evenodd" fill-opacity="1" stroke="#000000" stroke-opacity="1" stroke-width="3.2"/>
<circle clip-path="url(#clip332)" cx="1753.5" cy="1386.4" r="14" fill="#e26f46" fill-rule="evenodd" fill-opacity="1" stroke="#000000" stroke-opacity="1" stroke-width="3.2"/>
<circle clip-path="url(#clip332)" cx="1888.17" cy="1386.4" r="14" fill="#e26f46" fill-rule="evenodd" fill-opacity="1" stroke="#000000" stroke-opacity="1" stroke-width="3.2"/>
<circle clip-path="url(#clip332)" cx="2022.83" cy="1386.4" r="14" fill="#e26f46" fill-rule="evenodd" fill-opacity="1" stroke="#000000" stroke-opacity="1" stroke-width="3.2"/>
<circle clip-path="url(#clip332)" cx="2157.49" cy="1386.4" r="14" fill="#e26f46" fill-rule="evenodd" fill-opacity="1" stroke="#000000" stroke-opacity="1" stroke-width="3.2"/>
<circle clip-path="url(#clip332)" cx="2292.16" cy="1386.4" r="14" fill="#e26f46" fill-rule="evenodd" fill-opacity="1" stroke="#000000" stroke-opacity="1" stroke-width="3.2"/>
<circle clip-path="url(#clip332)" cx="272.201" cy="161.754" r="14" fill="#3da44d" fill-rule="evenodd" fill-opacity="1" stroke="#000000" stroke-opacity="1" stroke-width="3.2"/>
<circle clip-path="url(#clip332)" cx="406.865" cy="178.414" r="14" fill="#3da44d" fill-rule="evenodd" fill-opacity="1" stroke="#000000" stroke-opacity="1" stroke-width="3.2"/>
<circle clip-path="url(#clip332)" cx="541.529" cy="197.551" r="14" fill="#3da44d" fill-rule="evenodd" fill-opacity="1" stroke="#000000" stroke-opacity="1" stroke-width="3.2"/>
<circle clip-path="url(#clip332)" cx="676.192" cy="219.933" r="14" fill="#3da44d" fill-rule="evenodd" fill-opacity="1" stroke="#000000" stroke-opacity="1" stroke-width="3.2"/>
<circle clip-path="url(#clip332)" cx="810.856" cy="246.771" r="14" fill="#3da44d" fill-rule="evenodd" fill-opacity="1" stroke="#000000" stroke-opacity="1" stroke-width="3.2"/>
<circle clip-path="url(#clip332)" cx="945.52" cy="280.154" r="14" fill="#3da44d" fill-rule="evenodd" fill-opacity="1" stroke="#000000" stroke-opacity="1" stroke-width="3.2"/>
<circle clip-path="url(#clip332)" cx="1080.18" cy="324.212" r="14" fill="#3da44d" fill-rule="evenodd" fill-opacity="1" stroke="#000000" stroke-opacity="1" stroke-width="3.2"/>
<circle clip-path="url(#clip332)" cx="1214.85" cy="389.264" r="14" fill="#3da44d" fill-rule="evenodd" fill-opacity="1" stroke="#000000" stroke-opacity="1" stroke-width="3.2"/>
<circle clip-path="url(#clip332)" cx="1349.51" cy="520.19" r="14" fill="#3da44d" fill-rule="evenodd" fill-opacity="1" stroke="#000000" stroke-opacity="1" stroke-width="3.2"/>
<circle clip-path="url(#clip332)" cx="1484.17" cy="1386.39" r="14" fill="#3da44d" fill-rule="evenodd" fill-opacity="1" stroke="#000000" stroke-opacity="1" stroke-width="3.2"/>
<circle clip-path="url(#clip332)" cx="1618.84" cy="1386.4" r="14" fill="#3da44d" fill-rule="evenodd" fill-opacity="1" stroke="#000000" stroke-opacity="1" stroke-width="3.2"/>
<circle clip-path="url(#clip332)" cx="1753.5" cy="1386.4" r="14" fill="#3da44d" fill-rule="evenodd" fill-opacity="1" stroke="#000000" stroke-opacity="1" stroke-width="3.2"/>
<circle clip-path="url(#clip332)" cx="1888.17" cy="1386.4" r="14" fill="#3da44d" fill-rule="evenodd" fill-opacity="1" stroke="#000000" stroke-opacity="1" stroke-width="3.2"/>
<circle clip-path="url(#clip332)" cx="2022.83" cy="1386.4" r="14" fill="#3da44d" fill-rule="evenodd" fill-opacity="1" stroke="#000000" stroke-opacity="1" stroke-width="3.2"/>
<circle clip-path="url(#clip332)" cx="2157.49" cy="1386.4" r="14" fill="#3da44d" fill-rule="evenodd" fill-opacity="1" stroke="#000000" stroke-opacity="1" stroke-width="3.2"/>
<circle clip-path="url(#clip332)" cx="2292.16" cy="1386.4" r="14" fill="#3da44d" fill-rule="evenodd" fill-opacity="1" stroke="#000000" stroke-opacity="1" stroke-width="3.2"/>
<polyline clip-path="url(#clip332)" style="stroke:#c271d2; stroke-width:8; stroke-opacity:1; fill:none" points="
  272.201,161.754 278.934,162.537 285.667,163.325 292.401,164.118 299.134,164.916 305.867,165.719 312.6,166.527 319.333,167.34 326.067,168.158 332.8,168.982 
  339.533,169.811 346.266,170.646 352.999,171.486 359.733,172.332 366.466,173.183 373.199,174.04 379.932,174.903 386.665,175.772 393.398,176.647 400.132,177.527 
  406.865,178.414 413.598,179.307 420.331,180.206 427.064,181.111 433.798,182.023 440.531,182.941 447.264,183.866 453.997,184.797 460.73,185.736 467.464,186.68 
  474.197,187.632 480.93,188.591 487.663,189.557 494.396,190.53 501.129,191.51 507.863,192.498 514.596,193.493 521.329,194.496 528.062,195.506 534.795,196.525 
  541.529,197.551 548.262,198.585 554.995,199.627 561.728,200.678 568.461,201.737 575.195,202.804 581.928,203.881 588.661,204.965 595.394,206.059 602.127,207.162 
  608.86,208.274 615.594,209.395 622.327,210.526 629.06,211.667 635.793,212.817 642.526,213.977 649.26,215.147 655.993,216.328 662.726,217.519 669.459,218.72 
  676.192,219.933 682.926,221.156 689.659,222.391 696.392,223.636 703.125,224.894 709.858,226.163 716.591,227.444 723.325,228.737 730.058,230.043 736.791,231.362 
  743.524,232.693 750.257,234.037 756.991,235.395 763.724,236.766 770.457,238.152 777.19,239.551 783.923,240.965 790.657,242.394 797.39,243.837 804.123,245.296 
  810.856,246.771 817.589,248.262 824.322,249.769 831.056,251.293 837.789,252.833 844.522,254.392 851.255,255.968 857.988,257.562 864.722,259.175 871.455,260.807 
  878.188,262.458 884.921,264.129 891.654,265.821 898.388,267.534 905.121,269.268 911.854,271.024 918.587,272.803 925.32,274.605 932.053,276.431 938.787,278.281 
  945.52,280.156 952.253,282.056 958.986,283.983 965.719,285.937 972.453,287.92 979.186,289.93 985.919,291.971 992.652,294.041 999.385,296.144 1006.12,298.278 
  1012.85,300.446 1019.58,302.648 1026.32,304.885 1033.05,307.16 1039.78,309.472 1046.52,311.823 1053.25,314.215 1059.98,316.649 1066.72,319.126 1073.45,321.648 
  1080.18,324.218 1086.92,326.835 1093.65,329.503 1100.38,332.224 1107.12,335 1113.85,337.832 1120.58,340.723 1127.32,343.677 1134.05,346.695 1140.78,349.781 
  1147.52,352.938 1154.25,356.169 1160.98,359.478 1167.71,362.87 1174.45,366.347 1181.18,369.915 1187.91,373.579 1194.65,377.345 1201.38,381.218 1208.11,385.204 
  1214.85,389.312 1221.58,393.549 1228.31,397.924 1235.05,402.445 1241.78,407.125 1248.51,411.975 1255.25,417.008 1261.98,422.24 1268.71,427.687 1275.45,433.369 
  1282.18,439.308 1288.91,445.53 1295.65,452.066 1302.38,458.949 1309.11,466.221 1315.85,473.933 1322.58,482.143 1329.31,490.925 1336.04,500.37 1342.78,510.595 
  1349.51,521.75 1356.24,534.033 1362.98,547.721 1369.71,563.203 1376.44,581.07 1383.18,602.274 1389.91,628.508 1396.64,663.304 1403.38,716.47 1410.11,855.109 
  1416.84,1386.4 1423.58,1386.4 1430.31,1386.4 1437.04,1386.4 1443.78,1386.4 1450.51,1386.4 1457.24,1386.4 1463.98,1386.4 1470.71,1386.4 1477.44,1386.4 
  1484.17,1386.4 1490.91,1386.4 1497.64,1386.4 1504.37,1386.4 1511.11,1386.4 1517.84,1386.4 1524.57,1386.4 1531.31,1386.4 1538.04,1386.4 1544.77,1386.4 
  1551.51,1386.4 1558.24,1386.4 1564.97,1386.4 1571.71,1386.4 1578.44,1386.4 1585.17,1386.4 1591.91,1386.4 1598.64,1386.4 1605.37,1386.4 1612.11,1386.4 
  1618.84,1386.4 1625.57,1386.4 1632.3,1386.4 1639.04,1386.4 1645.77,1386.4 1652.5,1386.4 1659.24,1386.4 1665.97,1386.4 1672.7,1386.4 1679.44,1386.4 
  1686.17,1386.4 1692.9,1386.4 1699.64,1386.4 1706.37,1386.4 1713.1,1386.4 1719.84,1386.4 1726.57,1386.4 1733.3,1386.4 1740.04,1386.4 1746.77,1386.4 
  1753.5,1386.4 1760.24,1386.4 1766.97,1386.4 1773.7,1386.4 1780.44,1386.4 1787.17,1386.4 1793.9,1386.4 1800.63,1386.4 1807.37,1386.4 1814.1,1386.4 
  1820.83,1386.4 1827.57,1386.4 1834.3,1386.4 1841.03,1386.4 1847.77,1386.4 1854.5,1386.4 1861.23,1386.4 1867.97,1386.4 1874.7,1386.4 1881.43,1386.4 
  1888.17,1386.4 1894.9,1386.4 1901.63,1386.4 1908.37,1386.4 1915.1,1386.4 1921.83,1386.4 1928.57,1386.4 1935.3,1386.4 1942.03,1386.4 1948.76,1386.4 
  1955.5,1386.4 1962.23,1386.4 1968.96,1386.4 1975.7,1386.4 1982.43,1386.4 1989.16,1386.4 1995.9,1386.4 2002.63,1386.4 2009.36,1386.4 2016.1,1386.4 
  2022.83,1386.4 2029.56,1386.4 2036.3,1386.4 2043.03,1386.4 2049.76,1386.4 2056.5,1386.4 2063.23,1386.4 2069.96,1386.4 2076.7,1386.4 2083.43,1386.4 
  2090.16,1386.4 2096.89,1386.4 2103.63,1386.4 2110.36,1386.4 2117.09,1386.4 2123.83,1386.4 2130.56,1386.4 2137.29,1386.4 2144.03,1386.4 2150.76,1386.4 
  2157.49,1386.4 2164.23,1386.4 2170.96,1386.4 2177.69,1386.4 2184.43,1386.4 2191.16,1386.4 2197.89,1386.4 2204.63,1386.4 2211.36,1386.4 2218.09,1386.4 
  2224.83,1386.4 2231.56,1386.4 2238.29,1386.4 2245.02,1386.4 2251.76,1386.4 2258.49,1386.4 2265.22,1386.4 2271.96,1386.4 2278.69,1386.4 2285.42,1386.4 
  2292.16,1386.4 
  "/>
<path clip-path="url(#clip330)" d="
M1757.11 469.196 L2281.38 469.196 L2281.38 166.796 L1757.11 166.796  Z
  " fill="#ffffff" fill-rule="evenodd" fill-opacity="1"/>
<polyline clip-path="url(#clip330)" style="stroke:#000000; stroke-width:4; stroke-opacity:1; fill:none" points="
  1757.11,469.196 2281.38,469.196 2281.38,166.796 1757.11,166.796 1757.11,469.196 
  "/>
<circle clip-path="url(#clip330)" cx="1852.28" cy="227.276" r="23" fill="#009af9" fill-rule="evenodd" fill-opacity="1" stroke="#000000" stroke-opacity="1" stroke-width="5.12"/>
<path clip-path="url(#clip330)" d="M 0 0 M1960.63 244.556 L1947.44 209.996 L1952.32 209.996 L1963.27 239.093 L1974.24 209.996 L1979.11 209.996 L1965.93 244.556 L1960.63 244.556 Z" fill="#000000" fill-rule="evenodd" fill-opacity="1" /><path clip-path="url(#clip330)" d="M 0 0 M1983.23 209.996 L1987.92 209.996 L1987.92 230.991 Q1987.92 236.547 1989.94 239 Q1991.95 241.431 1996.47 241.431 Q2000.96 241.431 2002.97 239 Q2004.98 236.547 2004.98 230.991 L2004.98 209.996 L2009.68 209.996 L2009.68 231.57 Q2009.68 238.329 2006.33 241.778 Q2002.99 245.227 1996.47 245.227 Q1989.92 245.227 1986.56 241.778 Q1983.23 238.329 1983.23 231.57 L1983.23 209.996 Z" fill="#000000" fill-rule="evenodd" fill-opacity="1" /><path clip-path="url(#clip330)" d="M 0 0 M2014.34 209.996 L2021.3 209.996 L2030.12 233.514 L2038.99 209.996 L2045.96 209.996 L2045.96 244.556 L2041.4 244.556 L2041.4 214.209 L2032.48 237.912 L2027.79 237.912 L2018.87 214.209 L2018.87 244.556 L2014.34 244.556 L2014.34 209.996 Z" fill="#000000" fill-rule="evenodd" fill-opacity="1" /><path clip-path="url(#clip330)" d="M 0 0 M2055.29 213.838 L2055.29 226.824 L2061.16 226.824 Q2064.43 226.824 2066.21 225.135 Q2067.99 223.445 2067.99 220.32 Q2067.99 217.218 2066.21 215.528 Q2064.43 213.838 2061.16 213.838 L2055.29 213.838 M2050.61 209.996 L2061.16 209.996 Q2066.98 209.996 2069.94 212.635 Q2072.92 215.25 2072.92 220.32 Q2072.92 225.435 2069.94 228.051 Q2066.98 230.667 2061.16 230.667 L2055.29 230.667 L2055.29 244.556 L2050.61 244.556 L2050.61 209.996 Z" fill="#000000" fill-rule="evenodd" fill-opacity="1" /><path clip-path="url(#clip330)" d="M 0 0 M2098.29 211.13 L2098.29 215.69 Q2095.63 214.417 2093.27 213.792 Q2090.91 213.167 2088.71 213.167 Q2084.89 213.167 2082.81 214.648 Q2080.75 216.13 2080.75 218.861 Q2080.75 221.153 2082.11 222.334 Q2083.5 223.491 2087.35 224.209 L2090.17 224.787 Q2095.4 225.783 2097.88 228.306 Q2100.38 230.806 2100.38 235.019 Q2100.38 240.042 2097 242.634 Q2093.64 245.227 2087.14 245.227 Q2084.68 245.227 2081.91 244.671 Q2079.15 244.116 2076.19 243.028 L2076.19 238.213 Q2079.04 239.81 2081.77 240.621 Q2084.5 241.431 2087.14 241.431 Q2091.14 241.431 2093.32 239.857 Q2095.49 238.283 2095.49 235.366 Q2095.49 232.82 2093.92 231.384 Q2092.37 229.949 2088.8 229.232 L2085.96 228.676 Q2080.73 227.635 2078.39 225.412 Q2076.05 223.19 2076.05 219.232 Q2076.05 214.648 2079.27 212.01 Q2082.51 209.371 2088.18 209.371 Q2090.61 209.371 2093.13 209.811 Q2095.66 210.25 2098.29 211.13 Z" fill="#000000" fill-rule="evenodd" fill-opacity="1" /><path clip-path="url(#clip330)" d="M 0 0 M2132.39 250.343 L2128.94 241.477 L2121.84 254.44 L2116.81 254.44 L2126.86 236.107 L2122.65 225.204 Q2121.51 222.287 2117.95 222.287 L2116.81 222.287 L2116.81 218.63 L2118.43 218.676 Q2124.41 218.838 2125.91 222.704 L2129.34 231.57 L2136.44 218.607 L2141.47 218.607 L2131.42 236.94 L2135.63 247.843 Q2136.77 250.759 2140.33 250.759 L2141.47 250.759 L2141.47 254.417 L2139.85 254.37 Q2133.87 254.208 2132.39 250.343 Z" fill="#000000" fill-rule="evenodd" fill-opacity="1" /><path clip-path="url(#clip330)" d="M 0 0 M2161.56 223.028 L2191.23 223.028 L2191.23 226.917 L2161.56 226.917 L2161.56 223.028 M2161.56 232.472 L2191.23 232.472 L2191.23 236.408 L2161.56 236.408 L2161.56 232.472 Z" fill="#000000" fill-rule="evenodd" fill-opacity="1" /><path clip-path="url(#clip330)" d="M 0 0 M2215.4 240.621 L2231.72 240.621 L2231.72 244.556 L2209.78 244.556 L2209.78 240.621 Q2212.44 237.866 2217.02 233.236 Q2221.63 228.584 2222.81 227.241 Q2225.05 224.718 2225.93 222.982 Q2226.84 221.223 2226.84 219.533 Q2226.84 216.778 2224.89 215.042 Q2222.97 213.306 2219.87 213.306 Q2217.67 213.306 2215.22 214.07 Q2212.78 214.834 2210.01 216.385 L2210.01 211.662 Q2212.83 210.528 2215.28 209.949 Q2217.74 209.371 2219.78 209.371 Q2225.15 209.371 2228.34 212.056 Q2231.53 214.741 2231.53 219.232 Q2231.53 221.361 2230.72 223.283 Q2229.94 225.181 2227.83 227.773 Q2227.25 228.445 2224.15 231.662 Q2221.05 234.857 2215.4 240.621 Z" fill="#000000" fill-rule="evenodd" fill-opacity="1" /><circle clip-path="url(#clip330)" cx="1852.28" cy="287.756" r="23" fill="#e26f46" fill-rule="evenodd" fill-opacity="1" stroke="#000000" stroke-opacity="1" stroke-width="5.12"/>
<path clip-path="url(#clip330)" d="M 0 0 M1960.63 305.036 L1947.44 270.476 L1952.32 270.476 L1963.27 299.573 L1974.24 270.476 L1979.11 270.476 L1965.93 305.036 L1960.63 305.036 Z" fill="#000000" fill-rule="evenodd" fill-opacity="1" /><path clip-path="url(#clip330)" d="M 0 0 M1983.23 270.476 L1987.92 270.476 L1987.92 291.471 Q1987.92 297.027 1989.94 299.48 Q1991.95 301.911 1996.47 301.911 Q2000.96 301.911 2002.97 299.48 Q2004.98 297.027 2004.98 291.471 L2004.98 270.476 L2009.68 270.476 L2009.68 292.05 Q2009.68 298.809 2006.33 302.258 Q2002.99 305.707 1996.47 305.707 Q1989.92 305.707 1986.56 302.258 Q1983.23 298.809 1983.23 292.05 L1983.23 270.476 Z" fill="#000000" fill-rule="evenodd" fill-opacity="1" /><path clip-path="url(#clip330)" d="M 0 0 M2014.34 270.476 L2021.3 270.476 L2030.12 293.994 L2038.99 270.476 L2045.96 270.476 L2045.96 305.036 L2041.4 305.036 L2041.4 274.689 L2032.48 298.392 L2027.79 298.392 L2018.87 274.689 L2018.87 305.036 L2014.34 305.036 L2014.34 270.476 Z" fill="#000000" fill-rule="evenodd" fill-opacity="1" /><path clip-path="url(#clip330)" d="M 0 0 M2055.29 274.318 L2055.29 287.304 L2061.16 287.304 Q2064.43 287.304 2066.21 285.615 Q2067.99 283.925 2067.99 280.8 Q2067.99 277.698 2066.21 276.008 Q2064.43 274.318 2061.16 274.318 L2055.29 274.318 M2050.61 270.476 L2061.16 270.476 Q2066.98 270.476 2069.94 273.115 Q2072.92 275.73 2072.92 280.8 Q2072.92 285.915 2069.94 288.531 Q2066.98 291.147 2061.16 291.147 L2055.29 291.147 L2055.29 305.036 L2050.61 305.036 L2050.61 270.476 Z" fill="#000000" fill-rule="evenodd" fill-opacity="1" /><path clip-path="url(#clip330)" d="M 0 0 M2098.29 271.61 L2098.29 276.17 Q2095.63 274.897 2093.27 274.272 Q2090.91 273.647 2088.71 273.647 Q2084.89 273.647 2082.81 275.128 Q2080.75 276.61 2080.75 279.341 Q2080.75 281.633 2082.11 282.814 Q2083.5 283.971 2087.35 284.689 L2090.17 285.267 Q2095.4 286.263 2097.88 288.786 Q2100.38 291.286 2100.38 295.499 Q2100.38 300.522 2097 303.114 Q2093.64 305.707 2087.14 305.707 Q2084.68 305.707 2081.91 305.151 Q2079.15 304.596 2076.19 303.508 L2076.19 298.693 Q2079.04 300.29 2081.77 301.101 Q2084.5 301.911 2087.14 301.911 Q2091.14 301.911 2093.32 300.337 Q2095.49 298.763 2095.49 295.846 Q2095.49 293.3 2093.92 291.864 Q2092.37 290.429 2088.8 289.712 L2085.96 289.156 Q2080.73 288.115 2078.39 285.892 Q2076.05 283.67 2076.05 279.712 Q2076.05 275.128 2079.27 272.49 Q2082.51 269.851 2088.18 269.851 Q2090.61 269.851 2093.13 270.291 Q2095.66 270.73 2098.29 271.61 Z" fill="#000000" fill-rule="evenodd" fill-opacity="1" /><path clip-path="url(#clip330)" d="M 0 0 M2132.39 310.823 L2128.94 301.957 L2121.84 314.92 L2116.81 314.92 L2126.86 296.587 L2122.65 285.684 Q2121.51 282.767 2117.95 282.767 L2116.81 282.767 L2116.81 279.11 L2118.43 279.156 Q2124.41 279.318 2125.91 283.184 L2129.34 292.05 L2136.44 279.087 L2141.47 279.087 L2131.42 297.42 L2135.63 308.323 Q2136.77 311.239 2140.33 311.239 L2141.47 311.239 L2141.47 314.897 L2139.85 314.85 Q2133.87 314.688 2132.39 310.823 Z" fill="#000000" fill-rule="evenodd" fill-opacity="1" /><path clip-path="url(#clip330)" d="M 0 0 M2161.56 283.508 L2191.23 283.508 L2191.23 287.397 L2161.56 287.397 L2161.56 283.508 M2161.56 292.952 L2191.23 292.952 L2191.23 296.888 L2161.56 296.888 L2161.56 292.952 Z" fill="#000000" fill-rule="evenodd" fill-opacity="1" /><path clip-path="url(#clip330)" d="M 0 0 M2224.22 274.55 L2212.41 292.999 L2224.22 292.999 L2224.22 274.55 M2222.99 270.476 L2228.87 270.476 L2228.87 292.999 L2233.8 292.999 L2233.8 296.888 L2228.87 296.888 L2228.87 305.036 L2224.22 305.036 L2224.22 296.888 L2208.62 296.888 L2208.62 292.374 L2222.99 270.476 Z" fill="#000000" fill-rule="evenodd" fill-opacity="1" /><circle clip-path="url(#clip330)" cx="1852.28" cy="348.236" r="23" fill="#3da44d" fill-rule="evenodd" fill-opacity="1" stroke="#000000" stroke-opacity="1" stroke-width="5.12"/>
<path clip-path="url(#clip330)" d="M 0 0 M1960.63 365.516 L1947.44 330.956 L1952.32 330.956 L1963.27 360.053 L1974.24 330.956 L1979.11 330.956 L1965.93 365.516 L1960.63 365.516 Z" fill="#000000" fill-rule="evenodd" fill-opacity="1" /><path clip-path="url(#clip330)" d="M 0 0 M1983.23 330.956 L1987.92 330.956 L1987.92 351.951 Q1987.92 357.507 1989.94 359.96 Q1991.95 362.391 1996.47 362.391 Q2000.96 362.391 2002.97 359.96 Q2004.98 357.507 2004.98 351.951 L2004.98 330.956 L2009.68 330.956 L2009.68 352.53 Q2009.68 359.289 2006.33 362.738 Q2002.99 366.187 1996.47 366.187 Q1989.92 366.187 1986.56 362.738 Q1983.23 359.289 1983.23 352.53 L1983.23 330.956 Z" fill="#000000" fill-rule="evenodd" fill-opacity="1" /><path clip-path="url(#clip330)" d="M 0 0 M2014.34 330.956 L2021.3 330.956 L2030.12 354.474 L2038.99 330.956 L2045.96 330.956 L2045.96 365.516 L2041.4 365.516 L2041.4 335.169 L2032.48 358.872 L2027.79 358.872 L2018.87 335.169 L2018.87 365.516 L2014.34 365.516 L2014.34 330.956 Z" fill="#000000" fill-rule="evenodd" fill-opacity="1" /><path clip-path="url(#clip330)" d="M 0 0 M2055.29 334.798 L2055.29 347.784 L2061.16 347.784 Q2064.43 347.784 2066.21 346.095 Q2067.99 344.405 2067.99 341.28 Q2067.99 338.178 2066.21 336.488 Q2064.43 334.798 2061.16 334.798 L2055.29 334.798 M2050.61 330.956 L2061.16 330.956 Q2066.98 330.956 2069.94 333.595 Q2072.92 336.21 2072.92 341.28 Q2072.92 346.395 2069.94 349.011 Q2066.98 351.627 2061.16 351.627 L2055.29 351.627 L2055.29 365.516 L2050.61 365.516 L2050.61 330.956 Z" fill="#000000" fill-rule="evenodd" fill-opacity="1" /><path clip-path="url(#clip330)" d="M 0 0 M2098.29 332.09 L2098.29 336.65 Q2095.63 335.377 2093.27 334.752 Q2090.91 334.127 2088.71 334.127 Q2084.89 334.127 2082.81 335.608 Q2080.75 337.09 2080.75 339.821 Q2080.75 342.113 2082.11 343.294 Q2083.5 344.451 2087.35 345.169 L2090.17 345.747 Q2095.4 346.743 2097.88 349.266 Q2100.38 351.766 2100.38 355.979 Q2100.38 361.002 2097 363.594 Q2093.64 366.187 2087.14 366.187 Q2084.68 366.187 2081.91 365.631 Q2079.15 365.076 2076.19 363.988 L2076.19 359.173 Q2079.04 360.77 2081.77 361.581 Q2084.5 362.391 2087.14 362.391 Q2091.14 362.391 2093.32 360.817 Q2095.49 359.243 2095.49 356.326 Q2095.49 353.78 2093.92 352.344 Q2092.37 350.909 2088.8 350.192 L2085.96 349.636 Q2080.73 348.595 2078.39 346.372 Q2076.05 344.15 2076.05 340.192 Q2076.05 335.608 2079.27 332.97 Q2082.51 330.331 2088.18 330.331 Q2090.61 330.331 2093.13 330.771 Q2095.66 331.21 2098.29 332.09 Z" fill="#000000" fill-rule="evenodd" fill-opacity="1" /><path clip-path="url(#clip330)" d="M 0 0 M2132.39 371.303 L2128.94 362.437 L2121.84 375.4 L2116.81 375.4 L2126.86 357.067 L2122.65 346.164 Q2121.51 343.247 2117.95 343.247 L2116.81 343.247 L2116.81 339.59 L2118.43 339.636 Q2124.41 339.798 2125.91 343.664 L2129.34 352.53 L2136.44 339.567 L2141.47 339.567 L2131.42 357.9 L2135.63 368.803 Q2136.77 371.719 2140.33 371.719 L2141.47 371.719 L2141.47 375.377 L2139.85 375.33 Q2133.87 375.168 2132.39 371.303 Z" fill="#000000" fill-rule="evenodd" fill-opacity="1" /><path clip-path="url(#clip330)" d="M 0 0 M2161.56 343.988 L2191.23 343.988 L2191.23 347.877 L2161.56 347.877 L2161.56 343.988 M2161.56 353.432 L2191.23 353.432 L2191.23 357.368 L2161.56 357.368 L2161.56 353.432 Z" fill="#000000" fill-rule="evenodd" fill-opacity="1" /><path clip-path="url(#clip330)" d="M 0 0 M2221.37 349.104 Q2218.04 349.104 2216.12 350.886 Q2214.22 352.669 2214.22 355.794 Q2214.22 358.919 2216.12 360.701 Q2218.04 362.483 2221.37 362.483 Q2224.71 362.483 2226.63 360.701 Q2228.55 358.895 2228.55 355.794 Q2228.55 352.669 2226.63 350.886 Q2224.73 349.104 2221.37 349.104 M2216.7 347.113 Q2213.69 346.372 2212 344.312 Q2210.33 342.252 2210.33 339.289 Q2210.33 335.146 2213.27 332.738 Q2216.23 330.331 2221.37 330.331 Q2226.53 330.331 2229.47 332.738 Q2232.41 335.146 2232.41 339.289 Q2232.41 342.252 2230.72 344.312 Q2229.06 346.372 2226.07 347.113 Q2229.45 347.9 2231.33 350.192 Q2233.22 352.483 2233.22 355.794 Q2233.22 360.817 2230.15 363.502 Q2227.09 366.187 2221.37 366.187 Q2215.65 366.187 2212.58 363.502 Q2209.52 360.817 2209.52 355.794 Q2209.52 352.483 2211.42 350.192 Q2213.32 347.9 2216.7 347.113 M2214.98 339.729 Q2214.98 342.414 2216.65 343.919 Q2218.34 345.423 2221.37 345.423 Q2224.38 345.423 2226.07 343.919 Q2227.78 342.414 2227.78 339.729 Q2227.78 337.044 2226.07 335.539 Q2224.38 334.034 2221.37 334.034 Q2218.34 334.034 2216.65 335.539 Q2214.98 337.044 2214.98 339.729 Z" fill="#000000" fill-rule="evenodd" fill-opacity="1" /><polyline clip-path="url(#clip330)" style="stroke:#c271d2; stroke-width:4; stroke-opacity:1; fill:none" points="
  1780.9,408.716 1923.65,408.716 
  "/>
<path clip-path="url(#clip330)" d="M 0 0 M1971.47 411.968 L1971.47 414.051 L1951.88 414.051 Q1952.16 418.449 1954.52 420.764 Q1956.91 423.056 1961.14 423.056 Q1963.6 423.056 1965.89 422.454 Q1968.2 421.852 1970.47 420.649 L1970.47 424.676 Q1968.18 425.648 1965.77 426.158 Q1963.36 426.667 1960.89 426.667 Q1954.68 426.667 1951.05 423.056 Q1947.44 419.445 1947.44 413.287 Q1947.44 406.922 1950.86 403.195 Q1954.31 399.445 1960.15 399.445 Q1965.38 399.445 1968.41 402.825 Q1971.47 406.181 1971.47 411.968 M1967.21 410.718 Q1967.16 407.223 1965.24 405.139 Q1963.34 403.056 1960.19 403.056 Q1956.63 403.056 1954.48 405.07 Q1952.35 407.084 1952.02 410.741 L1967.21 410.718 Z" fill="#000000" fill-rule="evenodd" fill-opacity="1" /><path clip-path="url(#clip330)" d="M 0 0 M1996.65 400.07 L1987.28 412.686 L1997.14 425.996 L1992.11 425.996 L1984.57 415.811 L1977.02 425.996 L1972 425.996 L1982.07 412.431 L1972.86 400.07 L1977.88 400.07 L1984.75 409.306 L1991.63 400.07 L1996.65 400.07 Z" fill="#000000" fill-rule="evenodd" fill-opacity="1" /><path clip-path="url(#clip330)" d="M 0 0 M2013.39 412.963 Q2008.23 412.963 2006.23 414.144 Q2004.24 415.324 2004.24 418.172 Q2004.24 420.44 2005.73 421.783 Q2007.23 423.102 2009.8 423.102 Q2013.34 423.102 2015.47 420.602 Q2017.62 418.079 2017.62 413.912 L2017.62 412.963 L2013.39 412.963 M2021.88 411.204 L2021.88 425.996 L2017.62 425.996 L2017.62 422.061 Q2016.17 424.422 2013.99 425.556 Q2011.81 426.667 2008.67 426.667 Q2004.68 426.667 2002.32 424.445 Q1999.98 422.199 1999.98 418.449 Q1999.98 414.074 2002.9 411.852 Q2005.84 409.63 2011.65 409.63 L2017.62 409.63 L2017.62 409.213 Q2017.62 406.274 2015.68 404.676 Q2013.76 403.056 2010.26 403.056 Q2008.04 403.056 2005.93 403.588 Q2003.83 404.121 2001.88 405.186 L2001.88 401.25 Q2004.22 400.348 2006.42 399.908 Q2008.62 399.445 2010.7 399.445 Q2016.33 399.445 2019.11 402.362 Q2021.88 405.278 2021.88 411.204 Z" fill="#000000" fill-rule="evenodd" fill-opacity="1" /><path clip-path="url(#clip330)" d="M 0 0 M2045.01 401.065 L2045.01 405.047 Q2043.2 404.051 2041.37 403.565 Q2039.57 403.056 2037.72 403.056 Q2033.57 403.056 2031.28 405.695 Q2028.99 408.311 2028.99 413.056 Q2028.99 417.801 2031.28 420.44 Q2033.57 423.056 2037.72 423.056 Q2039.57 423.056 2041.37 422.57 Q2043.2 422.061 2045.01 421.065 L2045.01 425 Q2043.23 425.834 2041.3 426.25 Q2039.41 426.667 2037.25 426.667 Q2031.4 426.667 2027.95 422.986 Q2024.5 419.306 2024.5 413.056 Q2024.5 406.713 2027.97 403.079 Q2031.47 399.445 2037.53 399.445 Q2039.5 399.445 2041.37 399.862 Q2043.25 400.255 2045.01 401.065 Z" fill="#000000" fill-rule="evenodd" fill-opacity="1" /><path clip-path="url(#clip330)" d="M 0 0 M2053.69 392.709 L2053.69 400.07 L2062.46 400.07 L2062.46 403.38 L2053.69 403.38 L2053.69 417.454 Q2053.69 420.625 2054.54 421.528 Q2055.42 422.431 2058.09 422.431 L2062.46 422.431 L2062.46 425.996 L2058.09 425.996 Q2053.16 425.996 2051.28 424.167 Q2049.41 422.315 2049.41 417.454 L2049.41 403.38 L2046.28 403.38 L2046.28 400.07 L2049.41 400.07 L2049.41 392.709 L2053.69 392.709 Z" fill="#000000" fill-rule="evenodd" fill-opacity="1" /></svg>
