<?xml version="1.0" encoding="utf-8"?>
<svg xmlns="http://www.w3.org/2000/svg" xmlns:xlink="http://www.w3.org/1999/xlink" width="600" height="400" viewBox="0 0 2400 1600">
<defs>
  <clipPath id="clip740">
    <rect x="0" y="0" width="2400" height="1600"/>
  </clipPath>
</defs>
<path clip-path="url(#clip740)" d="
M0 1600 L2400 1600 L2400 0 L0 0  Z
  " fill="#ffffff" fill-rule="evenodd" fill-opacity="1"/>
<defs>
  <clipPath id="clip741">
    <rect x="480" y="0" width="1681" height="1600"/>
  </clipPath>
</defs>
<path clip-path="url(#clip740)" d="
M175.445 1423.18 L2352.76 1423.18 L2352.76 123.472 L175.445 123.472  Z
  " fill="#ffffff" fill-rule="evenodd" fill-opacity="1"/>
<defs>
  <clipPath id="clip742">
    <rect x="175" y="123" width="2178" height="1301"/>
  </clipPath>
</defs>
<polyline clip-path="url(#clip742)" style="stroke:#000000; stroke-width:2; stroke-opacity:0.1; fill:none" points="
  465.297,1423.18 465.297,123.472 
  "/>
<polyline clip-path="url(#clip742)" style="stroke:#000000; stroke-width:2; stroke-opacity:0.1; fill:none" points="
  921.756,1423.18 921.756,123.472 
  "/>
<polyline clip-path="url(#clip742)" style="stroke:#000000; stroke-width:2; stroke-opacity:0.1; fill:none" points="
  1378.22,1423.18 1378.22,123.472 
  "/>
<polyline clip-path="url(#clip742)" style="stroke:#000000; stroke-width:2; stroke-opacity:0.1; fill:none" points="
  1834.67,1423.18 1834.67,123.472 
  "/>
<polyline clip-path="url(#clip742)" style="stroke:#000000; stroke-width:2; stroke-opacity:0.1; fill:none" points="
  2291.13,1423.18 2291.13,123.472 
  "/>
<polyline clip-path="url(#clip740)" style="stroke:#000000; stroke-width:4; stroke-opacity:1; fill:none" points="
  175.445,1423.18 2352.76,1423.18 
  "/>
<polyline clip-path="url(#clip740)" style="stroke:#000000; stroke-width:4; stroke-opacity:1; fill:none" points="
  465.297,1423.18 465.297,1407.58 
  "/>
<polyline clip-path="url(#clip740)" style="stroke:#000000; stroke-width:4; stroke-opacity:1; fill:none" points="
  921.756,1423.18 921.756,1407.58 
  "/>
<polyline clip-path="url(#clip740)" style="stroke:#000000; stroke-width:4; stroke-opacity:1; fill:none" points="
  1378.22,1423.18 1378.22,1407.58 
  "/>
<polyline clip-path="url(#clip740)" style="stroke:#000000; stroke-width:4; stroke-opacity:1; fill:none" points="
  1834.67,1423.18 1834.67,1407.58 
  "/>
<polyline clip-path="url(#clip740)" style="stroke:#000000; stroke-width:4; stroke-opacity:1; fill:none" points="
  2291.13,1423.18 2291.13,1407.58 
  "/>
<path clip-path="url(#clip740)" d="M 0 0 M447.612 1452.37 Q444.001 1452.37 442.172 1455.94 Q440.366 1459.48 440.366 1466.61 Q440.366 1473.71 442.172 1477.28 Q444.001 1480.82 447.612 1480.82 Q451.246 1480.82 453.052 1477.28 Q454.88 1473.71 454.88 1466.61 Q454.88 1459.48 453.052 1455.94 Q451.246 1452.37 447.612 1452.37 M447.612 1448.67 Q453.422 1448.67 456.477 1453.27 Q459.556 1457.86 459.556 1466.61 Q459.556 1475.33 456.477 1479.94 Q453.422 1484.52 447.612 1484.52 Q441.802 1484.52 438.723 1479.94 Q435.667 1475.33 435.667 1466.61 Q435.667 1457.86 438.723 1453.27 Q441.802 1448.67 447.612 1448.67 Z" fill="#000000" fill-rule="evenodd" fill-opacity="1" /><path clip-path="url(#clip740)" d="M 0 0 M464.626 1477.97 L469.51 1477.97 L469.51 1483.85 L464.626 1483.85 L464.626 1477.97 Z" fill="#000000" fill-rule="evenodd" fill-opacity="1" /><path clip-path="url(#clip740)" d="M 0 0 M478.607 1479.92 L494.926 1479.92 L494.926 1483.85 L472.982 1483.85 L472.982 1479.92 Q475.644 1477.16 480.227 1472.53 Q484.834 1467.88 486.014 1466.54 Q488.26 1464.01 489.139 1462.28 Q490.042 1460.52 490.042 1458.83 Q490.042 1456.07 488.098 1454.34 Q486.176 1452.6 483.075 1452.6 Q480.875 1452.6 478.422 1453.37 Q475.991 1454.13 473.213 1455.68 L473.213 1450.96 Q476.038 1449.82 478.491 1449.25 Q480.945 1448.67 482.982 1448.67 Q488.352 1448.67 491.547 1451.35 Q494.741 1454.04 494.741 1458.53 Q494.741 1460.66 493.931 1462.58 Q493.144 1464.48 491.037 1467.07 Q490.459 1467.74 487.357 1470.96 Q484.255 1474.15 478.607 1479.92 Z" fill="#000000" fill-rule="evenodd" fill-opacity="1" /><path clip-path="url(#clip740)" d="M 0 0 M903.029 1452.37 Q899.418 1452.37 897.59 1455.94 Q895.784 1459.48 895.784 1466.61 Q895.784 1473.71 897.59 1477.28 Q899.418 1480.82 903.029 1480.82 Q906.664 1480.82 908.469 1477.28 Q910.298 1473.71 910.298 1466.61 Q910.298 1459.48 908.469 1455.94 Q906.664 1452.37 903.029 1452.37 M903.029 1448.67 Q908.84 1448.67 911.895 1453.27 Q914.974 1457.86 914.974 1466.61 Q914.974 1475.33 911.895 1479.94 Q908.84 1484.52 903.029 1484.52 Q897.219 1484.52 894.141 1479.94 Q891.085 1475.33 891.085 1466.61 Q891.085 1457.86 894.141 1453.27 Q897.219 1448.67 903.029 1448.67 Z" fill="#000000" fill-rule="evenodd" fill-opacity="1" /><path clip-path="url(#clip740)" d="M 0 0 M920.043 1477.97 L924.927 1477.97 L924.927 1483.85 L920.043 1483.85 L920.043 1477.97 Z" fill="#000000" fill-rule="evenodd" fill-opacity="1" /><path clip-path="url(#clip740)" d="M 0 0 M942.844 1453.37 L931.038 1471.81 L942.844 1471.81 L942.844 1453.37 M941.617 1449.29 L947.497 1449.29 L947.497 1471.81 L952.427 1471.81 L952.427 1475.7 L947.497 1475.7 L947.497 1483.85 L942.844 1483.85 L942.844 1475.7 L927.242 1475.7 L927.242 1471.19 L941.617 1449.29 Z" fill="#000000" fill-rule="evenodd" fill-opacity="1" /><path clip-path="url(#clip740)" d="M 0 0 M1359.65 1452.37 Q1356.04 1452.37 1354.21 1455.94 Q1352.41 1459.48 1352.41 1466.61 Q1352.41 1473.71 1354.21 1477.28 Q1356.04 1480.82 1359.65 1480.82 Q1363.28 1480.82 1365.09 1477.28 Q1366.92 1473.71 1366.92 1466.61 Q1366.92 1459.48 1365.09 1455.94 Q1363.28 1452.37 1359.65 1452.37 M1359.65 1448.67 Q1365.46 1448.67 1368.52 1453.27 Q1371.6 1457.86 1371.6 1466.61 Q1371.6 1475.33 1368.52 1479.94 Q1365.46 1484.52 1359.65 1484.52 Q1353.84 1484.52 1350.76 1479.94 Q1347.71 1475.33 1347.71 1466.61 Q1347.71 1457.86 1350.76 1453.27 Q1353.84 1448.67 1359.65 1448.67 Z" fill="#000000" fill-rule="evenodd" fill-opacity="1" /><path clip-path="url(#clip740)" d="M 0 0 M1376.66 1477.97 L1381.55 1477.97 L1381.55 1483.85 L1376.66 1483.85 L1376.66 1477.97 Z" fill="#000000" fill-rule="evenodd" fill-opacity="1" /><path clip-path="url(#clip740)" d="M 0 0 M1397.2 1464.71 Q1394.05 1464.71 1392.2 1466.86 Q1390.37 1469.01 1390.37 1472.76 Q1390.37 1476.49 1392.2 1478.67 Q1394.05 1480.82 1397.2 1480.82 Q1400.34 1480.82 1402.17 1478.67 Q1404.03 1476.49 1404.03 1472.76 Q1404.03 1469.01 1402.17 1466.86 Q1400.34 1464.71 1397.2 1464.71 M1406.48 1450.06 L1406.48 1454.31 Q1404.72 1453.48 1402.91 1453.04 Q1401.13 1452.6 1399.37 1452.6 Q1394.74 1452.6 1392.29 1455.73 Q1389.86 1458.85 1389.51 1465.17 Q1390.88 1463.16 1392.94 1462.09 Q1395 1461 1397.47 1461 Q1402.68 1461 1405.69 1464.18 Q1408.72 1467.32 1408.72 1472.76 Q1408.72 1478.09 1405.58 1481.31 Q1402.43 1484.52 1397.2 1484.52 Q1391.2 1484.52 1388.03 1479.94 Q1384.86 1475.33 1384.86 1466.61 Q1384.86 1458.41 1388.75 1453.55 Q1392.64 1448.67 1399.19 1448.67 Q1400.95 1448.67 1402.73 1449.01 Q1404.53 1449.36 1406.48 1450.06 Z" fill="#000000" fill-rule="evenodd" fill-opacity="1" /><path clip-path="url(#clip740)" d="M 0 0 M1816.24 1452.37 Q1812.63 1452.37 1810.8 1455.94 Q1808.99 1459.48 1808.99 1466.61 Q1808.99 1473.71 1810.8 1477.28 Q1812.63 1480.82 1816.24 1480.82 Q1819.87 1480.82 1821.68 1477.28 Q1823.51 1473.71 1823.51 1466.61 Q1823.51 1459.48 1821.68 1455.94 Q1819.87 1452.37 1816.24 1452.37 M1816.24 1448.67 Q1822.05 1448.67 1825.1 1453.27 Q1828.18 1457.86 1828.18 1466.61 Q1828.18 1475.33 1825.1 1479.94 Q1822.05 1484.52 1816.24 1484.52 Q1810.43 1484.52 1807.35 1479.94 Q1804.29 1475.33 1804.29 1466.61 Q1804.29 1457.86 1807.35 1453.27 Q1810.43 1448.67 1816.24 1448.67 Z" fill="#000000" fill-rule="evenodd" fill-opacity="1" /><path clip-path="url(#clip740)" d="M 0 0 M1833.25 1477.97 L1838.14 1477.97 L1838.14 1483.85 L1833.25 1483.85 L1833.25 1477.97 Z" fill="#000000" fill-rule="evenodd" fill-opacity="1" /><path clip-path="url(#clip740)" d="M 0 0 M1853.2 1467.44 Q1849.87 1467.44 1847.95 1469.22 Q1846.05 1471 1846.05 1474.13 Q1846.05 1477.25 1847.95 1479.04 Q1849.87 1480.82 1853.2 1480.82 Q1856.54 1480.82 1858.46 1479.04 Q1860.38 1477.23 1860.38 1474.13 Q1860.38 1471 1858.46 1469.22 Q1856.56 1467.44 1853.2 1467.44 M1848.53 1465.45 Q1845.52 1464.71 1843.83 1462.65 Q1842.16 1460.59 1842.16 1457.63 Q1842.16 1453.48 1845.1 1451.07 Q1848.07 1448.67 1853.2 1448.67 Q1858.37 1448.67 1861.31 1451.07 Q1864.25 1453.48 1864.25 1457.63 Q1864.25 1460.59 1862.56 1462.65 Q1860.89 1464.71 1857.9 1465.45 Q1861.28 1466.24 1863.16 1468.53 Q1865.06 1470.82 1865.06 1474.13 Q1865.06 1479.15 1861.98 1481.84 Q1858.92 1484.52 1853.2 1484.52 Q1847.49 1484.52 1844.41 1481.84 Q1841.35 1479.15 1841.35 1474.13 Q1841.35 1470.82 1843.25 1468.53 Q1845.15 1466.24 1848.53 1465.45 M1846.82 1458.06 Q1846.82 1460.75 1848.48 1462.25 Q1850.17 1463.76 1853.2 1463.76 Q1856.21 1463.76 1857.9 1462.25 Q1859.62 1460.75 1859.62 1458.06 Q1859.62 1455.38 1857.9 1453.88 Q1856.21 1452.37 1853.2 1452.37 Q1850.17 1452.37 1848.48 1453.88 Q1846.82 1455.38 1846.82 1458.06 Z" fill="#000000" fill-rule="evenodd" fill-opacity="1" /><path clip-path="url(#clip740)" d="M 0 0 M2263.03 1479.92 L2270.67 1479.92 L2270.67 1453.55 L2262.36 1455.22 L2262.36 1450.96 L2270.62 1449.29 L2275.3 1449.29 L2275.3 1479.92 L2282.94 1479.92 L2282.94 1483.85 L2263.03 1483.85 L2263.03 1479.92 Z" fill="#000000" fill-rule="evenodd" fill-opacity="1" /><path clip-path="url(#clip740)" d="M 0 0 M2288.01 1477.97 L2292.89 1477.97 L2292.89 1483.85 L2288.01 1483.85 L2288.01 1477.97 Z" fill="#000000" fill-rule="evenodd" fill-opacity="1" /><path clip-path="url(#clip740)" d="M 0 0 M2307.96 1452.37 Q2304.35 1452.37 2302.52 1455.94 Q2300.72 1459.48 2300.72 1466.61 Q2300.72 1473.71 2302.52 1477.28 Q2304.35 1480.82 2307.96 1480.82 Q2311.6 1480.82 2313.4 1477.28 Q2315.23 1473.71 2315.23 1466.61 Q2315.23 1459.48 2313.4 1455.94 Q2311.6 1452.37 2307.96 1452.37 M2307.96 1448.67 Q2313.77 1448.67 2316.83 1453.27 Q2319.91 1457.86 2319.91 1466.61 Q2319.91 1475.33 2316.83 1479.94 Q2313.77 1484.52 2307.96 1484.52 Q2302.15 1484.52 2299.07 1479.94 Q2296.02 1475.33 2296.02 1466.61 Q2296.02 1457.86 2299.07 1453.27 Q2302.15 1448.67 2307.96 1448.67 Z" fill="#000000" fill-rule="evenodd" fill-opacity="1" /><path clip-path="url(#clip740)" d="M 0 0 M1254.58 1565.85 L1254.58 1581.6 L1248.7 1581.6 L1248.7 1532.62 Q1248.7 1518.1 1262.25 1518.1 Q1276.07 1518.1 1276.07 1530.36 Q1276.07 1539.08 1270.59 1542.26 Q1279.51 1545.13 1279.51 1553.63 Q1279.51 1568.71 1264.16 1568.71 Q1257.42 1568.71 1254.58 1565.85 M1254.58 1558.21 Q1258.12 1563.72 1264.39 1563.72 Q1273.55 1563.72 1273.55 1553.72 Q1273.55 1544.75 1258.79 1545.45 L1258.79 1540.03 Q1270.34 1540.03 1270.34 1529.85 Q1270.34 1522.88 1262.89 1522.88 Q1254.58 1522.88 1254.58 1532.81 L1254.58 1558.21 Z" fill="#000000" fill-rule="evenodd" fill-opacity="1" /><polyline clip-path="url(#clip742)" style="stroke:#000000; stroke-width:2; stroke-opacity:0.1; fill:none" points="
  175.445,1386.4 2352.76,1386.4 
  "/>
<polyline clip-path="url(#clip742)" style="stroke:#000000; stroke-width:2; stroke-opacity:0.1; fill:none" points="
  175.445,1127.69 2352.76,1127.69 
  "/>
<polyline clip-path="url(#clip742)" style="stroke:#000000; stroke-width:2; stroke-opacity:0.1; fill:none" points="
  175.445,868.98 2352.76,868.98 
  "/>
<polyline clip-path="url(#clip742)" style="stroke:#000000; stroke-width:2; stroke-opacity:0.1; fill:none" points="
  175.445,610.272 2352.76,610.272 
  "/>
<polyline clip-path="url(#clip742)" style="stroke:#000000; stroke-width:2; stroke-opacity:0.1; fill:none" points="
  175.445,351.565 2352.76,351.565 
  "/>
<polyline clip-path="url(#clip740)" style="stroke:#000000; stroke-width:4; stroke-opacity:1; fill:none" points="
  175.445,1423.18 175.445,123.472 
  "/>
<polyline clip-path="url(#clip740)" style="stroke:#000000; stroke-width:4; stroke-opacity:1; fill:none" points="
  175.445,1386.4 201.573,1386.4 
  "/>
<polyline clip-path="url(#clip740)" style="stroke:#000000; stroke-width:4; stroke-opacity:1; fill:none" points="
  175.445,1127.69 201.573,1127.69 
  "/>
<polyline clip-path="url(#clip740)" style="stroke:#000000; stroke-width:4; stroke-opacity:1; fill:none" points="
  175.445,868.98 201.573,868.98 
  "/>
<polyline clip-path="url(#clip740)" style="stroke:#000000; stroke-width:4; stroke-opacity:1; fill:none" points="
  175.445,610.272 201.573,610.272 
  "/>
<polyline clip-path="url(#clip740)" style="stroke:#000000; stroke-width:4; stroke-opacity:1; fill:none" points="
  175.445,351.565 201.573,351.565 
  "/>
<path clip-path="url(#clip740)" d="M 0 0 M127.501 1372.19 Q123.89 1372.19 122.061 1375.76 Q120.255 1379.3 120.255 1386.43 Q120.255 1393.54 122.061 1397.1 Q123.89 1400.64 127.501 1400.64 Q131.135 1400.64 132.941 1397.1 Q134.769 1393.54 134.769 1386.43 Q134.769 1379.3 132.941 1375.76 Q131.135 1372.19 127.501 1372.19 M127.501 1368.49 Q133.311 1368.49 136.367 1373.1 Q139.445 1377.68 139.445 1386.43 Q139.445 1395.16 136.367 1399.76 Q133.311 1404.35 127.501 1404.35 Q121.691 1404.35 118.612 1399.76 Q115.556 1395.16 115.556 1386.43 Q115.556 1377.68 118.612 1373.1 Q121.691 1368.49 127.501 1368.49 Z" fill="#000000" fill-rule="evenodd" fill-opacity="1" /><path clip-path="url(#clip740)" d="M 0 0 M123.126 1141.03 L139.445 1141.03 L139.445 1144.97 L117.501 1144.97 L117.501 1141.03 Q120.163 1138.28 124.746 1133.65 Q129.353 1129 130.533 1127.65 Q132.779 1125.13 133.658 1123.39 Q134.561 1121.63 134.561 1119.94 Q134.561 1117.19 132.617 1115.45 Q130.695 1113.72 127.593 1113.72 Q125.394 1113.72 122.941 1114.48 Q120.51 1115.25 117.732 1116.8 L117.732 1112.07 Q120.556 1110.94 123.01 1110.36 Q125.464 1109.78 127.501 1109.78 Q132.871 1109.78 136.066 1112.47 Q139.26 1115.15 139.26 1119.64 Q139.26 1121.77 138.45 1123.69 Q137.663 1125.59 135.556 1128.19 Q134.978 1128.86 131.876 1132.07 Q128.774 1135.27 123.126 1141.03 Z" fill="#000000" fill-rule="evenodd" fill-opacity="1" /><path clip-path="url(#clip740)" d="M 0 0 M129.862 855.774 L118.056 874.223 L129.862 874.223 L129.862 855.774 M128.635 851.7 L134.515 851.7 L134.515 874.223 L139.445 874.223 L139.445 878.112 L134.515 878.112 L134.515 886.26 L129.862 886.26 L129.862 878.112 L114.26 878.112 L114.26 873.598 L128.635 851.7 Z" fill="#000000" fill-rule="evenodd" fill-opacity="1" /><path clip-path="url(#clip740)" d="M 0 0 M127.917 608.409 Q124.769 608.409 122.918 610.562 Q121.089 612.714 121.089 616.464 Q121.089 620.191 122.918 622.367 Q124.769 624.52 127.917 624.52 Q131.066 624.52 132.894 622.367 Q134.746 620.191 134.746 616.464 Q134.746 612.714 132.894 610.562 Q131.066 608.409 127.917 608.409 M137.2 593.756 L137.2 598.015 Q135.441 597.182 133.635 596.742 Q131.853 596.303 130.093 596.303 Q125.464 596.303 123.01 599.427 Q120.58 602.552 120.232 608.872 Q121.598 606.858 123.658 605.793 Q125.718 604.705 128.195 604.705 Q133.404 604.705 136.413 607.877 Q139.445 611.025 139.445 616.464 Q139.445 621.788 136.297 625.006 Q133.149 628.224 127.917 628.224 Q121.922 628.224 118.751 623.64 Q115.58 619.034 115.58 610.307 Q115.58 602.113 119.468 597.252 Q123.357 592.367 129.908 592.367 Q131.667 592.367 133.45 592.715 Q135.255 593.062 137.2 593.756 Z" fill="#000000" fill-rule="evenodd" fill-opacity="1" /><path clip-path="url(#clip740)" d="M 0 0 M127.593 352.433 Q124.26 352.433 122.339 354.215 Q120.441 355.997 120.441 359.122 Q120.441 362.247 122.339 364.03 Q124.26 365.812 127.593 365.812 Q130.927 365.812 132.848 364.03 Q134.769 362.224 134.769 359.122 Q134.769 355.997 132.848 354.215 Q130.95 352.433 127.593 352.433 M122.918 350.442 Q119.908 349.701 118.218 347.641 Q116.552 345.581 116.552 342.618 Q116.552 338.474 119.492 336.067 Q122.455 333.66 127.593 333.66 Q132.755 333.66 135.695 336.067 Q138.635 338.474 138.635 342.618 Q138.635 345.581 136.945 347.641 Q135.279 349.701 132.292 350.442 Q135.672 351.229 137.547 353.521 Q139.445 355.812 139.445 359.122 Q139.445 364.146 136.367 366.831 Q133.311 369.516 127.593 369.516 Q121.876 369.516 118.797 366.831 Q115.742 364.146 115.742 359.122 Q115.742 355.812 117.64 353.521 Q119.538 351.229 122.918 350.442 M121.205 343.058 Q121.205 345.743 122.871 347.247 Q124.561 348.752 127.593 348.752 Q130.603 348.752 132.292 347.247 Q134.005 345.743 134.005 343.058 Q134.005 340.372 132.292 338.868 Q130.603 337.363 127.593 337.363 Q124.561 337.363 122.871 338.868 Q121.205 340.372 121.205 343.058 Z" fill="#000000" fill-rule="evenodd" fill-opacity="1" /><path clip-path="url(#clip740)" d="M 0 0 M33.7671 874.143 L14.479 874.143 L14.479 868.286 L64.0042 868.286 L64.0042 874.143 L58.657 874.143 Q61.8398 875.989 63.3994 878.822 Q64.9272 881.623 64.9272 885.569 Q64.9272 892.03 59.771 896.105 Q54.6147 900.147 46.212 900.147 Q37.8093 900.147 32.6531 896.105 Q27.4968 892.03 27.4968 885.569 Q27.4968 881.623 29.0564 878.822 Q30.5842 875.989 33.7671 874.143 M46.212 894.099 Q52.6732 894.099 56.3653 891.458 Q60.0256 888.784 60.0256 884.137 Q60.0256 879.49 56.3653 876.816 Q52.6732 874.143 46.212 874.143 Q39.7508 874.143 36.0905 876.816 Q32.3984 879.49 32.3984 884.137 Q32.3984 888.784 36.0905 891.458 Q39.7508 894.099 46.212 894.099 Z" fill="#000000" fill-rule="evenodd" fill-opacity="1" /><path clip-path="url(#clip740)" d="M 0 0 M35.1993 834.389 Q31.2526 832.193 29.3747 829.137 Q27.4968 826.082 27.4968 821.944 Q27.4968 816.374 31.4117 813.35 Q35.2948 810.327 42.4881 810.327 L64.0042 810.327 L64.0042 816.215 L42.679 816.215 Q37.5546 816.215 35.072 818.029 Q32.5894 819.843 32.5894 823.567 Q32.5894 828.119 35.6131 830.761 Q38.6368 833.402 43.8567 833.402 L64.0042 833.402 L64.0042 839.291 L42.679 839.291 Q37.5228 839.291 35.072 841.105 Q32.5894 842.919 32.5894 846.707 Q32.5894 851.194 35.6449 853.836 Q38.6686 856.478 43.8567 856.478 L64.0042 856.478 L64.0042 862.366 L28.3562 862.366 L28.3562 856.478 L33.8944 856.478 Q30.616 854.473 29.0564 851.672 Q27.4968 848.871 27.4968 845.02 Q27.4968 841.137 29.4702 838.431 Q31.4436 835.694 35.1993 834.389 Z" fill="#000000" fill-rule="evenodd" fill-opacity="1" /><path clip-path="url(#clip740)" d="M 0 0 M46.0847 787.983 Q46.0847 795.081 47.7079 797.818 Q49.3312 800.555 53.2461 800.555 Q56.3653 800.555 58.2114 798.518 Q60.0256 796.449 60.0256 792.916 Q60.0256 788.047 56.5881 785.118 Q53.1188 782.158 47.3897 782.158 L46.0847 782.158 L46.0847 787.983 M43.6657 776.302 L64.0042 776.302 L64.0042 782.158 L58.5933 782.158 Q61.8398 784.164 63.3994 787.155 Q64.9272 790.147 64.9272 794.476 Q64.9272 799.951 61.8716 803.197 Q58.7843 806.412 53.6281 806.412 Q47.6125 806.412 44.5569 802.401 Q41.5014 798.359 41.5014 790.37 L41.5014 782.158 L40.9285 782.158 Q36.8862 782.158 34.6901 784.832 Q32.4621 787.474 32.4621 792.28 Q32.4621 795.335 33.1941 798.232 Q33.9262 801.128 35.3903 803.802 L29.9795 803.802 Q28.7381 800.587 28.1334 797.563 Q27.4968 794.54 27.4968 791.675 Q27.4968 783.941 31.5072 780.121 Q35.5176 776.302 43.6657 776.302 Z" fill="#000000" fill-rule="evenodd" fill-opacity="1" /><path clip-path="url(#clip740)" d="M 0 0 M45.7664 746.701 Q39.4007 746.701 35.8996 749.343 Q32.3984 751.953 32.3984 756.696 Q32.3984 761.406 35.8996 764.048 Q39.4007 766.658 45.7664 766.658 Q52.1003 766.658 55.6014 764.048 Q59.1026 761.406 59.1026 756.696 Q59.1026 751.953 55.6014 749.343 Q52.1003 746.701 45.7664 746.701 M59.58 740.845 Q68.683 740.845 73.1071 744.887 Q77.5631 748.929 77.5631 757.268 Q77.5631 760.356 77.0857 763.093 Q76.6401 765.83 75.6852 768.408 L69.9879 768.408 Q71.3884 765.83 72.0568 763.316 Q72.7252 760.801 72.7252 758.192 Q72.7252 752.431 69.7015 749.566 Q66.7096 746.701 60.6303 746.701 L57.7339 746.701 Q60.885 748.516 62.4446 751.348 Q64.0042 754.181 64.0042 758.128 Q64.0042 764.685 59.0071 768.695 Q54.01 772.705 45.7664 772.705 Q37.491 772.705 32.4939 768.695 Q27.4968 764.685 27.4968 758.128 Q27.4968 754.181 29.0564 751.348 Q30.616 748.516 33.7671 746.701 L28.3562 746.701 L28.3562 740.845 L59.58 740.845 Z" fill="#000000" fill-rule="evenodd" fill-opacity="1" /><path clip-path="url(#clip740)" d="M 0 0 M16.4842 724.294 L16.4842 718.883 L70.0516 735.434 L70.0516 740.845 L16.4842 724.294 Z" fill="#000000" fill-rule="evenodd" fill-opacity="1" /><path clip-path="url(#clip740)" d="M 0 0 M33.7671 689.283 L14.479 689.283 L14.479 683.426 L64.0042 683.426 L64.0042 689.283 L58.657 689.283 Q61.8398 691.129 63.3994 693.962 Q64.9272 696.762 64.9272 700.709 Q64.9272 707.17 59.771 711.244 Q54.6147 715.287 46.212 715.287 Q37.8093 715.287 32.6531 711.244 Q27.4968 707.17 27.4968 700.709 Q27.4968 696.762 29.0564 693.962 Q30.5842 691.129 33.7671 689.283 M46.212 709.239 Q52.6732 709.239 56.3653 706.597 Q60.0256 703.924 60.0256 699.277 Q60.0256 694.63 56.3653 691.956 Q52.6732 689.283 46.212 689.283 Q39.7508 689.283 36.0905 691.956 Q32.3984 694.63 32.3984 699.277 Q32.3984 703.924 36.0905 706.597 Q39.7508 709.239 46.212 709.239 Z" fill="#000000" fill-rule="evenodd" fill-opacity="1" /><path clip-path="url(#clip740)" d="M 0 0 M61.808 671.427 L77.5631 671.427 L77.5631 677.315 L28.579 677.315 Q14.0652 677.315 14.0652 663.756 Q14.0652 649.943 26.3192 649.943 Q35.0402 649.943 38.223 655.417 Q41.0876 646.505 49.5858 646.505 Q64.6726 646.505 64.6726 661.847 Q64.6726 668.594 61.808 671.427 M54.1691 671.427 Q59.6755 667.894 59.6755 661.624 Q59.6755 652.457 49.6813 652.457 Q40.7057 652.457 41.4059 667.226 L35.995 667.226 Q35.995 655.672 25.8099 655.672 Q18.8395 655.672 18.8395 663.12 Q18.8395 671.427 28.77 671.427 L54.1691 671.427 Z" fill="#000000" fill-rule="evenodd" fill-opacity="1" /><path clip-path="url(#clip740)" d="M 0 0 M1135.79 34.0924 L1135.79 9.54393 L1143.24 9.54393 L1143.24 72.576 L1135.79 72.576 L1135.79 65.7705 Q1133.44 69.8214 1129.83 71.8063 Q1126.27 73.7508 1121.25 73.7508 Q1113.02 73.7508 1107.84 67.1883 Q1102.69 60.6258 1102.69 49.9314 Q1102.69 39.2371 1107.84 32.6746 Q1113.02 26.1121 1121.25 26.1121 Q1126.27 26.1121 1129.83 28.0971 Q1133.44 30.0415 1135.79 34.0924 M1110.39 49.9314 Q1110.39 58.1548 1113.75 62.8538 Q1117.15 67.5124 1123.07 67.5124 Q1128.98 67.5124 1132.39 62.8538 Q1135.79 58.1548 1135.79 49.9314 Q1135.79 41.7081 1132.39 37.0496 Q1128.98 32.3505 1123.07 32.3505 Q1117.15 32.3505 1113.75 37.0496 Q1110.39 41.7081 1110.39 49.9314 Z" fill="#000000" fill-rule="evenodd" fill-opacity="1" /><path clip-path="url(#clip740)" d="M 0 0 M1186.38 35.9153 Q1189.18 30.8922 1193.07 28.5022 Q1196.96 26.1121 1202.22 26.1121 Q1209.31 26.1121 1213.16 31.0947 Q1217.01 36.0368 1217.01 45.1919 L1217.01 72.576 L1209.51 72.576 L1209.51 45.4349 Q1209.51 38.913 1207.21 35.7533 Q1204.9 32.5936 1200.16 32.5936 Q1194.36 32.5936 1191 36.4419 Q1187.64 40.2903 1187.64 46.9338 L1187.64 72.576 L1180.15 72.576 L1180.15 45.4349 Q1180.15 38.8725 1177.84 35.7533 Q1175.53 32.5936 1170.71 32.5936 Q1165 32.5936 1161.63 36.4824 Q1158.27 40.3308 1158.27 46.9338 L1158.27 72.576 L1150.78 72.576 L1150.78 27.2059 L1158.27 27.2059 L1158.27 34.2544 Q1160.82 30.082 1164.39 28.0971 Q1167.95 26.1121 1172.85 26.1121 Q1177.8 26.1121 1181.24 28.6237 Q1184.72 31.1352 1186.38 35.9153 Z" fill="#000000" fill-rule="evenodd" fill-opacity="1" /><path clip-path="url(#clip740)" d="M 0 0 M1245.45 49.7694 Q1236.41 49.7694 1232.93 51.8354 Q1229.45 53.9013 1229.45 58.8839 Q1229.45 62.8538 1232.04 65.2034 Q1234.67 67.5124 1239.17 67.5124 Q1245.37 67.5124 1249.09 63.1374 Q1252.86 58.7219 1252.86 51.4303 L1252.86 49.7694 L1245.45 49.7694 M1260.31 46.6907 L1260.31 72.576 L1252.86 72.576 L1252.86 65.6895 Q1250.31 69.8214 1246.5 71.8063 Q1242.69 73.7508 1237.18 73.7508 Q1230.21 73.7508 1226.08 69.8619 Q1221.99 65.9325 1221.99 59.3701 Q1221.99 51.7138 1227.1 47.825 Q1232.24 43.9361 1242.41 43.9361 L1252.86 43.9361 L1252.86 43.2069 Q1252.86 38.0623 1249.46 35.2672 Q1246.09 32.4315 1239.98 32.4315 Q1236.09 32.4315 1232.4 33.3632 Q1228.72 34.295 1225.31 36.1584 L1225.31 29.2718 Q1229.4 27.692 1233.25 26.9223 Q1237.1 26.1121 1240.75 26.1121 Q1250.59 26.1121 1255.45 31.2163 Q1260.31 36.3204 1260.31 46.6907 Z" fill="#000000" fill-rule="evenodd" fill-opacity="1" /><path clip-path="url(#clip740)" d="M 0 0 M1297.99 49.3643 Q1297.99 41.2625 1294.62 36.8065 Q1291.3 32.3505 1285.27 32.3505 Q1279.27 32.3505 1275.91 36.8065 Q1272.59 41.2625 1272.59 49.3643 Q1272.59 57.4256 1275.91 61.8816 Q1279.27 66.3376 1285.27 66.3376 Q1291.3 66.3376 1294.62 61.8816 Q1297.99 57.4256 1297.99 49.3643 M1305.44 66.9452 Q1305.44 78.5308 1300.3 84.1616 Q1295.15 89.8329 1284.54 89.8329 Q1280.61 89.8329 1277.12 89.2252 Q1273.64 88.6581 1270.36 87.4428 L1270.36 80.1917 Q1273.64 81.9741 1276.84 82.8248 Q1280.04 83.6755 1283.36 83.6755 Q1290.69 83.6755 1294.34 79.8271 Q1297.99 76.0193 1297.99 68.282 L1297.99 64.5957 Q1295.68 68.6061 1292.07 70.5911 Q1288.47 72.576 1283.44 72.576 Q1275.1 72.576 1269.99 66.2161 Q1264.89 59.8562 1264.89 49.3643 Q1264.89 38.832 1269.99 32.472 Q1275.1 26.1121 1283.44 26.1121 Q1288.47 26.1121 1292.07 28.0971 Q1295.68 30.082 1297.99 34.0924 L1297.99 27.2059 L1305.44 27.2059 L1305.44 66.9452 Z" fill="#000000" fill-rule="evenodd" fill-opacity="1" /><path clip-path="url(#clip740)" d="M 0 0 M1326.5 12.096 L1333.39 12.096 L1312.33 80.2727 L1305.44 80.2727 L1326.5 12.096 Z" fill="#000000" fill-rule="evenodd" fill-opacity="1" /><path clip-path="url(#clip740)" d="M 0 0 M1371.06 34.0924 L1371.06 9.54393 L1378.52 9.54393 L1378.52 72.576 L1371.06 72.576 L1371.06 65.7705 Q1368.72 69.8214 1365.11 71.8063 Q1361.55 73.7508 1356.52 73.7508 Q1348.3 73.7508 1343.11 67.1883 Q1337.97 60.6258 1337.97 49.9314 Q1337.97 39.2371 1343.11 32.6746 Q1348.3 26.1121 1356.52 26.1121 Q1361.55 26.1121 1365.11 28.0971 Q1368.72 30.0415 1371.06 34.0924 M1345.67 49.9314 Q1345.67 58.1548 1349.03 62.8538 Q1352.43 67.5124 1358.34 67.5124 Q1364.26 67.5124 1367.66 62.8538 Q1371.06 58.1548 1371.06 49.9314 Q1371.06 41.7081 1367.66 37.0496 Q1364.26 32.3505 1358.34 32.3505 Q1352.43 32.3505 1349.03 37.0496 Q1345.67 41.7081 1345.67 49.9314 Z" fill="#000000" fill-rule="evenodd" fill-opacity="1" /><path clip-path="url(#clip740)" d="M 0 0 M1393.79 69.7809 L1393.79 89.8329 L1386.3 89.8329 L1386.3 27.4894 Q1386.3 9.01731 1403.55 9.01731 Q1421.13 9.01731 1421.13 24.6133 Q1421.13 35.7128 1414.17 39.7637 Q1425.51 43.4095 1425.51 54.2254 Q1425.51 73.4267 1405.98 73.4267 Q1397.4 73.4267 1393.79 69.7809 M1393.79 60.0587 Q1398.29 67.0668 1406.27 67.0668 Q1417.93 67.0668 1417.93 54.3469 Q1417.93 42.9234 1399.14 43.8146 L1399.14 36.928 Q1413.84 36.928 1413.84 23.9651 Q1413.84 15.0937 1404.36 15.0937 Q1393.79 15.0937 1393.79 27.7325 L1393.79 60.0587 Z" fill="#000000" fill-rule="evenodd" fill-opacity="1" /><circle clip-path="url(#clip742)" cx="237.067" cy="1386.4" r="14" fill="#009af9" fill-rule="evenodd" fill-opacity="1" stroke="#000000" stroke-opacity="1" stroke-width="3.2"/>
<circle clip-path="url(#clip742)" cx="351.182" cy="1386.4" r="14" fill="#009af9" fill-rule="evenodd" fill-opacity="1" stroke="#000000" stroke-opacity="1" stroke-width="3.2"/>
<circle clip-path="url(#clip742)" cx="465.297" cy="1386.4" r="14" fill="#009af9" fill-rule="evenodd" fill-opacity="1" stroke="#000000" stroke-opacity="1" stroke-width="3.2"/>
<circle clip-path="url(#clip742)" cx="579.412" cy="1386.4" r="14" fill="#009af9" fill-rule="evenodd" fill-opacity="1" stroke="#000000" stroke-opacity="1" stroke-width="3.2"/>
<circle clip-path="url(#clip742)" cx="693.526" cy="1386.4" r="14" fill="#009af9" fill-rule="evenodd" fill-opacity="1" stroke="#000000" stroke-opacity="1" stroke-width="3.2"/>
<circle clip-path="url(#clip742)" cx="807.641" cy="1386.4" r="14" fill="#009af9" fill-rule="evenodd" fill-opacity="1" stroke="#000000" stroke-opacity="1" stroke-width="3.2"/>
<circle clip-path="url(#clip742)" cx="921.756" cy="1386.4" r="14" fill="#009af9" fill-rule="evenodd" fill-opacity="1" stroke="#000000" stroke-opacity="1" stroke-width="3.2"/>
<circle clip-path="url(#clip742)" cx="1035.87" cy="497.265" r="14" fill="#009af9" fill-rule="evenodd" fill-opacity="1" stroke="#000000" stroke-opacity="1" stroke-width="3.2"/>
<circle clip-path="url(#clip742)" cx="1149.99" cy="1217.44" r="14" fill="#009af9" fill-rule="evenodd" fill-opacity="1" stroke="#000000" stroke-opacity="1" stroke-width="3.2"/>
<circle clip-path="url(#clip742)" cx="1264.1" cy="1315.84" r="14" fill="#009af9" fill-rule="evenodd" fill-opacity="1" stroke="#000000" stroke-opacity="1" stroke-width="3.2"/>
<circle clip-path="url(#clip742)" cx="1378.22" cy="1350.36" r="14" fill="#009af9" fill-rule="evenodd" fill-opacity="1" stroke="#000000" stroke-opacity="1" stroke-width="3.2"/>
<circle clip-path="url(#clip742)" cx="1492.33" cy="1366.22" r="14" fill="#009af9" fill-rule="evenodd" fill-opacity="1" stroke="#000000" stroke-opacity="1" stroke-width="3.2"/>
<circle clip-path="url(#clip742)" cx="1606.45" cy="1374.49" r="14" fill="#009af9" fill-rule="evenodd" fill-opacity="1" stroke="#000000" stroke-opacity="1" stroke-width="3.2"/>
<circle clip-path="url(#clip742)" cx="1720.56" cy="1379.13" r="14" fill="#009af9" fill-rule="evenodd" fill-opacity="1" stroke="#000000" stroke-opacity="1" stroke-width="3.2"/>
<circle clip-path="url(#clip742)" cx="1834.67" cy="1381.86" r="14" fill="#009af9" fill-rule="evenodd" fill-opacity="1" stroke="#000000" stroke-opacity="1" stroke-width="3.2"/>
<circle clip-path="url(#clip742)" cx="1948.79" cy="1383.52" r="14" fill="#009af9" fill-rule="evenodd" fill-opacity="1" stroke="#000000" stroke-opacity="1" stroke-width="3.2"/>
<circle clip-path="url(#clip742)" cx="2062.9" cy="1384.55" r="14" fill="#009af9" fill-rule="evenodd" fill-opacity="1" stroke="#000000" stroke-opacity="1" stroke-width="3.2"/>
<circle clip-path="url(#clip742)" cx="2177.02" cy="1385.2" r="14" fill="#009af9" fill-rule="evenodd" fill-opacity="1" stroke="#000000" stroke-opacity="1" stroke-width="3.2"/>
<circle clip-path="url(#clip742)" cx="2291.13" cy="1385.62" r="14" fill="#009af9" fill-rule="evenodd" fill-opacity="1" stroke="#000000" stroke-opacity="1" stroke-width="3.2"/>
<circle clip-path="url(#clip742)" cx="237.067" cy="1386.4" r="14" fill="#e26f46" fill-rule="evenodd" fill-opacity="1" stroke="#000000" stroke-opacity="1" stroke-width="3.2"/>
<circle clip-path="url(#clip742)" cx="351.182" cy="1386.4" r="14" fill="#e26f46" fill-rule="evenodd" fill-opacity="1" stroke="#000000" stroke-opacity="1" stroke-width="3.2"/>
<circle clip-path="url(#clip742)" cx="465.297" cy="1386.4" r="14" fill="#e26f46" fill-rule="evenodd" fill-opacity="1" stroke="#000000" stroke-opacity="1" stroke-width="3.2"/>
<circle clip-path="url(#clip742)" cx="579.412" cy="1386.4" r="14" fill="#e26f46" fill-rule="evenodd" fill-opacity="1" stroke="#000000" stroke-opacity="1" stroke-width="3.2"/>
<circle clip-path="url(#clip742)" cx="693.526" cy="1386.4" r="14" fill="#e26f46" fill-rule="evenodd" fill-opacity="1" stroke="#000000" stroke-opacity="1" stroke-width="3.2"/>
<circle clip-path="url(#clip742)" cx="807.641" cy="1386.4" r="14" fill="#e26f46" fill-rule="evenodd" fill-opacity="1" stroke="#000000" stroke-opacity="1" stroke-width="3.2"/>
<circle clip-path="url(#clip742)" cx="921.756" cy="1386.4" r="14" fill="#e26f46" fill-rule="evenodd" fill-opacity="1" stroke="#000000" stroke-opacity="1" stroke-width="3.2"/>
<circle clip-path="url(#clip742)" cx="1035.87" cy="198.602" r="14" fill="#e26f46" fill-rule="evenodd" fill-opacity="1" stroke="#000000" stroke-opacity="1" stroke-width="3.2"/>
<circle clip-path="url(#clip742)" cx="1149.99" cy="1215.83" r="14" fill="#e26f46" fill-rule="evenodd" fill-opacity="1" stroke="#000000" stroke-opacity="1" stroke-width="3.2"/>
<circle clip-path="url(#clip742)" cx="1264.1" cy="1315.77" r="14" fill="#e26f46" fill-rule="evenodd" fill-opacity="1" stroke="#000000" stroke-opacity="1" stroke-width="3.2"/>
<circle clip-path="url(#clip742)" cx="1378.22" cy="1350.35" r="14" fill="#e26f46" fill-rule="evenodd" fill-opacity="1" stroke="#000000" stroke-opacity="1" stroke-width="3.2"/>
<circle clip-path="url(#clip742)" cx="1492.33" cy="1366.22" r="14" fill="#e26f46" fill-rule="evenodd" fill-opacity="1" stroke="#000000" stroke-opacity="1" stroke-width="3.2"/>
<circle clip-path="url(#clip742)" cx="1606.45" cy="1374.49" r="14" fill="#e26f46" fill-rule="evenodd" fill-opacity="1" stroke="#000000" stroke-opacity="1" stroke-width="3.2"/>
<circle clip-path="url(#clip742)" cx="1720.56" cy="1379.13" r="14" fill="#e26f46" fill-rule="evenodd" fill-opacity="1" stroke="#000000" stroke-opacity="1" stroke-width="3.2"/>
<circle clip-path="url(#clip742)" cx="1834.67" cy="1381.86" r="14" fill="#e26f46" fill-rule="evenodd" fill-opacity="1" stroke="#000000" stroke-opacity="1" stroke-width="3.2"/>
<circle clip-path="url(#clip742)" cx="1948.79" cy="1383.52" r="14" fill="#e26f46" fill-rule="evenodd" fill-opacity="1" stroke="#000000" stroke-opacity="1" stroke-width="3.2"/>
<circle clip-path="url(#clip742)" cx="2062.9" cy="1384.55" r="14" fill="#e26f46" fill-rule="evenodd" fill-opacity="1" stroke="#000000" stroke-opacity="1" stroke-width="3.2"/>
<circle clip-path="url(#clip742)" cx="2177.02" cy="1385.2" r="14" fill="#e26f46" fill-rule="evenodd" fill-opacity="1" stroke="#000000" stroke-opacity="1" stroke-width="3.2"/>
<circle clip-path="url(#clip742)" cx="2291.13" cy="1385.62" r="14" fill="#e26f46" fill-rule="evenodd" fill-opacity="1" stroke="#000000" stroke-opacity="1" stroke-width="3.2"/>
<circle clip-path="url(#clip742)" cx="237.067" cy="1386.4" r="14" fill="#3da44d" fill-rule="evenodd" fill-opacity="1" stroke="#000000" stroke-opacity="1" stroke-width="3.2"/>
<circle clip-path="url(#clip742)" cx="351.182" cy="1386.4" r="14" fill="#3da44d" fill-rule="evenodd" fill-opacity="1" stroke="#000000" stroke-opacity="1" stroke-width="3.2"/>
<circle clip-path="url(#clip742)" cx="465.297" cy="1386.4" r="14" fill="#3da44d" fill-rule="evenodd" fill-opacity="1" stroke="#000000" stroke-opacity="1" stroke-width="3.2"/>
<circle clip-path="url(#clip742)" cx="579.412" cy="1386.4" r="14" fill="#3da44d" fill-rule="evenodd" fill-opacity="1" stroke="#000000" stroke-opacity="1" stroke-width="3.2"/>
<circle clip-path="url(#clip742)" cx="693.526" cy="1386.4" r="14" fill="#3da44d" fill-rule="evenodd" fill-opacity="1" stroke="#000000" stroke-opacity="1" stroke-width="3.2"/>
<circle clip-path="url(#clip742)" cx="807.641" cy="1386.4" r="14" fill="#3da44d" fill-rule="evenodd" fill-opacity="1" stroke="#000000" stroke-opacity="1" stroke-width="3.2"/>
<circle clip-path="url(#clip742)" cx="921.756" cy="1386.4" r="14" fill="#3da44d" fill-rule="evenodd" fill-opacity="1" stroke="#000000" stroke-opacity="1" stroke-width="3.2"/>
<circle clip-path="url(#clip742)" cx="1035.87" cy="160.56" r="14" fill="#3da44d" fill-rule="evenodd" fill-opacity="1" stroke="#000000" stroke-opacity="1" stroke-width="3.2"/>
<circle clip-path="url(#clip742)" cx="1149.99" cy="1215.82" r="14" fill="#3da44d" fill-rule="evenodd" fill-opacity="1" stroke="#000000" stroke-opacity="1" stroke-width="3.2"/>
<circle clip-path="url(#clip742)" cx="1264.1" cy="1315.77" r="14" fill="#3da44d" fill-rule="evenodd" fill-opacity="1" stroke="#000000" stroke-opacity="1" stroke-width="3.2"/>
<circle clip-path="url(#clip742)" cx="1378.22" cy="1350.35" r="14" fill="#3da44d" fill-rule="evenodd" fill-opacity="1" stroke="#000000" stroke-opacity="1" stroke-width="3.2"/>
<circle clip-path="url(#clip742)" cx="1492.33" cy="1366.22" r="14" fill="#3da44d" fill-rule="evenodd" fill-opacity="1" stroke="#000000" stroke-opacity="1" stroke-width="3.2"/>
<circle clip-path="url(#clip742)" cx="1606.45" cy="1374.49" r="14" fill="#3da44d" fill-rule="evenodd" fill-opacity="1" stroke="#000000" stroke-opacity="1" stroke-width="3.2"/>
<circle clip-path="url(#clip742)" cx="1720.56" cy="1379.13" r="14" fill="#3da44d" fill-rule="evenodd" fill-opacity="1" stroke="#000000" stroke-opacity="1" stroke-width="3.2"/>
<circle clip-path="url(#clip742)" cx="1834.67" cy="1381.86" r="14" fill="#3da44d" fill-rule="evenodd" fill-opacity="1" stroke="#000000" stroke-opacity="1" stroke-width="3.2"/>
<circle clip-path="url(#clip742)" cx="1948.79" cy="1383.52" r="14" fill="#3da44d" fill-rule="evenodd" fill-opacity="1" stroke="#000000" stroke-opacity="1" stroke-width="3.2"/>
<circle clip-path="url(#clip742)" cx="2062.9" cy="1384.55" r="14" fill="#3da44d" fill-rule="evenodd" fill-opacity="1" stroke="#000000" stroke-opacity="1" stroke-width="3.2"/>
<circle clip-path="url(#clip742)" cx="2177.02" cy="1385.2" r="14" fill="#3da44d" fill-rule="evenodd" fill-opacity="1" stroke="#000000" stroke-opacity="1" stroke-width="3.2"/>
<circle clip-path="url(#clip742)" cx="2291.13" cy="1385.62" r="14" fill="#3da44d" fill-rule="evenodd" fill-opacity="1" stroke="#000000" stroke-opacity="1" stroke-width="3.2"/>
<polyline clip-path="url(#clip742)" style="stroke:#c271d2; stroke-width:8; stroke-opacity:1; fill:none" points="
  237.067,1386.4 259.89,1386.4 282.713,1386.4 305.536,1386.4 328.359,1386.4 351.182,1386.4 374.005,1386.4 396.828,1386.4 419.651,1386.4 442.474,1386.4 
  465.297,1386.4 488.12,1386.4 510.943,1386.4 533.766,1386.4 556.589,1386.4 579.412,1386.4 602.235,1386.4 625.058,1386.4 647.881,1386.4 670.704,1386.4 
  693.526,1386.4 716.349,1386.4 739.172,1386.4 761.995,1386.4 784.818,1386.4 807.641,1386.4 830.464,1386.4 853.287,1386.4 876.11,1386.4 898.933,1386.4 
  921.756,1386.4 944.579,1386.4 967.402,1386.4 990.225,1386.4 1013.05,1386.4 1035.87,160.256 1058.69,783.133 1081.52,996.261 1104.34,1105.16 1127.16,1171.39 
  1149.99,1215.82 1172.81,1247.58 1195.63,1271.31 1218.45,1289.62 1241.28,1304.09 1264.1,1315.77 1286.92,1325.33 1309.75,1333.26 1332.57,1339.92 1355.39,1345.55 
  1378.22,1350.35 1401.04,1354.48 1423.86,1358.05 1446.68,1361.14 1469.51,1363.85 1492.33,1366.22 1515.15,1368.3 1537.98,1370.14 1560.8,1371.76 1583.62,1373.21 
  1606.45,1374.49 1629.27,1375.63 1652.09,1376.66 1674.91,1377.57 1697.74,1378.4 1720.56,1379.13 1743.38,1379.8 1766.21,1380.4 1789.03,1380.94 1811.85,1381.42 
  1834.67,1381.86 1857.5,1382.26 1880.32,1382.62 1903.14,1382.95 1925.97,1383.25 1948.79,1383.52 1971.61,1383.77 1994.44,1383.99 2017.26,1384.2 2040.08,1384.38 
  2062.9,1384.55 2085.73,1384.71 2108.55,1384.85 2131.37,1384.98 2154.2,1385.09 2177.02,1385.2 2199.84,1385.3 2222.67,1385.39 2245.49,1385.47 2268.31,1385.55 
  2291.13,1385.62 
  "/>
<path clip-path="url(#clip740)" d="
M1679.3 469.196 L2280.18 469.196 L2280.18 166.796 L1679.3 166.796  Z
  " fill="#ffffff" fill-rule="evenodd" fill-opacity="1"/>
<polyline clip-path="url(#clip740)" style="stroke:#000000; stroke-width:4; stroke-opacity:1; fill:none" points="
  1679.3,469.196 2280.18,469.196 2280.18,166.796 1679.3,166.796 1679.3,469.196 
  "/>
<circle clip-path="url(#clip740)" cx="1776.07" cy="227.276" r="23" fill="#009af9" fill-rule="evenodd" fill-opacity="1" stroke="#000000" stroke-opacity="1" stroke-width="5.12"/>
<path clip-path="url(#clip740)" d="M 0 0 M1888.67 214.602 L1882.33 231.801 L1895.04 231.801 L1888.67 214.602 M1886.03 209.996 L1891.33 209.996 L1904.5 244.556 L1899.64 244.556 L1896.5 235.69 L1880.92 235.69 L1877.77 244.556 L1872.84 244.556 L1886.03 209.996 Z" fill="#000000" fill-rule="evenodd" fill-opacity="1" /><path clip-path="url(#clip740)" d="M 0 0 M1913.83 213.838 L1913.83 240.713 L1919.48 240.713 Q1926.63 240.713 1929.94 237.472 Q1933.28 234.232 1933.28 227.241 Q1933.28 220.297 1929.94 217.079 Q1926.63 213.838 1919.48 213.838 L1913.83 213.838 M1909.16 209.996 L1918.76 209.996 Q1928.81 209.996 1933.51 214.186 Q1938.21 218.352 1938.21 227.241 Q1938.21 236.176 1933.49 240.366 Q1928.76 244.556 1918.76 244.556 L1909.16 244.556 L1909.16 209.996 Z" fill="#000000" fill-rule="evenodd" fill-opacity="1" /><path clip-path="url(#clip740)" d="M 0 0 M1950.94 244.556 L1937.74 209.996 L1942.63 209.996 L1953.58 239.093 L1964.55 209.996 L1969.41 209.996 L1956.24 244.556 L1950.94 244.556 Z" fill="#000000" fill-rule="evenodd" fill-opacity="1" /><path clip-path="url(#clip740)" d="M 0 0 M1973.53 209.996 L1978.23 209.996 L1978.23 230.991 Q1978.23 236.547 1980.24 239 Q1982.26 241.431 1986.77 241.431 Q1991.26 241.431 1993.28 239 Q1995.29 236.547 1995.29 230.991 L1995.29 209.996 L1999.99 209.996 L1999.99 231.57 Q1999.99 238.329 1996.63 241.778 Q1993.3 245.227 1986.77 245.227 Q1980.22 245.227 1976.87 241.778 Q1973.53 238.329 1973.53 231.57 L1973.53 209.996 Z" fill="#000000" fill-rule="evenodd" fill-opacity="1" /><path clip-path="url(#clip740)" d="M 0 0 M2004.64 209.996 L2011.61 209.996 L2020.43 233.514 L2029.3 209.996 L2036.26 209.996 L2036.26 244.556 L2031.7 244.556 L2031.7 214.209 L2022.79 237.912 L2018.09 237.912 L2009.18 214.209 L2009.18 244.556 L2004.64 244.556 L2004.64 209.996 Z" fill="#000000" fill-rule="evenodd" fill-opacity="1" /><path clip-path="url(#clip740)" d="M 0 0 M2045.59 213.838 L2045.59 226.824 L2051.47 226.824 Q2054.73 226.824 2056.52 225.135 Q2058.3 223.445 2058.3 220.32 Q2058.3 217.218 2056.52 215.528 Q2054.73 213.838 2051.47 213.838 L2045.59 213.838 M2040.92 209.996 L2051.47 209.996 Q2057.28 209.996 2060.24 212.635 Q2063.23 215.25 2063.23 220.32 Q2063.23 225.435 2060.24 228.051 Q2057.28 230.667 2051.47 230.667 L2045.59 230.667 L2045.59 244.556 L2040.92 244.556 L2040.92 209.996 Z" fill="#000000" fill-rule="evenodd" fill-opacity="1" /><path clip-path="url(#clip740)" d="M 0 0 M2088.6 211.13 L2088.6 215.69 Q2085.94 214.417 2083.58 213.792 Q2081.22 213.167 2079.02 213.167 Q2075.2 213.167 2073.11 214.648 Q2071.05 216.13 2071.05 218.861 Q2071.05 221.153 2072.42 222.334 Q2073.81 223.491 2077.65 224.209 L2080.48 224.787 Q2085.71 225.783 2088.18 228.306 Q2090.68 230.806 2090.68 235.019 Q2090.68 240.042 2087.3 242.634 Q2083.95 245.227 2077.44 245.227 Q2074.99 245.227 2072.21 244.671 Q2069.46 244.116 2066.49 243.028 L2066.49 238.213 Q2069.34 239.81 2072.07 240.621 Q2074.8 241.431 2077.44 241.431 Q2081.45 241.431 2083.62 239.857 Q2085.8 238.283 2085.8 235.366 Q2085.8 232.82 2084.23 231.384 Q2082.67 229.949 2079.11 229.232 L2076.26 228.676 Q2071.03 227.635 2068.69 225.412 Q2066.36 223.19 2066.36 219.232 Q2066.36 214.648 2069.57 212.01 Q2072.81 209.371 2078.48 209.371 Q2080.92 209.371 2083.44 209.811 Q2085.96 210.25 2088.6 211.13 Z" fill="#000000" fill-rule="evenodd" fill-opacity="1" /><path clip-path="url(#clip740)" d="M 0 0 M2115.08 213.838 L2115.08 240.713 L2120.73 240.713 Q2127.88 240.713 2131.19 237.472 Q2134.53 234.232 2134.53 227.241 Q2134.53 220.297 2131.19 217.079 Q2127.88 213.838 2120.73 213.838 L2115.08 213.838 M2110.41 209.996 L2120.01 209.996 Q2130.06 209.996 2134.76 214.186 Q2139.46 218.352 2139.46 227.241 Q2139.46 236.176 2134.73 240.366 Q2130.01 244.556 2120.01 244.556 L2110.41 244.556 L2110.41 209.996 Z" fill="#000000" fill-rule="evenodd" fill-opacity="1" /><path clip-path="url(#clip740)" d="M 0 0 M2159.55 223.028 L2189.22 223.028 L2189.22 226.917 L2159.55 226.917 L2159.55 223.028 M2159.55 232.472 L2189.22 232.472 L2189.22 236.408 L2159.55 236.408 L2159.55 232.472 Z" fill="#000000" fill-rule="evenodd" fill-opacity="1" /><path clip-path="url(#clip740)" d="M 0 0 M2213.39 240.621 L2229.71 240.621 L2229.71 244.556 L2207.77 244.556 L2207.77 240.621 Q2210.43 237.866 2215.01 233.236 Q2219.62 228.584 2220.8 227.241 Q2223.04 224.718 2223.92 222.982 Q2224.83 221.223 2224.83 219.533 Q2224.83 216.778 2222.88 215.042 Q2220.96 213.306 2217.86 213.306 Q2215.66 213.306 2213.21 214.07 Q2210.78 214.834 2208 216.385 L2208 211.662 Q2210.82 210.528 2213.28 209.949 Q2215.73 209.371 2217.77 209.371 Q2223.14 209.371 2226.33 212.056 Q2229.53 214.741 2229.53 219.232 Q2229.53 221.361 2228.72 223.283 Q2227.93 225.181 2225.82 227.773 Q2225.24 228.445 2222.14 231.662 Q2219.04 234.857 2213.39 240.621 Z" fill="#000000" fill-rule="evenodd" fill-opacity="1" /><circle clip-path="url(#clip740)" cx="1776.07" cy="287.756" r="23" fill="#e26f46" fill-rule="evenodd" fill-opacity="1" stroke="#000000" stroke-opacity="1" stroke-width="5.12"/>
<path clip-path="url(#clip740)" d="M 0 0 M1888.67 275.082 L1882.33 292.281 L1895.04 292.281 L1888.67 275.082 M1886.03 270.476 L1891.33 270.476 L1904.5 305.036 L1899.64 305.036 L1896.5 296.17 L1880.92 296.17 L1877.77 305.036 L1872.84 305.036 L1886.03 270.476 Z" fill="#000000" fill-rule="evenodd" fill-opacity="1" /><path clip-path="url(#clip740)" d="M 0 0 M1913.83 274.318 L1913.83 301.193 L1919.48 301.193 Q1926.63 301.193 1929.94 297.952 Q1933.28 294.712 1933.28 287.721 Q1933.28 280.777 1929.94 277.559 Q1926.63 274.318 1919.48 274.318 L1913.83 274.318 M1909.16 270.476 L1918.76 270.476 Q1928.81 270.476 1933.51 274.666 Q1938.21 278.832 1938.21 287.721 Q1938.21 296.656 1933.49 300.846 Q1928.76 305.036 1918.76 305.036 L1909.16 305.036 L1909.16 270.476 Z" fill="#000000" fill-rule="evenodd" fill-opacity="1" /><path clip-path="url(#clip740)" d="M 0 0 M1950.94 305.036 L1937.74 270.476 L1942.63 270.476 L1953.58 299.573 L1964.55 270.476 L1969.41 270.476 L1956.24 305.036 L1950.94 305.036 Z" fill="#000000" fill-rule="evenodd" fill-opacity="1" /><path clip-path="url(#clip740)" d="M 0 0 M1973.53 270.476 L1978.23 270.476 L1978.23 291.471 Q1978.23 297.027 1980.24 299.48 Q1982.26 301.911 1986.77 301.911 Q1991.26 301.911 1993.28 299.48 Q1995.29 297.027 1995.29 291.471 L1995.29 270.476 L1999.99 270.476 L1999.99 292.05 Q1999.99 298.809 1996.63 302.258 Q1993.3 305.707 1986.77 305.707 Q1980.22 305.707 1976.87 302.258 Q1973.53 298.809 1973.53 292.05 L1973.53 270.476 Z" fill="#000000" fill-rule="evenodd" fill-opacity="1" /><path clip-path="url(#clip740)" d="M 0 0 M2004.64 270.476 L2011.61 270.476 L2020.43 293.994 L2029.3 270.476 L2036.26 270.476 L2036.26 305.036 L2031.7 305.036 L2031.7 274.689 L2022.79 298.392 L2018.09 298.392 L2009.18 274.689 L2009.18 305.036 L2004.64 305.036 L2004.64 270.476 Z" fill="#000000" fill-rule="evenodd" fill-opacity="1" /><path clip-path="url(#clip740)" d="M 0 0 M2045.59 274.318 L2045.59 287.304 L2051.47 287.304 Q2054.73 287.304 2056.52 285.615 Q2058.3 283.925 2058.3 280.8 Q2058.3 277.698 2056.52 276.008 Q2054.73 274.318 2051.47 274.318 L2045.59 274.318 M2040.92 270.476 L2051.47 270.476 Q2057.28 270.476 2060.24 273.115 Q2063.23 275.73 2063.23 280.8 Q2063.23 285.915 2060.24 288.531 Q2057.28 291.147 2051.47 291.147 L2045.59 291.147 L2045.59 305.036 L2040.92 305.036 L2040.92 270.476 Z" fill="#000000" fill-rule="evenodd" fill-opacity="1" /><path clip-path="url(#clip740)" d="M 0 0 M2088.6 271.61 L2088.6 276.17 Q2085.94 274.897 2083.58 274.272 Q2081.22 273.647 2079.02 273.647 Q2075.2 273.647 2073.11 275.128 Q2071.05 276.61 2071.05 279.341 Q2071.05 281.633 2072.42 282.814 Q2073.81 283.971 2077.65 284.689 L2080.48 285.267 Q2085.71 286.263 2088.18 288.786 Q2090.68 291.286 2090.68 295.499 Q2090.68 300.522 2087.3 303.114 Q2083.95 305.707 2077.44 305.707 Q2074.99 305.707 2072.21 305.151 Q2069.46 304.596 2066.49 303.508 L2066.49 298.693 Q2069.34 300.29 2072.07 301.101 Q2074.8 301.911 2077.44 301.911 Q2081.45 301.911 2083.62 300.337 Q2085.8 298.763 2085.8 295.846 Q2085.8 293.3 2084.23 291.864 Q2082.67 290.429 2079.11 289.712 L2076.26 289.156 Q2071.03 288.115 2068.69 285.892 Q2066.36 283.67 2066.36 279.712 Q2066.36 275.128 2069.57 272.49 Q2072.81 269.851 2078.48 269.851 Q2080.92 269.851 2083.44 270.291 Q2085.96 270.73 2088.6 271.61 Z" fill="#000000" fill-rule="evenodd" fill-opacity="1" /><path clip-path="url(#clip740)" d="M 0 0 M2115.08 274.318 L2115.08 301.193 L2120.73 301.193 Q2127.88 301.193 2131.19 297.952 Q2134.53 294.712 2134.53 287.721 Q2134.53 280.777 2131.19 277.559 Q2127.88 274.318 2120.73 274.318 L2115.08 274.318 M2110.41 270.476 L2120.01 270.476 Q2130.06 270.476 2134.76 274.666 Q2139.46 278.832 2139.46 287.721 Q2139.46 296.656 2134.73 300.846 Q2130.01 305.036 2120.01 305.036 L2110.41 305.036 L2110.41 270.476 Z" fill="#000000" fill-rule="evenodd" fill-opacity="1" /><path clip-path="url(#clip740)" d="M 0 0 M2159.55 283.508 L2189.22 283.508 L2189.22 287.397 L2159.55 287.397 L2159.55 283.508 M2159.55 292.952 L2189.22 292.952 L2189.22 296.888 L2159.55 296.888 L2159.55 292.952 Z" fill="#000000" fill-rule="evenodd" fill-opacity="1" /><path clip-path="url(#clip740)" d="M 0 0 M2222.21 274.55 L2210.41 292.999 L2222.21 292.999 L2222.21 274.55 M2220.98 270.476 L2226.86 270.476 L2226.86 292.999 L2231.79 292.999 L2231.79 296.888 L2226.86 296.888 L2226.86 305.036 L2222.21 305.036 L2222.21 296.888 L2206.61 296.888 L2206.61 292.374 L2220.98 270.476 Z" fill="#000000" fill-rule="evenodd" fill-opacity="1" /><circle clip-path="url(#clip740)" cx="1776.07" cy="348.236" r="23" fill="#3da44d" fill-rule="evenodd" fill-opacity="1" stroke="#000000" stroke-opacity="1" stroke-width="5.12"/>
<path clip-path="url(#clip740)" d="M 0 0 M1888.67 335.562 L1882.33 352.761 L1895.04 352.761 L1888.67 335.562 M1886.03 330.956 L1891.33 330.956 L1904.5 365.516 L1899.64 365.516 L1896.5 356.65 L1880.92 356.65 L1877.77 365.516 L1872.84 365.516 L1886.03 330.956 Z" fill="#000000" fill-rule="evenodd" fill-opacity="1" /><path clip-path="url(#clip740)" d="M 0 0 M1913.83 334.798 L1913.83 361.673 L1919.48 361.673 Q1926.63 361.673 1929.94 358.432 Q1933.28 355.192 1933.28 348.201 Q1933.28 341.257 1929.94 338.039 Q1926.63 334.798 1919.48 334.798 L1913.83 334.798 M1909.16 330.956 L1918.76 330.956 Q1928.81 330.956 1933.51 335.146 Q1938.21 339.312 1938.21 348.201 Q1938.21 357.136 1933.49 361.326 Q1928.76 365.516 1918.76 365.516 L1909.16 365.516 L1909.16 330.956 Z" fill="#000000" fill-rule="evenodd" fill-opacity="1" /><path clip-path="url(#clip740)" d="M 0 0 M1950.94 365.516 L1937.74 330.956 L1942.63 330.956 L1953.58 360.053 L1964.55 330.956 L1969.41 330.956 L1956.24 365.516 L1950.94 365.516 Z" fill="#000000" fill-rule="evenodd" fill-opacity="1" /><path clip-path="url(#clip740)" d="M 0 0 M1973.53 330.956 L1978.23 330.956 L1978.23 351.951 Q1978.23 357.507 1980.24 359.96 Q1982.26 362.391 1986.77 362.391 Q1991.26 362.391 1993.28 359.96 Q1995.29 357.507 1995.29 351.951 L1995.29 330.956 L1999.99 330.956 L1999.99 352.53 Q1999.99 359.289 1996.63 362.738 Q1993.3 366.187 1986.77 366.187 Q1980.22 366.187 1976.87 362.738 Q1973.53 359.289 1973.53 352.53 L1973.53 330.956 Z" fill="#000000" fill-rule="evenodd" fill-opacity="1" /><path clip-path="url(#clip740)" d="M 0 0 M2004.64 330.956 L2011.61 330.956 L2020.43 354.474 L2029.3 330.956 L2036.26 330.956 L2036.26 365.516 L2031.7 365.516 L2031.7 335.169 L2022.79 358.872 L2018.09 358.872 L2009.18 335.169 L2009.18 365.516 L2004.64 365.516 L2004.64 330.956 Z" fill="#000000" fill-rule="evenodd" fill-opacity="1" /><path clip-path="url(#clip740)" d="M 0 0 M2045.59 334.798 L2045.59 347.784 L2051.47 347.784 Q2054.73 347.784 2056.52 346.095 Q2058.3 344.405 2058.3 341.28 Q2058.3 338.178 2056.52 336.488 Q2054.73 334.798 2051.47 334.798 L2045.59 334.798 M2040.92 330.956 L2051.47 330.956 Q2057.28 330.956 2060.24 333.595 Q2063.23 336.21 2063.23 341.28 Q2063.23 346.395 2060.24 349.011 Q2057.28 351.627 2051.47 351.627 L2045.59 351.627 L2045.59 365.516 L2040.92 365.516 L2040.92 330.956 Z" fill="#000000" fill-rule="evenodd" fill-opacity="1" /><path clip-path="url(#clip740)" d="M 0 0 M2088.6 332.09 L2088.6 336.65 Q2085.94 335.377 2083.58 334.752 Q2081.22 334.127 2079.02 334.127 Q2075.2 334.127 2073.11 335.608 Q2071.05 337.09 2071.05 339.821 Q2071.05 342.113 2072.42 343.294 Q2073.81 344.451 2077.65 345.169 L2080.48 345.747 Q2085.71 346.743 2088.18 349.266 Q2090.68 351.766 2090.68 355.979 Q2090.68 361.002 2087.3 363.594 Q2083.95 366.187 2077.44 366.187 Q2074.99 366.187 2072.21 365.631 Q2069.46 365.076 2066.49 363.988 L2066.49 359.173 Q2069.34 360.77 2072.07 361.581 Q2074.8 362.391 2077.44 362.391 Q2081.45 362.391 2083.62 360.817 Q2085.8 359.243 2085.8 356.326 Q2085.8 353.78 2084.23 352.344 Q2082.67 350.909 2079.11 350.192 L2076.26 349.636 Q2071.03 348.595 2068.69 346.372 Q2066.36 344.15 2066.36 340.192 Q2066.36 335.608 2069.57 332.97 Q2072.81 330.331 2078.48 330.331 Q2080.92 330.331 2083.44 330.771 Q2085.96 331.21 2088.6 332.09 Z" fill="#000000" fill-rule="evenodd" fill-opacity="1" /><path clip-path="url(#clip740)" d="M 0 0 M2115.08 334.798 L2115.08 361.673 L2120.73 361.673 Q2127.88 361.673 2131.19 358.432 Q2134.53 355.192 2134.53 348.201 Q2134.53 341.257 2131.19 338.039 Q2127.88 334.798 2120.73 334.798 L2115.08 334.798 M2110.41 330.956 L2120.01 330.956 Q2130.06 330.956 2134.76 335.146 Q2139.46 339.312 2139.46 348.201 Q2139.46 357.136 2134.73 361.326 Q2130.01 365.516 2120.01 365.516 L2110.41 365.516 L2110.41 330.956 Z" fill="#000000" fill-rule="evenodd" fill-opacity="1" /><path clip-path="url(#clip740)" d="M 0 0 M2159.55 343.988 L2189.22 343.988 L2189.22 347.877 L2159.55 347.877 L2159.55 343.988 M2159.55 353.432 L2189.22 353.432 L2189.22 357.368 L2159.55 357.368 L2159.55 353.432 Z" fill="#000000" fill-rule="evenodd" fill-opacity="1" /><path clip-path="url(#clip740)" d="M 0 0 M2219.36 349.104 Q2216.03 349.104 2214.11 350.886 Q2212.21 352.669 2212.21 355.794 Q2212.21 358.919 2214.11 360.701 Q2216.03 362.483 2219.36 362.483 Q2222.7 362.483 2224.62 360.701 Q2226.54 358.895 2226.54 355.794 Q2226.54 352.669 2224.62 350.886 Q2222.72 349.104 2219.36 349.104 M2214.69 347.113 Q2211.68 346.372 2209.99 344.312 Q2208.32 342.252 2208.32 339.289 Q2208.32 335.146 2211.26 332.738 Q2214.22 330.331 2219.36 330.331 Q2224.53 330.331 2227.47 332.738 Q2230.41 335.146 2230.41 339.289 Q2230.41 342.252 2228.72 344.312 Q2227.05 346.372 2224.06 347.113 Q2227.44 347.9 2229.32 350.192 Q2231.22 352.483 2231.22 355.794 Q2231.22 360.817 2228.14 363.502 Q2225.08 366.187 2219.36 366.187 Q2213.65 366.187 2210.57 363.502 Q2207.51 360.817 2207.51 355.794 Q2207.51 352.483 2209.41 350.192 Q2211.31 347.9 2214.69 347.113 M2212.97 339.729 Q2212.97 342.414 2214.64 343.919 Q2216.33 345.423 2219.36 345.423 Q2222.37 345.423 2224.06 343.919 Q2225.78 342.414 2225.78 339.729 Q2225.78 337.044 2224.06 335.539 Q2222.37 334.034 2219.36 334.034 Q2216.33 334.034 2214.64 335.539 Q2212.97 337.044 2212.97 339.729 Z" fill="#000000" fill-rule="evenodd" fill-opacity="1" /><polyline clip-path="url(#clip740)" style="stroke:#c271d2; stroke-width:4; stroke-opacity:1; fill:none" points="
  1703.49,408.716 1848.65,408.716 
  "/>
<path clip-path="url(#clip740)" d="M 0 0 M1896.87 411.968 L1896.87 414.051 L1877.28 414.051 Q1877.56 418.449 1879.92 420.764 Q1882.31 423.056 1886.54 423.056 Q1889 423.056 1891.29 422.454 Q1893.6 421.852 1895.87 420.649 L1895.87 424.676 Q1893.58 425.648 1891.17 426.158 Q1888.76 426.667 1886.29 426.667 Q1880.08 426.667 1876.45 423.056 Q1872.84 419.445 1872.84 413.287 Q1872.84 406.922 1876.26 403.195 Q1879.71 399.445 1885.55 399.445 Q1890.78 399.445 1893.81 402.825 Q1896.87 406.181 1896.87 411.968 M1892.61 410.718 Q1892.56 407.223 1890.64 405.139 Q1888.74 403.056 1885.59 403.056 Q1882.03 403.056 1879.87 405.07 Q1877.75 407.084 1877.42 410.741 L1892.61 410.718 Z" fill="#000000" fill-rule="evenodd" fill-opacity="1" /><path clip-path="url(#clip740)" d="M 0 0 M1922.05 400.07 L1912.68 412.686 L1922.54 425.996 L1917.51 425.996 L1909.97 415.811 L1902.42 425.996 L1897.4 425.996 L1907.47 412.431 L1898.25 400.07 L1903.28 400.07 L1910.15 409.306 L1917.03 400.07 L1922.05 400.07 Z" fill="#000000" fill-rule="evenodd" fill-opacity="1" /><path clip-path="url(#clip740)" d="M 0 0 M1938.79 412.963 Q1933.62 412.963 1931.63 414.144 Q1929.64 415.324 1929.64 418.172 Q1929.64 420.44 1931.12 421.783 Q1932.63 423.102 1935.2 423.102 Q1938.74 423.102 1940.87 420.602 Q1943.02 418.079 1943.02 413.912 L1943.02 412.963 L1938.79 412.963 M1947.28 411.204 L1947.28 425.996 L1943.02 425.996 L1943.02 422.061 Q1941.56 424.422 1939.39 425.556 Q1937.21 426.667 1934.06 426.667 Q1930.08 426.667 1927.72 424.445 Q1925.38 422.199 1925.38 418.449 Q1925.38 414.074 1928.3 411.852 Q1931.24 409.63 1937.05 409.63 L1943.02 409.63 L1943.02 409.213 Q1943.02 406.274 1941.08 404.676 Q1939.16 403.056 1935.66 403.056 Q1933.44 403.056 1931.33 403.588 Q1929.23 404.121 1927.28 405.186 L1927.28 401.25 Q1929.62 400.348 1931.82 399.908 Q1934.02 399.445 1936.1 399.445 Q1941.73 399.445 1944.5 402.362 Q1947.28 405.278 1947.28 411.204 Z" fill="#000000" fill-rule="evenodd" fill-opacity="1" /><path clip-path="url(#clip740)" d="M 0 0 M1970.41 401.065 L1970.41 405.047 Q1968.6 404.051 1966.77 403.565 Q1964.97 403.056 1963.12 403.056 Q1958.97 403.056 1956.68 405.695 Q1954.39 408.311 1954.39 413.056 Q1954.39 417.801 1956.68 420.44 Q1958.97 423.056 1963.12 423.056 Q1964.97 423.056 1966.77 422.57 Q1968.6 422.061 1970.41 421.065 L1970.41 425 Q1968.62 425.834 1966.7 426.25 Q1964.8 426.667 1962.65 426.667 Q1956.8 426.667 1953.35 422.986 Q1949.9 419.306 1949.9 413.056 Q1949.9 406.713 1953.37 403.079 Q1956.87 399.445 1962.93 399.445 Q1964.9 399.445 1966.77 399.862 Q1968.65 400.255 1970.41 401.065 Z" fill="#000000" fill-rule="evenodd" fill-opacity="1" /><path clip-path="url(#clip740)" d="M 0 0 M1979.09 392.709 L1979.09 400.07 L1987.86 400.07 L1987.86 403.38 L1979.09 403.38 L1979.09 417.454 Q1979.09 420.625 1979.94 421.528 Q1980.82 422.431 1983.49 422.431 L1987.86 422.431 L1987.86 425.996 L1983.49 425.996 Q1978.55 425.996 1976.68 424.167 Q1974.8 422.315 1974.8 417.454 L1974.8 403.38 L1971.68 403.38 L1971.68 400.07 L1974.8 400.07 L1974.8 392.709 L1979.09 392.709 Z" fill="#000000" fill-rule="evenodd" fill-opacity="1" /></svg>
