<?xml version="1.0" encoding="utf-8"?>
<svg xmlns="http://www.w3.org/2000/svg" xmlns:xlink="http://www.w3.org/1999/xlink" width="600" height="400" viewBox="0 0 2400 1600">
<defs>
  <clipPath id="clip620">
    <rect x="0" y="0" width="2400" height="1600"/>
  </clipPath>
</defs>
<path clip-path="url(#clip620)" d="
M0 1600 L2400 1600 L2400 0 L0 0  Z
  " fill="#ffffff" fill-rule="evenodd" fill-opacity="1"/>
<defs>
  <clipPath id="clip621">
    <rect x="480" y="0" width="1681" height="1600"/>
  </clipPath>
</defs>
<path clip-path="url(#clip620)" d="
M203.964 1423.18 L2352.76 1423.18 L2352.76 123.472 L203.964 123.472  Z
  " fill="#ffffff" fill-rule="evenodd" fill-opacity="1"/>
<defs>
  <clipPath id="clip622">
    <rect x="203" y="123" width="2150" height="1301"/>
  </clipPath>
</defs>
<polyline clip-path="url(#clip622)" style="stroke:#000000; stroke-width:2; stroke-opacity:0.1; fill:none" points="
  554.373,1423.18 554.373,123.472 
  "/>
<polyline clip-path="url(#clip622)" style="stroke:#000000; stroke-width:2; stroke-opacity:0.1; fill:none" points="
  1133.56,1423.18 1133.56,123.472 
  "/>
<polyline clip-path="url(#clip622)" style="stroke:#000000; stroke-width:2; stroke-opacity:0.1; fill:none" points="
  1712.75,1423.18 1712.75,123.472 
  "/>
<polyline clip-path="url(#clip622)" style="stroke:#000000; stroke-width:2; stroke-opacity:0.1; fill:none" points="
  2291.94,1423.18 2291.94,123.472 
  "/>
<polyline clip-path="url(#clip620)" style="stroke:#000000; stroke-width:4; stroke-opacity:1; fill:none" points="
  203.964,1423.18 2352.76,1423.18 
  "/>
<polyline clip-path="url(#clip620)" style="stroke:#000000; stroke-width:4; stroke-opacity:1; fill:none" points="
  554.373,1423.18 554.373,1407.58 
  "/>
<polyline clip-path="url(#clip620)" style="stroke:#000000; stroke-width:4; stroke-opacity:1; fill:none" points="
  1133.56,1423.18 1133.56,1407.58 
  "/>
<polyline clip-path="url(#clip620)" style="stroke:#000000; stroke-width:4; stroke-opacity:1; fill:none" points="
  1712.75,1423.18 1712.75,1407.58 
  "/>
<polyline clip-path="url(#clip620)" style="stroke:#000000; stroke-width:4; stroke-opacity:1; fill:none" points="
  2291.94,1423.18 2291.94,1407.58 
  "/>
<path clip-path="url(#clip620)" d="M 0 0 M533.146 1479.92 L549.466 1479.92 L549.466 1483.85 L527.521 1483.85 L527.521 1479.92 Q530.183 1477.16 534.767 1472.53 Q539.373 1467.88 540.554 1466.54 Q542.799 1464.01 543.679 1462.28 Q544.581 1460.52 544.581 1458.83 Q544.581 1456.07 542.637 1454.34 Q540.716 1452.6 537.614 1452.6 Q535.415 1452.6 532.961 1453.37 Q530.531 1454.13 527.753 1455.68 L527.753 1450.96 Q530.577 1449.82 533.031 1449.25 Q535.484 1448.67 537.521 1448.67 Q542.892 1448.67 546.086 1451.35 Q549.281 1454.04 549.281 1458.53 Q549.281 1460.66 548.47 1462.58 Q547.683 1464.48 545.577 1467.07 Q544.998 1467.74 541.896 1470.96 Q538.794 1474.15 533.146 1479.92 Z" fill="#000000" fill-rule="evenodd" fill-opacity="1" /><path clip-path="url(#clip620)" d="M 0 0 M569.28 1452.37 Q565.669 1452.37 563.841 1455.94 Q562.035 1459.48 562.035 1466.61 Q562.035 1473.71 563.841 1477.28 Q565.669 1480.82 569.28 1480.82 Q572.915 1480.82 574.72 1477.28 Q576.549 1473.71 576.549 1466.61 Q576.549 1459.48 574.72 1455.94 Q572.915 1452.37 569.28 1452.37 M569.28 1448.67 Q575.091 1448.67 578.146 1453.27 Q581.225 1457.86 581.225 1466.61 Q581.225 1475.33 578.146 1479.94 Q575.091 1484.52 569.28 1484.52 Q563.47 1484.52 560.392 1479.94 Q557.336 1475.33 557.336 1466.61 Q557.336 1457.86 560.392 1453.27 Q563.47 1448.67 569.28 1448.67 Z" fill="#000000" fill-rule="evenodd" fill-opacity="1" /><path clip-path="url(#clip620)" d="M 0 0 M1122.41 1465.22 Q1125.76 1465.94 1127.64 1468.2 Q1129.53 1470.47 1129.53 1473.81 Q1129.53 1478.92 1126.02 1481.72 Q1122.5 1484.52 1116.02 1484.52 Q1113.84 1484.52 1111.53 1484.08 Q1109.23 1483.67 1106.78 1482.81 L1106.78 1478.3 Q1108.72 1479.43 1111.04 1480.01 Q1113.35 1480.59 1115.88 1480.59 Q1120.28 1480.59 1122.57 1478.85 Q1124.88 1477.12 1124.88 1473.81 Q1124.88 1470.75 1122.73 1469.04 Q1120.6 1467.3 1116.78 1467.3 L1112.75 1467.3 L1112.75 1463.46 L1116.97 1463.46 Q1120.41 1463.46 1122.24 1462.09 Q1124.07 1460.7 1124.07 1458.11 Q1124.07 1455.45 1122.17 1454.04 Q1120.3 1452.6 1116.78 1452.6 Q1114.86 1452.6 1112.66 1453.02 Q1110.46 1453.44 1107.82 1454.31 L1107.82 1450.15 Q1110.48 1449.41 1112.8 1449.04 Q1115.14 1448.67 1117.2 1448.67 Q1122.52 1448.67 1125.62 1451.1 Q1128.72 1453.5 1128.72 1457.63 Q1128.72 1460.5 1127.08 1462.49 Q1125.44 1464.45 1122.41 1465.22 Z" fill="#000000" fill-rule="evenodd" fill-opacity="1" /><path clip-path="url(#clip620)" d="M 0 0 M1148.4 1452.37 Q1144.79 1452.37 1142.96 1455.94 Q1141.15 1459.48 1141.15 1466.61 Q1141.15 1473.71 1142.96 1477.28 Q1144.79 1480.82 1148.4 1480.82 Q1152.03 1480.82 1153.84 1477.28 Q1155.67 1473.71 1155.67 1466.61 Q1155.67 1459.48 1153.84 1455.94 Q1152.03 1452.37 1148.4 1452.37 M1148.4 1448.67 Q1154.21 1448.67 1157.27 1453.27 Q1160.34 1457.86 1160.34 1466.61 Q1160.34 1475.33 1157.27 1479.94 Q1154.21 1484.52 1148.4 1484.52 Q1142.59 1484.52 1139.51 1479.94 Q1136.46 1475.33 1136.46 1466.61 Q1136.46 1457.86 1139.51 1453.27 Q1142.59 1448.67 1148.4 1448.67 Z" fill="#000000" fill-rule="evenodd" fill-opacity="1" /><path clip-path="url(#clip620)" d="M 0 0 M1700.92 1453.37 L1689.12 1471.81 L1700.92 1471.81 L1700.92 1453.37 M1699.7 1449.29 L1705.58 1449.29 L1705.58 1471.81 L1710.51 1471.81 L1710.51 1475.7 L1705.58 1475.7 L1705.58 1483.85 L1700.92 1483.85 L1700.92 1475.7 L1685.32 1475.7 L1685.32 1471.19 L1699.7 1449.29 Z" fill="#000000" fill-rule="evenodd" fill-opacity="1" /><path clip-path="url(#clip620)" d="M 0 0 M1728.24 1452.37 Q1724.63 1452.37 1722.8 1455.94 Q1720.99 1459.48 1720.99 1466.61 Q1720.99 1473.71 1722.8 1477.28 Q1724.63 1480.82 1728.24 1480.82 Q1731.87 1480.82 1733.68 1477.28 Q1735.51 1473.71 1735.51 1466.61 Q1735.51 1459.48 1733.68 1455.94 Q1731.87 1452.37 1728.24 1452.37 M1728.24 1448.67 Q1734.05 1448.67 1737.1 1453.27 Q1740.18 1457.86 1740.18 1466.61 Q1740.18 1475.33 1737.1 1479.94 Q1734.05 1484.52 1728.24 1484.52 Q1722.43 1484.52 1719.35 1479.94 Q1716.29 1475.33 1716.29 1466.61 Q1716.29 1457.86 1719.35 1453.27 Q1722.43 1448.67 1728.24 1448.67 Z" fill="#000000" fill-rule="evenodd" fill-opacity="1" /><path clip-path="url(#clip620)" d="M 0 0 M2266.64 1449.29 L2285 1449.29 L2285 1453.23 L2270.92 1453.23 L2270.92 1461.7 Q2271.94 1461.35 2272.96 1461.19 Q2273.98 1461 2275 1461 Q2280.78 1461 2284.16 1464.18 Q2287.54 1467.35 2287.54 1472.76 Q2287.54 1478.34 2284.07 1481.44 Q2280.6 1484.52 2274.28 1484.52 Q2272.1 1484.52 2269.83 1484.15 Q2267.59 1483.78 2265.18 1483.04 L2265.18 1478.34 Q2267.27 1479.48 2269.49 1480.03 Q2271.71 1480.59 2274.19 1480.59 Q2278.19 1480.59 2280.53 1478.48 Q2282.87 1476.38 2282.87 1472.76 Q2282.87 1469.15 2280.53 1467.05 Q2278.19 1464.94 2274.19 1464.94 Q2272.31 1464.94 2270.44 1465.36 Q2268.58 1465.77 2266.64 1466.65 L2266.64 1449.29 Z" fill="#000000" fill-rule="evenodd" fill-opacity="1" /><path clip-path="url(#clip620)" d="M 0 0 M2306.76 1452.37 Q2303.14 1452.37 2301.32 1455.94 Q2299.51 1459.48 2299.51 1466.61 Q2299.51 1473.71 2301.32 1477.28 Q2303.14 1480.82 2306.76 1480.82 Q2310.39 1480.82 2312.2 1477.28 Q2314.02 1473.71 2314.02 1466.61 Q2314.02 1459.48 2312.2 1455.94 Q2310.39 1452.37 2306.76 1452.37 M2306.76 1448.67 Q2312.57 1448.67 2315.62 1453.27 Q2318.7 1457.86 2318.7 1466.61 Q2318.7 1475.33 2315.62 1479.94 Q2312.57 1484.52 2306.76 1484.52 Q2300.95 1484.52 2297.87 1479.94 Q2294.81 1475.33 2294.81 1466.61 Q2294.81 1457.86 2297.87 1453.27 Q2300.95 1448.67 2306.76 1448.67 Z" fill="#000000" fill-rule="evenodd" fill-opacity="1" /><path clip-path="url(#clip620)" d="M 0 0 M1264.82 1525.81 L1264.82 1562.76 L1272.58 1562.76 Q1282.42 1562.76 1286.97 1558.3 Q1291.55 1553.85 1291.55 1544.24 Q1291.55 1534.69 1286.97 1530.26 Q1282.42 1525.81 1272.58 1525.81 L1264.82 1525.81 M1258.39 1520.52 L1271.6 1520.52 Q1285.41 1520.52 1291.87 1526.28 Q1298.33 1532.01 1298.33 1544.24 Q1298.33 1556.52 1291.84 1562.28 Q1285.35 1568.04 1271.6 1568.04 L1258.39 1568.04 L1258.39 1520.52 Z" fill="#000000" fill-rule="evenodd" fill-opacity="1" /><polyline clip-path="url(#clip622)" style="stroke:#000000; stroke-width:2; stroke-opacity:0.1; fill:none" points="
  203.964,1311.4 2352.76,1311.4 
  "/>
<polyline clip-path="url(#clip622)" style="stroke:#000000; stroke-width:2; stroke-opacity:0.1; fill:none" points="
  203.964,1111.73 2352.76,1111.73 
  "/>
<polyline clip-path="url(#clip622)" style="stroke:#000000; stroke-width:2; stroke-opacity:0.1; fill:none" points="
  203.964,912.059 2352.76,912.059 
  "/>
<polyline clip-path="url(#clip622)" style="stroke:#000000; stroke-width:2; stroke-opacity:0.1; fill:none" points="
  203.964,712.387 2352.76,712.387 
  "/>
<polyline clip-path="url(#clip622)" style="stroke:#000000; stroke-width:2; stroke-opacity:0.1; fill:none" points="
  203.964,512.715 2352.76,512.715 
  "/>
<polyline clip-path="url(#clip622)" style="stroke:#000000; stroke-width:2; stroke-opacity:0.1; fill:none" points="
  203.964,313.043 2352.76,313.043 
  "/>
<polyline clip-path="url(#clip620)" style="stroke:#000000; stroke-width:4; stroke-opacity:1; fill:none" points="
  203.964,1423.18 203.964,123.472 
  "/>
<polyline clip-path="url(#clip620)" style="stroke:#000000; stroke-width:4; stroke-opacity:1; fill:none" points="
  203.964,1311.4 229.749,1311.4 
  "/>
<polyline clip-path="url(#clip620)" style="stroke:#000000; stroke-width:4; stroke-opacity:1; fill:none" points="
  203.964,1111.73 229.749,1111.73 
  "/>
<polyline clip-path="url(#clip620)" style="stroke:#000000; stroke-width:4; stroke-opacity:1; fill:none" points="
  203.964,912.059 229.749,912.059 
  "/>
<polyline clip-path="url(#clip620)" style="stroke:#000000; stroke-width:4; stroke-opacity:1; fill:none" points="
  203.964,712.387 229.749,712.387 
  "/>
<polyline clip-path="url(#clip620)" style="stroke:#000000; stroke-width:4; stroke-opacity:1; fill:none" points="
  203.964,512.715 229.749,512.715 
  "/>
<polyline clip-path="url(#clip620)" style="stroke:#000000; stroke-width:4; stroke-opacity:1; fill:none" points="
  203.964,313.043 229.749,313.043 
  "/>
<path clip-path="url(#clip620)" d="M 0 0 M147.061 1294.12 L165.417 1294.12 L165.417 1298.06 L151.343 1298.06 L151.343 1306.53 Q152.362 1306.18 153.38 1306.02 Q154.399 1305.84 155.417 1305.84 Q161.204 1305.84 164.584 1309.01 Q167.964 1312.18 167.964 1317.59 Q167.964 1323.17 164.491 1326.28 Q161.019 1329.35 154.7 1329.35 Q152.524 1329.35 150.255 1328.98 Q148.01 1328.61 145.603 1327.87 L145.603 1323.17 Q147.686 1324.31 149.908 1324.86 Q152.13 1325.42 154.607 1325.42 Q158.612 1325.42 160.95 1323.31 Q163.288 1321.21 163.288 1317.59 Q163.288 1313.98 160.95 1311.88 Q158.612 1309.77 154.607 1309.77 Q152.732 1309.77 150.857 1310.19 Q149.005 1310.6 147.061 1311.48 L147.061 1294.12 Z" fill="#000000" fill-rule="evenodd" fill-opacity="1" /><path clip-path="url(#clip620)" d="M 0 0 M116.668 1125.08 L124.306 1125.08 L124.306 1098.71 L115.996 1100.38 L115.996 1096.12 L124.26 1094.45 L128.936 1094.45 L128.936 1125.08 L136.575 1125.08 L136.575 1129.01 L116.668 1129.01 L116.668 1125.08 Z" fill="#000000" fill-rule="evenodd" fill-opacity="1" /><path clip-path="url(#clip620)" d="M 0 0 M156.019 1097.53 Q152.408 1097.53 150.579 1101.09 Q148.774 1104.64 148.774 1111.77 Q148.774 1118.87 150.579 1122.44 Q152.408 1125.98 156.019 1125.98 Q159.653 1125.98 161.459 1122.44 Q163.288 1118.87 163.288 1111.77 Q163.288 1104.64 161.459 1101.09 Q159.653 1097.53 156.019 1097.53 M156.019 1093.83 Q161.829 1093.83 164.885 1098.43 Q167.964 1103.02 167.964 1111.77 Q167.964 1120.49 164.885 1125.1 Q161.829 1129.68 156.019 1129.68 Q150.209 1129.68 147.13 1125.1 Q144.075 1120.49 144.075 1111.77 Q144.075 1103.02 147.13 1098.43 Q150.209 1093.83 156.019 1093.83 Z" fill="#000000" fill-rule="evenodd" fill-opacity="1" /><path clip-path="url(#clip620)" d="M 0 0 M117.663 925.404 L125.302 925.404 L125.302 899.038 L116.992 900.705 L116.992 896.445 L125.255 894.779 L129.931 894.779 L129.931 925.404 L137.57 925.404 L137.57 929.339 L117.663 929.339 L117.663 925.404 Z" fill="#000000" fill-rule="evenodd" fill-opacity="1" /><path clip-path="url(#clip620)" d="M 0 0 M147.061 894.779 L165.417 894.779 L165.417 898.714 L151.343 898.714 L151.343 907.186 Q152.362 906.839 153.38 906.677 Q154.399 906.492 155.417 906.492 Q161.204 906.492 164.584 909.663 Q167.964 912.834 167.964 918.251 Q167.964 923.829 164.491 926.931 Q161.019 930.01 154.7 930.01 Q152.524 930.01 150.255 929.64 Q148.01 929.269 145.603 928.529 L145.603 923.829 Q147.686 924.964 149.908 925.519 Q152.13 926.075 154.607 926.075 Q158.612 926.075 160.95 923.968 Q163.288 921.862 163.288 918.251 Q163.288 914.64 160.95 912.533 Q158.612 910.427 154.607 910.427 Q152.732 910.427 150.857 910.843 Q149.005 911.26 147.061 912.14 L147.061 894.779 Z" fill="#000000" fill-rule="evenodd" fill-opacity="1" /><path clip-path="url(#clip620)" d="M 0 0 M119.885 725.732 L136.204 725.732 L136.204 729.667 L114.26 729.667 L114.26 725.732 Q116.922 722.977 121.505 718.347 Q126.112 713.695 127.292 712.352 Q129.538 709.829 130.417 708.093 Q131.32 706.334 131.32 704.644 Q131.32 701.889 129.376 700.153 Q127.455 698.417 124.353 698.417 Q122.154 698.417 119.7 699.181 Q117.269 699.945 114.492 701.496 L114.492 696.773 Q117.316 695.639 119.769 695.061 Q122.223 694.482 124.26 694.482 Q129.63 694.482 132.825 697.167 Q136.019 699.852 136.019 704.343 Q136.019 706.472 135.209 708.394 Q134.422 710.292 132.316 712.884 Q131.737 713.556 128.635 716.773 Q125.533 719.968 119.885 725.732 Z" fill="#000000" fill-rule="evenodd" fill-opacity="1" /><path clip-path="url(#clip620)" d="M 0 0 M156.019 698.185 Q152.408 698.185 150.579 701.75 Q148.774 705.292 148.774 712.422 Q148.774 719.528 150.579 723.093 Q152.408 726.634 156.019 726.634 Q159.653 726.634 161.459 723.093 Q163.288 719.528 163.288 712.422 Q163.288 705.292 161.459 701.75 Q159.653 698.185 156.019 698.185 M156.019 694.482 Q161.829 694.482 164.885 699.088 Q167.964 703.672 167.964 712.422 Q167.964 721.148 164.885 725.755 Q161.829 730.338 156.019 730.338 Q150.209 730.338 147.13 725.755 Q144.075 721.148 144.075 712.422 Q144.075 703.672 147.13 699.088 Q150.209 694.482 156.019 694.482 Z" fill="#000000" fill-rule="evenodd" fill-opacity="1" /><path clip-path="url(#clip620)" d="M 0 0 M120.88 526.06 L137.2 526.06 L137.2 529.995 L115.256 529.995 L115.256 526.06 Q117.918 523.305 122.501 518.676 Q127.107 514.023 128.288 512.68 Q130.533 510.157 131.413 508.421 Q132.316 506.662 132.316 504.972 Q132.316 502.217 130.371 500.481 Q128.45 498.745 125.348 498.745 Q123.149 498.745 120.695 499.509 Q118.265 500.273 115.487 501.824 L115.487 497.102 Q118.311 495.967 120.765 495.389 Q123.218 494.81 125.255 494.81 Q130.626 494.81 133.82 497.495 Q137.015 500.18 137.015 504.671 Q137.015 506.801 136.204 508.722 Q135.417 510.62 133.311 513.213 Q132.732 513.884 129.63 517.101 Q126.529 520.296 120.88 526.06 Z" fill="#000000" fill-rule="evenodd" fill-opacity="1" /><path clip-path="url(#clip620)" d="M 0 0 M147.061 495.435 L165.417 495.435 L165.417 499.37 L151.343 499.37 L151.343 507.842 Q152.362 507.495 153.38 507.333 Q154.399 507.148 155.417 507.148 Q161.204 507.148 164.584 510.319 Q167.964 513.49 167.964 518.907 Q167.964 524.486 164.491 527.588 Q161.019 530.666 154.7 530.666 Q152.524 530.666 150.255 530.296 Q148.01 529.925 145.603 529.185 L145.603 524.486 Q147.686 525.62 149.908 526.175 Q152.13 526.731 154.607 526.731 Q158.612 526.731 160.95 524.625 Q163.288 522.518 163.288 518.907 Q163.288 515.296 160.95 513.189 Q158.612 511.083 154.607 511.083 Q152.732 511.083 150.857 511.5 Q149.005 511.916 147.061 512.796 L147.061 495.435 Z" fill="#000000" fill-rule="evenodd" fill-opacity="1" /><path clip-path="url(#clip620)" d="M 0 0 M130.024 311.689 Q133.38 312.406 135.255 314.675 Q137.154 316.943 137.154 320.277 Q137.154 325.392 133.635 328.193 Q130.117 330.994 123.635 330.994 Q121.459 330.994 119.144 330.555 Q116.853 330.138 114.399 329.281 L114.399 324.768 Q116.343 325.902 118.658 326.48 Q120.973 327.059 123.496 327.059 Q127.894 327.059 130.186 325.323 Q132.501 323.587 132.501 320.277 Q132.501 317.221 130.348 315.508 Q128.218 313.772 124.399 313.772 L120.371 313.772 L120.371 309.93 L124.584 309.93 Q128.033 309.93 129.862 308.564 Q131.691 307.175 131.691 304.582 Q131.691 301.92 129.792 300.508 Q127.917 299.073 124.399 299.073 Q122.478 299.073 120.279 299.49 Q118.08 299.907 115.441 300.786 L115.441 296.62 Q118.103 295.879 120.418 295.508 Q122.755 295.138 124.816 295.138 Q130.14 295.138 133.242 297.569 Q136.343 299.976 136.343 304.096 Q136.343 306.967 134.7 308.957 Q133.056 310.925 130.024 311.689 Z" fill="#000000" fill-rule="evenodd" fill-opacity="1" /><path clip-path="url(#clip620)" d="M 0 0 M156.019 298.842 Q152.408 298.842 150.579 302.407 Q148.774 305.948 148.774 313.078 Q148.774 320.184 150.579 323.749 Q152.408 327.291 156.019 327.291 Q159.653 327.291 161.459 323.749 Q163.288 320.184 163.288 313.078 Q163.288 305.948 161.459 302.407 Q159.653 298.842 156.019 298.842 M156.019 295.138 Q161.829 295.138 164.885 299.744 Q167.964 304.328 167.964 313.078 Q167.964 321.805 164.885 326.411 Q161.829 330.994 156.019 330.994 Q150.209 330.994 147.13 326.411 Q144.075 321.805 144.075 313.078 Q144.075 304.328 147.13 299.744 Q150.209 295.138 156.019 295.138 Z" fill="#000000" fill-rule="evenodd" fill-opacity="1" /><path clip-path="url(#clip620)" d="M 0 0 M18.2347 862.271 L28.3562 862.271 L28.3562 850.208 L32.9077 850.208 L32.9077 862.271 L52.2594 862.271 Q56.6199 862.271 57.8613 861.093 Q59.1026 859.884 59.1026 856.223 L59.1026 850.208 L64.0042 850.208 L64.0042 856.223 Q64.0042 863.003 61.4897 865.581 Q58.9434 868.159 52.2594 868.159 L32.9077 868.159 L32.9077 872.456 L28.3562 872.456 L28.3562 868.159 L18.2347 868.159 L18.2347 862.271 Z" fill="#000000" fill-rule="evenodd" fill-opacity="1" /><path clip-path="url(#clip620)" d="M 0 0 M28.3562 842.505 L28.3562 836.649 L64.0042 836.649 L64.0042 842.505 L28.3562 842.505 M14.479 842.505 L14.479 836.649 L21.895 836.649 L21.895 842.505 L14.479 842.505 Z" fill="#000000" fill-rule="evenodd" fill-opacity="1" /><path clip-path="url(#clip620)" d="M 0 0 M35.1993 796.64 Q31.2526 794.444 29.3747 791.389 Q27.4968 788.333 27.4968 784.195 Q27.4968 778.625 31.4117 775.602 Q35.2948 772.578 42.4881 772.578 L64.0042 772.578 L64.0042 778.466 L42.679 778.466 Q37.5546 778.466 35.072 780.281 Q32.5894 782.095 32.5894 785.819 Q32.5894 790.37 35.6131 793.012 Q38.6368 795.654 43.8567 795.654 L64.0042 795.654 L64.0042 801.542 L42.679 801.542 Q37.5228 801.542 35.072 803.356 Q32.5894 805.17 32.5894 808.958 Q32.5894 813.446 35.6449 816.088 Q38.6686 818.729 43.8567 818.729 L64.0042 818.729 L64.0042 824.618 L28.3562 824.618 L28.3562 818.729 L33.8944 818.729 Q30.616 816.724 29.0564 813.923 Q27.4968 811.122 27.4968 807.271 Q27.4968 803.388 29.4702 800.683 Q31.4436 797.945 35.1993 796.64 Z" fill="#000000" fill-rule="evenodd" fill-opacity="1" /><path clip-path="url(#clip620)" d="M 0 0 M44.7161 730.405 L47.5806 730.405 L47.5806 757.332 Q53.6281 756.95 56.8109 753.704 Q59.9619 750.425 59.9619 744.601 Q59.9619 741.227 59.1344 738.076 Q58.3069 734.893 56.6518 731.774 L62.1899 731.774 Q63.5267 734.925 64.227 738.235 Q64.9272 741.545 64.9272 744.951 Q64.9272 753.481 59.9619 758.478 Q54.9967 763.443 46.5303 763.443 Q37.7774 763.443 32.6531 758.733 Q27.4968 753.99 27.4968 745.969 Q27.4968 738.776 32.1438 734.607 Q36.7589 730.405 44.7161 730.405 M42.9973 736.262 Q38.1912 736.325 35.3266 738.967 Q32.4621 741.577 32.4621 745.906 Q32.4621 750.807 35.2312 753.767 Q38.0002 756.696 43.0292 757.141 L42.9973 736.262 Z" fill="#000000" fill-rule="evenodd" fill-opacity="1" /><path clip-path="url(#clip620)" d="M 0 0 M16.4842 710.385 L16.4842 704.974 L70.0516 721.525 L70.0516 726.936 L16.4842 710.385 Z" fill="#000000" fill-rule="evenodd" fill-opacity="1" /><path clip-path="url(#clip620)" d="M 0 0 M29.4065 676.106 L34.9447 676.106 Q33.6716 678.588 33.035 681.262 Q32.3984 683.936 32.3984 686.8 Q32.3984 691.161 33.7352 693.357 Q35.072 695.521 37.7456 695.521 Q39.7826 695.521 40.9603 693.962 Q42.1061 692.402 43.1565 687.691 L43.6021 685.686 Q44.9389 679.448 47.3897 676.838 Q49.8086 674.196 54.1691 674.196 Q59.1344 674.196 62.0308 678.143 Q64.9272 682.058 64.9272 688.933 Q64.9272 691.797 64.3543 694.916 Q63.8132 698.004 62.6992 701.441 L56.6518 701.441 Q58.3387 698.195 59.198 695.044 Q60.0256 691.893 60.0256 688.805 Q60.0256 684.668 58.6251 682.44 Q57.1929 680.212 54.6147 680.212 Q52.2276 680.212 50.9545 681.835 Q49.6813 683.426 48.5037 688.869 L48.0262 690.906 Q46.8804 696.349 44.5251 698.768 Q42.138 701.187 38.0002 701.187 Q32.9713 701.187 30.2341 697.622 Q27.4968 694.057 27.4968 687.5 Q27.4968 684.254 27.9743 681.389 Q28.4517 678.525 29.4065 676.106 Z" fill="#000000" fill-rule="evenodd" fill-opacity="1" /><path clip-path="url(#clip620)" d="M 0 0 M1154.26 14.324 L1154.26 27.2059 L1169.61 27.2059 L1169.61 32.9987 L1154.26 32.9987 L1154.26 57.6282 Q1154.26 63.1779 1155.76 64.7578 Q1157.3 66.3376 1161.96 66.3376 L1169.61 66.3376 L1169.61 72.576 L1161.96 72.576 Q1153.33 72.576 1150.05 69.3758 Q1146.77 66.1351 1146.77 57.6282 L1146.77 32.9987 L1141.3 32.9987 L1141.3 27.2059 L1146.77 27.2059 L1146.77 14.324 L1154.26 14.324 Z" fill="#000000" fill-rule="evenodd" fill-opacity="1" /><path clip-path="url(#clip620)" d="M 0 0 M1179.42 27.2059 L1186.87 27.2059 L1186.87 72.576 L1179.42 72.576 L1179.42 27.2059 M1179.42 9.54393 L1186.87 9.54393 L1186.87 18.9825 L1179.42 18.9825 L1179.42 9.54393 Z" fill="#000000" fill-rule="evenodd" fill-opacity="1" /><path clip-path="url(#clip620)" d="M 0 0 M1237.79 35.9153 Q1240.59 30.8922 1244.47 28.5022 Q1248.36 26.1121 1253.63 26.1121 Q1260.72 26.1121 1264.57 31.0947 Q1268.41 36.0368 1268.41 45.1919 L1268.41 72.576 L1260.92 72.576 L1260.92 45.4349 Q1260.92 38.913 1258.61 35.7533 Q1256.3 32.5936 1251.56 32.5936 Q1245.77 32.5936 1242.41 36.4419 Q1239.05 40.2903 1239.05 46.9338 L1239.05 72.576 L1231.55 72.576 L1231.55 45.4349 Q1231.55 38.8725 1229.24 35.7533 Q1226.93 32.5936 1222.11 32.5936 Q1216.4 32.5936 1213.04 36.4824 Q1209.68 40.3308 1209.68 46.9338 L1209.68 72.576 L1202.18 72.576 L1202.18 27.2059 L1209.68 27.2059 L1209.68 34.2544 Q1212.23 30.082 1215.79 28.0971 Q1219.36 26.1121 1224.26 26.1121 Q1229.2 26.1121 1232.65 28.6237 Q1236.13 31.1352 1237.79 35.9153 Z" fill="#000000" fill-rule="evenodd" fill-opacity="1" /><path clip-path="url(#clip620)" d="M 0 0 M1322.09 48.0275 L1322.09 51.6733 L1287.82 51.6733 Q1288.3 59.3701 1292.44 63.421 Q1296.61 67.4314 1304.02 67.4314 Q1308.32 67.4314 1312.33 66.3781 Q1316.38 65.3249 1320.35 63.2184 L1320.35 70.267 Q1316.34 71.9684 1312.12 72.8596 Q1307.91 73.7508 1303.58 73.7508 Q1292.72 73.7508 1286.36 67.4314 Q1280.04 61.1119 1280.04 50.3365 Q1280.04 39.1965 1286.04 32.6746 Q1292.07 26.1121 1302.28 26.1121 Q1311.44 26.1121 1316.74 32.0264 Q1322.09 37.9003 1322.09 48.0275 M1314.64 45.84 Q1314.55 39.7232 1311.19 36.0774 Q1307.87 32.4315 1302.36 32.4315 Q1296.12 32.4315 1292.36 35.9558 Q1288.63 39.4801 1288.06 45.8805 L1314.64 45.84 Z" fill="#000000" fill-rule="evenodd" fill-opacity="1" /><path clip-path="url(#clip620)" d="M 0 0 M1330.56 46.5287 L1352.39 46.5287 L1352.39 53.1722 L1330.56 53.1722 L1330.56 46.5287 Z" fill="#000000" fill-rule="evenodd" fill-opacity="1" /><path clip-path="url(#clip620)" d="M 0 0 M1372.77 18.8205 L1372.77 65.8515 L1382.65 65.8515 Q1395.17 65.8515 1400.96 60.1802 Q1406.79 54.509 1406.79 42.2752 Q1406.79 30.1225 1400.96 24.4918 Q1395.17 18.8205 1382.65 18.8205 L1372.77 18.8205 M1364.58 12.096 L1381.39 12.096 Q1398.98 12.096 1407.2 19.4281 Q1415.42 26.7198 1415.42 42.2752 Q1415.42 57.9117 1407.16 65.2439 Q1398.89 72.576 1381.39 72.576 L1364.58 72.576 L1364.58 12.096 Z" fill="#000000" fill-rule="evenodd" fill-opacity="1" /><polyline clip-path="url(#clip622)" style="stroke:#009af9; stroke-width:12; stroke-opacity:1; fill:none" stroke-dasharray="48, 24, 6, 24, 6, 24" points="
  264.778,1386.4 554.373,1329.56 843.968,1166.63 1133.56,975.569 1423.16,785.312 1712.75,589.455 2002.35,414.552 2291.94,160.256 
  "/>
<polyline clip-path="url(#clip622)" style="stroke:#e26f46; stroke-width:12; stroke-opacity:1; fill:none" points="
  264.778,1311.24 554.373,1289.9 843.968,1295.66 1133.56,1314.61 1423.16,1138.75 1712.75,1175.81 2002.35,1168.86 2291.94,1027.98 
  "/>
<path clip-path="url(#clip620)" d="
M275.59 348.236 L862.792 348.236 L862.792 166.796 L275.59 166.796  Z
  " fill="#ffffff" fill-rule="evenodd" fill-opacity="1"/>
<polyline clip-path="url(#clip620)" style="stroke:#000000; stroke-width:4; stroke-opacity:1; fill:none" points="
  275.59,348.236 862.792,348.236 862.792,166.796 275.59,166.796 275.59,348.236 
  "/>
<polyline clip-path="url(#clip620)" style="stroke:#009af9; stroke-width:4; stroke-opacity:1; fill:none" stroke-dasharray="16, 8, 2, 8, 2, 8" points="
  299.465,227.276 442.718,227.276 
  "/>
<path clip-path="url(#clip620)" d="M 0 0 M482.427 214.602 L476.084 231.801 L488.793 231.801 L482.427 214.602 M479.788 209.996 L485.089 209.996 L498.26 244.556 L493.399 244.556 L490.251 235.69 L474.672 235.69 L471.524 244.556 L466.594 244.556 L479.788 209.996 Z" fill="#000000" fill-rule="evenodd" fill-opacity="1" /><path clip-path="url(#clip620)" d="M 0 0 M518.144 222.611 Q517.427 222.195 516.57 222.01 Q515.737 221.801 514.718 221.801 Q511.107 221.801 509.163 224.162 Q507.242 226.5 507.242 230.898 L507.242 244.556 L502.959 244.556 L502.959 218.63 L507.242 218.63 L507.242 222.658 Q508.584 220.297 510.737 219.162 Q512.89 218.005 515.968 218.005 Q516.408 218.005 516.941 218.074 Q517.473 218.121 518.121 218.236 L518.144 222.611 Z" fill="#000000" fill-rule="evenodd" fill-opacity="1" /><path clip-path="url(#clip620)" d="M 0 0 M536.802 222.611 Q536.084 222.195 535.228 222.01 Q534.394 221.801 533.376 221.801 Q529.765 221.801 527.82 224.162 Q525.899 226.5 525.899 230.898 L525.899 244.556 L521.617 244.556 L521.617 218.63 L525.899 218.63 L525.899 222.658 Q527.242 220.297 529.394 219.162 Q531.547 218.005 534.626 218.005 Q535.066 218.005 535.598 218.074 Q536.13 218.121 536.779 218.236 L536.802 222.611 Z" fill="#000000" fill-rule="evenodd" fill-opacity="1" /><path clip-path="url(#clip620)" d="M 0 0 M553.052 231.523 Q547.89 231.523 545.899 232.704 Q543.908 233.884 543.908 236.732 Q543.908 239 545.39 240.343 Q546.894 241.662 549.464 241.662 Q553.005 241.662 555.135 239.162 Q557.288 236.639 557.288 232.472 L557.288 231.523 L553.052 231.523 M561.547 229.764 L561.547 244.556 L557.288 244.556 L557.288 240.621 Q555.829 242.982 553.653 244.116 Q551.478 245.227 548.329 245.227 Q544.348 245.227 541.987 243.005 Q539.649 240.759 539.649 237.009 Q539.649 232.634 542.566 230.412 Q545.505 228.19 551.316 228.19 L557.288 228.19 L557.288 227.773 Q557.288 224.834 555.343 223.236 Q553.422 221.616 549.927 221.616 Q547.704 221.616 545.598 222.148 Q543.491 222.681 541.547 223.746 L541.547 219.81 Q543.885 218.908 546.084 218.468 Q548.283 218.005 550.366 218.005 Q555.991 218.005 558.769 220.922 Q561.547 223.838 561.547 229.764 Z" fill="#000000" fill-rule="evenodd" fill-opacity="1" /><path clip-path="url(#clip620)" d="M 0 0 M581.107 246.963 Q579.301 251.593 577.589 253.005 Q575.876 254.417 573.005 254.417 L569.602 254.417 L569.602 250.852 L572.102 250.852 Q573.862 250.852 574.834 250.019 Q575.806 249.185 576.987 246.083 L577.751 244.139 L567.265 218.63 L571.778 218.63 L579.88 238.908 L587.982 218.63 L592.496 218.63 L581.107 246.963 Z" fill="#000000" fill-rule="evenodd" fill-opacity="1" /><path clip-path="url(#clip620)" d="M 0 0 M630.505 222.565 L630.505 208.537 L634.764 208.537 L634.764 244.556 L630.505 244.556 L630.505 240.667 Q629.162 242.982 627.102 244.116 Q625.065 245.227 622.195 245.227 Q617.496 245.227 614.533 241.477 Q611.593 237.727 611.593 231.616 Q611.593 225.505 614.533 221.755 Q617.496 218.005 622.195 218.005 Q625.065 218.005 627.102 219.139 Q629.162 220.25 630.505 222.565 M615.991 231.616 Q615.991 236.315 617.912 239 Q619.857 241.662 623.236 241.662 Q626.616 241.662 628.56 239 Q630.505 236.315 630.505 231.616 Q630.505 226.917 628.56 224.255 Q626.616 221.57 623.236 221.57 Q619.857 221.57 617.912 224.255 Q615.991 226.917 615.991 231.616 Z" fill="#000000" fill-rule="evenodd" fill-opacity="1" /><path clip-path="url(#clip620)" d="M 0 0 M644.093 223.028 L673.769 223.028 L673.769 226.917 L644.093 226.917 L644.093 223.028 M644.093 232.472 L673.769 232.472 L673.769 236.408 L644.093 236.408 L644.093 232.472 Z" fill="#000000" fill-rule="evenodd" fill-opacity="1" /><path clip-path="url(#clip620)" d="M 0 0 M684.671 240.621 L692.31 240.621 L692.31 214.255 L684 215.922 L684 211.662 L692.264 209.996 L696.94 209.996 L696.94 240.621 L704.579 240.621 L704.579 244.556 L684.671 244.556 L684.671 240.621 Z" fill="#000000" fill-rule="evenodd" fill-opacity="1" /><path clip-path="url(#clip620)" d="M 0 0 M724.602 225.412 Q721.453 225.412 719.602 227.565 Q717.773 229.718 717.773 233.468 Q717.773 237.195 719.602 239.371 Q721.453 241.523 724.602 241.523 Q727.75 241.523 729.578 239.371 Q731.43 237.195 731.43 233.468 Q731.43 229.718 729.578 227.565 Q727.75 225.412 724.602 225.412 M733.884 210.76 L733.884 215.019 Q732.125 214.186 730.319 213.746 Q728.537 213.306 726.778 213.306 Q722.148 213.306 719.694 216.431 Q717.264 219.556 716.916 225.875 Q718.282 223.861 720.342 222.797 Q722.403 221.709 724.879 221.709 Q730.088 221.709 733.097 224.88 Q736.129 228.028 736.129 233.468 Q736.129 238.792 732.981 242.009 Q729.833 245.227 724.602 245.227 Q718.606 245.227 715.435 240.644 Q712.264 236.037 712.264 227.31 Q712.264 219.116 716.153 214.255 Q720.041 209.371 726.592 209.371 Q728.352 209.371 730.134 209.718 Q731.94 210.065 733.884 210.76 Z" fill="#000000" fill-rule="evenodd" fill-opacity="1" /><polyline clip-path="url(#clip620)" style="stroke:#e26f46; stroke-width:4; stroke-opacity:1; fill:none" points="
  299.465,287.756 442.718,287.756 
  "/>
<path clip-path="url(#clip620)" d="M 0 0 M494.464 273.138 L494.464 278.068 Q492.103 275.869 489.418 274.781 Q486.756 273.693 483.746 273.693 Q477.821 273.693 474.672 277.328 Q471.524 280.939 471.524 287.79 Q471.524 294.619 474.672 298.253 Q477.821 301.864 483.746 301.864 Q486.756 301.864 489.418 300.776 Q492.103 299.689 494.464 297.489 L494.464 302.374 Q492.01 304.04 489.256 304.874 Q486.524 305.707 483.469 305.707 Q475.621 305.707 471.108 300.915 Q466.594 296.101 466.594 287.79 Q466.594 279.457 471.108 274.666 Q475.621 269.851 483.469 269.851 Q486.57 269.851 489.302 270.684 Q492.057 271.494 494.464 273.138 Z" fill="#000000" fill-rule="evenodd" fill-opacity="1" /><path clip-path="url(#clip620)" d="M 0 0 M501.061 294.804 L501.061 279.11 L505.32 279.11 L505.32 294.642 Q505.32 298.323 506.756 300.175 Q508.191 302.003 511.061 302.003 Q514.51 302.003 516.501 299.804 Q518.515 297.605 518.515 293.809 L518.515 279.11 L522.774 279.11 L522.774 305.036 L518.515 305.036 L518.515 301.054 Q516.964 303.415 514.904 304.573 Q512.867 305.707 510.158 305.707 Q505.691 305.707 503.376 302.929 Q501.061 300.151 501.061 294.804 M511.779 278.485 L511.779 278.485 Z" fill="#000000" fill-rule="evenodd" fill-opacity="1" /><path clip-path="url(#clip620)" d="M 0 0 M543.283 275.082 L536.941 292.281 L549.649 292.281 L543.283 275.082 M540.644 270.476 L545.945 270.476 L559.116 305.036 L554.255 305.036 L551.107 296.17 L535.529 296.17 L532.38 305.036 L527.45 305.036 L540.644 270.476 Z" fill="#000000" fill-rule="evenodd" fill-opacity="1" /><path clip-path="url(#clip620)" d="M 0 0 M579.001 283.091 Q578.283 282.675 577.426 282.49 Q576.593 282.281 575.575 282.281 Q571.964 282.281 570.019 284.642 Q568.098 286.98 568.098 291.378 L568.098 305.036 L563.815 305.036 L563.815 279.11 L568.098 279.11 L568.098 283.138 Q569.44 280.777 571.593 279.642 Q573.746 278.485 576.825 278.485 Q577.264 278.485 577.797 278.554 Q578.329 278.601 578.977 278.716 L579.001 283.091 Z" fill="#000000" fill-rule="evenodd" fill-opacity="1" /><path clip-path="url(#clip620)" d="M 0 0 M597.658 283.091 Q596.94 282.675 596.084 282.49 Q595.25 282.281 594.232 282.281 Q590.621 282.281 588.676 284.642 Q586.755 286.98 586.755 291.378 L586.755 305.036 L582.473 305.036 L582.473 279.11 L586.755 279.11 L586.755 283.138 Q588.098 280.777 590.25 279.642 Q592.403 278.485 595.482 278.485 Q595.922 278.485 596.454 278.554 Q596.987 278.601 597.635 278.716 L597.658 283.091 Z" fill="#000000" fill-rule="evenodd" fill-opacity="1" /><path clip-path="url(#clip620)" d="M 0 0 M613.908 292.003 Q608.746 292.003 606.755 293.184 Q604.764 294.364 604.764 297.212 Q604.764 299.48 606.246 300.823 Q607.75 302.142 610.32 302.142 Q613.861 302.142 615.991 299.642 Q618.144 297.119 618.144 292.952 L618.144 292.003 L613.908 292.003 M622.403 290.244 L622.403 305.036 L618.144 305.036 L618.144 301.101 Q616.686 303.462 614.51 304.596 Q612.334 305.707 609.186 305.707 Q605.204 305.707 602.843 303.485 Q600.505 301.239 600.505 297.489 Q600.505 293.114 603.422 290.892 Q606.362 288.67 612.172 288.67 L618.144 288.67 L618.144 288.253 Q618.144 285.314 616.199 283.716 Q614.278 282.096 610.783 282.096 Q608.561 282.096 606.454 282.628 Q604.348 283.161 602.403 284.226 L602.403 280.29 Q604.741 279.388 606.94 278.948 Q609.139 278.485 611.223 278.485 Q616.848 278.485 619.625 281.402 Q622.403 284.318 622.403 290.244 Z" fill="#000000" fill-rule="evenodd" fill-opacity="1" /><path clip-path="url(#clip620)" d="M 0 0 M641.963 307.443 Q640.158 312.073 638.445 313.485 Q636.732 314.897 633.861 314.897 L630.459 314.897 L630.459 311.332 L632.959 311.332 Q634.718 311.332 635.69 310.499 Q636.662 309.665 637.843 306.563 L638.607 304.619 L628.121 279.11 L632.635 279.11 L640.736 299.388 L648.838 279.11 L653.352 279.11 L641.963 307.443 Z" fill="#000000" fill-rule="evenodd" fill-opacity="1" /><path clip-path="url(#clip620)" d="M 0 0 M691.361 283.045 L691.361 269.017 L695.62 269.017 L695.62 305.036 L691.361 305.036 L691.361 301.147 Q690.018 303.462 687.958 304.596 Q685.921 305.707 683.051 305.707 Q678.352 305.707 675.389 301.957 Q672.449 298.207 672.449 292.096 Q672.449 285.985 675.389 282.235 Q678.352 278.485 683.051 278.485 Q685.921 278.485 687.958 279.619 Q690.018 280.73 691.361 283.045 M676.847 292.096 Q676.847 296.795 678.769 299.48 Q680.713 302.142 684.093 302.142 Q687.472 302.142 689.417 299.48 Q691.361 296.795 691.361 292.096 Q691.361 287.397 689.417 284.735 Q687.472 282.05 684.093 282.05 Q680.713 282.05 678.769 284.735 Q676.847 287.397 676.847 292.096 Z" fill="#000000" fill-rule="evenodd" fill-opacity="1" /><path clip-path="url(#clip620)" d="M 0 0 M704.949 283.508 L734.625 283.508 L734.625 287.397 L704.949 287.397 L704.949 283.508 M704.949 292.952 L734.625 292.952 L734.625 296.888 L704.949 296.888 L704.949 292.952 Z" fill="#000000" fill-rule="evenodd" fill-opacity="1" /><path clip-path="url(#clip620)" d="M 0 0 M745.527 301.101 L753.166 301.101 L753.166 274.735 L744.856 276.402 L744.856 272.142 L753.12 270.476 L757.796 270.476 L757.796 301.101 L765.435 301.101 L765.435 305.036 L745.527 305.036 L745.527 301.101 Z" fill="#000000" fill-rule="evenodd" fill-opacity="1" /><path clip-path="url(#clip620)" d="M 0 0 M785.458 285.892 Q782.31 285.892 780.458 288.045 Q778.629 290.198 778.629 293.948 Q778.629 297.675 780.458 299.851 Q782.31 302.003 785.458 302.003 Q788.606 302.003 790.435 299.851 Q792.286 297.675 792.286 293.948 Q792.286 290.198 790.435 288.045 Q788.606 285.892 785.458 285.892 M794.74 271.24 L794.74 275.499 Q792.981 274.666 791.175 274.226 Q789.393 273.786 787.634 273.786 Q783.004 273.786 780.55 276.911 Q778.12 280.036 777.773 286.355 Q779.138 284.341 781.199 283.277 Q783.259 282.189 785.736 282.189 Q790.944 282.189 793.953 285.36 Q796.985 288.508 796.985 293.948 Q796.985 299.272 793.837 302.489 Q790.689 305.707 785.458 305.707 Q779.462 305.707 776.291 301.124 Q773.12 296.517 773.12 287.79 Q773.12 279.596 777.009 274.735 Q780.898 269.851 787.449 269.851 Q789.208 269.851 790.99 270.198 Q792.796 270.545 794.74 271.24 Z" fill="#000000" fill-rule="evenodd" fill-opacity="1" /></svg>
