<?xml version="1.0" encoding="utf-8"?>
<svg xmlns="http://www.w3.org/2000/svg" xmlns:xlink="http://www.w3.org/1999/xlink" width="600" height="400" viewBox="0 0 2400 1600">
<defs>
  <clipPath id="clip580">
    <rect x="0" y="0" width="2400" height="1600"/>
  </clipPath>
</defs>
<path clip-path="url(#clip580)" d="
M0 1600 L2400 1600 L2400 0 L0 0  Z
  " fill="#ffffff" fill-rule="evenodd" fill-opacity="1"/>
<defs>
  <clipPath id="clip581">
    <rect x="480" y="0" width="1681" height="1600"/>
  </clipPath>
</defs>
<path clip-path="url(#clip580)" d="
M175.445 1423.18 L2352.76 1423.18 L2352.76 123.472 L175.445 123.472  Z
  " fill="#ffffff" fill-rule="evenodd" fill-opacity="1"/>
<defs>
  <clipPath id="clip582">
    <rect x="175" y="123" width="2178" height="1301"/>
  </clipPath>
</defs>
<polyline clip-path="url(#clip582)" style="stroke:#000000; stroke-width:2; stroke-opacity:0.1; fill:none" points="
  237.067,1423.18 237.067,123.472 
  "/>
<polyline clip-path="url(#clip582)" style="stroke:#000000; stroke-width:2; stroke-opacity:0.1; fill:none" points="
  750.584,1423.18 750.584,123.472 
  "/>
<polyline clip-path="url(#clip582)" style="stroke:#000000; stroke-width:2; stroke-opacity:0.1; fill:none" points="
  1264.1,1423.18 1264.1,123.472 
  "/>
<polyline clip-path="url(#clip582)" style="stroke:#000000; stroke-width:2; stroke-opacity:0.1; fill:none" points="
  1777.62,1423.18 1777.62,123.472 
  "/>
<polyline clip-path="url(#clip582)" style="stroke:#000000; stroke-width:2; stroke-opacity:0.1; fill:none" points="
  2291.13,1423.18 2291.13,123.472 
  "/>
<polyline clip-path="url(#clip580)" style="stroke:#000000; stroke-width:4; stroke-opacity:1; fill:none" points="
  175.445,1423.18 2352.76,1423.18 
  "/>
<polyline clip-path="url(#clip580)" style="stroke:#000000; stroke-width:4; stroke-opacity:1; fill:none" points="
  237.067,1423.18 237.067,1407.58 
  "/>
<polyline clip-path="url(#clip580)" style="stroke:#000000; stroke-width:4; stroke-opacity:1; fill:none" points="
  750.584,1423.18 750.584,1407.58 
  "/>
<polyline clip-path="url(#clip580)" style="stroke:#000000; stroke-width:4; stroke-opacity:1; fill:none" points="
  1264.1,1423.18 1264.1,1407.58 
  "/>
<polyline clip-path="url(#clip580)" style="stroke:#000000; stroke-width:4; stroke-opacity:1; fill:none" points="
  1777.62,1423.18 1777.62,1407.58 
  "/>
<polyline clip-path="url(#clip580)" style="stroke:#000000; stroke-width:4; stroke-opacity:1; fill:none" points="
  2291.13,1423.18 2291.13,1407.58 
  "/>
<path clip-path="url(#clip580)" d="M 0 0 M211.755 1479.92 L219.394 1479.92 L219.394 1453.55 L211.084 1455.22 L211.084 1450.96 L219.347 1449.29 L224.023 1449.29 L224.023 1479.92 L231.662 1479.92 L231.662 1483.85 L211.755 1483.85 L211.755 1479.92 Z" fill="#000000" fill-rule="evenodd" fill-opacity="1" /><path clip-path="url(#clip580)" d="M 0 0 M251.106 1452.37 Q247.495 1452.37 245.667 1455.94 Q243.861 1459.48 243.861 1466.61 Q243.861 1473.71 245.667 1477.28 Q247.495 1480.82 251.106 1480.82 Q254.741 1480.82 256.546 1477.28 Q258.375 1473.71 258.375 1466.61 Q258.375 1459.48 256.546 1455.94 Q254.741 1452.37 251.106 1452.37 M251.106 1448.67 Q256.917 1448.67 259.972 1453.27 Q263.051 1457.86 263.051 1466.61 Q263.051 1475.33 259.972 1479.94 Q256.917 1484.52 251.106 1484.52 Q245.296 1484.52 242.218 1479.94 Q239.162 1475.33 239.162 1466.61 Q239.162 1457.86 242.218 1453.27 Q245.296 1448.67 251.106 1448.67 Z" fill="#000000" fill-rule="evenodd" fill-opacity="1" /><path clip-path="url(#clip580)" d="M 0 0 M729.357 1479.92 L745.677 1479.92 L745.677 1483.85 L723.732 1483.85 L723.732 1479.92 Q726.394 1477.16 730.978 1472.53 Q735.584 1467.88 736.765 1466.54 Q739.01 1464.01 739.889 1462.28 Q740.792 1460.52 740.792 1458.83 Q740.792 1456.07 738.848 1454.34 Q736.927 1452.6 733.825 1452.6 Q731.626 1452.6 729.172 1453.37 Q726.741 1454.13 723.964 1455.68 L723.964 1450.96 Q726.788 1449.82 729.241 1449.25 Q731.695 1448.67 733.732 1448.67 Q739.102 1448.67 742.297 1451.35 Q745.491 1454.04 745.491 1458.53 Q745.491 1460.66 744.681 1462.58 Q743.894 1464.48 741.788 1467.07 Q741.209 1467.74 738.107 1470.96 Q735.005 1474.15 729.357 1479.92 Z" fill="#000000" fill-rule="evenodd" fill-opacity="1" /><path clip-path="url(#clip580)" d="M 0 0 M765.491 1452.37 Q761.88 1452.37 760.051 1455.94 Q758.246 1459.48 758.246 1466.61 Q758.246 1473.71 760.051 1477.28 Q761.88 1480.82 765.491 1480.82 Q769.125 1480.82 770.931 1477.28 Q772.76 1473.71 772.76 1466.61 Q772.76 1459.48 770.931 1455.94 Q769.125 1452.37 765.491 1452.37 M765.491 1448.67 Q771.301 1448.67 774.357 1453.27 Q777.436 1457.86 777.436 1466.61 Q777.436 1475.33 774.357 1479.94 Q771.301 1484.52 765.491 1484.52 Q759.681 1484.52 756.602 1479.94 Q753.547 1475.33 753.547 1466.61 Q753.547 1457.86 756.602 1453.27 Q759.681 1448.67 765.491 1448.67 Z" fill="#000000" fill-rule="evenodd" fill-opacity="1" /><path clip-path="url(#clip580)" d="M 0 0 M1252.94 1465.22 Q1256.3 1465.94 1258.17 1468.2 Q1260.07 1470.47 1260.07 1473.81 Q1260.07 1478.92 1256.55 1481.72 Q1253.04 1484.52 1246.55 1484.52 Q1244.38 1484.52 1242.06 1484.08 Q1239.77 1483.67 1237.32 1482.81 L1237.32 1478.3 Q1239.26 1479.43 1241.58 1480.01 Q1243.89 1480.59 1246.42 1480.59 Q1250.81 1480.59 1253.11 1478.85 Q1255.42 1477.12 1255.42 1473.81 Q1255.42 1470.75 1253.27 1469.04 Q1251.14 1467.3 1247.32 1467.3 L1243.29 1467.3 L1243.29 1463.46 L1247.5 1463.46 Q1250.95 1463.46 1252.78 1462.09 Q1254.61 1460.7 1254.61 1458.11 Q1254.61 1455.45 1252.71 1454.04 Q1250.84 1452.6 1247.32 1452.6 Q1245.4 1452.6 1243.2 1453.02 Q1241 1453.44 1238.36 1454.31 L1238.36 1450.15 Q1241.02 1449.41 1243.34 1449.04 Q1245.67 1448.67 1247.73 1448.67 Q1253.06 1448.67 1256.16 1451.1 Q1259.26 1453.5 1259.26 1457.63 Q1259.26 1460.5 1257.62 1462.49 Q1255.98 1464.45 1252.94 1465.22 Z" fill="#000000" fill-rule="evenodd" fill-opacity="1" /><path clip-path="url(#clip580)" d="M 0 0 M1278.94 1452.37 Q1275.33 1452.37 1273.5 1455.94 Q1271.69 1459.48 1271.69 1466.61 Q1271.69 1473.71 1273.5 1477.28 Q1275.33 1480.82 1278.94 1480.82 Q1282.57 1480.82 1284.38 1477.28 Q1286.21 1473.71 1286.21 1466.61 Q1286.21 1459.48 1284.38 1455.94 Q1282.57 1452.37 1278.94 1452.37 M1278.94 1448.67 Q1284.75 1448.67 1287.8 1453.27 Q1290.88 1457.86 1290.88 1466.61 Q1290.88 1475.33 1287.8 1479.94 Q1284.75 1484.52 1278.94 1484.52 Q1273.13 1484.52 1270.05 1479.94 Q1266.99 1475.33 1266.99 1466.61 Q1266.99 1457.86 1270.05 1453.27 Q1273.13 1448.67 1278.94 1448.67 Z" fill="#000000" fill-rule="evenodd" fill-opacity="1" /><path clip-path="url(#clip580)" d="M 0 0 M1765.79 1453.37 L1753.98 1471.81 L1765.79 1471.81 L1765.79 1453.37 M1764.56 1449.29 L1770.44 1449.29 L1770.44 1471.81 L1775.37 1471.81 L1775.37 1475.7 L1770.44 1475.7 L1770.44 1483.85 L1765.79 1483.85 L1765.79 1475.7 L1750.19 1475.7 L1750.19 1471.19 L1764.56 1449.29 Z" fill="#000000" fill-rule="evenodd" fill-opacity="1" /><path clip-path="url(#clip580)" d="M 0 0 M1793.1 1452.37 Q1789.49 1452.37 1787.66 1455.94 Q1785.86 1459.48 1785.86 1466.61 Q1785.86 1473.71 1787.66 1477.28 Q1789.49 1480.82 1793.1 1480.82 Q1796.74 1480.82 1798.54 1477.28 Q1800.37 1473.71 1800.37 1466.61 Q1800.37 1459.48 1798.54 1455.94 Q1796.74 1452.37 1793.1 1452.37 M1793.1 1448.67 Q1798.91 1448.67 1801.97 1453.27 Q1805.05 1457.86 1805.05 1466.61 Q1805.05 1475.33 1801.97 1479.94 Q1798.91 1484.52 1793.1 1484.52 Q1787.29 1484.52 1784.21 1479.94 Q1781.16 1475.33 1781.16 1466.61 Q1781.16 1457.86 1784.21 1453.27 Q1787.29 1448.67 1793.1 1448.67 Z" fill="#000000" fill-rule="evenodd" fill-opacity="1" /><path clip-path="url(#clip580)" d="M 0 0 M2265.83 1449.29 L2284.19 1449.29 L2284.19 1453.23 L2270.12 1453.23 L2270.12 1461.7 Q2271.13 1461.35 2272.15 1461.19 Q2273.17 1461 2274.19 1461 Q2279.98 1461 2283.36 1464.18 Q2286.74 1467.35 2286.74 1472.76 Q2286.74 1478.34 2283.26 1481.44 Q2279.79 1484.52 2273.47 1484.52 Q2271.3 1484.52 2269.03 1484.15 Q2266.78 1483.78 2264.37 1483.04 L2264.37 1478.34 Q2266.46 1479.48 2268.68 1480.03 Q2270.9 1480.59 2273.38 1480.59 Q2277.38 1480.59 2279.72 1478.48 Q2282.06 1476.38 2282.06 1472.76 Q2282.06 1469.15 2279.72 1467.05 Q2277.38 1464.94 2273.38 1464.94 Q2271.5 1464.94 2269.63 1465.36 Q2267.78 1465.77 2265.83 1466.65 L2265.83 1449.29 Z" fill="#000000" fill-rule="evenodd" fill-opacity="1" /><path clip-path="url(#clip580)" d="M 0 0 M2305.95 1452.37 Q2302.34 1452.37 2300.51 1455.94 Q2298.7 1459.48 2298.7 1466.61 Q2298.7 1473.71 2300.51 1477.28 Q2302.34 1480.82 2305.95 1480.82 Q2309.58 1480.82 2311.39 1477.28 Q2313.22 1473.71 2313.22 1466.61 Q2313.22 1459.48 2311.39 1455.94 Q2309.58 1452.37 2305.95 1452.37 M2305.95 1448.67 Q2311.76 1448.67 2314.81 1453.27 Q2317.89 1457.86 2317.89 1466.61 Q2317.89 1475.33 2314.81 1479.94 Q2311.76 1484.52 2305.95 1484.52 Q2300.14 1484.52 2297.06 1479.94 Q2294 1475.33 2294 1466.61 Q2294 1457.86 2297.06 1453.27 Q2300.14 1448.67 2305.95 1448.67 Z" fill="#000000" fill-rule="evenodd" fill-opacity="1" /><path clip-path="url(#clip580)" d="M 0 0 M1250.56 1525.81 L1250.56 1562.76 L1258.32 1562.76 Q1268.16 1562.76 1272.71 1558.3 Q1277.29 1553.85 1277.29 1544.24 Q1277.29 1534.69 1272.71 1530.26 Q1268.16 1525.81 1258.32 1525.81 L1250.56 1525.81 M1244.13 1520.52 L1257.34 1520.52 Q1271.15 1520.52 1277.61 1526.28 Q1284.07 1532.01 1284.07 1544.24 Q1284.07 1556.52 1277.58 1562.28 Q1271.09 1568.04 1257.34 1568.04 L1244.13 1568.04 L1244.13 1520.52 Z" fill="#000000" fill-rule="evenodd" fill-opacity="1" /><polyline clip-path="url(#clip582)" style="stroke:#000000; stroke-width:2; stroke-opacity:0.1; fill:none" points="
  175.445,1176.38 2352.76,1176.38 
  "/>
<polyline clip-path="url(#clip582)" style="stroke:#000000; stroke-width:2; stroke-opacity:0.1; fill:none" points="
  175.445,903.882 2352.76,903.882 
  "/>
<polyline clip-path="url(#clip582)" style="stroke:#000000; stroke-width:2; stroke-opacity:0.1; fill:none" points="
  175.445,631.384 2352.76,631.384 
  "/>
<polyline clip-path="url(#clip582)" style="stroke:#000000; stroke-width:2; stroke-opacity:0.1; fill:none" points="
  175.445,358.886 2352.76,358.886 
  "/>
<polyline clip-path="url(#clip580)" style="stroke:#000000; stroke-width:4; stroke-opacity:1; fill:none" points="
  175.445,1423.18 175.445,123.472 
  "/>
<polyline clip-path="url(#clip580)" style="stroke:#000000; stroke-width:4; stroke-opacity:1; fill:none" points="
  175.445,1176.38 201.573,1176.38 
  "/>
<polyline clip-path="url(#clip580)" style="stroke:#000000; stroke-width:4; stroke-opacity:1; fill:none" points="
  175.445,903.882 201.573,903.882 
  "/>
<polyline clip-path="url(#clip580)" style="stroke:#000000; stroke-width:4; stroke-opacity:1; fill:none" points="
  175.445,631.384 201.573,631.384 
  "/>
<polyline clip-path="url(#clip580)" style="stroke:#000000; stroke-width:4; stroke-opacity:1; fill:none" points="
  175.445,358.886 201.573,358.886 
  "/>
<path clip-path="url(#clip580)" d="M 0 0 M123.126 1189.72 L139.445 1189.72 L139.445 1193.66 L117.501 1193.66 L117.501 1189.72 Q120.163 1186.97 124.746 1182.34 Q129.353 1177.69 130.533 1176.34 Q132.779 1173.82 133.658 1172.09 Q134.561 1170.33 134.561 1168.64 Q134.561 1165.88 132.617 1164.15 Q130.695 1162.41 127.593 1162.41 Q125.394 1162.41 122.941 1163.17 Q120.51 1163.94 117.732 1165.49 L117.732 1160.77 Q120.556 1159.63 123.01 1159.05 Q125.464 1158.47 127.501 1158.47 Q132.871 1158.47 136.066 1161.16 Q139.26 1163.84 139.26 1168.34 Q139.26 1170.47 138.45 1172.39 Q137.663 1174.28 135.556 1176.88 Q134.978 1177.55 131.876 1180.77 Q128.774 1183.96 123.126 1189.72 Z" fill="#000000" fill-rule="evenodd" fill-opacity="1" /><path clip-path="url(#clip580)" d="M 0 0 M129.862 890.676 L118.056 909.125 L129.862 909.125 L129.862 890.676 M128.635 886.602 L134.515 886.602 L134.515 909.125 L139.445 909.125 L139.445 913.014 L134.515 913.014 L134.515 921.162 L129.862 921.162 L129.862 913.014 L114.26 913.014 L114.26 908.5 L128.635 886.602 Z" fill="#000000" fill-rule="evenodd" fill-opacity="1" /><path clip-path="url(#clip580)" d="M 0 0 M127.917 629.52 Q124.769 629.52 122.918 631.673 Q121.089 633.826 121.089 637.576 Q121.089 641.303 122.918 643.479 Q124.769 645.631 127.917 645.631 Q131.066 645.631 132.894 643.479 Q134.746 641.303 134.746 637.576 Q134.746 633.826 132.894 631.673 Q131.066 629.52 127.917 629.52 M137.2 614.868 L137.2 619.127 Q135.441 618.294 133.635 617.854 Q131.853 617.414 130.093 617.414 Q125.464 617.414 123.01 620.539 Q120.58 623.664 120.232 629.983 Q121.598 627.969 123.658 626.905 Q125.718 625.817 128.195 625.817 Q133.404 625.817 136.413 628.988 Q139.445 632.136 139.445 637.576 Q139.445 642.9 136.297 646.118 Q133.149 649.335 127.917 649.335 Q121.922 649.335 118.751 644.752 Q115.58 640.145 115.58 631.419 Q115.58 623.224 119.468 618.363 Q123.357 613.479 129.908 613.479 Q131.667 613.479 133.45 613.826 Q135.255 614.173 137.2 614.868 Z" fill="#000000" fill-rule="evenodd" fill-opacity="1" /><path clip-path="url(#clip580)" d="M 0 0 M127.593 359.754 Q124.26 359.754 122.339 361.536 Q120.441 363.319 120.441 366.444 Q120.441 369.569 122.339 371.351 Q124.26 373.134 127.593 373.134 Q130.927 373.134 132.848 371.351 Q134.769 369.546 134.769 366.444 Q134.769 363.319 132.848 361.536 Q130.95 359.754 127.593 359.754 M122.918 357.763 Q119.908 357.023 118.218 354.962 Q116.552 352.902 116.552 349.939 Q116.552 345.796 119.492 343.388 Q122.455 340.981 127.593 340.981 Q132.755 340.981 135.695 343.388 Q138.635 345.796 138.635 349.939 Q138.635 352.902 136.945 354.962 Q135.279 357.023 132.292 357.763 Q135.672 358.55 137.547 360.842 Q139.445 363.134 139.445 366.444 Q139.445 371.467 136.367 374.152 Q133.311 376.837 127.593 376.837 Q121.876 376.837 118.797 374.152 Q115.742 371.467 115.742 366.444 Q115.742 363.134 117.64 360.842 Q119.538 358.55 122.918 357.763 M121.205 350.379 Q121.205 353.064 122.871 354.569 Q124.561 356.074 127.593 356.074 Q130.603 356.074 132.292 354.569 Q134.005 353.064 134.005 350.379 Q134.005 347.694 132.292 346.189 Q130.603 344.685 127.593 344.685 Q124.561 344.685 122.871 346.189 Q121.205 347.694 121.205 350.379 Z" fill="#000000" fill-rule="evenodd" fill-opacity="1" /><path clip-path="url(#clip580)" d="M 0 0 M18.2347 862.271 L28.3562 862.271 L28.3562 850.208 L32.9077 850.208 L32.9077 862.271 L52.2594 862.271 Q56.6199 862.271 57.8613 861.093 Q59.1026 859.884 59.1026 856.223 L59.1026 850.208 L64.0042 850.208 L64.0042 856.223 Q64.0042 863.003 61.4897 865.581 Q58.9434 868.159 52.2594 868.159 L32.9077 868.159 L32.9077 872.456 L28.3562 872.456 L28.3562 868.159 L18.2347 868.159 L18.2347 862.271 Z" fill="#000000" fill-rule="evenodd" fill-opacity="1" /><path clip-path="url(#clip580)" d="M 0 0 M28.3562 842.505 L28.3562 836.649 L64.0042 836.649 L64.0042 842.505 L28.3562 842.505 M14.479 842.505 L14.479 836.649 L21.895 836.649 L21.895 842.505 L14.479 842.505 Z" fill="#000000" fill-rule="evenodd" fill-opacity="1" /><path clip-path="url(#clip580)" d="M 0 0 M35.1993 796.64 Q31.2526 794.444 29.3747 791.389 Q27.4968 788.333 27.4968 784.195 Q27.4968 778.625 31.4117 775.602 Q35.2948 772.578 42.4881 772.578 L64.0042 772.578 L64.0042 778.466 L42.679 778.466 Q37.5546 778.466 35.072 780.281 Q32.5894 782.095 32.5894 785.819 Q32.5894 790.37 35.6131 793.012 Q38.6368 795.654 43.8567 795.654 L64.0042 795.654 L64.0042 801.542 L42.679 801.542 Q37.5228 801.542 35.072 803.356 Q32.5894 805.17 32.5894 808.958 Q32.5894 813.446 35.6449 816.088 Q38.6686 818.729 43.8567 818.729 L64.0042 818.729 L64.0042 824.618 L28.3562 824.618 L28.3562 818.729 L33.8944 818.729 Q30.616 816.724 29.0564 813.923 Q27.4968 811.122 27.4968 807.271 Q27.4968 803.388 29.4702 800.683 Q31.4436 797.945 35.1993 796.64 Z" fill="#000000" fill-rule="evenodd" fill-opacity="1" /><path clip-path="url(#clip580)" d="M 0 0 M44.7161 730.405 L47.5806 730.405 L47.5806 757.332 Q53.6281 756.95 56.8109 753.704 Q59.9619 750.425 59.9619 744.601 Q59.9619 741.227 59.1344 738.076 Q58.3069 734.893 56.6518 731.774 L62.1899 731.774 Q63.5267 734.925 64.227 738.235 Q64.9272 741.545 64.9272 744.951 Q64.9272 753.481 59.9619 758.478 Q54.9967 763.443 46.5303 763.443 Q37.7774 763.443 32.6531 758.733 Q27.4968 753.99 27.4968 745.969 Q27.4968 738.776 32.1438 734.607 Q36.7589 730.405 44.7161 730.405 M42.9973 736.262 Q38.1912 736.325 35.3266 738.967 Q32.4621 741.577 32.4621 745.906 Q32.4621 750.807 35.2312 753.767 Q38.0002 756.696 43.0292 757.141 L42.9973 736.262 Z" fill="#000000" fill-rule="evenodd" fill-opacity="1" /><path clip-path="url(#clip580)" d="M 0 0 M16.4842 710.385 L16.4842 704.974 L70.0516 721.525 L70.0516 726.936 L16.4842 710.385 Z" fill="#000000" fill-rule="evenodd" fill-opacity="1" /><path clip-path="url(#clip580)" d="M 0 0 M29.4065 676.106 L34.9447 676.106 Q33.6716 678.588 33.035 681.262 Q32.3984 683.936 32.3984 686.8 Q32.3984 691.161 33.7352 693.357 Q35.072 695.521 37.7456 695.521 Q39.7826 695.521 40.9603 693.962 Q42.1061 692.402 43.1565 687.691 L43.6021 685.686 Q44.9389 679.448 47.3897 676.838 Q49.8086 674.196 54.1691 674.196 Q59.1344 674.196 62.0308 678.143 Q64.9272 682.058 64.9272 688.933 Q64.9272 691.797 64.3543 694.916 Q63.8132 698.004 62.6992 701.441 L56.6518 701.441 Q58.3387 698.195 59.198 695.044 Q60.0256 691.893 60.0256 688.805 Q60.0256 684.668 58.6251 682.44 Q57.1929 680.212 54.6147 680.212 Q52.2276 680.212 50.9545 681.835 Q49.6813 683.426 48.5037 688.869 L48.0262 690.906 Q46.8804 696.349 44.5251 698.768 Q42.138 701.187 38.0002 701.187 Q32.9713 701.187 30.2341 697.622 Q27.4968 694.057 27.4968 687.5 Q27.4968 684.254 27.9743 681.389 Q28.4517 678.525 29.4065 676.106 Z" fill="#000000" fill-rule="evenodd" fill-opacity="1" /><path clip-path="url(#clip580)" d="M 0 0 M1140 14.324 L1140 27.2059 L1155.35 27.2059 L1155.35 32.9987 L1140 32.9987 L1140 57.6282 Q1140 63.1779 1141.5 64.7578 Q1143.04 66.3376 1147.7 66.3376 L1155.35 66.3376 L1155.35 72.576 L1147.7 72.576 Q1139.07 72.576 1135.79 69.3758 Q1132.51 66.1351 1132.51 57.6282 L1132.51 32.9987 L1127.04 32.9987 L1127.04 27.2059 L1132.51 27.2059 L1132.51 14.324 L1140 14.324 Z" fill="#000000" fill-rule="evenodd" fill-opacity="1" /><path clip-path="url(#clip580)" d="M 0 0 M1165.16 27.2059 L1172.61 27.2059 L1172.61 72.576 L1165.16 72.576 L1165.16 27.2059 M1165.16 9.54393 L1172.61 9.54393 L1172.61 18.9825 L1165.16 18.9825 L1165.16 9.54393 Z" fill="#000000" fill-rule="evenodd" fill-opacity="1" /><path clip-path="url(#clip580)" d="M 0 0 M1223.53 35.9153 Q1226.33 30.8922 1230.21 28.5022 Q1234.1 26.1121 1239.37 26.1121 Q1246.46 26.1121 1250.31 31.0947 Q1254.16 36.0368 1254.16 45.1919 L1254.16 72.576 L1246.66 72.576 L1246.66 45.4349 Q1246.66 38.913 1244.35 35.7533 Q1242.04 32.5936 1237.3 32.5936 Q1231.51 32.5936 1228.15 36.4419 Q1224.79 40.2903 1224.79 46.9338 L1224.79 72.576 L1217.29 72.576 L1217.29 45.4349 Q1217.29 38.8725 1214.98 35.7533 Q1212.67 32.5936 1207.85 32.5936 Q1202.14 32.5936 1198.78 36.4824 Q1195.42 40.3308 1195.42 46.9338 L1195.42 72.576 L1187.92 72.576 L1187.92 27.2059 L1195.42 27.2059 L1195.42 34.2544 Q1197.97 30.082 1201.53 28.0971 Q1205.1 26.1121 1210 26.1121 Q1214.94 26.1121 1218.39 28.6237 Q1221.87 31.1352 1223.53 35.9153 Z" fill="#000000" fill-rule="evenodd" fill-opacity="1" /><path clip-path="url(#clip580)" d="M 0 0 M1307.83 48.0275 L1307.83 51.6733 L1273.56 51.6733 Q1274.05 59.3701 1278.18 63.421 Q1282.35 67.4314 1289.76 67.4314 Q1294.06 67.4314 1298.07 66.3781 Q1302.12 65.3249 1306.09 63.2184 L1306.09 70.267 Q1302.08 71.9684 1297.86 72.8596 Q1293.65 73.7508 1289.32 73.7508 Q1278.46 73.7508 1272.1 67.4314 Q1265.78 61.1119 1265.78 50.3365 Q1265.78 39.1965 1271.78 32.6746 Q1277.81 26.1121 1288.02 26.1121 Q1297.18 26.1121 1302.48 32.0264 Q1307.83 37.9003 1307.83 48.0275 M1300.38 45.84 Q1300.3 39.7232 1296.93 36.0774 Q1293.61 32.4315 1288.1 32.4315 Q1281.86 32.4315 1278.1 35.9558 Q1274.37 39.4801 1273.8 45.8805 L1300.38 45.84 Z" fill="#000000" fill-rule="evenodd" fill-opacity="1" /><path clip-path="url(#clip580)" d="M 0 0 M1316.3 46.5287 L1338.13 46.5287 L1338.13 53.1722 L1316.3 53.1722 L1316.3 46.5287 Z" fill="#000000" fill-rule="evenodd" fill-opacity="1" /><path clip-path="url(#clip580)" d="M 0 0 M1358.51 18.8205 L1358.51 65.8515 L1368.39 65.8515 Q1380.91 65.8515 1386.7 60.1802 Q1392.53 54.509 1392.53 42.2752 Q1392.53 30.1225 1386.7 24.4918 Q1380.91 18.8205 1368.39 18.8205 L1358.51 18.8205 M1350.32 12.096 L1367.14 12.096 Q1384.72 12.096 1392.94 19.4281 Q1401.16 26.7198 1401.16 42.2752 Q1401.16 57.9117 1392.9 65.2439 Q1384.64 72.576 1367.14 72.576 L1350.32 72.576 L1350.32 12.096 Z" fill="#000000" fill-rule="evenodd" fill-opacity="1" /><polyline clip-path="url(#clip582)" style="stroke:#009af9; stroke-width:12; stroke-opacity:1; fill:none" stroke-dasharray="48, 24, 6, 24, 6, 24" points="
  237.067,1369.16 493.826,1386.4 750.584,1364.8 1007.34,1339.82 1264.1,1318.64 1520.86,1304.25 1777.62,1270.18 2034.38,1240.45 2291.13,1223.81 
  "/>
<polyline clip-path="url(#clip582)" style="stroke:#e26f46; stroke-width:12; stroke-opacity:1; fill:none" stroke-dasharray="48, 24, 6, 24, 6, 24" points="
  237.067,1366.71 493.826,1324.21 750.584,1268.85 1007.34,1167.65 1264.1,990.539 1520.86,870.929 1777.62,620.526 2034.38,256.31 2291.13,160.256 
  "/>
<polyline clip-path="url(#clip582)" style="stroke:#3da44d; stroke-width:12; stroke-opacity:1; fill:none" points="
  237.067,634.797 493.826,492.433 750.584,692.892 1007.34,579.503 1264.1,706.455 1520.86,566.919 1777.62,554.572 2034.38,569.338 2291.13,730.182 
  "/>
<polyline clip-path="url(#clip582)" style="stroke:#c271d2; stroke-width:12; stroke-opacity:1; fill:none" points="
  237.067,751.732 493.826,735.218 750.584,755.479 1007.34,587.175 1264.1,773.834 1520.86,789.882 1777.62,794.561 2034.38,704.12 2291.13,714.047 
  "/>
<path clip-path="url(#clip580)" d="
M248.022 469.196 L808.231 469.196 L808.231 166.796 L248.022 166.796  Z
  " fill="#ffffff" fill-rule="evenodd" fill-opacity="1"/>
<polyline clip-path="url(#clip580)" style="stroke:#000000; stroke-width:4; stroke-opacity:1; fill:none" points="
  248.022,469.196 808.231,469.196 808.231,166.796 248.022,166.796 248.022,469.196 
  "/>
<polyline clip-path="url(#clip580)" style="stroke:#009af9; stroke-width:4; stroke-opacity:1; fill:none" stroke-dasharray="16, 8, 2, 8, 2, 8" points="
  272.215,227.276 417.369,227.276 
  "/>
<path clip-path="url(#clip580)" d="M 0 0 M457.394 214.602 L451.052 231.801 L463.76 231.801 L457.394 214.602 M454.755 209.996 L460.056 209.996 L473.227 244.556 L468.366 244.556 L465.218 235.69 L449.64 235.69 L446.491 244.556 L441.561 244.556 L454.755 209.996 Z" fill="#000000" fill-rule="evenodd" fill-opacity="1" /><path clip-path="url(#clip580)" d="M 0 0 M493.112 222.611 Q492.394 222.195 491.538 222.01 Q490.704 221.801 489.686 221.801 Q486.075 221.801 484.13 224.162 Q482.209 226.5 482.209 230.898 L482.209 244.556 L477.927 244.556 L477.927 218.63 L482.209 218.63 L482.209 222.658 Q483.551 220.297 485.704 219.162 Q487.857 218.005 490.936 218.005 Q491.376 218.005 491.908 218.074 Q492.44 218.121 493.088 218.236 L493.112 222.611 Z" fill="#000000" fill-rule="evenodd" fill-opacity="1" /><path clip-path="url(#clip580)" d="M 0 0 M511.769 222.611 Q511.051 222.195 510.195 222.01 Q509.362 221.801 508.343 221.801 Q504.732 221.801 502.787 224.162 Q500.866 226.5 500.866 230.898 L500.866 244.556 L496.584 244.556 L496.584 218.63 L500.866 218.63 L500.866 222.658 Q502.209 220.297 504.362 219.162 Q506.514 218.005 509.593 218.005 Q510.033 218.005 510.565 218.074 Q511.098 218.121 511.746 218.236 L511.769 222.611 Z" fill="#000000" fill-rule="evenodd" fill-opacity="1" /><path clip-path="url(#clip580)" d="M 0 0 M528.019 231.523 Q522.857 231.523 520.866 232.704 Q518.875 233.884 518.875 236.732 Q518.875 239 520.357 240.343 Q521.861 241.662 524.431 241.662 Q527.973 241.662 530.102 239.162 Q532.255 236.639 532.255 232.472 L532.255 231.523 L528.019 231.523 M536.514 229.764 L536.514 244.556 L532.255 244.556 L532.255 240.621 Q530.797 242.982 528.621 244.116 Q526.445 245.227 523.297 245.227 Q519.315 245.227 516.954 243.005 Q514.616 240.759 514.616 237.009 Q514.616 232.634 517.533 230.412 Q520.473 228.19 526.283 228.19 L532.255 228.19 L532.255 227.773 Q532.255 224.834 530.31 223.236 Q528.389 221.616 524.894 221.616 Q522.672 221.616 520.565 222.148 Q518.459 222.681 516.514 223.746 L516.514 219.81 Q518.852 218.908 521.051 218.468 Q523.25 218.005 525.334 218.005 Q530.959 218.005 533.736 220.922 Q536.514 223.838 536.514 229.764 Z" fill="#000000" fill-rule="evenodd" fill-opacity="1" /><path clip-path="url(#clip580)" d="M 0 0 M556.074 246.963 Q554.269 251.593 552.556 253.005 Q550.843 254.417 547.972 254.417 L544.57 254.417 L544.57 250.852 L547.07 250.852 Q548.829 250.852 549.801 250.019 Q550.773 249.185 551.954 246.083 L552.718 244.139 L542.232 218.63 L546.746 218.63 L554.847 238.908 L562.949 218.63 L567.463 218.63 L556.074 246.963 Z" fill="#000000" fill-rule="evenodd" fill-opacity="1" /><path clip-path="url(#clip580)" d="M 0 0 M605.472 222.565 L605.472 208.537 L609.731 208.537 L609.731 244.556 L605.472 244.556 L605.472 240.667 Q604.13 242.982 602.069 244.116 Q600.032 245.227 597.162 245.227 Q592.463 245.227 589.5 241.477 Q586.56 237.727 586.56 231.616 Q586.56 225.505 589.5 221.755 Q592.463 218.005 597.162 218.005 Q600.032 218.005 602.069 219.139 Q604.13 220.25 605.472 222.565 M590.958 231.616 Q590.958 236.315 592.88 239 Q594.824 241.662 598.204 241.662 Q601.583 241.662 603.528 239 Q605.472 236.315 605.472 231.616 Q605.472 226.917 603.528 224.255 Q601.583 221.57 598.204 221.57 Q594.824 221.57 592.88 224.255 Q590.958 226.917 590.958 231.616 Z" fill="#000000" fill-rule="evenodd" fill-opacity="1" /><path clip-path="url(#clip580)" d="M 0 0 M619.06 223.028 L648.736 223.028 L648.736 226.917 L619.06 226.917 L619.06 223.028 M619.06 232.472 L648.736 232.472 L648.736 236.408 L619.06 236.408 L619.06 232.472 Z" fill="#000000" fill-rule="evenodd" fill-opacity="1" /><path clip-path="url(#clip580)" d="M 0 0 M671.675 214.07 L659.87 232.519 L671.675 232.519 L671.675 214.07 M670.449 209.996 L676.328 209.996 L676.328 232.519 L681.259 232.519 L681.259 236.408 L676.328 236.408 L676.328 244.556 L671.675 244.556 L671.675 236.408 L656.074 236.408 L656.074 231.894 L670.449 209.996 Z" fill="#000000" fill-rule="evenodd" fill-opacity="1" /><polyline clip-path="url(#clip580)" style="stroke:#e26f46; stroke-width:4; stroke-opacity:1; fill:none" stroke-dasharray="16, 8, 2, 8, 2, 8" points="
  272.215,287.756 417.369,287.756 
  "/>
<path clip-path="url(#clip580)" d="M 0 0 M457.394 275.082 L451.052 292.281 L463.76 292.281 L457.394 275.082 M454.755 270.476 L460.056 270.476 L473.227 305.036 L468.366 305.036 L465.218 296.17 L449.64 296.17 L446.491 305.036 L441.561 305.036 L454.755 270.476 Z" fill="#000000" fill-rule="evenodd" fill-opacity="1" /><path clip-path="url(#clip580)" d="M 0 0 M493.112 283.091 Q492.394 282.675 491.538 282.49 Q490.704 282.281 489.686 282.281 Q486.075 282.281 484.13 284.642 Q482.209 286.98 482.209 291.378 L482.209 305.036 L477.927 305.036 L477.927 279.11 L482.209 279.11 L482.209 283.138 Q483.551 280.777 485.704 279.642 Q487.857 278.485 490.936 278.485 Q491.376 278.485 491.908 278.554 Q492.44 278.601 493.088 278.716 L493.112 283.091 Z" fill="#000000" fill-rule="evenodd" fill-opacity="1" /><path clip-path="url(#clip580)" d="M 0 0 M511.769 283.091 Q511.051 282.675 510.195 282.49 Q509.362 282.281 508.343 282.281 Q504.732 282.281 502.787 284.642 Q500.866 286.98 500.866 291.378 L500.866 305.036 L496.584 305.036 L496.584 279.11 L500.866 279.11 L500.866 283.138 Q502.209 280.777 504.362 279.642 Q506.514 278.485 509.593 278.485 Q510.033 278.485 510.565 278.554 Q511.098 278.601 511.746 278.716 L511.769 283.091 Z" fill="#000000" fill-rule="evenodd" fill-opacity="1" /><path clip-path="url(#clip580)" d="M 0 0 M528.019 292.003 Q522.857 292.003 520.866 293.184 Q518.875 294.364 518.875 297.212 Q518.875 299.48 520.357 300.823 Q521.861 302.142 524.431 302.142 Q527.973 302.142 530.102 299.642 Q532.255 297.119 532.255 292.952 L532.255 292.003 L528.019 292.003 M536.514 290.244 L536.514 305.036 L532.255 305.036 L532.255 301.101 Q530.797 303.462 528.621 304.596 Q526.445 305.707 523.297 305.707 Q519.315 305.707 516.954 303.485 Q514.616 301.239 514.616 297.489 Q514.616 293.114 517.533 290.892 Q520.473 288.67 526.283 288.67 L532.255 288.67 L532.255 288.253 Q532.255 285.314 530.31 283.716 Q528.389 282.096 524.894 282.096 Q522.672 282.096 520.565 282.628 Q518.459 283.161 516.514 284.226 L516.514 280.29 Q518.852 279.388 521.051 278.948 Q523.25 278.485 525.334 278.485 Q530.959 278.485 533.736 281.402 Q536.514 284.318 536.514 290.244 Z" fill="#000000" fill-rule="evenodd" fill-opacity="1" /><path clip-path="url(#clip580)" d="M 0 0 M556.074 307.443 Q554.269 312.073 552.556 313.485 Q550.843 314.897 547.972 314.897 L544.57 314.897 L544.57 311.332 L547.07 311.332 Q548.829 311.332 549.801 310.499 Q550.773 309.665 551.954 306.563 L552.718 304.619 L542.232 279.11 L546.746 279.11 L554.847 299.388 L562.949 279.11 L567.463 279.11 L556.074 307.443 Z" fill="#000000" fill-rule="evenodd" fill-opacity="1" /><path clip-path="url(#clip580)" d="M 0 0 M605.472 283.045 L605.472 269.017 L609.731 269.017 L609.731 305.036 L605.472 305.036 L605.472 301.147 Q604.13 303.462 602.069 304.596 Q600.032 305.707 597.162 305.707 Q592.463 305.707 589.5 301.957 Q586.56 298.207 586.56 292.096 Q586.56 285.985 589.5 282.235 Q592.463 278.485 597.162 278.485 Q600.032 278.485 602.069 279.619 Q604.13 280.73 605.472 283.045 M590.958 292.096 Q590.958 296.795 592.88 299.48 Q594.824 302.142 598.204 302.142 Q601.583 302.142 603.528 299.48 Q605.472 296.795 605.472 292.096 Q605.472 287.397 603.528 284.735 Q601.583 282.05 598.204 282.05 Q594.824 282.05 592.88 284.735 Q590.958 287.397 590.958 292.096 Z" fill="#000000" fill-rule="evenodd" fill-opacity="1" /><path clip-path="url(#clip580)" d="M 0 0 M619.06 283.508 L648.736 283.508 L648.736 287.397 L619.06 287.397 L619.06 283.508 M619.06 292.952 L648.736 292.952 L648.736 296.888 L619.06 296.888 L619.06 292.952 Z" fill="#000000" fill-rule="evenodd" fill-opacity="1" /><path clip-path="url(#clip580)" d="M 0 0 M658.967 304.318 L658.967 300.059 Q660.726 300.892 662.532 301.332 Q664.338 301.772 666.074 301.772 Q670.703 301.772 673.134 298.67 Q675.587 295.545 675.935 289.202 Q674.592 291.193 672.532 292.258 Q670.472 293.323 667.972 293.323 Q662.787 293.323 659.754 290.198 Q656.745 287.05 656.745 281.61 Q656.745 276.286 659.893 273.068 Q663.041 269.851 668.273 269.851 Q674.268 269.851 677.416 274.457 Q680.587 279.04 680.587 287.79 Q680.587 295.962 676.699 300.846 Q672.833 305.707 666.282 305.707 Q664.523 305.707 662.717 305.36 Q660.912 305.013 658.967 304.318 M668.273 289.665 Q671.421 289.665 673.25 287.513 Q675.101 285.36 675.101 281.61 Q675.101 277.883 673.25 275.73 Q671.421 273.554 668.273 273.554 Q665.125 273.554 663.273 275.73 Q661.444 277.883 661.444 281.61 Q661.444 285.36 663.273 287.513 Q665.125 289.665 668.273 289.665 Z" fill="#000000" fill-rule="evenodd" fill-opacity="1" /><polyline clip-path="url(#clip580)" style="stroke:#3da44d; stroke-width:4; stroke-opacity:1; fill:none" points="
  272.215,348.236 417.369,348.236 
  "/>
<path clip-path="url(#clip580)" d="M 0 0 M469.431 333.618 L469.431 338.548 Q467.07 336.349 464.385 335.261 Q461.723 334.173 458.714 334.173 Q452.788 334.173 449.64 337.808 Q446.491 341.419 446.491 348.27 Q446.491 355.099 449.64 358.733 Q452.788 362.344 458.714 362.344 Q461.723 362.344 464.385 361.256 Q467.07 360.169 469.431 357.969 L469.431 362.854 Q466.977 364.52 464.223 365.354 Q461.491 366.187 458.436 366.187 Q450.589 366.187 446.075 361.395 Q441.561 356.581 441.561 348.27 Q441.561 339.937 446.075 335.146 Q450.589 330.331 458.436 330.331 Q461.538 330.331 464.269 331.164 Q467.024 331.974 469.431 333.618 Z" fill="#000000" fill-rule="evenodd" fill-opacity="1" /><path clip-path="url(#clip580)" d="M 0 0 M476.028 355.284 L476.028 339.59 L480.288 339.59 L480.288 355.122 Q480.288 358.803 481.723 360.655 Q483.158 362.483 486.028 362.483 Q489.477 362.483 491.468 360.284 Q493.482 358.085 493.482 354.289 L493.482 339.59 L497.741 339.59 L497.741 365.516 L493.482 365.516 L493.482 361.534 Q491.931 363.895 489.871 365.053 Q487.834 366.187 485.126 366.187 Q480.658 366.187 478.343 363.409 Q476.028 360.631 476.028 355.284 M486.746 338.965 L486.746 338.965 Z" fill="#000000" fill-rule="evenodd" fill-opacity="1" /><path clip-path="url(#clip580)" d="M 0 0 M518.25 335.562 L511.908 352.761 L524.616 352.761 L518.25 335.562 M515.611 330.956 L520.912 330.956 L534.084 365.516 L529.223 365.516 L526.074 356.65 L510.496 356.65 L507.348 365.516 L502.417 365.516 L515.611 330.956 Z" fill="#000000" fill-rule="evenodd" fill-opacity="1" /><path clip-path="url(#clip580)" d="M 0 0 M553.968 343.571 Q553.25 343.155 552.394 342.97 Q551.56 342.761 550.542 342.761 Q546.931 342.761 544.986 345.122 Q543.065 347.46 543.065 351.858 L543.065 365.516 L538.783 365.516 L538.783 339.59 L543.065 339.59 L543.065 343.618 Q544.408 341.257 546.56 340.122 Q548.713 338.965 551.792 338.965 Q552.232 338.965 552.764 339.034 Q553.296 339.081 553.945 339.196 L553.968 343.571 Z" fill="#000000" fill-rule="evenodd" fill-opacity="1" /><path clip-path="url(#clip580)" d="M 0 0 M572.625 343.571 Q571.907 343.155 571.051 342.97 Q570.218 342.761 569.199 342.761 Q565.588 342.761 563.644 345.122 Q561.722 347.46 561.722 351.858 L561.722 365.516 L557.44 365.516 L557.44 339.59 L561.722 339.59 L561.722 343.618 Q563.065 341.257 565.218 340.122 Q567.37 338.965 570.449 338.965 Q570.889 338.965 571.421 339.034 Q571.954 339.081 572.602 339.196 L572.625 343.571 Z" fill="#000000" fill-rule="evenodd" fill-opacity="1" /><path clip-path="url(#clip580)" d="M 0 0 M588.875 352.483 Q583.713 352.483 581.722 353.664 Q579.732 354.844 579.732 357.692 Q579.732 359.96 581.213 361.303 Q582.718 362.622 585.287 362.622 Q588.829 362.622 590.958 360.122 Q593.111 357.599 593.111 353.432 L593.111 352.483 L588.875 352.483 M597.37 350.724 L597.37 365.516 L593.111 365.516 L593.111 361.581 Q591.653 363.942 589.477 365.076 Q587.301 366.187 584.153 366.187 Q580.171 366.187 577.81 363.965 Q575.472 361.719 575.472 357.969 Q575.472 353.594 578.389 351.372 Q581.329 349.15 587.139 349.15 L593.111 349.15 L593.111 348.733 Q593.111 345.794 591.167 344.196 Q589.245 342.576 585.75 342.576 Q583.528 342.576 581.421 343.108 Q579.315 343.641 577.37 344.706 L577.37 340.77 Q579.708 339.868 581.907 339.428 Q584.106 338.965 586.19 338.965 Q591.815 338.965 594.593 341.882 Q597.37 344.798 597.37 350.724 Z" fill="#000000" fill-rule="evenodd" fill-opacity="1" /><path clip-path="url(#clip580)" d="M 0 0 M616.93 367.923 Q615.125 372.553 613.412 373.965 Q611.699 375.377 608.829 375.377 L605.426 375.377 L605.426 371.812 L607.926 371.812 Q609.685 371.812 610.657 370.979 Q611.629 370.145 612.81 367.043 L613.574 365.099 L603.088 339.59 L607.602 339.59 L615.704 359.868 L623.805 339.59 L628.319 339.59 L616.93 367.923 Z" fill="#000000" fill-rule="evenodd" fill-opacity="1" /><path clip-path="url(#clip580)" d="M 0 0 M666.328 343.525 L666.328 329.497 L670.588 329.497 L670.588 365.516 L666.328 365.516 L666.328 361.627 Q664.986 363.942 662.926 365.076 Q660.888 366.187 658.018 366.187 Q653.319 366.187 650.356 362.437 Q647.416 358.687 647.416 352.576 Q647.416 346.465 650.356 342.715 Q653.319 338.965 658.018 338.965 Q660.888 338.965 662.926 340.099 Q664.986 341.21 666.328 343.525 M651.814 352.576 Q651.814 357.275 653.736 359.96 Q655.68 362.622 659.06 362.622 Q662.439 362.622 664.384 359.96 Q666.328 357.275 666.328 352.576 Q666.328 347.877 664.384 345.215 Q662.439 342.53 659.06 342.53 Q655.68 342.53 653.736 345.215 Q651.814 347.877 651.814 352.576 Z" fill="#000000" fill-rule="evenodd" fill-opacity="1" /><path clip-path="url(#clip580)" d="M 0 0 M679.916 343.988 L709.592 343.988 L709.592 347.877 L679.916 347.877 L679.916 343.988 M679.916 353.432 L709.592 353.432 L709.592 357.368 L679.916 357.368 L679.916 353.432 Z" fill="#000000" fill-rule="evenodd" fill-opacity="1" /><path clip-path="url(#clip580)" d="M 0 0 M732.532 335.03 L720.726 353.479 L732.532 353.479 L732.532 335.03 M731.305 330.956 L737.184 330.956 L737.184 353.479 L742.115 353.479 L742.115 357.368 L737.184 357.368 L737.184 365.516 L732.532 365.516 L732.532 357.368 L716.93 357.368 L716.93 352.854 L731.305 330.956 Z" fill="#000000" fill-rule="evenodd" fill-opacity="1" /><polyline clip-path="url(#clip580)" style="stroke:#c271d2; stroke-width:4; stroke-opacity:1; fill:none" points="
  272.215,408.716 417.369,408.716 
  "/>
<path clip-path="url(#clip580)" d="M 0 0 M469.431 394.098 L469.431 399.028 Q467.07 396.829 464.385 395.741 Q461.723 394.653 458.714 394.653 Q452.788 394.653 449.64 398.288 Q446.491 401.899 446.491 408.75 Q446.491 415.579 449.64 419.213 Q452.788 422.824 458.714 422.824 Q461.723 422.824 464.385 421.736 Q467.07 420.649 469.431 418.449 L469.431 423.334 Q466.977 425 464.223 425.834 Q461.491 426.667 458.436 426.667 Q450.589 426.667 446.075 421.875 Q441.561 417.061 441.561 408.75 Q441.561 400.417 446.075 395.626 Q450.589 390.811 458.436 390.811 Q461.538 390.811 464.269 391.644 Q467.024 392.454 469.431 394.098 Z" fill="#000000" fill-rule="evenodd" fill-opacity="1" /><path clip-path="url(#clip580)" d="M 0 0 M476.028 415.764 L476.028 400.07 L480.288 400.07 L480.288 415.602 Q480.288 419.283 481.723 421.135 Q483.158 422.963 486.028 422.963 Q489.477 422.963 491.468 420.764 Q493.482 418.565 493.482 414.769 L493.482 400.07 L497.741 400.07 L497.741 425.996 L493.482 425.996 L493.482 422.014 Q491.931 424.375 489.871 425.533 Q487.834 426.667 485.126 426.667 Q480.658 426.667 478.343 423.889 Q476.028 421.111 476.028 415.764 M486.746 399.445 L486.746 399.445 Z" fill="#000000" fill-rule="evenodd" fill-opacity="1" /><path clip-path="url(#clip580)" d="M 0 0 M518.25 396.042 L511.908 413.241 L524.616 413.241 L518.25 396.042 M515.611 391.436 L520.912 391.436 L534.084 425.996 L529.223 425.996 L526.074 417.13 L510.496 417.13 L507.348 425.996 L502.417 425.996 L515.611 391.436 Z" fill="#000000" fill-rule="evenodd" fill-opacity="1" /><path clip-path="url(#clip580)" d="M 0 0 M553.968 404.051 Q553.25 403.635 552.394 403.45 Q551.56 403.241 550.542 403.241 Q546.931 403.241 544.986 405.602 Q543.065 407.94 543.065 412.338 L543.065 425.996 L538.783 425.996 L538.783 400.07 L543.065 400.07 L543.065 404.098 Q544.408 401.737 546.56 400.602 Q548.713 399.445 551.792 399.445 Q552.232 399.445 552.764 399.514 Q553.296 399.561 553.945 399.676 L553.968 404.051 Z" fill="#000000" fill-rule="evenodd" fill-opacity="1" /><path clip-path="url(#clip580)" d="M 0 0 M572.625 404.051 Q571.907 403.635 571.051 403.45 Q570.218 403.241 569.199 403.241 Q565.588 403.241 563.644 405.602 Q561.722 407.94 561.722 412.338 L561.722 425.996 L557.44 425.996 L557.44 400.07 L561.722 400.07 L561.722 404.098 Q563.065 401.737 565.218 400.602 Q567.37 399.445 570.449 399.445 Q570.889 399.445 571.421 399.514 Q571.954 399.561 572.602 399.676 L572.625 404.051 Z" fill="#000000" fill-rule="evenodd" fill-opacity="1" /><path clip-path="url(#clip580)" d="M 0 0 M588.875 412.963 Q583.713 412.963 581.722 414.144 Q579.732 415.324 579.732 418.172 Q579.732 420.44 581.213 421.783 Q582.718 423.102 585.287 423.102 Q588.829 423.102 590.958 420.602 Q593.111 418.079 593.111 413.912 L593.111 412.963 L588.875 412.963 M597.37 411.204 L597.37 425.996 L593.111 425.996 L593.111 422.061 Q591.653 424.422 589.477 425.556 Q587.301 426.667 584.153 426.667 Q580.171 426.667 577.81 424.445 Q575.472 422.199 575.472 418.449 Q575.472 414.074 578.389 411.852 Q581.329 409.63 587.139 409.63 L593.111 409.63 L593.111 409.213 Q593.111 406.274 591.167 404.676 Q589.245 403.056 585.75 403.056 Q583.528 403.056 581.421 403.588 Q579.315 404.121 577.37 405.186 L577.37 401.25 Q579.708 400.348 581.907 399.908 Q584.106 399.445 586.19 399.445 Q591.815 399.445 594.593 402.362 Q597.37 405.278 597.37 411.204 Z" fill="#000000" fill-rule="evenodd" fill-opacity="1" /><path clip-path="url(#clip580)" d="M 0 0 M616.93 428.403 Q615.125 433.033 613.412 434.445 Q611.699 435.857 608.829 435.857 L605.426 435.857 L605.426 432.292 L607.926 432.292 Q609.685 432.292 610.657 431.459 Q611.629 430.625 612.81 427.523 L613.574 425.579 L603.088 400.07 L607.602 400.07 L615.704 420.348 L623.805 400.07 L628.319 400.07 L616.93 428.403 Z" fill="#000000" fill-rule="evenodd" fill-opacity="1" /><path clip-path="url(#clip580)" d="M 0 0 M666.328 404.005 L666.328 389.977 L670.588 389.977 L670.588 425.996 L666.328 425.996 L666.328 422.107 Q664.986 424.422 662.926 425.556 Q660.888 426.667 658.018 426.667 Q653.319 426.667 650.356 422.917 Q647.416 419.167 647.416 413.056 Q647.416 406.945 650.356 403.195 Q653.319 399.445 658.018 399.445 Q660.888 399.445 662.926 400.579 Q664.986 401.69 666.328 404.005 M651.814 413.056 Q651.814 417.755 653.736 420.44 Q655.68 423.102 659.06 423.102 Q662.439 423.102 664.384 420.44 Q666.328 417.755 666.328 413.056 Q666.328 408.357 664.384 405.695 Q662.439 403.01 659.06 403.01 Q655.68 403.01 653.736 405.695 Q651.814 408.357 651.814 413.056 Z" fill="#000000" fill-rule="evenodd" fill-opacity="1" /><path clip-path="url(#clip580)" d="M 0 0 M679.916 404.468 L709.592 404.468 L709.592 408.357 L679.916 408.357 L679.916 404.468 M679.916 413.912 L709.592 413.912 L709.592 417.848 L679.916 417.848 L679.916 413.912 Z" fill="#000000" fill-rule="evenodd" fill-opacity="1" /><path clip-path="url(#clip580)" d="M 0 0 M719.823 425.278 L719.823 421.019 Q721.583 421.852 723.388 422.292 Q725.194 422.732 726.93 422.732 Q731.559 422.732 733.99 419.63 Q736.444 416.505 736.791 410.162 Q735.448 412.153 733.388 413.218 Q731.328 414.283 728.828 414.283 Q723.643 414.283 720.61 411.158 Q717.601 408.01 717.601 402.57 Q717.601 397.246 720.749 394.028 Q723.897 390.811 729.129 390.811 Q735.124 390.811 738.272 395.417 Q741.444 400 741.444 408.75 Q741.444 416.922 737.555 421.806 Q733.689 426.667 727.138 426.667 Q725.379 426.667 723.573 426.32 Q721.768 425.973 719.823 425.278 M729.129 410.625 Q732.277 410.625 734.106 408.473 Q735.958 406.32 735.958 402.57 Q735.958 398.843 734.106 396.69 Q732.277 394.514 729.129 394.514 Q725.981 394.514 724.129 396.69 Q722.3 398.843 722.3 402.57 Q722.3 406.32 724.129 408.473 Q725.981 410.625 729.129 410.625 Z" fill="#000000" fill-rule="evenodd" fill-opacity="1" /></svg>
