<?xml version="1.0" encoding="utf-8"?>
<svg xmlns="http://www.w3.org/2000/svg" xmlns:xlink="http://www.w3.org/1999/xlink" width="600" height="400" viewBox="0 0 2400 1600">
<defs>
  <clipPath id="clip140">
    <rect x="0" y="0" width="2400" height="1600"/>
  </clipPath>
</defs>
<path clip-path="url(#clip140)" d="
M0 1600 L2400 1600 L2400 0 L0 0  Z
  " fill="#ffffff" fill-rule="evenodd" fill-opacity="1"/>
<defs>
  <clipPath id="clip141">
    <rect x="480" y="0" width="1681" height="1600"/>
  </clipPath>
</defs>
<path clip-path="url(#clip140)" d="
M249.542 1423.18 L2352.76 1423.18 L2352.76 123.472 L249.542 123.472  Z
  " fill="#ffffff" fill-rule="evenodd" fill-opacity="1"/>
<defs>
  <clipPath id="clip142">
    <rect x="249" y="123" width="2104" height="1301"/>
  </clipPath>
</defs>
<polyline clip-path="url(#clip142)" style="stroke:#000000; stroke-width:2; stroke-opacity:0.1; fill:none" points="
  309.067,1423.18 309.067,123.472 
  "/>
<polyline clip-path="url(#clip142)" style="stroke:#000000; stroke-width:2; stroke-opacity:0.1; fill:none" points="
  805.108,1423.18 805.108,123.472 
  "/>
<polyline clip-path="url(#clip142)" style="stroke:#000000; stroke-width:2; stroke-opacity:0.1; fill:none" points="
  1301.15,1423.18 1301.15,123.472 
  "/>
<polyline clip-path="url(#clip142)" style="stroke:#000000; stroke-width:2; stroke-opacity:0.1; fill:none" points="
  1797.19,1423.18 1797.19,123.472 
  "/>
<polyline clip-path="url(#clip142)" style="stroke:#000000; stroke-width:2; stroke-opacity:0.1; fill:none" points="
  2293.23,1423.18 2293.23,123.472 
  "/>
<polyline clip-path="url(#clip140)" style="stroke:#000000; stroke-width:4; stroke-opacity:1; fill:none" points="
  249.542,1423.18 2352.76,1423.18 
  "/>
<polyline clip-path="url(#clip140)" style="stroke:#000000; stroke-width:4; stroke-opacity:1; fill:none" points="
  309.067,1423.18 309.067,1407.58 
  "/>
<polyline clip-path="url(#clip140)" style="stroke:#000000; stroke-width:4; stroke-opacity:1; fill:none" points="
  805.108,1423.18 805.108,1407.58 
  "/>
<polyline clip-path="url(#clip140)" style="stroke:#000000; stroke-width:4; stroke-opacity:1; fill:none" points="
  1301.15,1423.18 1301.15,1407.58 
  "/>
<polyline clip-path="url(#clip140)" style="stroke:#000000; stroke-width:4; stroke-opacity:1; fill:none" points="
  1797.19,1423.18 1797.19,1407.58 
  "/>
<polyline clip-path="url(#clip140)" style="stroke:#000000; stroke-width:4; stroke-opacity:1; fill:none" points="
  2293.23,1423.18 2293.23,1407.58 
  "/>
<path clip-path="url(#clip140)" d="M 0 0 M283.755 1479.92 L291.393 1479.92 L291.393 1453.55 L283.083 1455.22 L283.083 1450.96 L291.347 1449.29 L296.023 1449.29 L296.023 1479.92 L303.662 1479.92 L303.662 1483.85 L283.755 1483.85 L283.755 1479.92 Z" fill="#000000" fill-rule="evenodd" fill-opacity="1" /><path clip-path="url(#clip140)" d="M 0 0 M323.106 1452.37 Q319.495 1452.37 317.666 1455.94 Q315.861 1459.48 315.861 1466.61 Q315.861 1473.71 317.666 1477.28 Q319.495 1480.82 323.106 1480.82 Q326.74 1480.82 328.546 1477.28 Q330.375 1473.71 330.375 1466.61 Q330.375 1459.48 328.546 1455.94 Q326.74 1452.37 323.106 1452.37 M323.106 1448.67 Q328.916 1448.67 331.972 1453.27 Q335.051 1457.86 335.051 1466.61 Q335.051 1475.33 331.972 1479.94 Q328.916 1484.52 323.106 1484.52 Q317.296 1484.52 314.217 1479.94 Q311.162 1475.33 311.162 1466.61 Q311.162 1457.86 314.217 1453.27 Q317.296 1448.67 323.106 1448.67 Z" fill="#000000" fill-rule="evenodd" fill-opacity="1" /><path clip-path="url(#clip140)" d="M 0 0 M783.881 1479.92 L800.201 1479.92 L800.201 1483.85 L778.256 1483.85 L778.256 1479.92 Q780.918 1477.16 785.502 1472.53 Q790.108 1467.88 791.289 1466.54 Q793.534 1464.01 794.414 1462.28 Q795.316 1460.52 795.316 1458.83 Q795.316 1456.07 793.372 1454.34 Q791.451 1452.6 788.349 1452.6 Q786.15 1452.6 783.696 1453.37 Q781.265 1454.13 778.488 1455.68 L778.488 1450.96 Q781.312 1449.82 783.765 1449.25 Q786.219 1448.67 788.256 1448.67 Q793.627 1448.67 796.821 1451.35 Q800.015 1454.04 800.015 1458.53 Q800.015 1460.66 799.205 1462.58 Q798.418 1464.48 796.312 1467.07 Q795.733 1467.74 792.631 1470.96 Q789.529 1474.15 783.881 1479.92 Z" fill="#000000" fill-rule="evenodd" fill-opacity="1" /><path clip-path="url(#clip140)" d="M 0 0 M820.015 1452.37 Q816.404 1452.37 814.576 1455.94 Q812.77 1459.48 812.77 1466.61 Q812.77 1473.71 814.576 1477.28 Q816.404 1480.82 820.015 1480.82 Q823.65 1480.82 825.455 1477.28 Q827.284 1473.71 827.284 1466.61 Q827.284 1459.48 825.455 1455.94 Q823.65 1452.37 820.015 1452.37 M820.015 1448.67 Q825.825 1448.67 828.881 1453.27 Q831.96 1457.86 831.96 1466.61 Q831.96 1475.33 828.881 1479.94 Q825.825 1484.52 820.015 1484.52 Q814.205 1484.52 811.126 1479.94 Q808.071 1475.33 808.071 1466.61 Q808.071 1457.86 811.126 1453.27 Q814.205 1448.67 820.015 1448.67 Z" fill="#000000" fill-rule="evenodd" fill-opacity="1" /><path clip-path="url(#clip140)" d="M 0 0 M1289.99 1465.22 Q1293.35 1465.94 1295.22 1468.2 Q1297.12 1470.47 1297.12 1473.81 Q1297.12 1478.92 1293.6 1481.72 Q1290.08 1484.52 1283.6 1484.52 Q1281.43 1484.52 1279.11 1484.08 Q1276.82 1483.67 1274.37 1482.81 L1274.37 1478.3 Q1276.31 1479.43 1278.63 1480.01 Q1280.94 1480.59 1283.46 1480.59 Q1287.86 1480.59 1290.15 1478.85 Q1292.47 1477.12 1292.47 1473.81 Q1292.47 1470.75 1290.32 1469.04 Q1288.19 1467.3 1284.37 1467.3 L1280.34 1467.3 L1280.34 1463.46 L1284.55 1463.46 Q1288 1463.46 1289.83 1462.09 Q1291.66 1460.7 1291.66 1458.11 Q1291.66 1455.45 1289.76 1454.04 Q1287.89 1452.6 1284.37 1452.6 Q1282.45 1452.6 1280.25 1453.02 Q1278.05 1453.44 1275.41 1454.31 L1275.41 1450.15 Q1278.07 1449.41 1280.39 1449.04 Q1282.72 1448.67 1284.78 1448.67 Q1290.11 1448.67 1293.21 1451.1 Q1296.31 1453.5 1296.31 1457.63 Q1296.31 1460.5 1294.67 1462.49 Q1293.02 1464.45 1289.99 1465.22 Z" fill="#000000" fill-rule="evenodd" fill-opacity="1" /><path clip-path="url(#clip140)" d="M 0 0 M1315.99 1452.37 Q1312.38 1452.37 1310.55 1455.94 Q1308.74 1459.48 1308.74 1466.61 Q1308.74 1473.71 1310.55 1477.28 Q1312.38 1480.82 1315.99 1480.82 Q1319.62 1480.82 1321.43 1477.28 Q1323.26 1473.71 1323.26 1466.61 Q1323.26 1459.48 1321.43 1455.94 Q1319.62 1452.37 1315.99 1452.37 M1315.99 1448.67 Q1321.8 1448.67 1324.85 1453.27 Q1327.93 1457.86 1327.93 1466.61 Q1327.93 1475.33 1324.85 1479.94 Q1321.8 1484.52 1315.99 1484.52 Q1310.18 1484.52 1307.1 1479.94 Q1304.04 1475.33 1304.04 1466.61 Q1304.04 1457.86 1307.1 1453.27 Q1310.18 1448.67 1315.99 1448.67 Z" fill="#000000" fill-rule="evenodd" fill-opacity="1" /><path clip-path="url(#clip140)" d="M 0 0 M1785.36 1453.37 L1773.56 1471.81 L1785.36 1471.81 L1785.36 1453.37 M1784.13 1449.29 L1790.01 1449.29 L1790.01 1471.81 L1794.94 1471.81 L1794.94 1475.7 L1790.01 1475.7 L1790.01 1483.85 L1785.36 1483.85 L1785.36 1475.7 L1769.76 1475.7 L1769.76 1471.19 L1784.13 1449.29 Z" fill="#000000" fill-rule="evenodd" fill-opacity="1" /><path clip-path="url(#clip140)" d="M 0 0 M1812.68 1452.37 Q1809.06 1452.37 1807.24 1455.94 Q1805.43 1459.48 1805.43 1466.61 Q1805.43 1473.71 1807.24 1477.28 Q1809.06 1480.82 1812.68 1480.82 Q1816.31 1480.82 1818.12 1477.28 Q1819.94 1473.71 1819.94 1466.61 Q1819.94 1459.48 1818.12 1455.94 Q1816.31 1452.37 1812.68 1452.37 M1812.68 1448.67 Q1818.49 1448.67 1821.54 1453.27 Q1824.62 1457.86 1824.62 1466.61 Q1824.62 1475.33 1821.54 1479.94 Q1818.49 1484.52 1812.68 1484.52 Q1806.87 1484.52 1803.79 1479.94 Q1800.73 1475.33 1800.73 1466.61 Q1800.73 1457.86 1803.79 1453.27 Q1806.87 1448.67 1812.68 1448.67 Z" fill="#000000" fill-rule="evenodd" fill-opacity="1" /><path clip-path="url(#clip140)" d="M 0 0 M2267.93 1449.29 L2286.29 1449.29 L2286.29 1453.23 L2272.21 1453.23 L2272.21 1461.7 Q2273.23 1461.35 2274.25 1461.19 Q2275.27 1461 2276.29 1461 Q2282.07 1461 2285.45 1464.18 Q2288.83 1467.35 2288.83 1472.76 Q2288.83 1478.34 2285.36 1481.44 Q2281.89 1484.52 2275.57 1484.52 Q2273.39 1484.52 2271.12 1484.15 Q2268.88 1483.78 2266.47 1483.04 L2266.47 1478.34 Q2268.56 1479.48 2270.78 1480.03 Q2273 1480.59 2275.48 1480.59 Q2279.48 1480.59 2281.82 1478.48 Q2284.16 1476.38 2284.16 1472.76 Q2284.16 1469.15 2281.82 1467.05 Q2279.48 1464.94 2275.48 1464.94 Q2273.6 1464.94 2271.73 1465.36 Q2269.87 1465.77 2267.93 1466.65 L2267.93 1449.29 Z" fill="#000000" fill-rule="evenodd" fill-opacity="1" /><path clip-path="url(#clip140)" d="M 0 0 M2308.05 1452.37 Q2304.43 1452.37 2302.61 1455.94 Q2300.8 1459.48 2300.8 1466.61 Q2300.8 1473.71 2302.61 1477.28 Q2304.43 1480.82 2308.05 1480.82 Q2311.68 1480.82 2313.49 1477.28 Q2315.31 1473.71 2315.31 1466.61 Q2315.31 1459.48 2313.49 1455.94 Q2311.68 1452.37 2308.05 1452.37 M2308.05 1448.67 Q2313.86 1448.67 2316.91 1453.27 Q2319.99 1457.86 2319.99 1466.61 Q2319.99 1475.33 2316.91 1479.94 Q2313.86 1484.52 2308.05 1484.52 Q2302.24 1484.52 2299.16 1479.94 Q2296.1 1475.33 2296.1 1466.61 Q2296.1 1457.86 2299.16 1453.27 Q2302.24 1448.67 2308.05 1448.67 Z" fill="#000000" fill-rule="evenodd" fill-opacity="1" /><path clip-path="url(#clip140)" d="M 0 0 M1287.61 1525.81 L1287.61 1562.76 L1295.37 1562.76 Q1305.21 1562.76 1309.76 1558.3 Q1314.34 1553.85 1314.34 1544.24 Q1314.34 1534.69 1309.76 1530.26 Q1305.21 1525.81 1295.37 1525.81 L1287.61 1525.81 M1281.18 1520.52 L1294.39 1520.52 Q1308.2 1520.52 1314.66 1526.28 Q1321.12 1532.01 1321.12 1544.24 Q1321.12 1556.52 1314.63 1562.28 Q1308.14 1568.04 1294.39 1568.04 L1281.18 1568.04 L1281.18 1520.52 Z" fill="#000000" fill-rule="evenodd" fill-opacity="1" /><polyline clip-path="url(#clip142)" style="stroke:#000000; stroke-width:2; stroke-opacity:0.1; fill:none" points="
  249.542,1387.67 2352.76,1387.67 
  "/>
<polyline clip-path="url(#clip142)" style="stroke:#000000; stroke-width:2; stroke-opacity:0.1; fill:none" points="
  249.542,1107.99 2352.76,1107.99 
  "/>
<polyline clip-path="url(#clip142)" style="stroke:#000000; stroke-width:2; stroke-opacity:0.1; fill:none" points="
  249.542,828.311 2352.76,828.311 
  "/>
<polyline clip-path="url(#clip142)" style="stroke:#000000; stroke-width:2; stroke-opacity:0.1; fill:none" points="
  249.542,548.631 2352.76,548.631 
  "/>
<polyline clip-path="url(#clip142)" style="stroke:#000000; stroke-width:2; stroke-opacity:0.1; fill:none" points="
  249.542,268.952 2352.76,268.952 
  "/>
<polyline clip-path="url(#clip140)" style="stroke:#000000; stroke-width:4; stroke-opacity:1; fill:none" points="
  249.542,1423.18 249.542,123.472 
  "/>
<polyline clip-path="url(#clip140)" style="stroke:#000000; stroke-width:4; stroke-opacity:1; fill:none" points="
  249.542,1387.67 274.781,1387.67 
  "/>
<polyline clip-path="url(#clip140)" style="stroke:#000000; stroke-width:4; stroke-opacity:1; fill:none" points="
  249.542,1107.99 274.781,1107.99 
  "/>
<polyline clip-path="url(#clip140)" style="stroke:#000000; stroke-width:4; stroke-opacity:1; fill:none" points="
  249.542,828.311 274.781,828.311 
  "/>
<polyline clip-path="url(#clip140)" style="stroke:#000000; stroke-width:4; stroke-opacity:1; fill:none" points="
  249.542,548.631 274.781,548.631 
  "/>
<polyline clip-path="url(#clip140)" style="stroke:#000000; stroke-width:4; stroke-opacity:1; fill:none" points="
  249.542,268.952 274.781,268.952 
  "/>
<path clip-path="url(#clip140)" d="M 0 0 M126.205 1373.47 Q122.593 1373.47 120.765 1377.03 Q118.959 1380.58 118.959 1387.7 Q118.959 1394.81 120.765 1398.38 Q122.593 1401.92 126.205 1401.92 Q129.839 1401.92 131.644 1398.38 Q133.473 1394.81 133.473 1387.7 Q133.473 1380.58 131.644 1377.03 Q129.839 1373.47 126.205 1373.47 M126.205 1369.76 Q132.015 1369.76 135.07 1374.37 Q138.149 1378.95 138.149 1387.7 Q138.149 1396.43 135.07 1401.04 Q132.015 1405.62 126.205 1405.62 Q120.394 1405.62 117.316 1401.04 Q114.26 1396.43 114.26 1387.7 Q114.26 1378.95 117.316 1374.37 Q120.394 1369.76 126.205 1369.76 Z" fill="#000000" fill-rule="evenodd" fill-opacity="1" /><path clip-path="url(#clip140)" d="M 0 0 M146.366 1399.07 L151.251 1399.07 L151.251 1404.95 L146.366 1404.95 L146.366 1399.07 Z" fill="#000000" fill-rule="evenodd" fill-opacity="1" /><path clip-path="url(#clip140)" d="M 0 0 M171.436 1373.47 Q167.825 1373.47 165.996 1377.03 Q164.19 1380.58 164.19 1387.7 Q164.19 1394.81 165.996 1398.38 Q167.825 1401.92 171.436 1401.92 Q175.07 1401.92 176.876 1398.38 Q178.704 1394.81 178.704 1387.7 Q178.704 1380.58 176.876 1377.03 Q175.07 1373.47 171.436 1373.47 M171.436 1369.76 Q177.246 1369.76 180.301 1374.37 Q183.38 1378.95 183.38 1387.7 Q183.38 1396.43 180.301 1401.04 Q177.246 1405.62 171.436 1405.62 Q165.626 1405.62 162.547 1401.04 Q159.491 1396.43 159.491 1387.7 Q159.491 1378.95 162.547 1374.37 Q165.626 1369.76 171.436 1369.76 Z" fill="#000000" fill-rule="evenodd" fill-opacity="1" /><path clip-path="url(#clip140)" d="M 0 0 M201.598 1373.47 Q197.987 1373.47 196.158 1377.03 Q194.352 1380.58 194.352 1387.7 Q194.352 1394.81 196.158 1398.38 Q197.987 1401.92 201.598 1401.92 Q205.232 1401.92 207.037 1398.38 Q208.866 1394.81 208.866 1387.7 Q208.866 1380.58 207.037 1377.03 Q205.232 1373.47 201.598 1373.47 M201.598 1369.76 Q207.408 1369.76 210.463 1374.37 Q213.542 1378.95 213.542 1387.7 Q213.542 1396.43 210.463 1401.04 Q207.408 1405.62 201.598 1405.62 Q195.787 1405.62 192.709 1401.04 Q189.653 1396.43 189.653 1387.7 Q189.653 1378.95 192.709 1374.37 Q195.787 1369.76 201.598 1369.76 Z" fill="#000000" fill-rule="evenodd" fill-opacity="1" /><path clip-path="url(#clip140)" d="M 0 0 M127.2 1093.79 Q123.589 1093.79 121.76 1097.35 Q119.955 1100.9 119.955 1108.03 Q119.955 1115.13 121.76 1118.7 Q123.589 1122.24 127.2 1122.24 Q130.834 1122.24 132.64 1118.7 Q134.468 1115.13 134.468 1108.03 Q134.468 1100.9 132.64 1097.35 Q130.834 1093.79 127.2 1093.79 M127.2 1090.09 Q133.01 1090.09 136.066 1094.69 Q139.144 1099.28 139.144 1108.03 Q139.144 1116.75 136.066 1121.36 Q133.01 1125.94 127.2 1125.94 Q121.39 1125.94 118.311 1121.36 Q115.256 1116.75 115.256 1108.03 Q115.256 1099.28 118.311 1094.69 Q121.39 1090.09 127.2 1090.09 Z" fill="#000000" fill-rule="evenodd" fill-opacity="1" /><path clip-path="url(#clip140)" d="M 0 0 M147.362 1119.39 L152.246 1119.39 L152.246 1125.27 L147.362 1125.27 L147.362 1119.39 Z" fill="#000000" fill-rule="evenodd" fill-opacity="1" /><path clip-path="url(#clip140)" d="M 0 0 M172.431 1093.79 Q168.82 1093.79 166.991 1097.35 Q165.186 1100.9 165.186 1108.03 Q165.186 1115.13 166.991 1118.7 Q168.82 1122.24 172.431 1122.24 Q176.065 1122.24 177.871 1118.7 Q179.7 1115.13 179.7 1108.03 Q179.7 1100.9 177.871 1097.35 Q176.065 1093.79 172.431 1093.79 M172.431 1090.09 Q178.241 1090.09 181.297 1094.69 Q184.376 1099.28 184.376 1108.03 Q184.376 1116.75 181.297 1121.36 Q178.241 1125.94 172.431 1125.94 Q166.621 1125.94 163.542 1121.36 Q160.487 1116.75 160.487 1108.03 Q160.487 1099.28 163.542 1094.69 Q166.621 1090.09 172.431 1090.09 Z" fill="#000000" fill-rule="evenodd" fill-opacity="1" /><path clip-path="url(#clip140)" d="M 0 0 M192.639 1090.71 L210.996 1090.71 L210.996 1094.65 L196.922 1094.65 L196.922 1103.12 Q197.94 1102.77 198.959 1102.61 Q199.977 1102.42 200.996 1102.42 Q206.783 1102.42 210.162 1105.59 Q213.542 1108.77 213.542 1114.18 Q213.542 1119.76 210.07 1122.86 Q206.598 1125.94 200.278 1125.94 Q198.102 1125.94 195.834 1125.57 Q193.588 1125.2 191.181 1124.46 L191.181 1119.76 Q193.264 1120.9 195.487 1121.45 Q197.709 1122.01 200.186 1122.01 Q204.19 1122.01 206.528 1119.9 Q208.866 1117.79 208.866 1114.18 Q208.866 1110.57 206.528 1108.46 Q204.19 1106.36 200.186 1106.36 Q198.311 1106.36 196.436 1106.78 Q194.584 1107.19 192.639 1108.07 L192.639 1090.71 Z" fill="#000000" fill-rule="evenodd" fill-opacity="1" /><path clip-path="url(#clip140)" d="M 0 0 M126.205 814.109 Q122.593 814.109 120.765 817.674 Q118.959 821.216 118.959 828.345 Q118.959 835.452 120.765 839.017 Q122.593 842.558 126.205 842.558 Q129.839 842.558 131.644 839.017 Q133.473 835.452 133.473 828.345 Q133.473 821.216 131.644 817.674 Q129.839 814.109 126.205 814.109 M126.205 810.406 Q132.015 810.406 135.07 815.012 Q138.149 819.595 138.149 828.345 Q138.149 837.072 135.07 841.679 Q132.015 846.262 126.205 846.262 Q120.394 846.262 117.316 841.679 Q114.26 837.072 114.26 828.345 Q114.26 819.595 117.316 815.012 Q120.394 810.406 126.205 810.406 Z" fill="#000000" fill-rule="evenodd" fill-opacity="1" /><path clip-path="url(#clip140)" d="M 0 0 M146.366 839.711 L151.251 839.711 L151.251 845.591 L146.366 845.591 L146.366 839.711 Z" fill="#000000" fill-rule="evenodd" fill-opacity="1" /><path clip-path="url(#clip140)" d="M 0 0 M162.246 841.656 L169.885 841.656 L169.885 815.29 L161.575 816.957 L161.575 812.697 L169.839 811.031 L174.514 811.031 L174.514 841.656 L182.153 841.656 L182.153 845.591 L162.246 845.591 L162.246 841.656 Z" fill="#000000" fill-rule="evenodd" fill-opacity="1" /><path clip-path="url(#clip140)" d="M 0 0 M201.598 814.109 Q197.987 814.109 196.158 817.674 Q194.352 821.216 194.352 828.345 Q194.352 835.452 196.158 839.017 Q197.987 842.558 201.598 842.558 Q205.232 842.558 207.037 839.017 Q208.866 835.452 208.866 828.345 Q208.866 821.216 207.037 817.674 Q205.232 814.109 201.598 814.109 M201.598 810.406 Q207.408 810.406 210.463 815.012 Q213.542 819.595 213.542 828.345 Q213.542 837.072 210.463 841.679 Q207.408 846.262 201.598 846.262 Q195.787 846.262 192.709 841.679 Q189.653 837.072 189.653 828.345 Q189.653 819.595 192.709 815.012 Q195.787 810.406 201.598 810.406 Z" fill="#000000" fill-rule="evenodd" fill-opacity="1" /><path clip-path="url(#clip140)" d="M 0 0 M127.2 534.43 Q123.589 534.43 121.76 537.995 Q119.955 541.536 119.955 548.666 Q119.955 555.772 121.76 559.337 Q123.589 562.879 127.2 562.879 Q130.834 562.879 132.64 559.337 Q134.468 555.772 134.468 548.666 Q134.468 541.536 132.64 537.995 Q130.834 534.43 127.2 534.43 M127.2 530.726 Q133.01 530.726 136.066 535.333 Q139.144 539.916 139.144 548.666 Q139.144 557.393 136.066 561.999 Q133.01 566.582 127.2 566.582 Q121.39 566.582 118.311 561.999 Q115.256 557.393 115.256 548.666 Q115.256 539.916 118.311 535.333 Q121.39 530.726 127.2 530.726 Z" fill="#000000" fill-rule="evenodd" fill-opacity="1" /><path clip-path="url(#clip140)" d="M 0 0 M147.362 560.032 L152.246 560.032 L152.246 565.911 L147.362 565.911 L147.362 560.032 Z" fill="#000000" fill-rule="evenodd" fill-opacity="1" /><path clip-path="url(#clip140)" d="M 0 0 M163.241 561.976 L170.88 561.976 L170.88 535.61 L162.57 537.277 L162.57 533.018 L170.834 531.351 L175.51 531.351 L175.51 561.976 L183.149 561.976 L183.149 565.911 L163.241 565.911 L163.241 561.976 Z" fill="#000000" fill-rule="evenodd" fill-opacity="1" /><path clip-path="url(#clip140)" d="M 0 0 M192.639 531.351 L210.996 531.351 L210.996 535.286 L196.922 535.286 L196.922 543.758 Q197.94 543.411 198.959 543.249 Q199.977 543.064 200.996 543.064 Q206.783 543.064 210.162 546.235 Q213.542 549.407 213.542 554.823 Q213.542 560.402 210.07 563.504 Q206.598 566.582 200.278 566.582 Q198.102 566.582 195.834 566.212 Q193.588 565.842 191.181 565.101 L191.181 560.402 Q193.264 561.536 195.487 562.092 Q197.709 562.647 200.186 562.647 Q204.19 562.647 206.528 560.541 Q208.866 558.434 208.866 554.823 Q208.866 551.212 206.528 549.106 Q204.19 546.999 200.186 546.999 Q198.311 546.999 196.436 547.416 Q194.584 547.833 192.639 548.712 L192.639 531.351 Z" fill="#000000" fill-rule="evenodd" fill-opacity="1" /><path clip-path="url(#clip140)" d="M 0 0 M126.205 254.75 Q122.593 254.75 120.765 258.315 Q118.959 261.857 118.959 268.986 Q118.959 276.093 120.765 279.658 Q122.593 283.199 126.205 283.199 Q129.839 283.199 131.644 279.658 Q133.473 276.093 133.473 268.986 Q133.473 261.857 131.644 258.315 Q129.839 254.75 126.205 254.75 M126.205 251.047 Q132.015 251.047 135.07 255.653 Q138.149 260.236 138.149 268.986 Q138.149 277.713 135.07 282.32 Q132.015 286.903 126.205 286.903 Q120.394 286.903 117.316 282.32 Q114.26 277.713 114.26 268.986 Q114.26 260.236 117.316 255.653 Q120.394 251.047 126.205 251.047 Z" fill="#000000" fill-rule="evenodd" fill-opacity="1" /><path clip-path="url(#clip140)" d="M 0 0 M146.366 280.352 L151.251 280.352 L151.251 286.232 L146.366 286.232 L146.366 280.352 Z" fill="#000000" fill-rule="evenodd" fill-opacity="1" /><path clip-path="url(#clip140)" d="M 0 0 M165.464 282.296 L181.783 282.296 L181.783 286.232 L159.839 286.232 L159.839 282.296 Q162.501 279.542 167.084 274.912 Q171.69 270.259 172.871 268.917 Q175.116 266.394 175.996 264.658 Q176.899 262.898 176.899 261.209 Q176.899 258.454 174.954 256.718 Q173.033 254.982 169.931 254.982 Q167.732 254.982 165.278 255.746 Q162.848 256.509 160.07 258.06 L160.07 253.338 Q162.894 252.204 165.348 251.625 Q167.802 251.047 169.839 251.047 Q175.209 251.047 178.403 253.732 Q181.598 256.417 181.598 260.908 Q181.598 263.037 180.788 264.959 Q180.001 266.857 177.894 269.449 Q177.315 270.121 174.214 273.338 Q171.112 276.533 165.464 282.296 Z" fill="#000000" fill-rule="evenodd" fill-opacity="1" /><path clip-path="url(#clip140)" d="M 0 0 M201.598 254.75 Q197.987 254.75 196.158 258.315 Q194.352 261.857 194.352 268.986 Q194.352 276.093 196.158 279.658 Q197.987 283.199 201.598 283.199 Q205.232 283.199 207.037 279.658 Q208.866 276.093 208.866 268.986 Q208.866 261.857 207.037 258.315 Q205.232 254.75 201.598 254.75 M201.598 251.047 Q207.408 251.047 210.463 255.653 Q213.542 260.236 213.542 268.986 Q213.542 277.713 210.463 282.32 Q207.408 286.903 201.598 286.903 Q195.787 286.903 192.709 282.32 Q189.653 277.713 189.653 268.986 Q189.653 260.236 192.709 255.653 Q195.787 251.047 201.598 251.047 Z" fill="#000000" fill-rule="evenodd" fill-opacity="1" /><path clip-path="url(#clip140)" d="M 0 0 M18.2347 862.271 L28.3562 862.271 L28.3562 850.208 L32.9077 850.208 L32.9077 862.271 L52.2594 862.271 Q56.6199 862.271 57.8613 861.093 Q59.1026 859.884 59.1026 856.223 L59.1026 850.208 L64.0042 850.208 L64.0042 856.223 Q64.0042 863.003 61.4897 865.581 Q58.9434 868.159 52.2594 868.159 L32.9077 868.159 L32.9077 872.456 L28.3562 872.456 L28.3562 868.159 L18.2347 868.159 L18.2347 862.271 Z" fill="#000000" fill-rule="evenodd" fill-opacity="1" /><path clip-path="url(#clip140)" d="M 0 0 M28.3562 842.505 L28.3562 836.649 L64.0042 836.649 L64.0042 842.505 L28.3562 842.505 M14.479 842.505 L14.479 836.649 L21.895 836.649 L21.895 842.505 L14.479 842.505 Z" fill="#000000" fill-rule="evenodd" fill-opacity="1" /><path clip-path="url(#clip140)" d="M 0 0 M35.1993 796.64 Q31.2526 794.444 29.3747 791.389 Q27.4968 788.333 27.4968 784.195 Q27.4968 778.625 31.4117 775.602 Q35.2948 772.578 42.4881 772.578 L64.0042 772.578 L64.0042 778.466 L42.679 778.466 Q37.5546 778.466 35.072 780.281 Q32.5894 782.095 32.5894 785.819 Q32.5894 790.37 35.6131 793.012 Q38.6368 795.654 43.8567 795.654 L64.0042 795.654 L64.0042 801.542 L42.679 801.542 Q37.5228 801.542 35.072 803.356 Q32.5894 805.17 32.5894 808.958 Q32.5894 813.446 35.6449 816.088 Q38.6686 818.729 43.8567 818.729 L64.0042 818.729 L64.0042 824.618 L28.3562 824.618 L28.3562 818.729 L33.8944 818.729 Q30.616 816.724 29.0564 813.923 Q27.4968 811.122 27.4968 807.271 Q27.4968 803.388 29.4702 800.683 Q31.4436 797.945 35.1993 796.64 Z" fill="#000000" fill-rule="evenodd" fill-opacity="1" /><path clip-path="url(#clip140)" d="M 0 0 M44.7161 730.405 L47.5806 730.405 L47.5806 757.332 Q53.6281 756.95 56.8109 753.704 Q59.9619 750.425 59.9619 744.601 Q59.9619 741.227 59.1344 738.076 Q58.3069 734.893 56.6518 731.774 L62.1899 731.774 Q63.5267 734.925 64.227 738.235 Q64.9272 741.545 64.9272 744.951 Q64.9272 753.481 59.9619 758.478 Q54.9967 763.443 46.5303 763.443 Q37.7774 763.443 32.6531 758.733 Q27.4968 753.99 27.4968 745.969 Q27.4968 738.776 32.1438 734.607 Q36.7589 730.405 44.7161 730.405 M42.9973 736.262 Q38.1912 736.325 35.3266 738.967 Q32.4621 741.577 32.4621 745.906 Q32.4621 750.807 35.2312 753.767 Q38.0002 756.696 43.0292 757.141 L42.9973 736.262 Z" fill="#000000" fill-rule="evenodd" fill-opacity="1" /><path clip-path="url(#clip140)" d="M 0 0 M16.4842 710.385 L16.4842 704.974 L70.0516 721.525 L70.0516 726.936 L16.4842 710.385 Z" fill="#000000" fill-rule="evenodd" fill-opacity="1" /><path clip-path="url(#clip140)" d="M 0 0 M29.4065 676.106 L34.9447 676.106 Q33.6716 678.588 33.035 681.262 Q32.3984 683.936 32.3984 686.8 Q32.3984 691.161 33.7352 693.357 Q35.072 695.521 37.7456 695.521 Q39.7826 695.521 40.9603 693.962 Q42.1061 692.402 43.1565 687.691 L43.6021 685.686 Q44.9389 679.448 47.3897 676.838 Q49.8086 674.196 54.1691 674.196 Q59.1344 674.196 62.0308 678.143 Q64.9272 682.058 64.9272 688.933 Q64.9272 691.797 64.3543 694.916 Q63.8132 698.004 62.6992 701.441 L56.6518 701.441 Q58.3387 698.195 59.198 695.044 Q60.0256 691.893 60.0256 688.805 Q60.0256 684.668 58.6251 682.44 Q57.1929 680.212 54.6147 680.212 Q52.2276 680.212 50.9545 681.835 Q49.6813 683.426 48.5037 688.869 L48.0262 690.906 Q46.8804 696.349 44.5251 698.768 Q42.138 701.187 38.0002 701.187 Q32.9713 701.187 30.2341 697.622 Q27.4968 694.057 27.4968 687.5 Q27.4968 684.254 27.9743 681.389 Q28.4517 678.525 29.4065 676.106 Z" fill="#000000" fill-rule="evenodd" fill-opacity="1" /><path clip-path="url(#clip140)" d="M 0 0 M1177.05 14.324 L1177.05 27.2059 L1192.4 27.2059 L1192.4 32.9987 L1177.05 32.9987 L1177.05 57.6282 Q1177.05 63.1779 1178.55 64.7578 Q1180.09 66.3376 1184.75 66.3376 L1192.4 66.3376 L1192.4 72.576 L1184.75 72.576 Q1176.12 72.576 1172.84 69.3758 Q1169.56 66.1351 1169.56 57.6282 L1169.56 32.9987 L1164.09 32.9987 L1164.09 27.2059 L1169.56 27.2059 L1169.56 14.324 L1177.05 14.324 Z" fill="#000000" fill-rule="evenodd" fill-opacity="1" /><path clip-path="url(#clip140)" d="M 0 0 M1202.21 27.2059 L1209.66 27.2059 L1209.66 72.576 L1202.21 72.576 L1202.21 27.2059 M1202.21 9.54393 L1209.66 9.54393 L1209.66 18.9825 L1202.21 18.9825 L1202.21 9.54393 Z" fill="#000000" fill-rule="evenodd" fill-opacity="1" /><path clip-path="url(#clip140)" d="M 0 0 M1260.58 35.9153 Q1263.37 30.8922 1267.26 28.5022 Q1271.15 26.1121 1276.42 26.1121 Q1283.51 26.1121 1287.36 31.0947 Q1291.2 36.0368 1291.2 45.1919 L1291.2 72.576 L1283.71 72.576 L1283.71 45.4349 Q1283.71 38.913 1281.4 35.7533 Q1279.09 32.5936 1274.35 32.5936 Q1268.56 32.5936 1265.2 36.4419 Q1261.83 40.2903 1261.83 46.9338 L1261.83 72.576 L1254.34 72.576 L1254.34 45.4349 Q1254.34 38.8725 1252.03 35.7533 Q1249.72 32.5936 1244.9 32.5936 Q1239.19 32.5936 1235.83 36.4824 Q1232.47 40.3308 1232.47 46.9338 L1232.47 72.576 L1224.97 72.576 L1224.97 27.2059 L1232.47 27.2059 L1232.47 34.2544 Q1235.02 30.082 1238.58 28.0971 Q1242.15 26.1121 1247.05 26.1121 Q1251.99 26.1121 1255.43 28.6237 Q1258.92 31.1352 1260.58 35.9153 Z" fill="#000000" fill-rule="evenodd" fill-opacity="1" /><path clip-path="url(#clip140)" d="M 0 0 M1344.88 48.0275 L1344.88 51.6733 L1310.61 51.6733 Q1311.09 59.3701 1315.23 63.421 Q1319.4 67.4314 1326.81 67.4314 Q1331.11 67.4314 1335.12 66.3781 Q1339.17 65.3249 1343.14 63.2184 L1343.14 70.267 Q1339.13 71.9684 1334.91 72.8596 Q1330.7 73.7508 1326.37 73.7508 Q1315.51 73.7508 1309.15 67.4314 Q1302.83 61.1119 1302.83 50.3365 Q1302.83 39.1965 1308.83 32.6746 Q1314.86 26.1121 1325.07 26.1121 Q1334.22 26.1121 1339.53 32.0264 Q1344.88 37.9003 1344.88 48.0275 M1337.42 45.84 Q1337.34 39.7232 1333.98 36.0774 Q1330.66 32.4315 1325.15 32.4315 Q1318.91 32.4315 1315.14 35.9558 Q1311.42 39.4801 1310.85 45.8805 L1337.42 45.84 Z" fill="#000000" fill-rule="evenodd" fill-opacity="1" /><path clip-path="url(#clip140)" d="M 0 0 M1353.34 46.5287 L1375.18 46.5287 L1375.18 53.1722 L1353.34 53.1722 L1353.34 46.5287 Z" fill="#000000" fill-rule="evenodd" fill-opacity="1" /><path clip-path="url(#clip140)" d="M 0 0 M1395.56 18.8205 L1395.56 65.8515 L1405.44 65.8515 Q1417.96 65.8515 1423.75 60.1802 Q1429.58 54.509 1429.58 42.2752 Q1429.58 30.1225 1423.75 24.4918 Q1417.96 18.8205 1405.44 18.8205 L1395.56 18.8205 M1387.37 12.096 L1404.18 12.096 Q1421.76 12.096 1429.99 19.4281 Q1438.21 26.7198 1438.21 42.2752 Q1438.21 57.9117 1429.95 65.2439 Q1421.68 72.576 1404.18 72.576 L1387.37 72.576 L1387.37 12.096 Z" fill="#000000" fill-rule="evenodd" fill-opacity="1" /><polyline clip-path="url(#clip142)" style="stroke:#009af9; stroke-width:12; stroke-opacity:1; fill:none" stroke-dasharray="48, 24, 6, 24, 6, 24" points="
  309.067,1386.08 557.087,1386.34 805.108,1386.36 1053.13,1385.94 1301.15,1385.72 1549.17,1384.85 1797.19,1384.78 2045.21,1384.46 2293.23,1384.39 
  "/>
<polyline clip-path="url(#clip142)" style="stroke:#e26f46; stroke-width:12; stroke-opacity:1; fill:none" stroke-dasharray="48, 24, 6, 24, 6, 24" points="
  309.067,1385.89 557.087,1385.21 805.108,1384.89 1053.13,1383.73 1301.15,1381.48 1549.17,1379.42 1797.19,1375.26 2045.21,1366.9 2293.23,1362.7 
  "/>
<polyline clip-path="url(#clip142)" style="stroke:#3da44d; stroke-width:12; stroke-opacity:1; fill:none" stroke-dasharray="48, 24, 6, 24, 6, 24" points="
  309.067,1381.24 557.087,1377.38 805.108,1371.38 1053.13,1361.61 1301.15,1352.14 1549.17,1295.29 1797.19,1327.47 2045.21,1309.65 2293.23,1289.01 
  "/>
<polyline clip-path="url(#clip142)" style="stroke:#c271d2; stroke-width:12; stroke-opacity:1; fill:none" stroke-dasharray="48, 24, 6, 24, 6, 24" points="
  309.067,1364.75 557.087,1345.55 805.108,1322.07 1053.13,1292.66 1301.15,1250.28 1549.17,1206.8 1797.19,1147.23 2045.21,1024.44 2293.23,965.788 
  "/>
<polyline clip-path="url(#clip142)" style="stroke:#ac8d18; stroke-width:12; stroke-opacity:1; fill:none" stroke-dasharray="48, 24, 6, 24, 6, 24" points="
  309.067,1308.49 557.087,1155.16 805.108,1139.43 1053.13,1056.31 1301.15,902.021 1549.17,761.353 1797.19,577.49 2045.21,371.059 2293.23,160.256 
  "/>
<polyline clip-path="url(#clip142)" style="stroke:#00a9ad; stroke-width:12; stroke-opacity:1; fill:none" points="
  309.067,1385.26 557.087,1386.05 805.108,1386.34 1053.13,1386.33 1301.15,1386.18 1549.17,1386.19 1797.19,1386.35 2045.21,1385.77 2293.23,1386.23 
  "/>
<polyline clip-path="url(#clip142)" style="stroke:#ed5d92; stroke-width:12; stroke-opacity:1; fill:none" points="
  309.067,1385.22 557.087,1385.92 805.108,1386.28 1053.13,1386.4 1301.15,1385.94 1549.17,1386.2 1797.19,1386.17 2045.21,1386.37 2293.23,1386.32 
  "/>
<polyline clip-path="url(#clip142)" style="stroke:#c68125; stroke-width:12; stroke-opacity:1; fill:none" points="
  309.067,1386.08 557.087,1386.31 805.108,1386.31 1053.13,1385.78 1301.15,1385.49 1549.17,1384.66 1797.19,1385.98 2045.21,1385.96 2293.23,1384.81 
  "/>
<polyline clip-path="url(#clip142)" style="stroke:#00a98d; stroke-width:12; stroke-opacity:1; fill:none" points="
  309.067,1385.47 557.087,1385.58 805.108,1384.22 1053.13,1385.51 1301.15,1385.74 1549.17,1385.55 1797.19,1385.53 2045.21,1385.5 2293.23,1385.43 
  "/>
<polyline clip-path="url(#clip142)" style="stroke:#8e971d; stroke-width:12; stroke-opacity:1; fill:none" points="
  309.067,1385.53 557.087,1385.54 805.108,1385.6 1053.13,1385.55 1301.15,1385.59 1549.17,1384.64 1797.19,1307.2 2045.21,1385.57 2293.23,1385.55 
  "/>
<path clip-path="url(#clip140)" d="
M319.649 832.076 L901.787 832.076 L901.787 166.796 L319.649 166.796  Z
  " fill="#ffffff" fill-rule="evenodd" fill-opacity="1"/>
<polyline clip-path="url(#clip140)" style="stroke:#000000; stroke-width:4; stroke-opacity:1; fill:none" points="
  319.649,832.076 901.787,832.076 901.787,166.796 319.649,166.796 319.649,832.076 
  "/>
<polyline clip-path="url(#clip140)" style="stroke:#009af9; stroke-width:4; stroke-opacity:1; fill:none" stroke-dasharray="16, 8, 2, 8, 2, 8" points="
  343.018,227.276 483.232,227.276 
  "/>
<path clip-path="url(#clip140)" d="M 0 0 M522.435 214.602 L516.092 231.801 L528.8 231.801 L522.435 214.602 M519.796 209.996 L525.097 209.996 L538.268 244.556 L533.407 244.556 L530.259 235.69 L514.68 235.69 L511.532 244.556 L506.602 244.556 L519.796 209.996 Z" fill="#000000" fill-rule="evenodd" fill-opacity="1" /><path clip-path="url(#clip140)" d="M 0 0 M558.152 222.611 Q557.435 222.195 556.578 222.01 Q555.745 221.801 554.726 221.801 Q551.115 221.801 549.171 224.162 Q547.249 226.5 547.249 230.898 L547.249 244.556 L542.967 244.556 L542.967 218.63 L547.249 218.63 L547.249 222.658 Q548.592 220.297 550.745 219.162 Q552.898 218.005 555.976 218.005 Q556.416 218.005 556.948 218.074 Q557.481 218.121 558.129 218.236 L558.152 222.611 Z" fill="#000000" fill-rule="evenodd" fill-opacity="1" /><path clip-path="url(#clip140)" d="M 0 0 M576.809 222.611 Q576.092 222.195 575.235 222.01 Q574.402 221.801 573.384 221.801 Q569.772 221.801 567.828 224.162 Q565.907 226.5 565.907 230.898 L565.907 244.556 L561.624 244.556 L561.624 218.63 L565.907 218.63 L565.907 222.658 Q567.249 220.297 569.402 219.162 Q571.555 218.005 574.634 218.005 Q575.073 218.005 575.606 218.074 Q576.138 218.121 576.786 218.236 L576.809 222.611 Z" fill="#000000" fill-rule="evenodd" fill-opacity="1" /><path clip-path="url(#clip140)" d="M 0 0 M593.059 231.523 Q587.897 231.523 585.907 232.704 Q583.916 233.884 583.916 236.732 Q583.916 239 585.397 240.343 Q586.902 241.662 589.471 241.662 Q593.013 241.662 595.143 239.162 Q597.295 236.639 597.295 232.472 L597.295 231.523 L593.059 231.523 M601.555 229.764 L601.555 244.556 L597.295 244.556 L597.295 240.621 Q595.837 242.982 593.661 244.116 Q591.485 245.227 588.337 245.227 Q584.356 245.227 581.995 243.005 Q579.657 240.759 579.657 237.009 Q579.657 232.634 582.573 230.412 Q585.513 228.19 591.323 228.19 L597.295 228.19 L597.295 227.773 Q597.295 224.834 595.351 223.236 Q593.43 221.616 589.934 221.616 Q587.712 221.616 585.606 222.148 Q583.499 222.681 581.555 223.746 L581.555 219.81 Q583.893 218.908 586.092 218.468 Q588.291 218.005 590.374 218.005 Q595.999 218.005 598.777 220.922 Q601.555 223.838 601.555 229.764 Z" fill="#000000" fill-rule="evenodd" fill-opacity="1" /><path clip-path="url(#clip140)" d="M 0 0 M621.115 246.963 Q619.309 251.593 617.596 253.005 Q615.883 254.417 613.013 254.417 L609.61 254.417 L609.61 250.852 L612.11 250.852 Q613.869 250.852 614.842 250.019 Q615.814 249.185 616.994 246.083 L617.758 244.139 L607.272 218.63 L611.786 218.63 L619.888 238.908 L627.99 218.63 L632.504 218.63 L621.115 246.963 Z" fill="#000000" fill-rule="evenodd" fill-opacity="1" /><path clip-path="url(#clip140)" d="M 0 0 M670.513 222.565 L670.513 208.537 L674.772 208.537 L674.772 244.556 L670.513 244.556 L670.513 240.667 Q669.17 242.982 667.11 244.116 Q665.073 245.227 662.203 245.227 Q657.503 245.227 654.541 241.477 Q651.601 237.727 651.601 231.616 Q651.601 225.505 654.541 221.755 Q657.503 218.005 662.203 218.005 Q665.073 218.005 667.11 219.139 Q669.17 220.25 670.513 222.565 M655.999 231.616 Q655.999 236.315 657.92 239 Q659.865 241.662 663.244 241.662 Q666.624 241.662 668.568 239 Q670.513 236.315 670.513 231.616 Q670.513 226.917 668.568 224.255 Q666.624 221.57 663.244 221.57 Q659.865 221.57 657.92 224.255 Q655.999 226.917 655.999 231.616 Z" fill="#000000" fill-rule="evenodd" fill-opacity="1" /><path clip-path="url(#clip140)" d="M 0 0 M684.101 223.028 L713.776 223.028 L713.776 226.917 L684.101 226.917 L684.101 223.028 M684.101 232.472 L713.776 232.472 L713.776 236.408 L684.101 236.408 L684.101 232.472 Z" fill="#000000" fill-rule="evenodd" fill-opacity="1" /><path clip-path="url(#clip140)" d="M 0 0 M736.716 214.07 L724.911 232.519 L736.716 232.519 L736.716 214.07 M735.489 209.996 L741.369 209.996 L741.369 232.519 L746.299 232.519 L746.299 236.408 L741.369 236.408 L741.369 244.556 L736.716 244.556 L736.716 236.408 L721.114 236.408 L721.114 231.894 L735.489 209.996 Z" fill="#000000" fill-rule="evenodd" fill-opacity="1" /><polyline clip-path="url(#clip140)" style="stroke:#e26f46; stroke-width:4; stroke-opacity:1; fill:none" stroke-dasharray="16, 8, 2, 8, 2, 8" points="
  343.018,287.756 483.232,287.756 
  "/>
<path clip-path="url(#clip140)" d="M 0 0 M522.435 275.082 L516.092 292.281 L528.8 292.281 L522.435 275.082 M519.796 270.476 L525.097 270.476 L538.268 305.036 L533.407 305.036 L530.259 296.17 L514.68 296.17 L511.532 305.036 L506.602 305.036 L519.796 270.476 Z" fill="#000000" fill-rule="evenodd" fill-opacity="1" /><path clip-path="url(#clip140)" d="M 0 0 M558.152 283.091 Q557.435 282.675 556.578 282.49 Q555.745 282.281 554.726 282.281 Q551.115 282.281 549.171 284.642 Q547.249 286.98 547.249 291.378 L547.249 305.036 L542.967 305.036 L542.967 279.11 L547.249 279.11 L547.249 283.138 Q548.592 280.777 550.745 279.642 Q552.898 278.485 555.976 278.485 Q556.416 278.485 556.948 278.554 Q557.481 278.601 558.129 278.716 L558.152 283.091 Z" fill="#000000" fill-rule="evenodd" fill-opacity="1" /><path clip-path="url(#clip140)" d="M 0 0 M576.809 283.091 Q576.092 282.675 575.235 282.49 Q574.402 282.281 573.384 282.281 Q569.772 282.281 567.828 284.642 Q565.907 286.98 565.907 291.378 L565.907 305.036 L561.624 305.036 L561.624 279.11 L565.907 279.11 L565.907 283.138 Q567.249 280.777 569.402 279.642 Q571.555 278.485 574.634 278.485 Q575.073 278.485 575.606 278.554 Q576.138 278.601 576.786 278.716 L576.809 283.091 Z" fill="#000000" fill-rule="evenodd" fill-opacity="1" /><path clip-path="url(#clip140)" d="M 0 0 M593.059 292.003 Q587.897 292.003 585.907 293.184 Q583.916 294.364 583.916 297.212 Q583.916 299.48 585.397 300.823 Q586.902 302.142 589.471 302.142 Q593.013 302.142 595.143 299.642 Q597.295 297.119 597.295 292.952 L597.295 292.003 L593.059 292.003 M601.555 290.244 L601.555 305.036 L597.295 305.036 L597.295 301.101 Q595.837 303.462 593.661 304.596 Q591.485 305.707 588.337 305.707 Q584.356 305.707 581.995 303.485 Q579.657 301.239 579.657 297.489 Q579.657 293.114 582.573 290.892 Q585.513 288.67 591.323 288.67 L597.295 288.67 L597.295 288.253 Q597.295 285.314 595.351 283.716 Q593.43 282.096 589.934 282.096 Q587.712 282.096 585.606 282.628 Q583.499 283.161 581.555 284.226 L581.555 280.29 Q583.893 279.388 586.092 278.948 Q588.291 278.485 590.374 278.485 Q595.999 278.485 598.777 281.402 Q601.555 284.318 601.555 290.244 Z" fill="#000000" fill-rule="evenodd" fill-opacity="1" /><path clip-path="url(#clip140)" d="M 0 0 M621.115 307.443 Q619.309 312.073 617.596 313.485 Q615.883 314.897 613.013 314.897 L609.61 314.897 L609.61 311.332 L612.11 311.332 Q613.869 311.332 614.842 310.499 Q615.814 309.665 616.994 306.563 L617.758 304.619 L607.272 279.11 L611.786 279.11 L619.888 299.388 L627.99 279.11 L632.504 279.11 L621.115 307.443 Z" fill="#000000" fill-rule="evenodd" fill-opacity="1" /><path clip-path="url(#clip140)" d="M 0 0 M670.513 283.045 L670.513 269.017 L674.772 269.017 L674.772 305.036 L670.513 305.036 L670.513 301.147 Q669.17 303.462 667.11 304.596 Q665.073 305.707 662.203 305.707 Q657.503 305.707 654.541 301.957 Q651.601 298.207 651.601 292.096 Q651.601 285.985 654.541 282.235 Q657.503 278.485 662.203 278.485 Q665.073 278.485 667.11 279.619 Q669.17 280.73 670.513 283.045 M655.999 292.096 Q655.999 296.795 657.92 299.48 Q659.865 302.142 663.244 302.142 Q666.624 302.142 668.568 299.48 Q670.513 296.795 670.513 292.096 Q670.513 287.397 668.568 284.735 Q666.624 282.05 663.244 282.05 Q659.865 282.05 657.92 284.735 Q655.999 287.397 655.999 292.096 Z" fill="#000000" fill-rule="evenodd" fill-opacity="1" /><path clip-path="url(#clip140)" d="M 0 0 M684.101 283.508 L713.776 283.508 L713.776 287.397 L684.101 287.397 L684.101 283.508 M684.101 292.952 L713.776 292.952 L713.776 296.888 L684.101 296.888 L684.101 292.952 Z" fill="#000000" fill-rule="evenodd" fill-opacity="1" /><path clip-path="url(#clip140)" d="M 0 0 M724.008 304.318 L724.008 300.059 Q725.767 300.892 727.573 301.332 Q729.378 301.772 731.114 301.772 Q735.744 301.772 738.174 298.67 Q740.628 295.545 740.975 289.202 Q739.633 291.193 737.572 292.258 Q735.512 293.323 733.012 293.323 Q727.827 293.323 724.795 290.198 Q721.786 287.05 721.786 281.61 Q721.786 276.286 724.934 273.068 Q728.082 269.851 733.313 269.851 Q739.309 269.851 742.457 274.457 Q745.628 279.04 745.628 287.79 Q745.628 295.962 741.739 300.846 Q737.873 305.707 731.323 305.707 Q729.563 305.707 727.758 305.36 Q725.952 305.013 724.008 304.318 M733.313 289.665 Q736.461 289.665 738.29 287.513 Q740.142 285.36 740.142 281.61 Q740.142 277.883 738.29 275.73 Q736.461 273.554 733.313 273.554 Q730.165 273.554 728.313 275.73 Q726.485 277.883 726.485 281.61 Q726.485 285.36 728.313 287.513 Q730.165 289.665 733.313 289.665 Z" fill="#000000" fill-rule="evenodd" fill-opacity="1" /><polyline clip-path="url(#clip140)" style="stroke:#3da44d; stroke-width:4; stroke-opacity:1; fill:none" stroke-dasharray="16, 8, 2, 8, 2, 8" points="
  343.018,348.236 483.232,348.236 
  "/>
<path clip-path="url(#clip140)" d="M 0 0 M522.435 335.562 L516.092 352.761 L528.8 352.761 L522.435 335.562 M519.796 330.956 L525.097 330.956 L538.268 365.516 L533.407 365.516 L530.259 356.65 L514.68 356.65 L511.532 365.516 L506.602 365.516 L519.796 330.956 Z" fill="#000000" fill-rule="evenodd" fill-opacity="1" /><path clip-path="url(#clip140)" d="M 0 0 M558.152 343.571 Q557.435 343.155 556.578 342.97 Q555.745 342.761 554.726 342.761 Q551.115 342.761 549.171 345.122 Q547.249 347.46 547.249 351.858 L547.249 365.516 L542.967 365.516 L542.967 339.59 L547.249 339.59 L547.249 343.618 Q548.592 341.257 550.745 340.122 Q552.898 338.965 555.976 338.965 Q556.416 338.965 556.948 339.034 Q557.481 339.081 558.129 339.196 L558.152 343.571 Z" fill="#000000" fill-rule="evenodd" fill-opacity="1" /><path clip-path="url(#clip140)" d="M 0 0 M576.809 343.571 Q576.092 343.155 575.235 342.97 Q574.402 342.761 573.384 342.761 Q569.772 342.761 567.828 345.122 Q565.907 347.46 565.907 351.858 L565.907 365.516 L561.624 365.516 L561.624 339.59 L565.907 339.59 L565.907 343.618 Q567.249 341.257 569.402 340.122 Q571.555 338.965 574.634 338.965 Q575.073 338.965 575.606 339.034 Q576.138 339.081 576.786 339.196 L576.809 343.571 Z" fill="#000000" fill-rule="evenodd" fill-opacity="1" /><path clip-path="url(#clip140)" d="M 0 0 M593.059 352.483 Q587.897 352.483 585.907 353.664 Q583.916 354.844 583.916 357.692 Q583.916 359.96 585.397 361.303 Q586.902 362.622 589.471 362.622 Q593.013 362.622 595.143 360.122 Q597.295 357.599 597.295 353.432 L597.295 352.483 L593.059 352.483 M601.555 350.724 L601.555 365.516 L597.295 365.516 L597.295 361.581 Q595.837 363.942 593.661 365.076 Q591.485 366.187 588.337 366.187 Q584.356 366.187 581.995 363.965 Q579.657 361.719 579.657 357.969 Q579.657 353.594 582.573 351.372 Q585.513 349.15 591.323 349.15 L597.295 349.15 L597.295 348.733 Q597.295 345.794 595.351 344.196 Q593.43 342.576 589.934 342.576 Q587.712 342.576 585.606 343.108 Q583.499 343.641 581.555 344.706 L581.555 340.77 Q583.893 339.868 586.092 339.428 Q588.291 338.965 590.374 338.965 Q595.999 338.965 598.777 341.882 Q601.555 344.798 601.555 350.724 Z" fill="#000000" fill-rule="evenodd" fill-opacity="1" /><path clip-path="url(#clip140)" d="M 0 0 M621.115 367.923 Q619.309 372.553 617.596 373.965 Q615.883 375.377 613.013 375.377 L609.61 375.377 L609.61 371.812 L612.11 371.812 Q613.869 371.812 614.842 370.979 Q615.814 370.145 616.994 367.043 L617.758 365.099 L607.272 339.59 L611.786 339.59 L619.888 359.868 L627.99 339.59 L632.504 339.59 L621.115 367.923 Z" fill="#000000" fill-rule="evenodd" fill-opacity="1" /><path clip-path="url(#clip140)" d="M 0 0 M670.513 343.525 L670.513 329.497 L674.772 329.497 L674.772 365.516 L670.513 365.516 L670.513 361.627 Q669.17 363.942 667.11 365.076 Q665.073 366.187 662.203 366.187 Q657.503 366.187 654.541 362.437 Q651.601 358.687 651.601 352.576 Q651.601 346.465 654.541 342.715 Q657.503 338.965 662.203 338.965 Q665.073 338.965 667.11 340.099 Q669.17 341.21 670.513 343.525 M655.999 352.576 Q655.999 357.275 657.92 359.96 Q659.865 362.622 663.244 362.622 Q666.624 362.622 668.568 359.96 Q670.513 357.275 670.513 352.576 Q670.513 347.877 668.568 345.215 Q666.624 342.53 663.244 342.53 Q659.865 342.53 657.92 345.215 Q655.999 347.877 655.999 352.576 Z" fill="#000000" fill-rule="evenodd" fill-opacity="1" /><path clip-path="url(#clip140)" d="M 0 0 M684.101 343.988 L713.776 343.988 L713.776 347.877 L684.101 347.877 L684.101 343.988 M684.101 353.432 L713.776 353.432 L713.776 357.368 L684.101 357.368 L684.101 353.432 Z" fill="#000000" fill-rule="evenodd" fill-opacity="1" /><path clip-path="url(#clip140)" d="M 0 0 M724.679 361.581 L732.318 361.581 L732.318 335.215 L724.008 336.882 L724.008 332.622 L732.272 330.956 L736.947 330.956 L736.947 361.581 L744.586 361.581 L744.586 365.516 L724.679 365.516 L724.679 361.581 Z" fill="#000000" fill-rule="evenodd" fill-opacity="1" /><path clip-path="url(#clip140)" d="M 0 0 M764.609 346.372 Q761.461 346.372 759.609 348.525 Q757.781 350.678 757.781 354.428 Q757.781 358.155 759.609 360.331 Q761.461 362.483 764.609 362.483 Q767.758 362.483 769.586 360.331 Q771.438 358.155 771.438 354.428 Q771.438 350.678 769.586 348.525 Q767.758 346.372 764.609 346.372 M773.892 331.72 L773.892 335.979 Q772.132 335.146 770.327 334.706 Q768.545 334.266 766.785 334.266 Q762.156 334.266 759.702 337.391 Q757.271 340.516 756.924 346.835 Q758.29 344.821 760.35 343.757 Q762.41 342.669 764.887 342.669 Q770.095 342.669 773.105 345.84 Q776.137 348.988 776.137 354.428 Q776.137 359.752 772.989 362.969 Q769.841 366.187 764.609 366.187 Q758.614 366.187 755.443 361.604 Q752.271 356.997 752.271 348.27 Q752.271 340.076 756.16 335.215 Q760.049 330.331 766.6 330.331 Q768.359 330.331 770.142 330.678 Q771.947 331.025 773.892 331.72 Z" fill="#000000" fill-rule="evenodd" fill-opacity="1" /><polyline clip-path="url(#clip140)" style="stroke:#c271d2; stroke-width:4; stroke-opacity:1; fill:none" stroke-dasharray="16, 8, 2, 8, 2, 8" points="
  343.018,408.716 483.232,408.716 
  "/>
<path clip-path="url(#clip140)" d="M 0 0 M522.435 396.042 L516.092 413.241 L528.8 413.241 L522.435 396.042 M519.796 391.436 L525.097 391.436 L538.268 425.996 L533.407 425.996 L530.259 417.13 L514.68 417.13 L511.532 425.996 L506.602 425.996 L519.796 391.436 Z" fill="#000000" fill-rule="evenodd" fill-opacity="1" /><path clip-path="url(#clip140)" d="M 0 0 M558.152 404.051 Q557.435 403.635 556.578 403.45 Q555.745 403.241 554.726 403.241 Q551.115 403.241 549.171 405.602 Q547.249 407.94 547.249 412.338 L547.249 425.996 L542.967 425.996 L542.967 400.07 L547.249 400.07 L547.249 404.098 Q548.592 401.737 550.745 400.602 Q552.898 399.445 555.976 399.445 Q556.416 399.445 556.948 399.514 Q557.481 399.561 558.129 399.676 L558.152 404.051 Z" fill="#000000" fill-rule="evenodd" fill-opacity="1" /><path clip-path="url(#clip140)" d="M 0 0 M576.809 404.051 Q576.092 403.635 575.235 403.45 Q574.402 403.241 573.384 403.241 Q569.772 403.241 567.828 405.602 Q565.907 407.94 565.907 412.338 L565.907 425.996 L561.624 425.996 L561.624 400.07 L565.907 400.07 L565.907 404.098 Q567.249 401.737 569.402 400.602 Q571.555 399.445 574.634 399.445 Q575.073 399.445 575.606 399.514 Q576.138 399.561 576.786 399.676 L576.809 404.051 Z" fill="#000000" fill-rule="evenodd" fill-opacity="1" /><path clip-path="url(#clip140)" d="M 0 0 M593.059 412.963 Q587.897 412.963 585.907 414.144 Q583.916 415.324 583.916 418.172 Q583.916 420.44 585.397 421.783 Q586.902 423.102 589.471 423.102 Q593.013 423.102 595.143 420.602 Q597.295 418.079 597.295 413.912 L597.295 412.963 L593.059 412.963 M601.555 411.204 L601.555 425.996 L597.295 425.996 L597.295 422.061 Q595.837 424.422 593.661 425.556 Q591.485 426.667 588.337 426.667 Q584.356 426.667 581.995 424.445 Q579.657 422.199 579.657 418.449 Q579.657 414.074 582.573 411.852 Q585.513 409.63 591.323 409.63 L597.295 409.63 L597.295 409.213 Q597.295 406.274 595.351 404.676 Q593.43 403.056 589.934 403.056 Q587.712 403.056 585.606 403.588 Q583.499 404.121 581.555 405.186 L581.555 401.25 Q583.893 400.348 586.092 399.908 Q588.291 399.445 590.374 399.445 Q595.999 399.445 598.777 402.362 Q601.555 405.278 601.555 411.204 Z" fill="#000000" fill-rule="evenodd" fill-opacity="1" /><path clip-path="url(#clip140)" d="M 0 0 M621.115 428.403 Q619.309 433.033 617.596 434.445 Q615.883 435.857 613.013 435.857 L609.61 435.857 L609.61 432.292 L612.11 432.292 Q613.869 432.292 614.842 431.459 Q615.814 430.625 616.994 427.523 L617.758 425.579 L607.272 400.07 L611.786 400.07 L619.888 420.348 L627.99 400.07 L632.504 400.07 L621.115 428.403 Z" fill="#000000" fill-rule="evenodd" fill-opacity="1" /><path clip-path="url(#clip140)" d="M 0 0 M670.513 404.005 L670.513 389.977 L674.772 389.977 L674.772 425.996 L670.513 425.996 L670.513 422.107 Q669.17 424.422 667.11 425.556 Q665.073 426.667 662.203 426.667 Q657.503 426.667 654.541 422.917 Q651.601 419.167 651.601 413.056 Q651.601 406.945 654.541 403.195 Q657.503 399.445 662.203 399.445 Q665.073 399.445 667.11 400.579 Q669.17 401.69 670.513 404.005 M655.999 413.056 Q655.999 417.755 657.92 420.44 Q659.865 423.102 663.244 423.102 Q666.624 423.102 668.568 420.44 Q670.513 417.755 670.513 413.056 Q670.513 408.357 668.568 405.695 Q666.624 403.01 663.244 403.01 Q659.865 403.01 657.92 405.695 Q655.999 408.357 655.999 413.056 Z" fill="#000000" fill-rule="evenodd" fill-opacity="1" /><path clip-path="url(#clip140)" d="M 0 0 M684.101 404.468 L713.776 404.468 L713.776 408.357 L684.101 408.357 L684.101 404.468 M684.101 413.912 L713.776 413.912 L713.776 417.848 L684.101 417.848 L684.101 413.912 Z" fill="#000000" fill-rule="evenodd" fill-opacity="1" /><path clip-path="url(#clip140)" d="M 0 0 M727.897 422.061 L744.216 422.061 L744.216 425.996 L722.272 425.996 L722.272 422.061 Q724.934 419.306 729.517 414.676 Q734.123 410.024 735.304 408.681 Q737.549 406.158 738.429 404.422 Q739.332 402.663 739.332 400.973 Q739.332 398.218 737.387 396.482 Q735.466 394.746 732.364 394.746 Q730.165 394.746 727.711 395.51 Q725.281 396.274 722.503 397.825 L722.503 393.102 Q725.327 391.968 727.781 391.389 Q730.235 390.811 732.272 390.811 Q737.642 390.811 740.836 393.496 Q744.031 396.181 744.031 400.672 Q744.031 402.801 743.221 404.723 Q742.434 406.621 740.327 409.213 Q739.748 409.885 736.647 413.102 Q733.545 416.297 727.897 422.061 Z" fill="#000000" fill-rule="evenodd" fill-opacity="1" /><path clip-path="url(#clip140)" d="M 0 0 M754.077 391.436 L772.433 391.436 L772.433 395.371 L758.359 395.371 L758.359 403.843 Q759.378 403.496 760.396 403.334 Q761.415 403.149 762.433 403.149 Q768.22 403.149 771.6 406.32 Q774.98 409.491 774.98 414.908 Q774.98 420.486 771.507 423.588 Q768.035 426.667 761.716 426.667 Q759.54 426.667 757.271 426.297 Q755.026 425.926 752.619 425.186 L752.619 420.486 Q754.702 421.621 756.924 422.176 Q759.146 422.732 761.623 422.732 Q765.628 422.732 767.966 420.625 Q770.304 418.519 770.304 414.908 Q770.304 411.297 767.966 409.19 Q765.628 407.084 761.623 407.084 Q759.748 407.084 757.873 407.5 Q756.021 407.917 754.077 408.797 L754.077 391.436 Z" fill="#000000" fill-rule="evenodd" fill-opacity="1" /><polyline clip-path="url(#clip140)" style="stroke:#ac8d18; stroke-width:4; stroke-opacity:1; fill:none" stroke-dasharray="16, 8, 2, 8, 2, 8" points="
  343.018,469.196 483.232,469.196 
  "/>
<path clip-path="url(#clip140)" d="M 0 0 M522.435 456.522 L516.092 473.721 L528.8 473.721 L522.435 456.522 M519.796 451.916 L525.097 451.916 L538.268 486.476 L533.407 486.476 L530.259 477.61 L514.68 477.61 L511.532 486.476 L506.602 486.476 L519.796 451.916 Z" fill="#000000" fill-rule="evenodd" fill-opacity="1" /><path clip-path="url(#clip140)" d="M 0 0 M558.152 464.531 Q557.435 464.115 556.578 463.93 Q555.745 463.721 554.726 463.721 Q551.115 463.721 549.171 466.082 Q547.249 468.42 547.249 472.818 L547.249 486.476 L542.967 486.476 L542.967 460.55 L547.249 460.55 L547.249 464.578 Q548.592 462.217 550.745 461.082 Q552.898 459.925 555.976 459.925 Q556.416 459.925 556.948 459.994 Q557.481 460.041 558.129 460.156 L558.152 464.531 Z" fill="#000000" fill-rule="evenodd" fill-opacity="1" /><path clip-path="url(#clip140)" d="M 0 0 M576.809 464.531 Q576.092 464.115 575.235 463.93 Q574.402 463.721 573.384 463.721 Q569.772 463.721 567.828 466.082 Q565.907 468.42 565.907 472.818 L565.907 486.476 L561.624 486.476 L561.624 460.55 L565.907 460.55 L565.907 464.578 Q567.249 462.217 569.402 461.082 Q571.555 459.925 574.634 459.925 Q575.073 459.925 575.606 459.994 Q576.138 460.041 576.786 460.156 L576.809 464.531 Z" fill="#000000" fill-rule="evenodd" fill-opacity="1" /><path clip-path="url(#clip140)" d="M 0 0 M593.059 473.443 Q587.897 473.443 585.907 474.624 Q583.916 475.804 583.916 478.652 Q583.916 480.92 585.397 482.263 Q586.902 483.582 589.471 483.582 Q593.013 483.582 595.143 481.082 Q597.295 478.559 597.295 474.392 L597.295 473.443 L593.059 473.443 M601.555 471.684 L601.555 486.476 L597.295 486.476 L597.295 482.541 Q595.837 484.902 593.661 486.036 Q591.485 487.147 588.337 487.147 Q584.356 487.147 581.995 484.925 Q579.657 482.679 579.657 478.929 Q579.657 474.554 582.573 472.332 Q585.513 470.11 591.323 470.11 L597.295 470.11 L597.295 469.693 Q597.295 466.754 595.351 465.156 Q593.43 463.536 589.934 463.536 Q587.712 463.536 585.606 464.068 Q583.499 464.601 581.555 465.666 L581.555 461.73 Q583.893 460.828 586.092 460.388 Q588.291 459.925 590.374 459.925 Q595.999 459.925 598.777 462.842 Q601.555 465.758 601.555 471.684 Z" fill="#000000" fill-rule="evenodd" fill-opacity="1" /><path clip-path="url(#clip140)" d="M 0 0 M621.115 488.883 Q619.309 493.513 617.596 494.925 Q615.883 496.337 613.013 496.337 L609.61 496.337 L609.61 492.772 L612.11 492.772 Q613.869 492.772 614.842 491.939 Q615.814 491.105 616.994 488.003 L617.758 486.059 L607.272 460.55 L611.786 460.55 L619.888 480.828 L627.99 460.55 L632.504 460.55 L621.115 488.883 Z" fill="#000000" fill-rule="evenodd" fill-opacity="1" /><path clip-path="url(#clip140)" d="M 0 0 M670.513 464.485 L670.513 450.457 L674.772 450.457 L674.772 486.476 L670.513 486.476 L670.513 482.587 Q669.17 484.902 667.11 486.036 Q665.073 487.147 662.203 487.147 Q657.503 487.147 654.541 483.397 Q651.601 479.647 651.601 473.536 Q651.601 467.425 654.541 463.675 Q657.503 459.925 662.203 459.925 Q665.073 459.925 667.11 461.059 Q669.17 462.17 670.513 464.485 M655.999 473.536 Q655.999 478.235 657.92 480.92 Q659.865 483.582 663.244 483.582 Q666.624 483.582 668.568 480.92 Q670.513 478.235 670.513 473.536 Q670.513 468.837 668.568 466.175 Q666.624 463.49 663.244 463.49 Q659.865 463.49 657.92 466.175 Q655.999 468.837 655.999 473.536 Z" fill="#000000" fill-rule="evenodd" fill-opacity="1" /><path clip-path="url(#clip140)" d="M 0 0 M684.101 464.948 L713.776 464.948 L713.776 468.837 L684.101 468.837 L684.101 464.948 M684.101 474.392 L713.776 474.392 L713.776 478.328 L684.101 478.328 L684.101 474.392 Z" fill="#000000" fill-rule="evenodd" fill-opacity="1" /><path clip-path="url(#clip140)" d="M 0 0 M738.035 467.842 Q741.392 468.559 743.267 470.828 Q745.165 473.096 745.165 476.429 Q745.165 481.545 741.647 484.346 Q738.128 487.147 731.647 487.147 Q729.471 487.147 727.156 486.707 Q724.864 486.291 722.411 485.434 L722.411 480.92 Q724.355 482.054 726.67 482.633 Q728.985 483.212 731.508 483.212 Q735.906 483.212 738.197 481.476 Q740.512 479.74 740.512 476.429 Q740.512 473.374 738.36 471.661 Q736.23 469.925 732.41 469.925 L728.383 469.925 L728.383 466.082 L732.596 466.082 Q736.045 466.082 737.873 464.717 Q739.702 463.328 739.702 460.735 Q739.702 458.073 737.804 456.661 Q735.929 455.226 732.41 455.226 Q730.489 455.226 728.29 455.643 Q726.091 456.059 723.452 456.939 L723.452 452.772 Q726.114 452.031 728.429 451.661 Q730.767 451.291 732.827 451.291 Q738.151 451.291 741.253 453.721 Q744.355 456.129 744.355 460.249 Q744.355 463.119 742.711 465.11 Q741.068 467.078 738.035 467.842 Z" fill="#000000" fill-rule="evenodd" fill-opacity="1" /><path clip-path="url(#clip140)" d="M 0 0 M764.609 467.332 Q761.461 467.332 759.609 469.485 Q757.781 471.638 757.781 475.388 Q757.781 479.115 759.609 481.291 Q761.461 483.443 764.609 483.443 Q767.758 483.443 769.586 481.291 Q771.438 479.115 771.438 475.388 Q771.438 471.638 769.586 469.485 Q767.758 467.332 764.609 467.332 M773.892 452.68 L773.892 456.939 Q772.132 456.106 770.327 455.666 Q768.545 455.226 766.785 455.226 Q762.156 455.226 759.702 458.351 Q757.271 461.476 756.924 467.795 Q758.29 465.781 760.35 464.717 Q762.41 463.629 764.887 463.629 Q770.095 463.629 773.105 466.8 Q776.137 469.948 776.137 475.388 Q776.137 480.712 772.989 483.929 Q769.841 487.147 764.609 487.147 Q758.614 487.147 755.443 482.564 Q752.271 477.957 752.271 469.23 Q752.271 461.036 756.16 456.175 Q760.049 451.291 766.6 451.291 Q768.359 451.291 770.142 451.638 Q771.947 451.985 773.892 452.68 Z" fill="#000000" fill-rule="evenodd" fill-opacity="1" /><polyline clip-path="url(#clip140)" style="stroke:#00a9ad; stroke-width:4; stroke-opacity:1; fill:none" points="
  343.018,529.676 483.232,529.676 
  "/>
<path clip-path="url(#clip140)" d="M 0 0 M534.472 515.058 L534.472 519.988 Q532.111 517.789 529.425 516.701 Q526.763 515.613 523.754 515.613 Q517.828 515.613 514.68 519.248 Q511.532 522.859 511.532 529.71 Q511.532 536.539 514.68 540.173 Q517.828 543.784 523.754 543.784 Q526.763 543.784 529.425 542.696 Q532.111 541.609 534.472 539.409 L534.472 544.294 Q532.018 545.96 529.263 546.794 Q526.532 547.627 523.476 547.627 Q515.629 547.627 511.115 542.835 Q506.602 538.021 506.602 529.71 Q506.602 521.377 511.115 516.586 Q515.629 511.771 523.476 511.771 Q526.578 511.771 529.31 512.604 Q532.064 513.414 534.472 515.058 Z" fill="#000000" fill-rule="evenodd" fill-opacity="1" /><path clip-path="url(#clip140)" d="M 0 0 M541.069 536.724 L541.069 521.03 L545.328 521.03 L545.328 536.562 Q545.328 540.243 546.763 542.095 Q548.199 543.923 551.069 543.923 Q554.518 543.923 556.509 541.724 Q558.523 539.525 558.523 535.729 L558.523 521.03 L562.782 521.03 L562.782 546.956 L558.523 546.956 L558.523 542.974 Q556.972 545.335 554.911 546.493 Q552.874 547.627 550.166 547.627 Q545.699 547.627 543.384 544.849 Q541.069 542.071 541.069 536.724 M551.786 520.405 L551.786 520.405 Z" fill="#000000" fill-rule="evenodd" fill-opacity="1" /><path clip-path="url(#clip140)" d="M 0 0 M583.291 517.002 L576.948 534.201 L589.657 534.201 L583.291 517.002 M580.652 512.396 L585.953 512.396 L599.124 546.956 L594.263 546.956 L591.115 538.09 L575.536 538.09 L572.388 546.956 L567.458 546.956 L580.652 512.396 Z" fill="#000000" fill-rule="evenodd" fill-opacity="1" /><path clip-path="url(#clip140)" d="M 0 0 M619.008 525.011 Q618.291 524.595 617.434 524.41 Q616.601 524.201 615.582 524.201 Q611.971 524.201 610.027 526.562 Q608.106 528.9 608.106 533.298 L608.106 546.956 L603.823 546.956 L603.823 521.03 L608.106 521.03 L608.106 525.058 Q609.448 522.697 611.601 521.562 Q613.754 520.405 616.832 520.405 Q617.272 520.405 617.805 520.474 Q618.337 520.521 618.985 520.636 L619.008 525.011 Z" fill="#000000" fill-rule="evenodd" fill-opacity="1" /><path clip-path="url(#clip140)" d="M 0 0 M637.666 525.011 Q636.948 524.595 636.092 524.41 Q635.258 524.201 634.24 524.201 Q630.629 524.201 628.684 526.562 Q626.763 528.9 626.763 533.298 L626.763 546.956 L622.481 546.956 L622.481 521.03 L626.763 521.03 L626.763 525.058 Q628.105 522.697 630.258 521.562 Q632.411 520.405 635.49 520.405 Q635.93 520.405 636.462 520.474 Q636.994 520.521 637.642 520.636 L637.666 525.011 Z" fill="#000000" fill-rule="evenodd" fill-opacity="1" /><path clip-path="url(#clip140)" d="M 0 0 M653.916 533.923 Q648.754 533.923 646.763 535.104 Q644.772 536.284 644.772 539.132 Q644.772 541.4 646.254 542.743 Q647.758 544.062 650.328 544.062 Q653.869 544.062 655.999 541.562 Q658.152 539.039 658.152 534.872 L658.152 533.923 L653.916 533.923 M662.411 532.164 L662.411 546.956 L658.152 546.956 L658.152 543.021 Q656.693 545.382 654.517 546.516 Q652.341 547.627 649.193 547.627 Q645.212 547.627 642.851 545.405 Q640.513 543.159 640.513 539.409 Q640.513 535.034 643.429 532.812 Q646.369 530.59 652.179 530.59 L658.152 530.59 L658.152 530.173 Q658.152 527.234 656.207 525.636 Q654.286 524.016 650.791 524.016 Q648.568 524.016 646.462 524.548 Q644.355 525.081 642.411 526.146 L642.411 522.21 Q644.749 521.308 646.948 520.868 Q649.147 520.405 651.23 520.405 Q656.855 520.405 659.633 523.322 Q662.411 526.238 662.411 532.164 Z" fill="#000000" fill-rule="evenodd" fill-opacity="1" /><path clip-path="url(#clip140)" d="M 0 0 M681.971 549.363 Q680.165 553.993 678.452 555.405 Q676.739 556.817 673.869 556.817 L670.466 556.817 L670.466 553.252 L672.966 553.252 Q674.726 553.252 675.698 552.419 Q676.67 551.585 677.851 548.483 L678.614 546.539 L668.128 521.03 L672.642 521.03 L680.744 541.308 L688.846 521.03 L693.36 521.03 L681.971 549.363 Z" fill="#000000" fill-rule="evenodd" fill-opacity="1" /><path clip-path="url(#clip140)" d="M 0 0 M731.369 524.965 L731.369 510.937 L735.628 510.937 L735.628 546.956 L731.369 546.956 L731.369 543.067 Q730.026 545.382 727.966 546.516 Q725.929 547.627 723.059 547.627 Q718.36 547.627 715.397 543.877 Q712.457 540.127 712.457 534.016 Q712.457 527.905 715.397 524.155 Q718.36 520.405 723.059 520.405 Q725.929 520.405 727.966 521.539 Q730.026 522.65 731.369 524.965 M716.855 534.016 Q716.855 538.715 718.776 541.4 Q720.721 544.062 724.1 544.062 Q727.48 544.062 729.424 541.4 Q731.369 538.715 731.369 534.016 Q731.369 529.317 729.424 526.655 Q727.48 523.97 724.1 523.97 Q720.721 523.97 718.776 526.655 Q716.855 529.317 716.855 534.016 Z" fill="#000000" fill-rule="evenodd" fill-opacity="1" /><path clip-path="url(#clip140)" d="M 0 0 M744.957 525.428 L774.632 525.428 L774.632 529.317 L744.957 529.317 L744.957 525.428 M744.957 534.872 L774.632 534.872 L774.632 538.808 L744.957 538.808 L744.957 534.872 Z" fill="#000000" fill-rule="evenodd" fill-opacity="1" /><path clip-path="url(#clip140)" d="M 0 0 M797.572 516.47 L785.767 534.919 L797.572 534.919 L797.572 516.47 M796.345 512.396 L802.225 512.396 L802.225 534.919 L807.155 534.919 L807.155 538.808 L802.225 538.808 L802.225 546.956 L797.572 546.956 L797.572 538.808 L781.97 538.808 L781.97 534.294 L796.345 512.396 Z" fill="#000000" fill-rule="evenodd" fill-opacity="1" /><polyline clip-path="url(#clip140)" style="stroke:#ed5d92; stroke-width:4; stroke-opacity:1; fill:none" points="
  343.018,590.156 483.232,590.156 
  "/>
<path clip-path="url(#clip140)" d="M 0 0 M534.472 575.538 L534.472 580.468 Q532.111 578.269 529.425 577.181 Q526.763 576.093 523.754 576.093 Q517.828 576.093 514.68 579.728 Q511.532 583.339 511.532 590.19 Q511.532 597.019 514.68 600.653 Q517.828 604.264 523.754 604.264 Q526.763 604.264 529.425 603.176 Q532.111 602.089 534.472 599.889 L534.472 604.774 Q532.018 606.44 529.263 607.274 Q526.532 608.107 523.476 608.107 Q515.629 608.107 511.115 603.315 Q506.602 598.501 506.602 590.19 Q506.602 581.857 511.115 577.066 Q515.629 572.251 523.476 572.251 Q526.578 572.251 529.31 573.084 Q532.064 573.894 534.472 575.538 Z" fill="#000000" fill-rule="evenodd" fill-opacity="1" /><path clip-path="url(#clip140)" d="M 0 0 M541.069 597.204 L541.069 581.51 L545.328 581.51 L545.328 597.042 Q545.328 600.723 546.763 602.575 Q548.199 604.403 551.069 604.403 Q554.518 604.403 556.509 602.204 Q558.523 600.005 558.523 596.209 L558.523 581.51 L562.782 581.51 L562.782 607.436 L558.523 607.436 L558.523 603.454 Q556.972 605.815 554.911 606.973 Q552.874 608.107 550.166 608.107 Q545.699 608.107 543.384 605.329 Q541.069 602.551 541.069 597.204 M551.786 580.885 L551.786 580.885 Z" fill="#000000" fill-rule="evenodd" fill-opacity="1" /><path clip-path="url(#clip140)" d="M 0 0 M583.291 577.482 L576.948 594.681 L589.657 594.681 L583.291 577.482 M580.652 572.876 L585.953 572.876 L599.124 607.436 L594.263 607.436 L591.115 598.57 L575.536 598.57 L572.388 607.436 L567.458 607.436 L580.652 572.876 Z" fill="#000000" fill-rule="evenodd" fill-opacity="1" /><path clip-path="url(#clip140)" d="M 0 0 M619.008 585.491 Q618.291 585.075 617.434 584.89 Q616.601 584.681 615.582 584.681 Q611.971 584.681 610.027 587.042 Q608.106 589.38 608.106 593.778 L608.106 607.436 L603.823 607.436 L603.823 581.51 L608.106 581.51 L608.106 585.538 Q609.448 583.177 611.601 582.042 Q613.754 580.885 616.832 580.885 Q617.272 580.885 617.805 580.954 Q618.337 581.001 618.985 581.116 L619.008 585.491 Z" fill="#000000" fill-rule="evenodd" fill-opacity="1" /><path clip-path="url(#clip140)" d="M 0 0 M637.666 585.491 Q636.948 585.075 636.092 584.89 Q635.258 584.681 634.24 584.681 Q630.629 584.681 628.684 587.042 Q626.763 589.38 626.763 593.778 L626.763 607.436 L622.481 607.436 L622.481 581.51 L626.763 581.51 L626.763 585.538 Q628.105 583.177 630.258 582.042 Q632.411 580.885 635.49 580.885 Q635.93 580.885 636.462 580.954 Q636.994 581.001 637.642 581.116 L637.666 585.491 Z" fill="#000000" fill-rule="evenodd" fill-opacity="1" /><path clip-path="url(#clip140)" d="M 0 0 M653.916 594.403 Q648.754 594.403 646.763 595.584 Q644.772 596.764 644.772 599.612 Q644.772 601.88 646.254 603.223 Q647.758 604.542 650.328 604.542 Q653.869 604.542 655.999 602.042 Q658.152 599.519 658.152 595.352 L658.152 594.403 L653.916 594.403 M662.411 592.644 L662.411 607.436 L658.152 607.436 L658.152 603.501 Q656.693 605.862 654.517 606.996 Q652.341 608.107 649.193 608.107 Q645.212 608.107 642.851 605.885 Q640.513 603.639 640.513 599.889 Q640.513 595.514 643.429 593.292 Q646.369 591.07 652.179 591.07 L658.152 591.07 L658.152 590.653 Q658.152 587.714 656.207 586.116 Q654.286 584.496 650.791 584.496 Q648.568 584.496 646.462 585.028 Q644.355 585.561 642.411 586.626 L642.411 582.69 Q644.749 581.788 646.948 581.348 Q649.147 580.885 651.23 580.885 Q656.855 580.885 659.633 583.802 Q662.411 586.718 662.411 592.644 Z" fill="#000000" fill-rule="evenodd" fill-opacity="1" /><path clip-path="url(#clip140)" d="M 0 0 M681.971 609.843 Q680.165 614.473 678.452 615.885 Q676.739 617.297 673.869 617.297 L670.466 617.297 L670.466 613.732 L672.966 613.732 Q674.726 613.732 675.698 612.899 Q676.67 612.065 677.851 608.963 L678.614 607.019 L668.128 581.51 L672.642 581.51 L680.744 601.788 L688.846 581.51 L693.36 581.51 L681.971 609.843 Z" fill="#000000" fill-rule="evenodd" fill-opacity="1" /><path clip-path="url(#clip140)" d="M 0 0 M731.369 585.445 L731.369 571.417 L735.628 571.417 L735.628 607.436 L731.369 607.436 L731.369 603.547 Q730.026 605.862 727.966 606.996 Q725.929 608.107 723.059 608.107 Q718.36 608.107 715.397 604.357 Q712.457 600.607 712.457 594.496 Q712.457 588.385 715.397 584.635 Q718.36 580.885 723.059 580.885 Q725.929 580.885 727.966 582.019 Q730.026 583.13 731.369 585.445 M716.855 594.496 Q716.855 599.195 718.776 601.88 Q720.721 604.542 724.1 604.542 Q727.48 604.542 729.424 601.88 Q731.369 599.195 731.369 594.496 Q731.369 589.797 729.424 587.135 Q727.48 584.45 724.1 584.45 Q720.721 584.45 718.776 587.135 Q716.855 589.797 716.855 594.496 Z" fill="#000000" fill-rule="evenodd" fill-opacity="1" /><path clip-path="url(#clip140)" d="M 0 0 M744.957 585.908 L774.632 585.908 L774.632 589.797 L744.957 589.797 L744.957 585.908 M744.957 595.352 L774.632 595.352 L774.632 599.288 L744.957 599.288 L744.957 595.352 Z" fill="#000000" fill-rule="evenodd" fill-opacity="1" /><path clip-path="url(#clip140)" d="M 0 0 M784.864 606.718 L784.864 602.459 Q786.623 603.292 788.429 603.732 Q790.234 604.172 791.97 604.172 Q796.6 604.172 799.03 601.07 Q801.484 597.945 801.831 591.602 Q800.489 593.593 798.429 594.658 Q796.368 595.723 793.868 595.723 Q788.683 595.723 785.651 592.598 Q782.642 589.45 782.642 584.01 Q782.642 578.686 785.79 575.468 Q788.938 572.251 794.169 572.251 Q800.165 572.251 803.313 576.857 Q806.484 581.44 806.484 590.19 Q806.484 598.362 802.595 603.246 Q798.73 608.107 792.179 608.107 Q790.419 608.107 788.614 607.76 Q786.808 607.413 784.864 606.718 M794.169 592.065 Q797.318 592.065 799.146 589.913 Q800.998 587.76 800.998 584.01 Q800.998 580.283 799.146 578.13 Q797.318 575.954 794.169 575.954 Q791.021 575.954 789.169 578.13 Q787.341 580.283 787.341 584.01 Q787.341 587.76 789.169 589.913 Q791.021 592.065 794.169 592.065 Z" fill="#000000" fill-rule="evenodd" fill-opacity="1" /><polyline clip-path="url(#clip140)" style="stroke:#c68125; stroke-width:4; stroke-opacity:1; fill:none" points="
  343.018,650.636 483.232,650.636 
  "/>
<path clip-path="url(#clip140)" d="M 0 0 M534.472 636.018 L534.472 640.948 Q532.111 638.749 529.425 637.661 Q526.763 636.573 523.754 636.573 Q517.828 636.573 514.68 640.208 Q511.532 643.819 511.532 650.67 Q511.532 657.499 514.68 661.133 Q517.828 664.744 523.754 664.744 Q526.763 664.744 529.425 663.656 Q532.111 662.569 534.472 660.369 L534.472 665.254 Q532.018 666.92 529.263 667.754 Q526.532 668.587 523.476 668.587 Q515.629 668.587 511.115 663.795 Q506.602 658.981 506.602 650.67 Q506.602 642.337 511.115 637.546 Q515.629 632.731 523.476 632.731 Q526.578 632.731 529.31 633.564 Q532.064 634.374 534.472 636.018 Z" fill="#000000" fill-rule="evenodd" fill-opacity="1" /><path clip-path="url(#clip140)" d="M 0 0 M541.069 657.684 L541.069 641.99 L545.328 641.99 L545.328 657.522 Q545.328 661.203 546.763 663.055 Q548.199 664.883 551.069 664.883 Q554.518 664.883 556.509 662.684 Q558.523 660.485 558.523 656.689 L558.523 641.99 L562.782 641.99 L562.782 667.916 L558.523 667.916 L558.523 663.934 Q556.972 666.295 554.911 667.453 Q552.874 668.587 550.166 668.587 Q545.699 668.587 543.384 665.809 Q541.069 663.031 541.069 657.684 M551.786 641.365 L551.786 641.365 Z" fill="#000000" fill-rule="evenodd" fill-opacity="1" /><path clip-path="url(#clip140)" d="M 0 0 M583.291 637.962 L576.948 655.161 L589.657 655.161 L583.291 637.962 M580.652 633.356 L585.953 633.356 L599.124 667.916 L594.263 667.916 L591.115 659.05 L575.536 659.05 L572.388 667.916 L567.458 667.916 L580.652 633.356 Z" fill="#000000" fill-rule="evenodd" fill-opacity="1" /><path clip-path="url(#clip140)" d="M 0 0 M619.008 645.971 Q618.291 645.555 617.434 645.37 Q616.601 645.161 615.582 645.161 Q611.971 645.161 610.027 647.522 Q608.106 649.86 608.106 654.258 L608.106 667.916 L603.823 667.916 L603.823 641.99 L608.106 641.99 L608.106 646.018 Q609.448 643.657 611.601 642.522 Q613.754 641.365 616.832 641.365 Q617.272 641.365 617.805 641.434 Q618.337 641.481 618.985 641.596 L619.008 645.971 Z" fill="#000000" fill-rule="evenodd" fill-opacity="1" /><path clip-path="url(#clip140)" d="M 0 0 M637.666 645.971 Q636.948 645.555 636.092 645.37 Q635.258 645.161 634.24 645.161 Q630.629 645.161 628.684 647.522 Q626.763 649.86 626.763 654.258 L626.763 667.916 L622.481 667.916 L622.481 641.99 L626.763 641.99 L626.763 646.018 Q628.105 643.657 630.258 642.522 Q632.411 641.365 635.49 641.365 Q635.93 641.365 636.462 641.434 Q636.994 641.481 637.642 641.596 L637.666 645.971 Z" fill="#000000" fill-rule="evenodd" fill-opacity="1" /><path clip-path="url(#clip140)" d="M 0 0 M653.916 654.883 Q648.754 654.883 646.763 656.064 Q644.772 657.244 644.772 660.092 Q644.772 662.36 646.254 663.703 Q647.758 665.022 650.328 665.022 Q653.869 665.022 655.999 662.522 Q658.152 659.999 658.152 655.832 L658.152 654.883 L653.916 654.883 M662.411 653.124 L662.411 667.916 L658.152 667.916 L658.152 663.981 Q656.693 666.342 654.517 667.476 Q652.341 668.587 649.193 668.587 Q645.212 668.587 642.851 666.365 Q640.513 664.119 640.513 660.369 Q640.513 655.994 643.429 653.772 Q646.369 651.55 652.179 651.55 L658.152 651.55 L658.152 651.133 Q658.152 648.194 656.207 646.596 Q654.286 644.976 650.791 644.976 Q648.568 644.976 646.462 645.508 Q644.355 646.041 642.411 647.106 L642.411 643.17 Q644.749 642.268 646.948 641.828 Q649.147 641.365 651.23 641.365 Q656.855 641.365 659.633 644.282 Q662.411 647.198 662.411 653.124 Z" fill="#000000" fill-rule="evenodd" fill-opacity="1" /><path clip-path="url(#clip140)" d="M 0 0 M681.971 670.323 Q680.165 674.953 678.452 676.365 Q676.739 677.777 673.869 677.777 L670.466 677.777 L670.466 674.212 L672.966 674.212 Q674.726 674.212 675.698 673.379 Q676.67 672.545 677.851 669.443 L678.614 667.499 L668.128 641.99 L672.642 641.99 L680.744 662.268 L688.846 641.99 L693.36 641.99 L681.971 670.323 Z" fill="#000000" fill-rule="evenodd" fill-opacity="1" /><path clip-path="url(#clip140)" d="M 0 0 M731.369 645.925 L731.369 631.897 L735.628 631.897 L735.628 667.916 L731.369 667.916 L731.369 664.027 Q730.026 666.342 727.966 667.476 Q725.929 668.587 723.059 668.587 Q718.36 668.587 715.397 664.837 Q712.457 661.087 712.457 654.976 Q712.457 648.865 715.397 645.115 Q718.36 641.365 723.059 641.365 Q725.929 641.365 727.966 642.499 Q730.026 643.61 731.369 645.925 M716.855 654.976 Q716.855 659.675 718.776 662.36 Q720.721 665.022 724.1 665.022 Q727.48 665.022 729.424 662.36 Q731.369 659.675 731.369 654.976 Q731.369 650.277 729.424 647.615 Q727.48 644.93 724.1 644.93 Q720.721 644.93 718.776 647.615 Q716.855 650.277 716.855 654.976 Z" fill="#000000" fill-rule="evenodd" fill-opacity="1" /><path clip-path="url(#clip140)" d="M 0 0 M744.957 646.388 L774.632 646.388 L774.632 650.277 L744.957 650.277 L744.957 646.388 M744.957 655.832 L774.632 655.832 L774.632 659.768 L744.957 659.768 L744.957 655.832 Z" fill="#000000" fill-rule="evenodd" fill-opacity="1" /><path clip-path="url(#clip140)" d="M 0 0 M785.535 663.981 L793.174 663.981 L793.174 637.615 L784.864 639.282 L784.864 635.022 L793.128 633.356 L797.804 633.356 L797.804 663.981 L805.442 663.981 L805.442 667.916 L785.535 667.916 L785.535 663.981 Z" fill="#000000" fill-rule="evenodd" fill-opacity="1" /><path clip-path="url(#clip140)" d="M 0 0 M825.466 648.772 Q822.317 648.772 820.466 650.925 Q818.637 653.078 818.637 656.828 Q818.637 660.555 820.466 662.731 Q822.317 664.883 825.466 664.883 Q828.614 664.883 830.442 662.731 Q832.294 660.555 832.294 656.828 Q832.294 653.078 830.442 650.925 Q828.614 648.772 825.466 648.772 M834.748 634.12 L834.748 638.379 Q832.989 637.546 831.183 637.106 Q829.401 636.666 827.641 636.666 Q823.012 636.666 820.558 639.791 Q818.128 642.916 817.78 649.235 Q819.146 647.221 821.206 646.157 Q823.266 645.069 825.743 645.069 Q830.952 645.069 833.961 648.24 Q836.993 651.388 836.993 656.828 Q836.993 662.152 833.845 665.369 Q830.697 668.587 825.466 668.587 Q819.47 668.587 816.299 664.004 Q813.128 659.397 813.128 650.67 Q813.128 642.476 817.017 637.615 Q820.905 632.731 827.456 632.731 Q829.216 632.731 830.998 633.078 Q832.803 633.425 834.748 634.12 Z" fill="#000000" fill-rule="evenodd" fill-opacity="1" /><polyline clip-path="url(#clip140)" style="stroke:#00a98d; stroke-width:4; stroke-opacity:1; fill:none" points="
  343.018,711.116 483.232,711.116 
  "/>
<path clip-path="url(#clip140)" d="M 0 0 M534.472 696.498 L534.472 701.428 Q532.111 699.229 529.425 698.141 Q526.763 697.053 523.754 697.053 Q517.828 697.053 514.68 700.688 Q511.532 704.299 511.532 711.15 Q511.532 717.979 514.68 721.613 Q517.828 725.224 523.754 725.224 Q526.763 725.224 529.425 724.136 Q532.111 723.049 534.472 720.849 L534.472 725.734 Q532.018 727.4 529.263 728.234 Q526.532 729.067 523.476 729.067 Q515.629 729.067 511.115 724.275 Q506.602 719.461 506.602 711.15 Q506.602 702.817 511.115 698.026 Q515.629 693.211 523.476 693.211 Q526.578 693.211 529.31 694.044 Q532.064 694.854 534.472 696.498 Z" fill="#000000" fill-rule="evenodd" fill-opacity="1" /><path clip-path="url(#clip140)" d="M 0 0 M541.069 718.164 L541.069 702.47 L545.328 702.47 L545.328 718.002 Q545.328 721.683 546.763 723.535 Q548.199 725.363 551.069 725.363 Q554.518 725.363 556.509 723.164 Q558.523 720.965 558.523 717.169 L558.523 702.47 L562.782 702.47 L562.782 728.396 L558.523 728.396 L558.523 724.414 Q556.972 726.775 554.911 727.933 Q552.874 729.067 550.166 729.067 Q545.699 729.067 543.384 726.289 Q541.069 723.511 541.069 718.164 M551.786 701.845 L551.786 701.845 Z" fill="#000000" fill-rule="evenodd" fill-opacity="1" /><path clip-path="url(#clip140)" d="M 0 0 M583.291 698.442 L576.948 715.641 L589.657 715.641 L583.291 698.442 M580.652 693.836 L585.953 693.836 L599.124 728.396 L594.263 728.396 L591.115 719.53 L575.536 719.53 L572.388 728.396 L567.458 728.396 L580.652 693.836 Z" fill="#000000" fill-rule="evenodd" fill-opacity="1" /><path clip-path="url(#clip140)" d="M 0 0 M619.008 706.451 Q618.291 706.035 617.434 705.85 Q616.601 705.641 615.582 705.641 Q611.971 705.641 610.027 708.002 Q608.106 710.34 608.106 714.738 L608.106 728.396 L603.823 728.396 L603.823 702.47 L608.106 702.47 L608.106 706.498 Q609.448 704.137 611.601 703.002 Q613.754 701.845 616.832 701.845 Q617.272 701.845 617.805 701.914 Q618.337 701.961 618.985 702.076 L619.008 706.451 Z" fill="#000000" fill-rule="evenodd" fill-opacity="1" /><path clip-path="url(#clip140)" d="M 0 0 M637.666 706.451 Q636.948 706.035 636.092 705.85 Q635.258 705.641 634.24 705.641 Q630.629 705.641 628.684 708.002 Q626.763 710.34 626.763 714.738 L626.763 728.396 L622.481 728.396 L622.481 702.47 L626.763 702.47 L626.763 706.498 Q628.105 704.137 630.258 703.002 Q632.411 701.845 635.49 701.845 Q635.93 701.845 636.462 701.914 Q636.994 701.961 637.642 702.076 L637.666 706.451 Z" fill="#000000" fill-rule="evenodd" fill-opacity="1" /><path clip-path="url(#clip140)" d="M 0 0 M653.916 715.363 Q648.754 715.363 646.763 716.544 Q644.772 717.724 644.772 720.572 Q644.772 722.84 646.254 724.183 Q647.758 725.502 650.328 725.502 Q653.869 725.502 655.999 723.002 Q658.152 720.479 658.152 716.312 L658.152 715.363 L653.916 715.363 M662.411 713.604 L662.411 728.396 L658.152 728.396 L658.152 724.461 Q656.693 726.822 654.517 727.956 Q652.341 729.067 649.193 729.067 Q645.212 729.067 642.851 726.845 Q640.513 724.599 640.513 720.849 Q640.513 716.474 643.429 714.252 Q646.369 712.03 652.179 712.03 L658.152 712.03 L658.152 711.613 Q658.152 708.674 656.207 707.076 Q654.286 705.456 650.791 705.456 Q648.568 705.456 646.462 705.988 Q644.355 706.521 642.411 707.586 L642.411 703.65 Q644.749 702.748 646.948 702.308 Q649.147 701.845 651.23 701.845 Q656.855 701.845 659.633 704.762 Q662.411 707.678 662.411 713.604 Z" fill="#000000" fill-rule="evenodd" fill-opacity="1" /><path clip-path="url(#clip140)" d="M 0 0 M681.971 730.803 Q680.165 735.433 678.452 736.845 Q676.739 738.257 673.869 738.257 L670.466 738.257 L670.466 734.692 L672.966 734.692 Q674.726 734.692 675.698 733.859 Q676.67 733.025 677.851 729.923 L678.614 727.979 L668.128 702.47 L672.642 702.47 L680.744 722.748 L688.846 702.47 L693.36 702.47 L681.971 730.803 Z" fill="#000000" fill-rule="evenodd" fill-opacity="1" /><path clip-path="url(#clip140)" d="M 0 0 M731.369 706.405 L731.369 692.377 L735.628 692.377 L735.628 728.396 L731.369 728.396 L731.369 724.507 Q730.026 726.822 727.966 727.956 Q725.929 729.067 723.059 729.067 Q718.36 729.067 715.397 725.317 Q712.457 721.567 712.457 715.456 Q712.457 709.345 715.397 705.595 Q718.36 701.845 723.059 701.845 Q725.929 701.845 727.966 702.979 Q730.026 704.09 731.369 706.405 M716.855 715.456 Q716.855 720.155 718.776 722.84 Q720.721 725.502 724.1 725.502 Q727.48 725.502 729.424 722.84 Q731.369 720.155 731.369 715.456 Q731.369 710.757 729.424 708.095 Q727.48 705.41 724.1 705.41 Q720.721 705.41 718.776 708.095 Q716.855 710.757 716.855 715.456 Z" fill="#000000" fill-rule="evenodd" fill-opacity="1" /><path clip-path="url(#clip140)" d="M 0 0 M744.957 706.868 L774.632 706.868 L774.632 710.757 L744.957 710.757 L744.957 706.868 M744.957 716.312 L774.632 716.312 L774.632 720.248 L744.957 720.248 L744.957 716.312 Z" fill="#000000" fill-rule="evenodd" fill-opacity="1" /><path clip-path="url(#clip140)" d="M 0 0 M788.753 724.461 L805.072 724.461 L805.072 728.396 L783.128 728.396 L783.128 724.461 Q785.79 721.706 790.373 717.076 Q794.98 712.424 796.16 711.081 Q798.405 708.558 799.285 706.822 Q800.188 705.063 800.188 703.373 Q800.188 700.618 798.243 698.882 Q796.322 697.146 793.22 697.146 Q791.021 697.146 788.568 697.91 Q786.137 698.674 783.359 700.225 L783.359 695.502 Q786.183 694.368 788.637 693.789 Q791.091 693.211 793.128 693.211 Q798.498 693.211 801.693 695.896 Q804.887 698.581 804.887 703.072 Q804.887 705.201 804.077 707.123 Q803.29 709.021 801.183 711.613 Q800.605 712.285 797.503 715.502 Q794.401 718.697 788.753 724.461 Z" fill="#000000" fill-rule="evenodd" fill-opacity="1" /><path clip-path="url(#clip140)" d="M 0 0 M814.933 693.836 L833.29 693.836 L833.29 697.771 L819.216 697.771 L819.216 706.243 Q820.234 705.896 821.253 705.734 Q822.271 705.549 823.29 705.549 Q829.077 705.549 832.456 708.72 Q835.836 711.891 835.836 717.308 Q835.836 722.886 832.364 725.988 Q828.891 729.067 822.572 729.067 Q820.396 729.067 818.128 728.697 Q815.882 728.326 813.475 727.586 L813.475 722.886 Q815.558 724.021 817.78 724.576 Q820.003 725.132 822.479 725.132 Q826.484 725.132 828.822 723.025 Q831.16 720.919 831.16 717.308 Q831.16 713.697 828.822 711.59 Q826.484 709.484 822.479 709.484 Q820.604 709.484 818.729 709.9 Q816.878 710.317 814.933 711.197 L814.933 693.836 Z" fill="#000000" fill-rule="evenodd" fill-opacity="1" /><polyline clip-path="url(#clip140)" style="stroke:#8e971d; stroke-width:4; stroke-opacity:1; fill:none" points="
  343.018,771.596 483.232,771.596 
  "/>
<path clip-path="url(#clip140)" d="M 0 0 M534.472 756.978 L534.472 761.908 Q532.111 759.709 529.425 758.621 Q526.763 757.533 523.754 757.533 Q517.828 757.533 514.68 761.168 Q511.532 764.779 511.532 771.63 Q511.532 778.459 514.68 782.093 Q517.828 785.704 523.754 785.704 Q526.763 785.704 529.425 784.616 Q532.111 783.529 534.472 781.329 L534.472 786.214 Q532.018 787.88 529.263 788.714 Q526.532 789.547 523.476 789.547 Q515.629 789.547 511.115 784.755 Q506.602 779.941 506.602 771.63 Q506.602 763.297 511.115 758.506 Q515.629 753.691 523.476 753.691 Q526.578 753.691 529.31 754.524 Q532.064 755.334 534.472 756.978 Z" fill="#000000" fill-rule="evenodd" fill-opacity="1" /><path clip-path="url(#clip140)" d="M 0 0 M541.069 778.644 L541.069 762.95 L545.328 762.95 L545.328 778.482 Q545.328 782.163 546.763 784.015 Q548.199 785.843 551.069 785.843 Q554.518 785.843 556.509 783.644 Q558.523 781.445 558.523 777.649 L558.523 762.95 L562.782 762.95 L562.782 788.876 L558.523 788.876 L558.523 784.894 Q556.972 787.255 554.911 788.413 Q552.874 789.547 550.166 789.547 Q545.699 789.547 543.384 786.769 Q541.069 783.991 541.069 778.644 M551.786 762.325 L551.786 762.325 Z" fill="#000000" fill-rule="evenodd" fill-opacity="1" /><path clip-path="url(#clip140)" d="M 0 0 M583.291 758.922 L576.948 776.121 L589.657 776.121 L583.291 758.922 M580.652 754.316 L585.953 754.316 L599.124 788.876 L594.263 788.876 L591.115 780.01 L575.536 780.01 L572.388 788.876 L567.458 788.876 L580.652 754.316 Z" fill="#000000" fill-rule="evenodd" fill-opacity="1" /><path clip-path="url(#clip140)" d="M 0 0 M619.008 766.931 Q618.291 766.515 617.434 766.33 Q616.601 766.121 615.582 766.121 Q611.971 766.121 610.027 768.482 Q608.106 770.82 608.106 775.218 L608.106 788.876 L603.823 788.876 L603.823 762.95 L608.106 762.95 L608.106 766.978 Q609.448 764.617 611.601 763.482 Q613.754 762.325 616.832 762.325 Q617.272 762.325 617.805 762.394 Q618.337 762.441 618.985 762.556 L619.008 766.931 Z" fill="#000000" fill-rule="evenodd" fill-opacity="1" /><path clip-path="url(#clip140)" d="M 0 0 M637.666 766.931 Q636.948 766.515 636.092 766.33 Q635.258 766.121 634.24 766.121 Q630.629 766.121 628.684 768.482 Q626.763 770.82 626.763 775.218 L626.763 788.876 L622.481 788.876 L622.481 762.95 L626.763 762.95 L626.763 766.978 Q628.105 764.617 630.258 763.482 Q632.411 762.325 635.49 762.325 Q635.93 762.325 636.462 762.394 Q636.994 762.441 637.642 762.556 L637.666 766.931 Z" fill="#000000" fill-rule="evenodd" fill-opacity="1" /><path clip-path="url(#clip140)" d="M 0 0 M653.916 775.843 Q648.754 775.843 646.763 777.024 Q644.772 778.204 644.772 781.052 Q644.772 783.32 646.254 784.663 Q647.758 785.982 650.328 785.982 Q653.869 785.982 655.999 783.482 Q658.152 780.959 658.152 776.792 L658.152 775.843 L653.916 775.843 M662.411 774.084 L662.411 788.876 L658.152 788.876 L658.152 784.941 Q656.693 787.302 654.517 788.436 Q652.341 789.547 649.193 789.547 Q645.212 789.547 642.851 787.325 Q640.513 785.079 640.513 781.329 Q640.513 776.954 643.429 774.732 Q646.369 772.51 652.179 772.51 L658.152 772.51 L658.152 772.093 Q658.152 769.154 656.207 767.556 Q654.286 765.936 650.791 765.936 Q648.568 765.936 646.462 766.468 Q644.355 767.001 642.411 768.066 L642.411 764.13 Q644.749 763.228 646.948 762.788 Q649.147 762.325 651.23 762.325 Q656.855 762.325 659.633 765.242 Q662.411 768.158 662.411 774.084 Z" fill="#000000" fill-rule="evenodd" fill-opacity="1" /><path clip-path="url(#clip140)" d="M 0 0 M681.971 791.283 Q680.165 795.913 678.452 797.325 Q676.739 798.737 673.869 798.737 L670.466 798.737 L670.466 795.172 L672.966 795.172 Q674.726 795.172 675.698 794.339 Q676.67 793.505 677.851 790.403 L678.614 788.459 L668.128 762.95 L672.642 762.95 L680.744 783.228 L688.846 762.95 L693.36 762.95 L681.971 791.283 Z" fill="#000000" fill-rule="evenodd" fill-opacity="1" /><path clip-path="url(#clip140)" d="M 0 0 M731.369 766.885 L731.369 752.857 L735.628 752.857 L735.628 788.876 L731.369 788.876 L731.369 784.987 Q730.026 787.302 727.966 788.436 Q725.929 789.547 723.059 789.547 Q718.36 789.547 715.397 785.797 Q712.457 782.047 712.457 775.936 Q712.457 769.825 715.397 766.075 Q718.36 762.325 723.059 762.325 Q725.929 762.325 727.966 763.459 Q730.026 764.57 731.369 766.885 M716.855 775.936 Q716.855 780.635 718.776 783.32 Q720.721 785.982 724.1 785.982 Q727.48 785.982 729.424 783.32 Q731.369 780.635 731.369 775.936 Q731.369 771.237 729.424 768.575 Q727.48 765.89 724.1 765.89 Q720.721 765.89 718.776 768.575 Q716.855 771.237 716.855 775.936 Z" fill="#000000" fill-rule="evenodd" fill-opacity="1" /><path clip-path="url(#clip140)" d="M 0 0 M744.957 767.348 L774.632 767.348 L774.632 771.237 L744.957 771.237 L744.957 767.348 M744.957 776.792 L774.632 776.792 L774.632 780.728 L744.957 780.728 L744.957 776.792 Z" fill="#000000" fill-rule="evenodd" fill-opacity="1" /><path clip-path="url(#clip140)" d="M 0 0 M798.892 770.242 Q802.248 770.959 804.123 773.228 Q806.021 775.496 806.021 778.829 Q806.021 783.945 802.503 786.746 Q798.984 789.547 792.503 789.547 Q790.327 789.547 788.012 789.107 Q785.72 788.691 783.267 787.834 L783.267 783.32 Q785.211 784.454 787.526 785.033 Q789.841 785.612 792.364 785.612 Q796.762 785.612 799.054 783.876 Q801.368 782.14 801.368 778.829 Q801.368 775.774 799.216 774.061 Q797.086 772.325 793.267 772.325 L789.239 772.325 L789.239 768.482 L793.452 768.482 Q796.901 768.482 798.73 767.117 Q800.558 765.728 800.558 763.135 Q800.558 760.473 798.66 759.061 Q796.785 757.626 793.267 757.626 Q791.345 757.626 789.146 758.043 Q786.947 758.459 784.308 759.339 L784.308 755.172 Q786.97 754.431 789.285 754.061 Q791.623 753.691 793.683 753.691 Q799.007 753.691 802.109 756.121 Q805.211 758.529 805.211 762.649 Q805.211 765.519 803.568 767.51 Q801.924 769.478 798.892 770.242 Z" fill="#000000" fill-rule="evenodd" fill-opacity="1" /><path clip-path="url(#clip140)" d="M 0 0 M825.466 769.732 Q822.317 769.732 820.466 771.885 Q818.637 774.038 818.637 777.788 Q818.637 781.515 820.466 783.691 Q822.317 785.843 825.466 785.843 Q828.614 785.843 830.442 783.691 Q832.294 781.515 832.294 777.788 Q832.294 774.038 830.442 771.885 Q828.614 769.732 825.466 769.732 M834.748 755.08 L834.748 759.339 Q832.989 758.506 831.183 758.066 Q829.401 757.626 827.641 757.626 Q823.012 757.626 820.558 760.751 Q818.128 763.876 817.78 770.195 Q819.146 768.181 821.206 767.117 Q823.266 766.029 825.743 766.029 Q830.952 766.029 833.961 769.2 Q836.993 772.348 836.993 777.788 Q836.993 783.112 833.845 786.329 Q830.697 789.547 825.466 789.547 Q819.47 789.547 816.299 784.964 Q813.128 780.357 813.128 771.63 Q813.128 763.436 817.017 758.575 Q820.905 753.691 827.456 753.691 Q829.216 753.691 830.998 754.038 Q832.803 754.385 834.748 755.08 Z" fill="#000000" fill-rule="evenodd" fill-opacity="1" /></svg>
