<?xml version="1.0" encoding="utf-8"?>
<svg xmlns="http://www.w3.org/2000/svg" xmlns:xlink="http://www.w3.org/1999/xlink" width="600" height="400" viewBox="0 0 2400 1600">
<defs>
  <clipPath id="clip500">
    <rect x="0" y="0" width="2400" height="1600"/>
  </clipPath>
</defs>
<path clip-path="url(#clip500)" d="
M0 1600 L2400 1600 L2400 0 L0 0  Z
  " fill="#ffffff" fill-rule="evenodd" fill-opacity="1"/>
<defs>
  <clipPath id="clip501">
    <rect x="480" y="0" width="1681" height="1600"/>
  </clipPath>
</defs>
<path clip-path="url(#clip500)" d="
M203.964 1423.18 L2352.76 1423.18 L2352.76 123.472 L203.964 123.472  Z
  " fill="#ffffff" fill-rule="evenodd" fill-opacity="1"/>
<defs>
  <clipPath id="clip502">
    <rect x="203" y="123" width="2150" height="1301"/>
  </clipPath>
</defs>
<polyline clip-path="url(#clip502)" style="stroke:#000000; stroke-width:2; stroke-opacity:0.1; fill:none" points="
  264.778,1423.18 264.778,123.472 
  "/>
<polyline clip-path="url(#clip502)" style="stroke:#000000; stroke-width:2; stroke-opacity:0.1; fill:none" points="
  771.569,1423.18 771.569,123.472 
  "/>
<polyline clip-path="url(#clip502)" style="stroke:#000000; stroke-width:2; stroke-opacity:0.1; fill:none" points="
  1278.36,1423.18 1278.36,123.472 
  "/>
<polyline clip-path="url(#clip502)" style="stroke:#000000; stroke-width:2; stroke-opacity:0.1; fill:none" points="
  1785.15,1423.18 1785.15,123.472 
  "/>
<polyline clip-path="url(#clip502)" style="stroke:#000000; stroke-width:2; stroke-opacity:0.1; fill:none" points="
  2291.94,1423.18 2291.94,123.472 
  "/>
<polyline clip-path="url(#clip500)" style="stroke:#000000; stroke-width:4; stroke-opacity:1; fill:none" points="
  203.964,1423.18 2352.76,1423.18 
  "/>
<polyline clip-path="url(#clip500)" style="stroke:#000000; stroke-width:4; stroke-opacity:1; fill:none" points="
  264.778,1423.18 264.778,1407.58 
  "/>
<polyline clip-path="url(#clip500)" style="stroke:#000000; stroke-width:4; stroke-opacity:1; fill:none" points="
  771.569,1423.18 771.569,1407.58 
  "/>
<polyline clip-path="url(#clip500)" style="stroke:#000000; stroke-width:4; stroke-opacity:1; fill:none" points="
  1278.36,1423.18 1278.36,1407.58 
  "/>
<polyline clip-path="url(#clip500)" style="stroke:#000000; stroke-width:4; stroke-opacity:1; fill:none" points="
  1785.15,1423.18 1785.15,1407.58 
  "/>
<polyline clip-path="url(#clip500)" style="stroke:#000000; stroke-width:4; stroke-opacity:1; fill:none" points="
  2291.94,1423.18 2291.94,1407.58 
  "/>
<path clip-path="url(#clip500)" d="M 0 0 M239.466 1479.92 L247.105 1479.92 L247.105 1453.55 L238.795 1455.22 L238.795 1450.96 L247.059 1449.29 L251.735 1449.29 L251.735 1479.92 L259.373 1479.92 L259.373 1483.85 L239.466 1483.85 L239.466 1479.92 Z" fill="#000000" fill-rule="evenodd" fill-opacity="1" /><path clip-path="url(#clip500)" d="M 0 0 M278.818 1452.37 Q275.207 1452.37 273.378 1455.94 Q271.572 1459.48 271.572 1466.61 Q271.572 1473.71 273.378 1477.28 Q275.207 1480.82 278.818 1480.82 Q282.452 1480.82 284.258 1477.28 Q286.086 1473.71 286.086 1466.61 Q286.086 1459.48 284.258 1455.94 Q282.452 1452.37 278.818 1452.37 M278.818 1448.67 Q284.628 1448.67 287.683 1453.27 Q290.762 1457.86 290.762 1466.61 Q290.762 1475.33 287.683 1479.94 Q284.628 1484.52 278.818 1484.52 Q273.008 1484.52 269.929 1479.94 Q266.873 1475.33 266.873 1466.61 Q266.873 1457.86 269.929 1453.27 Q273.008 1448.67 278.818 1448.67 Z" fill="#000000" fill-rule="evenodd" fill-opacity="1" /><path clip-path="url(#clip500)" d="M 0 0 M750.342 1479.92 L766.662 1479.92 L766.662 1483.85 L744.717 1483.85 L744.717 1479.92 Q747.379 1477.16 751.963 1472.53 Q756.569 1467.88 757.75 1466.54 Q759.995 1464.01 760.875 1462.28 Q761.777 1460.52 761.777 1458.83 Q761.777 1456.07 759.833 1454.34 Q757.912 1452.6 754.81 1452.6 Q752.611 1452.6 750.157 1453.37 Q747.727 1454.13 744.949 1455.68 L744.949 1450.96 Q747.773 1449.82 750.227 1449.25 Q752.68 1448.67 754.717 1448.67 Q760.088 1448.67 763.282 1451.35 Q766.477 1454.04 766.477 1458.53 Q766.477 1460.66 765.666 1462.58 Q764.879 1464.48 762.773 1467.07 Q762.194 1467.74 759.092 1470.96 Q755.99 1474.15 750.342 1479.92 Z" fill="#000000" fill-rule="evenodd" fill-opacity="1" /><path clip-path="url(#clip500)" d="M 0 0 M786.476 1452.37 Q782.865 1452.37 781.037 1455.94 Q779.231 1459.48 779.231 1466.61 Q779.231 1473.71 781.037 1477.28 Q782.865 1480.82 786.476 1480.82 Q790.111 1480.82 791.916 1477.28 Q793.745 1473.71 793.745 1466.61 Q793.745 1459.48 791.916 1455.94 Q790.111 1452.37 786.476 1452.37 M786.476 1448.67 Q792.287 1448.67 795.342 1453.27 Q798.421 1457.86 798.421 1466.61 Q798.421 1475.33 795.342 1479.94 Q792.287 1484.52 786.476 1484.52 Q780.666 1484.52 777.588 1479.94 Q774.532 1475.33 774.532 1466.61 Q774.532 1457.86 777.588 1453.27 Q780.666 1448.67 786.476 1448.67 Z" fill="#000000" fill-rule="evenodd" fill-opacity="1" /><path clip-path="url(#clip500)" d="M 0 0 M1267.2 1465.22 Q1270.56 1465.94 1272.43 1468.2 Q1274.33 1470.47 1274.33 1473.81 Q1274.33 1478.92 1270.81 1481.72 Q1267.29 1484.52 1260.81 1484.52 Q1258.64 1484.52 1256.32 1484.08 Q1254.03 1483.67 1251.58 1482.81 L1251.58 1478.3 Q1253.52 1479.43 1255.84 1480.01 Q1258.15 1480.59 1260.67 1480.59 Q1265.07 1480.59 1267.36 1478.85 Q1269.68 1477.12 1269.68 1473.81 Q1269.68 1470.75 1267.53 1469.04 Q1265.4 1467.3 1261.58 1467.3 L1257.55 1467.3 L1257.55 1463.46 L1261.76 1463.46 Q1265.21 1463.46 1267.04 1462.09 Q1268.87 1460.7 1268.87 1458.11 Q1268.87 1455.45 1266.97 1454.04 Q1265.1 1452.6 1261.58 1452.6 Q1259.66 1452.6 1257.46 1453.02 Q1255.26 1453.44 1252.62 1454.31 L1252.62 1450.15 Q1255.28 1449.41 1257.6 1449.04 Q1259.93 1448.67 1261.99 1448.67 Q1267.32 1448.67 1270.42 1451.1 Q1273.52 1453.5 1273.52 1457.63 Q1273.52 1460.5 1271.88 1462.49 Q1270.23 1464.45 1267.2 1465.22 Z" fill="#000000" fill-rule="evenodd" fill-opacity="1" /><path clip-path="url(#clip500)" d="M 0 0 M1293.2 1452.37 Q1289.59 1452.37 1287.76 1455.94 Q1285.95 1459.48 1285.95 1466.61 Q1285.95 1473.71 1287.76 1477.28 Q1289.59 1480.82 1293.2 1480.82 Q1296.83 1480.82 1298.64 1477.28 Q1300.47 1473.71 1300.47 1466.61 Q1300.47 1459.48 1298.64 1455.94 Q1296.83 1452.37 1293.2 1452.37 M1293.2 1448.67 Q1299.01 1448.67 1302.06 1453.27 Q1305.14 1457.86 1305.14 1466.61 Q1305.14 1475.33 1302.06 1479.94 Q1299.01 1484.52 1293.2 1484.52 Q1287.39 1484.52 1284.31 1479.94 Q1281.25 1475.33 1281.25 1466.61 Q1281.25 1457.86 1284.31 1453.27 Q1287.39 1448.67 1293.2 1448.67 Z" fill="#000000" fill-rule="evenodd" fill-opacity="1" /><path clip-path="url(#clip500)" d="M 0 0 M1773.32 1453.37 L1761.52 1471.81 L1773.32 1471.81 L1773.32 1453.37 M1772.09 1449.29 L1777.97 1449.29 L1777.97 1471.81 L1782.91 1471.81 L1782.91 1475.7 L1777.97 1475.7 L1777.97 1483.85 L1773.32 1483.85 L1773.32 1475.7 L1757.72 1475.7 L1757.72 1471.19 L1772.09 1449.29 Z" fill="#000000" fill-rule="evenodd" fill-opacity="1" /><path clip-path="url(#clip500)" d="M 0 0 M1800.64 1452.37 Q1797.03 1452.37 1795.2 1455.94 Q1793.39 1459.48 1793.39 1466.61 Q1793.39 1473.71 1795.2 1477.28 Q1797.03 1480.82 1800.64 1480.82 Q1804.27 1480.82 1806.08 1477.28 Q1807.9 1473.71 1807.9 1466.61 Q1807.9 1459.48 1806.08 1455.94 Q1804.27 1452.37 1800.64 1452.37 M1800.64 1448.67 Q1806.45 1448.67 1809.5 1453.27 Q1812.58 1457.86 1812.58 1466.61 Q1812.58 1475.33 1809.5 1479.94 Q1806.45 1484.52 1800.64 1484.52 Q1794.83 1484.52 1791.75 1479.94 Q1788.69 1475.33 1788.69 1466.61 Q1788.69 1457.86 1791.75 1453.27 Q1794.83 1448.67 1800.64 1448.67 Z" fill="#000000" fill-rule="evenodd" fill-opacity="1" /><path clip-path="url(#clip500)" d="M 0 0 M2266.64 1449.29 L2285 1449.29 L2285 1453.23 L2270.92 1453.23 L2270.92 1461.7 Q2271.94 1461.35 2272.96 1461.19 Q2273.98 1461 2275 1461 Q2280.78 1461 2284.16 1464.18 Q2287.54 1467.35 2287.54 1472.76 Q2287.54 1478.34 2284.07 1481.44 Q2280.6 1484.52 2274.28 1484.52 Q2272.1 1484.52 2269.83 1484.15 Q2267.59 1483.78 2265.18 1483.04 L2265.18 1478.34 Q2267.27 1479.48 2269.49 1480.03 Q2271.71 1480.59 2274.19 1480.59 Q2278.19 1480.59 2280.53 1478.48 Q2282.87 1476.38 2282.87 1472.76 Q2282.87 1469.15 2280.53 1467.05 Q2278.19 1464.94 2274.19 1464.94 Q2272.31 1464.94 2270.44 1465.36 Q2268.58 1465.77 2266.64 1466.65 L2266.64 1449.29 Z" fill="#000000" fill-rule="evenodd" fill-opacity="1" /><path clip-path="url(#clip500)" d="M 0 0 M2306.76 1452.37 Q2303.14 1452.37 2301.32 1455.94 Q2299.51 1459.48 2299.51 1466.61 Q2299.51 1473.71 2301.32 1477.28 Q2303.14 1480.82 2306.76 1480.82 Q2310.39 1480.82 2312.2 1477.28 Q2314.02 1473.71 2314.02 1466.61 Q2314.02 1459.48 2312.2 1455.94 Q2310.39 1452.37 2306.76 1452.37 M2306.76 1448.67 Q2312.57 1448.67 2315.62 1453.27 Q2318.7 1457.86 2318.7 1466.61 Q2318.7 1475.33 2315.62 1479.94 Q2312.57 1484.52 2306.76 1484.52 Q2300.95 1484.52 2297.87 1479.94 Q2294.81 1475.33 2294.81 1466.61 Q2294.81 1457.86 2297.87 1453.27 Q2300.95 1448.67 2306.76 1448.67 Z" fill="#000000" fill-rule="evenodd" fill-opacity="1" /><path clip-path="url(#clip500)" d="M 0 0 M1264.82 1525.81 L1264.82 1562.76 L1272.58 1562.76 Q1282.42 1562.76 1286.97 1558.3 Q1291.55 1553.85 1291.55 1544.24 Q1291.55 1534.69 1286.97 1530.26 Q1282.42 1525.81 1272.58 1525.81 L1264.82 1525.81 M1258.39 1520.52 L1271.6 1520.52 Q1285.41 1520.52 1291.87 1526.28 Q1298.33 1532.01 1298.33 1544.24 Q1298.33 1556.52 1291.84 1562.28 Q1285.35 1568.04 1271.6 1568.04 L1258.39 1568.04 L1258.39 1520.52 Z" fill="#000000" fill-rule="evenodd" fill-opacity="1" /><polyline clip-path="url(#clip502)" style="stroke:#000000; stroke-width:2; stroke-opacity:0.1; fill:none" points="
  203.964,1123.39 2352.76,1123.39 
  "/>
<polyline clip-path="url(#clip502)" style="stroke:#000000; stroke-width:2; stroke-opacity:0.1; fill:none" points="
  203.964,818.387 2352.76,818.387 
  "/>
<polyline clip-path="url(#clip502)" style="stroke:#000000; stroke-width:2; stroke-opacity:0.1; fill:none" points="
  203.964,513.386 2352.76,513.386 
  "/>
<polyline clip-path="url(#clip502)" style="stroke:#000000; stroke-width:2; stroke-opacity:0.1; fill:none" points="
  203.964,208.385 2352.76,208.385 
  "/>
<polyline clip-path="url(#clip500)" style="stroke:#000000; stroke-width:4; stroke-opacity:1; fill:none" points="
  203.964,1423.18 203.964,123.472 
  "/>
<polyline clip-path="url(#clip500)" style="stroke:#000000; stroke-width:4; stroke-opacity:1; fill:none" points="
  203.964,1123.39 229.749,1123.39 
  "/>
<polyline clip-path="url(#clip500)" style="stroke:#000000; stroke-width:4; stroke-opacity:1; fill:none" points="
  203.964,818.387 229.749,818.387 
  "/>
<polyline clip-path="url(#clip500)" style="stroke:#000000; stroke-width:4; stroke-opacity:1; fill:none" points="
  203.964,513.386 229.749,513.386 
  "/>
<polyline clip-path="url(#clip500)" style="stroke:#000000; stroke-width:4; stroke-opacity:1; fill:none" points="
  203.964,208.385 229.749,208.385 
  "/>
<path clip-path="url(#clip500)" d="M 0 0 M147.061 1106.11 L165.417 1106.11 L165.417 1110.04 L151.343 1110.04 L151.343 1118.52 Q152.362 1118.17 153.38 1118.01 Q154.399 1117.82 155.417 1117.82 Q161.204 1117.82 164.584 1120.99 Q167.964 1124.16 167.964 1129.58 Q167.964 1135.16 164.491 1138.26 Q161.019 1141.34 154.7 1141.34 Q152.524 1141.34 150.255 1140.97 Q148.01 1140.6 145.603 1139.86 L145.603 1135.16 Q147.686 1136.29 149.908 1136.85 Q152.13 1137.4 154.607 1137.4 Q158.612 1137.4 160.95 1135.3 Q163.288 1133.19 163.288 1129.58 Q163.288 1125.97 160.95 1123.86 Q158.612 1121.76 154.607 1121.76 Q152.732 1121.76 150.857 1122.17 Q149.005 1122.59 147.061 1123.47 L147.061 1106.11 Z" fill="#000000" fill-rule="evenodd" fill-opacity="1" /><path clip-path="url(#clip500)" d="M 0 0 M116.668 831.732 L124.306 831.732 L124.306 805.367 L115.996 807.033 L115.996 802.774 L124.26 801.107 L128.936 801.107 L128.936 831.732 L136.575 831.732 L136.575 835.667 L116.668 835.667 L116.668 831.732 Z" fill="#000000" fill-rule="evenodd" fill-opacity="1" /><path clip-path="url(#clip500)" d="M 0 0 M156.019 804.186 Q152.408 804.186 150.579 807.751 Q148.774 811.292 148.774 818.422 Q148.774 825.528 150.579 829.093 Q152.408 832.635 156.019 832.635 Q159.653 832.635 161.459 829.093 Q163.288 825.528 163.288 818.422 Q163.288 811.292 161.459 807.751 Q159.653 804.186 156.019 804.186 M156.019 800.482 Q161.829 800.482 164.885 805.089 Q167.964 809.672 167.964 818.422 Q167.964 827.149 164.885 831.755 Q161.829 836.339 156.019 836.339 Q150.209 836.339 147.13 831.755 Q144.075 827.149 144.075 818.422 Q144.075 809.672 147.13 805.089 Q150.209 800.482 156.019 800.482 Z" fill="#000000" fill-rule="evenodd" fill-opacity="1" /><path clip-path="url(#clip500)" d="M 0 0 M117.663 526.731 L125.302 526.731 L125.302 500.365 L116.992 502.032 L116.992 497.773 L125.255 496.106 L129.931 496.106 L129.931 526.731 L137.57 526.731 L137.57 530.666 L117.663 530.666 L117.663 526.731 Z" fill="#000000" fill-rule="evenodd" fill-opacity="1" /><path clip-path="url(#clip500)" d="M 0 0 M147.061 496.106 L165.417 496.106 L165.417 500.041 L151.343 500.041 L151.343 508.514 Q152.362 508.166 153.38 508.004 Q154.399 507.819 155.417 507.819 Q161.204 507.819 164.584 510.99 Q167.964 514.162 167.964 519.578 Q167.964 525.157 164.491 528.259 Q161.019 531.338 154.7 531.338 Q152.524 531.338 150.255 530.967 Q148.01 530.597 145.603 529.856 L145.603 525.157 Q147.686 526.291 149.908 526.847 Q152.13 527.402 154.607 527.402 Q158.612 527.402 160.95 525.296 Q163.288 523.189 163.288 519.578 Q163.288 515.967 160.95 513.861 Q158.612 511.754 154.607 511.754 Q152.732 511.754 150.857 512.171 Q149.005 512.588 147.061 513.467 L147.061 496.106 Z" fill="#000000" fill-rule="evenodd" fill-opacity="1" /><path clip-path="url(#clip500)" d="M 0 0 M119.885 221.73 L136.204 221.73 L136.204 225.665 L114.26 225.665 L114.26 221.73 Q116.922 218.975 121.505 214.346 Q126.112 209.693 127.292 208.351 Q129.538 205.827 130.417 204.091 Q131.32 202.332 131.32 200.642 Q131.32 197.888 129.376 196.151 Q127.455 194.415 124.353 194.415 Q122.154 194.415 119.7 195.179 Q117.269 195.943 114.492 197.494 L114.492 192.772 Q117.316 191.638 119.769 191.059 Q122.223 190.48 124.26 190.48 Q129.63 190.48 132.825 193.165 Q136.019 195.851 136.019 200.341 Q136.019 202.471 135.209 204.392 Q134.422 206.29 132.316 208.883 Q131.737 209.554 128.635 212.772 Q125.533 215.966 119.885 221.73 Z" fill="#000000" fill-rule="evenodd" fill-opacity="1" /><path clip-path="url(#clip500)" d="M 0 0 M156.019 194.184 Q152.408 194.184 150.579 197.749 Q148.774 201.29 148.774 208.42 Q148.774 215.526 150.579 219.091 Q152.408 222.633 156.019 222.633 Q159.653 222.633 161.459 219.091 Q163.288 215.526 163.288 208.42 Q163.288 201.29 161.459 197.749 Q159.653 194.184 156.019 194.184 M156.019 190.48 Q161.829 190.48 164.885 195.087 Q167.964 199.67 167.964 208.42 Q167.964 217.147 164.885 221.753 Q161.829 226.337 156.019 226.337 Q150.209 226.337 147.13 221.753 Q144.075 217.147 144.075 208.42 Q144.075 199.67 147.13 195.087 Q150.209 190.48 156.019 190.48 Z" fill="#000000" fill-rule="evenodd" fill-opacity="1" /><path clip-path="url(#clip500)" d="M 0 0 M46.0847 1065.59 Q46.0847 1072.69 47.7079 1075.43 Q49.3312 1078.16 53.2461 1078.16 Q56.3653 1078.16 58.2114 1076.13 Q60.0256 1074.06 60.0256 1070.52 Q60.0256 1065.66 56.5881 1062.73 Q53.1188 1059.77 47.3897 1059.77 L46.0847 1059.77 L46.0847 1065.59 M43.6657 1053.91 L64.0042 1053.91 L64.0042 1059.77 L58.5933 1059.77 Q61.8398 1061.77 63.3994 1064.76 Q64.9272 1067.76 64.9272 1072.08 Q64.9272 1077.56 61.8716 1080.81 Q58.7843 1084.02 53.6281 1084.02 Q47.6125 1084.02 44.5569 1080.01 Q41.5014 1075.97 41.5014 1067.98 L41.5014 1059.77 L40.9285 1059.77 Q36.8862 1059.77 34.6901 1062.44 Q32.4621 1065.08 32.4621 1069.89 Q32.4621 1072.94 33.1941 1075.84 Q33.9262 1078.74 35.3903 1081.41 L29.9795 1081.41 Q28.7381 1078.2 28.1334 1075.17 Q27.4968 1072.15 27.4968 1069.28 Q27.4968 1061.55 31.5072 1057.73 Q35.5176 1053.91 43.6657 1053.91 Z" fill="#000000" fill-rule="evenodd" fill-opacity="1" /><path clip-path="url(#clip500)" d="M 0 0 M29.7248 1016.19 L35.1993 1016.19 Q33.8307 1018.68 33.1623 1021.19 Q32.4621 1023.67 32.4621 1026.22 Q32.4621 1031.92 36.0905 1035.07 Q39.6872 1038.22 46.212 1038.22 Q52.7369 1038.22 56.3653 1035.07 Q59.9619 1031.92 59.9619 1026.22 Q59.9619 1023.67 59.2935 1021.19 Q58.5933 1018.68 57.2247 1016.19 L62.6355 1016.19 Q63.7814 1018.64 64.3543 1021.29 Q64.9272 1023.9 64.9272 1026.86 Q64.9272 1034.91 59.8664 1039.65 Q54.8057 1044.39 46.212 1044.39 Q37.491 1044.39 32.4939 1039.62 Q27.4968 1034.81 27.4968 1026.47 Q27.4968 1023.77 28.0697 1021.19 Q28.6108 1018.61 29.7248 1016.19 Z" fill="#000000" fill-rule="evenodd" fill-opacity="1" /><path clip-path="url(#clip500)" d="M 0 0 M29.7248 980.355 L35.1993 980.355 Q33.8307 982.837 33.1623 985.352 Q32.4621 987.834 32.4621 990.381 Q32.4621 996.078 36.0905 999.229 Q39.6872 1002.38 46.212 1002.38 Q52.7369 1002.38 56.3653 999.229 Q59.9619 996.078 59.9619 990.381 Q59.9619 987.834 59.2935 985.352 Q58.5933 982.837 57.2247 980.355 L62.6355 980.355 Q63.7814 982.805 64.3543 985.447 Q64.9272 988.057 64.9272 991.017 Q64.9272 999.07 59.8664 1003.81 Q54.8057 1008.55 46.212 1008.55 Q37.491 1008.55 32.4939 1003.78 Q27.4968 998.974 27.4968 990.635 Q27.4968 987.93 28.0697 985.352 Q28.6108 982.774 29.7248 980.355 Z" fill="#000000" fill-rule="evenodd" fill-opacity="1" /><path clip-path="url(#clip500)" d="M 0 0 M44.7161 939.678 L47.5806 939.678 L47.5806 966.605 Q53.6281 966.223 56.8109 962.976 Q59.9619 959.698 59.9619 953.873 Q59.9619 950.5 59.1344 947.348 Q58.3069 944.166 56.6518 941.046 L62.1899 941.046 Q63.5267 944.197 64.227 947.508 Q64.9272 950.818 64.9272 954.223 Q64.9272 962.753 59.9619 967.751 Q54.9967 972.716 46.5303 972.716 Q37.7774 972.716 32.6531 968.005 Q27.4968 963.263 27.4968 955.242 Q27.4968 948.049 32.1438 943.879 Q36.7589 939.678 44.7161 939.678 M42.9973 945.534 Q38.1912 945.598 35.3266 948.24 Q32.4621 950.85 32.4621 955.178 Q32.4621 960.08 35.2312 963.04 Q38.0002 965.968 43.0292 966.414 L42.9973 945.534 Z" fill="#000000" fill-rule="evenodd" fill-opacity="1" /><path clip-path="url(#clip500)" d="M 0 0 M14.479 930.066 L14.479 924.209 L64.0042 924.209 L64.0042 930.066 L14.479 930.066 Z" fill="#000000" fill-rule="evenodd" fill-opacity="1" /><path clip-path="url(#clip500)" d="M 0 0 M44.7161 881.463 L47.5806 881.463 L47.5806 908.39 Q53.6281 908.008 56.8109 904.762 Q59.9619 901.484 59.9619 895.659 Q59.9619 892.285 59.1344 889.134 Q58.3069 885.951 56.6518 882.832 L62.1899 882.832 Q63.5267 885.983 64.227 889.293 Q64.9272 892.603 64.9272 896.009 Q64.9272 904.539 59.9619 909.536 Q54.9967 914.501 46.5303 914.501 Q37.7774 914.501 32.6531 909.791 Q27.4968 905.048 27.4968 897.028 Q27.4968 889.834 32.1438 885.665 Q36.7589 881.463 44.7161 881.463 M42.9973 887.32 Q38.1912 887.384 35.3266 890.025 Q32.4621 892.635 32.4621 896.964 Q32.4621 901.866 35.2312 904.826 Q38.0002 907.754 43.0292 908.199 L42.9973 887.32 Z" fill="#000000" fill-rule="evenodd" fill-opacity="1" /><path clip-path="url(#clip500)" d="M 0 0 M33.8307 851.194 Q33.2578 852.181 33.0032 853.359 Q32.7167 854.505 32.7167 855.905 Q32.7167 860.87 35.9632 863.544 Q39.1779 866.186 45.2253 866.186 L64.0042 866.186 L64.0042 872.074 L28.3562 872.074 L28.3562 866.186 L33.8944 866.186 Q30.6479 864.34 29.0883 861.38 Q27.4968 858.42 27.4968 854.186 Q27.4968 853.582 27.5923 852.85 Q27.656 852.118 27.8151 851.226 L33.8307 851.194 Z" fill="#000000" fill-rule="evenodd" fill-opacity="1" /><path clip-path="url(#clip500)" d="M 0 0 M46.0847 828.851 Q46.0847 835.949 47.7079 838.686 Q49.3312 841.423 53.2461 841.423 Q56.3653 841.423 58.2114 839.386 Q60.0256 837.317 60.0256 833.784 Q60.0256 828.915 56.5881 825.986 Q53.1188 823.026 47.3897 823.026 L46.0847 823.026 L46.0847 828.851 M43.6657 817.17 L64.0042 817.17 L64.0042 823.026 L58.5933 823.026 Q61.8398 825.031 63.3994 828.023 Q64.9272 831.015 64.9272 835.344 Q64.9272 840.818 61.8716 844.065 Q58.7843 847.28 53.6281 847.28 Q47.6125 847.28 44.5569 843.269 Q41.5014 839.227 41.5014 831.238 L41.5014 823.026 L40.9285 823.026 Q36.8862 823.026 34.6901 825.7 Q32.4621 828.342 32.4621 833.148 Q32.4621 836.203 33.1941 839.1 Q33.9262 841.996 35.3903 844.67 L29.9795 844.67 Q28.7381 841.455 28.1334 838.431 Q27.4968 835.408 27.4968 832.543 Q27.4968 824.809 31.5072 820.989 Q35.5176 817.17 43.6657 817.17 Z" fill="#000000" fill-rule="evenodd" fill-opacity="1" /><path clip-path="url(#clip500)" d="M 0 0 M18.2347 799.314 L28.3562 799.314 L28.3562 787.251 L32.9077 787.251 L32.9077 799.314 L52.2594 799.314 Q56.6199 799.314 57.8613 798.136 Q59.1026 796.927 59.1026 793.267 L59.1026 787.251 L64.0042 787.251 L64.0042 793.267 Q64.0042 800.046 61.4897 802.624 Q58.9434 805.202 52.2594 805.202 L32.9077 805.202 L32.9077 809.499 L28.3562 809.499 L28.3562 805.202 L18.2347 805.202 L18.2347 799.314 Z" fill="#000000" fill-rule="evenodd" fill-opacity="1" /><path clip-path="url(#clip500)" d="M 0 0 M28.3562 779.548 L28.3562 773.692 L64.0042 773.692 L64.0042 779.548 L28.3562 779.548 M14.479 779.548 L14.479 773.692 L21.895 773.692 L21.895 779.548 L14.479 779.548 Z" fill="#000000" fill-rule="evenodd" fill-opacity="1" /><path clip-path="url(#clip500)" d="M 0 0 M32.4621 747.624 Q32.4621 752.335 36.1542 755.072 Q39.8145 757.81 46.212 757.81 Q52.6095 757.81 56.3017 755.104 Q59.9619 752.367 59.9619 747.624 Q59.9619 742.946 56.2698 740.208 Q52.5777 737.471 46.212 737.471 Q39.8781 737.471 36.186 740.208 Q32.4621 742.946 32.4621 747.624 M27.4968 747.624 Q27.4968 739.986 32.4621 735.625 Q37.4273 731.265 46.212 731.265 Q54.9649 731.265 59.9619 735.625 Q64.9272 739.986 64.9272 747.624 Q64.9272 755.295 59.9619 759.656 Q54.9649 763.984 46.212 763.984 Q37.4273 763.984 32.4621 759.656 Q27.4968 755.295 27.4968 747.624 Z" fill="#000000" fill-rule="evenodd" fill-opacity="1" /><path clip-path="url(#clip500)" d="M 0 0 M42.4881 691.925 L64.0042 691.925 L64.0042 697.781 L42.679 697.781 Q37.6183 697.781 35.1038 699.754 Q32.5894 701.728 32.5894 705.674 Q32.5894 710.417 35.6131 713.154 Q38.6368 715.891 43.8567 715.891 L64.0042 715.891 L64.0042 721.78 L28.3562 721.78 L28.3562 715.891 L33.8944 715.891 Q30.6797 713.791 29.0883 710.958 Q27.4968 708.093 27.4968 704.369 Q27.4968 698.227 31.3163 695.076 Q35.1038 691.925 42.4881 691.925 Z" fill="#000000" fill-rule="evenodd" fill-opacity="1" /><path clip-path="url(#clip500)" d="M 0 0 M33.8307 638.866 Q33.2578 639.853 33.0032 641.031 Q32.7167 642.177 32.7167 643.577 Q32.7167 648.542 35.9632 651.216 Q39.1779 653.858 45.2253 653.858 L64.0042 653.858 L64.0042 659.746 L28.3562 659.746 L28.3562 653.858 L33.8944 653.858 Q30.6479 652.012 29.0883 649.051 Q27.4968 646.091 27.4968 641.858 Q27.4968 641.253 27.5923 640.521 Q27.656 639.789 27.8151 638.898 L33.8307 638.866 Z" fill="#000000" fill-rule="evenodd" fill-opacity="1" /><path clip-path="url(#clip500)" d="M 0 0 M46.0847 616.523 Q46.0847 623.62 47.7079 626.358 Q49.3312 629.095 53.2461 629.095 Q56.3653 629.095 58.2114 627.058 Q60.0256 624.989 60.0256 621.456 Q60.0256 616.586 56.5881 613.658 Q53.1188 610.698 47.3897 610.698 L46.0847 610.698 L46.0847 616.523 M43.6657 604.842 L64.0042 604.842 L64.0042 610.698 L58.5933 610.698 Q61.8398 612.703 63.3994 615.695 Q64.9272 618.687 64.9272 623.016 Q64.9272 628.49 61.8716 631.737 Q58.7843 634.951 53.6281 634.951 Q47.6125 634.951 44.5569 630.941 Q41.5014 626.899 41.5014 618.91 L41.5014 610.698 L40.9285 610.698 Q36.8862 610.698 34.6901 613.372 Q32.4621 616.013 32.4621 620.82 Q32.4621 623.875 33.1941 626.772 Q33.9262 629.668 35.3903 632.341 L29.9795 632.341 Q28.7381 629.127 28.1334 626.103 Q27.4968 623.079 27.4968 620.215 Q27.4968 612.48 31.5072 608.661 Q35.5176 604.842 43.6657 604.842 Z" fill="#000000" fill-rule="evenodd" fill-opacity="1" /><path clip-path="url(#clip500)" d="M 0 0 M18.2347 586.986 L28.3562 586.986 L28.3562 574.923 L32.9077 574.923 L32.9077 586.986 L52.2594 586.986 Q56.6199 586.986 57.8613 585.808 Q59.1026 584.599 59.1026 580.938 L59.1026 574.923 L64.0042 574.923 L64.0042 580.938 Q64.0042 587.718 61.4897 590.296 Q58.9434 592.874 52.2594 592.874 L32.9077 592.874 L32.9077 597.171 L28.3562 597.171 L28.3562 592.874 L18.2347 592.874 L18.2347 586.986 Z" fill="#000000" fill-rule="evenodd" fill-opacity="1" /><path clip-path="url(#clip500)" d="M 0 0 M28.3562 567.22 L28.3562 561.364 L64.0042 561.364 L64.0042 567.22 L28.3562 567.22 M14.479 567.22 L14.479 561.364 L21.895 561.364 L21.895 567.22 L14.479 567.22 Z" fill="#000000" fill-rule="evenodd" fill-opacity="1" /><path clip-path="url(#clip500)" d="M 0 0 M32.4621 535.296 Q32.4621 540.007 36.1542 542.744 Q39.8145 545.481 46.212 545.481 Q52.6095 545.481 56.3017 542.776 Q59.9619 540.039 59.9619 535.296 Q59.9619 530.618 56.2698 527.88 Q52.5777 525.143 46.212 525.143 Q39.8781 525.143 36.186 527.88 Q32.4621 530.618 32.4621 535.296 M27.4968 535.296 Q27.4968 527.657 32.4621 523.297 Q37.4273 518.936 46.212 518.936 Q54.9649 518.936 59.9619 523.297 Q64.9272 527.657 64.9272 535.296 Q64.9272 542.967 59.9619 547.327 Q54.9649 551.656 46.212 551.656 Q37.4273 551.656 32.4621 547.327 Q27.4968 542.967 27.4968 535.296 Z" fill="#000000" fill-rule="evenodd" fill-opacity="1" /><path clip-path="url(#clip500)" d="M 0 0 M16.4842 498.821 L16.4842 493.41 L70.0516 509.961 L70.0516 515.372 L16.4842 498.821 Z" fill="#000000" fill-rule="evenodd" fill-opacity="1" /><path clip-path="url(#clip500)" d="M 0 0 M29.4065 464.541 L34.9447 464.541 Q33.6716 467.024 33.035 469.698 Q32.3984 472.371 32.3984 475.236 Q32.3984 479.596 33.7352 481.793 Q35.072 483.957 37.7456 483.957 Q39.7826 483.957 40.9603 482.397 Q42.1061 480.838 43.1565 476.127 L43.6021 474.122 Q44.9389 467.883 47.3897 465.274 Q49.8086 462.632 54.1691 462.632 Q59.1344 462.632 62.0308 466.578 Q64.9272 470.493 64.9272 477.368 Q64.9272 480.233 64.3543 483.352 Q63.8132 486.44 62.6992 489.877 L56.6518 489.877 Q58.3387 486.63 59.198 483.479 Q60.0256 480.328 60.0256 477.241 Q60.0256 473.103 58.6251 470.875 Q57.1929 468.647 54.6147 468.647 Q52.2276 468.647 50.9545 470.271 Q49.6813 471.862 48.5037 477.305 L48.0262 479.342 Q46.8804 484.784 44.5251 487.203 Q42.138 489.622 38.0002 489.622 Q32.9713 489.622 30.2341 486.058 Q27.4968 482.493 27.4968 475.936 Q27.4968 472.69 27.9743 469.825 Q28.4517 466.96 29.4065 464.541 Z" fill="#000000" fill-rule="evenodd" fill-opacity="1" /><path clip-path="url(#clip500)" d="M 0 0 M894.719 49.7694 Q885.685 49.7694 882.202 51.8354 Q878.718 53.9013 878.718 58.8839 Q878.718 62.8538 881.31 65.2034 Q883.943 67.5124 888.44 67.5124 Q894.638 67.5124 898.365 63.1374 Q902.132 58.7219 902.132 51.4303 L902.132 49.7694 L894.719 49.7694 M909.586 46.6907 L909.586 72.576 L902.132 72.576 L902.132 65.6895 Q899.58 69.8214 895.772 71.8063 Q891.964 73.7508 886.455 73.7508 Q879.487 73.7508 875.356 69.8619 Q871.264 65.9325 871.264 59.3701 Q871.264 51.7138 876.368 47.825 Q881.513 43.9361 891.681 43.9361 L902.132 43.9361 L902.132 43.2069 Q902.132 38.0623 898.729 35.2672 Q895.367 32.4315 889.25 32.4315 Q885.361 32.4315 881.675 33.3632 Q877.989 34.295 874.586 36.1584 L874.586 29.2718 Q878.677 27.692 882.526 26.9223 Q886.374 26.1121 890.02 26.1121 Q899.864 26.1121 904.725 31.2163 Q909.586 36.3204 909.586 46.6907 Z" fill="#000000" fill-rule="evenodd" fill-opacity="1" /><path clip-path="url(#clip500)" d="M 0 0 M957.589 28.9478 L957.589 35.9153 Q954.429 34.1734 951.229 33.3227 Q948.069 32.4315 944.829 32.4315 Q937.577 32.4315 933.567 37.0496 Q929.557 41.6271 929.557 49.9314 Q929.557 58.2358 933.567 62.8538 Q937.577 67.4314 944.829 67.4314 Q948.069 67.4314 951.229 66.5807 Q954.429 65.6895 957.589 63.9476 L957.589 70.8341 Q954.47 72.2924 951.107 73.0216 Q947.786 73.7508 944.018 73.7508 Q933.77 73.7508 927.734 67.3098 Q921.698 60.8689 921.698 49.9314 Q921.698 38.832 927.774 32.472 Q933.891 26.1121 944.504 26.1121 Q947.948 26.1121 951.229 26.8413 Q954.51 27.5299 957.589 28.9478 Z" fill="#000000" fill-rule="evenodd" fill-opacity="1" /><path clip-path="url(#clip500)" d="M 0 0 M1003.2 28.9478 L1003.2 35.9153 Q1000.04 34.1734 996.842 33.3227 Q993.682 32.4315 990.442 32.4315 Q983.191 32.4315 979.18 37.0496 Q975.17 41.6271 975.17 49.9314 Q975.17 58.2358 979.18 62.8538 Q983.191 67.4314 990.442 67.4314 Q993.682 67.4314 996.842 66.5807 Q1000.04 65.6895 1003.2 63.9476 L1003.2 70.8341 Q1000.08 72.2924 996.721 73.0216 Q993.399 73.7508 989.632 73.7508 Q979.383 73.7508 973.347 67.3098 Q967.311 60.8689 967.311 49.9314 Q967.311 38.832 973.387 32.472 Q979.504 26.1121 990.118 26.1121 Q993.561 26.1121 996.842 26.8413 Q1000.12 27.5299 1003.2 28.9478 Z" fill="#000000" fill-rule="evenodd" fill-opacity="1" /><path clip-path="url(#clip500)" d="M 0 0 M1054.97 48.0275 L1054.97 51.6733 L1020.7 51.6733 Q1021.19 59.3701 1025.32 63.421 Q1029.49 67.4314 1036.91 67.4314 Q1041.2 67.4314 1045.21 66.3781 Q1049.26 65.3249 1053.23 63.2184 L1053.23 70.267 Q1049.22 71.9684 1045.01 72.8596 Q1040.79 73.7508 1036.46 73.7508 Q1025.6 73.7508 1019.24 67.4314 Q1012.92 61.1119 1012.92 50.3365 Q1012.92 39.1965 1018.92 32.6746 Q1024.96 26.1121 1035.16 26.1121 Q1044.32 26.1121 1049.63 32.0264 Q1054.97 37.9003 1054.97 48.0275 M1047.52 45.84 Q1047.44 39.7232 1044.08 36.0774 Q1040.75 32.4315 1035.24 32.4315 Q1029.01 32.4315 1025.24 35.9558 Q1021.51 39.4801 1020.95 45.8805 L1047.52 45.84 Z" fill="#000000" fill-rule="evenodd" fill-opacity="1" /><path clip-path="url(#clip500)" d="M 0 0 M1067.21 9.54393 L1074.66 9.54393 L1074.66 72.576 L1067.21 72.576 L1067.21 9.54393 Z" fill="#000000" fill-rule="evenodd" fill-opacity="1" /><path clip-path="url(#clip500)" d="M 0 0 M1129.06 48.0275 L1129.06 51.6733 L1094.79 51.6733 Q1095.28 59.3701 1099.41 63.421 Q1103.58 67.4314 1111 67.4314 Q1115.29 67.4314 1119.3 66.3781 Q1123.35 65.3249 1127.32 63.2184 L1127.32 70.267 Q1123.31 71.9684 1119.1 72.8596 Q1114.89 73.7508 1110.55 73.7508 Q1099.69 73.7508 1093.33 67.4314 Q1087.02 61.1119 1087.02 50.3365 Q1087.02 39.1965 1093.01 32.6746 Q1099.05 26.1121 1109.25 26.1121 Q1118.41 26.1121 1123.72 32.0264 Q1129.06 37.9003 1129.06 48.0275 M1121.61 45.84 Q1121.53 39.7232 1118.17 36.0774 Q1114.84 32.4315 1109.34 32.4315 Q1103.1 32.4315 1099.33 35.9558 Q1095.6 39.4801 1095.04 45.8805 L1121.61 45.84 Z" fill="#000000" fill-rule="evenodd" fill-opacity="1" /><path clip-path="url(#clip500)" d="M 0 0 M1167.59 34.1734 Q1166.33 33.4443 1164.83 33.1202 Q1163.37 32.7556 1161.59 32.7556 Q1155.27 32.7556 1151.87 36.8875 Q1148.51 40.9789 1148.51 48.6757 L1148.51 72.576 L1141.01 72.576 L1141.01 27.2059 L1148.51 27.2059 L1148.51 34.2544 Q1150.86 30.1225 1154.62 28.1376 Q1158.39 26.1121 1163.78 26.1121 Q1164.55 26.1121 1165.48 26.2337 Q1166.41 26.3147 1167.55 26.5172 L1167.59 34.1734 Z" fill="#000000" fill-rule="evenodd" fill-opacity="1" /><path clip-path="url(#clip500)" d="M 0 0 M1196.03 49.7694 Q1186.99 49.7694 1183.51 51.8354 Q1180.02 53.9013 1180.02 58.8839 Q1180.02 62.8538 1182.62 65.2034 Q1185.25 67.5124 1189.75 67.5124 Q1195.94 67.5124 1199.67 63.1374 Q1203.44 58.7219 1203.44 51.4303 L1203.44 49.7694 L1196.03 49.7694 M1210.89 46.6907 L1210.89 72.576 L1203.44 72.576 L1203.44 65.6895 Q1200.89 69.8214 1197.08 71.8063 Q1193.27 73.7508 1187.76 73.7508 Q1180.79 73.7508 1176.66 69.8619 Q1172.57 65.9325 1172.57 59.3701 Q1172.57 51.7138 1177.67 47.825 Q1182.82 43.9361 1192.99 43.9361 L1203.44 43.9361 L1203.44 43.2069 Q1203.44 38.0623 1200.04 35.2672 Q1196.67 32.4315 1190.56 32.4315 Q1186.67 32.4315 1182.98 33.3632 Q1179.29 34.295 1175.89 36.1584 L1175.89 29.2718 Q1179.98 27.692 1183.83 26.9223 Q1187.68 26.1121 1191.33 26.1121 Q1201.17 26.1121 1206.03 31.2163 Q1210.89 36.3204 1210.89 46.6907 Z" fill="#000000" fill-rule="evenodd" fill-opacity="1" /><path clip-path="url(#clip500)" d="M 0 0 M1233.62 14.324 L1233.62 27.2059 L1248.97 27.2059 L1248.97 32.9987 L1233.62 32.9987 L1233.62 57.6282 Q1233.62 63.1779 1235.12 64.7578 Q1236.66 66.3376 1241.31 66.3376 L1248.97 66.3376 L1248.97 72.576 L1241.31 72.576 Q1232.69 72.576 1229.4 69.3758 Q1226.12 66.1351 1226.12 57.6282 L1226.12 32.9987 L1220.65 32.9987 L1220.65 27.2059 L1226.12 27.2059 L1226.12 14.324 L1233.62 14.324 Z" fill="#000000" fill-rule="evenodd" fill-opacity="1" /><path clip-path="url(#clip500)" d="M 0 0 M1258.77 27.2059 L1266.23 27.2059 L1266.23 72.576 L1258.77 72.576 L1258.77 27.2059 M1258.77 9.54393 L1266.23 9.54393 L1266.23 18.9825 L1258.77 18.9825 L1258.77 9.54393 Z" fill="#000000" fill-rule="evenodd" fill-opacity="1" /><path clip-path="url(#clip500)" d="M 0 0 M1299.4 32.4315 Q1293.41 32.4315 1289.93 37.1306 Q1286.44 41.7891 1286.44 49.9314 Q1286.44 58.0738 1289.88 62.7728 Q1293.37 67.4314 1299.4 67.4314 Q1305.36 67.4314 1308.84 62.7323 Q1312.33 58.0333 1312.33 49.9314 Q1312.33 41.8701 1308.84 37.1711 Q1305.36 32.4315 1299.4 32.4315 M1299.4 26.1121 Q1309.13 26.1121 1314.68 32.4315 Q1320.23 38.7509 1320.23 49.9314 Q1320.23 61.0714 1314.68 67.4314 Q1309.13 73.7508 1299.4 73.7508 Q1289.64 73.7508 1284.09 67.4314 Q1278.58 61.0714 1278.58 49.9314 Q1278.58 38.7509 1284.09 32.4315 Q1289.64 26.1121 1299.4 26.1121 Z" fill="#000000" fill-rule="evenodd" fill-opacity="1" /><path clip-path="url(#clip500)" d="M 0 0 M1370.3 45.1919 L1370.3 72.576 L1362.84 72.576 L1362.84 45.4349 Q1362.84 38.994 1360.33 35.7938 Q1357.82 32.5936 1352.8 32.5936 Q1346.76 32.5936 1343.28 36.4419 Q1339.79 40.2903 1339.79 46.9338 L1339.79 72.576 L1332.3 72.576 L1332.3 27.2059 L1339.79 27.2059 L1339.79 34.2544 Q1342.47 30.163 1346.07 28.1376 Q1349.72 26.1121 1354.46 26.1121 Q1362.27 26.1121 1366.28 30.9732 Q1370.3 35.7938 1370.3 45.1919 Z" fill="#000000" fill-rule="evenodd" fill-opacity="1" /><path clip-path="url(#clip500)" d="M 0 0 M1437.82 34.1734 Q1436.57 33.4443 1435.07 33.1202 Q1433.61 32.7556 1431.83 32.7556 Q1425.51 32.7556 1422.11 36.8875 Q1418.74 40.9789 1418.74 48.6757 L1418.74 72.576 L1411.25 72.576 L1411.25 27.2059 L1418.74 27.2059 L1418.74 34.2544 Q1421.09 30.1225 1424.86 28.1376 Q1428.63 26.1121 1434.02 26.1121 Q1434.79 26.1121 1435.72 26.2337 Q1436.65 26.3147 1437.78 26.5172 L1437.82 34.1734 Z" fill="#000000" fill-rule="evenodd" fill-opacity="1" /><path clip-path="url(#clip500)" d="M 0 0 M1466.26 49.7694 Q1457.23 49.7694 1453.74 51.8354 Q1450.26 53.9013 1450.26 58.8839 Q1450.26 62.8538 1452.85 65.2034 Q1455.49 67.5124 1459.98 67.5124 Q1466.18 67.5124 1469.91 63.1374 Q1473.67 58.7219 1473.67 51.4303 L1473.67 49.7694 L1466.26 49.7694 M1481.13 46.6907 L1481.13 72.576 L1473.67 72.576 L1473.67 65.6895 Q1471.12 69.8214 1467.31 71.8063 Q1463.51 73.7508 1458 73.7508 Q1451.03 73.7508 1446.9 69.8619 Q1442.81 65.9325 1442.81 59.3701 Q1442.81 51.7138 1447.91 47.825 Q1453.05 43.9361 1463.22 43.9361 L1473.67 43.9361 L1473.67 43.2069 Q1473.67 38.0623 1470.27 35.2672 Q1466.91 32.4315 1460.79 32.4315 Q1456.9 32.4315 1453.22 33.3632 Q1449.53 34.295 1446.13 36.1584 L1446.13 29.2718 Q1450.22 27.692 1454.07 26.9223 Q1457.92 26.1121 1461.56 26.1121 Q1471.41 26.1121 1476.27 31.2163 Q1481.13 36.3204 1481.13 46.6907 Z" fill="#000000" fill-rule="evenodd" fill-opacity="1" /><path clip-path="url(#clip500)" d="M 0 0 M1503.85 14.324 L1503.85 27.2059 L1519.21 27.2059 L1519.21 32.9987 L1503.85 32.9987 L1503.85 57.6282 Q1503.85 63.1779 1505.35 64.7578 Q1506.89 66.3376 1511.55 66.3376 L1519.21 66.3376 L1519.21 72.576 L1511.55 72.576 Q1502.92 72.576 1499.64 69.3758 Q1496.36 66.1351 1496.36 57.6282 L1496.36 32.9987 L1490.89 32.9987 L1490.89 27.2059 L1496.36 27.2059 L1496.36 14.324 L1503.85 14.324 Z" fill="#000000" fill-rule="evenodd" fill-opacity="1" /><path clip-path="url(#clip500)" d="M 0 0 M1529.01 27.2059 L1536.46 27.2059 L1536.46 72.576 L1529.01 72.576 L1529.01 27.2059 M1529.01 9.54393 L1536.46 9.54393 L1536.46 18.9825 L1529.01 18.9825 L1529.01 9.54393 Z" fill="#000000" fill-rule="evenodd" fill-opacity="1" /><path clip-path="url(#clip500)" d="M 0 0 M1569.64 32.4315 Q1563.64 32.4315 1560.16 37.1306 Q1556.68 41.7891 1556.68 49.9314 Q1556.68 58.0738 1560.12 62.7728 Q1563.6 67.4314 1569.64 67.4314 Q1575.59 67.4314 1579.08 62.7323 Q1582.56 58.0333 1582.56 49.9314 Q1582.56 41.8701 1579.08 37.1711 Q1575.59 32.4315 1569.64 32.4315 M1569.64 26.1121 Q1579.36 26.1121 1584.91 32.4315 Q1590.46 38.7509 1590.46 49.9314 Q1590.46 61.0714 1584.91 67.4314 Q1579.36 73.7508 1569.64 73.7508 Q1559.88 73.7508 1554.33 67.4314 Q1548.82 61.0714 1548.82 49.9314 Q1548.82 38.7509 1554.33 32.4315 Q1559.88 26.1121 1569.64 26.1121 Z" fill="#000000" fill-rule="evenodd" fill-opacity="1" /><path clip-path="url(#clip500)" d="M 0 0 M1600.59 46.5287 L1622.42 46.5287 L1622.42 53.1722 L1600.59 53.1722 L1600.59 46.5287 Z" fill="#000000" fill-rule="evenodd" fill-opacity="1" /><path clip-path="url(#clip500)" d="M 0 0 M1642.8 18.8205 L1642.8 65.8515 L1652.68 65.8515 Q1665.2 65.8515 1670.99 60.1802 Q1676.83 54.509 1676.83 42.2752 Q1676.83 30.1225 1670.99 24.4918 Q1665.2 18.8205 1652.68 18.8205 L1642.8 18.8205 M1634.62 12.096 L1651.43 12.096 Q1669.01 12.096 1677.23 19.4281 Q1685.46 26.7198 1685.46 42.2752 Q1685.46 57.9117 1677.19 65.2439 Q1668.93 72.576 1651.43 72.576 L1634.62 72.576 L1634.62 12.096 Z" fill="#000000" fill-rule="evenodd" fill-opacity="1" /><polyline clip-path="url(#clip502)" style="stroke:#009af9; stroke-width:12; stroke-opacity:1; fill:none" stroke-dasharray="48, 24, 6, 24, 6, 24" points="
  264.778,1386.4 518.174,1374.78 771.569,1360.44 1024.96,1339.31 1278.36,1324.73 1531.76,1312.89 1785.15,1293.3 2038.55,1271.28 2291.94,1251.85 
  "/>
<polyline clip-path="url(#clip502)" style="stroke:#e26f46; stroke-width:12; stroke-opacity:1; fill:none" stroke-dasharray="48, 24, 6, 24, 6, 24" points="
  264.778,1349.63 518.174,1313.16 771.569,1268.95 1024.96,1217.35 1278.36,1142.3 1531.76,1049.14 1785.15,860.4 2038.55,428.668 2291.94,160.256 
  "/>
<path clip-path="url(#clip500)" d="
M275.59 348.236 L626.775 348.236 L626.775 166.796 L275.59 166.796  Z
  " fill="#ffffff" fill-rule="evenodd" fill-opacity="1"/>
<polyline clip-path="url(#clip500)" style="stroke:#000000; stroke-width:4; stroke-opacity:1; fill:none" points="
  275.59,348.236 626.775,348.236 626.775,166.796 275.59,166.796 275.59,348.236 
  "/>
<polyline clip-path="url(#clip500)" style="stroke:#009af9; stroke-width:4; stroke-opacity:1; fill:none" stroke-dasharray="16, 8, 2, 8, 2, 8" points="
  299.465,227.276 442.718,227.276 
  "/>
<path clip-path="url(#clip500)" d="M 0 0 M485.506 222.565 L485.506 208.537 L489.765 208.537 L489.765 244.556 L485.506 244.556 L485.506 240.667 Q484.163 242.982 482.103 244.116 Q480.066 245.227 477.196 245.227 Q472.496 245.227 469.534 241.477 Q466.594 237.727 466.594 231.616 Q466.594 225.505 469.534 221.755 Q472.496 218.005 477.196 218.005 Q480.066 218.005 482.103 219.139 Q484.163 220.25 485.506 222.565 M470.992 231.616 Q470.992 236.315 472.913 239 Q474.858 241.662 478.237 241.662 Q481.617 241.662 483.561 239 Q485.506 236.315 485.506 231.616 Q485.506 226.917 483.561 224.255 Q481.617 221.57 478.237 221.57 Q474.858 221.57 472.913 224.255 Q470.992 226.917 470.992 231.616 Z" fill="#000000" fill-rule="evenodd" fill-opacity="1" /><path clip-path="url(#clip500)" d="M 0 0 M499.094 223.028 L528.769 223.028 L528.769 226.917 L499.094 226.917 L499.094 223.028 M499.094 232.472 L528.769 232.472 L528.769 236.408 L499.094 236.408 L499.094 232.472 Z" fill="#000000" fill-rule="evenodd" fill-opacity="1" /><path clip-path="url(#clip500)" d="M 0 0 M551.709 214.07 L539.904 232.519 L551.709 232.519 L551.709 214.07 M550.482 209.996 L556.362 209.996 L556.362 232.519 L561.292 232.519 L561.292 236.408 L556.362 236.408 L556.362 244.556 L551.709 244.556 L551.709 236.408 L536.107 236.408 L536.107 231.894 L550.482 209.996 Z" fill="#000000" fill-rule="evenodd" fill-opacity="1" /><polyline clip-path="url(#clip500)" style="stroke:#e26f46; stroke-width:4; stroke-opacity:1; fill:none" stroke-dasharray="16, 8, 2, 8, 2, 8" points="
  299.465,287.756 442.718,287.756 
  "/>
<path clip-path="url(#clip500)" d="M 0 0 M485.506 283.045 L485.506 269.017 L489.765 269.017 L489.765 305.036 L485.506 305.036 L485.506 301.147 Q484.163 303.462 482.103 304.596 Q480.066 305.707 477.196 305.707 Q472.496 305.707 469.534 301.957 Q466.594 298.207 466.594 292.096 Q466.594 285.985 469.534 282.235 Q472.496 278.485 477.196 278.485 Q480.066 278.485 482.103 279.619 Q484.163 280.73 485.506 283.045 M470.992 292.096 Q470.992 296.795 472.913 299.48 Q474.858 302.142 478.237 302.142 Q481.617 302.142 483.561 299.48 Q485.506 296.795 485.506 292.096 Q485.506 287.397 483.561 284.735 Q481.617 282.05 478.237 282.05 Q474.858 282.05 472.913 284.735 Q470.992 287.397 470.992 292.096 Z" fill="#000000" fill-rule="evenodd" fill-opacity="1" /><path clip-path="url(#clip500)" d="M 0 0 M499.094 283.508 L528.769 283.508 L528.769 287.397 L499.094 287.397 L499.094 283.508 M499.094 292.952 L528.769 292.952 L528.769 296.888 L499.094 296.888 L499.094 292.952 Z" fill="#000000" fill-rule="evenodd" fill-opacity="1" /><path clip-path="url(#clip500)" d="M 0 0 M539.001 304.318 L539.001 300.059 Q540.76 300.892 542.566 301.332 Q544.371 301.772 546.107 301.772 Q550.737 301.772 553.167 298.67 Q555.621 295.545 555.968 289.202 Q554.626 291.193 552.566 292.258 Q550.505 293.323 548.005 293.323 Q542.82 293.323 539.788 290.198 Q536.779 287.05 536.779 281.61 Q536.779 276.286 539.927 273.068 Q543.075 269.851 548.306 269.851 Q554.302 269.851 557.45 274.457 Q560.621 279.04 560.621 287.79 Q560.621 295.962 556.732 300.846 Q552.866 305.707 546.316 305.707 Q544.556 305.707 542.751 305.36 Q540.945 305.013 539.001 304.318 M548.306 289.665 Q551.454 289.665 553.283 287.513 Q555.135 285.36 555.135 281.61 Q555.135 277.883 553.283 275.73 Q551.454 273.554 548.306 273.554 Q545.158 273.554 543.306 275.73 Q541.478 277.883 541.478 281.61 Q541.478 285.36 543.306 287.513 Q545.158 289.665 548.306 289.665 Z" fill="#000000" fill-rule="evenodd" fill-opacity="1" /></svg>
