<?xml version="1.0" encoding="utf-8"?>
<svg xmlns="http://www.w3.org/2000/svg" xmlns:xlink="http://www.w3.org/1999/xlink" width="600" height="400" viewBox="0 0 2400 1600">
<defs>
  <clipPath id="clip420">
    <rect x="0" y="0" width="2400" height="1600"/>
  </clipPath>
</defs>
<path clip-path="url(#clip420)" d="
M0 1600 L2400 1600 L2400 0 L0 0  Z
  " fill="#ffffff" fill-rule="evenodd" fill-opacity="1"/>
<defs>
  <clipPath id="clip421">
    <rect x="480" y="0" width="1681" height="1600"/>
  </clipPath>
</defs>
<path clip-path="url(#clip420)" d="
M235.283 1423.18 L2352.76 1423.18 L2352.76 123.472 L235.283 123.472  Z
  " fill="#ffffff" fill-rule="evenodd" fill-opacity="1"/>
<defs>
  <clipPath id="clip422">
    <rect x="235" y="123" width="2118" height="1301"/>
  </clipPath>
</defs>
<polyline clip-path="url(#clip422)" style="stroke:#000000; stroke-width:2; stroke-opacity:0.1; fill:none" points="
  295.211,1423.18 295.211,123.472 
  "/>
<polyline clip-path="url(#clip422)" style="stroke:#000000; stroke-width:2; stroke-opacity:0.1; fill:none" points="
  794.615,1423.18 794.615,123.472 
  "/>
<polyline clip-path="url(#clip422)" style="stroke:#000000; stroke-width:2; stroke-opacity:0.1; fill:none" points="
  1294.02,1423.18 1294.02,123.472 
  "/>
<polyline clip-path="url(#clip422)" style="stroke:#000000; stroke-width:2; stroke-opacity:0.1; fill:none" points="
  1793.42,1423.18 1793.42,123.472 
  "/>
<polyline clip-path="url(#clip422)" style="stroke:#000000; stroke-width:2; stroke-opacity:0.1; fill:none" points="
  2292.83,1423.18 2292.83,123.472 
  "/>
<polyline clip-path="url(#clip420)" style="stroke:#000000; stroke-width:4; stroke-opacity:1; fill:none" points="
  235.283,1423.18 2352.76,1423.18 
  "/>
<polyline clip-path="url(#clip420)" style="stroke:#000000; stroke-width:4; stroke-opacity:1; fill:none" points="
  295.211,1423.18 295.211,1407.58 
  "/>
<polyline clip-path="url(#clip420)" style="stroke:#000000; stroke-width:4; stroke-opacity:1; fill:none" points="
  794.615,1423.18 794.615,1407.58 
  "/>
<polyline clip-path="url(#clip420)" style="stroke:#000000; stroke-width:4; stroke-opacity:1; fill:none" points="
  1294.02,1423.18 1294.02,1407.58 
  "/>
<polyline clip-path="url(#clip420)" style="stroke:#000000; stroke-width:4; stroke-opacity:1; fill:none" points="
  1793.42,1423.18 1793.42,1407.58 
  "/>
<polyline clip-path="url(#clip420)" style="stroke:#000000; stroke-width:4; stroke-opacity:1; fill:none" points="
  2292.83,1423.18 2292.83,1407.58 
  "/>
<path clip-path="url(#clip420)" d="M 0 0 M269.899 1479.92 L277.538 1479.92 L277.538 1453.55 L269.228 1455.22 L269.228 1450.96 L277.492 1449.29 L282.167 1449.29 L282.167 1479.92 L289.806 1479.92 L289.806 1483.85 L269.899 1483.85 L269.899 1479.92 Z" fill="#000000" fill-rule="evenodd" fill-opacity="1" /><path clip-path="url(#clip420)" d="M 0 0 M309.251 1452.37 Q305.64 1452.37 303.811 1455.94 Q302.005 1459.48 302.005 1466.61 Q302.005 1473.71 303.811 1477.28 Q305.64 1480.82 309.251 1480.82 Q312.885 1480.82 314.69 1477.28 Q316.519 1473.71 316.519 1466.61 Q316.519 1459.48 314.69 1455.94 Q312.885 1452.37 309.251 1452.37 M309.251 1448.67 Q315.061 1448.67 318.116 1453.27 Q321.195 1457.86 321.195 1466.61 Q321.195 1475.33 318.116 1479.94 Q315.061 1484.52 309.251 1484.52 Q303.44 1484.52 300.362 1479.94 Q297.306 1475.33 297.306 1466.61 Q297.306 1457.86 300.362 1453.27 Q303.44 1448.67 309.251 1448.67 Z" fill="#000000" fill-rule="evenodd" fill-opacity="1" /><path clip-path="url(#clip420)" d="M 0 0 M773.389 1479.92 L789.708 1479.92 L789.708 1483.85 L767.764 1483.85 L767.764 1479.92 Q770.426 1477.16 775.009 1472.53 Q779.615 1467.88 780.796 1466.54 Q783.041 1464.01 783.921 1462.28 Q784.824 1460.52 784.824 1458.83 Q784.824 1456.07 782.879 1454.34 Q780.958 1452.6 777.856 1452.6 Q775.657 1452.6 773.203 1453.37 Q770.773 1454.13 767.995 1455.68 L767.995 1450.96 Q770.819 1449.82 773.273 1449.25 Q775.727 1448.67 777.764 1448.67 Q783.134 1448.67 786.328 1451.35 Q789.523 1454.04 789.523 1458.53 Q789.523 1460.66 788.713 1462.58 Q787.926 1464.48 785.819 1467.07 Q785.24 1467.74 782.139 1470.96 Q779.037 1474.15 773.389 1479.92 Z" fill="#000000" fill-rule="evenodd" fill-opacity="1" /><path clip-path="url(#clip420)" d="M 0 0 M809.523 1452.37 Q805.912 1452.37 804.083 1455.94 Q802.277 1459.48 802.277 1466.61 Q802.277 1473.71 804.083 1477.28 Q805.912 1480.82 809.523 1480.82 Q813.157 1480.82 814.962 1477.28 Q816.791 1473.71 816.791 1466.61 Q816.791 1459.48 814.962 1455.94 Q813.157 1452.37 809.523 1452.37 M809.523 1448.67 Q815.333 1448.67 818.388 1453.27 Q821.467 1457.86 821.467 1466.61 Q821.467 1475.33 818.388 1479.94 Q815.333 1484.52 809.523 1484.52 Q803.713 1484.52 800.634 1479.94 Q797.578 1475.33 797.578 1466.61 Q797.578 1457.86 800.634 1453.27 Q803.713 1448.67 809.523 1448.67 Z" fill="#000000" fill-rule="evenodd" fill-opacity="1" /><path clip-path="url(#clip420)" d="M 0 0 M1282.86 1465.22 Q1286.22 1465.94 1288.09 1468.2 Q1289.99 1470.47 1289.99 1473.81 Q1289.99 1478.92 1286.47 1481.72 Q1282.95 1484.52 1276.47 1484.52 Q1274.3 1484.52 1271.98 1484.08 Q1269.69 1483.67 1267.24 1482.81 L1267.24 1478.3 Q1269.18 1479.43 1271.5 1480.01 Q1273.81 1480.59 1276.33 1480.59 Q1280.73 1480.59 1283.02 1478.85 Q1285.34 1477.12 1285.34 1473.81 Q1285.34 1470.75 1283.19 1469.04 Q1281.06 1467.3 1277.24 1467.3 L1273.21 1467.3 L1273.21 1463.46 L1277.42 1463.46 Q1280.87 1463.46 1282.7 1462.09 Q1284.53 1460.7 1284.53 1458.11 Q1284.53 1455.45 1282.63 1454.04 Q1280.76 1452.6 1277.24 1452.6 Q1275.32 1452.6 1273.12 1453.02 Q1270.92 1453.44 1268.28 1454.31 L1268.28 1450.15 Q1270.94 1449.41 1273.26 1449.04 Q1275.59 1448.67 1277.65 1448.67 Q1282.98 1448.67 1286.08 1451.1 Q1289.18 1453.5 1289.18 1457.63 Q1289.18 1460.5 1287.54 1462.49 Q1285.89 1464.45 1282.86 1465.22 Z" fill="#000000" fill-rule="evenodd" fill-opacity="1" /><path clip-path="url(#clip420)" d="M 0 0 M1308.86 1452.37 Q1305.25 1452.37 1303.42 1455.94 Q1301.61 1459.48 1301.61 1466.61 Q1301.61 1473.71 1303.42 1477.28 Q1305.25 1480.82 1308.86 1480.82 Q1312.49 1480.82 1314.3 1477.28 Q1316.13 1473.71 1316.13 1466.61 Q1316.13 1459.48 1314.3 1455.94 Q1312.49 1452.37 1308.86 1452.37 M1308.86 1448.67 Q1314.67 1448.67 1317.72 1453.27 Q1320.8 1457.86 1320.8 1466.61 Q1320.8 1475.33 1317.72 1479.94 Q1314.67 1484.52 1308.86 1484.52 Q1303.05 1484.52 1299.97 1479.94 Q1296.91 1475.33 1296.91 1466.61 Q1296.91 1457.86 1299.97 1453.27 Q1303.05 1448.67 1308.86 1448.67 Z" fill="#000000" fill-rule="evenodd" fill-opacity="1" /><path clip-path="url(#clip420)" d="M 0 0 M1781.59 1453.37 L1769.79 1471.81 L1781.59 1471.81 L1781.59 1453.37 M1780.37 1449.29 L1786.25 1449.29 L1786.25 1471.81 L1791.18 1471.81 L1791.18 1475.7 L1786.25 1475.7 L1786.25 1483.85 L1781.59 1483.85 L1781.59 1475.7 L1765.99 1475.7 L1765.99 1471.19 L1780.37 1449.29 Z" fill="#000000" fill-rule="evenodd" fill-opacity="1" /><path clip-path="url(#clip420)" d="M 0 0 M1808.91 1452.37 Q1805.3 1452.37 1803.47 1455.94 Q1801.66 1459.48 1801.66 1466.61 Q1801.66 1473.71 1803.47 1477.28 Q1805.3 1480.82 1808.91 1480.82 Q1812.54 1480.82 1814.35 1477.28 Q1816.18 1473.71 1816.18 1466.61 Q1816.18 1459.48 1814.35 1455.94 Q1812.54 1452.37 1808.91 1452.37 M1808.91 1448.67 Q1814.72 1448.67 1817.78 1453.27 Q1820.85 1457.86 1820.85 1466.61 Q1820.85 1475.33 1817.78 1479.94 Q1814.72 1484.52 1808.91 1484.52 Q1803.1 1484.52 1800.02 1479.94 Q1796.97 1475.33 1796.97 1466.61 Q1796.97 1457.86 1800.02 1453.27 Q1803.1 1448.67 1808.91 1448.67 Z" fill="#000000" fill-rule="evenodd" fill-opacity="1" /><path clip-path="url(#clip420)" d="M 0 0 M2267.53 1449.29 L2285.88 1449.29 L2285.88 1453.23 L2271.81 1453.23 L2271.81 1461.7 Q2272.83 1461.35 2273.85 1461.19 Q2274.86 1461 2275.88 1461 Q2281.67 1461 2285.05 1464.18 Q2288.43 1467.35 2288.43 1472.76 Q2288.43 1478.34 2284.96 1481.44 Q2281.48 1484.52 2275.17 1484.52 Q2272.99 1484.52 2270.72 1484.15 Q2268.48 1483.78 2266.07 1483.04 L2266.07 1478.34 Q2268.15 1479.48 2270.37 1480.03 Q2272.6 1480.59 2275.07 1480.59 Q2279.08 1480.59 2281.42 1478.48 Q2283.75 1476.38 2283.75 1472.76 Q2283.75 1469.15 2281.42 1467.05 Q2279.08 1464.94 2275.07 1464.94 Q2273.2 1464.94 2271.32 1465.36 Q2269.47 1465.77 2267.53 1466.65 L2267.53 1449.29 Z" fill="#000000" fill-rule="evenodd" fill-opacity="1" /><path clip-path="url(#clip420)" d="M 0 0 M2307.64 1452.37 Q2304.03 1452.37 2302.2 1455.94 Q2300.4 1459.48 2300.4 1466.61 Q2300.4 1473.71 2302.2 1477.28 Q2304.03 1480.82 2307.64 1480.82 Q2311.28 1480.82 2313.08 1477.28 Q2314.91 1473.71 2314.91 1466.61 Q2314.91 1459.48 2313.08 1455.94 Q2311.28 1452.37 2307.64 1452.37 M2307.64 1448.67 Q2313.45 1448.67 2316.51 1453.27 Q2319.59 1457.86 2319.59 1466.61 Q2319.59 1475.33 2316.51 1479.94 Q2313.45 1484.52 2307.64 1484.52 Q2301.83 1484.52 2298.75 1479.94 Q2295.7 1475.33 2295.7 1466.61 Q2295.7 1457.86 2298.75 1453.27 Q2301.83 1448.67 2307.64 1448.67 Z" fill="#000000" fill-rule="evenodd" fill-opacity="1" /><path clip-path="url(#clip420)" d="M 0 0 M1280.48 1525.81 L1280.48 1562.76 L1288.24 1562.76 Q1298.08 1562.76 1302.63 1558.3 Q1307.21 1553.85 1307.21 1544.24 Q1307.21 1534.69 1302.63 1530.26 Q1298.08 1525.81 1288.24 1525.81 L1280.48 1525.81 M1274.05 1520.52 L1287.26 1520.52 Q1301.07 1520.52 1307.53 1526.28 Q1313.99 1532.01 1313.99 1544.24 Q1313.99 1556.52 1307.5 1562.28 Q1301.01 1568.04 1287.26 1568.04 L1274.05 1568.04 L1274.05 1520.52 Z" fill="#000000" fill-rule="evenodd" fill-opacity="1" /><polyline clip-path="url(#clip422)" style="stroke:#000000; stroke-width:2; stroke-opacity:0.1; fill:none" points="
  235.283,1388.36 2352.76,1388.36 
  "/>
<polyline clip-path="url(#clip422)" style="stroke:#000000; stroke-width:2; stroke-opacity:0.1; fill:none" points="
  235.283,1168.85 2352.76,1168.85 
  "/>
<polyline clip-path="url(#clip422)" style="stroke:#000000; stroke-width:2; stroke-opacity:0.1; fill:none" points="
  235.283,949.339 2352.76,949.339 
  "/>
<polyline clip-path="url(#clip422)" style="stroke:#000000; stroke-width:2; stroke-opacity:0.1; fill:none" points="
  235.283,729.828 2352.76,729.828 
  "/>
<polyline clip-path="url(#clip422)" style="stroke:#000000; stroke-width:2; stroke-opacity:0.1; fill:none" points="
  235.283,510.318 2352.76,510.318 
  "/>
<polyline clip-path="url(#clip422)" style="stroke:#000000; stroke-width:2; stroke-opacity:0.1; fill:none" points="
  235.283,290.808 2352.76,290.808 
  "/>
<polyline clip-path="url(#clip420)" style="stroke:#000000; stroke-width:4; stroke-opacity:1; fill:none" points="
  235.283,1423.18 235.283,123.472 
  "/>
<polyline clip-path="url(#clip420)" style="stroke:#000000; stroke-width:4; stroke-opacity:1; fill:none" points="
  235.283,1388.36 260.693,1388.36 
  "/>
<polyline clip-path="url(#clip420)" style="stroke:#000000; stroke-width:4; stroke-opacity:1; fill:none" points="
  235.283,1168.85 260.693,1168.85 
  "/>
<polyline clip-path="url(#clip420)" style="stroke:#000000; stroke-width:4; stroke-opacity:1; fill:none" points="
  235.283,949.339 260.693,949.339 
  "/>
<polyline clip-path="url(#clip420)" style="stroke:#000000; stroke-width:4; stroke-opacity:1; fill:none" points="
  235.283,729.828 260.693,729.828 
  "/>
<polyline clip-path="url(#clip420)" style="stroke:#000000; stroke-width:4; stroke-opacity:1; fill:none" points="
  235.283,510.318 260.693,510.318 
  "/>
<polyline clip-path="url(#clip420)" style="stroke:#000000; stroke-width:4; stroke-opacity:1; fill:none" points="
  235.283,290.808 260.693,290.808 
  "/>
<path clip-path="url(#clip420)" d="M 0 0 M187.338 1374.16 Q183.727 1374.16 181.899 1377.72 Q180.093 1381.26 180.093 1388.39 Q180.093 1395.5 181.899 1399.07 Q183.727 1402.61 187.338 1402.61 Q190.973 1402.61 192.778 1399.07 Q194.607 1395.5 194.607 1388.39 Q194.607 1381.26 192.778 1377.72 Q190.973 1374.16 187.338 1374.16 M187.338 1370.45 Q193.149 1370.45 196.204 1375.06 Q199.283 1379.64 199.283 1388.39 Q199.283 1397.12 196.204 1401.73 Q193.149 1406.31 187.338 1406.31 Q181.528 1406.31 178.45 1401.73 Q175.394 1397.12 175.394 1388.39 Q175.394 1379.64 178.45 1375.06 Q181.528 1370.45 187.338 1370.45 Z" fill="#000000" fill-rule="evenodd" fill-opacity="1" /><path clip-path="url(#clip420)" d="M 0 0 M117.825 1182.19 L125.464 1182.19 L125.464 1155.83 L117.154 1157.49 L117.154 1153.24 L125.418 1151.57 L130.093 1151.57 L130.093 1182.19 L137.732 1182.19 L137.732 1186.13 L117.825 1186.13 L117.825 1182.19 Z" fill="#000000" fill-rule="evenodd" fill-opacity="1" /><path clip-path="url(#clip420)" d="M 0 0 M157.177 1154.65 Q153.566 1154.65 151.737 1158.21 Q149.931 1161.75 149.931 1168.88 Q149.931 1175.99 151.737 1179.55 Q153.566 1183.1 157.177 1183.1 Q160.811 1183.1 162.616 1179.55 Q164.445 1175.99 164.445 1168.88 Q164.445 1161.75 162.616 1158.21 Q160.811 1154.65 157.177 1154.65 M157.177 1150.94 Q162.987 1150.94 166.042 1155.55 Q169.121 1160.13 169.121 1168.88 Q169.121 1177.61 166.042 1182.22 Q162.987 1186.8 157.177 1186.8 Q151.366 1186.8 148.288 1182.22 Q145.232 1177.61 145.232 1168.88 Q145.232 1160.13 148.288 1155.55 Q151.366 1150.94 157.177 1150.94 Z" fill="#000000" fill-rule="evenodd" fill-opacity="1" /><path clip-path="url(#clip420)" d="M 0 0 M187.338 1154.65 Q183.727 1154.65 181.899 1158.21 Q180.093 1161.75 180.093 1168.88 Q180.093 1175.99 181.899 1179.55 Q183.727 1183.1 187.338 1183.1 Q190.973 1183.1 192.778 1179.55 Q194.607 1175.99 194.607 1168.88 Q194.607 1161.75 192.778 1158.21 Q190.973 1154.65 187.338 1154.65 M187.338 1150.94 Q193.149 1150.94 196.204 1155.55 Q199.283 1160.13 199.283 1168.88 Q199.283 1177.61 196.204 1182.22 Q193.149 1186.8 187.338 1186.8 Q181.528 1186.8 178.45 1182.22 Q175.394 1177.61 175.394 1168.88 Q175.394 1160.13 178.45 1155.55 Q181.528 1150.94 187.338 1150.94 Z" fill="#000000" fill-rule="evenodd" fill-opacity="1" /><path clip-path="url(#clip420)" d="M 0 0 M121.043 962.683 L137.362 962.683 L137.362 966.619 L115.418 966.619 L115.418 962.683 Q118.08 959.929 122.663 955.299 Q127.269 950.646 128.45 949.304 Q130.695 946.781 131.575 945.045 Q132.478 943.285 132.478 941.596 Q132.478 938.841 130.533 937.105 Q128.612 935.369 125.51 935.369 Q123.311 935.369 120.857 936.133 Q118.427 936.896 115.649 938.447 L115.649 933.725 Q118.473 932.591 120.927 932.012 Q123.38 931.434 125.418 931.434 Q130.788 931.434 133.982 934.119 Q137.177 936.804 137.177 941.295 Q137.177 943.424 136.367 945.345 Q135.579 947.244 133.473 949.836 Q132.894 950.508 129.792 953.725 Q126.691 956.92 121.043 962.683 Z" fill="#000000" fill-rule="evenodd" fill-opacity="1" /><path clip-path="url(#clip420)" d="M 0 0 M157.177 935.137 Q153.566 935.137 151.737 938.702 Q149.931 942.244 149.931 949.373 Q149.931 956.48 151.737 960.044 Q153.566 963.586 157.177 963.586 Q160.811 963.586 162.616 960.044 Q164.445 956.48 164.445 949.373 Q164.445 942.244 162.616 938.702 Q160.811 935.137 157.177 935.137 M157.177 931.434 Q162.987 931.434 166.042 936.04 Q169.121 940.623 169.121 949.373 Q169.121 958.1 166.042 962.707 Q162.987 967.29 157.177 967.29 Q151.366 967.29 148.288 962.707 Q145.232 958.1 145.232 949.373 Q145.232 940.623 148.288 936.04 Q151.366 931.434 157.177 931.434 Z" fill="#000000" fill-rule="evenodd" fill-opacity="1" /><path clip-path="url(#clip420)" d="M 0 0 M187.338 935.137 Q183.727 935.137 181.899 938.702 Q180.093 942.244 180.093 949.373 Q180.093 956.48 181.899 960.044 Q183.727 963.586 187.338 963.586 Q190.973 963.586 192.778 960.044 Q194.607 956.48 194.607 949.373 Q194.607 942.244 192.778 938.702 Q190.973 935.137 187.338 935.137 M187.338 931.434 Q193.149 931.434 196.204 936.04 Q199.283 940.623 199.283 949.373 Q199.283 958.1 196.204 962.707 Q193.149 967.29 187.338 967.29 Q181.528 967.29 178.45 962.707 Q175.394 958.1 175.394 949.373 Q175.394 940.623 178.45 936.04 Q181.528 931.434 187.338 931.434 Z" fill="#000000" fill-rule="evenodd" fill-opacity="1" /><path clip-path="url(#clip420)" d="M 0 0 M131.181 728.474 Q134.538 729.192 136.413 731.46 Q138.311 733.729 138.311 737.062 Q138.311 742.178 134.792 744.979 Q131.274 747.779 124.793 747.779 Q122.617 747.779 120.302 747.34 Q118.01 746.923 115.556 746.067 L115.556 741.553 Q117.501 742.687 119.816 743.266 Q122.13 743.844 124.654 743.844 Q129.052 743.844 131.343 742.108 Q133.658 740.372 133.658 737.062 Q133.658 734.006 131.505 732.293 Q129.376 730.557 125.556 730.557 L121.529 730.557 L121.529 726.715 L125.742 726.715 Q129.191 726.715 131.019 725.349 Q132.848 723.96 132.848 721.368 Q132.848 718.706 130.95 717.294 Q129.075 715.858 125.556 715.858 Q123.635 715.858 121.436 716.275 Q119.237 716.692 116.598 717.571 L116.598 713.405 Q119.26 712.664 121.575 712.294 Q123.913 711.923 125.973 711.923 Q131.297 711.923 134.399 714.354 Q137.501 716.761 137.501 720.881 Q137.501 723.752 135.857 725.743 Q134.214 727.71 131.181 728.474 Z" fill="#000000" fill-rule="evenodd" fill-opacity="1" /><path clip-path="url(#clip420)" d="M 0 0 M157.177 715.627 Q153.566 715.627 151.737 719.192 Q149.931 722.733 149.931 729.863 Q149.931 736.969 151.737 740.534 Q153.566 744.076 157.177 744.076 Q160.811 744.076 162.616 740.534 Q164.445 736.969 164.445 729.863 Q164.445 722.733 162.616 719.192 Q160.811 715.627 157.177 715.627 M157.177 711.923 Q162.987 711.923 166.042 716.53 Q169.121 721.113 169.121 729.863 Q169.121 738.59 166.042 743.196 Q162.987 747.779 157.177 747.779 Q151.366 747.779 148.288 743.196 Q145.232 738.59 145.232 729.863 Q145.232 721.113 148.288 716.53 Q151.366 711.923 157.177 711.923 Z" fill="#000000" fill-rule="evenodd" fill-opacity="1" /><path clip-path="url(#clip420)" d="M 0 0 M187.338 715.627 Q183.727 715.627 181.899 719.192 Q180.093 722.733 180.093 729.863 Q180.093 736.969 181.899 740.534 Q183.727 744.076 187.338 744.076 Q190.973 744.076 192.778 740.534 Q194.607 736.969 194.607 729.863 Q194.607 722.733 192.778 719.192 Q190.973 715.627 187.338 715.627 M187.338 711.923 Q193.149 711.923 196.204 716.53 Q199.283 721.113 199.283 729.863 Q199.283 738.59 196.204 743.196 Q193.149 747.779 187.338 747.779 Q181.528 747.779 178.45 743.196 Q175.394 738.59 175.394 729.863 Q175.394 721.113 178.45 716.53 Q181.528 711.923 187.338 711.923 Z" fill="#000000" fill-rule="evenodd" fill-opacity="1" /><path clip-path="url(#clip420)" d="M 0 0 M129.862 497.112 L118.056 515.561 L129.862 515.561 L129.862 497.112 M128.635 493.038 L134.515 493.038 L134.515 515.561 L139.445 515.561 L139.445 519.45 L134.515 519.45 L134.515 527.598 L129.862 527.598 L129.862 519.45 L114.26 519.45 L114.26 514.936 L128.635 493.038 Z" fill="#000000" fill-rule="evenodd" fill-opacity="1" /><path clip-path="url(#clip420)" d="M 0 0 M157.177 496.117 Q153.566 496.117 151.737 499.681 Q149.931 503.223 149.931 510.353 Q149.931 517.459 151.737 521.024 Q153.566 524.565 157.177 524.565 Q160.811 524.565 162.616 521.024 Q164.445 517.459 164.445 510.353 Q164.445 503.223 162.616 499.681 Q160.811 496.117 157.177 496.117 M157.177 492.413 Q162.987 492.413 166.042 497.019 Q169.121 501.603 169.121 510.353 Q169.121 519.079 166.042 523.686 Q162.987 528.269 157.177 528.269 Q151.366 528.269 148.288 523.686 Q145.232 519.079 145.232 510.353 Q145.232 501.603 148.288 497.019 Q151.366 492.413 157.177 492.413 Z" fill="#000000" fill-rule="evenodd" fill-opacity="1" /><path clip-path="url(#clip420)" d="M 0 0 M187.338 496.117 Q183.727 496.117 181.899 499.681 Q180.093 503.223 180.093 510.353 Q180.093 517.459 181.899 521.024 Q183.727 524.565 187.338 524.565 Q190.973 524.565 192.778 521.024 Q194.607 517.459 194.607 510.353 Q194.607 503.223 192.778 499.681 Q190.973 496.117 187.338 496.117 M187.338 492.413 Q193.149 492.413 196.204 497.019 Q199.283 501.603 199.283 510.353 Q199.283 519.079 196.204 523.686 Q193.149 528.269 187.338 528.269 Q181.528 528.269 178.45 523.686 Q175.394 519.079 175.394 510.353 Q175.394 501.603 178.45 497.019 Q181.528 492.413 187.338 492.413 Z" fill="#000000" fill-rule="evenodd" fill-opacity="1" /><path clip-path="url(#clip420)" d="M 0 0 M117.061 273.528 L135.417 273.528 L135.417 277.463 L121.343 277.463 L121.343 285.935 Q122.362 285.588 123.38 285.426 Q124.399 285.24 125.418 285.24 Q131.205 285.24 134.584 288.412 Q137.964 291.583 137.964 297 Q137.964 302.578 134.492 305.68 Q131.019 308.759 124.7 308.759 Q122.524 308.759 120.255 308.388 Q118.01 308.018 115.603 307.277 L115.603 302.578 Q117.686 303.713 119.908 304.268 Q122.13 304.824 124.607 304.824 Q128.612 304.824 130.95 302.717 Q133.288 300.611 133.288 297 Q133.288 293.389 130.95 291.282 Q128.612 289.176 124.607 289.176 Q122.732 289.176 120.857 289.592 Q119.006 290.009 117.061 290.889 L117.061 273.528 Z" fill="#000000" fill-rule="evenodd" fill-opacity="1" /><path clip-path="url(#clip420)" d="M 0 0 M157.177 276.606 Q153.566 276.606 151.737 280.171 Q149.931 283.713 149.931 290.842 Q149.931 297.949 151.737 301.514 Q153.566 305.055 157.177 305.055 Q160.811 305.055 162.616 301.514 Q164.445 297.949 164.445 290.842 Q164.445 283.713 162.616 280.171 Q160.811 276.606 157.177 276.606 M157.177 272.903 Q162.987 272.903 166.042 277.509 Q169.121 282.092 169.121 290.842 Q169.121 299.569 166.042 304.176 Q162.987 308.759 157.177 308.759 Q151.366 308.759 148.288 304.176 Q145.232 299.569 145.232 290.842 Q145.232 282.092 148.288 277.509 Q151.366 272.903 157.177 272.903 Z" fill="#000000" fill-rule="evenodd" fill-opacity="1" /><path clip-path="url(#clip420)" d="M 0 0 M187.338 276.606 Q183.727 276.606 181.899 280.171 Q180.093 283.713 180.093 290.842 Q180.093 297.949 181.899 301.514 Q183.727 305.055 187.338 305.055 Q190.973 305.055 192.778 301.514 Q194.607 297.949 194.607 290.842 Q194.607 283.713 192.778 280.171 Q190.973 276.606 187.338 276.606 M187.338 272.903 Q193.149 272.903 196.204 277.509 Q199.283 282.092 199.283 290.842 Q199.283 299.569 196.204 304.176 Q193.149 308.759 187.338 308.759 Q181.528 308.759 178.45 304.176 Q175.394 299.569 175.394 290.842 Q175.394 282.092 178.45 277.509 Q181.528 272.903 187.338 272.903 Z" fill="#000000" fill-rule="evenodd" fill-opacity="1" /><path clip-path="url(#clip420)" d="M 0 0 M46.0847 1065.59 Q46.0847 1072.69 47.7079 1075.43 Q49.3312 1078.16 53.2461 1078.16 Q56.3653 1078.16 58.2114 1076.13 Q60.0256 1074.06 60.0256 1070.52 Q60.0256 1065.66 56.5881 1062.73 Q53.1188 1059.77 47.3897 1059.77 L46.0847 1059.77 L46.0847 1065.59 M43.6657 1053.91 L64.0042 1053.91 L64.0042 1059.77 L58.5933 1059.77 Q61.8398 1061.77 63.3994 1064.76 Q64.9272 1067.76 64.9272 1072.08 Q64.9272 1077.56 61.8716 1080.81 Q58.7843 1084.02 53.6281 1084.02 Q47.6125 1084.02 44.5569 1080.01 Q41.5014 1075.97 41.5014 1067.98 L41.5014 1059.77 L40.9285 1059.77 Q36.8862 1059.77 34.6901 1062.44 Q32.4621 1065.08 32.4621 1069.89 Q32.4621 1072.94 33.1941 1075.84 Q33.9262 1078.74 35.3903 1081.41 L29.9795 1081.41 Q28.7381 1078.2 28.1334 1075.17 Q27.4968 1072.15 27.4968 1069.28 Q27.4968 1061.55 31.5072 1057.73 Q35.5176 1053.91 43.6657 1053.91 Z" fill="#000000" fill-rule="evenodd" fill-opacity="1" /><path clip-path="url(#clip420)" d="M 0 0 M29.7248 1016.19 L35.1993 1016.19 Q33.8307 1018.68 33.1623 1021.19 Q32.4621 1023.67 32.4621 1026.22 Q32.4621 1031.92 36.0905 1035.07 Q39.6872 1038.22 46.212 1038.22 Q52.7369 1038.22 56.3653 1035.07 Q59.9619 1031.92 59.9619 1026.22 Q59.9619 1023.67 59.2935 1021.19 Q58.5933 1018.68 57.2247 1016.19 L62.6355 1016.19 Q63.7814 1018.64 64.3543 1021.29 Q64.9272 1023.9 64.9272 1026.86 Q64.9272 1034.91 59.8664 1039.65 Q54.8057 1044.39 46.212 1044.39 Q37.491 1044.39 32.4939 1039.62 Q27.4968 1034.81 27.4968 1026.47 Q27.4968 1023.77 28.0697 1021.19 Q28.6108 1018.61 29.7248 1016.19 Z" fill="#000000" fill-rule="evenodd" fill-opacity="1" /><path clip-path="url(#clip420)" d="M 0 0 M29.7248 980.355 L35.1993 980.355 Q33.8307 982.837 33.1623 985.352 Q32.4621 987.834 32.4621 990.381 Q32.4621 996.078 36.0905 999.229 Q39.6872 1002.38 46.212 1002.38 Q52.7369 1002.38 56.3653 999.229 Q59.9619 996.078 59.9619 990.381 Q59.9619 987.834 59.2935 985.352 Q58.5933 982.837 57.2247 980.355 L62.6355 980.355 Q63.7814 982.805 64.3543 985.447 Q64.9272 988.057 64.9272 991.017 Q64.9272 999.07 59.8664 1003.81 Q54.8057 1008.55 46.212 1008.55 Q37.491 1008.55 32.4939 1003.78 Q27.4968 998.974 27.4968 990.635 Q27.4968 987.93 28.0697 985.352 Q28.6108 982.774 29.7248 980.355 Z" fill="#000000" fill-rule="evenodd" fill-opacity="1" /><path clip-path="url(#clip420)" d="M 0 0 M44.7161 939.678 L47.5806 939.678 L47.5806 966.605 Q53.6281 966.223 56.8109 962.976 Q59.9619 959.698 59.9619 953.873 Q59.9619 950.5 59.1344 947.348 Q58.3069 944.166 56.6518 941.046 L62.1899 941.046 Q63.5267 944.197 64.227 947.508 Q64.9272 950.818 64.9272 954.223 Q64.9272 962.753 59.9619 967.751 Q54.9967 972.716 46.5303 972.716 Q37.7774 972.716 32.6531 968.005 Q27.4968 963.263 27.4968 955.242 Q27.4968 948.049 32.1438 943.879 Q36.7589 939.678 44.7161 939.678 M42.9973 945.534 Q38.1912 945.598 35.3266 948.24 Q32.4621 950.85 32.4621 955.178 Q32.4621 960.08 35.2312 963.04 Q38.0002 965.968 43.0292 966.414 L42.9973 945.534 Z" fill="#000000" fill-rule="evenodd" fill-opacity="1" /><path clip-path="url(#clip420)" d="M 0 0 M14.479 930.066 L14.479 924.209 L64.0042 924.209 L64.0042 930.066 L14.479 930.066 Z" fill="#000000" fill-rule="evenodd" fill-opacity="1" /><path clip-path="url(#clip420)" d="M 0 0 M44.7161 881.463 L47.5806 881.463 L47.5806 908.39 Q53.6281 908.008 56.8109 904.762 Q59.9619 901.484 59.9619 895.659 Q59.9619 892.285 59.1344 889.134 Q58.3069 885.951 56.6518 882.832 L62.1899 882.832 Q63.5267 885.983 64.227 889.293 Q64.9272 892.603 64.9272 896.009 Q64.9272 904.539 59.9619 909.536 Q54.9967 914.501 46.5303 914.501 Q37.7774 914.501 32.6531 909.791 Q27.4968 905.048 27.4968 897.028 Q27.4968 889.834 32.1438 885.665 Q36.7589 881.463 44.7161 881.463 M42.9973 887.32 Q38.1912 887.384 35.3266 890.025 Q32.4621 892.635 32.4621 896.964 Q32.4621 901.866 35.2312 904.826 Q38.0002 907.754 43.0292 908.199 L42.9973 887.32 Z" fill="#000000" fill-rule="evenodd" fill-opacity="1" /><path clip-path="url(#clip420)" d="M 0 0 M33.8307 851.194 Q33.2578 852.181 33.0032 853.359 Q32.7167 854.505 32.7167 855.905 Q32.7167 860.87 35.9632 863.544 Q39.1779 866.186 45.2253 866.186 L64.0042 866.186 L64.0042 872.074 L28.3562 872.074 L28.3562 866.186 L33.8944 866.186 Q30.6479 864.34 29.0883 861.38 Q27.4968 858.42 27.4968 854.186 Q27.4968 853.582 27.5923 852.85 Q27.656 852.118 27.8151 851.226 L33.8307 851.194 Z" fill="#000000" fill-rule="evenodd" fill-opacity="1" /><path clip-path="url(#clip420)" d="M 0 0 M46.0847 828.851 Q46.0847 835.949 47.7079 838.686 Q49.3312 841.423 53.2461 841.423 Q56.3653 841.423 58.2114 839.386 Q60.0256 837.317 60.0256 833.784 Q60.0256 828.915 56.5881 825.986 Q53.1188 823.026 47.3897 823.026 L46.0847 823.026 L46.0847 828.851 M43.6657 817.17 L64.0042 817.17 L64.0042 823.026 L58.5933 823.026 Q61.8398 825.031 63.3994 828.023 Q64.9272 831.015 64.9272 835.344 Q64.9272 840.818 61.8716 844.065 Q58.7843 847.28 53.6281 847.28 Q47.6125 847.28 44.5569 843.269 Q41.5014 839.227 41.5014 831.238 L41.5014 823.026 L40.9285 823.026 Q36.8862 823.026 34.6901 825.7 Q32.4621 828.342 32.4621 833.148 Q32.4621 836.203 33.1941 839.1 Q33.9262 841.996 35.3903 844.67 L29.9795 844.67 Q28.7381 841.455 28.1334 838.431 Q27.4968 835.408 27.4968 832.543 Q27.4968 824.809 31.5072 820.989 Q35.5176 817.17 43.6657 817.17 Z" fill="#000000" fill-rule="evenodd" fill-opacity="1" /><path clip-path="url(#clip420)" d="M 0 0 M18.2347 799.314 L28.3562 799.314 L28.3562 787.251 L32.9077 787.251 L32.9077 799.314 L52.2594 799.314 Q56.6199 799.314 57.8613 798.136 Q59.1026 796.927 59.1026 793.267 L59.1026 787.251 L64.0042 787.251 L64.0042 793.267 Q64.0042 800.046 61.4897 802.624 Q58.9434 805.202 52.2594 805.202 L32.9077 805.202 L32.9077 809.499 L28.3562 809.499 L28.3562 805.202 L18.2347 805.202 L18.2347 799.314 Z" fill="#000000" fill-rule="evenodd" fill-opacity="1" /><path clip-path="url(#clip420)" d="M 0 0 M28.3562 779.548 L28.3562 773.692 L64.0042 773.692 L64.0042 779.548 L28.3562 779.548 M14.479 779.548 L14.479 773.692 L21.895 773.692 L21.895 779.548 L14.479 779.548 Z" fill="#000000" fill-rule="evenodd" fill-opacity="1" /><path clip-path="url(#clip420)" d="M 0 0 M32.4621 747.624 Q32.4621 752.335 36.1542 755.072 Q39.8145 757.81 46.212 757.81 Q52.6095 757.81 56.3017 755.104 Q59.9619 752.367 59.9619 747.624 Q59.9619 742.946 56.2698 740.208 Q52.5777 737.471 46.212 737.471 Q39.8781 737.471 36.186 740.208 Q32.4621 742.946 32.4621 747.624 M27.4968 747.624 Q27.4968 739.986 32.4621 735.625 Q37.4273 731.265 46.212 731.265 Q54.9649 731.265 59.9619 735.625 Q64.9272 739.986 64.9272 747.624 Q64.9272 755.295 59.9619 759.656 Q54.9649 763.984 46.212 763.984 Q37.4273 763.984 32.4621 759.656 Q27.4968 755.295 27.4968 747.624 Z" fill="#000000" fill-rule="evenodd" fill-opacity="1" /><path clip-path="url(#clip420)" d="M 0 0 M42.4881 691.925 L64.0042 691.925 L64.0042 697.781 L42.679 697.781 Q37.6183 697.781 35.1038 699.754 Q32.5894 701.728 32.5894 705.674 Q32.5894 710.417 35.6131 713.154 Q38.6368 715.891 43.8567 715.891 L64.0042 715.891 L64.0042 721.78 L28.3562 721.78 L28.3562 715.891 L33.8944 715.891 Q30.6797 713.791 29.0883 710.958 Q27.4968 708.093 27.4968 704.369 Q27.4968 698.227 31.3163 695.076 Q35.1038 691.925 42.4881 691.925 Z" fill="#000000" fill-rule="evenodd" fill-opacity="1" /><path clip-path="url(#clip420)" d="M 0 0 M33.8307 638.866 Q33.2578 639.853 33.0032 641.031 Q32.7167 642.177 32.7167 643.577 Q32.7167 648.542 35.9632 651.216 Q39.1779 653.858 45.2253 653.858 L64.0042 653.858 L64.0042 659.746 L28.3562 659.746 L28.3562 653.858 L33.8944 653.858 Q30.6479 652.012 29.0883 649.051 Q27.4968 646.091 27.4968 641.858 Q27.4968 641.253 27.5923 640.521 Q27.656 639.789 27.8151 638.898 L33.8307 638.866 Z" fill="#000000" fill-rule="evenodd" fill-opacity="1" /><path clip-path="url(#clip420)" d="M 0 0 M46.0847 616.523 Q46.0847 623.62 47.7079 626.358 Q49.3312 629.095 53.2461 629.095 Q56.3653 629.095 58.2114 627.058 Q60.0256 624.989 60.0256 621.456 Q60.0256 616.586 56.5881 613.658 Q53.1188 610.698 47.3897 610.698 L46.0847 610.698 L46.0847 616.523 M43.6657 604.842 L64.0042 604.842 L64.0042 610.698 L58.5933 610.698 Q61.8398 612.703 63.3994 615.695 Q64.9272 618.687 64.9272 623.016 Q64.9272 628.49 61.8716 631.737 Q58.7843 634.951 53.6281 634.951 Q47.6125 634.951 44.5569 630.941 Q41.5014 626.899 41.5014 618.91 L41.5014 610.698 L40.9285 610.698 Q36.8862 610.698 34.6901 613.372 Q32.4621 616.013 32.4621 620.82 Q32.4621 623.875 33.1941 626.772 Q33.9262 629.668 35.3903 632.341 L29.9795 632.341 Q28.7381 629.127 28.1334 626.103 Q27.4968 623.079 27.4968 620.215 Q27.4968 612.48 31.5072 608.661 Q35.5176 604.842 43.6657 604.842 Z" fill="#000000" fill-rule="evenodd" fill-opacity="1" /><path clip-path="url(#clip420)" d="M 0 0 M18.2347 586.986 L28.3562 586.986 L28.3562 574.923 L32.9077 574.923 L32.9077 586.986 L52.2594 586.986 Q56.6199 586.986 57.8613 585.808 Q59.1026 584.599 59.1026 580.938 L59.1026 574.923 L64.0042 574.923 L64.0042 580.938 Q64.0042 587.718 61.4897 590.296 Q58.9434 592.874 52.2594 592.874 L32.9077 592.874 L32.9077 597.171 L28.3562 597.171 L28.3562 592.874 L18.2347 592.874 L18.2347 586.986 Z" fill="#000000" fill-rule="evenodd" fill-opacity="1" /><path clip-path="url(#clip420)" d="M 0 0 M28.3562 567.22 L28.3562 561.364 L64.0042 561.364 L64.0042 567.22 L28.3562 567.22 M14.479 567.22 L14.479 561.364 L21.895 561.364 L21.895 567.22 L14.479 567.22 Z" fill="#000000" fill-rule="evenodd" fill-opacity="1" /><path clip-path="url(#clip420)" d="M 0 0 M32.4621 535.296 Q32.4621 540.007 36.1542 542.744 Q39.8145 545.481 46.212 545.481 Q52.6095 545.481 56.3017 542.776 Q59.9619 540.039 59.9619 535.296 Q59.9619 530.618 56.2698 527.88 Q52.5777 525.143 46.212 525.143 Q39.8781 525.143 36.186 527.88 Q32.4621 530.618 32.4621 535.296 M27.4968 535.296 Q27.4968 527.657 32.4621 523.297 Q37.4273 518.936 46.212 518.936 Q54.9649 518.936 59.9619 523.297 Q64.9272 527.657 64.9272 535.296 Q64.9272 542.967 59.9619 547.327 Q54.9649 551.656 46.212 551.656 Q37.4273 551.656 32.4621 547.327 Q27.4968 542.967 27.4968 535.296 Z" fill="#000000" fill-rule="evenodd" fill-opacity="1" /><path clip-path="url(#clip420)" d="M 0 0 M16.4842 498.821 L16.4842 493.41 L70.0516 509.961 L70.0516 515.372 L16.4842 498.821 Z" fill="#000000" fill-rule="evenodd" fill-opacity="1" /><path clip-path="url(#clip420)" d="M 0 0 M29.4065 464.541 L34.9447 464.541 Q33.6716 467.024 33.035 469.698 Q32.3984 472.371 32.3984 475.236 Q32.3984 479.596 33.7352 481.793 Q35.072 483.957 37.7456 483.957 Q39.7826 483.957 40.9603 482.397 Q42.1061 480.838 43.1565 476.127 L43.6021 474.122 Q44.9389 467.883 47.3897 465.274 Q49.8086 462.632 54.1691 462.632 Q59.1344 462.632 62.0308 466.578 Q64.9272 470.493 64.9272 477.368 Q64.9272 480.233 64.3543 483.352 Q63.8132 486.44 62.6992 489.877 L56.6518 489.877 Q58.3387 486.63 59.198 483.479 Q60.0256 480.328 60.0256 477.241 Q60.0256 473.103 58.6251 470.875 Q57.1929 468.647 54.6147 468.647 Q52.2276 468.647 50.9545 470.271 Q49.6813 471.862 48.5037 477.305 L48.0262 479.342 Q46.8804 484.784 44.5251 487.203 Q42.138 489.622 38.0002 489.622 Q32.9713 489.622 30.2341 486.058 Q27.4968 482.493 27.4968 475.936 Q27.4968 472.69 27.9743 469.825 Q28.4517 466.96 29.4065 464.541 Z" fill="#000000" fill-rule="evenodd" fill-opacity="1" /><path clip-path="url(#clip420)" d="M 0 0 M910.378 49.7694 Q901.345 49.7694 897.861 51.8354 Q894.377 53.9013 894.377 58.8839 Q894.377 62.8538 896.97 65.2034 Q899.603 67.5124 904.1 67.5124 Q910.297 67.5124 914.024 63.1374 Q917.792 58.7219 917.792 51.4303 L917.792 49.7694 L910.378 49.7694 M925.245 46.6907 L925.245 72.576 L917.792 72.576 L917.792 65.6895 Q915.24 69.8214 911.432 71.8063 Q907.624 73.7508 902.115 73.7508 Q895.147 73.7508 891.015 69.8619 Q886.924 65.9325 886.924 59.3701 Q886.924 51.7138 892.028 47.825 Q897.173 43.9361 907.34 43.9361 L917.792 43.9361 L917.792 43.2069 Q917.792 38.0623 914.389 35.2672 Q911.027 32.4315 904.91 32.4315 Q901.021 32.4315 897.335 33.3632 Q893.648 34.295 890.245 36.1584 L890.245 29.2718 Q894.337 27.692 898.185 26.9223 Q902.034 26.1121 905.679 26.1121 Q915.523 26.1121 920.384 31.2163 Q925.245 36.3204 925.245 46.6907 Z" fill="#000000" fill-rule="evenodd" fill-opacity="1" /><path clip-path="url(#clip420)" d="M 0 0 M973.249 28.9478 L973.249 35.9153 Q970.089 34.1734 966.889 33.3227 Q963.729 32.4315 960.488 32.4315 Q953.237 32.4315 949.227 37.0496 Q945.216 41.6271 945.216 49.9314 Q945.216 58.2358 949.227 62.8538 Q953.237 67.4314 960.488 67.4314 Q963.729 67.4314 966.889 66.5807 Q970.089 65.6895 973.249 63.9476 L973.249 70.8341 Q970.129 72.2924 966.767 73.0216 Q963.445 73.7508 959.678 73.7508 Q949.429 73.7508 943.393 67.3098 Q937.358 60.8689 937.358 49.9314 Q937.358 38.832 943.434 32.472 Q949.551 26.1121 960.164 26.1121 Q963.607 26.1121 966.889 26.8413 Q970.17 27.5299 973.249 28.9478 Z" fill="#000000" fill-rule="evenodd" fill-opacity="1" /><path clip-path="url(#clip420)" d="M 0 0 M1018.86 28.9478 L1018.86 35.9153 Q1015.7 34.1734 1012.5 33.3227 Q1009.34 32.4315 1006.1 32.4315 Q998.85 32.4315 994.84 37.0496 Q990.829 41.6271 990.829 49.9314 Q990.829 58.2358 994.84 62.8538 Q998.85 67.4314 1006.1 67.4314 Q1009.34 67.4314 1012.5 66.5807 Q1015.7 65.6895 1018.86 63.9476 L1018.86 70.8341 Q1015.74 72.2924 1012.38 73.0216 Q1009.06 73.7508 1005.29 73.7508 Q995.042 73.7508 989.007 67.3098 Q982.971 60.8689 982.971 49.9314 Q982.971 38.832 989.047 32.472 Q995.164 26.1121 1005.78 26.1121 Q1009.22 26.1121 1012.5 26.8413 Q1015.78 27.5299 1018.86 28.9478 Z" fill="#000000" fill-rule="evenodd" fill-opacity="1" /><path clip-path="url(#clip420)" d="M 0 0 M1070.63 48.0275 L1070.63 51.6733 L1036.36 51.6733 Q1036.85 59.3701 1040.98 63.421 Q1045.15 67.4314 1052.57 67.4314 Q1056.86 67.4314 1060.87 66.3781 Q1064.92 65.3249 1068.89 63.2184 L1068.89 70.267 Q1064.88 71.9684 1060.67 72.8596 Q1056.45 73.7508 1052.12 73.7508 Q1041.26 73.7508 1034.9 67.4314 Q1028.58 61.1119 1028.58 50.3365 Q1028.58 39.1965 1034.58 32.6746 Q1040.62 26.1121 1050.82 26.1121 Q1059.98 26.1121 1065.29 32.0264 Q1070.63 37.9003 1070.63 48.0275 M1063.18 45.84 Q1063.1 39.7232 1059.74 36.0774 Q1056.41 32.4315 1050.9 32.4315 Q1044.67 32.4315 1040.9 35.9558 Q1037.17 39.4801 1036.6 45.8805 L1063.18 45.84 Z" fill="#000000" fill-rule="evenodd" fill-opacity="1" /><path clip-path="url(#clip420)" d="M 0 0 M1082.87 9.54393 L1090.32 9.54393 L1090.32 72.576 L1082.87 72.576 L1082.87 9.54393 Z" fill="#000000" fill-rule="evenodd" fill-opacity="1" /><path clip-path="url(#clip420)" d="M 0 0 M1144.72 48.0275 L1144.72 51.6733 L1110.45 51.6733 Q1110.94 59.3701 1115.07 63.421 Q1119.24 67.4314 1126.66 67.4314 Q1130.95 67.4314 1134.96 66.3781 Q1139.01 65.3249 1142.98 63.2184 L1142.98 70.267 Q1138.97 71.9684 1134.76 72.8596 Q1130.55 73.7508 1126.21 73.7508 Q1115.35 73.7508 1108.99 67.4314 Q1102.67 61.1119 1102.67 50.3365 Q1102.67 39.1965 1108.67 32.6746 Q1114.71 26.1121 1124.91 26.1121 Q1134.07 26.1121 1139.38 32.0264 Q1144.72 37.9003 1144.72 48.0275 M1137.27 45.84 Q1137.19 39.7232 1133.83 36.0774 Q1130.5 32.4315 1125 32.4315 Q1118.76 32.4315 1114.99 35.9558 Q1111.26 39.4801 1110.7 45.8805 L1137.27 45.84 Z" fill="#000000" fill-rule="evenodd" fill-opacity="1" /><path clip-path="url(#clip420)" d="M 0 0 M1183.25 34.1734 Q1181.99 33.4443 1180.49 33.1202 Q1179.03 32.7556 1177.25 32.7556 Q1170.93 32.7556 1167.53 36.8875 Q1164.17 40.9789 1164.17 48.6757 L1164.17 72.576 L1156.67 72.576 L1156.67 27.2059 L1164.17 27.2059 L1164.17 34.2544 Q1166.52 30.1225 1170.28 28.1376 Q1174.05 26.1121 1179.44 26.1121 Q1180.21 26.1121 1181.14 26.2337 Q1182.07 26.3147 1183.21 26.5172 L1183.25 34.1734 Z" fill="#000000" fill-rule="evenodd" fill-opacity="1" /><path clip-path="url(#clip420)" d="M 0 0 M1211.68 49.7694 Q1202.65 49.7694 1199.17 51.8354 Q1195.68 53.9013 1195.68 58.8839 Q1195.68 62.8538 1198.28 65.2034 Q1200.91 67.5124 1205.41 67.5124 Q1211.6 67.5124 1215.33 63.1374 Q1219.1 58.7219 1219.1 51.4303 L1219.1 49.7694 L1211.68 49.7694 M1226.55 46.6907 L1226.55 72.576 L1219.1 72.576 L1219.1 65.6895 Q1216.55 69.8214 1212.74 71.8063 Q1208.93 73.7508 1203.42 73.7508 Q1196.45 73.7508 1192.32 69.8619 Q1188.23 65.9325 1188.23 59.3701 Q1188.23 51.7138 1193.33 47.825 Q1198.48 43.9361 1208.65 43.9361 L1219.1 43.9361 L1219.1 43.2069 Q1219.1 38.0623 1215.7 35.2672 Q1212.33 32.4315 1206.22 32.4315 Q1202.33 32.4315 1198.64 33.3632 Q1194.95 34.295 1191.55 36.1584 L1191.55 29.2718 Q1195.64 27.692 1199.49 26.9223 Q1203.34 26.1121 1206.99 26.1121 Q1216.83 26.1121 1221.69 31.2163 Q1226.55 36.3204 1226.55 46.6907 Z" fill="#000000" fill-rule="evenodd" fill-opacity="1" /><path clip-path="url(#clip420)" d="M 0 0 M1249.28 14.324 L1249.28 27.2059 L1264.63 27.2059 L1264.63 32.9987 L1249.28 32.9987 L1249.28 57.6282 Q1249.28 63.1779 1250.78 64.7578 Q1252.32 66.3376 1256.97 66.3376 L1264.63 66.3376 L1264.63 72.576 L1256.97 72.576 Q1248.35 72.576 1245.06 69.3758 Q1241.78 66.1351 1241.78 57.6282 L1241.78 32.9987 L1236.31 32.9987 L1236.31 27.2059 L1241.78 27.2059 L1241.78 14.324 L1249.28 14.324 Z" fill="#000000" fill-rule="evenodd" fill-opacity="1" /><path clip-path="url(#clip420)" d="M 0 0 M1274.43 27.2059 L1281.89 27.2059 L1281.89 72.576 L1274.43 72.576 L1274.43 27.2059 M1274.43 9.54393 L1281.89 9.54393 L1281.89 18.9825 L1274.43 18.9825 L1274.43 9.54393 Z" fill="#000000" fill-rule="evenodd" fill-opacity="1" /><path clip-path="url(#clip420)" d="M 0 0 M1315.06 32.4315 Q1309.07 32.4315 1305.58 37.1306 Q1302.1 41.7891 1302.1 49.9314 Q1302.1 58.0738 1305.54 62.7728 Q1309.03 67.4314 1315.06 67.4314 Q1321.02 67.4314 1324.5 62.7323 Q1327.99 58.0333 1327.99 49.9314 Q1327.99 41.8701 1324.5 37.1711 Q1321.02 32.4315 1315.06 32.4315 M1315.06 26.1121 Q1324.79 26.1121 1330.34 32.4315 Q1335.89 38.7509 1335.89 49.9314 Q1335.89 61.0714 1330.34 67.4314 Q1324.79 73.7508 1315.06 73.7508 Q1305.3 73.7508 1299.75 67.4314 Q1294.24 61.0714 1294.24 49.9314 Q1294.24 38.7509 1299.75 32.4315 Q1305.3 26.1121 1315.06 26.1121 Z" fill="#000000" fill-rule="evenodd" fill-opacity="1" /><path clip-path="url(#clip420)" d="M 0 0 M1385.95 45.1919 L1385.95 72.576 L1378.5 72.576 L1378.5 45.4349 Q1378.5 38.994 1375.99 35.7938 Q1373.48 32.5936 1368.45 32.5936 Q1362.42 32.5936 1358.94 36.4419 Q1355.45 40.2903 1355.45 46.9338 L1355.45 72.576 L1347.96 72.576 L1347.96 27.2059 L1355.45 27.2059 L1355.45 34.2544 Q1358.12 30.163 1361.73 28.1376 Q1365.38 26.1121 1370.12 26.1121 Q1377.93 26.1121 1381.94 30.9732 Q1385.95 35.7938 1385.95 45.1919 Z" fill="#000000" fill-rule="evenodd" fill-opacity="1" /><path clip-path="url(#clip420)" d="M 0 0 M1453.48 34.1734 Q1452.23 33.4443 1450.73 33.1202 Q1449.27 32.7556 1447.49 32.7556 Q1441.17 32.7556 1437.77 36.8875 Q1434.4 40.9789 1434.4 48.6757 L1434.4 72.576 L1426.91 72.576 L1426.91 27.2059 L1434.4 27.2059 L1434.4 34.2544 Q1436.75 30.1225 1440.52 28.1376 Q1444.29 26.1121 1449.68 26.1121 Q1450.45 26.1121 1451.38 26.2337 Q1452.31 26.3147 1453.44 26.5172 L1453.48 34.1734 Z" fill="#000000" fill-rule="evenodd" fill-opacity="1" /><path clip-path="url(#clip420)" d="M 0 0 M1481.92 49.7694 Q1472.89 49.7694 1469.4 51.8354 Q1465.92 53.9013 1465.92 58.8839 Q1465.92 62.8538 1468.51 65.2034 Q1471.15 67.5124 1475.64 67.5124 Q1481.84 67.5124 1485.57 63.1374 Q1489.33 58.7219 1489.33 51.4303 L1489.33 49.7694 L1481.92 49.7694 M1496.79 46.6907 L1496.79 72.576 L1489.33 72.576 L1489.33 65.6895 Q1486.78 69.8214 1482.97 71.8063 Q1479.17 73.7508 1473.66 73.7508 Q1466.69 73.7508 1462.56 69.8619 Q1458.47 65.9325 1458.47 59.3701 Q1458.47 51.7138 1463.57 47.825 Q1468.71 43.9361 1478.88 43.9361 L1489.33 43.9361 L1489.33 43.2069 Q1489.33 38.0623 1485.93 35.2672 Q1482.57 32.4315 1476.45 32.4315 Q1472.56 32.4315 1468.88 33.3632 Q1465.19 34.295 1461.79 36.1584 L1461.79 29.2718 Q1465.88 27.692 1469.73 26.9223 Q1473.58 26.1121 1477.22 26.1121 Q1487.07 26.1121 1491.93 31.2163 Q1496.79 36.3204 1496.79 46.6907 Z" fill="#000000" fill-rule="evenodd" fill-opacity="1" /><path clip-path="url(#clip420)" d="M 0 0 M1519.51 14.324 L1519.51 27.2059 L1534.87 27.2059 L1534.87 32.9987 L1519.51 32.9987 L1519.51 57.6282 Q1519.51 63.1779 1521.01 64.7578 Q1522.55 66.3376 1527.21 66.3376 L1534.87 66.3376 L1534.87 72.576 L1527.21 72.576 Q1518.58 72.576 1515.3 69.3758 Q1512.02 66.1351 1512.02 57.6282 L1512.02 32.9987 L1506.55 32.9987 L1506.55 27.2059 L1512.02 27.2059 L1512.02 14.324 L1519.51 14.324 Z" fill="#000000" fill-rule="evenodd" fill-opacity="1" /><path clip-path="url(#clip420)" d="M 0 0 M1544.67 27.2059 L1552.12 27.2059 L1552.12 72.576 L1544.67 72.576 L1544.67 27.2059 M1544.67 9.54393 L1552.12 9.54393 L1552.12 18.9825 L1544.67 18.9825 L1544.67 9.54393 Z" fill="#000000" fill-rule="evenodd" fill-opacity="1" /><path clip-path="url(#clip420)" d="M 0 0 M1585.3 32.4315 Q1579.3 32.4315 1575.82 37.1306 Q1572.34 41.7891 1572.34 49.9314 Q1572.34 58.0738 1575.78 62.7728 Q1579.26 67.4314 1585.3 67.4314 Q1591.25 67.4314 1594.74 62.7323 Q1598.22 58.0333 1598.22 49.9314 Q1598.22 41.8701 1594.74 37.1711 Q1591.25 32.4315 1585.3 32.4315 M1585.3 26.1121 Q1595.02 26.1121 1600.57 32.4315 Q1606.12 38.7509 1606.12 49.9314 Q1606.12 61.0714 1600.57 67.4314 Q1595.02 73.7508 1585.3 73.7508 Q1575.54 73.7508 1569.99 67.4314 Q1564.48 61.0714 1564.48 49.9314 Q1564.48 38.7509 1569.99 32.4315 Q1575.54 26.1121 1585.3 26.1121 Z" fill="#000000" fill-rule="evenodd" fill-opacity="1" /><path clip-path="url(#clip420)" d="M 0 0 M1616.25 46.5287 L1638.08 46.5287 L1638.08 53.1722 L1616.25 53.1722 L1616.25 46.5287 Z" fill="#000000" fill-rule="evenodd" fill-opacity="1" /><path clip-path="url(#clip420)" d="M 0 0 M1658.46 18.8205 L1658.46 65.8515 L1668.34 65.8515 Q1680.86 65.8515 1686.65 60.1802 Q1692.49 54.509 1692.49 42.2752 Q1692.49 30.1225 1686.65 24.4918 Q1680.86 18.8205 1668.34 18.8205 L1658.46 18.8205 M1650.28 12.096 L1667.09 12.096 Q1684.67 12.096 1692.89 19.4281 Q1701.11 26.7198 1701.11 42.2752 Q1701.11 57.9117 1692.85 65.2439 Q1684.59 72.576 1667.09 72.576 L1650.28 72.576 L1650.28 12.096 Z" fill="#000000" fill-rule="evenodd" fill-opacity="1" /><polyline clip-path="url(#clip422)" style="stroke:#009af9; stroke-width:12; stroke-opacity:1; fill:none" stroke-dasharray="48, 24, 6, 24, 6, 24" points="
  295.211,1386.4 544.913,1385.41 794.615,1386.07 1044.32,1385.47 1294.02,1381.96 1543.72,1381.67 1793.42,1383.48 2043.13,1383.11 2292.83,1382.28 
  "/>
<polyline clip-path="url(#clip422)" style="stroke:#e26f46; stroke-width:12; stroke-opacity:1; fill:none" stroke-dasharray="48, 24, 6, 24, 6, 24" points="
  295.211,1385.56 544.913,1384.16 794.615,1383.42 1044.32,1381.51 1294.02,1380.82 1543.72,1380.69 1793.42,1375.36 2043.13,1367.94 2292.83,1368.57 
  "/>
<polyline clip-path="url(#clip422)" style="stroke:#3da44d; stroke-width:12; stroke-opacity:1; fill:none" stroke-dasharray="48, 24, 6, 24, 6, 24" points="
  295.211,1382.73 544.913,1378.82 794.615,1375.48 1044.32,1358.75 1294.02,1358.9 1543.72,1340.88 1793.42,1272.41 2043.13,1310.04 2292.83,1296.05 
  "/>
<polyline clip-path="url(#clip422)" style="stroke:#c271d2; stroke-width:12; stroke-opacity:1; fill:none" stroke-dasharray="48, 24, 6, 24, 6, 24" points="
  295.211,1366.12 544.913,1350.08 794.615,1324.94 1044.32,1300.87 1294.02,1255.71 1543.72,1155.25 1793.42,1158.43 2043.13,1040.75 2292.83,1015.23 
  "/>
<polyline clip-path="url(#clip422)" style="stroke:#ac8d18; stroke-width:12; stroke-opacity:1; fill:none" stroke-dasharray="48, 24, 6, 24, 6, 24" points="
  295.211,1313.27 544.913,1230.57 794.615,1199.78 1044.32,1095.87 1294.02,934.508 1543.72,794.933 1793.42,567.91 2043.13,337.171 2292.83,160.256 
  "/>
<path clip-path="url(#clip420)" d="
M305.865 529.676 L683.732 529.676 L683.732 166.796 L305.865 166.796  Z
  " fill="#ffffff" fill-rule="evenodd" fill-opacity="1"/>
<polyline clip-path="url(#clip420)" style="stroke:#000000; stroke-width:4; stroke-opacity:1; fill:none" points="
  305.865,529.676 683.732,529.676 683.732,166.796 305.865,166.796 305.865,529.676 
  "/>
<polyline clip-path="url(#clip420)" style="stroke:#009af9; stroke-width:4; stroke-opacity:1; fill:none" stroke-dasharray="16, 8, 2, 8, 2, 8" points="
  329.393,227.276 470.558,227.276 
  "/>
<path clip-path="url(#clip420)" d="M 0 0 M512.997 222.565 L512.997 208.537 L517.256 208.537 L517.256 244.556 L512.997 244.556 L512.997 240.667 Q511.654 242.982 509.594 244.116 Q507.557 245.227 504.687 245.227 Q499.988 245.227 497.025 241.477 Q494.085 237.727 494.085 231.616 Q494.085 225.505 497.025 221.755 Q499.988 218.005 504.687 218.005 Q507.557 218.005 509.594 219.139 Q511.654 220.25 512.997 222.565 M498.483 231.616 Q498.483 236.315 500.405 239 Q502.349 241.662 505.729 241.662 Q509.108 241.662 511.053 239 Q512.997 236.315 512.997 231.616 Q512.997 226.917 511.053 224.255 Q509.108 221.57 505.729 221.57 Q502.349 221.57 500.405 224.255 Q498.483 226.917 498.483 231.616 Z" fill="#000000" fill-rule="evenodd" fill-opacity="1" /><path clip-path="url(#clip420)" d="M 0 0 M526.585 223.028 L556.261 223.028 L556.261 226.917 L526.585 226.917 L526.585 223.028 M526.585 232.472 L556.261 232.472 L556.261 236.408 L526.585 236.408 L526.585 232.472 Z" fill="#000000" fill-rule="evenodd" fill-opacity="1" /><path clip-path="url(#clip420)" d="M 0 0 M579.2 214.07 L567.395 232.519 L579.2 232.519 L579.2 214.07 M577.974 209.996 L583.853 209.996 L583.853 232.519 L588.784 232.519 L588.784 236.408 L583.853 236.408 L583.853 244.556 L579.2 244.556 L579.2 236.408 L563.599 236.408 L563.599 231.894 L577.974 209.996 Z" fill="#000000" fill-rule="evenodd" fill-opacity="1" /><polyline clip-path="url(#clip420)" style="stroke:#e26f46; stroke-width:4; stroke-opacity:1; fill:none" stroke-dasharray="16, 8, 2, 8, 2, 8" points="
  329.393,287.756 470.558,287.756 
  "/>
<path clip-path="url(#clip420)" d="M 0 0 M512.997 283.045 L512.997 269.017 L517.256 269.017 L517.256 305.036 L512.997 305.036 L512.997 301.147 Q511.654 303.462 509.594 304.596 Q507.557 305.707 504.687 305.707 Q499.988 305.707 497.025 301.957 Q494.085 298.207 494.085 292.096 Q494.085 285.985 497.025 282.235 Q499.988 278.485 504.687 278.485 Q507.557 278.485 509.594 279.619 Q511.654 280.73 512.997 283.045 M498.483 292.096 Q498.483 296.795 500.405 299.48 Q502.349 302.142 505.729 302.142 Q509.108 302.142 511.053 299.48 Q512.997 296.795 512.997 292.096 Q512.997 287.397 511.053 284.735 Q509.108 282.05 505.729 282.05 Q502.349 282.05 500.405 284.735 Q498.483 287.397 498.483 292.096 Z" fill="#000000" fill-rule="evenodd" fill-opacity="1" /><path clip-path="url(#clip420)" d="M 0 0 M526.585 283.508 L556.261 283.508 L556.261 287.397 L526.585 287.397 L526.585 283.508 M526.585 292.952 L556.261 292.952 L556.261 296.888 L526.585 296.888 L526.585 292.952 Z" fill="#000000" fill-rule="evenodd" fill-opacity="1" /><path clip-path="url(#clip420)" d="M 0 0 M566.492 304.318 L566.492 300.059 Q568.251 300.892 570.057 301.332 Q571.862 301.772 573.599 301.772 Q578.228 301.772 580.659 298.67 Q583.112 295.545 583.46 289.202 Q582.117 291.193 580.057 292.258 Q577.997 293.323 575.497 293.323 Q570.312 293.323 567.279 290.198 Q564.27 287.05 564.27 281.61 Q564.27 276.286 567.418 273.068 Q570.566 269.851 575.798 269.851 Q581.793 269.851 584.941 274.457 Q588.112 279.04 588.112 287.79 Q588.112 295.962 584.224 300.846 Q580.358 305.707 573.807 305.707 Q572.048 305.707 570.242 305.36 Q568.437 305.013 566.492 304.318 M575.798 289.665 Q578.946 289.665 580.774 287.513 Q582.626 285.36 582.626 281.61 Q582.626 277.883 580.774 275.73 Q578.946 273.554 575.798 273.554 Q572.65 273.554 570.798 275.73 Q568.969 277.883 568.969 281.61 Q568.969 285.36 570.798 287.513 Q572.65 289.665 575.798 289.665 Z" fill="#000000" fill-rule="evenodd" fill-opacity="1" /><polyline clip-path="url(#clip420)" style="stroke:#3da44d; stroke-width:4; stroke-opacity:1; fill:none" stroke-dasharray="16, 8, 2, 8, 2, 8" points="
  329.393,348.236 470.558,348.236 
  "/>
<path clip-path="url(#clip420)" d="M 0 0 M512.997 343.525 L512.997 329.497 L517.256 329.497 L517.256 365.516 L512.997 365.516 L512.997 361.627 Q511.654 363.942 509.594 365.076 Q507.557 366.187 504.687 366.187 Q499.988 366.187 497.025 362.437 Q494.085 358.687 494.085 352.576 Q494.085 346.465 497.025 342.715 Q499.988 338.965 504.687 338.965 Q507.557 338.965 509.594 340.099 Q511.654 341.21 512.997 343.525 M498.483 352.576 Q498.483 357.275 500.405 359.96 Q502.349 362.622 505.729 362.622 Q509.108 362.622 511.053 359.96 Q512.997 357.275 512.997 352.576 Q512.997 347.877 511.053 345.215 Q509.108 342.53 505.729 342.53 Q502.349 342.53 500.405 345.215 Q498.483 347.877 498.483 352.576 Z" fill="#000000" fill-rule="evenodd" fill-opacity="1" /><path clip-path="url(#clip420)" d="M 0 0 M526.585 343.988 L556.261 343.988 L556.261 347.877 L526.585 347.877 L526.585 343.988 M526.585 353.432 L556.261 353.432 L556.261 357.368 L526.585 357.368 L526.585 353.432 Z" fill="#000000" fill-rule="evenodd" fill-opacity="1" /><path clip-path="url(#clip420)" d="M 0 0 M567.163 361.581 L574.802 361.581 L574.802 335.215 L566.492 336.882 L566.492 332.622 L574.756 330.956 L579.432 330.956 L579.432 361.581 L587.071 361.581 L587.071 365.516 L567.163 365.516 L567.163 361.581 Z" fill="#000000" fill-rule="evenodd" fill-opacity="1" /><path clip-path="url(#clip420)" d="M 0 0 M607.094 346.372 Q603.946 346.372 602.094 348.525 Q600.265 350.678 600.265 354.428 Q600.265 358.155 602.094 360.331 Q603.946 362.483 607.094 362.483 Q610.242 362.483 612.071 360.331 Q613.922 358.155 613.922 354.428 Q613.922 350.678 612.071 348.525 Q610.242 346.372 607.094 346.372 M616.376 331.72 L616.376 335.979 Q614.617 335.146 612.811 334.706 Q611.029 334.266 609.27 334.266 Q604.64 334.266 602.186 337.391 Q599.756 340.516 599.409 346.835 Q600.774 344.821 602.835 343.757 Q604.895 342.669 607.372 342.669 Q612.58 342.669 615.589 345.84 Q618.621 348.988 618.621 354.428 Q618.621 359.752 615.473 362.969 Q612.325 366.187 607.094 366.187 Q601.098 366.187 597.927 361.604 Q594.756 356.997 594.756 348.27 Q594.756 340.076 598.645 335.215 Q602.534 330.331 609.084 330.331 Q610.844 330.331 612.626 330.678 Q614.432 331.025 616.376 331.72 Z" fill="#000000" fill-rule="evenodd" fill-opacity="1" /><polyline clip-path="url(#clip420)" style="stroke:#c271d2; stroke-width:4; stroke-opacity:1; fill:none" stroke-dasharray="16, 8, 2, 8, 2, 8" points="
  329.393,408.716 470.558,408.716 
  "/>
<path clip-path="url(#clip420)" d="M 0 0 M512.997 404.005 L512.997 389.977 L517.256 389.977 L517.256 425.996 L512.997 425.996 L512.997 422.107 Q511.654 424.422 509.594 425.556 Q507.557 426.667 504.687 426.667 Q499.988 426.667 497.025 422.917 Q494.085 419.167 494.085 413.056 Q494.085 406.945 497.025 403.195 Q499.988 399.445 504.687 399.445 Q507.557 399.445 509.594 400.579 Q511.654 401.69 512.997 404.005 M498.483 413.056 Q498.483 417.755 500.405 420.44 Q502.349 423.102 505.729 423.102 Q509.108 423.102 511.053 420.44 Q512.997 417.755 512.997 413.056 Q512.997 408.357 511.053 405.695 Q509.108 403.01 505.729 403.01 Q502.349 403.01 500.405 405.695 Q498.483 408.357 498.483 413.056 Z" fill="#000000" fill-rule="evenodd" fill-opacity="1" /><path clip-path="url(#clip420)" d="M 0 0 M526.585 404.468 L556.261 404.468 L556.261 408.357 L526.585 408.357 L526.585 404.468 M526.585 413.912 L556.261 413.912 L556.261 417.848 L526.585 417.848 L526.585 413.912 Z" fill="#000000" fill-rule="evenodd" fill-opacity="1" /><path clip-path="url(#clip420)" d="M 0 0 M570.381 422.061 L586.7 422.061 L586.7 425.996 L564.756 425.996 L564.756 422.061 Q567.418 419.306 572.001 414.676 Q576.608 410.024 577.788 408.681 Q580.034 406.158 580.913 404.422 Q581.816 402.663 581.816 400.973 Q581.816 398.218 579.872 396.482 Q577.95 394.746 574.849 394.746 Q572.65 394.746 570.196 395.51 Q567.765 396.274 564.988 397.825 L564.988 393.102 Q567.812 391.968 570.265 391.389 Q572.719 390.811 574.756 390.811 Q580.126 390.811 583.321 393.496 Q586.515 396.181 586.515 400.672 Q586.515 402.801 585.705 404.723 Q584.918 406.621 582.811 409.213 Q582.233 409.885 579.131 413.102 Q576.029 416.297 570.381 422.061 Z" fill="#000000" fill-rule="evenodd" fill-opacity="1" /><path clip-path="url(#clip420)" d="M 0 0 M596.561 391.436 L614.918 391.436 L614.918 395.371 L600.844 395.371 L600.844 403.843 Q601.862 403.496 602.881 403.334 Q603.899 403.149 604.918 403.149 Q610.705 403.149 614.084 406.32 Q617.464 409.491 617.464 414.908 Q617.464 420.486 613.992 423.588 Q610.52 426.667 604.2 426.667 Q602.024 426.667 599.756 426.297 Q597.51 425.926 595.103 425.186 L595.103 420.486 Q597.186 421.621 599.409 422.176 Q601.631 422.732 604.108 422.732 Q608.112 422.732 610.45 420.625 Q612.788 418.519 612.788 414.908 Q612.788 411.297 610.45 409.19 Q608.112 407.084 604.108 407.084 Q602.233 407.084 600.358 407.5 Q598.506 407.917 596.561 408.797 L596.561 391.436 Z" fill="#000000" fill-rule="evenodd" fill-opacity="1" /><polyline clip-path="url(#clip420)" style="stroke:#ac8d18; stroke-width:4; stroke-opacity:1; fill:none" stroke-dasharray="16, 8, 2, 8, 2, 8" points="
  329.393,469.196 470.558,469.196 
  "/>
<path clip-path="url(#clip420)" d="M 0 0 M512.997 464.485 L512.997 450.457 L517.256 450.457 L517.256 486.476 L512.997 486.476 L512.997 482.587 Q511.654 484.902 509.594 486.036 Q507.557 487.147 504.687 487.147 Q499.988 487.147 497.025 483.397 Q494.085 479.647 494.085 473.536 Q494.085 467.425 497.025 463.675 Q499.988 459.925 504.687 459.925 Q507.557 459.925 509.594 461.059 Q511.654 462.17 512.997 464.485 M498.483 473.536 Q498.483 478.235 500.405 480.92 Q502.349 483.582 505.729 483.582 Q509.108 483.582 511.053 480.92 Q512.997 478.235 512.997 473.536 Q512.997 468.837 511.053 466.175 Q509.108 463.49 505.729 463.49 Q502.349 463.49 500.405 466.175 Q498.483 468.837 498.483 473.536 Z" fill="#000000" fill-rule="evenodd" fill-opacity="1" /><path clip-path="url(#clip420)" d="M 0 0 M526.585 464.948 L556.261 464.948 L556.261 468.837 L526.585 468.837 L526.585 464.948 M526.585 474.392 L556.261 474.392 L556.261 478.328 L526.585 478.328 L526.585 474.392 Z" fill="#000000" fill-rule="evenodd" fill-opacity="1" /><path clip-path="url(#clip420)" d="M 0 0 M580.52 467.842 Q583.876 468.559 585.751 470.828 Q587.649 473.096 587.649 476.429 Q587.649 481.545 584.131 484.346 Q580.612 487.147 574.131 487.147 Q571.955 487.147 569.64 486.707 Q567.349 486.291 564.895 485.434 L564.895 480.92 Q566.839 482.054 569.154 482.633 Q571.469 483.212 573.992 483.212 Q578.39 483.212 580.682 481.476 Q582.997 479.74 582.997 476.429 Q582.997 473.374 580.844 471.661 Q578.714 469.925 574.895 469.925 L570.867 469.925 L570.867 466.082 L575.08 466.082 Q578.529 466.082 580.358 464.717 Q582.186 463.328 582.186 460.735 Q582.186 458.073 580.288 456.661 Q578.413 455.226 574.895 455.226 Q572.974 455.226 570.775 455.643 Q568.575 456.059 565.937 456.939 L565.937 452.772 Q568.599 452.031 570.913 451.661 Q573.251 451.291 575.312 451.291 Q580.636 451.291 583.737 453.721 Q586.839 456.129 586.839 460.249 Q586.839 463.119 585.196 465.11 Q583.552 467.078 580.52 467.842 Z" fill="#000000" fill-rule="evenodd" fill-opacity="1" /><path clip-path="url(#clip420)" d="M 0 0 M607.094 467.332 Q603.946 467.332 602.094 469.485 Q600.265 471.638 600.265 475.388 Q600.265 479.115 602.094 481.291 Q603.946 483.443 607.094 483.443 Q610.242 483.443 612.071 481.291 Q613.922 479.115 613.922 475.388 Q613.922 471.638 612.071 469.485 Q610.242 467.332 607.094 467.332 M616.376 452.68 L616.376 456.939 Q614.617 456.106 612.811 455.666 Q611.029 455.226 609.27 455.226 Q604.64 455.226 602.186 458.351 Q599.756 461.476 599.409 467.795 Q600.774 465.781 602.835 464.717 Q604.895 463.629 607.372 463.629 Q612.58 463.629 615.589 466.8 Q618.621 469.948 618.621 475.388 Q618.621 480.712 615.473 483.929 Q612.325 487.147 607.094 487.147 Q601.098 487.147 597.927 482.564 Q594.756 477.957 594.756 469.23 Q594.756 461.036 598.645 456.175 Q602.534 451.291 609.084 451.291 Q610.844 451.291 612.626 451.638 Q614.432 451.985 616.376 452.68 Z" fill="#000000" fill-rule="evenodd" fill-opacity="1" /></svg>
