<?xml version="1.0" encoding="utf-8"?>
<svg xmlns="http://www.w3.org/2000/svg" xmlns:xlink="http://www.w3.org/1999/xlink" width="600" height="400" viewBox="0 0 2400 1600">
<defs>
  <clipPath id="clip060">
    <rect x="0" y="0" width="2400" height="1600"/>
  </clipPath>
</defs>
<path clip-path="url(#clip060)" d="
M0 1600 L2400 1600 L2400 0 L0 0  Z
  " fill="#ffffff" fill-rule="evenodd" fill-opacity="1"/>
<defs>
  <clipPath id="clip061">
    <rect x="480" y="0" width="1681" height="1600"/>
  </clipPath>
</defs>
<path clip-path="url(#clip060)" d="
M249.542 1423.18 L2352.76 1423.18 L2352.76 123.472 L249.542 123.472  Z
  " fill="#ffffff" fill-rule="evenodd" fill-opacity="1"/>
<defs>
  <clipPath id="clip062">
    <rect x="249" y="123" width="2104" height="1301"/>
  </clipPath>
</defs>
<polyline clip-path="url(#clip062)" style="stroke:#000000; stroke-width:2; stroke-opacity:0.1; fill:none" points="
  309.067,1423.18 309.067,123.472 
  "/>
<polyline clip-path="url(#clip062)" style="stroke:#000000; stroke-width:2; stroke-opacity:0.1; fill:none" points="
  805.108,1423.18 805.108,123.472 
  "/>
<polyline clip-path="url(#clip062)" style="stroke:#000000; stroke-width:2; stroke-opacity:0.1; fill:none" points="
  1301.15,1423.18 1301.15,123.472 
  "/>
<polyline clip-path="url(#clip062)" style="stroke:#000000; stroke-width:2; stroke-opacity:0.1; fill:none" points="
  1797.19,1423.18 1797.19,123.472 
  "/>
<polyline clip-path="url(#clip062)" style="stroke:#000000; stroke-width:2; stroke-opacity:0.1; fill:none" points="
  2293.23,1423.18 2293.23,123.472 
  "/>
<polyline clip-path="url(#clip060)" style="stroke:#000000; stroke-width:4; stroke-opacity:1; fill:none" points="
  249.542,1423.18 2352.76,1423.18 
  "/>
<polyline clip-path="url(#clip060)" style="stroke:#000000; stroke-width:4; stroke-opacity:1; fill:none" points="
  309.067,1423.18 309.067,1407.58 
  "/>
<polyline clip-path="url(#clip060)" style="stroke:#000000; stroke-width:4; stroke-opacity:1; fill:none" points="
  805.108,1423.18 805.108,1407.58 
  "/>
<polyline clip-path="url(#clip060)" style="stroke:#000000; stroke-width:4; stroke-opacity:1; fill:none" points="
  1301.15,1423.18 1301.15,1407.58 
  "/>
<polyline clip-path="url(#clip060)" style="stroke:#000000; stroke-width:4; stroke-opacity:1; fill:none" points="
  1797.19,1423.18 1797.19,1407.58 
  "/>
<polyline clip-path="url(#clip060)" style="stroke:#000000; stroke-width:4; stroke-opacity:1; fill:none" points="
  2293.23,1423.18 2293.23,1407.58 
  "/>
<path clip-path="url(#clip060)" d="M 0 0 M261.139 1479.92 L268.778 1479.92 L268.778 1453.55 L260.468 1455.22 L260.468 1450.96 L268.732 1449.29 L273.407 1449.29 L273.407 1479.92 L281.046 1479.92 L281.046 1483.85 L261.139 1483.85 L261.139 1479.92 Z" fill="#000000" fill-rule="evenodd" fill-opacity="1" /><path clip-path="url(#clip060)" d="M 0 0 M300.491 1452.37 Q296.88 1452.37 295.051 1455.94 Q293.245 1459.48 293.245 1466.61 Q293.245 1473.71 295.051 1477.28 Q296.88 1480.82 300.491 1480.82 Q304.125 1480.82 305.93 1477.28 Q307.759 1473.71 307.759 1466.61 Q307.759 1459.48 305.93 1455.94 Q304.125 1452.37 300.491 1452.37 M300.491 1448.67 Q306.301 1448.67 309.356 1453.27 Q312.435 1457.86 312.435 1466.61 Q312.435 1475.33 309.356 1479.94 Q306.301 1484.52 300.491 1484.52 Q294.68 1484.52 291.602 1479.94 Q288.546 1475.33 288.546 1466.61 Q288.546 1457.86 291.602 1453.27 Q294.68 1448.67 300.491 1448.67 Z" fill="#000000" fill-rule="evenodd" fill-opacity="1" /><path clip-path="url(#clip060)" d="M 0 0 M320.653 1477.97 L325.537 1477.97 L325.537 1483.85 L320.653 1483.85 L320.653 1477.97 Z" fill="#000000" fill-rule="evenodd" fill-opacity="1" /><path clip-path="url(#clip060)" d="M 0 0 M345.722 1452.37 Q342.111 1452.37 340.282 1455.94 Q338.477 1459.48 338.477 1466.61 Q338.477 1473.71 340.282 1477.28 Q342.111 1480.82 345.722 1480.82 Q349.356 1480.82 351.162 1477.28 Q352.99 1473.71 352.99 1466.61 Q352.99 1459.48 351.162 1455.94 Q349.356 1452.37 345.722 1452.37 M345.722 1448.67 Q351.532 1448.67 354.588 1453.27 Q357.666 1457.86 357.666 1466.61 Q357.666 1475.33 354.588 1479.94 Q351.532 1484.52 345.722 1484.52 Q339.912 1484.52 336.833 1479.94 Q333.777 1475.33 333.777 1466.61 Q333.777 1457.86 336.833 1453.27 Q339.912 1448.67 345.722 1448.67 Z" fill="#000000" fill-rule="evenodd" fill-opacity="1" /><path clip-path="url(#clip060)" d="M 0 0 M757.678 1479.92 L765.317 1479.92 L765.317 1453.55 L757.006 1455.22 L757.006 1450.96 L765.27 1449.29 L769.946 1449.29 L769.946 1479.92 L777.585 1479.92 L777.585 1483.85 L757.678 1483.85 L757.678 1479.92 Z" fill="#000000" fill-rule="evenodd" fill-opacity="1" /><path clip-path="url(#clip060)" d="M 0 0 M791.057 1479.92 L807.376 1479.92 L807.376 1483.85 L785.432 1483.85 L785.432 1479.92 Q788.094 1477.16 792.677 1472.53 Q797.284 1467.88 798.464 1466.54 Q800.71 1464.01 801.589 1462.28 Q802.492 1460.52 802.492 1458.83 Q802.492 1456.07 800.548 1454.34 Q798.627 1452.6 795.525 1452.6 Q793.326 1452.6 790.872 1453.37 Q788.441 1454.13 785.664 1455.68 L785.664 1450.96 Q788.488 1449.82 790.941 1449.25 Q793.395 1448.67 795.432 1448.67 Q800.802 1448.67 803.997 1451.35 Q807.191 1454.04 807.191 1458.53 Q807.191 1460.66 806.381 1462.58 Q805.594 1464.48 803.488 1467.07 Q802.909 1467.74 799.807 1470.96 Q796.705 1474.15 791.057 1479.92 Z" fill="#000000" fill-rule="evenodd" fill-opacity="1" /><path clip-path="url(#clip060)" d="M 0 0 M817.191 1477.97 L822.075 1477.97 L822.075 1483.85 L817.191 1483.85 L817.191 1477.97 Z" fill="#000000" fill-rule="evenodd" fill-opacity="1" /><path clip-path="url(#clip060)" d="M 0 0 M832.307 1449.29 L850.663 1449.29 L850.663 1453.23 L836.589 1453.23 L836.589 1461.7 Q837.608 1461.35 838.626 1461.19 Q839.645 1461 840.663 1461 Q846.45 1461 849.83 1464.18 Q853.21 1467.35 853.21 1472.76 Q853.21 1478.34 849.737 1481.44 Q846.265 1484.52 839.946 1484.52 Q837.77 1484.52 835.501 1484.15 Q833.256 1483.78 830.849 1483.04 L830.849 1478.34 Q832.932 1479.48 835.154 1480.03 Q837.376 1480.59 839.853 1480.59 Q843.858 1480.59 846.196 1478.48 Q848.534 1476.38 848.534 1472.76 Q848.534 1469.15 846.196 1467.05 Q843.858 1464.94 839.853 1464.94 Q837.978 1464.94 836.103 1465.36 Q834.251 1465.77 832.307 1466.65 L832.307 1449.29 Z" fill="#000000" fill-rule="evenodd" fill-opacity="1" /><path clip-path="url(#clip060)" d="M 0 0 M1253.22 1479.92 L1260.86 1479.92 L1260.86 1453.55 L1252.55 1455.22 L1252.55 1450.96 L1260.81 1449.29 L1265.49 1449.29 L1265.49 1479.92 L1273.13 1479.92 L1273.13 1483.85 L1253.22 1483.85 L1253.22 1479.92 Z" fill="#000000" fill-rule="evenodd" fill-opacity="1" /><path clip-path="url(#clip060)" d="M 0 0 M1282.62 1449.29 L1300.98 1449.29 L1300.98 1453.23 L1286.9 1453.23 L1286.9 1461.7 Q1287.92 1461.35 1288.94 1461.19 Q1289.96 1461 1290.98 1461 Q1296.76 1461 1300.14 1464.18 Q1303.52 1467.35 1303.52 1472.76 Q1303.52 1478.34 1300.05 1481.44 Q1296.58 1484.52 1290.26 1484.52 Q1288.08 1484.52 1285.81 1484.15 Q1283.57 1483.78 1281.16 1483.04 L1281.16 1478.34 Q1283.24 1479.48 1285.47 1480.03 Q1287.69 1480.59 1290.17 1480.59 Q1294.17 1480.59 1296.51 1478.48 Q1298.85 1476.38 1298.85 1472.76 Q1298.85 1469.15 1296.51 1467.05 Q1294.17 1464.94 1290.17 1464.94 Q1288.29 1464.94 1286.42 1465.36 Q1284.56 1465.77 1282.62 1466.65 L1282.62 1449.29 Z" fill="#000000" fill-rule="evenodd" fill-opacity="1" /><path clip-path="url(#clip060)" d="M 0 0 M1312.73 1477.97 L1317.62 1477.97 L1317.62 1483.85 L1312.73 1483.85 L1312.73 1477.97 Z" fill="#000000" fill-rule="evenodd" fill-opacity="1" /><path clip-path="url(#clip060)" d="M 0 0 M1337.8 1452.37 Q1334.19 1452.37 1332.36 1455.94 Q1330.56 1459.48 1330.56 1466.61 Q1330.56 1473.71 1332.36 1477.28 Q1334.19 1480.82 1337.8 1480.82 Q1341.44 1480.82 1343.24 1477.28 Q1345.07 1473.71 1345.07 1466.61 Q1345.07 1459.48 1343.24 1455.94 Q1341.44 1452.37 1337.8 1452.37 M1337.8 1448.67 Q1343.61 1448.67 1346.67 1453.27 Q1349.75 1457.86 1349.75 1466.61 Q1349.75 1475.33 1346.67 1479.94 Q1343.61 1484.52 1337.8 1484.52 Q1331.99 1484.52 1328.92 1479.94 Q1325.86 1475.33 1325.86 1466.61 Q1325.86 1457.86 1328.92 1453.27 Q1331.99 1448.67 1337.8 1448.67 Z" fill="#000000" fill-rule="evenodd" fill-opacity="1" /><path clip-path="url(#clip060)" d="M 0 0 M1749.76 1479.92 L1757.4 1479.92 L1757.4 1453.55 L1749.09 1455.22 L1749.09 1450.96 L1757.35 1449.29 L1762.03 1449.29 L1762.03 1479.92 L1769.67 1479.92 L1769.67 1483.85 L1749.76 1483.85 L1749.76 1479.92 Z" fill="#000000" fill-rule="evenodd" fill-opacity="1" /><path clip-path="url(#clip060)" d="M 0 0 M1777.93 1449.29 L1800.15 1449.29 L1800.15 1451.28 L1787.61 1483.85 L1782.72 1483.85 L1794.53 1453.23 L1777.93 1453.23 L1777.93 1449.29 Z" fill="#000000" fill-rule="evenodd" fill-opacity="1" /><path clip-path="url(#clip060)" d="M 0 0 M1809.27 1477.97 L1814.16 1477.97 L1814.16 1483.85 L1809.27 1483.85 L1809.27 1477.97 Z" fill="#000000" fill-rule="evenodd" fill-opacity="1" /><path clip-path="url(#clip060)" d="M 0 0 M1824.39 1449.29 L1842.75 1449.29 L1842.75 1453.23 L1828.67 1453.23 L1828.67 1461.7 Q1829.69 1461.35 1830.71 1461.19 Q1831.73 1461 1832.75 1461 Q1838.53 1461 1841.91 1464.18 Q1845.29 1467.35 1845.29 1472.76 Q1845.29 1478.34 1841.82 1481.44 Q1838.35 1484.52 1832.03 1484.52 Q1829.85 1484.52 1827.58 1484.15 Q1825.34 1483.78 1822.93 1483.04 L1822.93 1478.34 Q1825.01 1479.48 1827.24 1480.03 Q1829.46 1480.59 1831.94 1480.59 Q1835.94 1480.59 1838.28 1478.48 Q1840.62 1476.38 1840.62 1472.76 Q1840.62 1469.15 1838.28 1467.05 Q1835.94 1464.94 1831.94 1464.94 Q1830.06 1464.94 1828.19 1465.36 Q1826.33 1465.77 1824.39 1466.65 L1824.39 1449.29 Z" fill="#000000" fill-rule="evenodd" fill-opacity="1" /><path clip-path="url(#clip060)" d="M 0 0 M2249.39 1479.92 L2265.71 1479.92 L2265.71 1483.85 L2243.76 1483.85 L2243.76 1479.92 Q2246.43 1477.16 2251.01 1472.53 Q2255.62 1467.88 2256.8 1466.54 Q2259.04 1464.01 2259.92 1462.28 Q2260.82 1460.52 2260.82 1458.83 Q2260.82 1456.07 2258.88 1454.34 Q2256.96 1452.6 2253.86 1452.6 Q2251.66 1452.6 2249.2 1453.37 Q2246.77 1454.13 2244 1455.68 L2244 1450.96 Q2246.82 1449.82 2249.27 1449.25 Q2251.73 1448.67 2253.76 1448.67 Q2259.13 1448.67 2262.33 1451.35 Q2265.52 1454.04 2265.52 1458.53 Q2265.52 1460.66 2264.71 1462.58 Q2263.93 1464.48 2261.82 1467.07 Q2261.24 1467.74 2258.14 1470.96 Q2255.04 1474.15 2249.39 1479.92 Z" fill="#000000" fill-rule="evenodd" fill-opacity="1" /><path clip-path="url(#clip060)" d="M 0 0 M2285.52 1452.37 Q2281.91 1452.37 2280.08 1455.94 Q2278.28 1459.48 2278.28 1466.61 Q2278.28 1473.71 2280.08 1477.28 Q2281.91 1480.82 2285.52 1480.82 Q2289.16 1480.82 2290.96 1477.28 Q2292.79 1473.71 2292.79 1466.61 Q2292.79 1459.48 2290.96 1455.94 Q2289.16 1452.37 2285.52 1452.37 M2285.52 1448.67 Q2291.33 1448.67 2294.39 1453.27 Q2297.47 1457.86 2297.47 1466.61 Q2297.47 1475.33 2294.39 1479.94 Q2291.33 1484.52 2285.52 1484.52 Q2279.71 1484.52 2276.63 1479.94 Q2273.58 1475.33 2273.58 1466.61 Q2273.58 1457.86 2276.63 1453.27 Q2279.71 1448.67 2285.52 1448.67 Z" fill="#000000" fill-rule="evenodd" fill-opacity="1" /><path clip-path="url(#clip060)" d="M 0 0 M2305.68 1477.97 L2310.57 1477.97 L2310.57 1483.85 L2305.68 1483.85 L2305.68 1477.97 Z" fill="#000000" fill-rule="evenodd" fill-opacity="1" /><path clip-path="url(#clip060)" d="M 0 0 M2330.75 1452.37 Q2327.14 1452.37 2325.31 1455.94 Q2323.51 1459.48 2323.51 1466.61 Q2323.51 1473.71 2325.31 1477.28 Q2327.14 1480.82 2330.75 1480.82 Q2334.39 1480.82 2336.19 1477.28 Q2338.02 1473.71 2338.02 1466.61 Q2338.02 1459.48 2336.19 1455.94 Q2334.39 1452.37 2330.75 1452.37 M2330.75 1448.67 Q2336.56 1448.67 2339.62 1453.27 Q2342.7 1457.86 2342.7 1466.61 Q2342.7 1475.33 2339.62 1479.94 Q2336.56 1484.52 2330.75 1484.52 Q2324.94 1484.52 2321.87 1479.94 Q2318.81 1475.33 2318.81 1466.61 Q2318.81 1457.86 2321.87 1453.27 Q2324.94 1448.67 2330.75 1448.67 Z" fill="#000000" fill-rule="evenodd" fill-opacity="1" /><path clip-path="url(#clip060)" d="M 0 0 M1305.62 1576 L1300.88 1563.81 L1291.11 1581.63 L1284.2 1581.63 L1298.01 1556.43 L1292.22 1541.44 Q1290.66 1537.42 1285.76 1537.42 L1284.2 1537.42 L1284.2 1532.4 L1286.43 1532.46 Q1294.64 1532.68 1296.71 1538 L1301.42 1550.19 L1311.19 1532.36 L1318.1 1532.36 L1304.28 1557.57 L1310.08 1572.56 Q1311.64 1576.57 1316.54 1576.57 L1318.1 1576.57 L1318.1 1581.6 L1315.87 1581.54 Q1307.66 1581.32 1305.62 1576 Z" fill="#000000" fill-rule="evenodd" fill-opacity="1" /><polyline clip-path="url(#clip062)" style="stroke:#000000; stroke-width:2; stroke-opacity:0.1; fill:none" points="
  249.542,1247.86 2352.76,1247.86 
  "/>
<polyline clip-path="url(#clip062)" style="stroke:#000000; stroke-width:2; stroke-opacity:0.1; fill:none" points="
  249.542,1043.43 2352.76,1043.43 
  "/>
<polyline clip-path="url(#clip062)" style="stroke:#000000; stroke-width:2; stroke-opacity:0.1; fill:none" points="
  249.542,839.007 2352.76,839.007 
  "/>
<polyline clip-path="url(#clip062)" style="stroke:#000000; stroke-width:2; stroke-opacity:0.1; fill:none" points="
  249.542,634.579 2352.76,634.579 
  "/>
<polyline clip-path="url(#clip062)" style="stroke:#000000; stroke-width:2; stroke-opacity:0.1; fill:none" points="
  249.542,430.151 2352.76,430.151 
  "/>
<polyline clip-path="url(#clip062)" style="stroke:#000000; stroke-width:2; stroke-opacity:0.1; fill:none" points="
  249.542,225.723 2352.76,225.723 
  "/>
<polyline clip-path="url(#clip060)" style="stroke:#000000; stroke-width:4; stroke-opacity:1; fill:none" points="
  249.542,1423.18 249.542,123.472 
  "/>
<polyline clip-path="url(#clip060)" style="stroke:#000000; stroke-width:4; stroke-opacity:1; fill:none" points="
  249.542,1247.86 274.781,1247.86 
  "/>
<polyline clip-path="url(#clip060)" style="stroke:#000000; stroke-width:4; stroke-opacity:1; fill:none" points="
  249.542,1043.43 274.781,1043.43 
  "/>
<polyline clip-path="url(#clip060)" style="stroke:#000000; stroke-width:4; stroke-opacity:1; fill:none" points="
  249.542,839.007 274.781,839.007 
  "/>
<polyline clip-path="url(#clip060)" style="stroke:#000000; stroke-width:4; stroke-opacity:1; fill:none" points="
  249.542,634.579 274.781,634.579 
  "/>
<polyline clip-path="url(#clip060)" style="stroke:#000000; stroke-width:4; stroke-opacity:1; fill:none" points="
  249.542,430.151 274.781,430.151 
  "/>
<polyline clip-path="url(#clip060)" style="stroke:#000000; stroke-width:4; stroke-opacity:1; fill:none" points="
  249.542,225.723 274.781,225.723 
  "/>
<path clip-path="url(#clip060)" d="M 0 0 M126.205 1233.66 Q122.593 1233.66 120.765 1237.23 Q118.959 1240.77 118.959 1247.9 Q118.959 1255 120.765 1258.57 Q122.593 1262.11 126.205 1262.11 Q129.839 1262.11 131.644 1258.57 Q133.473 1255 133.473 1247.9 Q133.473 1240.77 131.644 1237.23 Q129.839 1233.66 126.205 1233.66 M126.205 1229.96 Q132.015 1229.96 135.07 1234.56 Q138.149 1239.15 138.149 1247.9 Q138.149 1256.62 135.07 1261.23 Q132.015 1265.81 126.205 1265.81 Q120.394 1265.81 117.316 1261.23 Q114.26 1256.62 114.26 1247.9 Q114.26 1239.15 117.316 1234.56 Q120.394 1229.96 126.205 1229.96 Z" fill="#000000" fill-rule="evenodd" fill-opacity="1" /><path clip-path="url(#clip060)" d="M 0 0 M146.366 1259.26 L151.251 1259.26 L151.251 1265.14 L146.366 1265.14 L146.366 1259.26 Z" fill="#000000" fill-rule="evenodd" fill-opacity="1" /><path clip-path="url(#clip060)" d="M 0 0 M161.482 1230.58 L179.839 1230.58 L179.839 1234.52 L165.765 1234.52 L165.765 1242.99 Q166.783 1242.64 167.802 1242.48 Q168.82 1242.3 169.839 1242.3 Q175.626 1242.3 179.005 1245.47 Q182.385 1248.64 182.385 1254.05 Q182.385 1259.63 178.913 1262.74 Q175.44 1265.81 169.121 1265.81 Q166.945 1265.81 164.677 1265.44 Q162.431 1265.07 160.024 1264.33 L160.024 1259.63 Q162.107 1260.77 164.329 1261.32 Q166.552 1261.88 169.028 1261.88 Q173.033 1261.88 175.371 1259.77 Q177.709 1257.67 177.709 1254.05 Q177.709 1250.44 175.371 1248.34 Q173.033 1246.23 169.028 1246.23 Q167.153 1246.23 165.278 1246.65 Q163.427 1247.06 161.482 1247.94 L161.482 1230.58 Z" fill="#000000" fill-rule="evenodd" fill-opacity="1" /><path clip-path="url(#clip060)" d="M 0 0 M201.598 1233.66 Q197.987 1233.66 196.158 1237.23 Q194.352 1240.77 194.352 1247.9 Q194.352 1255 196.158 1258.57 Q197.987 1262.11 201.598 1262.11 Q205.232 1262.11 207.037 1258.57 Q208.866 1255 208.866 1247.9 Q208.866 1240.77 207.037 1237.23 Q205.232 1233.66 201.598 1233.66 M201.598 1229.96 Q207.408 1229.96 210.463 1234.56 Q213.542 1239.15 213.542 1247.9 Q213.542 1256.62 210.463 1261.23 Q207.408 1265.81 201.598 1265.81 Q195.787 1265.81 192.709 1261.23 Q189.653 1256.62 189.653 1247.9 Q189.653 1239.15 192.709 1234.56 Q195.787 1229.96 201.598 1229.96 Z" fill="#000000" fill-rule="evenodd" fill-opacity="1" /><path clip-path="url(#clip060)" d="M 0 0 M127.2 1029.23 Q123.589 1029.23 121.76 1032.8 Q119.955 1036.34 119.955 1043.47 Q119.955 1050.58 121.76 1054.14 Q123.589 1057.68 127.2 1057.68 Q130.834 1057.68 132.64 1054.14 Q134.468 1050.58 134.468 1043.47 Q134.468 1036.34 132.64 1032.8 Q130.834 1029.23 127.2 1029.23 M127.2 1025.53 Q133.01 1025.53 136.066 1030.14 Q139.144 1034.72 139.144 1043.47 Q139.144 1052.2 136.066 1056.8 Q133.01 1061.39 127.2 1061.39 Q121.39 1061.39 118.311 1056.8 Q115.256 1052.2 115.256 1043.47 Q115.256 1034.72 118.311 1030.14 Q121.39 1025.53 127.2 1025.53 Z" fill="#000000" fill-rule="evenodd" fill-opacity="1" /><path clip-path="url(#clip060)" d="M 0 0 M147.362 1054.84 L152.246 1054.84 L152.246 1060.71 L147.362 1060.71 L147.362 1054.84 Z" fill="#000000" fill-rule="evenodd" fill-opacity="1" /><path clip-path="url(#clip060)" d="M 0 0 M161.251 1026.15 L183.473 1026.15 L183.473 1028.15 L170.927 1060.71 L166.042 1060.71 L177.848 1030.09 L161.251 1030.09 L161.251 1026.15 Z" fill="#000000" fill-rule="evenodd" fill-opacity="1" /><path clip-path="url(#clip060)" d="M 0 0 M192.639 1026.15 L210.996 1026.15 L210.996 1030.09 L196.922 1030.09 L196.922 1038.56 Q197.94 1038.21 198.959 1038.05 Q199.977 1037.87 200.996 1037.87 Q206.783 1037.87 210.162 1041.04 Q213.542 1044.21 213.542 1049.63 Q213.542 1055.21 210.07 1058.31 Q206.598 1061.39 200.278 1061.39 Q198.102 1061.39 195.834 1061.02 Q193.588 1060.65 191.181 1059.9 L191.181 1055.21 Q193.264 1056.34 195.487 1056.9 Q197.709 1057.45 200.186 1057.45 Q204.19 1057.45 206.528 1055.34 Q208.866 1053.24 208.866 1049.63 Q208.866 1046.02 206.528 1043.91 Q204.19 1041.8 200.186 1041.8 Q198.311 1041.8 196.436 1042.22 Q194.584 1042.64 192.639 1043.52 L192.639 1026.15 Z" fill="#000000" fill-rule="evenodd" fill-opacity="1" /><path clip-path="url(#clip060)" d="M 0 0 M117.015 852.351 L124.654 852.351 L124.654 825.986 L116.343 827.653 L116.343 823.393 L124.607 821.727 L129.283 821.727 L129.283 852.351 L136.922 852.351 L136.922 856.287 L117.015 856.287 L117.015 852.351 Z" fill="#000000" fill-rule="evenodd" fill-opacity="1" /><path clip-path="url(#clip060)" d="M 0 0 M146.366 850.407 L151.251 850.407 L151.251 856.287 L146.366 856.287 L146.366 850.407 Z" fill="#000000" fill-rule="evenodd" fill-opacity="1" /><path clip-path="url(#clip060)" d="M 0 0 M171.436 824.805 Q167.825 824.805 165.996 828.37 Q164.19 831.912 164.19 839.041 Q164.19 846.148 165.996 849.713 Q167.825 853.254 171.436 853.254 Q175.07 853.254 176.876 849.713 Q178.704 846.148 178.704 839.041 Q178.704 831.912 176.876 828.37 Q175.07 824.805 171.436 824.805 M171.436 821.102 Q177.246 821.102 180.301 825.708 Q183.38 830.291 183.38 839.041 Q183.38 847.768 180.301 852.375 Q177.246 856.958 171.436 856.958 Q165.626 856.958 162.547 852.375 Q159.491 847.768 159.491 839.041 Q159.491 830.291 162.547 825.708 Q165.626 821.102 171.436 821.102 Z" fill="#000000" fill-rule="evenodd" fill-opacity="1" /><path clip-path="url(#clip060)" d="M 0 0 M201.598 824.805 Q197.987 824.805 196.158 828.37 Q194.352 831.912 194.352 839.041 Q194.352 846.148 196.158 849.713 Q197.987 853.254 201.598 853.254 Q205.232 853.254 207.037 849.713 Q208.866 846.148 208.866 839.041 Q208.866 831.912 207.037 828.37 Q205.232 824.805 201.598 824.805 M201.598 821.102 Q207.408 821.102 210.463 825.708 Q213.542 830.291 213.542 839.041 Q213.542 847.768 210.463 852.375 Q207.408 856.958 201.598 856.958 Q195.787 856.958 192.709 852.375 Q189.653 847.768 189.653 839.041 Q189.653 830.291 192.709 825.708 Q195.787 821.102 201.598 821.102 Z" fill="#000000" fill-rule="evenodd" fill-opacity="1" /><path clip-path="url(#clip060)" d="M 0 0 M118.01 647.924 L125.649 647.924 L125.649 621.558 L117.339 623.225 L117.339 618.965 L125.603 617.299 L130.279 617.299 L130.279 647.924 L137.917 647.924 L137.917 651.859 L118.01 651.859 L118.01 647.924 Z" fill="#000000" fill-rule="evenodd" fill-opacity="1" /><path clip-path="url(#clip060)" d="M 0 0 M147.362 645.979 L152.246 645.979 L152.246 651.859 L147.362 651.859 L147.362 645.979 Z" fill="#000000" fill-rule="evenodd" fill-opacity="1" /><path clip-path="url(#clip060)" d="M 0 0 M166.459 647.924 L182.778 647.924 L182.778 651.859 L160.834 651.859 L160.834 647.924 Q163.496 645.169 168.079 640.539 Q172.686 635.887 173.866 634.544 Q176.112 632.021 176.991 630.285 Q177.894 628.525 177.894 626.836 Q177.894 624.081 175.95 622.345 Q174.028 620.609 170.927 620.609 Q168.727 620.609 166.274 621.373 Q163.843 622.137 161.065 623.688 L161.065 618.965 Q163.89 617.831 166.343 617.252 Q168.797 616.674 170.834 616.674 Q176.204 616.674 179.399 619.359 Q182.593 622.044 182.593 626.535 Q182.593 628.664 181.783 630.586 Q180.996 632.484 178.889 635.076 Q178.311 635.748 175.209 638.965 Q172.107 642.16 166.459 647.924 Z" fill="#000000" fill-rule="evenodd" fill-opacity="1" /><path clip-path="url(#clip060)" d="M 0 0 M192.639 617.299 L210.996 617.299 L210.996 621.234 L196.922 621.234 L196.922 629.706 Q197.94 629.359 198.959 629.197 Q199.977 629.012 200.996 629.012 Q206.783 629.012 210.162 632.183 Q213.542 635.354 213.542 640.771 Q213.542 646.349 210.07 649.451 Q206.598 652.53 200.278 652.53 Q198.102 652.53 195.834 652.16 Q193.588 651.789 191.181 651.048 L191.181 646.349 Q193.264 647.484 195.487 648.039 Q197.709 648.595 200.186 648.595 Q204.19 648.595 206.528 646.488 Q208.866 644.382 208.866 640.771 Q208.866 637.16 206.528 635.053 Q204.19 632.947 200.186 632.947 Q198.311 632.947 196.436 633.363 Q194.584 633.78 192.639 634.66 L192.639 617.299 Z" fill="#000000" fill-rule="evenodd" fill-opacity="1" /><path clip-path="url(#clip060)" d="M 0 0 M117.015 443.496 L124.654 443.496 L124.654 417.13 L116.343 418.797 L116.343 414.537 L124.607 412.871 L129.283 412.871 L129.283 443.496 L136.922 443.496 L136.922 447.431 L117.015 447.431 L117.015 443.496 Z" fill="#000000" fill-rule="evenodd" fill-opacity="1" /><path clip-path="url(#clip060)" d="M 0 0 M146.366 441.551 L151.251 441.551 L151.251 447.431 L146.366 447.431 L146.366 441.551 Z" fill="#000000" fill-rule="evenodd" fill-opacity="1" /><path clip-path="url(#clip060)" d="M 0 0 M161.482 412.871 L179.839 412.871 L179.839 416.806 L165.765 416.806 L165.765 425.278 Q166.783 424.931 167.802 424.769 Q168.82 424.584 169.839 424.584 Q175.626 424.584 179.005 427.755 Q182.385 430.926 182.385 436.343 Q182.385 441.921 178.913 445.023 Q175.44 448.102 169.121 448.102 Q166.945 448.102 164.677 447.732 Q162.431 447.361 160.024 446.621 L160.024 441.921 Q162.107 443.056 164.329 443.611 Q166.552 444.167 169.028 444.167 Q173.033 444.167 175.371 442.06 Q177.709 439.954 177.709 436.343 Q177.709 432.732 175.371 430.625 Q173.033 428.519 169.028 428.519 Q167.153 428.519 165.278 428.935 Q163.427 429.352 161.482 430.232 L161.482 412.871 Z" fill="#000000" fill-rule="evenodd" fill-opacity="1" /><path clip-path="url(#clip060)" d="M 0 0 M201.598 415.949 Q197.987 415.949 196.158 419.514 Q194.352 423.056 194.352 430.185 Q194.352 437.292 196.158 440.857 Q197.987 444.398 201.598 444.398 Q205.232 444.398 207.037 440.857 Q208.866 437.292 208.866 430.185 Q208.866 423.056 207.037 419.514 Q205.232 415.949 201.598 415.949 M201.598 412.246 Q207.408 412.246 210.463 416.852 Q213.542 421.435 213.542 430.185 Q213.542 438.912 210.463 443.519 Q207.408 448.102 201.598 448.102 Q195.787 448.102 192.709 443.519 Q189.653 438.912 189.653 430.185 Q189.653 421.435 192.709 416.852 Q195.787 412.246 201.598 412.246 Z" fill="#000000" fill-rule="evenodd" fill-opacity="1" /><path clip-path="url(#clip060)" d="M 0 0 M118.01 239.068 L125.649 239.068 L125.649 212.702 L117.339 214.369 L117.339 210.109 L125.603 208.443 L130.279 208.443 L130.279 239.068 L137.917 239.068 L137.917 243.003 L118.01 243.003 L118.01 239.068 Z" fill="#000000" fill-rule="evenodd" fill-opacity="1" /><path clip-path="url(#clip060)" d="M 0 0 M147.362 237.123 L152.246 237.123 L152.246 243.003 L147.362 243.003 L147.362 237.123 Z" fill="#000000" fill-rule="evenodd" fill-opacity="1" /><path clip-path="url(#clip060)" d="M 0 0 M161.251 208.443 L183.473 208.443 L183.473 210.433 L170.927 243.003 L166.042 243.003 L177.848 212.378 L161.251 212.378 L161.251 208.443 Z" fill="#000000" fill-rule="evenodd" fill-opacity="1" /><path clip-path="url(#clip060)" d="M 0 0 M192.639 208.443 L210.996 208.443 L210.996 212.378 L196.922 212.378 L196.922 220.85 Q197.94 220.503 198.959 220.341 Q199.977 220.156 200.996 220.156 Q206.783 220.156 210.162 223.327 Q213.542 226.498 213.542 231.915 Q213.542 237.493 210.07 240.595 Q206.598 243.674 200.278 243.674 Q198.102 243.674 195.834 243.304 Q193.588 242.933 191.181 242.193 L191.181 237.493 Q193.264 238.628 195.487 239.183 Q197.709 239.739 200.186 239.739 Q204.19 239.739 206.528 237.632 Q208.866 235.526 208.866 231.915 Q208.866 228.304 206.528 226.197 Q204.19 224.091 200.186 224.091 Q198.311 224.091 196.436 224.507 Q194.584 224.924 192.639 225.804 L192.639 208.443 Z" fill="#000000" fill-rule="evenodd" fill-opacity="1" /><path clip-path="url(#clip060)" d="M 0 0 M18.2347 862.271 L28.3562 862.271 L28.3562 850.208 L32.9077 850.208 L32.9077 862.271 L52.2594 862.271 Q56.6199 862.271 57.8613 861.093 Q59.1026 859.884 59.1026 856.223 L59.1026 850.208 L64.0042 850.208 L64.0042 856.223 Q64.0042 863.003 61.4897 865.581 Q58.9434 868.159 52.2594 868.159 L32.9077 868.159 L32.9077 872.456 L28.3562 872.456 L28.3562 868.159 L18.2347 868.159 L18.2347 862.271 Z" fill="#000000" fill-rule="evenodd" fill-opacity="1" /><path clip-path="url(#clip060)" d="M 0 0 M28.3562 842.505 L28.3562 836.649 L64.0042 836.649 L64.0042 842.505 L28.3562 842.505 M14.479 842.505 L14.479 836.649 L21.895 836.649 L21.895 842.505 L14.479 842.505 Z" fill="#000000" fill-rule="evenodd" fill-opacity="1" /><path clip-path="url(#clip060)" d="M 0 0 M35.1993 796.64 Q31.2526 794.444 29.3747 791.389 Q27.4968 788.333 27.4968 784.195 Q27.4968 778.625 31.4117 775.602 Q35.2948 772.578 42.4881 772.578 L64.0042 772.578 L64.0042 778.466 L42.679 778.466 Q37.5546 778.466 35.072 780.281 Q32.5894 782.095 32.5894 785.819 Q32.5894 790.37 35.6131 793.012 Q38.6368 795.654 43.8567 795.654 L64.0042 795.654 L64.0042 801.542 L42.679 801.542 Q37.5228 801.542 35.072 803.356 Q32.5894 805.17 32.5894 808.958 Q32.5894 813.446 35.6449 816.088 Q38.6686 818.729 43.8567 818.729 L64.0042 818.729 L64.0042 824.618 L28.3562 824.618 L28.3562 818.729 L33.8944 818.729 Q30.616 816.724 29.0564 813.923 Q27.4968 811.122 27.4968 807.271 Q27.4968 803.388 29.4702 800.683 Q31.4436 797.945 35.1993 796.64 Z" fill="#000000" fill-rule="evenodd" fill-opacity="1" /><path clip-path="url(#clip060)" d="M 0 0 M44.7161 730.405 L47.5806 730.405 L47.5806 757.332 Q53.6281 756.95 56.8109 753.704 Q59.9619 750.425 59.9619 744.601 Q59.9619 741.227 59.1344 738.076 Q58.3069 734.893 56.6518 731.774 L62.1899 731.774 Q63.5267 734.925 64.227 738.235 Q64.9272 741.545 64.9272 744.951 Q64.9272 753.481 59.9619 758.478 Q54.9967 763.443 46.5303 763.443 Q37.7774 763.443 32.6531 758.733 Q27.4968 753.99 27.4968 745.969 Q27.4968 738.776 32.1438 734.607 Q36.7589 730.405 44.7161 730.405 M42.9973 736.262 Q38.1912 736.325 35.3266 738.967 Q32.4621 741.577 32.4621 745.906 Q32.4621 750.807 35.2312 753.767 Q38.0002 756.696 43.0292 757.141 L42.9973 736.262 Z" fill="#000000" fill-rule="evenodd" fill-opacity="1" /><path clip-path="url(#clip060)" d="M 0 0 M16.4842 710.385 L16.4842 704.974 L70.0516 721.525 L70.0516 726.936 L16.4842 710.385 Z" fill="#000000" fill-rule="evenodd" fill-opacity="1" /><path clip-path="url(#clip060)" d="M 0 0 M29.4065 676.106 L34.9447 676.106 Q33.6716 678.588 33.035 681.262 Q32.3984 683.936 32.3984 686.8 Q32.3984 691.161 33.7352 693.357 Q35.072 695.521 37.7456 695.521 Q39.7826 695.521 40.9603 693.962 Q42.1061 692.402 43.1565 687.691 L43.6021 685.686 Q44.9389 679.448 47.3897 676.838 Q49.8086 674.196 54.1691 674.196 Q59.1344 674.196 62.0308 678.143 Q64.9272 682.058 64.9272 688.933 Q64.9272 691.797 64.3543 694.916 Q63.8132 698.004 62.6992 701.441 L56.6518 701.441 Q58.3387 698.195 59.198 695.044 Q60.0256 691.893 60.0256 688.805 Q60.0256 684.668 58.6251 682.44 Q57.1929 680.212 54.6147 680.212 Q52.2276 680.212 50.9545 681.835 Q49.6813 683.426 48.5037 688.869 L48.0262 690.906 Q46.8804 696.349 44.5251 698.768 Q42.138 701.187 38.0002 701.187 Q32.9713 701.187 30.2341 697.622 Q27.4968 694.057 27.4968 687.5 Q27.4968 684.254 27.9743 681.389 Q28.4517 678.525 29.4065 676.106 Z" fill="#000000" fill-rule="evenodd" fill-opacity="1" /><path clip-path="url(#clip060)" d="M 0 0 M1183.77 14.324 L1183.77 27.2059 L1199.13 27.2059 L1199.13 32.9987 L1183.77 32.9987 L1183.77 57.6282 Q1183.77 63.1779 1185.27 64.7578 Q1186.81 66.3376 1191.47 66.3376 L1199.13 66.3376 L1199.13 72.576 L1191.47 72.576 Q1182.84 72.576 1179.56 69.3758 Q1176.28 66.1351 1176.28 57.6282 L1176.28 32.9987 L1170.81 32.9987 L1170.81 27.2059 L1176.28 27.2059 L1176.28 14.324 L1183.77 14.324 Z" fill="#000000" fill-rule="evenodd" fill-opacity="1" /><path clip-path="url(#clip060)" d="M 0 0 M1208.93 27.2059 L1216.38 27.2059 L1216.38 72.576 L1208.93 72.576 L1208.93 27.2059 M1208.93 9.54393 L1216.38 9.54393 L1216.38 18.9825 L1208.93 18.9825 L1208.93 9.54393 Z" fill="#000000" fill-rule="evenodd" fill-opacity="1" /><path clip-path="url(#clip060)" d="M 0 0 M1267.3 35.9153 Q1270.1 30.8922 1273.99 28.5022 Q1277.88 26.1121 1283.14 26.1121 Q1290.23 26.1121 1294.08 31.0947 Q1297.93 36.0368 1297.93 45.1919 L1297.93 72.576 L1290.43 72.576 L1290.43 45.4349 Q1290.43 38.913 1288.13 35.7533 Q1285.82 32.5936 1281.08 32.5936 Q1275.28 32.5936 1271.92 36.4419 Q1268.56 40.2903 1268.56 46.9338 L1268.56 72.576 L1261.07 72.576 L1261.07 45.4349 Q1261.07 38.8725 1258.76 35.7533 Q1256.45 32.5936 1251.63 32.5936 Q1245.91 32.5936 1242.55 36.4824 Q1239.19 40.3308 1239.19 46.9338 L1239.19 72.576 L1231.7 72.576 L1231.7 27.2059 L1239.19 27.2059 L1239.19 34.2544 Q1241.74 30.082 1245.31 28.0971 Q1248.87 26.1121 1253.77 26.1121 Q1258.72 26.1121 1262.16 28.6237 Q1265.64 31.1352 1267.3 35.9153 Z" fill="#000000" fill-rule="evenodd" fill-opacity="1" /><path clip-path="url(#clip060)" d="M 0 0 M1351.6 48.0275 L1351.6 51.6733 L1317.33 51.6733 Q1317.82 59.3701 1321.95 63.421 Q1326.12 67.4314 1333.54 67.4314 Q1337.83 67.4314 1341.84 66.3781 Q1345.89 65.3249 1349.86 63.2184 L1349.86 70.267 Q1345.85 71.9684 1341.64 72.8596 Q1337.42 73.7508 1333.09 73.7508 Q1322.23 73.7508 1315.87 67.4314 Q1309.55 61.1119 1309.55 50.3365 Q1309.55 39.1965 1315.55 32.6746 Q1321.59 26.1121 1331.79 26.1121 Q1340.95 26.1121 1346.26 32.0264 Q1351.6 37.9003 1351.6 48.0275 M1344.15 45.84 Q1344.07 39.7232 1340.71 36.0774 Q1337.38 32.4315 1331.88 32.4315 Q1325.64 32.4315 1321.87 35.9558 Q1318.14 39.4801 1317.58 45.8805 L1344.15 45.84 Z" fill="#000000" fill-rule="evenodd" fill-opacity="1" /><path clip-path="url(#clip060)" d="M 0 0 M1360.07 46.5287 L1381.9 46.5287 L1381.9 53.1722 L1360.07 53.1722 L1360.07 46.5287 Z" fill="#000000" fill-rule="evenodd" fill-opacity="1" /><path clip-path="url(#clip060)" d="M 0 0 M1415.61 82.7033 L1409.57 67.1883 L1397.14 89.8734 L1388.34 89.8734 L1405.93 57.7902 L1398.55 38.7104 Q1396.57 33.6063 1390.33 33.6063 L1388.34 33.6063 L1388.34 27.2059 L1391.18 27.2869 Q1401.63 27.5705 1404.26 34.3355 L1410.26 49.8504 L1422.7 27.1654 L1431.49 27.1654 L1413.91 59.2485 L1421.28 78.3283 Q1423.26 83.4324 1429.5 83.4324 L1431.49 83.4324 L1431.49 89.8329 L1428.65 89.7518 Q1418.2 89.4683 1415.61 82.7033 Z" fill="#000000" fill-rule="evenodd" fill-opacity="1" /><polyline clip-path="url(#clip062)" style="stroke:#009af9; stroke-width:12; stroke-opacity:1; fill:none" points="
  309.067,1386.4 1301.15,1296.95 2293.23,1121.31 
  "/>
<polyline clip-path="url(#clip062)" style="stroke:#e26f46; stroke-width:12; stroke-opacity:1; fill:none" points="
  309.067,209.363 1301.15,199.559 2293.23,160.256 
  "/>
<path clip-path="url(#clip060)" d="
M1862.2 348.236 L2282.65 348.236 L2282.65 166.796 L1862.2 166.796  Z
  " fill="#ffffff" fill-rule="evenodd" fill-opacity="1"/>
<polyline clip-path="url(#clip060)" style="stroke:#000000; stroke-width:4; stroke-opacity:1; fill:none" points="
  1862.2,348.236 2282.65,348.236 2282.65,166.796 1862.2,166.796 1862.2,348.236 
  "/>
<polyline clip-path="url(#clip060)" style="stroke:#009af9; stroke-width:4; stroke-opacity:1; fill:none" points="
  1885.57,227.276 2025.78,227.276 
  "/>
<path clip-path="url(#clip060)" d="M 0 0 M2064.99 214.602 L2058.64 231.801 L2071.35 231.801 L2064.99 214.602 M2062.35 209.996 L2067.65 209.996 L2080.82 244.556 L2075.96 244.556 L2072.81 235.69 L2057.23 235.69 L2054.08 244.556 L2049.15 244.556 L2062.35 209.996 Z" fill="#000000" fill-rule="evenodd" fill-opacity="1" /><path clip-path="url(#clip060)" d="M 0 0 M2100.7 222.611 Q2099.99 222.195 2099.13 222.01 Q2098.3 221.801 2097.28 221.801 Q2093.67 221.801 2091.72 224.162 Q2089.8 226.5 2089.8 230.898 L2089.8 244.556 L2085.52 244.556 L2085.52 218.63 L2089.8 218.63 L2089.8 222.658 Q2091.14 220.297 2093.3 219.162 Q2095.45 218.005 2098.53 218.005 Q2098.97 218.005 2099.5 218.074 Q2100.03 218.121 2100.68 218.236 L2100.7 222.611 Z" fill="#000000" fill-rule="evenodd" fill-opacity="1" /><path clip-path="url(#clip060)" d="M 0 0 M2119.36 222.611 Q2118.64 222.195 2117.79 222.01 Q2116.95 221.801 2115.93 221.801 Q2112.32 221.801 2110.38 224.162 Q2108.46 226.5 2108.46 230.898 L2108.46 244.556 L2104.18 244.556 L2104.18 218.63 L2108.46 218.63 L2108.46 222.658 Q2109.8 220.297 2111.95 219.162 Q2114.11 218.005 2117.18 218.005 Q2117.62 218.005 2118.16 218.074 Q2118.69 218.121 2119.34 218.236 L2119.36 222.611 Z" fill="#000000" fill-rule="evenodd" fill-opacity="1" /><path clip-path="url(#clip060)" d="M 0 0 M2135.61 231.523 Q2130.45 231.523 2128.46 232.704 Q2126.47 233.884 2126.47 236.732 Q2126.47 239 2127.95 240.343 Q2129.45 241.662 2132.02 241.662 Q2135.56 241.662 2137.69 239.162 Q2139.85 236.639 2139.85 232.472 L2139.85 231.523 L2135.61 231.523 M2144.11 229.764 L2144.11 244.556 L2139.85 244.556 L2139.85 240.621 Q2138.39 242.982 2136.21 244.116 Q2134.04 245.227 2130.89 245.227 Q2126.91 245.227 2124.55 243.005 Q2122.21 240.759 2122.21 237.009 Q2122.21 232.634 2125.12 230.412 Q2128.06 228.19 2133.87 228.19 L2139.85 228.19 L2139.85 227.773 Q2139.85 224.834 2137.9 223.236 Q2135.98 221.616 2132.49 221.616 Q2130.26 221.616 2128.16 222.148 Q2126.05 222.681 2124.11 223.746 L2124.11 219.81 Q2126.44 218.908 2128.64 218.468 Q2130.84 218.005 2132.93 218.005 Q2138.55 218.005 2141.33 220.922 Q2144.11 223.838 2144.11 229.764 Z" fill="#000000" fill-rule="evenodd" fill-opacity="1" /><path clip-path="url(#clip060)" d="M 0 0 M2163.67 246.963 Q2161.86 251.593 2160.15 253.005 Q2158.43 254.417 2155.56 254.417 L2152.16 254.417 L2152.16 250.852 L2154.66 250.852 Q2156.42 250.852 2157.39 250.019 Q2158.36 249.185 2159.55 246.083 L2160.31 244.139 L2149.82 218.63 L2154.34 218.63 L2162.44 238.908 L2170.54 218.63 L2175.05 218.63 L2163.67 246.963 Z" fill="#000000" fill-rule="evenodd" fill-opacity="1" /><polyline clip-path="url(#clip060)" style="stroke:#e26f46; stroke-width:4; stroke-opacity:1; fill:none" points="
  1885.57,287.756 2025.78,287.756 
  "/>
<path clip-path="url(#clip060)" d="M 0 0 M2077.02 273.138 L2077.02 278.068 Q2074.66 275.869 2071.98 274.781 Q2069.31 273.693 2066.31 273.693 Q2060.38 273.693 2057.23 277.328 Q2054.08 280.939 2054.08 287.79 Q2054.08 294.619 2057.23 298.253 Q2060.38 301.864 2066.31 301.864 Q2069.31 301.864 2071.98 300.776 Q2074.66 299.689 2077.02 297.489 L2077.02 302.374 Q2074.57 304.04 2071.81 304.874 Q2069.08 305.707 2066.03 305.707 Q2058.18 305.707 2053.67 300.915 Q2049.15 296.101 2049.15 287.79 Q2049.15 279.457 2053.67 274.666 Q2058.18 269.851 2066.03 269.851 Q2069.13 269.851 2071.86 270.684 Q2074.62 271.494 2077.02 273.138 Z" fill="#000000" fill-rule="evenodd" fill-opacity="1" /><path clip-path="url(#clip060)" d="M 0 0 M2083.62 294.804 L2083.62 279.11 L2087.88 279.11 L2087.88 294.642 Q2087.88 298.323 2089.31 300.175 Q2090.75 302.003 2093.62 302.003 Q2097.07 302.003 2099.06 299.804 Q2101.07 297.605 2101.07 293.809 L2101.07 279.11 L2105.33 279.11 L2105.33 305.036 L2101.07 305.036 L2101.07 301.054 Q2099.52 303.415 2097.46 304.573 Q2095.43 305.707 2092.72 305.707 Q2088.25 305.707 2085.93 302.929 Q2083.62 300.151 2083.62 294.804 M2094.34 278.485 L2094.34 278.485 Z" fill="#000000" fill-rule="evenodd" fill-opacity="1" /><path clip-path="url(#clip060)" d="M 0 0 M2125.84 275.082 L2119.5 292.281 L2132.21 292.281 L2125.84 275.082 M2123.2 270.476 L2128.5 270.476 L2141.68 305.036 L2136.81 305.036 L2133.67 296.17 L2118.09 296.17 L2114.94 305.036 L2110.01 305.036 L2123.2 270.476 Z" fill="#000000" fill-rule="evenodd" fill-opacity="1" /><path clip-path="url(#clip060)" d="M 0 0 M2161.56 283.091 Q2160.84 282.675 2159.99 282.49 Q2159.15 282.281 2158.13 282.281 Q2154.52 282.281 2152.58 284.642 Q2150.66 286.98 2150.66 291.378 L2150.66 305.036 L2146.37 305.036 L2146.37 279.11 L2150.66 279.11 L2150.66 283.138 Q2152 280.777 2154.15 279.642 Q2156.3 278.485 2159.38 278.485 Q2159.82 278.485 2160.36 278.554 Q2160.89 278.601 2161.54 278.716 L2161.56 283.091 Z" fill="#000000" fill-rule="evenodd" fill-opacity="1" /><path clip-path="url(#clip060)" d="M 0 0 M2180.22 283.091 Q2179.5 282.675 2178.64 282.49 Q2177.81 282.281 2176.79 282.281 Q2173.18 282.281 2171.24 284.642 Q2169.31 286.98 2169.31 291.378 L2169.31 305.036 L2165.03 305.036 L2165.03 279.11 L2169.31 279.11 L2169.31 283.138 Q2170.66 280.777 2172.81 279.642 Q2174.96 278.485 2178.04 278.485 Q2178.48 278.485 2179.01 278.554 Q2179.55 278.601 2180.19 278.716 L2180.22 283.091 Z" fill="#000000" fill-rule="evenodd" fill-opacity="1" /><path clip-path="url(#clip060)" d="M 0 0 M2196.47 292.003 Q2191.3 292.003 2189.31 293.184 Q2187.32 294.364 2187.32 297.212 Q2187.32 299.48 2188.8 300.823 Q2190.31 302.142 2192.88 302.142 Q2196.42 302.142 2198.55 299.642 Q2200.7 297.119 2200.7 292.952 L2200.7 292.003 L2196.47 292.003 M2204.96 290.244 L2204.96 305.036 L2200.7 305.036 L2200.7 301.101 Q2199.24 303.462 2197.07 304.596 Q2194.89 305.707 2191.74 305.707 Q2187.76 305.707 2185.4 303.485 Q2183.06 301.239 2183.06 297.489 Q2183.06 293.114 2185.98 290.892 Q2188.92 288.67 2194.73 288.67 L2200.7 288.67 L2200.7 288.253 Q2200.7 285.314 2198.76 283.716 Q2196.84 282.096 2193.34 282.096 Q2191.12 282.096 2189.01 282.628 Q2186.91 283.161 2184.96 284.226 L2184.96 280.29 Q2187.3 279.388 2189.5 278.948 Q2191.7 278.485 2193.78 278.485 Q2199.41 278.485 2202.18 281.402 Q2204.96 284.318 2204.96 290.244 Z" fill="#000000" fill-rule="evenodd" fill-opacity="1" /><path clip-path="url(#clip060)" d="M 0 0 M2224.52 307.443 Q2222.72 312.073 2221 313.485 Q2219.29 314.897 2216.42 314.897 L2213.02 314.897 L2213.02 311.332 L2215.52 311.332 Q2217.28 311.332 2218.25 310.499 Q2219.22 309.665 2220.4 306.563 L2221.17 304.619 L2210.68 279.11 L2215.19 279.11 L2223.3 299.388 L2231.4 279.11 L2235.91 279.11 L2224.52 307.443 Z" fill="#000000" fill-rule="evenodd" fill-opacity="1" /></svg>
