<?xml version="1.0" encoding="utf-8"?>
<svg xmlns="http://www.w3.org/2000/svg" xmlns:xlink="http://www.w3.org/1999/xlink" width="600" height="400" viewBox="0 0 2400 1600">
<defs>
  <clipPath id="clip420">
    <rect x="0" y="0" width="2400" height="1600"/>
  </clipPath>
</defs>
<path clip-path="url(#clip420)" d="
M0 1600 L2400 1600 L2400 0 L0 0  Z
  " fill="#ffffff" fill-rule="evenodd" fill-opacity="1"/>
<defs>
  <clipPath id="clip421">
    <rect x="480" y="0" width="1681" height="1600"/>
  </clipPath>
</defs>
<path clip-path="url(#clip420)" d="
M219.033 1423.18 L2352.76 1423.18 L2352.76 123.472 L219.033 123.472  Z
  " fill="#ffffff" fill-rule="evenodd" fill-opacity="1"/>
<defs>
  <clipPath id="clip422">
    <rect x="219" y="123" width="2135" height="1301"/>
  </clipPath>
</defs>
<polyline clip-path="url(#clip422)" style="stroke:#000000; stroke-width:2; stroke-opacity:0.1; fill:none" points="
  547.814,1423.18 547.814,123.472 
  "/>
<polyline clip-path="url(#clip422)" style="stroke:#000000; stroke-width:2; stroke-opacity:0.1; fill:none" points="
  950.403,1423.18 950.403,123.472 
  "/>
<polyline clip-path="url(#clip422)" style="stroke:#000000; stroke-width:2; stroke-opacity:0.1; fill:none" points="
  1352.99,1423.18 1352.99,123.472 
  "/>
<polyline clip-path="url(#clip422)" style="stroke:#000000; stroke-width:2; stroke-opacity:0.1; fill:none" points="
  1755.58,1423.18 1755.58,123.472 
  "/>
<polyline clip-path="url(#clip422)" style="stroke:#000000; stroke-width:2; stroke-opacity:0.1; fill:none" points="
  2158.17,1423.18 2158.17,123.472 
  "/>
<polyline clip-path="url(#clip420)" style="stroke:#000000; stroke-width:4; stroke-opacity:1; fill:none" points="
  219.033,1423.18 2352.76,1423.18 
  "/>
<polyline clip-path="url(#clip420)" style="stroke:#000000; stroke-width:4; stroke-opacity:1; fill:none" points="
  547.814,1423.18 547.814,1407.58 
  "/>
<polyline clip-path="url(#clip420)" style="stroke:#000000; stroke-width:4; stroke-opacity:1; fill:none" points="
  950.403,1423.18 950.403,1407.58 
  "/>
<polyline clip-path="url(#clip420)" style="stroke:#000000; stroke-width:4; stroke-opacity:1; fill:none" points="
  1352.99,1423.18 1352.99,1407.58 
  "/>
<polyline clip-path="url(#clip420)" style="stroke:#000000; stroke-width:4; stroke-opacity:1; fill:none" points="
  1755.58,1423.18 1755.58,1407.58 
  "/>
<polyline clip-path="url(#clip420)" style="stroke:#000000; stroke-width:4; stroke-opacity:1; fill:none" points="
  2158.17,1423.18 2158.17,1407.58 
  "/>
<path clip-path="url(#clip420)" d="M 0 0 M523.3 1479.92 L530.939 1479.92 L530.939 1453.55 L522.629 1455.22 L522.629 1450.96 L530.893 1449.29 L535.569 1449.29 L535.569 1479.92 L543.208 1479.92 L543.208 1483.85 L523.3 1483.85 L523.3 1479.92 Z" fill="#000000" fill-rule="evenodd" fill-opacity="1" /><path clip-path="url(#clip420)" d="M 0 0 M556.68 1479.92 L572.999 1479.92 L572.999 1483.85 L551.055 1483.85 L551.055 1479.92 Q553.717 1477.16 558.3 1472.53 Q562.907 1467.88 564.087 1466.54 Q566.333 1464.01 567.212 1462.28 Q568.115 1460.52 568.115 1458.83 Q568.115 1456.07 566.171 1454.34 Q564.249 1452.6 561.147 1452.6 Q558.948 1452.6 556.495 1453.37 Q554.064 1454.13 551.286 1455.68 L551.286 1450.96 Q554.11 1449.82 556.564 1449.25 Q559.018 1448.67 561.055 1448.67 Q566.425 1448.67 569.62 1451.35 Q572.814 1454.04 572.814 1458.53 Q572.814 1460.66 572.004 1462.58 Q571.217 1464.48 569.11 1467.07 Q568.532 1467.74 565.43 1470.96 Q562.328 1474.15 556.68 1479.92 Z" fill="#000000" fill-rule="evenodd" fill-opacity="1" /><path clip-path="url(#clip420)" d="M 0 0 M925.589 1479.92 L933.228 1479.92 L933.228 1453.55 L924.917 1455.22 L924.917 1450.96 L933.181 1449.29 L937.857 1449.29 L937.857 1479.92 L945.496 1479.92 L945.496 1483.85 L925.589 1483.85 L925.589 1479.92 Z" fill="#000000" fill-rule="evenodd" fill-opacity="1" /><path clip-path="url(#clip420)" d="M 0 0 M954.987 1449.29 L973.343 1449.29 L973.343 1453.23 L959.269 1453.23 L959.269 1461.7 Q960.288 1461.35 961.306 1461.19 Q962.325 1461 963.343 1461 Q969.13 1461 972.51 1464.18 Q975.889 1467.35 975.889 1472.76 Q975.889 1478.34 972.417 1481.44 Q968.945 1484.52 962.626 1484.52 Q960.45 1484.52 958.181 1484.15 Q955.936 1483.78 953.528 1483.04 L953.528 1478.34 Q955.612 1479.48 957.834 1480.03 Q960.056 1480.59 962.533 1480.59 Q966.538 1480.59 968.876 1478.48 Q971.213 1476.38 971.213 1472.76 Q971.213 1469.15 968.876 1467.05 Q966.538 1464.94 962.533 1464.94 Q960.658 1464.94 958.783 1465.36 Q956.931 1465.77 954.987 1466.65 L954.987 1449.29 Z" fill="#000000" fill-rule="evenodd" fill-opacity="1" /><path clip-path="url(#clip420)" d="M 0 0 M1327.73 1479.92 L1335.37 1479.92 L1335.37 1453.55 L1327.06 1455.22 L1327.06 1450.96 L1335.32 1449.29 L1340 1449.29 L1340 1479.92 L1347.63 1479.92 L1347.63 1483.85 L1327.73 1483.85 L1327.73 1479.92 Z" fill="#000000" fill-rule="evenodd" fill-opacity="1" /><path clip-path="url(#clip420)" d="M 0 0 M1367.08 1467.44 Q1363.74 1467.44 1361.82 1469.22 Q1359.93 1471 1359.93 1474.13 Q1359.93 1477.25 1361.82 1479.04 Q1363.74 1480.82 1367.08 1480.82 Q1370.41 1480.82 1372.33 1479.04 Q1374.25 1477.23 1374.25 1474.13 Q1374.25 1471 1372.33 1469.22 Q1370.43 1467.44 1367.08 1467.44 M1362.4 1465.45 Q1359.39 1464.71 1357.7 1462.65 Q1356.04 1460.59 1356.04 1457.63 Q1356.04 1453.48 1358.98 1451.07 Q1361.94 1448.67 1367.08 1448.67 Q1372.24 1448.67 1375.18 1451.07 Q1378.12 1453.48 1378.12 1457.63 Q1378.12 1460.59 1376.43 1462.65 Q1374.76 1464.71 1371.78 1465.45 Q1375.16 1466.24 1377.03 1468.53 Q1378.93 1470.82 1378.93 1474.13 Q1378.93 1479.15 1375.85 1481.84 Q1372.8 1484.52 1367.08 1484.52 Q1361.36 1484.52 1358.28 1481.84 Q1355.23 1479.15 1355.23 1474.13 Q1355.23 1470.82 1357.12 1468.53 Q1359.02 1466.24 1362.4 1465.45 M1360.69 1458.06 Q1360.69 1460.75 1362.36 1462.25 Q1364.05 1463.76 1367.08 1463.76 Q1370.09 1463.76 1371.78 1462.25 Q1373.49 1460.75 1373.49 1458.06 Q1373.49 1455.38 1371.78 1453.88 Q1370.09 1452.37 1367.08 1452.37 Q1364.05 1452.37 1362.36 1453.88 Q1360.69 1455.38 1360.69 1458.06 Z" fill="#000000" fill-rule="evenodd" fill-opacity="1" /><path clip-path="url(#clip420)" d="M 0 0 M1734.97 1479.92 L1751.29 1479.92 L1751.29 1483.85 L1729.34 1483.85 L1729.34 1479.92 Q1732.01 1477.16 1736.59 1472.53 Q1741.2 1467.88 1742.38 1466.54 Q1744.62 1464.01 1745.5 1462.28 Q1746.4 1460.52 1746.4 1458.83 Q1746.4 1456.07 1744.46 1454.34 Q1742.54 1452.6 1739.44 1452.6 Q1737.24 1452.6 1734.78 1453.37 Q1732.35 1454.13 1729.58 1455.68 L1729.58 1450.96 Q1732.4 1449.82 1734.85 1449.25 Q1737.31 1448.67 1739.34 1448.67 Q1744.71 1448.67 1747.91 1451.35 Q1751.1 1454.04 1751.1 1458.53 Q1751.1 1460.66 1750.29 1462.58 Q1749.51 1464.48 1747.4 1467.07 Q1746.82 1467.74 1743.72 1470.96 Q1740.62 1474.15 1734.97 1479.92 Z" fill="#000000" fill-rule="evenodd" fill-opacity="1" /><path clip-path="url(#clip420)" d="M 0 0 M1761.91 1479.92 L1769.55 1479.92 L1769.55 1453.55 L1761.24 1455.22 L1761.24 1450.96 L1769.51 1449.29 L1774.18 1449.29 L1774.18 1479.92 L1781.82 1479.92 L1781.82 1483.85 L1761.91 1483.85 L1761.91 1479.92 Z" fill="#000000" fill-rule="evenodd" fill-opacity="1" /><path clip-path="url(#clip420)" d="M 0 0 M2136.7 1479.92 L2153.02 1479.92 L2153.02 1483.85 L2131.08 1483.85 L2131.08 1479.92 Q2133.74 1477.16 2138.32 1472.53 Q2142.93 1467.88 2144.11 1466.54 Q2146.35 1464.01 2147.23 1462.28 Q2148.14 1460.52 2148.14 1458.83 Q2148.14 1456.07 2146.19 1454.34 Q2144.27 1452.6 2141.17 1452.6 Q2138.97 1452.6 2136.52 1453.37 Q2134.09 1454.13 2131.31 1455.68 L2131.31 1450.96 Q2134.13 1449.82 2136.59 1449.25 Q2139.04 1448.67 2141.08 1448.67 Q2146.45 1448.67 2149.64 1451.35 Q2152.84 1454.04 2152.84 1458.53 Q2152.84 1460.66 2152.03 1462.58 Q2151.24 1464.48 2149.13 1467.07 Q2148.55 1467.74 2145.45 1470.96 Q2142.35 1474.15 2136.7 1479.92 Z" fill="#000000" fill-rule="evenodd" fill-opacity="1" /><path clip-path="url(#clip420)" d="M 0 0 M2175.68 1453.37 L2163.88 1471.81 L2175.68 1471.81 L2175.68 1453.37 M2174.46 1449.29 L2180.34 1449.29 L2180.34 1471.81 L2185.27 1471.81 L2185.27 1475.7 L2180.34 1475.7 L2180.34 1483.85 L2175.68 1483.85 L2175.68 1475.7 L2160.08 1475.7 L2160.08 1471.19 L2174.46 1449.29 Z" fill="#000000" fill-rule="evenodd" fill-opacity="1" /><path clip-path="url(#clip420)" d="M 0 0 M1290.37 1576 L1285.62 1563.81 L1275.85 1581.63 L1268.95 1581.63 L1282.76 1556.43 L1276.97 1541.44 Q1275.41 1537.42 1270.51 1537.42 L1268.95 1537.42 L1268.95 1532.4 L1271.17 1532.46 Q1279.39 1532.68 1281.45 1538 L1286.16 1550.19 L1295.94 1532.36 L1302.84 1532.36 L1289.03 1557.57 L1294.82 1572.56 Q1296.38 1576.57 1301.28 1576.57 L1302.84 1576.57 L1302.84 1581.6 L1300.62 1581.54 Q1292.4 1581.32 1290.37 1576 Z" fill="#000000" fill-rule="evenodd" fill-opacity="1" /><polyline clip-path="url(#clip422)" style="stroke:#000000; stroke-width:2; stroke-opacity:0.1; fill:none" points="
  219.033,1194.01 2352.76,1194.01 
  "/>
<polyline clip-path="url(#clip422)" style="stroke:#000000; stroke-width:2; stroke-opacity:0.1; fill:none" points="
  219.033,901.261 2352.76,901.261 
  "/>
<polyline clip-path="url(#clip422)" style="stroke:#000000; stroke-width:2; stroke-opacity:0.1; fill:none" points="
  219.033,608.513 2352.76,608.513 
  "/>
<polyline clip-path="url(#clip422)" style="stroke:#000000; stroke-width:2; stroke-opacity:0.1; fill:none" points="
  219.033,315.765 2352.76,315.765 
  "/>
<polyline clip-path="url(#clip420)" style="stroke:#000000; stroke-width:4; stroke-opacity:1; fill:none" points="
  219.033,1423.18 219.033,123.472 
  "/>
<polyline clip-path="url(#clip420)" style="stroke:#000000; stroke-width:4; stroke-opacity:1; fill:none" points="
  219.033,1194.01 244.638,1194.01 
  "/>
<polyline clip-path="url(#clip420)" style="stroke:#000000; stroke-width:4; stroke-opacity:1; fill:none" points="
  219.033,901.261 244.638,901.261 
  "/>
<polyline clip-path="url(#clip420)" style="stroke:#000000; stroke-width:4; stroke-opacity:1; fill:none" points="
  219.033,608.513 244.638,608.513 
  "/>
<polyline clip-path="url(#clip420)" style="stroke:#000000; stroke-width:4; stroke-opacity:1; fill:none" points="
  219.033,315.765 244.638,315.765 
  "/>
<path clip-path="url(#clip420)" d="M 0 0 M126.853 1179.81 Q123.242 1179.81 121.413 1183.37 Q119.607 1186.91 119.607 1194.04 Q119.607 1201.15 121.413 1204.72 Q123.242 1208.26 126.853 1208.26 Q130.487 1208.26 132.292 1204.72 Q134.121 1201.15 134.121 1194.04 Q134.121 1186.91 132.292 1183.37 Q130.487 1179.81 126.853 1179.81 M126.853 1176.1 Q132.663 1176.1 135.718 1180.71 Q138.797 1185.29 138.797 1194.04 Q138.797 1202.77 135.718 1207.38 Q132.663 1211.96 126.853 1211.96 Q121.043 1211.96 117.964 1207.38 Q114.908 1202.77 114.908 1194.04 Q114.908 1185.29 117.964 1180.71 Q121.043 1176.1 126.853 1176.1 Z" fill="#000000" fill-rule="evenodd" fill-opacity="1" /><path clip-path="url(#clip420)" d="M 0 0 M147.015 1205.41 L151.899 1205.41 L151.899 1211.29 L147.015 1211.29 L147.015 1205.41 Z" fill="#000000" fill-rule="evenodd" fill-opacity="1" /><path clip-path="url(#clip420)" d="M 0 0 M162.13 1176.73 L180.487 1176.73 L180.487 1180.66 L166.413 1180.66 L166.413 1189.14 Q167.431 1188.79 168.45 1188.63 Q169.468 1188.44 170.487 1188.44 Q176.274 1188.44 179.653 1191.61 Q183.033 1194.78 183.033 1200.2 Q183.033 1205.78 179.561 1208.88 Q176.089 1211.96 169.769 1211.96 Q167.593 1211.96 165.325 1211.59 Q163.079 1211.22 160.672 1210.48 L160.672 1205.78 Q162.755 1206.91 164.977 1207.47 Q167.2 1208.03 169.677 1208.03 Q173.681 1208.03 176.019 1205.92 Q178.357 1203.81 178.357 1200.2 Q178.357 1196.59 176.019 1194.48 Q173.681 1192.38 169.677 1192.38 Q167.802 1192.38 165.927 1192.79 Q164.075 1193.21 162.13 1194.09 L162.13 1176.73 Z" fill="#000000" fill-rule="evenodd" fill-opacity="1" /><path clip-path="url(#clip420)" d="M 0 0 M116.668 914.606 L124.306 914.606 L124.306 888.241 L115.996 889.907 L115.996 885.648 L124.26 883.981 L128.936 883.981 L128.936 914.606 L136.575 914.606 L136.575 918.541 L116.668 918.541 L116.668 914.606 Z" fill="#000000" fill-rule="evenodd" fill-opacity="1" /><path clip-path="url(#clip420)" d="M 0 0 M146.019 912.662 L150.903 912.662 L150.903 918.541 L146.019 918.541 L146.019 912.662 Z" fill="#000000" fill-rule="evenodd" fill-opacity="1" /><path clip-path="url(#clip420)" d="M 0 0 M171.089 887.06 Q167.477 887.06 165.649 890.625 Q163.843 894.166 163.843 901.296 Q163.843 908.403 165.649 911.967 Q167.477 915.509 171.089 915.509 Q174.723 915.509 176.528 911.967 Q178.357 908.403 178.357 901.296 Q178.357 894.166 176.528 890.625 Q174.723 887.06 171.089 887.06 M171.089 883.356 Q176.899 883.356 179.954 887.963 Q183.033 892.546 183.033 901.296 Q183.033 910.023 179.954 914.629 Q176.899 919.213 171.089 919.213 Q165.278 919.213 162.2 914.629 Q159.144 910.023 159.144 901.296 Q159.144 892.546 162.2 887.963 Q165.278 883.356 171.089 883.356 Z" fill="#000000" fill-rule="evenodd" fill-opacity="1" /><path clip-path="url(#clip420)" d="M 0 0 M117.663 621.858 L125.302 621.858 L125.302 595.493 L116.992 597.159 L116.992 592.9 L125.255 591.233 L129.931 591.233 L129.931 621.858 L137.57 621.858 L137.57 625.793 L117.663 625.793 L117.663 621.858 Z" fill="#000000" fill-rule="evenodd" fill-opacity="1" /><path clip-path="url(#clip420)" d="M 0 0 M147.015 619.914 L151.899 619.914 L151.899 625.793 L147.015 625.793 L147.015 619.914 Z" fill="#000000" fill-rule="evenodd" fill-opacity="1" /><path clip-path="url(#clip420)" d="M 0 0 M162.13 591.233 L180.487 591.233 L180.487 595.169 L166.413 595.169 L166.413 603.641 Q167.431 603.293 168.45 603.131 Q169.468 602.946 170.487 602.946 Q176.274 602.946 179.653 606.118 Q183.033 609.289 183.033 614.705 Q183.033 620.284 179.561 623.386 Q176.089 626.465 169.769 626.465 Q167.593 626.465 165.325 626.094 Q163.079 625.724 160.672 624.983 L160.672 620.284 Q162.755 621.418 164.977 621.974 Q167.2 622.529 169.677 622.529 Q173.681 622.529 176.019 620.423 Q178.357 618.317 178.357 614.705 Q178.357 611.094 176.019 608.988 Q173.681 606.881 169.677 606.881 Q167.802 606.881 165.927 607.298 Q164.075 607.715 162.13 608.594 L162.13 591.233 Z" fill="#000000" fill-rule="evenodd" fill-opacity="1" /><path clip-path="url(#clip420)" d="M 0 0 M119.885 329.11 L136.204 329.11 L136.204 333.045 L114.26 333.045 L114.26 329.11 Q116.922 326.356 121.505 321.726 Q126.112 317.073 127.292 315.731 Q129.538 313.207 130.417 311.471 Q131.32 309.712 131.32 308.022 Q131.32 305.268 129.376 303.532 Q127.455 301.796 124.353 301.796 Q122.154 301.796 119.7 302.559 Q117.269 303.323 114.492 304.874 L114.492 300.152 Q117.316 299.018 119.769 298.439 Q122.223 297.86 124.26 297.86 Q129.63 297.86 132.825 300.546 Q136.019 303.231 136.019 307.721 Q136.019 309.851 135.209 311.772 Q134.422 313.67 132.316 316.263 Q131.737 316.934 128.635 320.152 Q125.533 323.346 119.885 329.11 Z" fill="#000000" fill-rule="evenodd" fill-opacity="1" /><path clip-path="url(#clip420)" d="M 0 0 M146.019 327.166 L150.903 327.166 L150.903 333.045 L146.019 333.045 L146.019 327.166 Z" fill="#000000" fill-rule="evenodd" fill-opacity="1" /><path clip-path="url(#clip420)" d="M 0 0 M171.089 301.564 Q167.477 301.564 165.649 305.129 Q163.843 308.67 163.843 315.8 Q163.843 322.906 165.649 326.471 Q167.477 330.013 171.089 330.013 Q174.723 330.013 176.528 326.471 Q178.357 322.906 178.357 315.8 Q178.357 308.67 176.528 305.129 Q174.723 301.564 171.089 301.564 M171.089 297.86 Q176.899 297.86 179.954 302.467 Q183.033 307.05 183.033 315.8 Q183.033 324.527 179.954 329.133 Q176.899 333.717 171.089 333.717 Q165.278 333.717 162.2 329.133 Q159.144 324.527 159.144 315.8 Q159.144 307.05 162.2 302.467 Q165.278 297.86 171.089 297.86 Z" fill="#000000" fill-rule="evenodd" fill-opacity="1" /><path clip-path="url(#clip420)" d="M 0 0 M18.2347 862.271 L28.3562 862.271 L28.3562 850.208 L32.9077 850.208 L32.9077 862.271 L52.2594 862.271 Q56.6199 862.271 57.8613 861.093 Q59.1026 859.884 59.1026 856.223 L59.1026 850.208 L64.0042 850.208 L64.0042 856.223 Q64.0042 863.003 61.4897 865.581 Q58.9434 868.159 52.2594 868.159 L32.9077 868.159 L32.9077 872.456 L28.3562 872.456 L28.3562 868.159 L18.2347 868.159 L18.2347 862.271 Z" fill="#000000" fill-rule="evenodd" fill-opacity="1" /><path clip-path="url(#clip420)" d="M 0 0 M28.3562 842.505 L28.3562 836.649 L64.0042 836.649 L64.0042 842.505 L28.3562 842.505 M14.479 842.505 L14.479 836.649 L21.895 836.649 L21.895 842.505 L14.479 842.505 Z" fill="#000000" fill-rule="evenodd" fill-opacity="1" /><path clip-path="url(#clip420)" d="M 0 0 M35.1993 796.64 Q31.2526 794.444 29.3747 791.389 Q27.4968 788.333 27.4968 784.195 Q27.4968 778.625 31.4117 775.602 Q35.2948 772.578 42.4881 772.578 L64.0042 772.578 L64.0042 778.466 L42.679 778.466 Q37.5546 778.466 35.072 780.281 Q32.5894 782.095 32.5894 785.819 Q32.5894 790.37 35.6131 793.012 Q38.6368 795.654 43.8567 795.654 L64.0042 795.654 L64.0042 801.542 L42.679 801.542 Q37.5228 801.542 35.072 803.356 Q32.5894 805.17 32.5894 808.958 Q32.5894 813.446 35.6449 816.088 Q38.6686 818.729 43.8567 818.729 L64.0042 818.729 L64.0042 824.618 L28.3562 824.618 L28.3562 818.729 L33.8944 818.729 Q30.616 816.724 29.0564 813.923 Q27.4968 811.122 27.4968 807.271 Q27.4968 803.388 29.4702 800.683 Q31.4436 797.945 35.1993 796.64 Z" fill="#000000" fill-rule="evenodd" fill-opacity="1" /><path clip-path="url(#clip420)" d="M 0 0 M44.7161 730.405 L47.5806 730.405 L47.5806 757.332 Q53.6281 756.95 56.8109 753.704 Q59.9619 750.425 59.9619 744.601 Q59.9619 741.227 59.1344 738.076 Q58.3069 734.893 56.6518 731.774 L62.1899 731.774 Q63.5267 734.925 64.227 738.235 Q64.9272 741.545 64.9272 744.951 Q64.9272 753.481 59.9619 758.478 Q54.9967 763.443 46.5303 763.443 Q37.7774 763.443 32.6531 758.733 Q27.4968 753.99 27.4968 745.969 Q27.4968 738.776 32.1438 734.607 Q36.7589 730.405 44.7161 730.405 M42.9973 736.262 Q38.1912 736.325 35.3266 738.967 Q32.4621 741.577 32.4621 745.906 Q32.4621 750.807 35.2312 753.767 Q38.0002 756.696 43.0292 757.141 L42.9973 736.262 Z" fill="#000000" fill-rule="evenodd" fill-opacity="1" /><path clip-path="url(#clip420)" d="M 0 0 M16.4842 710.385 L16.4842 704.974 L70.0516 721.525 L70.0516 726.936 L16.4842 710.385 Z" fill="#000000" fill-rule="evenodd" fill-opacity="1" /><path clip-path="url(#clip420)" d="M 0 0 M29.4065 676.106 L34.9447 676.106 Q33.6716 678.588 33.035 681.262 Q32.3984 683.936 32.3984 686.8 Q32.3984 691.161 33.7352 693.357 Q35.072 695.521 37.7456 695.521 Q39.7826 695.521 40.9603 693.962 Q42.1061 692.402 43.1565 687.691 L43.6021 685.686 Q44.9389 679.448 47.3897 676.838 Q49.8086 674.196 54.1691 674.196 Q59.1344 674.196 62.0308 678.143 Q64.9272 682.058 64.9272 688.933 Q64.9272 691.797 64.3543 694.916 Q63.8132 698.004 62.6992 701.441 L56.6518 701.441 Q58.3387 698.195 59.198 695.044 Q60.0256 691.893 60.0256 688.805 Q60.0256 684.668 58.6251 682.44 Q57.1929 680.212 54.6147 680.212 Q52.2276 680.212 50.9545 681.835 Q49.6813 683.426 48.5037 688.869 L48.0262 690.906 Q46.8804 696.349 44.5251 698.768 Q42.138 701.187 38.0002 701.187 Q32.9713 701.187 30.2341 697.622 Q27.4968 694.057 27.4968 687.5 Q27.4968 684.254 27.9743 681.389 Q28.4517 678.525 29.4065 676.106 Z" fill="#000000" fill-rule="evenodd" fill-opacity="1" /><path clip-path="url(#clip420)" d="M 0 0 M1168.52 14.324 L1168.52 27.2059 L1183.87 27.2059 L1183.87 32.9987 L1168.52 32.9987 L1168.52 57.6282 Q1168.52 63.1779 1170.02 64.7578 Q1171.56 66.3376 1176.22 66.3376 L1183.87 66.3376 L1183.87 72.576 L1176.22 72.576 Q1167.59 72.576 1164.31 69.3758 Q1161.03 66.1351 1161.03 57.6282 L1161.03 32.9987 L1155.56 32.9987 L1155.56 27.2059 L1161.03 27.2059 L1161.03 14.324 L1168.52 14.324 Z" fill="#000000" fill-rule="evenodd" fill-opacity="1" /><path clip-path="url(#clip420)" d="M 0 0 M1193.68 27.2059 L1201.13 27.2059 L1201.13 72.576 L1193.68 72.576 L1193.68 27.2059 M1193.68 9.54393 L1201.13 9.54393 L1201.13 18.9825 L1193.68 18.9825 L1193.68 9.54393 Z" fill="#000000" fill-rule="evenodd" fill-opacity="1" /><path clip-path="url(#clip420)" d="M 0 0 M1252.05 35.9153 Q1254.84 30.8922 1258.73 28.5022 Q1262.62 26.1121 1267.89 26.1121 Q1274.98 26.1121 1278.83 31.0947 Q1282.67 36.0368 1282.67 45.1919 L1282.67 72.576 L1275.18 72.576 L1275.18 45.4349 Q1275.18 38.913 1272.87 35.7533 Q1270.56 32.5936 1265.82 32.5936 Q1260.03 32.5936 1256.67 36.4419 Q1253.3 40.2903 1253.3 46.9338 L1253.3 72.576 L1245.81 72.576 L1245.81 45.4349 Q1245.81 38.8725 1243.5 35.7533 Q1241.19 32.5936 1236.37 32.5936 Q1230.66 32.5936 1227.3 36.4824 Q1223.94 40.3308 1223.94 46.9338 L1223.94 72.576 L1216.44 72.576 L1216.44 27.2059 L1223.94 27.2059 L1223.94 34.2544 Q1226.49 30.082 1230.05 28.0971 Q1233.62 26.1121 1238.52 26.1121 Q1243.46 26.1121 1246.9 28.6237 Q1250.39 31.1352 1252.05 35.9153 Z" fill="#000000" fill-rule="evenodd" fill-opacity="1" /><path clip-path="url(#clip420)" d="M 0 0 M1336.35 48.0275 L1336.35 51.6733 L1302.08 51.6733 Q1302.56 59.3701 1306.7 63.421 Q1310.87 67.4314 1318.28 67.4314 Q1322.58 67.4314 1326.59 66.3781 Q1330.64 65.3249 1334.61 63.2184 L1334.61 70.267 Q1330.6 71.9684 1326.38 72.8596 Q1322.17 73.7508 1317.84 73.7508 Q1306.98 73.7508 1300.62 67.4314 Q1294.3 61.1119 1294.3 50.3365 Q1294.3 39.1965 1300.3 32.6746 Q1306.33 26.1121 1316.54 26.1121 Q1325.69 26.1121 1331 32.0264 Q1336.35 37.9003 1336.35 48.0275 M1328.89 45.84 Q1328.81 39.7232 1325.45 36.0774 Q1322.13 32.4315 1316.62 32.4315 Q1310.38 32.4315 1306.61 35.9558 Q1302.89 39.4801 1302.32 45.8805 L1328.89 45.84 Z" fill="#000000" fill-rule="evenodd" fill-opacity="1" /><path clip-path="url(#clip420)" d="M 0 0 M1344.81 46.5287 L1366.65 46.5287 L1366.65 53.1722 L1344.81 53.1722 L1344.81 46.5287 Z" fill="#000000" fill-rule="evenodd" fill-opacity="1" /><path clip-path="url(#clip420)" d="M 0 0 M1400.35 82.7033 L1394.32 67.1883 L1381.88 89.8734 L1373.09 89.8734 L1390.67 57.7902 L1383.3 38.7104 Q1381.31 33.6063 1375.08 33.6063 L1373.09 33.6063 L1373.09 27.2059 L1375.93 27.2869 Q1386.38 27.5705 1389.01 34.3355 L1395.01 49.8504 L1407.44 27.1654 L1416.23 27.1654 L1398.65 59.2485 L1406.02 78.3283 Q1408.01 83.4324 1414.25 83.4324 L1416.23 83.4324 L1416.23 89.8329 L1413.4 89.7518 Q1402.95 89.4683 1400.35 82.7033 Z" fill="#000000" fill-rule="evenodd" fill-opacity="1" /><polyline clip-path="url(#clip422)" style="stroke:#009af9; stroke-width:12; stroke-opacity:1; fill:none" points="
  279.421,1386.4 950.403,1378.81 1621.39,1334.63 2292.37,1266.6 
  "/>
<polyline clip-path="url(#clip422)" style="stroke:#e26f46; stroke-width:12; stroke-opacity:1; fill:none" points="
  279.421,529.159 950.403,408.369 1621.39,251.919 2292.37,160.256 
  "/>
<path clip-path="url(#clip420)" d="
M1857.79 348.236 L2281.63 348.236 L2281.63 166.796 L1857.79 166.796  Z
  " fill="#ffffff" fill-rule="evenodd" fill-opacity="1"/>
<polyline clip-path="url(#clip420)" style="stroke:#000000; stroke-width:4; stroke-opacity:1; fill:none" points="
  1857.79,348.236 2281.63,348.236 2281.63,166.796 1857.79,166.796 1857.79,348.236 
  "/>
<polyline clip-path="url(#clip420)" style="stroke:#009af9; stroke-width:4; stroke-opacity:1; fill:none" points="
  1881.5,227.276 2023.75,227.276 
  "/>
<path clip-path="url(#clip420)" d="M 0 0 M2063.29 214.602 L2056.95 231.801 L2069.66 231.801 L2063.29 214.602 M2060.65 209.996 L2065.95 209.996 L2079.12 244.556 L2074.26 244.556 L2071.11 235.69 L2055.54 235.69 L2052.39 244.556 L2047.46 244.556 L2060.65 209.996 Z" fill="#000000" fill-rule="evenodd" fill-opacity="1" /><path clip-path="url(#clip420)" d="M 0 0 M2099.01 222.611 Q2098.29 222.195 2097.43 222.01 Q2096.6 221.801 2095.58 221.801 Q2091.97 221.801 2090.03 224.162 Q2088.11 226.5 2088.11 230.898 L2088.11 244.556 L2083.82 244.556 L2083.82 218.63 L2088.11 218.63 L2088.11 222.658 Q2089.45 220.297 2091.6 219.162 Q2093.75 218.005 2096.83 218.005 Q2097.27 218.005 2097.8 218.074 Q2098.34 218.121 2098.98 218.236 L2099.01 222.611 Z" fill="#000000" fill-rule="evenodd" fill-opacity="1" /><path clip-path="url(#clip420)" d="M 0 0 M2117.67 222.611 Q2116.95 222.195 2116.09 222.01 Q2115.26 221.801 2114.24 221.801 Q2110.63 221.801 2108.68 224.162 Q2106.76 226.5 2106.76 230.898 L2106.76 244.556 L2102.48 244.556 L2102.48 218.63 L2106.76 218.63 L2106.76 222.658 Q2108.11 220.297 2110.26 219.162 Q2112.41 218.005 2115.49 218.005 Q2115.93 218.005 2116.46 218.074 Q2116.99 218.121 2117.64 218.236 L2117.67 222.611 Z" fill="#000000" fill-rule="evenodd" fill-opacity="1" /><path clip-path="url(#clip420)" d="M 0 0 M2133.92 231.523 Q2128.75 231.523 2126.76 232.704 Q2124.77 233.884 2124.77 236.732 Q2124.77 239 2126.25 240.343 Q2127.76 241.662 2130.33 241.662 Q2133.87 241.662 2136 239.162 Q2138.15 236.639 2138.15 232.472 L2138.15 231.523 L2133.92 231.523 M2142.41 229.764 L2142.41 244.556 L2138.15 244.556 L2138.15 240.621 Q2136.69 242.982 2134.52 244.116 Q2132.34 245.227 2129.19 245.227 Q2125.21 245.227 2122.85 243.005 Q2120.51 240.759 2120.51 237.009 Q2120.51 232.634 2123.43 230.412 Q2126.37 228.19 2132.18 228.19 L2138.15 228.19 L2138.15 227.773 Q2138.15 224.834 2136.21 223.236 Q2134.29 221.616 2130.79 221.616 Q2128.57 221.616 2126.46 222.148 Q2124.36 222.681 2122.41 223.746 L2122.41 219.81 Q2124.75 218.908 2126.95 218.468 Q2129.15 218.005 2131.23 218.005 Q2136.86 218.005 2139.63 220.922 Q2142.41 223.838 2142.41 229.764 Z" fill="#000000" fill-rule="evenodd" fill-opacity="1" /><path clip-path="url(#clip420)" d="M 0 0 M2161.97 246.963 Q2160.17 251.593 2158.45 253.005 Q2156.74 254.417 2153.87 254.417 L2150.47 254.417 L2150.47 250.852 L2152.97 250.852 Q2154.73 250.852 2155.7 250.019 Q2156.67 249.185 2157.85 246.083 L2158.61 244.139 L2148.13 218.63 L2152.64 218.63 L2160.74 238.908 L2168.85 218.63 L2173.36 218.63 L2161.97 246.963 Z" fill="#000000" fill-rule="evenodd" fill-opacity="1" /><polyline clip-path="url(#clip420)" style="stroke:#e26f46; stroke-width:4; stroke-opacity:1; fill:none" points="
  1881.5,287.756 2023.75,287.756 
  "/>
<path clip-path="url(#clip420)" d="M 0 0 M2075.33 273.138 L2075.33 278.068 Q2072.97 275.869 2070.28 274.781 Q2067.62 273.693 2064.61 273.693 Q2058.68 273.693 2055.54 277.328 Q2052.39 280.939 2052.39 287.79 Q2052.39 294.619 2055.54 298.253 Q2058.68 301.864 2064.61 301.864 Q2067.62 301.864 2070.28 300.776 Q2072.97 299.689 2075.33 297.489 L2075.33 302.374 Q2072.87 304.04 2070.12 304.874 Q2067.39 305.707 2064.33 305.707 Q2056.49 305.707 2051.97 300.915 Q2047.46 296.101 2047.46 287.79 Q2047.46 279.457 2051.97 274.666 Q2056.49 269.851 2064.33 269.851 Q2067.43 269.851 2070.17 270.684 Q2072.92 271.494 2075.33 273.138 Z" fill="#000000" fill-rule="evenodd" fill-opacity="1" /><path clip-path="url(#clip420)" d="M 0 0 M2081.92 294.804 L2081.92 279.11 L2086.18 279.11 L2086.18 294.642 Q2086.18 298.323 2087.62 300.175 Q2089.05 302.003 2091.92 302.003 Q2095.37 302.003 2097.36 299.804 Q2099.38 297.605 2099.38 293.809 L2099.38 279.11 L2103.64 279.11 L2103.64 305.036 L2099.38 305.036 L2099.38 301.054 Q2097.83 303.415 2095.77 304.573 Q2093.73 305.707 2091.02 305.707 Q2086.55 305.707 2084.24 302.929 Q2081.92 300.151 2081.92 294.804 M2092.64 278.485 L2092.64 278.485 Z" fill="#000000" fill-rule="evenodd" fill-opacity="1" /><path clip-path="url(#clip420)" d="M 0 0 M2124.15 275.082 L2117.8 292.281 L2130.51 292.281 L2124.15 275.082 M2121.51 270.476 L2126.81 270.476 L2139.98 305.036 L2135.12 305.036 L2131.97 296.17 L2116.39 296.17 L2113.24 305.036 L2108.31 305.036 L2121.51 270.476 Z" fill="#000000" fill-rule="evenodd" fill-opacity="1" /><path clip-path="url(#clip420)" d="M 0 0 M2159.86 283.091 Q2159.15 282.675 2158.29 282.49 Q2157.46 282.281 2156.44 282.281 Q2152.83 282.281 2150.88 284.642 Q2148.96 286.98 2148.96 291.378 L2148.96 305.036 L2144.68 305.036 L2144.68 279.11 L2148.96 279.11 L2148.96 283.138 Q2150.3 280.777 2152.46 279.642 Q2154.61 278.485 2157.69 278.485 Q2158.13 278.485 2158.66 278.554 Q2159.19 278.601 2159.84 278.716 L2159.86 283.091 Z" fill="#000000" fill-rule="evenodd" fill-opacity="1" /><path clip-path="url(#clip420)" d="M 0 0 M2178.52 283.091 Q2177.8 282.675 2176.95 282.49 Q2176.11 282.281 2175.1 282.281 Q2171.48 282.281 2169.54 284.642 Q2167.62 286.98 2167.62 291.378 L2167.62 305.036 L2163.34 305.036 L2163.34 279.11 L2167.62 279.11 L2167.62 283.138 Q2168.96 280.777 2171.11 279.642 Q2173.27 278.485 2176.35 278.485 Q2176.79 278.485 2177.32 278.554 Q2177.85 278.601 2178.5 278.716 L2178.52 283.091 Z" fill="#000000" fill-rule="evenodd" fill-opacity="1" /><path clip-path="url(#clip420)" d="M 0 0 M2194.77 292.003 Q2189.61 292.003 2187.62 293.184 Q2185.63 294.364 2185.63 297.212 Q2185.63 299.48 2187.11 300.823 Q2188.61 302.142 2191.18 302.142 Q2194.73 302.142 2196.85 299.642 Q2199.01 297.119 2199.01 292.952 L2199.01 292.003 L2194.77 292.003 M2203.27 290.244 L2203.27 305.036 L2199.01 305.036 L2199.01 301.101 Q2197.55 303.462 2195.37 304.596 Q2193.2 305.707 2190.05 305.707 Q2186.07 305.707 2183.71 303.485 Q2181.37 301.239 2181.37 297.489 Q2181.37 293.114 2184.29 290.892 Q2187.23 288.67 2193.04 288.67 L2199.01 288.67 L2199.01 288.253 Q2199.01 285.314 2197.06 283.716 Q2195.14 282.096 2191.65 282.096 Q2189.42 282.096 2187.32 282.628 Q2185.21 283.161 2183.27 284.226 L2183.27 280.29 Q2185.6 279.388 2187.8 278.948 Q2190 278.485 2192.09 278.485 Q2197.71 278.485 2200.49 281.402 Q2203.27 284.318 2203.27 290.244 Z" fill="#000000" fill-rule="evenodd" fill-opacity="1" /><path clip-path="url(#clip420)" d="M 0 0 M2222.83 307.443 Q2221.02 312.073 2219.31 313.485 Q2217.6 314.897 2214.73 314.897 L2211.32 314.897 L2211.32 311.332 L2213.82 311.332 Q2215.58 311.332 2216.55 310.499 Q2217.53 309.665 2218.71 306.563 L2219.47 304.619 L2208.98 279.11 L2213.5 279.11 L2221.6 299.388 L2229.7 279.11 L2234.22 279.11 L2222.83 307.443 Z" fill="#000000" fill-rule="evenodd" fill-opacity="1" /></svg>
