<?xml version="1.0" encoding="utf-8"?>
<svg xmlns="http://www.w3.org/2000/svg" xmlns:xlink="http://www.w3.org/1999/xlink" width="600" height="400" viewBox="0 0 2400 1600">
<defs>
  <clipPath id="clip810">
    <rect x="0" y="0" width="2400" height="1600"/>
  </clipPath>
</defs>
<path clip-path="url(#clip810)" d="
M0 1600 L2400 1600 L2400 0 L0 0  Z
  " fill="#ffffff" fill-rule="evenodd" fill-opacity="1"/>
<defs>
  <clipPath id="clip811">
    <rect x="480" y="0" width="1681" height="1600"/>
  </clipPath>
</defs>
<path clip-path="url(#clip810)" d="
M217.732 1486.45 L2352.76 1486.45 L2352.76 123.472 L217.732 123.472  Z
  " fill="#ffffff" fill-rule="evenodd" fill-opacity="1"/>
<defs>
  <clipPath id="clip812">
    <rect x="217" y="123" width="2136" height="1364"/>
  </clipPath>
</defs>
<polyline clip-path="url(#clip812)" style="stroke:#000000; stroke-width:2; stroke-opacity:0.1; fill:none" points="
  702.194,1486.45 702.194,123.472 
  "/>
<polyline clip-path="url(#clip812)" style="stroke:#000000; stroke-width:2; stroke-opacity:0.1; fill:none" points="
  1232.24,1486.45 1232.24,123.472 
  "/>
<polyline clip-path="url(#clip812)" style="stroke:#000000; stroke-width:2; stroke-opacity:0.1; fill:none" points="
  1762.29,1486.45 1762.29,123.472 
  "/>
<polyline clip-path="url(#clip812)" style="stroke:#000000; stroke-width:2; stroke-opacity:0.1; fill:none" points="
  2292.33,1486.45 2292.33,123.472 
  "/>
<polyline clip-path="url(#clip810)" style="stroke:#000000; stroke-width:4; stroke-opacity:1; fill:none" points="
  217.732,1486.45 2352.76,1486.45 
  "/>
<polyline clip-path="url(#clip810)" style="stroke:#000000; stroke-width:4; stroke-opacity:1; fill:none" points="
  702.194,1486.45 702.194,1470.09 
  "/>
<polyline clip-path="url(#clip810)" style="stroke:#000000; stroke-width:4; stroke-opacity:1; fill:none" points="
  1232.24,1486.45 1232.24,1470.09 
  "/>
<polyline clip-path="url(#clip810)" style="stroke:#000000; stroke-width:4; stroke-opacity:1; fill:none" points="
  1762.29,1486.45 1762.29,1470.09 
  "/>
<polyline clip-path="url(#clip810)" style="stroke:#000000; stroke-width:4; stroke-opacity:1; fill:none" points="
  2292.33,1486.45 2292.33,1470.09 
  "/>
<path clip-path="url(#clip810)" d="M 0 0 M692.472 1512.56 L710.828 1512.56 L710.828 1516.5 L696.754 1516.5 L696.754 1524.97 Q697.773 1524.62 698.791 1524.46 Q699.81 1524.27 700.828 1524.27 Q706.615 1524.27 709.995 1527.44 Q713.374 1530.62 713.374 1536.03 Q713.374 1541.61 709.902 1544.71 Q706.43 1547.79 700.111 1547.79 Q697.935 1547.79 695.666 1547.42 Q693.421 1547.05 691.013 1546.31 L691.013 1541.61 Q693.097 1542.74 695.319 1543.3 Q697.541 1543.86 700.018 1543.86 Q704.023 1543.86 706.361 1541.75 Q708.698 1539.64 708.698 1536.03 Q708.698 1532.42 706.361 1530.31 Q704.023 1528.21 700.018 1528.21 Q698.143 1528.21 696.268 1528.62 Q694.416 1529.04 692.472 1529.92 L692.472 1512.56 Z" fill="#000000" fill-rule="evenodd" fill-opacity="1" /><path clip-path="url(#clip810)" d="M 0 0 M1206.93 1543.18 L1214.57 1543.18 L1214.57 1516.82 L1206.26 1518.49 L1206.26 1514.23 L1214.52 1512.56 L1219.2 1512.56 L1219.2 1543.18 L1226.83 1543.18 L1226.83 1547.12 L1206.93 1547.12 L1206.93 1543.18 Z" fill="#000000" fill-rule="evenodd" fill-opacity="1" /><path clip-path="url(#clip810)" d="M 0 0 M1246.28 1515.64 Q1242.67 1515.64 1240.84 1519.2 Q1239.03 1522.75 1239.03 1529.87 Q1239.03 1536.98 1240.84 1540.55 Q1242.67 1544.09 1246.28 1544.09 Q1249.91 1544.09 1251.72 1540.55 Q1253.55 1536.98 1253.55 1529.87 Q1253.55 1522.75 1251.72 1519.2 Q1249.91 1515.64 1246.28 1515.64 M1246.28 1511.93 Q1252.09 1511.93 1255.14 1516.54 Q1258.22 1521.12 1258.22 1529.87 Q1258.22 1538.6 1255.14 1543.21 Q1252.09 1547.79 1246.28 1547.79 Q1240.47 1547.79 1237.39 1543.21 Q1234.33 1538.6 1234.33 1529.87 Q1234.33 1521.12 1237.39 1516.54 Q1240.47 1511.93 1246.28 1511.93 Z" fill="#000000" fill-rule="evenodd" fill-opacity="1" /><path clip-path="url(#clip810)" d="M 0 0 M1737.47 1543.18 L1745.11 1543.18 L1745.11 1516.82 L1736.8 1518.49 L1736.8 1514.23 L1745.06 1512.56 L1749.74 1512.56 L1749.74 1543.18 L1757.38 1543.18 L1757.38 1547.12 L1737.47 1547.12 L1737.47 1543.18 Z" fill="#000000" fill-rule="evenodd" fill-opacity="1" /><path clip-path="url(#clip810)" d="M 0 0 M1766.87 1512.56 L1785.22 1512.56 L1785.22 1516.5 L1771.15 1516.5 L1771.15 1524.97 Q1772.17 1524.62 1773.19 1524.46 Q1774.21 1524.27 1775.22 1524.27 Q1781.01 1524.27 1784.39 1527.44 Q1787.77 1530.62 1787.77 1536.03 Q1787.77 1541.61 1784.3 1544.71 Q1780.83 1547.79 1774.51 1547.79 Q1772.33 1547.79 1770.06 1547.42 Q1767.82 1547.05 1765.41 1546.31 L1765.41 1541.61 Q1767.49 1542.74 1769.72 1543.3 Q1771.94 1543.86 1774.41 1543.86 Q1778.42 1543.86 1780.76 1541.75 Q1783.1 1539.64 1783.1 1536.03 Q1783.1 1532.42 1780.76 1530.31 Q1778.42 1528.21 1774.41 1528.21 Q1772.54 1528.21 1770.66 1528.62 Q1768.81 1529.04 1766.87 1529.92 L1766.87 1512.56 Z" fill="#000000" fill-rule="evenodd" fill-opacity="1" /><path clip-path="url(#clip810)" d="M 0 0 M2271.1 1543.18 L2287.42 1543.18 L2287.42 1547.12 L2265.48 1547.12 L2265.48 1543.18 Q2268.14 1540.43 2272.72 1535.8 Q2277.33 1531.15 2278.51 1529.81 Q2280.76 1527.28 2281.64 1525.55 Q2282.54 1523.79 2282.54 1522.1 Q2282.54 1519.34 2280.59 1517.61 Q2278.67 1515.87 2275.57 1515.87 Q2273.37 1515.87 2270.92 1516.63 Q2268.49 1517.4 2265.71 1518.95 L2265.71 1514.23 Q2268.53 1513.09 2270.99 1512.51 Q2273.44 1511.93 2275.48 1511.93 Q2280.85 1511.93 2284.04 1514.62 Q2287.24 1517.31 2287.24 1521.8 Q2287.24 1523.93 2286.43 1525.85 Q2285.64 1527.74 2283.53 1530.34 Q2282.96 1531.01 2279.85 1534.23 Q2276.75 1537.42 2271.1 1543.18 Z" fill="#000000" fill-rule="evenodd" fill-opacity="1" /><path clip-path="url(#clip810)" d="M 0 0 M2307.24 1515.64 Q2303.63 1515.64 2301.8 1519.2 Q2299.99 1522.75 2299.99 1529.87 Q2299.99 1536.98 2301.8 1540.55 Q2303.63 1544.09 2307.24 1544.09 Q2310.87 1544.09 2312.68 1540.55 Q2314.51 1536.98 2314.51 1529.87 Q2314.51 1522.75 2312.68 1519.2 Q2310.87 1515.64 2307.24 1515.64 M2307.24 1511.93 Q2313.05 1511.93 2316.1 1516.54 Q2319.18 1521.12 2319.18 1529.87 Q2319.18 1538.6 2316.1 1543.21 Q2313.05 1547.79 2307.24 1547.79 Q2301.43 1547.79 2298.35 1543.21 Q2295.29 1538.6 2295.29 1529.87 Q2295.29 1521.12 2298.35 1516.54 Q2301.43 1511.93 2307.24 1511.93 Z" fill="#000000" fill-rule="evenodd" fill-opacity="1" /><polyline clip-path="url(#clip812)" style="stroke:#000000; stroke-width:2; stroke-opacity:0.1; fill:none" points="
  217.732,1376.83 2352.76,1376.83 
  "/>
<polyline clip-path="url(#clip812)" style="stroke:#000000; stroke-width:2; stroke-opacity:0.1; fill:none" points="
  217.732,1188.85 2352.76,1188.85 
  "/>
<polyline clip-path="url(#clip812)" style="stroke:#000000; stroke-width:2; stroke-opacity:0.1; fill:none" points="
  217.732,1000.87 2352.76,1000.87 
  "/>
<polyline clip-path="url(#clip812)" style="stroke:#000000; stroke-width:2; stroke-opacity:0.1; fill:none" points="
  217.732,812.895 2352.76,812.895 
  "/>
<polyline clip-path="url(#clip812)" style="stroke:#000000; stroke-width:2; stroke-opacity:0.1; fill:none" points="
  217.732,624.917 2352.76,624.917 
  "/>
<polyline clip-path="url(#clip812)" style="stroke:#000000; stroke-width:2; stroke-opacity:0.1; fill:none" points="
  217.732,436.94 2352.76,436.94 
  "/>
<polyline clip-path="url(#clip812)" style="stroke:#000000; stroke-width:2; stroke-opacity:0.1; fill:none" points="
  217.732,248.962 2352.76,248.962 
  "/>
<polyline clip-path="url(#clip810)" style="stroke:#000000; stroke-width:4; stroke-opacity:1; fill:none" points="
  217.732,1486.45 217.732,123.472 
  "/>
<polyline clip-path="url(#clip810)" style="stroke:#000000; stroke-width:4; stroke-opacity:1; fill:none" points="
  217.732,1376.83 243.352,1376.83 
  "/>
<polyline clip-path="url(#clip810)" style="stroke:#000000; stroke-width:4; stroke-opacity:1; fill:none" points="
  217.732,1188.85 243.352,1188.85 
  "/>
<polyline clip-path="url(#clip810)" style="stroke:#000000; stroke-width:4; stroke-opacity:1; fill:none" points="
  217.732,1000.87 243.352,1000.87 
  "/>
<polyline clip-path="url(#clip810)" style="stroke:#000000; stroke-width:4; stroke-opacity:1; fill:none" points="
  217.732,812.895 243.352,812.895 
  "/>
<polyline clip-path="url(#clip810)" style="stroke:#000000; stroke-width:4; stroke-opacity:1; fill:none" points="
  217.732,624.917 243.352,624.917 
  "/>
<polyline clip-path="url(#clip810)" style="stroke:#000000; stroke-width:4; stroke-opacity:1; fill:none" points="
  217.732,436.94 243.352,436.94 
  "/>
<polyline clip-path="url(#clip810)" style="stroke:#000000; stroke-width:4; stroke-opacity:1; fill:none" points="
  217.732,248.962 243.352,248.962 
  "/>
<path clip-path="url(#clip810)" d="M 0 0 M68.6772 1363.62 L56.8717 1382.07 L68.6772 1382.07 L68.6772 1363.62 M67.4504 1359.55 L73.33 1359.55 L73.33 1382.07 L78.2605 1382.07 L78.2605 1385.96 L73.33 1385.96 L73.33 1394.11 L68.6772 1394.11 L68.6772 1385.96 L53.0754 1385.96 L53.0754 1381.45 L67.4504 1359.55 Z" fill="#000000" fill-rule="evenodd" fill-opacity="1" /><path clip-path="url(#clip810)" d="M 0 0 M85.9919 1388.23 L90.8762 1388.23 L90.8762 1394.11 L85.9919 1394.11 L85.9919 1388.23 Z" fill="#000000" fill-rule="evenodd" fill-opacity="1" /><path clip-path="url(#clip810)" d="M 0 0 M101.2 1393.39 L101.2 1389.13 Q102.959 1389.97 104.765 1390.41 Q106.571 1390.84 108.307 1390.84 Q112.936 1390.84 115.367 1387.74 Q117.82 1384.62 118.168 1378.28 Q116.825 1380.27 114.765 1381.33 Q112.705 1382.4 110.205 1382.4 Q105.02 1382.4 101.987 1379.27 Q98.978 1376.12 98.978 1370.68 Q98.978 1365.36 102.126 1362.14 Q105.274 1358.92 110.506 1358.92 Q116.501 1358.92 119.649 1363.53 Q122.82 1368.11 122.82 1376.86 Q122.82 1385.03 118.932 1389.92 Q115.066 1394.78 108.515 1394.78 Q106.756 1394.78 104.95 1394.43 Q103.145 1394.09 101.2 1393.39 M110.506 1378.74 Q113.654 1378.74 115.483 1376.59 Q117.334 1374.43 117.334 1370.68 Q117.334 1366.96 115.483 1364.8 Q113.654 1362.63 110.506 1362.63 Q107.358 1362.63 105.506 1364.8 Q103.677 1366.96 103.677 1370.68 Q103.677 1374.43 105.506 1376.59 Q107.358 1378.74 110.506 1378.74 Z" fill="#000000" fill-rule="evenodd" fill-opacity="1" /><path clip-path="url(#clip810)" d="M 0 0 M141.802 1374.97 Q138.654 1374.97 136.802 1377.12 Q134.973 1379.27 134.973 1383.02 Q134.973 1386.75 136.802 1388.92 Q138.654 1391.08 141.802 1391.08 Q144.95 1391.08 146.779 1388.92 Q148.63 1386.75 148.63 1383.02 Q148.63 1379.27 146.779 1377.12 Q144.95 1374.97 141.802 1374.97 M151.084 1360.31 L151.084 1364.57 Q149.325 1363.74 147.519 1363.3 Q145.737 1362.86 143.978 1362.86 Q139.348 1362.86 136.894 1365.98 Q134.464 1369.11 134.117 1375.43 Q135.482 1373.41 137.543 1372.35 Q139.603 1371.26 142.08 1371.26 Q147.288 1371.26 150.297 1374.43 Q153.33 1377.58 153.33 1383.02 Q153.33 1388.34 150.181 1391.56 Q147.033 1394.78 141.802 1394.78 Q135.806 1394.78 132.635 1390.2 Q129.464 1385.59 129.464 1376.86 Q129.464 1368.67 133.353 1363.81 Q137.242 1358.92 143.793 1358.92 Q145.552 1358.92 147.334 1359.27 Q149.14 1359.62 151.084 1360.31 Z" fill="#000000" fill-rule="evenodd" fill-opacity="1" /><path clip-path="url(#clip810)" d="M 0 0 M165.413 1390.17 L181.732 1390.17 L181.732 1394.11 L159.788 1394.11 L159.788 1390.17 Q162.45 1387.42 167.033 1382.79 Q171.64 1378.14 172.82 1376.79 Q175.066 1374.27 175.945 1372.53 Q176.848 1370.78 176.848 1369.09 Q176.848 1366.33 174.903 1364.6 Q172.982 1362.86 169.88 1362.86 Q167.681 1362.86 165.228 1363.62 Q162.797 1364.39 160.019 1365.94 L160.019 1361.22 Q162.843 1360.08 165.297 1359.5 Q167.751 1358.92 169.788 1358.92 Q175.158 1358.92 178.353 1361.61 Q181.547 1364.29 181.547 1368.78 Q181.547 1370.91 180.737 1372.84 Q179.95 1374.73 177.843 1377.33 Q177.265 1378 174.163 1381.22 Q171.061 1384.41 165.413 1390.17 Z" fill="#000000" fill-rule="evenodd" fill-opacity="1" /><path clip-path="url(#clip810)" d="M 0 0 M67.7281 1175.65 L55.9227 1194.09 L67.7281 1194.09 L67.7281 1175.65 M66.5013 1171.57 L72.3809 1171.57 L72.3809 1194.09 L77.3114 1194.09 L77.3114 1197.98 L72.3809 1197.98 L72.3809 1206.13 L67.7281 1206.13 L67.7281 1197.98 L52.1264 1197.98 L52.1264 1193.47 L66.5013 1171.57 Z" fill="#000000" fill-rule="evenodd" fill-opacity="1" /><path clip-path="url(#clip810)" d="M 0 0 M85.0429 1200.25 L89.9271 1200.25 L89.9271 1206.13 L85.0429 1206.13 L85.0429 1200.25 Z" fill="#000000" fill-rule="evenodd" fill-opacity="1" /><path clip-path="url(#clip810)" d="M 0 0 M100.251 1205.41 L100.251 1201.15 Q102.01 1201.99 103.816 1202.43 Q105.621 1202.87 107.358 1202.87 Q111.987 1202.87 114.418 1199.77 Q116.871 1196.64 117.219 1190.3 Q115.876 1192.29 113.816 1193.35 Q111.756 1194.42 109.256 1194.42 Q104.071 1194.42 101.038 1191.29 Q98.0289 1188.14 98.0289 1182.71 Q98.0289 1177.38 101.177 1174.16 Q104.325 1170.95 109.557 1170.95 Q115.552 1170.95 118.7 1175.55 Q121.871 1180.14 121.871 1188.89 Q121.871 1197.06 117.983 1201.94 Q114.117 1206.8 107.566 1206.8 Q105.807 1206.8 104.001 1206.46 Q102.196 1206.11 100.251 1205.41 M109.557 1190.76 Q112.705 1190.76 114.533 1188.61 Q116.385 1186.46 116.385 1182.71 Q116.385 1178.98 114.533 1176.83 Q112.705 1174.65 109.557 1174.65 Q106.408 1174.65 104.557 1176.83 Q102.728 1178.98 102.728 1182.71 Q102.728 1186.46 104.557 1188.61 Q106.408 1190.76 109.557 1190.76 Z" fill="#000000" fill-rule="evenodd" fill-opacity="1" /><path clip-path="url(#clip810)" d="M 0 0 M140.853 1186.99 Q137.705 1186.99 135.853 1189.14 Q134.024 1191.29 134.024 1195.04 Q134.024 1198.77 135.853 1200.95 Q137.705 1203.1 140.853 1203.1 Q144.001 1203.1 145.83 1200.95 Q147.681 1198.77 147.681 1195.04 Q147.681 1191.29 145.83 1189.14 Q144.001 1186.99 140.853 1186.99 M150.135 1172.33 L150.135 1176.59 Q148.376 1175.76 146.57 1175.32 Q144.788 1174.88 143.029 1174.88 Q138.399 1174.88 135.945 1178.01 Q133.515 1181.13 133.168 1187.45 Q134.533 1185.44 136.594 1184.37 Q138.654 1183.28 141.131 1183.28 Q146.339 1183.28 149.348 1186.46 Q152.38 1189.6 152.38 1195.04 Q152.38 1200.37 149.232 1203.58 Q146.084 1206.8 140.853 1206.8 Q134.857 1206.8 131.686 1202.22 Q128.515 1197.61 128.515 1188.89 Q128.515 1180.69 132.404 1175.83 Q136.293 1170.95 142.843 1170.95 Q144.603 1170.95 146.385 1171.29 Q148.191 1171.64 150.135 1172.33 Z" fill="#000000" fill-rule="evenodd" fill-opacity="1" /><path clip-path="url(#clip810)" d="M 0 0 M174.603 1187.5 Q177.959 1188.21 179.834 1190.48 Q181.732 1192.75 181.732 1196.08 Q181.732 1201.2 178.214 1204 Q174.695 1206.8 168.214 1206.8 Q166.038 1206.8 163.723 1206.36 Q161.431 1205.95 158.978 1205.09 L158.978 1200.58 Q160.922 1201.71 163.237 1202.29 Q165.552 1202.87 168.075 1202.87 Q172.473 1202.87 174.765 1201.13 Q177.079 1199.39 177.079 1196.08 Q177.079 1193.03 174.927 1191.32 Q172.797 1189.58 168.978 1189.58 L164.95 1189.58 L164.95 1185.74 L169.163 1185.74 Q172.612 1185.74 174.441 1184.37 Q176.269 1182.98 176.269 1180.39 Q176.269 1177.73 174.371 1176.32 Q172.496 1174.88 168.978 1174.88 Q167.056 1174.88 164.857 1175.3 Q162.658 1175.71 160.019 1176.59 L160.019 1172.43 Q162.681 1171.69 164.996 1171.32 Q167.334 1170.95 169.394 1170.95 Q174.718 1170.95 177.82 1173.38 Q180.922 1175.78 180.922 1179.9 Q180.922 1182.77 179.278 1184.77 Q177.635 1186.73 174.603 1187.5 Z" fill="#000000" fill-rule="evenodd" fill-opacity="1" /><path clip-path="url(#clip810)" d="M 0 0 M66.5939 987.667 L54.7884 1006.12 L66.5939 1006.12 L66.5939 987.667 M65.367 983.593 L71.2466 983.593 L71.2466 1006.12 L76.1772 1006.12 L76.1772 1010.01 L71.2466 1010.01 L71.2466 1018.15 L66.5939 1018.15 L66.5939 1010.01 L50.9921 1010.01 L50.9921 1005.49 L65.367 983.593 Z" fill="#000000" fill-rule="evenodd" fill-opacity="1" /><path clip-path="url(#clip810)" d="M 0 0 M83.9086 1012.27 L88.7928 1012.27 L88.7928 1018.15 L83.9086 1018.15 L83.9086 1012.27 Z" fill="#000000" fill-rule="evenodd" fill-opacity="1" /><path clip-path="url(#clip810)" d="M 0 0 M99.1169 1017.44 L99.1169 1013.18 Q100.876 1014.01 102.682 1014.45 Q104.487 1014.89 106.223 1014.89 Q110.853 1014.89 113.283 1011.79 Q115.737 1008.66 116.084 1002.32 Q114.742 1004.31 112.682 1005.38 Q110.621 1006.44 108.121 1006.44 Q102.936 1006.44 99.9039 1003.32 Q96.8947 1000.17 96.8947 994.727 Q96.8947 989.403 100.043 986.186 Q103.191 982.968 108.422 982.968 Q114.418 982.968 117.566 987.575 Q120.737 992.158 120.737 1000.91 Q120.737 1009.08 116.848 1013.96 Q112.983 1018.82 106.432 1018.82 Q104.672 1018.82 102.867 1018.48 Q101.061 1018.13 99.1169 1017.44 M108.422 1002.78 Q111.571 1002.78 113.399 1000.63 Q115.251 998.477 115.251 994.727 Q115.251 991 113.399 988.848 Q111.571 986.672 108.422 986.672 Q105.274 986.672 103.422 988.848 Q101.594 991 101.594 994.727 Q101.594 998.477 103.422 1000.63 Q105.274 1002.78 108.422 1002.78 Z" fill="#000000" fill-rule="evenodd" fill-opacity="1" /><path clip-path="url(#clip810)" d="M 0 0 M139.719 999.01 Q136.57 999.01 134.719 1001.16 Q132.89 1003.32 132.89 1007.07 Q132.89 1010.79 134.719 1012.97 Q136.57 1015.12 139.719 1015.12 Q142.867 1015.12 144.695 1012.97 Q146.547 1010.79 146.547 1007.07 Q146.547 1003.32 144.695 1001.16 Q142.867 999.01 139.719 999.01 M149.001 984.357 L149.001 988.616 Q147.242 987.783 145.436 987.343 Q143.654 986.903 141.894 986.903 Q137.265 986.903 134.811 990.028 Q132.381 993.153 132.033 999.473 Q133.399 997.459 135.459 996.394 Q137.519 995.306 139.996 995.306 Q145.205 995.306 148.214 998.477 Q151.246 1001.63 151.246 1007.07 Q151.246 1012.39 148.098 1015.61 Q144.95 1018.82 139.719 1018.82 Q133.723 1018.82 130.552 1014.24 Q127.381 1009.63 127.381 1000.91 Q127.381 992.713 131.269 987.852 Q135.158 982.968 141.709 982.968 Q143.468 982.968 145.251 983.315 Q147.056 983.663 149.001 984.357 Z" fill="#000000" fill-rule="evenodd" fill-opacity="1" /><path clip-path="url(#clip810)" d="M 0 0 M172.149 987.667 L160.343 1006.12 L172.149 1006.12 L172.149 987.667 M170.922 983.593 L176.802 983.593 L176.802 1006.12 L181.732 1006.12 L181.732 1010.01 L176.802 1010.01 L176.802 1018.15 L172.149 1018.15 L172.149 1010.01 L156.547 1010.01 L156.547 1005.49 L170.922 983.593 Z" fill="#000000" fill-rule="evenodd" fill-opacity="1" /><path clip-path="url(#clip810)" d="M 0 0 M68.0754 799.689 L56.2699 818.138 L68.0754 818.138 L68.0754 799.689 M66.8485 795.615 L72.7281 795.615 L72.7281 818.138 L77.6586 818.138 L77.6586 822.027 L72.7281 822.027 L72.7281 830.175 L68.0754 830.175 L68.0754 822.027 L52.4736 822.027 L52.4736 817.513 L66.8485 795.615 Z" fill="#000000" fill-rule="evenodd" fill-opacity="1" /><path clip-path="url(#clip810)" d="M 0 0 M85.3901 824.296 L90.2743 824.296 L90.2743 830.175 L85.3901 830.175 L85.3901 824.296 Z" fill="#000000" fill-rule="evenodd" fill-opacity="1" /><path clip-path="url(#clip810)" d="M 0 0 M100.598 829.458 L100.598 825.198 Q102.358 826.032 104.163 826.472 Q105.969 826.911 107.705 826.911 Q112.334 826.911 114.765 823.81 Q117.219 820.685 117.566 814.342 Q116.223 816.333 114.163 817.398 Q112.103 818.462 109.603 818.462 Q104.418 818.462 101.385 815.337 Q98.3761 812.189 98.3761 806.749 Q98.3761 801.425 101.524 798.208 Q104.672 794.99 109.904 794.99 Q115.899 794.99 119.047 799.597 Q122.219 804.18 122.219 812.93 Q122.219 821.101 118.33 825.985 Q114.464 830.847 107.913 830.847 Q106.154 830.847 104.348 830.499 Q102.543 830.152 100.598 829.458 M109.904 814.805 Q113.052 814.805 114.881 812.652 Q116.733 810.499 116.733 806.749 Q116.733 803.023 114.881 800.87 Q113.052 798.694 109.904 798.694 Q106.756 798.694 104.904 800.87 Q103.075 803.023 103.075 806.749 Q103.075 810.499 104.904 812.652 Q106.756 814.805 109.904 814.805 Z" fill="#000000" fill-rule="evenodd" fill-opacity="1" /><path clip-path="url(#clip810)" d="M 0 0 M141.2 811.032 Q138.052 811.032 136.2 813.185 Q134.371 815.337 134.371 819.087 Q134.371 822.814 136.2 824.99 Q138.052 827.143 141.2 827.143 Q144.348 827.143 146.177 824.99 Q148.029 822.814 148.029 819.087 Q148.029 815.337 146.177 813.185 Q144.348 811.032 141.2 811.032 M150.482 796.379 L150.482 800.638 Q148.723 799.805 146.918 799.365 Q145.135 798.925 143.376 798.925 Q138.746 798.925 136.293 802.05 Q133.862 805.175 133.515 811.495 Q134.881 809.481 136.941 808.416 Q139.001 807.328 141.478 807.328 Q146.686 807.328 149.695 810.499 Q152.728 813.648 152.728 819.087 Q152.728 824.411 149.58 827.629 Q146.431 830.847 141.2 830.847 Q135.205 830.847 132.033 826.263 Q128.862 821.657 128.862 812.93 Q128.862 804.736 132.751 799.875 Q136.64 794.99 143.191 794.99 Q144.95 794.99 146.732 795.338 Q148.538 795.685 150.482 796.379 Z" fill="#000000" fill-rule="evenodd" fill-opacity="1" /><path clip-path="url(#clip810)" d="M 0 0 M160.83 795.615 L179.186 795.615 L179.186 799.55 L165.112 799.55 L165.112 808.023 Q166.13 807.675 167.149 807.513 Q168.167 807.328 169.186 807.328 Q174.973 807.328 178.353 810.499 Q181.732 813.671 181.732 819.087 Q181.732 824.666 178.26 827.768 Q174.788 830.847 168.468 830.847 Q166.292 830.847 164.024 830.476 Q161.779 830.106 159.371 829.365 L159.371 824.666 Q161.454 825.8 163.677 826.356 Q165.899 826.911 168.376 826.911 Q172.38 826.911 174.718 824.805 Q177.056 822.698 177.056 819.087 Q177.056 815.476 174.718 813.37 Q172.38 811.263 168.376 811.263 Q166.501 811.263 164.626 811.68 Q162.774 812.097 160.83 812.976 L160.83 795.615 Z" fill="#000000" fill-rule="evenodd" fill-opacity="1" /><path clip-path="url(#clip810)" d="M 0 0 M66.918 611.711 L55.1125 630.16 L66.918 630.16 L66.918 611.711 M65.6911 607.637 L71.5707 607.637 L71.5707 630.16 L76.5012 630.16 L76.5012 634.049 L71.5707 634.049 L71.5707 642.197 L66.918 642.197 L66.918 634.049 L51.3162 634.049 L51.3162 629.535 L65.6911 607.637 Z" fill="#000000" fill-rule="evenodd" fill-opacity="1" /><path clip-path="url(#clip810)" d="M 0 0 M84.2327 636.318 L89.1169 636.318 L89.1169 642.197 L84.2327 642.197 L84.2327 636.318 Z" fill="#000000" fill-rule="evenodd" fill-opacity="1" /><path clip-path="url(#clip810)" d="M 0 0 M99.4409 641.48 L99.4409 637.221 Q101.2 638.054 103.006 638.494 Q104.811 638.934 106.547 638.934 Q111.177 638.934 113.608 635.832 Q116.061 632.707 116.408 626.364 Q115.066 628.355 113.006 629.42 Q110.946 630.485 108.446 630.485 Q103.26 630.485 100.228 627.36 Q97.2187 624.211 97.2187 618.772 Q97.2187 613.448 100.367 610.23 Q103.515 607.012 108.746 607.012 Q114.742 607.012 117.89 611.619 Q121.061 616.202 121.061 624.952 Q121.061 633.123 117.172 638.008 Q113.307 642.869 106.756 642.869 Q104.996 642.869 103.191 642.522 Q101.385 642.174 99.4409 641.48 M108.746 626.827 Q111.895 626.827 113.723 624.674 Q115.575 622.522 115.575 618.772 Q115.575 615.045 113.723 612.892 Q111.895 610.716 108.746 610.716 Q105.598 610.716 103.746 612.892 Q101.918 615.045 101.918 618.772 Q101.918 622.522 103.746 624.674 Q105.598 626.827 108.746 626.827 Z" fill="#000000" fill-rule="evenodd" fill-opacity="1" /><path clip-path="url(#clip810)" d="M 0 0 M140.043 623.054 Q136.894 623.054 135.043 625.207 Q133.214 627.36 133.214 631.11 Q133.214 634.836 135.043 637.012 Q136.894 639.165 140.043 639.165 Q143.191 639.165 145.019 637.012 Q146.871 634.836 146.871 631.11 Q146.871 627.36 145.019 625.207 Q143.191 623.054 140.043 623.054 M149.325 608.401 L149.325 612.661 Q147.566 611.827 145.76 611.387 Q143.978 610.948 142.218 610.948 Q137.589 610.948 135.135 614.073 Q132.705 617.198 132.357 623.517 Q133.723 621.503 135.783 620.438 Q137.844 619.35 140.32 619.35 Q145.529 619.35 148.538 622.522 Q151.57 625.67 151.57 631.11 Q151.57 636.434 148.422 639.651 Q145.274 642.869 140.043 642.869 Q134.047 642.869 130.876 638.285 Q127.705 633.679 127.705 624.952 Q127.705 616.758 131.594 611.897 Q135.482 607.012 142.033 607.012 Q143.793 607.012 145.575 607.36 Q147.38 607.707 149.325 608.401 Z" fill="#000000" fill-rule="evenodd" fill-opacity="1" /><path clip-path="url(#clip810)" d="M 0 0 M170.204 623.054 Q167.056 623.054 165.204 625.207 Q163.376 627.36 163.376 631.11 Q163.376 634.836 165.204 637.012 Q167.056 639.165 170.204 639.165 Q173.353 639.165 175.181 637.012 Q177.033 634.836 177.033 631.11 Q177.033 627.36 175.181 625.207 Q173.353 623.054 170.204 623.054 M179.487 608.401 L179.487 612.661 Q177.728 611.827 175.922 611.387 Q174.14 610.948 172.38 610.948 Q167.751 610.948 165.297 614.073 Q162.867 617.198 162.519 623.517 Q163.885 621.503 165.945 620.438 Q168.005 619.35 170.482 619.35 Q175.691 619.35 178.7 622.522 Q181.732 625.67 181.732 631.11 Q181.732 636.434 178.584 639.651 Q175.436 642.869 170.204 642.869 Q164.209 642.869 161.038 638.285 Q157.867 633.679 157.867 624.952 Q157.867 616.758 161.755 611.897 Q165.644 607.012 172.195 607.012 Q173.954 607.012 175.737 607.36 Q177.542 607.707 179.487 608.401 Z" fill="#000000" fill-rule="evenodd" fill-opacity="1" /><path clip-path="url(#clip810)" d="M 0 0 M67.9828 423.734 L56.1773 442.183 L67.9828 442.183 L67.9828 423.734 M66.7559 419.66 L72.6355 419.66 L72.6355 442.183 L77.5661 442.183 L77.5661 446.072 L72.6355 446.072 L72.6355 454.22 L67.9828 454.22 L67.9828 446.072 L52.381 446.072 L52.381 441.558 L66.7559 419.66 Z" fill="#000000" fill-rule="evenodd" fill-opacity="1" /><path clip-path="url(#clip810)" d="M 0 0 M85.2975 448.34 L90.1817 448.34 L90.1817 454.22 L85.2975 454.22 L85.2975 448.34 Z" fill="#000000" fill-rule="evenodd" fill-opacity="1" /><path clip-path="url(#clip810)" d="M 0 0 M100.506 453.502 L100.506 449.243 Q102.265 450.076 104.071 450.516 Q105.876 450.956 107.612 450.956 Q112.242 450.956 114.672 447.854 Q117.126 444.729 117.473 438.386 Q116.131 440.377 114.07 441.442 Q112.01 442.507 109.51 442.507 Q104.325 442.507 101.293 439.382 Q98.2835 436.234 98.2835 430.794 Q98.2835 425.47 101.432 422.252 Q104.58 419.035 109.811 419.035 Q115.807 419.035 118.955 423.641 Q122.126 428.224 122.126 436.974 Q122.126 445.146 118.237 450.03 Q114.371 454.891 107.821 454.891 Q106.061 454.891 104.256 454.544 Q102.45 454.196 100.506 453.502 M109.811 438.849 Q112.959 438.849 114.788 436.697 Q116.64 434.544 116.64 430.794 Q116.64 427.067 114.788 424.914 Q112.959 422.738 109.811 422.738 Q106.663 422.738 104.811 424.914 Q102.983 427.067 102.983 430.794 Q102.983 434.544 104.811 436.697 Q106.663 438.849 109.811 438.849 Z" fill="#000000" fill-rule="evenodd" fill-opacity="1" /><path clip-path="url(#clip810)" d="M 0 0 M141.107 435.076 Q137.959 435.076 136.107 437.229 Q134.279 439.382 134.279 443.132 Q134.279 446.859 136.107 449.034 Q137.959 451.187 141.107 451.187 Q144.256 451.187 146.084 449.034 Q147.936 446.859 147.936 443.132 Q147.936 439.382 146.084 437.229 Q144.256 435.076 141.107 435.076 M150.39 420.423 L150.39 424.683 Q148.63 423.849 146.825 423.41 Q145.043 422.97 143.283 422.97 Q138.654 422.97 136.2 426.095 Q133.769 429.22 133.422 435.539 Q134.788 433.525 136.848 432.46 Q138.908 431.373 141.385 431.373 Q146.593 431.373 149.603 434.544 Q152.635 437.692 152.635 443.132 Q152.635 448.456 149.487 451.673 Q146.339 454.891 141.107 454.891 Q135.112 454.891 131.941 450.308 Q128.769 445.701 128.769 436.974 Q128.769 428.78 132.658 423.919 Q136.547 419.035 143.098 419.035 Q144.857 419.035 146.64 419.382 Q148.445 419.729 150.39 420.423 Z" fill="#000000" fill-rule="evenodd" fill-opacity="1" /><path clip-path="url(#clip810)" d="M 0 0 M159.51 419.66 L181.732 419.66 L181.732 421.65 L169.186 454.22 L164.302 454.22 L176.107 423.595 L159.51 423.595 L159.51 419.66 Z" fill="#000000" fill-rule="evenodd" fill-opacity="1" /><path clip-path="url(#clip810)" d="M 0 0 M67.1726 235.756 L55.3671 254.205 L67.1726 254.205 L67.1726 235.756 M65.9457 231.682 L71.8253 231.682 L71.8253 254.205 L76.7559 254.205 L76.7559 258.094 L71.8253 258.094 L71.8253 266.242 L67.1726 266.242 L67.1726 258.094 L51.5708 258.094 L51.5708 253.58 L65.9457 231.682 Z" fill="#000000" fill-rule="evenodd" fill-opacity="1" /><path clip-path="url(#clip810)" d="M 0 0 M84.4873 260.362 L89.3715 260.362 L89.3715 266.242 L84.4873 266.242 L84.4873 260.362 Z" fill="#000000" fill-rule="evenodd" fill-opacity="1" /><path clip-path="url(#clip810)" d="M 0 0 M99.6956 265.524 L99.6956 261.265 Q101.455 262.098 103.26 262.538 Q105.066 262.978 106.802 262.978 Q111.432 262.978 113.862 259.876 Q116.316 256.751 116.663 250.409 Q115.32 252.399 113.26 253.464 Q111.2 254.529 108.7 254.529 Q103.515 254.529 100.483 251.404 Q97.4734 248.256 97.4734 242.816 Q97.4734 237.492 100.621 234.274 Q103.77 231.057 109.001 231.057 Q114.996 231.057 118.145 235.663 Q121.316 240.247 121.316 248.996 Q121.316 257.168 117.427 262.052 Q113.561 266.913 107.01 266.913 Q105.251 266.913 103.446 266.566 Q101.64 266.219 99.6956 265.524 M109.001 250.871 Q112.149 250.871 113.978 248.719 Q115.83 246.566 115.83 242.816 Q115.83 239.089 113.978 236.936 Q112.149 234.76 109.001 234.76 Q105.853 234.76 104.001 236.936 Q102.172 239.089 102.172 242.816 Q102.172 246.566 104.001 248.719 Q105.853 250.871 109.001 250.871 Z" fill="#000000" fill-rule="evenodd" fill-opacity="1" /><path clip-path="url(#clip810)" d="M 0 0 M140.297 247.098 Q137.149 247.098 135.297 249.251 Q133.469 251.404 133.469 255.154 Q133.469 258.881 135.297 261.057 Q137.149 263.209 140.297 263.209 Q143.445 263.209 145.274 261.057 Q147.126 258.881 147.126 255.154 Q147.126 251.404 145.274 249.251 Q143.445 247.098 140.297 247.098 M149.58 232.446 L149.58 236.705 Q147.82 235.872 146.015 235.432 Q144.232 234.992 142.473 234.992 Q137.844 234.992 135.39 238.117 Q132.959 241.242 132.612 247.561 Q133.978 245.547 136.038 244.483 Q138.098 243.395 140.575 243.395 Q145.783 243.395 148.793 246.566 Q151.825 249.714 151.825 255.154 Q151.825 260.478 148.677 263.695 Q145.529 266.913 140.297 266.913 Q134.302 266.913 131.131 262.33 Q127.959 257.723 127.959 248.996 Q127.959 240.802 131.848 235.941 Q135.737 231.057 142.288 231.057 Q144.047 231.057 145.83 231.404 Q147.635 231.751 149.58 232.446 Z" fill="#000000" fill-rule="evenodd" fill-opacity="1" /><path clip-path="url(#clip810)" d="M 0 0 M169.88 249.83 Q166.547 249.83 164.626 251.612 Q162.728 253.395 162.728 256.52 Q162.728 259.645 164.626 261.427 Q166.547 263.209 169.88 263.209 Q173.214 263.209 175.135 261.427 Q177.056 259.621 177.056 256.52 Q177.056 253.395 175.135 251.612 Q173.237 249.83 169.88 249.83 M165.204 247.839 Q162.195 247.098 160.505 245.038 Q158.839 242.978 158.839 240.015 Q158.839 235.872 161.779 233.464 Q164.742 231.057 169.88 231.057 Q175.042 231.057 177.982 233.464 Q180.922 235.872 180.922 240.015 Q180.922 242.978 179.232 245.038 Q177.566 247.098 174.579 247.839 Q177.959 248.626 179.834 250.918 Q181.732 253.209 181.732 256.52 Q181.732 261.543 178.653 264.228 Q175.598 266.913 169.88 266.913 Q164.163 266.913 161.084 264.228 Q158.029 261.543 158.029 256.52 Q158.029 253.209 159.927 250.918 Q161.825 248.626 165.204 247.839 M163.492 240.455 Q163.492 243.14 165.158 244.645 Q166.848 246.149 169.88 246.149 Q172.89 246.149 174.579 244.645 Q176.292 243.14 176.292 240.455 Q176.292 237.77 174.579 236.265 Q172.89 234.76 169.88 234.76 Q166.848 234.76 165.158 236.265 Q163.492 237.77 163.492 240.455 Z" fill="#000000" fill-rule="evenodd" fill-opacity="1" /><path clip-path="url(#clip810)" d="M 0 0 M1261.49 12.096 L1309 12.096 L1309 18.3344 L1270.76 65.6895 L1309.93 65.6895 L1309.93 72.576 L1260.55 72.576 L1260.55 66.3376 L1298.79 18.9825 L1261.49 18.9825 L1261.49 12.096 Z" fill="#000000" fill-rule="evenodd" fill-opacity="1" /><circle clip-path="url(#clip812)" cx="278.157" cy="1321.39" r="14" fill="#009af9" fill-rule="evenodd" fill-opacity="1" stroke="#000000" stroke-opacity="1" stroke-width="3.2"/>
<circle clip-path="url(#clip812)" cx="384.166" cy="1442.05" r="14" fill="#009af9" fill-rule="evenodd" fill-opacity="1" stroke="#000000" stroke-opacity="1" stroke-width="3.2"/>
<circle clip-path="url(#clip812)" cx="490.176" cy="1375.43" r="14" fill="#009af9" fill-rule="evenodd" fill-opacity="1" stroke="#000000" stroke-opacity="1" stroke-width="3.2"/>
<circle clip-path="url(#clip812)" cx="596.185" cy="1374.86" r="14" fill="#009af9" fill-rule="evenodd" fill-opacity="1" stroke="#000000" stroke-opacity="1" stroke-width="3.2"/>
<circle clip-path="url(#clip812)" cx="702.194" cy="1447.87" r="14" fill="#009af9" fill-rule="evenodd" fill-opacity="1" stroke="#000000" stroke-opacity="1" stroke-width="3.2"/>
<circle clip-path="url(#clip812)" cx="808.203" cy="1375.13" r="14" fill="#009af9" fill-rule="evenodd" fill-opacity="1" stroke="#000000" stroke-opacity="1" stroke-width="3.2"/>
<circle clip-path="url(#clip812)" cx="914.212" cy="1386.4" r="14" fill="#009af9" fill-rule="evenodd" fill-opacity="1" stroke="#000000" stroke-opacity="1" stroke-width="3.2"/>
<circle clip-path="url(#clip812)" cx="1020.22" cy="1390.53" r="14" fill="#009af9" fill-rule="evenodd" fill-opacity="1" stroke="#000000" stroke-opacity="1" stroke-width="3.2"/>
<circle clip-path="url(#clip812)" cx="1126.23" cy="162.047" r="14" fill="#009af9" fill-rule="evenodd" fill-opacity="1" stroke="#000000" stroke-opacity="1" stroke-width="3.2"/>
<circle clip-path="url(#clip812)" cx="1232.24" cy="414.575" r="14" fill="#009af9" fill-rule="evenodd" fill-opacity="1" stroke="#000000" stroke-opacity="1" stroke-width="3.2"/>
<circle clip-path="url(#clip812)" cx="1338.25" cy="529.133" r="14" fill="#009af9" fill-rule="evenodd" fill-opacity="1" stroke="#000000" stroke-opacity="1" stroke-width="3.2"/>
<circle clip-path="url(#clip812)" cx="1444.26" cy="519.696" r="14" fill="#009af9" fill-rule="evenodd" fill-opacity="1" stroke="#000000" stroke-opacity="1" stroke-width="3.2"/>
<circle clip-path="url(#clip812)" cx="1550.27" cy="519.926" r="14" fill="#009af9" fill-rule="evenodd" fill-opacity="1" stroke="#000000" stroke-opacity="1" stroke-width="3.2"/>
<circle clip-path="url(#clip812)" cx="1656.28" cy="523.983" r="14" fill="#009af9" fill-rule="evenodd" fill-opacity="1" stroke="#000000" stroke-opacity="1" stroke-width="3.2"/>
<circle clip-path="url(#clip812)" cx="1762.29" cy="529.929" r="14" fill="#009af9" fill-rule="evenodd" fill-opacity="1" stroke="#000000" stroke-opacity="1" stroke-width="3.2"/>
<circle clip-path="url(#clip812)" cx="1868.29" cy="534.135" r="14" fill="#009af9" fill-rule="evenodd" fill-opacity="1" stroke="#000000" stroke-opacity="1" stroke-width="3.2"/>
<circle clip-path="url(#clip812)" cx="1974.3" cy="515.996" r="14" fill="#009af9" fill-rule="evenodd" fill-opacity="1" stroke="#000000" stroke-opacity="1" stroke-width="3.2"/>
<circle clip-path="url(#clip812)" cx="2080.31" cy="529.685" r="14" fill="#009af9" fill-rule="evenodd" fill-opacity="1" stroke="#000000" stroke-opacity="1" stroke-width="3.2"/>
<circle clip-path="url(#clip812)" cx="2186.32" cy="536.474" r="14" fill="#009af9" fill-rule="evenodd" fill-opacity="1" stroke="#000000" stroke-opacity="1" stroke-width="3.2"/>
<circle clip-path="url(#clip812)" cx="2292.33" cy="539.643" r="14" fill="#009af9" fill-rule="evenodd" fill-opacity="1" stroke="#000000" stroke-opacity="1" stroke-width="3.2"/>
<polyline clip-path="url(#clip812)" style="stroke:#e26f46; stroke-width:12; stroke-opacity:1; fill:none" points="
  278.157,1374.89 384.166,1374.89 490.176,1374.89 596.185,1374.89 702.194,1374.89 808.203,1374.89 914.212,1374.89 1020.22,1374.89 1126.23,1374.89 1232.24,1374.89 
  1338.25,1374.89 1444.26,1374.89 1550.27,1374.89 1656.28,1374.89 1762.29,1374.89 1868.29,1374.89 1974.3,1374.89 2080.31,1374.89 2186.32,1374.89 2292.33,1374.89 
  
  "/>
<path clip-path="url(#clip810)" d="
M1918.02 350.345 L2281.59 350.345 L2281.59 168.905 L1918.02 168.905  Z
  " fill="#ffffff" fill-rule="evenodd" fill-opacity="1"/>
<polyline clip-path="url(#clip810)" style="stroke:#000000; stroke-width:4; stroke-opacity:1; fill:none" points="
  1918.02,350.345 2281.59,350.345 2281.59,168.905 1918.02,168.905 1918.02,350.345 
  "/>
<circle clip-path="url(#clip810)" cx="2012.91" cy="229.385" r="23" fill="#009af9" fill-rule="evenodd" fill-opacity="1" stroke="#000000" stroke-opacity="1" stroke-width="5.12"/>
<path clip-path="url(#clip810)" d="M 0 0 M2108.33 212.105 L2135.49 212.105 L2135.49 215.669 L2113.63 242.729 L2136.02 242.729 L2136.02 246.665 L2107.8 246.665 L2107.8 243.1 L2129.65 216.04 L2108.33 216.04 L2108.33 212.105 Z" fill="#000000" fill-rule="evenodd" fill-opacity="1" /><polyline clip-path="url(#clip810)" style="stroke:#e26f46; stroke-width:4; stroke-opacity:1; fill:none" points="
  1941.74,289.865 2084.08,289.865 
  "/>
<path clip-path="url(#clip810)" d="M 0 0 M2131.83 293.117 L2131.83 295.2 L2112.25 295.2 Q2112.52 299.598 2114.88 301.913 Q2117.27 304.205 2121.51 304.205 Q2123.96 304.205 2126.25 303.603 Q2128.57 303.001 2130.83 301.797 L2130.83 305.825 Q2128.54 306.797 2126.13 307.307 Q2123.73 307.816 2121.25 307.816 Q2115.05 307.816 2111.41 304.205 Q2107.8 300.594 2107.8 294.436 Q2107.8 288.071 2111.23 284.344 Q2114.68 280.594 2120.51 280.594 Q2125.74 280.594 2128.77 283.973 Q2131.83 287.33 2131.83 293.117 M2127.57 291.867 Q2127.52 288.372 2125.6 286.288 Q2123.7 284.205 2120.56 284.205 Q2116.99 284.205 2114.84 286.219 Q2112.71 288.233 2112.38 291.89 L2127.57 291.867 Z" fill="#000000" fill-rule="evenodd" fill-opacity="1" /><path clip-path="url(#clip810)" d="M 0 0 M2159.54 281.219 L2150.16 293.835 L2160.02 307.145 L2155 307.145 L2147.45 296.96 L2139.91 307.145 L2134.88 307.145 L2144.95 293.58 L2135.74 281.219 L2140.76 281.219 L2147.64 290.455 L2154.51 281.219 L2159.54 281.219 Z" fill="#000000" fill-rule="evenodd" fill-opacity="1" /><path clip-path="url(#clip810)" d="M 0 0 M2177.82 294.112 Q2172.66 294.112 2170.67 295.293 Q2168.68 296.473 2168.68 299.321 Q2168.68 301.589 2170.16 302.932 Q2171.67 304.251 2174.24 304.251 Q2177.78 304.251 2179.91 301.751 Q2182.06 299.228 2182.06 295.061 L2182.06 294.112 L2177.82 294.112 M2186.32 292.353 L2186.32 307.145 L2182.06 307.145 L2182.06 303.209 Q2180.6 305.571 2178.43 306.705 Q2176.25 307.816 2173.1 307.816 Q2169.12 307.816 2166.76 305.594 Q2164.42 303.348 2164.42 299.598 Q2164.42 295.223 2167.34 293.001 Q2170.28 290.779 2176.09 290.779 L2182.06 290.779 L2182.06 290.362 Q2182.06 287.423 2180.12 285.825 Q2178.19 284.205 2174.7 284.205 Q2172.48 284.205 2170.37 284.737 Q2168.26 285.27 2166.32 286.335 L2166.32 282.399 Q2168.66 281.497 2170.86 281.057 Q2173.06 280.594 2175.14 280.594 Q2180.76 280.594 2183.54 283.511 Q2186.32 286.427 2186.32 292.353 Z" fill="#000000" fill-rule="evenodd" fill-opacity="1" /><path clip-path="url(#clip810)" d="M 0 0 M2213.75 282.214 L2213.75 286.196 Q2211.94 285.2 2210.12 284.714 Q2208.31 284.205 2206.46 284.205 Q2202.31 284.205 2200.02 286.844 Q2197.73 289.46 2197.73 294.205 Q2197.73 298.95 2200.02 301.589 Q2202.31 304.205 2206.46 304.205 Q2208.31 304.205 2210.12 303.719 Q2211.94 303.209 2213.75 302.214 L2213.75 306.149 Q2211.97 306.983 2210.05 307.399 Q2208.15 307.816 2206 307.816 Q2200.14 307.816 2196.69 304.135 Q2193.24 300.455 2193.24 294.205 Q2193.24 287.862 2196.71 284.228 Q2200.21 280.594 2206.27 280.594 Q2208.24 280.594 2210.12 281.011 Q2211.99 281.404 2213.75 282.214 Z" fill="#000000" fill-rule="evenodd" fill-opacity="1" /><path clip-path="url(#clip810)" d="M 0 0 M2225.37 273.858 L2225.37 281.219 L2234.14 281.219 L2234.14 284.529 L2225.37 284.529 L2225.37 298.603 Q2225.37 301.774 2226.23 302.677 Q2227.11 303.58 2229.77 303.58 L2234.14 303.58 L2234.14 307.145 L2229.77 307.145 Q2224.84 307.145 2222.96 305.316 Q2221.09 303.464 2221.09 298.603 L2221.09 284.529 L2217.96 284.529 L2217.96 281.219 L2221.09 281.219 L2221.09 273.858 L2225.37 273.858 Z" fill="#000000" fill-rule="evenodd" fill-opacity="1" /></svg>
